<svg xmlns="http://www.w3.org/2000/svg" xmlns:xlink="http://www.w3.org/1999/xlink" viewBox="0 0 33.6 19.6"><defs><clipPath id="a"><rect width="33.6" height="19.57" fill="none"/></clipPath><clipPath id="d"><rect x="14.4" y="13.2" width="4.7" height="1.52" fill="none"/></clipPath><clipPath id="e"><rect x="17.7" y="11.2" width="0.9" height="0.46" fill="none"/></clipPath></defs><title>Asset 3</title><g clip-path=""><g clip-path=""><rect width="33.6" height="19.57"/><rect x="11.2" width="11.2" height="19.57" fill="#ae0018"/><rect x="22.4" width="11.2" height="19.57" fill="#3e9a13"/><g clip-path=""><path d="M21.5,9.9h.1V9.7h-.1v.3Z" fill="#fff"/><path d="M21.6,10h-.1V9.7h.1V10Zm.1-.3v.3h0V9.7Z" fill="#b06a1a"/><path d="M14.6,14c-.1.2-.9-.2-1-.4s1,.2,1,.4Z" fill="#fff"/><path d="M14.5,14a1.5,1.5,0,0,1-.9-.4l.6.2c.2,0,.4.1.3.2Zm-.9-.4c.1.2.9.5,1,.4l-.3-.2-.6-.2Z" fill="#b06a1a"/><path d="M12,10c0,.1.1,0,0,0H12V9.6h0V10Z" fill="#fff"/><path d="M12,10h0Zm-.2-.3h0Z" fill="#b06a1a"/><path d="M13.1,11.3a.5.5,0,0,1,.2.4.9.9,0,0,0,.1.4c-.1,0-.2-.2-.2-.4s-.1-.2-.2-.4Z" fill="#fff"/><path d="M13.5,12.1h0c-.1,0-.2-.3-.2-.4v-.2h-.1a.4.4,0,0,1,.3.4.8.8,0,0,0,.1.4Zm-.4-.8h.1v.3a.5.5,0,0,0,.1.3.9.9,0,0,1-.1-.4.5.5,0,0,0-.2-.3Z" fill="#b06a1a"/><path d="M13.4,11.6c.1.2.2.2.2.4v.3c-.1,0-.1,0-.2-.2s-.1-.3-.1-.4Z" fill="#fff"/><path d="M13.7,12.3h0c-.1,0-.1,0-.2-.3v.2Zm-.3-.7V12c0,.2.1.2.1.2h0v-.6Z" fill="#b06a1a"/><path d="M15.5,12.5a.7.7,0,0,1,.3.4l.2.4a.7.7,0,0,1-.3-.4l-.2-.4Z" fill="#fff"/><path d="M18.1,12.5a.7.7,0,0,0-.3.4l-.2.4a.7.7,0,0,0,.3-.4l.2-.4Z" fill="#fff"/><path d="M17.9,12.5a.9.9,0,0,0-.3.4,1.3,1.3,0,0,1-.2.4.6.6,0,0,0,.3-.4l.2-.4Z" fill="#fff"/><path d="M16.2,13.2c.1.1.1.2.2.2l-.2-.2Z" fill="#fff"/><path d="M16.3,13.2c.2.1.4.1.4.2s-.3-.1-.4-.2Z" fill="#fff"/><path d="M17.4,13.2c-.1.1-.1.2-.2.2l.2-.2Z" fill="#fff"/><path d="M17.2,13.2c-.2.1-.4.1-.4.2s.3-.1.4-.2Z" fill="#fff"/><path d="M14.5,9.1c-.1-.1-.1.1-.4.3a.6.6,0,0,0-.2.5c0,.1,0,.2,0,.3s-.1.2,0,.2l.3.4c.1.1.1-.3.2-.4s0-.4.2-.5l.3-.2Z" fill="#fff"/><path d="M14.2,10.8h-.1l-.2-.2s0-.1,0-.2h0a1,1,0,0,0,0-.2s0-.1,0-.1a.7.7,0,0,1,.2-.5l.3-.3h.2l.3.5h-.3a.6.6,0,0,0-.1.3v.2h0c0,.2-.1.3-.1.3Zm.3-1.7h-.1l-.3.3a.7.7,0,0,0-.2.5h0a1,1,0,0,1,0,.2h0c0,.1,0,.1,0,.2l.3.3h.1v-.6a.6.6,0,0,1,.1-.4h.3l-.3-.5Z" fill="#b06a1a"/><path d="M14.3,10.4h-.5a1.5,1.5,0,0,1,0,.2c0,.1-.1.2,0,.2l.3.4c.1.1.1-.2.2-.4Z" fill="#fff"/><path d="M14.2,10.8h-.1l-.2-.2s0-.1,0-.2h0a.7.7,0,0,0,0-.2h0a.4.4,0,0,1,0,.2h0c0,.1,0,.1,0,.2l.3.3h.1v-.3h0v.2h0c0,.2-.1.3-.1.3Z" fill="#b06a1a"/><path d="M14.5,9.9h-.4a.2.2,0,0,1,0-.1h0a.6.6,0,0,0-.2.5.7.7,0,0,0,0,.1h.5a1.3,1.3,0,0,1,.1-.5Z" fill="#ae0018"/><path d="M14.3,10.4h-.5a.7.7,0,0,1,.2-.5h0a.8.8,0,0,0-.2.5h.5v-.2a.7.7,0,0,1,.1-.3h-.4a.2.2,0,0,1,0-.1h.4v.5Z" fill="#b06a1a"/><path d="M14.5,9l-.4.4a.2.2,0,0,0,0,.1h.4l.3-.2-.3-.5Z" fill="#fff"/><path d="M14.5,9.9h-.4a.3.3,0,0,1,0-.1l.3-.3h.2l.3.5h-.4Zm0-.8h-.1l-.3.3h.4l.2-.2h.1l-.3-.5Z" fill="#b06a1a"/><path d="M14.5,9.9l-.2-.2a.2.2,0,0,1-.2-.3h0a.2.2,0,0,0,.2.3l.2.2Z" fill="#b06a1a"/><path d="M14.3,10.4l-.3-.2H14l-.2-.2h.3l.3.3Z" fill="#b06a1a"/><polygon points="14.4 8.9 14.5 8.9 15.4 10.5 15.4 10.5 14.4 8.9" fill="#fff"/><path d="M15.3,10.6l-1-1.6h.1l1,1.6Zm-.9-1.6h0l1,1.6h0l-1-1.6Z" fill="#b06a1a"/><polygon points="14.4 8.9 14.5 8.9 15.4 10.5 15.4 10.5 14.4 8.9" fill="#fff"/><path d="M15.3,10.6l-1-1.6h.1l1,1.6Zm-.9-1.6h0l1,1.6h0l-1-1.6Z" fill="#b06a1a"/><path d="M14.5,8.9h0Z" fill="#fff"/><path d="M14.4,9h0Zm0-.2h-.1c0,.1.2.1.2,0Z" fill="#b06a1a"/><path d="M14.5,8.9h0Z" fill="#fff"/><path d="M14.4,9h0Zm0-.2h-.1c0,.1.2.1.2,0Z" fill="#b06a1a"/><path d="M19.1,9.1c.1-.1.1.2.4.3a.7.7,0,0,1,.2.5c0,.1,0,.2,0,.3s.1.2,0,.3l-.3.4c-.1.1-.1-.3-.2-.4s0-.4-.2-.5l-.3-.3Z" fill="#fff"/><path d="M19.4,10.9s-.1-.1-.1-.3v-.3a.6.6,0,0,0-.1-.3h-.3l.3-.6h.2l.3.3a.7.7,0,0,1,.2.5s0,.1,0,.1a1.4,1.4,0,0,0,0,.2h0c0,.1,0,.2,0,.2l-.2.3h-.1Zm-.3-1.8-.4.6h.3a.6.6,0,0,1,.1.4v.6h.1l.3-.3s0-.1,0-.2h0a.9.9,0,0,1,0-.2h0a.7.7,0,0,0-.2-.5l-.3-.3Z" fill="#b06a1a"/><path d="M19.7,10h-.5c0,.2.1.5.2.4l.3-.4s0-.2,0-.2a1,1,0,0,1,0-.2Z" fill="#fff"/><path d="M19.4,10.9s-.1-.1-.1-.3h0v-.2h.4v.2h0c0,.1,0,.2,0,.2l-.2.3h-.1Zm.3-.8h-.4v.3h.1l.3-.3s0-.1,0-.2h0a.4.4,0,0,1,0-.1Z" fill="#b06a1a"/><path d="M19.5,9.4a.3.3,0,0,1,0,.1h-.4a1.5,1.5,0,0,1,.1.5h.5a.7.7,0,0,0-.2-.5Z" fill="#ae0018"/><path d="M19.2,10.5h0v-.2a.7.7,0,0,0-.1-.3V9.8h.3a.2.2,0,0,0,0-.1.6.6,0,0,1,.3.5.7.7,0,0,1,0,.1h-.5Zm.3-1a.2.2,0,0,1,0,.1h-.4a.7.7,0,0,1,.1.3v.2h.5a.7.7,0,0,0-.2-.5Z" fill="#b06a1a"/><path d="M19.1,9.1h0l-.3.6.3.3h.4a.3.3,0,0,0,0-.1l-.4-.4Z" fill="#fff"/><path d="M19.1,10h0l-.2-.2h-.1l.4-.6h.1l.3.3a.4.4,0,0,1,0,.1h-.4Zm0-.9-.4.6h.7a.2.2,0,0,0,0-.1l-.3-.2Z" fill="#b06a1a"/><polygon points="19.2 9 19.1 8.9 18.2 10.6 18.2 10.6 19.2 9" fill="#fff"/><path d="M18.2,10.6h-.1l.9-1.7h.1l-1,1.7Zm.9-1.7-.9,1.7h0L19.2,9Z" fill="#b06a1a"/><path d="M19.3,10.5l.2-.3h.3a.2.2,0,0,1-.2.2h-.1l-.2.3Zm-.1-.5.2-.3a.2.2,0,0,0,.2-.3h0a.2.2,0,0,1-.2.3l-.2.2Z" fill="#b06a1a"/><polygon points="19.2 9 19.1 8.9 18.2 10.6 18.2 10.6 19.2 9" fill="#fff"/><path d="M18.2,10.6h-.1l.9-1.7h.1l-1,1.7Zm.9-1.7-.9,1.7h0L19.2,9Z" fill="#b06a1a"/><path d="M19.1,8.9h0Z" fill="#fff"/><path d="M19.2,9h0Zm0-.2h-.1c0,.1.2.1.2,0Z" fill="#b06a1a"/><path d="M19.1,8.9h0Z" fill="#fff"/><path d="M19.2,9h0Zm0-.2h-.1c0,.1.2.1.2,0Z" fill="#b06a1a"/><rect x="15.3" y="7.6" width="0.4" height="0.09" fill="#fff"/><path d="M15.7,7.7h0Zm0-.1h0Z" fill="#b06a1a"/><rect x="15.3" y="7.8" width="0.4" height="0.73" fill="#fff"/><path d="M15.7,8.5h-.4V7.8h.4v.8Zm0-.7h-.4v.7h.4V7.8Z" fill="#b06a1a"/><path d="M15.3,7.5h.4a.3.3,0,0,0-.2-.3.3.3,0,0,0-.2.3Z" fill="#fff"/><path d="M15.7,7.5h-.4c0-.1.1-.3.2-.3h.1a.3.3,0,0,1,.1.2Zm-.2-.3a.3.3,0,0,0-.2.3h.4V7.3Z" fill="#b06a1a"/><rect x="17.9" y="7.6" width="0.4" height="0.09" fill="#fff"/><path d="M18.3,7.7h0Zm0-.1h0Z" fill="#b06a1a"/><rect x="17.9" y="7.8" width="0.4" height="0.74" fill="#fff"/><path d="M18.3,8.5h-.4V7.8h.4v.8Zm0-.7h-.4v.7h.4V7.8Z" fill="#b06a1a"/><path d="M17.8,7.5h.4c0-.1-.1-.3-.2-.3s-.2.2-.2.3Z" fill="#fff"/><path d="M18.3,7.5h-.4a.3.3,0,0,1,.2-.3h.1v.2ZM18,7.2a.3.3,0,0,0-.2.3h.4V7.3Z" fill="#b06a1a"/><rect x="15.3" y="7.6" width="0.4" height="0.09" fill="#fff"/><path d="M15.7,7.7h0Zm0-.1h0Z" fill="#b06a1a"/><rect x="15.3" y="7.8" width="0.4" height="0.73" fill="#fff"/><path d="M15.7,8.5h-.4V7.8h.4v.8Zm0-.7h-.4v.7h.4V7.8Z" fill="#b06a1a"/><path d="M15.3,7.5h.4a.3.3,0,0,0-.2-.3.3.3,0,0,0-.2.3Z" fill="#fff"/><path d="M15.7,7.5h-.4c0-.1.1-.3.2-.3h.1a.3.3,0,0,1,.1.2Zm-.2-.3a.3.3,0,0,0-.2.3h.4V7.3Z" fill="#b06a1a"/><rect x="17.9" y="7.6" width="0.4" height="0.09" fill="#fff"/><path d="M18.3,7.7h0Zm0-.1h0Z" fill="#b06a1a"/><rect x="17.9" y="7.8" width="0.4" height="0.74" fill="#fff"/><path d="M18.3,8.5h-.4V7.8h.4v.8Zm0-.7h-.4v.7h.4V7.8Z" fill="#b06a1a"/><path d="M17.8,7.5h.4c0-.1-.1-.3-.2-.3s-.2.2-.2.3Z" fill="#fff"/><path d="M18.3,7.5h-.4a.3.3,0,0,1,.2-.3h.1v.2ZM18,7.2a.3.3,0,0,0-.2.3h.4V7.3Z" fill="#b06a1a"/><rect x="17.9" y="7.8" width="0.4" height="0.74" fill="#fff"/><rect x="17.9" y="7.6" width="0.4" height="0.09" fill="#fff"/><path d="M17.8,7.5h.4c0-.1-.1-.3-.2-.3s-.2.2-.2.3Z" fill="#fff"/><polygon points="15 8.6 15.2 8.9 18.3 8.9 18.5 8.6 17.8 8.6 17.4 8.4 16.2 8.3 15.8 8.6 15 8.6" fill="#fff"/><polygon points="15 8.6 15.2 8.9 18.3 8.9 18.5 8.6 17.8 8.6 17.4 8.4 16.2 8.3 15.8 8.6 15 8.6" fill="#fff"/><rect x="15.3" y="7.8" width="0.4" height="0.73" fill="#fff"/><rect x="15.3" y="7.6" width="0.4" height="0.09" fill="#fff"/><path d="M15.3,7.5h.4c0-.1-.1-.3-.2-.3a.3.3,0,0,0-.2.3Z" fill="#fff"/><path d="M16.2,8.3h0c-.2-.1-.2-.2-.2-.5a.6.6,0,0,1,.6-.6h.3a.6.6,0,0,1,.6.6c0,.1,0,.4-.2.5Zm.5-1.3h-.2a.6.6,0,0,0-.6.6c0,.2,0,.3.2.4h1.1c.1-.1.2-.3.2-.4a.6.6,0,0,0-.6-.6h-.1Z" fill="#b06a1a"/><path d="M16.2,8.3h1.1c.1-.1.2-.3.2-.5a.6.6,0,0,0-.6-.6h-.3a.6.6,0,0,0-.6.6c0,.2,0,.3.2.5Z" fill="#fff"/><path d="M16.4,7.4l-.2.2a.7.7,0,0,0,0,.3h.1a.9.9,0,0,1,0-.3l.2-.2h-.1Zm0,0h0l-.2.3a.9.9,0,0,0,0,.3h-.1a.7.7,0,0,1,0-.3l.2-.2Z" fill="#b06a1a"/><path d="M16.5,7.5l-.2.2a.8.8,0,0,0,0,.3h.1a.1.1,0,0,0,0-.1.7.7,0,0,1,0-.3V7.6h-.1Zm0,0h0v.2a.8.8,0,0,0,0,.3h-.1a.7.7,0,0,1,0-.3l.2-.2Z" fill="#b06a1a"/><path d="M17.2,7.4h-.1l.2.2a1,1,0,0,1,0,.3h.1a.6.6,0,0,0,0-.3l-.2-.2Zm0,0,.2.2a.6.6,0,0,1,0,.3h-.1a.9.9,0,0,0,0-.3l-.2-.2h0Z" fill="#b06a1a"/><path d="M17,7.5H17v.2a.7.7,0,0,1,0,.3.1.1,0,0,0,0,.1h.1a.8.8,0,0,0,0-.3L17,7.5Zm0,0,.2.2a.7.7,0,0,1,0,.3h-.1a.7.7,0,0,0,0-.3V7.6h0Z" fill="#b06a1a"/><polygon points="14.5 12.1 19 12.1 18.6 11.7 14.9 11.7 14.5 12.1" fill="#fff"/><polygon points="14.5 12.1 19 12.1 18.6 11.7 14.9 11.7 14.5 12.1" fill="#fff"/><rect x="15.3" y="9.1" width="0.4" height="0.59" fill="#fff"/><path d="M15.7,9.7h-.4V9.1h.4v.6Zm0-.6h-.4v.6h.4V9.1Z" fill="#b06a1a"/><rect x="15.3" y="10" width="0.4" height="0.13" fill="#fff"/><path d="M15.7,10.2h0Zm0-.1h0Z" fill="#b06a1a"/><rect x="15.3" y="10.3" width="0.4" height="0.47" fill="#fff"/><path d="M15.7,10.7h-.4v-.5h.4v.5Zm0-.5h-.4v.5h.4v-.5Z" fill="#b06a1a"/><rect x="15.3" y="10.8" width="0.5" height="0.26" fill="#fff"/><path d="M15.8,11.1h-.5v-.3h.5v.3Zm0-.3h-.5v.3h.4v-.3Z" fill="#b06a1a"/><polygon points="15.3 9.9 15.7 9.9 15.8 9.8 15.3 9.8 15.3 9.9" fill="#fff"/><path d="M15.7,9.9h0Zm.1-.1h0Z" fill="#b06a1a"/><path d="M15.8,9.5V9.1h.3l-.3.3Z" fill="#fff"/><path d="M15.9,9.5h0V9.1h.3l-.3.3Zm.2-.3h-.3v.3l.2-.3Z" fill="#b06a1a"/><rect x="17.8" y="9.1" width="0.4" height="0.59" fill="#fff"/><path d="M18.3,9.7h-.4V9.1h.4v.6Zm0-.6h-.4v.6h.4V9.1Z" fill="#b06a1a"/><rect x="17.8" y="10" width="0.4" height="0.13" fill="#fff"/><path d="M18.3,10.2h0Zm0-.1h0Z" fill="#b06a1a"/><rect x="17.8" y="10.3" width="0.4" height="0.47" fill="#fff"/><path d="M18.3,10.7h-.4v-.5h.4v.5Zm0-.5h-.4v.5h.4v-.5Z" fill="#b06a1a"/><rect x="17.8" y="10.8" width="0.5" height="0.26" fill="#fff"/><path d="M18.3,11.1h-.5v-.3h.5v.3Zm0-.3h-.4v.3h.4v-.3Z" fill="#b06a1a"/><polygon points="18.2 9.9 17.8 9.9 17.8 9.8 18.3 9.8 18.2 9.9" fill="#fff"/><path d="M18.2,9.9h0Zm.1-.1h0Z" fill="#b06a1a"/><path d="M17.7,9.5V9.1h-.3l.3.3Z" fill="#fff"/><path d="M17.7,9.5l-.3-.3h.3v.3Zm0-.3h-.2l.3.3V9.1Z" fill="#b06a1a"/><rect x="15.3" y="9.1" width="0.4" height="0.59" fill="#fff"/><path d="M15.7,9.7h-.4V9.1h.4v.6Zm0-.6h-.4v.6h.4V9.1Z" fill="#b06a1a"/><rect x="15.3" y="10" width="0.4" height="0.13" fill="#fff"/><path d="M15.7,10.2h0Zm0-.1h0Z" fill="#b06a1a"/><rect x="15.3" y="10.3" width="0.4" height="0.47" fill="#fff"/><path d="M15.7,10.7h-.4v-.5h.4v.5Zm0-.5h-.4v.5h.4v-.5Z" fill="#b06a1a"/><rect x="15.3" y="10.8" width="0.5" height="0.26" fill="#fff"/><path d="M15.8,11.1h-.5v-.3h.5v.3Zm0-.3h-.5v.3h.4v-.3Z" fill="#b06a1a"/><polygon points="15.3 9.9 15.7 9.9 15.8 9.8 15.3 9.8 15.3 9.9" fill="#fff"/><path d="M15.7,9.9h0Zm.1-.1h0Z" fill="#b06a1a"/><path d="M15.8,9.5V9.1h.3l-.3.3Z" fill="#fff"/><path d="M15.9,9.5h0V9.1h.3l-.3.3Zm.2-.3h-.3v.3l.2-.3Z" fill="#b06a1a"/><rect x="17.8" y="9.1" width="0.4" height="0.59" fill="#fff"/><path d="M18.3,9.7h-.4V9.1h.4v.6Zm0-.6h-.4v.6h.4V9.1Z" fill="#b06a1a"/><rect x="17.8" y="10" width="0.4" height="0.13" fill="#fff"/><path d="M18.3,10.2h0Zm0-.1h0Z" fill="#b06a1a"/><rect x="17.8" y="10.3" width="0.4" height="0.47" fill="#fff"/><path d="M18.3,10.7h-.4v-.5h.4v.5Zm0-.5h-.4v.5h.4v-.5Z" fill="#b06a1a"/><rect x="17.8" y="10.8" width="0.5" height="0.26" fill="#fff"/><path d="M18.3,11.1h-.5v-.3h.5v.3Zm0-.3h-.4v.3h.4v-.3Z" fill="#b06a1a"/><polygon points="18.2 9.9 17.8 9.9 17.8 9.8 18.3 9.8 18.2 9.9" fill="#fff"/><path d="M18.2,9.9h0Zm.1-.1h0Z" fill="#b06a1a"/><path d="M17.7,9.5V9.1h-.3l.3.3Z" fill="#fff"/><path d="M17.7,9.5l-.3-.3h.3v.3Zm0-.3h-.2l.3.3V9.1Z" fill="#b06a1a"/><path d="M15.6,9.7h0V9.3h-.1c0,.1,0,.2,0,.3h-.1V9.2c0-.1.2-.1.3-.1h0c0,.1,0,.3,0,.4Zm-.1-.4h.1v.3h.1c0-.1,0-.3,0-.4s-.3-.1-.3,0v.4h.1c0-.1,0-.2,0-.2Z" fill="#b06a1a"/><path d="M18.2,9.7h0V9.3H18c0,.1,0,.2,0,.2h-.1V9.3c0-.1.2-.1.3-.1h0v.4ZM18,9.3h.1v.3h.1V9.3c-.1-.1-.3-.1-.3,0v.4H18c0-.1,0-.2,0-.2Z" fill="#b06a1a"/><path d="M15.7,10.7h-.3v-.4h.3v.4Zm0-.4h-.3v.4h.3v-.4Z" fill="#b06a1a"/><rect x="15.6" y="10.5" width="0.1" height="0.06"/><rect x="15.6" y="10.5" width="0.1" height="0.06" fill="none"/><rect x="15.4" y="10.5" width="0.1" height="0.06"/><rect x="15.4" y="10.5" width="0.1" height="0.06" fill="none"/><rect x="15.5" y="10.3" width="0.1" height="0.15"/><polygon points="15.6 10.5 15.5 10.5 15.5 10.3 15.6 10.3 15.6 10.5 15.6 10.5" fill="#b06a1a"/><rect x="15.5" y="10.5" width="0.1" height="0.16"/><polygon points="15.6 10.7 15.5 10.7 15.5 10.5 15.6 10.5 15.6 10.7 15.6 10.7" fill="#b06a1a"/><path d="M18.2,10.7h-.3v-.4h.3v.4Zm0-.4h-.3v.4h.3v-.4Z" fill="#b06a1a"/><rect x="18.1" y="10.5" width="0.1" height="0.06"/><rect x="18.1" y="10.5" width="0.1" height="0.06" fill="none"/><rect x="17.9" y="10.5" width="0.1" height="0.06"/><rect x="17.9" y="10.5" width="0.1" height="0.06" fill="none"/><rect x="18" y="10.3" width="0.1" height="0.16"/><polygon points="18.1 10.5 18 10.5 18 10.3 18.1 10.3 18.1 10.5 18.1 10.5" fill="#b06a1a"/><rect x="18" y="10.5" width="0.1" height="0.16"/><polygon points="18.1 10.7 18 10.7 18 10.5 18.1 10.5 18.1 10.7 18.1 10.7" fill="#b06a1a"/><rect x="17.6" y="10.3" width="0.1" height="0.38" fill="#fff"/><path d="M17.7,10.7h-.1v-.4h.1v.4Zm0-.4h0v.4h0v-.4Z" fill="#b06a1a"/><path d="M16.6,10.8v.2h.2l-.2-.2Zm-.1.2v.2h.2v-.2Zm.4,0,.2.2h.3l-.2-.2Zm-1.8.6a.7.7,0,0,0,.3-.5h.4c0,.1,0,.2.1.2h.4v-.2h-.3V9.8c0-.5.6-.7.8-.7h.1a.9.9,0,0,1,.8.7v.4h-.1V9.8a.8.8,0,0,0-.8-.7c-.3,0-.8.3-.8.7h1.1v.2h.2v.2h.2v.2h.1v.2h-.2l.3.3h-.4l-.2-.3h-.3v.3h-.3v-.3h-.3v.3Zm1.2-.8v.2h.3v-.2Z" fill="#fff"/><path d="M16.2,11.7H15a.7.7,0,0,0,.3-.5h.4v.2h.4v-.2h-.3V9.8a.6.6,0,0,1,.2-.4,1,1,0,0,1,.6-.3h.2a.9.9,0,0,1,.8.7v.4h-.1V9.8a.8.8,0,0,0-.8-.7c-.3,0-.8.3-.8.7h1.1v.2h.2v.2h.2v.2h.1v.2h-.3l.3.3h-.4l-.2-.3h-.2v.3h-.3v-.3h-.3v.3Zm-.5-.5h-.4a.6.6,0,0,1-.3.5h1.2v-.3h.3v-.2h-.3v-.3h.2v.2h.2v-.2h.1l.2.3h-.2v.2h-.2v.3h.3v-.3H17v-.2h.2l.3.2H17l.2.3h.4l-.3-.3h.2V11h-.1v-.2h-.2v-.2h-.2v-.2H15.9c0-.4.5-.7.8-.7h0a.9.9,0,0,1,.9.7v.4h0V9.8a.9.9,0,0,0-.8-.7h-.1l-.6.3a.6.6,0,0,0-.2.4v1.3h.3v.3h-.4c-.1,0-.1-.1-.1-.2Zm.8-.1v.2h.2v-.2h.2l-.2-.2h-.1v.2Zm.6,0h-.2l.2.2h.3l-.3-.2Zm-.9-.2v.2h.3v-.2Z" fill="#b06a1a"/><path d="M16.6,10.8v.2h.2l-.2-.2Zm-.1.2v.2h.2v-.2Zm.4,0,.2.2h.3l-.2-.2Zm-1.8.6a.7.7,0,0,0,.3-.5h.4c0,.1,0,.2.1.2h.4v-.2h-.3V9.8c0-.5.6-.7.8-.7h.1a.9.9,0,0,1,.8.7v.4h-.1V9.8a.8.8,0,0,0-.8-.7c-.3,0-.8.3-.8.7h1.1v.2h.2v.2h.2v.2h.1v.2h-.2l.3.3h-.4l-.2-.3h-.3v.3h-.3v-.3h-.3v.3Zm1.2-.8v.2h.3v-.2Z" fill="#fff"/><path d="M16.2,11.7H15a.7.7,0,0,0,.3-.5h.4v.2h.4v-.2h-.3V9.8a.6.6,0,0,1,.2-.4,1,1,0,0,1,.6-.3h.2a.9.9,0,0,1,.8.7v.4h-.1V9.8a.8.8,0,0,0-.8-.7c-.3,0-.8.3-.8.7h1.1v.2h.2v.2h.2v.2h.1v.2h-.3l.3.3h-.4l-.2-.3h-.2v.3h-.3v-.3h-.3v.3Zm-.5-.5h-.4a.6.6,0,0,1-.3.5h1.2v-.3h.3v-.2h-.3v-.3h.2v.2h.2v-.2h.1l.2.3h-.2v.2h-.2v.3h.3v-.3H17v-.2h.2l.3.2H17l.2.3h.4l-.3-.3h.2V11h-.1v-.2h-.2v-.2h-.2v-.2H15.9c0-.4.5-.7.8-.7h0a.9.9,0,0,1,.9.7v.4h0V9.8a.9.9,0,0,0-.8-.7h-.1l-.6.3a.6.6,0,0,0-.2.4v1.3h.3v.3h-.4c-.1,0-.1-.1-.1-.2Zm.8-.1v.2h.2v-.2h.2l-.2-.2h-.1v.2Zm.6,0h-.2l.2.2h.3l-.3-.2Zm-.9-.2v.2h.3v-.2Z" fill="#b06a1a"/><path d="M16.4,10.8h-.2v-.4h.2v.4Zm0-.4h-.2v.4h.2v-.4Z" fill="#b06a1a"/><path d="M16.5,10.9v-.3c0-.1-.1-.2-.1-.2s-.2.1-.2.3v.3H16v-.8h.7v.8Zm.2-.8H16v.8h.2v-.3c0-.1.1-.3.2-.3h0c.1,0,.2.1.2.3v.3h.2v-.8Z" fill="#b06a1a"/><path d="M17.6,11.2h-.2V11h.2v.2Zm0-.2h-.2v.2h.2V11Z" fill="#b06a1a"/><path d="M17.4,10.9h-.2v-.2h.2v.2Zm0-.2h-.2v.2h.2v-.2Z" fill="#b06a1a"/><path d="M17.2,10.6H17v-.2h.2v.2Zm0-.2H17v.2h.2v-.2Z" fill="#b06a1a"/><path d="M17.1,10.4h-.2v-.2H17v.2Zm0-.2h-.2v.2H17v-.2Z" fill="#b06a1a"/><path d="M17.3,11.2l-.4-.4h-.2v-.8h.1v.3H17v.2h.2v.2h.1v.2Zm-.4-.4.4.3V11h-.1v-.2H17v-.2h-.2v-.2h-.1v.8Z" fill="#b06a1a"/><rect x="17.6" y="10.3" width="0.1" height="0.38" fill="#fff"/><path d="M17.7,10.7h-.1v-.4h.1v.4Zm0-.4h0v.4h0v-.4Z" fill="#b06a1a"/><path d="M13.8,6.5c0,.3-.1.5-.2.4s.1-.3.2-.4Z" fill="#fff"/><path d="M13.6,6.9h0c-.1-.2.1-.3.2-.5a.5.5,0,0,1-.1.4Zm.2-.4c-.1.2-.3.3-.2.4h.1a.5.5,0,0,0,.1-.4Z" fill="#b06a1a"/><path d="M13.4,7.2c-.1-.1,0-.6,0-.9s.1.7,0,.9Z" fill="#fff"/><path d="M13.4,7.2h0c-.2-.1,0-.7,0-.9h0c0,.3.1.7,0,.8Zm0-.9c0,.3-.1.8,0,.8s.1-.5,0-.8Z" fill="#b06a1a"/><path d="M13.5,7.2c.2.1.4-.2.5-.5s-.5.3-.5.5Z" fill="#fff"/><path d="M13.6,7.2h-.1c0-.1.1-.2.2-.2l.3-.2c0,.3-.2.5-.4.5Zm.4-.5-.3.3c-.1.1-.2.1-.2.2h.1c.2,0,.3-.2.4-.5Z" fill="#b06a1a"/><path d="M13.3,7.5c-.2-.1-.1-.6,0-.9s.2.8,0,.9Z" fill="#fff"/><path d="M13.3,7.5h0c-.2,0-.1-.5-.1-.8h.1c.1.3.1.7,0,.7Zm0-.9h0c0,.3-.1.7,0,.8s0-.5,0-.7Z" fill="#b06a1a"/><path d="M13.4,7.4c0-.2.2-.1.3-.3a.3.3,0,0,1-.3.3Z" fill="#fff"/><path d="M13.4,7.5h-.1c0-.1.1-.2.2-.2h.2a.3.3,0,0,1-.3.3Zm.3-.3h-.2c-.1,0-.2.1-.2.2h0a.3.3,0,0,0,.3-.2Z" fill="#b06a1a"/><path d="M13.1,7.7c-.2-.1-.1-.7-.1-.9s.2.9.1.9Z" fill="#fff"/><path d="M13.1,7.7h0c-.1,0-.1-.4-.1-.7a2.5,2.5,0,0,0,0-.3h0c.1.4.2.8.1.9Zm-.1-.9a1.5,1.5,0,0,1,0,.2c0,.3,0,.6.1.6s0-.6-.1-.9Z" fill="#b06a1a"/><path d="M13.2,7.7a.3.3,0,0,0,.4-.2c-.1.1-.3,0-.4.2Z" fill="#fff"/><path d="M13.3,7.7h-.1c0-.2.1-.2.2-.2h.2a.3.3,0,0,1-.3.3Zm-.1,0h.1a.3.3,0,0,0,.3-.2h-.1c-.1,0-.2,0-.2.2Z" fill="#b06a1a"/><path d="M13,8c-.2,0-.1-.5-.1-1s.2.9.1,1Z" fill="#fff"/><path d="M13,8h-.1c-.1-.1-.1-.3-.1-.6s0-.2,0-.4v.4c.1.3.1.5,0,.6Zm-.1-1a2.7,2.7,0,0,1,0,.3,1.3,1.3,0,0,0,0,.6H13c.1-.1,0-.3,0-.6V7Z" fill="#b06a1a"/><path d="M13.1,8a.3.3,0,0,0,.4-.2c-.2.1-.4,0-.4.2Z" fill="#fff"/><path d="M13.1,8h-.1c0-.2.1-.2.2-.2h.2a.3.3,0,0,1-.3.3Zm.3-.3h-.2c-.1,0-.2,0-.2.2h.1a.3.3,0,0,0,.3-.2Z" fill="#b06a1a"/><path d="M13.8,6.5c0,.3-.1.5-.2.4s.1-.3.2-.4Z" fill="#fff"/><path d="M13.6,6.9h0c-.1-.2.1-.3.2-.5a.5.5,0,0,1-.1.4Zm.2-.4c-.1.2-.3.3-.2.4h.1a.5.5,0,0,0,.1-.4Z" fill="#b06a1a"/><path d="M13.4,7.2c-.1-.1,0-.6,0-.9s.1.7,0,.9Z" fill="#fff"/><path d="M13.4,7.2h0c-.2-.1,0-.7,0-.9h0c0,.3.1.7,0,.8Zm0-.9c0,.3-.1.8,0,.8s.1-.5,0-.8Z" fill="#b06a1a"/><path d="M13.5,7.2c.2.1.4-.2.5-.5s-.5.3-.5.5Z" fill="#fff"/><path d="M13.6,7.2h-.1c0-.1.1-.2.2-.2l.3-.2c0,.3-.2.5-.4.5Zm.4-.5-.3.3c-.1.1-.2.1-.2.2h.1c.2,0,.3-.2.4-.5Z" fill="#b06a1a"/><path d="M13.3,7.5c-.2-.1-.1-.6,0-.9s.2.8,0,.9Z" fill="#fff"/><path d="M13.3,7.5h0c-.2,0-.1-.5-.1-.8h.1c.1.3.1.7,0,.7Zm0-.9h0c0,.3-.1.7,0,.8s0-.5,0-.7Z" fill="#b06a1a"/><path d="M13.4,7.4c0-.2.2-.1.3-.3a.3.3,0,0,1-.3.3Z" fill="#fff"/><path d="M13.4,7.5h-.1c0-.1.1-.2.2-.2h.2a.3.3,0,0,1-.3.3Zm.3-.3h-.2c-.1,0-.2.1-.2.2h0a.3.3,0,0,0,.3-.2Z" fill="#b06a1a"/><path d="M13.1,7.7c-.2-.1-.1-.7-.1-.9s.2.9.1.9Z" fill="#fff"/><path d="M13.1,7.7h0c-.1,0-.1-.4-.1-.7a2.5,2.5,0,0,0,0-.3h0c.1.4.2.8.1.9Zm-.1-.9a1.5,1.5,0,0,1,0,.2c0,.3,0,.6.1.6s0-.6-.1-.9Z" fill="#b06a1a"/><path d="M13.2,7.7a.3.3,0,0,0,.4-.2c-.1.1-.3,0-.4.2Z" fill="#fff"/><path d="M13.3,7.7h-.1c0-.2.1-.2.2-.2h.2a.3.3,0,0,1-.3.3Zm-.1,0h.1a.3.3,0,0,0,.3-.2h-.1c-.1,0-.2,0-.2.2Z" fill="#b06a1a"/><path d="M13,8c-.2,0-.1-.5-.1-1s.2.9.1,1Z" fill="#fff"/><path d="M13,8h-.1c-.1-.1-.1-.3-.1-.6s0-.2,0-.4v.4c.1.3.1.5,0,.6Zm-.1-1a2.7,2.7,0,0,1,0,.3,1.3,1.3,0,0,0,0,.6H13c.1-.1,0-.3,0-.6V7Z" fill="#b06a1a"/><path d="M13.1,8a.3.3,0,0,0,.4-.2c-.2.1-.4,0-.4.2Z" fill="#fff"/><path d="M13.1,8h-.1c0-.2.1-.2.2-.2h.2a.3.3,0,0,1-.3.3Zm.3-.3h-.2c-.1,0-.2,0-.2.2h.1a.3.3,0,0,0,.3-.2Z" fill="#b06a1a"/><path d="M14.4,6.8c0,.3-.1.4-.3.4s.1-.3.3-.4Z" fill="#fff"/><path d="M14.2,7.2h0c-.1-.2.1-.3.3-.4s-.1.4-.3.4Zm.3-.4c-.2.1-.3.2-.3.4h0c.1,0,.2-.1.3-.4Z" fill="#b06a1a"/><path d="M14,7.4c.3,0,.4-.2.5-.4s-.5.2-.5.4Z" fill="#fff"/><path d="M14.1,7.5H14c0-.1.1-.2.3-.3h.2c-.1.2-.2.3-.4.3Zm.5-.4-.2.2c-.2.1-.3.1-.3.3h.1c.2,0,.3-.1.4-.3Z" fill="#b06a1a"/><path d="M13.9,7.4c-.1-.2,0-.4.1-.6s.1.4-.1.6Z" fill="#fff"/><path d="M13.9,7.4h0c-.1-.2,0-.4.1-.6h0c-.1.2-.2.4-.1.5a.3.3,0,0,0,.1-.3,1.4,1.4,0,0,1,0-.2v.2c0,.1,0,.3-.1.4Z" fill="#b06a1a"/><path d="M13.9,7.7c0-.2.3-.2.4-.3s-.1.4-.4.3Z" fill="#fff"/><path d="M14,7.7h-.1c0-.1.1-.2.2-.2h.2c0,.1-.1.3-.3.3Zm.3-.3h-.1c-.1.1-.2.1-.2.2H14c.2,0,.3-.2.3-.3Z" fill="#b06a1a"/><path d="M13.8,7.7c-.2,0-.1-.4,0-.6s.1.4,0,.6Z" fill="#fff"/><path d="M13.8,7.7h-.1a.6.6,0,0,1,.1-.5,1.3,1.3,0,0,0,0,.3c0,.1,0,.2,0,.3Zm0-.6a.7.7,0,0,0-.1.5h.1c.1-.1,0-.1,0-.2a.8.8,0,0,1,0-.3Z" fill="#b06a1a"/><path d="M13.7,8c-.2-.1-.1-.4,0-.6s.1.4,0,.6Z" fill="#fff"/><path d="M13.7,8h-.1c0-.1.1-.3.1-.4v.3a.3.3,0,0,1,0,.3h0Zm0-.6c0,.1-.1.3-.1.4h.1c.1-.1,0-.2,0-.3a.5.5,0,0,1,0-.3Z" fill="#b06a1a"/><path d="M13.7,8c.1.2.4,0,.4-.3s-.4.1-.4.3Z" fill="#fff"/><path d="M13.8,8h-.1l.2-.2h.2c0,.2-.2.4-.3.4Zm.3-.4-.2.2h-.1c.1,0,.3-.2.3-.3Z" fill="#b06a1a"/><path d="M14.4,6.8c0,.3-.1.4-.3.4s.1-.3.3-.4Z" fill="#fff"/><path d="M14.2,7.2h0c-.1-.2.1-.3.3-.4s-.1.4-.3.4Zm.3-.4c-.2.1-.3.2-.3.4h0c.1,0,.2-.1.3-.4Z" fill="#b06a1a"/><path d="M14,7.4c.3,0,.4-.2.5-.4s-.5.2-.5.4Z" fill="#fff"/><path d="M14.1,7.5H14c0-.1.1-.2.3-.3h.2c-.1.2-.2.3-.4.3Zm.5-.4-.2.2c-.2.1-.3.1-.3.3h.1c.2,0,.3-.1.4-.3Z" fill="#b06a1a"/><path d="M13.9,7.4c-.1-.2,0-.4.1-.6s.1.4-.1.6Z" fill="#fff"/><path d="M13.9,7.4h0c-.1-.2,0-.4.1-.6h0c-.1.2-.2.4-.1.5a.3.3,0,0,0,.1-.3,1.4,1.4,0,0,1,0-.2v.2c0,.1,0,.3-.1.4Z" fill="#b06a1a"/><path d="M13.9,7.7c0-.2.3-.2.4-.3s-.1.4-.4.3Z" fill="#fff"/><path d="M14,7.7h-.1c0-.1.1-.2.2-.2h.2c0,.1-.1.3-.3.3Zm.3-.3h-.1c-.1.1-.2.1-.2.2H14c.2,0,.3-.2.3-.3Z" fill="#b06a1a"/><path d="M13.8,7.7c-.2,0-.1-.4,0-.6s.1.4,0,.6Z" fill="#fff"/><path d="M13.8,7.7h-.1a.6.6,0,0,1,.1-.5,1.3,1.3,0,0,0,0,.3c0,.1,0,.2,0,.3Zm0-.6a.7.7,0,0,0-.1.5h.1c.1-.1,0-.1,0-.2a.8.8,0,0,1,0-.3Z" fill="#b06a1a"/><path d="M13.7,8c-.2-.1-.1-.4,0-.6s.1.4,0,.6Z" fill="#fff"/><path d="M13.7,8h-.1c0-.1.1-.3.1-.4v.3a.3.3,0,0,1,0,.3Zm0-.6c0,.1-.1.3-.1.4h.1c.1-.1,0-.2,0-.3a.5.5,0,0,1,0-.3Z" fill="#b06a1a"/><path d="M13.7,8c.1.2.4,0,.4-.3s-.4.1-.4.3Z" fill="#fff"/><path d="M13.8,8h-.1l.2-.2h.2c0,.2-.2.4-.3.4Zm.3-.4-.2.2h-.1c.1,0,.3-.2.3-.3Z" fill="#b06a1a"/><path d="M19.1,6.8c0,.1,0,.4.3.3s-.2-.3-.3-.3Z" fill="#fff"/><path d="M19.4,7.2h0c-.2,0-.2-.2-.2-.3h.1c.1.1.2.1.2.3Zm-.2-.4h0c0,.1,0,.3.2.3h.1c0-.2-.1-.2-.2-.3Z" fill="#b06a1a"/><path d="M19.6,7.4c0-.3-.3-.2-.5-.4s.3.5.5.4Z" fill="#fff"/><path d="M19.5,7.5c-.2,0-.4-.2-.4-.4h.3c.1.1.2.1.2.3ZM19,7c.1.2.3.5.5.4s-.1-.2-.2-.2L19,7Z" fill="#b06a1a"/><path d="M19.6,7.4c.2-.1,0-.4-.1-.6s-.1.4.1.6Z" fill="#fff"/><path d="M19.6,7.4h0c-.1-.1-.1-.2-.1-.3a.7.7,0,0,0,0-.2c.2.2.2.3.2.5h-.1Zm-.1-.6a.5.5,0,0,1,0,.2c0,.1,0,.2.1.3h.1a.7.7,0,0,0-.2-.4Z" fill="#b06a1a"/><path d="M19.7,7.7c-.3,0-.3-.1-.4-.3s.4,0,.4.3Z" fill="#fff"/><path d="M19.6,7.7c-.2,0-.3-.1-.3-.2h.2c.1,0,.2.1.2.2Zm-.4-.3h0c.1.1.1.2.3.2h.1c0-.1-.1-.2-.2-.2Z" fill="#b06a1a"/><path d="M19.7,7.7c-.1-.1,0-.3,0-.5s.2.5,0,.5Z" fill="#fff"/><path d="M19.7,7.7h0c-.1-.1-.1-.2,0-.3a.7.7,0,0,0,0-.3.5.5,0,0,1,.1.4h-.1Zm0-.5a.5.5,0,0,1,0,.3c0,.1,0,.2,0,.2h.1a.6.6,0,0,0-.1-.4Z" fill="#b06a1a"/><path d="M19.8,8c-.3.1-.3-.1-.4-.3s.3.1.4.3Z" fill="#fff"/><path d="M19.7,8c-.2,0-.2-.1-.3-.3h.2l.2.2Zm-.3-.3c.1.2.2.3.4.3l-.2-.2Z" fill="#b06a1a"/><path d="M19.9,8c.2,0,.1-.4,0-.5s-.1.4,0,.5Z" fill="#fff"/><path d="M19.9,8h0c-.1-.1-.1-.2,0-.3a.7.7,0,0,0,0-.2.5.5,0,0,1,.1.5Zm0-.5a.4.4,0,0,1,0,.2c0,.1-.1.2,0,.3H20a.6.6,0,0,0-.1-.5Z" fill="#b06a1a"/><path d="M19.1,6.8c0,.1,0,.4.3.3s-.2-.3-.3-.3Z" fill="#fff"/><path d="M19.4,7.2h0c-.2,0-.2-.2-.2-.3h.1c.1.1.2.1.2.3Zm-.2-.4h0c0,.1,0,.3.2.3h.1c0-.2-.1-.2-.2-.3Z" fill="#b06a1a"/><path d="M19.6,7.4c0-.3-.3-.2-.5-.4s.3.5.5.4Z" fill="#fff"/><path d="M19.5,7.5c-.2,0-.4-.2-.4-.4h.3c.1.1.2.1.2.3ZM19,7c.1.2.3.5.5.4s-.1-.2-.2-.2L19,7Z" fill="#b06a1a"/><path d="M19.6,7.4c.2-.1,0-.4-.1-.6s-.1.4.1.6Z" fill="#fff"/><path d="M19.6,7.4h0c-.1-.1-.1-.2-.1-.3a.7.7,0,0,0,0-.2c.2.2.2.3.2.5h-.1Zm-.1-.6a.5.5,0,0,1,0,.2c0,.1,0,.2.1.3h.1a.7.7,0,0,0-.2-.4Z" fill="#b06a1a"/><path d="M19.7,7.7c-.3,0-.3-.1-.4-.3s.4,0,.4.3Z" fill="#fff"/><path d="M19.6,7.7c-.2,0-.3-.1-.3-.2h.2c.1,0,.2.1.2.2Zm-.4-.3h0c.1.1.1.2.3.2h.1c0-.1-.1-.2-.2-.2Z" fill="#b06a1a"/><path d="M19.7,7.7c-.1-.1,0-.3,0-.5s.2.5,0,.5Z" fill="#fff"/><path d="M19.7,7.7h0c-.1-.1-.1-.2,0-.3a.7.7,0,0,0,0-.3.5.5,0,0,1,.1.4h-.1Zm0-.5a.5.5,0,0,1,0,.3c0,.1,0,.2,0,.2h.1a.6.6,0,0,0-.1-.4Z" fill="#b06a1a"/><path d="M19.8,8c-.3.1-.3-.1-.4-.3s.3.1.4.3Z" fill="#fff"/><path d="M19.7,8c-.2,0-.2-.1-.3-.3h.2l.2.2Zm-.3-.3c.1.2.2.3.4.3l-.2-.2Z" fill="#b06a1a"/><path d="M19.9,8c.2,0,.1-.4,0-.5s-.1.4,0,.5Z" fill="#fff"/><path d="M19.9,8h0c-.1-.1-.1-.2,0-.3a.7.7,0,0,0,0-.2.5.5,0,0,1,.1.5h-.1Zm0-.5a.4.4,0,0,1,0,.2c0,.1-.1.2,0,.3H20a.6.6,0,0,0-.1-.5Z" fill="#b06a1a"/><path d="M19.8,6.5c0,.1,0,.4.2.4s-.1-.3-.2-.4Z" fill="#fff"/><path d="M20,7c-.2,0-.2-.2-.2-.3h.1c.1.1.2.2.1.4Zm-.2-.4h0c0,.1,0,.3.2.3h0c.1-.1-.1-.2-.1-.4Z" fill="#b06a1a"/><path d="M20.1,7.2c.1-.1,0-.4,0-.8s-.1.7,0,.8Z" fill="#fff"/><path d="M20.1,7.2h0c-.1-.1-.1-.4-.1-.7v.1c.1.3.1.4,0,.5Zm0-.8v.2c0,.3-.1.5,0,.6s.1-.3,0-.5V6.3Z" fill="#b06a1a"/><path d="M20.1,7.2c0-.2-.3-.2-.5-.5s.2.5.5.5Z" fill="#fff"/><path d="M20,7.2c-.3,0-.4-.2-.5-.5l.3.2c.1.1.2.1.2.3Zm-.5-.5c0,.1.2.5.5.5h0L19.9,7l-.3-.2Z" fill="#b06a1a"/><path d="M20.3,7.5c-.2-.1,0-.6,0-.9s.2.8,0,.9Z" fill="#fff"/><path d="M20.3,7.5h0c-.1-.1-.1-.3,0-.5a1.8,1.8,0,0,0,.1-.4v.2c0,.3.1.6-.1.7Zm0-.8a1.5,1.5,0,0,1,0,.3c0,.2-.1.4,0,.5s.1-.4.1-.6V6.7Z" fill="#b06a1a"/><path d="M20.2,7.4a.3.3,0,0,1-.3-.2c.1.1.3,0,.3.3Z" fill="#fff"/><path d="M20.1,7.5a.3.3,0,0,1-.3-.3H20c.1,0,.2.1.2.2Zm-.3-.3a.3.3,0,0,0,.3.2h0c0-.1-.1-.1-.2-.2Z" fill="#b06a1a"/><path d="M20.4,7.7c.2,0,.1-.7.1-.9s-.2.8-.1.9Z" fill="#fff"/><path d="M20.4,7.7h0c-.1-.1,0-.3,0-.6V6.8c0,.2.1.8,0,.9Zm.1-.9v.3c-.1.2-.1.5,0,.6h0a1.8,1.8,0,0,0,0-.8Z" fill="#b06a1a"/><path d="M20.3,7.7a.3.3,0,0,1-.4-.2c.1.1.4,0,.4.2Z" fill="#fff"/><path d="M20.3,7.7a.3.3,0,0,1-.3-.2h.1c.1,0,.2,0,.2.2ZM20,7.5a.3.3,0,0,0,.4.2c0-.1-.1-.1-.2-.2Z" fill="#b06a1a"/><path d="M20.5,8c.2.1.1-.8.1-1s-.2.9-.1,1Z" fill="#fff"/><path d="M20.6,8h0c-.1-.1,0-.4,0-.7V7a2.2,2.2,0,0,1,0,1Zm.1-1a1.4,1.4,0,0,1,0,.3c-.1.3-.1.6,0,.7h.1a2.4,2.4,0,0,0,0-1Z" fill="#b06a1a"/><path d="M20.5,8a.4.4,0,0,1-.4-.2c.2.1.3,0,.4.3Z" fill="#fff"/><path d="M20.4,8a.4.4,0,0,1-.3-.3h.2c.1,0,.2.1.3.2Zm-.3-.3a.4.4,0,0,0,.4.2c0-.1-.1-.2-.2-.2Z" fill="#b06a1a"/><path d="M20.4,9c0-.2-.2-.6,0-.9h-.1c-.1.1-.1.3-.1.2s0-.2-.1-.3h-.1c0,.1.1.2,0,.2l-.2-.2c-.1-.1-.1,0-.1.1a1.4,1.4,0,0,1,.7.8Z" fill="#fff"/><path d="M20.3,9a1.2,1.2,0,0,0-.5-.7h.1s0-.1,0-.1h0a.1.1,0,0,1,0-.1H20c.1,0,.1.1.1.2h.2s0,0,0,.1a.9.9,0,0,0,0,.5,1.3,1.3,0,0,1,0,.3Zm-.6-.9h.1a1.2,1.2,0,0,1,.5.7V8.7a.9.9,0,0,1,0-.6h-.2V8h-.1c0,.1,0,.1,0,.1h-.2Z" fill="#b06a1a"/><path d="M20.4,9c0-.2-.2-.6,0-.9h-.1c-.1.1-.1.3-.1.2s0-.2-.1-.3h-.1c0,.1.1.2,0,.2l-.2-.2c-.1-.1-.1,0-.1.1a1.4,1.4,0,0,1,.7.8Z" fill="#fff"/><path d="M20.3,9a1.2,1.2,0,0,0-.5-.7h.1s0-.1,0-.1h0a.1.1,0,0,1,0-.1H20c.1,0,.1.1.1.2h.2s0,0,0,.1a.9.9,0,0,0,0,.5,1.3,1.3,0,0,1,0,.3Zm-.6-.9h.1a1.2,1.2,0,0,1,.5.7V8.7a.9.9,0,0,1,0-.6h-.2V8h-.1c0,.1,0,.1,0,.1h-.2Z" fill="#b06a1a"/><path d="M19.8,6.5c0,.1,0,.4.2.4s-.1-.3-.2-.4Z" fill="#fff"/><path d="M20,7c-.2,0-.2-.2-.2-.3h.1c.1.1.2.2.1.4Zm-.2-.4h0c0,.1,0,.3.2.3h0c.1-.1-.1-.2-.1-.4Z" fill="#b06a1a"/><path d="M20.1,7.2c.1-.1,0-.4,0-.8s-.1.7,0,.8Z" fill="#fff"/><path d="M20.1,7.2h0c-.1-.1-.1-.4-.1-.7v.1c.1.3.1.4,0,.5Zm0-.8v.2c0,.3-.1.5,0,.6s.1-.3,0-.5V6.3Z" fill="#b06a1a"/><path d="M20.1,7.2c0-.2-.3-.2-.5-.5s.2.5.5.5Z" fill="#fff"/><path d="M20,7.2c-.3,0-.4-.2-.5-.5l.3.2c.1.1.2.1.2.3Zm-.5-.5c0,.1.2.5.5.5h0L19.9,7l-.3-.2Z" fill="#b06a1a"/><path d="M20.3,7.5c-.2-.1,0-.6,0-.9s.2.8,0,.9Z" fill="#fff"/><path d="M20.3,7.5h0c-.1-.1-.1-.3,0-.5a1.8,1.8,0,0,0,.1-.4v.2c0,.3.1.6-.1.7Zm0-.8a1.5,1.5,0,0,1,0,.3c0,.2-.1.4,0,.5s.1-.4.1-.6V6.7Z" fill="#b06a1a"/><path d="M20.2,7.4a.3.3,0,0,1-.3-.2c.1.1.3,0,.3.3Z" fill="#fff"/><path d="M20.1,7.5a.3.3,0,0,1-.3-.3H20c.1,0,.2.1.2.2Zm-.3-.3a.3.3,0,0,0,.3.2h0c0-.1-.1-.1-.2-.2Z" fill="#b06a1a"/><path d="M20.4,7.7c.2,0,.1-.7.1-.9s-.2.8-.1.9Z" fill="#fff"/><path d="M20.4,7.7h0c-.1-.1,0-.3,0-.6V6.8c0,.2.1.8,0,.9h-.1Zm.1-.9v.3c-.1.2-.1.5,0,.6h0a1.8,1.8,0,0,0,0-.8Z" fill="#b06a1a"/><path d="M20.3,7.7a.3.3,0,0,1-.4-.2c.1.1.4,0,.4.2Z" fill="#fff"/><path d="M20.3,7.7a.3.3,0,0,1-.3-.2h.1c.1,0,.2,0,.2.2ZM20,7.5a.3.3,0,0,0,.4.2c0-.1-.1-.1-.2-.2Z" fill="#b06a1a"/><path d="M20.5,8c.2.1.1-.8.1-1s-.2.9-.1,1Z" fill="#fff"/><path d="M20.6,8h0c-.1-.1,0-.4,0-.7V7a2.2,2.2,0,0,1,0,1Zm.1-1a1.4,1.4,0,0,1,0,.3c-.1.3-.1.6,0,.7h.1a2.4,2.4,0,0,0,0-1Z" fill="#b06a1a"/><path d="M20.5,8a.4.4,0,0,1-.4-.2c.2.1.3,0,.4.3Z" fill="#fff"/><path d="M20.4,8a.4.4,0,0,1-.3-.3h.2c.1,0,.2.1.3.2Zm-.3-.3a.4.4,0,0,0,.4.2c0-.1-.1-.2-.2-.2Z" fill="#b06a1a"/><path d="M21,8.9c.1-.1,0-.1-.1-.1h-.3c-.1,0,0-.2-.1-.3s0-.1-.1,0A4.6,4.6,0,0,0,20,9.6a.7.7,0,0,0,.2.7l.2-.4a3.8,3.8,0,0,1,.7-.9Z" fill="#fff"/><path d="M21,8.9c.1-.1,0-.1-.1-.1h-.3c-.1,0,0-.2-.1-.3s0-.1-.1,0A4.6,4.6,0,0,0,20,9.6a.7.7,0,0,0,.2.7l.2-.4a3.8,3.8,0,0,1,.7-.9Z" fill="#fff"/><path d="M21.2,8.3c-.1.3-.1.5,0,.5s.1-.3,0-.5Z" fill="#fff"/><path d="M21.2,8.9h-.1c0-.1,0-.3.1-.5s.1.4.1.5Zm0-.5a1,1,0,0,0,0,.5h.1c.1-.1,0-.3,0-.5Z" fill="#b06a1a"/><path d="M21.2,9.1c.1.1.3-.3.3-.6s-.3.4-.3.6Z" fill="#fff"/><path d="M21.3,9.1h0c0-.1,0-.2.1-.3V8.5a.7.7,0,0,1-.1.6Zm.2-.6v.3c-.1.1-.1.2-.1.3h.1a.8.8,0,0,0,.1-.5Z" fill="#b06a1a"/><path d="M21.2,9.1c0-.2-.1-.2-.2-.4s.1.4.2.4Z" fill="#fff"/><path d="M21.2,9.1c-.1,0-.2-.1-.2-.4h.1a.3.3,0,0,1,.1.3ZM21,8.7c0,.2.1.4.2.4h0a.3.3,0,0,0-.1-.2Z" fill="#b06a1a"/><path d="M21.2,9.4c.2,0,.4-.4.4-.6s-.4.5-.4.6Z" fill="#fff"/><path d="M21.3,9.4h0c-.1-.1,0-.2.1-.3l.2-.4a.8.8,0,0,1-.2.6Zm.3-.7a.6.6,0,0,1-.2.4c-.1.1-.2.2-.1.3h.1a.9.9,0,0,0,.2-.6Z" fill="#b06a1a"/><path d="M21.2,9.4c.1-.2-.1-.1-.2-.4s0,.4.2.4Z" fill="#fff"/><path d="M21.2,9.4h-.1c-.1-.1-.1-.2,0-.4v.2c0,.1.1.1,0,.2ZM21,9c0,.2,0,.3.1.4h.1c0-.1,0-.1,0-.2V9Z" fill="#b06a1a"/><path d="M21.2,9.7c.2,0,.3-.4.4-.7s-.5.5-.4.7Z" fill="#fff"/><path d="M21.2,9.7h0c0-.1.1-.3.2-.4l.2-.3v.2c-.1.2-.2.5-.3.5Zm.4-.7-.2.3c-.1.1-.2.3-.2.4h0c.1,0,.2-.3.3-.5V9Z" fill="#b06a1a"/><path d="M21.2,9.7c.1-.2-.1-.2-.2-.4s.1.5.2.4Z" fill="#fff"/><path d="M21.1,9.7c-.1,0-.2-.2-.2-.4l.2.2a.2.2,0,0,1,.1.2ZM21,9.2c0,.3.1.4.2.4h0c0-.1,0-.1-.1-.2L21,9.2Z" fill="#b06a1a"/><path d="M21.2,10c.1,0,.4-.4.4-.6s-.5.4-.4.6Z" fill="#fff"/><path d="M21.2,10h0c-.1-.1,0-.2.2-.3l.2-.3c0,.2-.2.6-.4.6Zm.4-.6-.2.3c-.1.1-.2.2-.2.3s.4-.4.4-.6Z" fill="#b06a1a"/><path d="M21.1,9.9c.1-.2-.1-.2-.2-.4s0,.4.2.4Z" fill="#fff"/><path d="M21.1,9.9H21c0-.1-.1-.2-.1-.4v.2a.2.2,0,0,1,.1.2ZM21,9.5a.6.6,0,0,0,.1.4h.1a.2.2,0,0,0-.1-.2V9.5Z" fill="#b06a1a"/><path d="M21.1,10.3c.2,0,.3-.3.4-.6s-.5.4-.4.6Z" fill="#fff"/><path d="M21.2,10.3h0c0-.1.1-.2.2-.3l.2-.3v.2c-.1.2-.2.4-.3.4Zm.4-.6-.2.3c-.1.1-.2.2-.2.3h0c.2,0,.2-.2.3-.4Z" fill="#b06a1a"/><path d="M21.1,10.2c.1-.2-.1-.2-.2-.4s.1.5.2.4Z" fill="#fff"/><path d="M21.1,10.2H21c-.1-.1-.1-.2-.1-.4l.2.2c.1.1.1.1.1.2Zm-.2-.4c0,.2,0,.3.1.4h.1c0-.1,0-.1-.1-.2V9.8Z" fill="#b06a1a"/><path d="M21.2,8.3c-.1.3-.1.5,0,.5s.1-.3,0-.5Z" fill="#fff"/><path d="M21.2,8.9h-.1c0-.1,0-.3.1-.5s.1.4.1.5Zm0-.5a1,1,0,0,0,0,.5h.1c.1-.1,0-.3,0-.5Z" fill="#b06a1a"/><path d="M21.2,9.1c.1.1.3-.3.3-.6s-.3.4-.3.6Z" fill="#fff"/><path d="M21.3,9.1h0c0-.1,0-.2.1-.3V8.5a.7.7,0,0,1-.1.6Zm.2-.6v.3c-.1.1-.1.2-.1.3h.1a.8.8,0,0,0,.1-.5Z" fill="#b06a1a"/><path d="M21.2,9.1c0-.2-.1-.2-.2-.4s.1.4.2.4Z" fill="#fff"/><path d="M21.2,9.1c-.1,0-.2-.1-.2-.4h.1a.3.3,0,0,1,.1.3ZM21,8.7c0,.2.1.4.2.4h0a.3.3,0,0,0-.1-.2Z" fill="#b06a1a"/><path d="M21.2,9.4c.2,0,.4-.4.4-.6s-.4.5-.4.6Z" fill="#fff"/><path d="M21.3,9.4h0c-.1-.1,0-.2.1-.3l.2-.4a.8.8,0,0,1-.2.6Zm.3-.7a.6.6,0,0,1-.2.4c-.1.1-.2.2-.1.3h.1a.9.9,0,0,0,.2-.6Z" fill="#b06a1a"/><path d="M21.2,9.4c.1-.2-.1-.1-.2-.4s0,.4.2.4Z" fill="#fff"/><path d="M21.2,9.4h-.1c-.1-.1-.1-.2,0-.4v.2c0,.1.1.1,0,.2ZM21,9c0,.2,0,.3.1.4h.1c0-.1,0-.1,0-.2V9Z" fill="#b06a1a"/><path d="M21.2,9.7c.2,0,.3-.4.4-.7s-.5.5-.4.7Z" fill="#fff"/><path d="M21.2,9.7h0c0-.1.1-.3.2-.4l.2-.3v.2c-.1.2-.2.5-.3.5Zm.4-.7-.2.3c-.1.1-.2.3-.2.4h0c.1,0,.2-.3.3-.5V9Z" fill="#b06a1a"/><path d="M21.2,9.7c.1-.2-.1-.2-.2-.4s.1.5.2.4Z" fill="#fff"/><path d="M21.1,9.7c-.1,0-.2-.2-.2-.4l.2.2a.2.2,0,0,1,.1.2h0ZM21,9.2c0,.3.1.4.2.4h0c0-.1,0-.1-.1-.2L21,9.2Z" fill="#b06a1a"/><path d="M21.2,10c.1,0,.4-.4.4-.6s-.5.4-.4.6Z" fill="#fff"/><path d="M21.2,10h0c-.1-.1,0-.2.2-.3l.2-.3c0,.2-.2.6-.4.6Zm.4-.6-.2.3c-.1.1-.2.2-.2.3s.4-.4.4-.6Z" fill="#b06a1a"/><path d="M21.1,9.9c.1-.2-.1-.2-.2-.4s0,.4.2.4Z" fill="#fff"/><path d="M21.1,9.9H21c0-.1-.1-.2-.1-.4v.2a.2.2,0,0,1,.1.2h0ZM21,9.5a.6.6,0,0,0,.1.4h.1a.2.2,0,0,0-.1-.2V9.5Z" fill="#b06a1a"/><path d="M21.1,10.3c.2,0,.3-.3.4-.6s-.5.4-.4.6Z" fill="#fff"/><path d="M21.2,10.3h0c0-.1.1-.2.2-.3l.2-.3v.2c-.1.2-.2.4-.3.4Zm.4-.6-.2.3c-.1.1-.2.2-.2.3h0c.2,0,.2-.2.3-.4Z" fill="#b06a1a"/><path d="M21.1,10.2c.1-.2-.1-.2-.2-.4s.1.5.2.4Z" fill="#fff"/><path d="M21.1,10.2H21c-.1-.1-.1-.2-.1-.4l.2.2c.1.1.1.1.1.2Zm-.2-.4c0,.2,0,.3.1.4h.1c0-.1,0-.1-.1-.2V9.8Z" fill="#b06a1a"/><path d="M20.2,10.5c-.2,0-.3-.3-.3-.4a.4.4,0,0,1,.3.4Z" fill="#fff"/><path d="M20.2,10.5c-.2,0-.3-.3-.3-.4l.2.2a.3.3,0,0,1,.1.2Zm-.3-.4c0,.1.1.4.3.4h0v-.2l-.2-.2Z" fill="#b06a1a"/><path d="M20.2,10.5c-.2,0-.3-.3-.3-.4a.4.4,0,0,1,.3.4Z" fill="#fff"/><path d="M20.2,10.5c-.2,0-.3-.3-.3-.4l.2.2a.3.3,0,0,1,.1.2Zm-.3-.4c0,.1.1.4.3.4h0v-.2l-.2-.2Z" fill="#b06a1a"/><path d="M20.7,9.1c-.1.3-.1.4,0,.5s.1-.3,0-.5Z" fill="#fff"/><path d="M20.7,9.7h0c-.1-.1-.1-.2,0-.5h.1c.1.2.1.3,0,.4Zm0-.5c-.1.3-.1.4,0,.5s.1-.2,0-.4Z" fill="#b06a1a"/><path d="M20.6,9.9c.1-.2-.1-.3-.2-.5s0,.5.2.5Z" fill="#fff"/><path d="M20.6,9.9h-.1a.7.7,0,0,1-.1-.5v.2a.3.3,0,0,1,.1.3Zm-.2-.5a.8.8,0,0,0,.1.5h.1a.3.3,0,0,0-.1-.3V9.4Z" fill="#b06a1a"/><path d="M20.7,9.9c.1,0,.3-.2.2-.5s-.3.3-.2.5Z" fill="#fff"/><path d="M20.7,9.9h0c-.1-.1,0-.2,0-.3V9.4a.5.5,0,0,1,0,.4Zm.1-.5v.2c-.1.1-.1.1-.1.3h.1a.5.5,0,0,0,.1-.4Z" fill="#b06a1a"/><path d="M20.6,10.2c.1-.2-.1-.2-.2-.4s0,.4.2.4Z" fill="#fff"/><path d="M20.5,10.2h-.1c-.1-.1-.1-.2-.1-.4v.2c.1.1.1.1,0,.2Zm-.1-.4c0,.2,0,.3.1.4h.1c.1-.1,0-.1,0-.2V9.8Z" fill="#b06a1a"/><path d="M20.6,10.4c.1-.2-.1-.2-.2-.4s.1.4.2.4Z" fill="#fff"/><path d="M20.5,10.5h-.1c-.1,0-.1-.2-.1-.4l.2.2c.1.1.1.1.1.2Zm-.2-.4a.7.7,0,0,0,.1.4h.1c0-.1,0-.1-.1-.2l-.2-.2Z" fill="#b06a1a"/><path d="M20.6,10.2a.3.3,0,0,0,.2-.4c-.1.2-.3.2-.2.4Z" fill="#fff"/><path d="M20.6,10.2h0a.2.2,0,0,1,.1-.2h.1a.3.3,0,0,1,0,.3Zm.2-.4V10c-.1.1-.1.1-.1.2h.2a.3.3,0,0,0,.1-.3Z" fill="#b06a1a"/><path d="M20.6,10.4c.2,0,.3-.2.3-.4s-.3.2-.3.4Z" fill="#fff"/><path d="M20.6,10.4h0a.2.2,0,0,1,.1-.3h.1a.4.4,0,0,1-.1.3Zm.2-.4h-.1a.2.2,0,0,0-.1.2h.1a.4.4,0,0,0,.1-.3Z" fill="#b06a1a"/><path d="M20.7,9.1c-.1.3-.1.4,0,.5s.1-.3,0-.5Z" fill="#fff"/><path d="M20.7,9.7h0c-.1-.1-.1-.2,0-.5h.1c.1.2.1.3,0,.4Zm0-.5c-.1.3-.1.4,0,.5s.1-.2,0-.4Z" fill="#b06a1a"/><path d="M20.6,9.9c.1-.2-.1-.3-.2-.5s0,.5.2.5Z" fill="#fff"/><path d="M20.6,9.9h-.1a.7.7,0,0,1-.1-.5v.2a.3.3,0,0,1,.1.3h0Zm-.2-.5a.8.8,0,0,0,.1.5h.1a.3.3,0,0,0-.1-.3V9.4Z" fill="#b06a1a"/><path d="M20.7,9.9c.1,0,.3-.2.2-.5s-.3.3-.2.5Z" fill="#fff"/><path d="M20.7,9.9h0c-.1-.1,0-.2,0-.3V9.4a.5.5,0,0,1,0,.4Zm.1-.5v.2c-.1.1-.1.1-.1.3h.1a.5.5,0,0,0,.1-.4Z" fill="#b06a1a"/><path d="M20.6,10.2c.1-.2-.1-.2-.2-.4s0,.4.2.4Z" fill="#fff"/><path d="M20.5,10.2h-.1c-.1-.1-.1-.2-.1-.4v.2c.1.1.1.1,0,.2Zm-.1-.4c0,.2,0,.3.1.4h.1c.1-.1,0-.1,0-.2V9.8Z" fill="#b06a1a"/><path d="M20.6,10.4c.1-.2-.1-.2-.2-.4s.1.4.2.4Z" fill="#fff"/><path d="M20.5,10.5h-.1c-.1,0-.1-.2-.1-.4l.2.2c.1.1.1.1.1.2Zm-.2-.4a.7.7,0,0,0,.1.4h.1c0-.1,0-.1-.1-.2l-.2-.2Z" fill="#b06a1a"/><path d="M20.6,10.2a.3.3,0,0,0,.2-.4c-.1.2-.3.2-.2.4Z" fill="#fff"/><path d="M20.6,10.2h0a.2.2,0,0,1,.1-.2h.1a.3.3,0,0,1,0,.3Zm.2-.4V10c-.1.1-.1.1-.1.2h.2a.3.3,0,0,0,.1-.3Z" fill="#b06a1a"/><path d="M20.6,10.4c.2,0,.3-.2.3-.4s-.3.2-.3.4Z" fill="#fff"/><path d="M20.6,10.4h0a.2.2,0,0,1,.1-.3h.1a.4.4,0,0,1-.1.3Zm.2-.4h-.1a.2.2,0,0,0-.1.2h.1a.4.4,0,0,0,.1-.3Z" fill="#b06a1a"/><path d="M21.6,10h.1a1.2,1.2,0,0,1-.3.6l-1.2.3-.5.3.2-.5a.5.5,0,0,1,.4-.3l1.1-.2.4-.3Z" fill="#fff"/><path d="M21.6,10h.1a1.2,1.2,0,0,1-.3.6l-1.2.3-.5.3.2-.5a.5.5,0,0,1,.4-.3l1.1-.2.4-.3Z" fill="#fff"/><path d="M21.1,11c0-.1,0-.2,0-.4s-.1.4,0,.4Z" fill="#fff"/><path d="M21.1,11H21c0-.1,0-.2.1-.4s0,.2,0,.2a.4.4,0,0,1,0,.2Zm0-.4c-.1.2-.1.3-.1.3h.1v-.2a1,1,0,0,1,0-.2Z" fill="#b06a1a"/><path d="M21.1,11c.1,0,.5-.3.5-.5s-.6.3-.5.5Z" fill="#fff"/><path d="M21.2,11.1h0c-.1-.1.1-.2.3-.3l.3-.2a.7.7,0,0,1-.5.5Zm.5-.5-.2.2c-.1.1-.3.2-.3.3h0a.7.7,0,0,0,.5-.5Z" fill="#b06a1a"/><path d="M20.9,11.2c.1-.1.1-.3,0-.3s-.1.3,0,.3Z" fill="#fff"/><path d="M20.9,11.3h-.1s0-.1,0-.1v-.2a.3.3,0,0,1,.1.2h-.1Zm0-.3a.4.4,0,0,1,0,.2c0,.1,0,.1,0,.1H21a.3.3,0,0,0-.1-.2Z" fill="#b06a1a"/><path d="M21,11.3c.2.1.4-.2.5-.4s-.6.2-.5.4Z" fill="#fff"/><path d="M21.1,11.3H21l.3-.2h.1l-.3.3Zm.4-.4h-.2l-.3.2h.1l.3-.3Z" fill="#b06a1a"/><path d="M20.8,11.5c.1-.1,0-.2,0-.5s-.1.5,0,.5Z" fill="#fff"/><path d="M20.8,11.5h-.1a.6.6,0,0,1,.1-.5v.3c0,.1,0,.2,0,.3Zm0-.5a.7.7,0,0,0-.1.5h.1c.1,0,.1-.1,0-.2v-.3Z" fill="#b06a1a"/><path d="M20.8,11.5c.1.1.5-.2.6-.4s-.7.2-.6.4Z" fill="#fff"/><path d="M20.8,11.6H21l.4-.2a.9.9,0,0,1-.6.4Zm.6-.4-.4.2h-.1a1.1,1.1,0,0,0,.6-.4Z" fill="#b06a1a"/><path d="M20.8,11.8c.1-.1-.1-.3-.1-.6s0,.6.1.6Z" fill="#fff"/><path d="M20.7,11.8h-.1c-.1-.1-.1-.2-.1-.4s0-.1,0-.2v.3c.1.1.1.2,0,.3Zm-.1-.5h0c0,.2,0,.3,0,.4h.1c.1,0,0-.1,0-.2v-.2Z" fill="#b06a1a"/><path d="M20.9,11.7c.1.1.4-.1.5-.4s-.6.2-.5.4Z" fill="#fff"/><path d="M20.9,11.7h-.1c0-.1.1-.2.2-.2l.3-.2a.8.8,0,0,1-.5.4Zm.5-.4-.3.2c-.1.1-.2.1-.2.2h0a.9.9,0,0,0,.5-.4Z" fill="#b06a1a"/><path d="M20.5,12.1c.1,0,.1-.3,0-.6s-.1.6,0,.6Z" fill="#fff"/><path d="M20.5,12.1h-.1c-.1-.1,0-.3.1-.6a.7.7,0,0,1,.1.5h-.1Zm0-.6a1,1,0,0,0-.1.6h.1a.8.8,0,0,0,0-.5Z" fill="#b06a1a"/><path d="M20.8,11.9c0,.1.5-.3.5-.4s-.7.3-.5.4Z" fill="#fff"/><path d="M20.9,11.9h0l.2-.2.3-.2v.2l-.4.3Zm.5-.5-.3.2h-.2l.4-.3Z" fill="#b06a1a"/><path d="M20.3,12.4c.2-.1.1-.3.1-.6s-.3.6-.1.6Z" fill="#fff"/><path d="M20.3,12.4h-.1c0-.1.1-.3.1-.5h0a2.6,2.6,0,0,1,0,.3c0,.2,0,.3-.1.4Zm.1-.6h0c-.1.2-.2.4-.1.5h.1c.1,0,.1-.2.1-.4a2.1,2.1,0,0,1,0-.3Z" fill="#b06a1a"/><path d="M20.6,12.1c0,.1.4-.1.6-.4s-.7.2-.6.4Z" fill="#fff"/><path d="M20.6,12.2h-.1a.1.1,0,0,1,0-.1h.3l.4-.2a.9.9,0,0,1-.6.4Zm.6-.4-.4.2h-.2a0,0,0,0,0,0,0h0a.9.9,0,0,0,.6-.4Z" fill="#b06a1a"/><path d="M20.3,12.4c.1.1.6-.1.7-.4s-.7.2-.7.4Z" fill="#fff"/><path d="M20.4,12.5h-.1a.1.1,0,0,1,0-.1h.3L21,12a.7.7,0,0,1-.6.4ZM21,12l-.4.2h-.3a.1.1,0,0,0,0,0h.1A.7.7,0,0,0,21,12Z" fill="#b06a1a"/><path d="M20.5,12.5l.4-.3-.4.3Z" fill="#fff"/><path d="M20.6,12.5h0l.4-.3-.4.3Zm.4-.3-.4.2h0l.4-.2Z" fill="#b06a1a"/><path d="M19.8,11.4c.1,0,.3-.2.2-.4s-.4.3-.2.4Z" fill="#fff"/><path d="M19.8,11.4h0V11a.3.3,0,0,1,0,.3Zm.1-.4v.2h.1a.3.3,0,0,0,0-.3Z" fill="#b06a1a"/><path d="M20,11.3c.1,0,.3-.2.3-.3s-.4.2-.3.3Z" fill="#fff"/><path d="M20.1,11.3h0l.2-.2a.3.3,0,0,1-.1.2Zm.2-.3-.2.2h.1a.3.3,0,0,0,.1-.2Z" fill="#b06a1a"/><path d="M19.8,11.7c.1.1.5-.3.6-.5s-.7.4-.6.5Z" fill="#fff"/><path d="M19.8,11.7h-.1l.2-.2.4-.3c-.1.2-.4.5-.6.5Zm.6-.5-.4.3-.2.2h0c.1,0,.5-.3.6-.5Z" fill="#b06a1a"/><path d="M19.7,11.9c.1.1.3-.2.5-.4s-.6.3-.5.4Z" fill="#fff"/><path d="M19.7,11.9h0c-.1-.1.1-.2.2-.2l.3-.2c-.1.2-.3.5-.5.5Zm.5-.5-.3.2c-.1.1-.2.1-.2.2h0l.5-.5Z" fill="#b06a1a"/><path d="M19.7,11.7c.1-.2,0-.2-.1-.4s-.1.5.1.4Z" fill="#fff"/><path d="M19.7,11.7h-.1a.4.4,0,0,1,0-.4v.2a.3.3,0,0,1,0,.2Zm-.1-.4a.4.4,0,0,0,0,.3h.1a.2.2,0,0,0,0-.2v-.2Z" fill="#b06a1a"/><path d="M19.6,11.9c.1,0-.1-.3-.1-.4s0,.4.1.4Z" fill="#fff"/><path d="M19.6,11.9h-.1c-.1-.1-.1-.2,0-.4v.2c.1.1.1.2.1.2h-.1Zm-.1-.4c0,.2,0,.3.1.4h.1c0-.1,0-.1,0-.2v-.2Z" fill="#b06a1a"/><path d="M19.5,12.1c.1,0-.1-.2-.1-.4s-.1.4.1.4Z" fill="#fff"/><path d="M19.4,12.1h-.1a.4.4,0,0,1,0-.4V12h0Zm-.1-.4a.6.6,0,0,0,0,.3h.1s0-.1,0-.1v-.3Z" fill="#b06a1a"/><path d="M19.3,12.2c.1,0,0-.2-.1-.3s0,.3.1.3Z" fill="#fff"/><path d="M19.3,12.2h-.1s0-.1,0-.3h.1Zm-.1-.3c0,.1,0,.2,0,.2h0Z" fill="#b06a1a"/><path d="M19.8,11.4c.1,0,.3-.2.2-.4s-.4.3-.2.4Z" fill="#fff"/><path d="M19.8,11.4h0V11a.3.3,0,0,1,0,.3Zm.1-.4v.2h.1a.3.3,0,0,0,0-.3Z" fill="#b06a1a"/><path d="M20,11.3c.1,0,.3-.2.3-.3s-.4.2-.3.3Z" fill="#fff"/><path d="M20.1,11.3h0l.2-.2a.3.3,0,0,1-.1.2Zm.2-.3-.2.2h.1a.3.3,0,0,0,.1-.2Z" fill="#b06a1a"/><path d="M19.8,11.7c.1.1.5-.3.6-.5s-.7.4-.6.5Z" fill="#fff"/><path d="M19.8,11.7h-.1l.2-.2.4-.3c-.1.2-.4.5-.6.5Zm.6-.5-.4.3-.2.2h0c.1,0,.5-.3.6-.5Z" fill="#b06a1a"/><path d="M19.7,11.9c.1.1.3-.2.5-.4s-.6.3-.5.4Z" fill="#fff"/><path d="M19.7,11.9h0c-.1-.1.1-.2.2-.2l.3-.2c-.1.2-.3.5-.5.5Zm.5-.5-.3.2c-.1.1-.2.1-.2.2h0l.5-.5Z" fill="#b06a1a"/><path d="M19.7,11.7c.1-.2,0-.2-.1-.4s-.1.5.1.4Z" fill="#fff"/><path d="M19.7,11.7h-.1a.4.4,0,0,1,0-.4v.2a.3.3,0,0,1,0,.2Zm-.1-.4a.4.4,0,0,0,0,.3h.1a.2.2,0,0,0,0-.2v-.2Z" fill="#b06a1a"/><path d="M19.6,11.9c.1,0-.1-.3-.1-.4s0,.4.1.4Z" fill="#fff"/><path d="M19.6,11.9h-.1c-.1-.1-.1-.2,0-.4v.2c.1.1.1.2.1.2h-.1Zm-.1-.4c0,.2,0,.3.1.4h.1c0-.1,0-.1,0-.2v-.2Z" fill="#b06a1a"/><path d="M19.5,12.1c.1,0-.1-.2-.1-.4s-.1.4.1.4Z" fill="#fff"/><path d="M19.4,12.1h-.1a.4.4,0,0,1,0-.4V12h0Zm-.1-.4a.6.6,0,0,0,0,.3h.1s0-.1,0-.1v-.3Z" fill="#b06a1a"/><path d="M19.3,12.2c.1,0,0-.2-.1-.3s0,.3.1.3Z" fill="#fff"/><path d="M19.3,12.2h-.1s0-.1,0-.3h.1Zm-.1-.3c0,.1,0,.2,0,.2h0Z" fill="#b06a1a"/><path d="M21.1,11c0-.1,0-.2,0-.4s-.1.4,0,.4Z" fill="#fff"/><path d="M21.1,11H21c0-.1,0-.2.1-.4s0,.2,0,.2a.4.4,0,0,1,0,.2Zm0-.4c-.1.2-.1.3-.1.3h.1v-.2a1,1,0,0,1,0-.2Z" fill="#b06a1a"/><path d="M21.1,11c.1,0,.5-.3.5-.5s-.6.3-.5.5Z" fill="#fff"/><path d="M21.2,11.1h0c-.1-.1.1-.2.3-.3l.3-.2a.7.7,0,0,1-.5.5Zm.5-.5-.2.2c-.1.1-.3.2-.3.3h0a.7.7,0,0,0,.5-.5Z" fill="#b06a1a"/><path d="M20.9,11.2c.1-.1.1-.3,0-.3s-.1.3,0,.3Z" fill="#fff"/><path d="M20.9,11.3h-.1s0-.1,0-.1v-.2a.3.3,0,0,1,.1.2h-.1Zm0-.4a.4.4,0,0,1,0,.2c0,.1,0,.1,0,.1H21a.3.3,0,0,0-.1-.2Z" fill="#b06a1a"/><path d="M21,11.3c.2.1.4-.2.5-.4s-.6.2-.5.4Z" fill="#fff"/><path d="M21.1,11.3H21l.3-.2h.1l-.3.3Zm.4-.4h-.2l-.3.2h.1l.3-.3Z" fill="#b06a1a"/><path d="M20.8,11.5c.1-.1,0-.2,0-.5s-.1.5,0,.5Z" fill="#fff"/><path d="M20.8,11.5h-.1a.6.6,0,0,1,.1-.5v.3c0,.1,0,.2,0,.3Zm0-.5a.7.7,0,0,0-.1.5h.1c.1,0,.1-.1,0-.2v-.3Z" fill="#b06a1a"/><path d="M20.8,11.5c.1.1.5-.2.6-.4s-.7.2-.6.4Z" fill="#fff"/><path d="M20.8,11.6H21l.4-.2a.9.9,0,0,1-.6.4Zm.6-.4-.4.2h-.1a1.1,1.1,0,0,0,.6-.4Z" fill="#b06a1a"/><path d="M20.8,11.8c.1-.1-.1-.3-.1-.6s0,.6.1.6Z" fill="#fff"/><path d="M20.7,11.8h-.1c-.1-.1-.1-.2-.1-.4s0-.1,0-.2v.3c.1.1.1.2,0,.3Zm-.1-.5h0c0,.2,0,.3,0,.4h.1c.1,0,0-.1,0-.2v-.2Z" fill="#b06a1a"/><path d="M20.9,11.7c.1.1.4-.1.5-.4s-.6.2-.5.4Z" fill="#fff"/><path d="M20.9,11.7h-.1c0-.1.1-.2.2-.2l.3-.2a.8.8,0,0,1-.5.4Zm.5-.4-.3.2c-.1.1-.2.1-.2.2h0a.9.9,0,0,0,.5-.4Z" fill="#b06a1a"/><path d="M20.5,12.1c.1,0,.1-.3,0-.6s-.1.6,0,.6Z" fill="#fff"/><path d="M20.5,12.1h-.1c-.1-.1,0-.3.1-.6a.7.7,0,0,1,.1.5h-.1Zm0-.6a1,1,0,0,0-.1.6h.1a.8.8,0,0,0,0-.5Z" fill="#b06a1a"/><path d="M20.8,11.9c0,.1.5-.3.5-.4s-.7.3-.5.4Z" fill="#fff"/><path d="M20.9,11.9h0l.2-.2.3-.2v.2l-.4.3Zm.5-.5-.3.2h-.2l.4-.3Z" fill="#b06a1a"/><path d="M20.3,12.4c.2-.1.1-.3.1-.6s-.3.6-.1.6Z" fill="#fff"/><path d="M20.3,12.4h-.1c0-.1.1-.3.1-.5h0a2.6,2.6,0,0,1,0,.3c0,.2,0,.3-.1.4Zm.1-.6h0c-.1.2-.2.4-.1.5h.1c.1,0,.1-.2.1-.4a2.1,2.1,0,0,1,0-.3Z" fill="#b06a1a"/><path d="M20.6,12.1c0,.1.4-.1.6-.4s-.7.2-.6.4Z" fill="#fff"/><path d="M20.6,12.2h-.1a.1.1,0,0,1,0-.1h.3l.4-.2a.9.9,0,0,1-.6.4Zm.6-.4-.4.2h-.2a0,0,0,0,0,0,0h0a.9.9,0,0,0,.6-.4Z" fill="#b06a1a"/><path d="M20.3,12.4c.1.1.6-.1.7-.4s-.7.2-.7.4Z" fill="#fff"/><path d="M20.4,12.5h-.1a.1.1,0,0,1,0-.1h.3L21,12a.7.7,0,0,1-.6.4ZM21,12l-.4.2h-.3a.1.1,0,0,0,0,0h.1A.7.7,0,0,0,21,12Z" fill="#b06a1a"/><path d="M20.5,12.5l.4-.3-.4.3Z" fill="#fff"/><path d="M20.6,12.5h0l.4-.3-.4.3Zm.4-.3-.4.2h0l.4-.2Z" fill="#b06a1a"/><path d="M20.8,12.5h0c-.3.4-.4.5-.8.4a1.8,1.8,0,0,1-.9-.4h-.7l.2-.2h.7l.9.3Z" fill="#fff"/><path d="M20.8,12.5h0c-.3.4-.4.5-.8.4a1.8,1.8,0,0,1-.9-.4h-.7l.2-.2h.7l.9.3Z" fill="#fff"/><path d="M18.3,13.2h-.1c0-.1,0-.2,0-.2s.2.2.1.2Z" fill="#fff"/><path d="M18.2,13.3h0a.2.2,0,0,1,0-.2h0v.2h-.1Zm0-.2c-.1,0-.1.1,0,.2h.1c0-.1,0-.1-.1-.1Z" fill="#b06a1a"/><path d="M18.3,13.2h-.1c0-.1,0-.2,0-.2s.2.2.1.2Z" fill="#fff"/><path d="M18.2,13.3h0a.2.2,0,0,1,0-.2h0v.2h-.1Zm0-.2c-.1,0-.1.1,0,.2h.1c0-.1,0-.1-.1-.1Z" fill="#b06a1a"/><path d="M18.9,12.7c.2,0,.2-.1.2-.3s-.3.1-.2.3Z" fill="#fff"/><path d="M18.8,12.9c0,.1.3,0,.4-.2s-.4,0-.4.2Z" fill="#fff"/><path d="M18.7,12.8c.1,0,.1-.2.1-.4s-.2.4-.1.4Z" fill="#fff"/><path d="M18.5,13.1c.2,0,.1-.3,0-.5s-.2.5,0,.5Z" fill="#fff"/><path d="M18.6,13.1c0,.2.3,0,.5-.1s-.6,0-.5.1Z" fill="#fff"/><path d="M18.4,13.3c0,.2.3,0,.5-.1s-.6,0-.5.1Z" fill="#fff"/><path d="M18.4,13.3c.1,0,0-.3,0-.5s-.1.5,0,.5Z" fill="#fff"/><path d="M18.2,13.5c0,.2.3,0,.5-.1s-.5-.1-.5.1Z" fill="#fff"/><path d="M18.9,12.7c.2,0,.2-.1.2-.3s-.3.1-.2.3Z" fill="#fff"/><path d="M18.9,12.7h0a.2.2,0,0,1,0-.2h.2c0,.1,0,.3-.2.3Zm0,0h0c.1,0,.1-.1.2-.3h-.2a.2.2,0,0,0,0,.1Z" fill="#b06a1a"/><path d="M18.8,12.9c0,.1.3,0,.4-.2s-.4,0-.4.2Z" fill="#fff"/><path d="M18.9,12.9h-.1a.1.1,0,0,1,0-.1h.4a.4.4,0,0,1-.3.3Zm.3-.2h-.4c0,.1.3,0,.4-.2Z" fill="#b06a1a"/><path d="M18.7,12.8c.1,0,.1-.2.1-.4s-.2.4-.1.4Z" fill="#fff"/><path d="M18.7,12.9h-.1c0-.1,0-.2.1-.3h0v.2c0,.1,0,.2,0,.2Zm0-.4h0c-.1.1-.1.3-.1.3h.1s0-.1,0-.2v-.2Z" fill="#b06a1a"/><path d="M18.5,13.1c.2,0,.1-.3,0-.5s-.2.5,0,.5Z" fill="#fff"/><path d="M18.5,13.1h-.1c0-.1,0-.2,0-.4h.1c0,.2.1.3,0,.4Zm0-.5h0c0,.1-.1.3,0,.3h.1c0-.1,0-.2,0-.4Z" fill="#b06a1a"/><path d="M18.6,13.1c0,.2.3,0,.5-.1s-.6,0-.5.1Z" fill="#fff"/><path d="M18.7,13.1h.4l-.4.2Zm.4-.2h-.5c0,.1.3,0,.5-.1Z" fill="#b06a1a"/><path d="M18.4,13.3c0,.2.3,0,.5-.1s-.6,0-.5.1Z" fill="#fff"/><path d="M18.5,13.4h.4l-.4.2Zm.2-.2h-.2c0,.1.3,0,.5-.1h-.2Z" fill="#b06a1a"/><path d="M18.4,13.3c.1,0,0-.3,0-.5s-.1.5,0,.5Z" fill="#fff"/><path d="M18.4,13.3h-.1c-.1-.1,0-.3,0-.5h0c0,.2-.1.4,0,.5h.1c0-.1,0-.2,0-.4h0c0,.2.1.3,0,.4Z" fill="#b06a1a"/><path d="M18.2,13.5c0,.2.3,0,.5-.1s-.5-.1-.5.1Z" fill="#fff"/><path d="M18.3,13.6h.4l-.4.2Zm.1-.2h-.1c0,.1.2.1.5-.1h-.3Z" fill="#b06a1a"/><path d="M19.9,13.2c.1.1.4-.1.6-.2s-.6,0-.6.2Z" fill="#fff"/><path d="M20,13.3h-.1a.1.1,0,0,1,0-.1h.6l-.5.3Zm.5-.3h-.5a.1.1,0,0,0,0,.1H20l.5-.2Z" fill="#b06a1a"/><path d="M19.5,13.4c0,.2.6,0,.7-.1s-.7,0-.7.1Z" fill="#fff"/><path d="M19.7,13.5h.5l-.5.2Zm0-.1h0l.5-.2h-.5Z" fill="#b06a1a"/><path d="M19.3,13.5h.6c-.2,0-.7-.1-.6,0Z" fill="#fff"/><path d="M19.5,13.6h0Zm-.1-.1h-.1c0,.1.3.1.5,0h-.5Z" fill="#b06a1a"/><path d="M19.1,13.6c0,.1.5.1.7,0s-.7-.2-.7,0Z" fill="#fff"/><path d="M19.4,13.7h0Zm-.2-.2h0Z" fill="#b06a1a"/><path d="M18.7,13.7c0,.1.5.1.7,0s-.6-.2-.7,0Z" fill="#fff"/><path d="M19,13.8h-.3c0-.2.2-.1.4-.1H19Zm-.2-.2h0Z" fill="#b06a1a"/><path d="M18.7,13.6c.1.1.4-.4.5-.6s-.7.5-.5.6Z" fill="#fff"/><path d="M18.7,13.6h-.1l.3-.3.3-.2c-.1.2-.3.6-.5.6Zm.5-.6-.2.3-.3.3h.1c.1,0,.4-.4.5-.6Z" fill="#b06a1a"/><path d="M19,13.5c.1.1.3-.2.3-.5s-.5.4-.3.5Z" fill="#fff"/><path d="M19.1,13.5H19l.2-.2.2-.2c-.1.2-.2.5-.3.5Zm.3-.5-.2.2-.2.2h0c.1.1.2-.1.3-.5Z" fill="#b06a1a"/><path d="M19.3,13.4c.1.1.2-.2.3-.4s-.4.3-.3.4Z" fill="#fff"/><path d="M19.3,13.4h-.1V13c0,.2-.1.4-.2.4Zm.2-.4v.3h0c.1.1.2-.1.2-.4Z" fill="#b06a1a"/><path d="M19.6,13.2c.1.1.3-.2.3-.4s-.4.3-.3.4Z" fill="#fff"/><path d="M19.6,13.3h0l.2-.2a.4.4,0,0,1-.1.4Zm.2-.5a.3.3,0,0,1-.2.3h.1a.5.5,0,0,0,.1-.4Z" fill="#b06a1a"/><path d="M19,14c.1.2.8-.2.9-.4s-1,.2-.9.4Z" fill="#fff"/><path d="M19.1,14H19a.1.1,0,0,1,0-.1h.4l.5-.2a1.2,1.2,0,0,1-.8.4Zm.8-.4-.5.2H19a.1.1,0,0,0,0,.1c.1.1.8-.2.9-.4Z" fill="#b06a1a"/><path d="M19.9,13.2c.1.1.4-.1.6-.2s-.6,0-.6.2Z" fill="#fff"/><path d="M20,13.3h-.1a.1.1,0,0,1,0-.1h.6l-.5.3Zm.5-.3h-.5a.1.1,0,0,0,0,.1H20l.5-.2Z" fill="#b06a1a"/><path d="M19.5,13.4c0,.2.6,0,.7-.1s-.7,0-.7.1Z" fill="#fff"/><path d="M19.7,13.5h.5l-.5.2Zm0-.1h0l.5-.2h-.5Z" fill="#b06a1a"/><path d="M19.3,13.5h.6c-.2,0-.7-.1-.6,0Z" fill="#fff"/><path d="M19.5,13.6h0Zm-.1-.1h-.1c0,.1.3.1.5,0h-.5Z" fill="#b06a1a"/><path d="M19.1,13.6c0,.1.5.1.7,0s-.7-.2-.7,0Z" fill="#fff"/><path d="M19.4,13.7h0Zm-.2-.2h0Z" fill="#b06a1a"/><path d="M18.7,13.7c0,.1.5.1.7,0s-.6-.2-.7,0Z" fill="#fff"/><path d="M19,13.8h-.3c0-.2.2-.1.4-.1H19Zm-.2-.2h0Z" fill="#b06a1a"/><path d="M18.7,13.6c.1.1.4-.4.5-.6s-.7.5-.5.6Z" fill="#fff"/><path d="M18.7,13.6h-.1l.3-.3.3-.2c-.1.2-.3.6-.5.6Zm.5-.6-.2.3-.3.3h.1c.1,0,.4-.4.5-.6Z" fill="#b06a1a"/><path d="M19,13.5c.1.1.3-.2.3-.5s-.5.4-.3.5Z" fill="#fff"/><path d="M19.1,13.5H19l.2-.2.2-.2c-.1.2-.2.5-.3.5Zm.3-.5-.2.2-.2.2h0c.1.1.2-.1.3-.5Z" fill="#b06a1a"/><path d="M19.3,13.4c.1.1.2-.2.3-.4s-.4.3-.3.4Z" fill="#fff"/><path d="M19.3,13.4h-.1V13c0,.2-.1.4-.2.4Zm.2-.4v.3h0c.1.1.2-.1.2-.4Z" fill="#b06a1a"/><path d="M19.6,13.2c.1.1.3-.2.3-.4s-.4.3-.3.4Z" fill="#fff"/><path d="M19.6,13.3h0l.2-.2a.4.4,0,0,1-.1.4Zm.2-.5a.3.3,0,0,1-.2.3h.1a.5.5,0,0,0,.1-.4Z" fill="#b06a1a"/><path d="M19,14c.1.2.8-.2.9-.4s-1,.2-.9.4Z" fill="#fff"/><path d="M19.1,14H19a.1.1,0,0,1,0-.1h.4l.5-.2a1.2,1.2,0,0,1-.8.4Zm.8-.4-.5.2H19a.1.1,0,0,0,0,.1c.1.1.8-.2.9-.4Z" fill="#b06a1a"/><path d="M13.2,9c0-.2.2-.6,0-.9h.1c.1.1.1.3.1.2s0-.2.1-.3h.1c0,.1-.1.2,0,.2l.2-.2c.1,0,.1,0,.1.1s-.5.3-.7.8Z" fill="#fff"/><path d="M13.2,9h0a1.2,1.2,0,0,1,0-.3.9.9,0,0,0,0-.5h.2c0-.1,0-.2.1-.2h.1a.1.1,0,0,1,0,.1h0s0,.1,0,.1h.1a1.2,1.2,0,0,0-.5.7Zm.1-.9h0a1.2,1.2,0,0,1,0,.6V9a1.2,1.2,0,0,1,.5-.7h-.1s0-.1,0-.2h-.1v.2h-.2Z" fill="#b06a1a"/><path d="M13.2,9c0-.2.2-.6,0-.9h.1c.1.1.1.3.1.2s0-.2.1-.3h.1c0,.1-.1.2,0,.2l.2-.2c.1,0,.1,0,.1.1s-.5.3-.7.8Z" fill="#fff"/><path d="M13.2,9h0a1.2,1.2,0,0,1,0-.3.9.9,0,0,0,0-.5h.2c0-.1,0-.2.1-.2h.1a.1.1,0,0,1,0,.1h0s0,.1,0,.1h.1a1.2,1.2,0,0,0-.5.7Zm.1-.9h0a1.2,1.2,0,0,1,0,.6V9a1.2,1.2,0,0,1,.5-.7h-.1s0-.1,0-.2h-.1v.2h-.2Z" fill="#b06a1a"/><path d="M12.7,12.5h0c.3.4.4.5.8.4a1.9,1.9,0,0,0,.9-.4h.7l-.2-.2h-.7l-.9.3Z" fill="#fff"/><path d="M12.7,12.5h0c.3.4.4.5.8.4a1.9,1.9,0,0,0,.9-.4h.7l-.2-.2h-.7l-.9.3Z" fill="#fff"/><path d="M15.3,13.2h.1c0-.1,0-.2,0-.2s-.2.2-.1.2Z" fill="#fff"/><path d="M15.4,13.3h0a.2.2,0,0,1,0,.2Zm0-.2h0a.2.2,0,0,0,0-.2Z" fill="#b06a1a"/><path d="M15.3,13.2h.1c0-.1,0-.2,0-.2s-.2.2-.1.2Z" fill="#fff"/><path d="M15.4,13.3h0a.2.2,0,0,1,0,.2Zm0-.2h0a.2.2,0,0,0,0-.2Z" fill="#b06a1a"/><path d="M15.2,13.3c.2,0,.2-.3,0-.5s-.1.4,0,.5Z" fill="#fff"/><path d="M15.1,13.3c0,.2-.4,0-.5-.2s.5,0,.5.2Z" fill="#fff"/><path d="M14.9,13c0,.2-.4,0-.5-.1s.5,0,.5.1Z" fill="#fff"/><path d="M15,13.1c.2,0,.1-.4,0-.5s-.1.4,0,.5Z" fill="#fff"/><path d="M14.8,12.8c.2,0,.1-.3,0-.4s-.1.4,0,.4Z" fill="#fff"/><path d="M14.8,12.8c0,.2-.3,0-.4-.1s.4,0,.4.1Z" fill="#fff"/><path d="M14.7,12.7c.1-.1,0-.3-.2-.2s.1.3.2.3Z" fill="#fff"/><path d="M15.4,13.5c0,.2-.4.1-.6-.1s.6,0,.6.1Z" fill="#fff"/><path d="M12.5,8.9c-.1-.1,0-.1.1-.1h.3c.1,0,0-.2.1-.3s0-.1.1,0a4.4,4.4,0,0,1,.5,1.1.9.9,0,0,1-.2.7.9.9,0,0,0-.1-.5l-.7-1Z" fill="#fff"/><path d="M13.3,10.5c.2,0,.3-.3.3-.4a.3.3,0,0,0-.3.4Z" fill="#fff"/><path d="M12.5,8.9c-.1-.1,0-.1.1-.1h.3c.1,0,0-.2.1-.3s0-.1.1,0a4.4,4.4,0,0,1,.5,1.1.9.9,0,0,1-.2.7.9.9,0,0,0-.1-.5l-.7-1Z" fill="#fff"/><path d="M13.3,10.5c.2,0,.3-.3.3-.4a.3.3,0,0,0-.3.4Z" fill="#fff"/><path d="M15.2,13.3c.2,0,.2-.3,0-.5s-.1.4,0,.5Z" fill="#fff"/><path d="M15.2,13.3h0c-.1,0-.1-.1,0-.2a.5.5,0,0,0,0-.3.4.4,0,0,1,.1.4Zm0-.5a.4.4,0,0,1,0,.3c0,.1,0,.1,0,.2h.1a.4.4,0,0,0-.1-.4Z" fill="#b06a1a"/><path d="M15.1,13.3c0,.2-.4,0-.5-.2s.5,0,.5.2Z" fill="#fff"/><path d="M15,13.4l-.5-.2H15Zm-.5-.2.5.2h-.5Z" fill="#b06a1a"/><path d="M14.9,13c0,.2-.4,0-.5-.1s.5,0,.5.1Z" fill="#fff"/><path d="M14.8,13.1l-.4-.2h.4Zm-.4-.2h0Z" fill="#b06a1a"/><path d="M15,13.1c.2,0,.1-.4,0-.5s-.1.4,0,.5Z" fill="#fff"/><path d="M15,13.1h0c-.1,0-.1-.1,0-.2a.6.6,0,0,0,0-.3.4.4,0,0,1,.1.4Zm0-.5a.5.5,0,0,1,0,.3c0,.1,0,.1,0,.1h.1a.4.4,0,0,0-.1-.4Z" fill="#b06a1a"/><path d="M14.8,12.8c.2,0,.1-.3,0-.4s-.1.4,0,.4Z" fill="#fff"/><path d="M14.8,12.8h0c-.1,0-.1-.1-.1-.2a1.4,1.4,0,0,0,0-.2.5.5,0,0,1,.1.4Zm-.1-.4a.6.6,0,0,1,0,.2c0,.1,0,.2,0,.2h.1a.5.5,0,0,0-.1-.4Z" fill="#b06a1a"/><path d="M14.8,12.8c0,.2-.3,0-.4-.1s.4,0,.4.1Z" fill="#fff"/><path d="M14.7,12.9l-.3-.2h.3Zm-.3-.2.4.2h-.4Z" fill="#b06a1a"/><path d="M14.7,12.7c.1-.1,0-.3-.2-.2s.1.3.2.3Z" fill="#fff"/><path d="M14.6,12.7c-.1,0-.1-.2-.2-.3h.2a.1.1,0,0,1,0,.1Zm-.1-.3c0,.1.1.2.1.2h-.1Z" fill="#b06a1a"/><path d="M15.4,13.5c0,.2-.4.1-.6-.1s.6,0,.6.1Z" fill="#fff"/><path d="M15.3,13.6l-.4-.2h.4Zm-.4-.2c.1.1.5.2.5.1h-.5Z" fill="#b06a1a"/><path d="M13.7,13.2c0,.2-.5,0-.6-.2s.6,0,.6.2Z" fill="#fff"/><path d="M13.6,13.2l-.5-.3h.5Zm-.5-.3.6.2c0-.1-.1-.1-.3-.2Z" fill="#b06a1a"/><path d="M14,13.2c.1-.1-.1-.3-.3-.3s.2.4.3.3Z" fill="#fff"/><path d="M13.9,13.3h0c-.1,0-.2-.2-.2-.3l.3.2h-.1Zm-.2-.3c0,.1.1.3.2.3H14l-.3-.2Z" fill="#b06a1a"/><path d="M14,13.4c0,.2-.5.1-.6-.1s.6-.1.6.1Z" fill="#fff"/><path d="M13.8,13.5l-.5-.2h.5Zm-.5-.2H14c0-.1,0-.1-.1-.1h-.5Z" fill="#b06a1a"/><path d="M14.2,13.5c.1.1-.4.1-.6,0Z" fill="#fff"/><path d="M14,13.6h.2a.1.1,0,0,1,0,.1Zm.1-.1h0Z" fill="#b06a1a"/><path d="M14.5,13.6c.1.1-.4.1-.6.1s.6-.2.6-.1Z" fill="#fff"/><path d="M14.2,13.7h.3a.1.1,0,0,1,0,.1Zm.2-.2h0Z" fill="#b06a1a"/><path d="M14.8,13.6c.1.2-.4.2-.6.1s.5-.2.6-.1Z" fill="#fff"/><path d="M14.5,13.8h.3a.1.1,0,0,1,0,.1Zm.2-.2h.1a.1.1,0,0,0,0-.1Z" fill="#b06a1a"/><path d="M14.2,13.4c-.2.1-.1-.2-.3-.4s.4.3.3.4Z" fill="#fff"/><path d="M14.2,13.4V13h.1l.2.3h-.1ZM14,13v.2c0,.1.1.2.2.2h0l-.2-.2Z" fill="#b06a1a"/><path d="M14.5,13.5c-.1.1-.2-.3-.4-.5s.5.4.4.5Z" fill="#fff"/><path d="M14.5,13.5c-.1,0-.1-.2-.2-.3V13h.2l.2.3h-.1Zm-.3-.5v.2c.1.2.2.4.2.3h0l-.2-.3Z" fill="#b06a1a"/><path d="M14.9,13.6c-.1.1-.4-.4-.5-.6s.6.5.5.6Z" fill="#fff"/><path d="M14.8,13.6c-.1,0-.4-.4-.5-.7l.2.2c.2.2.4.3.3.4Zm-.5-.7c.1.2.4.7.5.6s-.1-.2-.3-.4l-.2-.2Z" fill="#b06a1a"/><path d="M13.7,13.2c0,.2-.5,0-.6-.2s.6,0,.6.2Z" fill="#fff"/><path d="M13.6,13.2l-.5-.3h.5Zm-.5-.3.6.2c0-.1-.1-.1-.3-.2Z" fill="#b06a1a"/><path d="M14,13.2c.1-.1-.1-.3-.3-.3s.2.4.3.3Z" fill="#fff"/><path d="M13.9,13.3h0c-.1,0-.2-.2-.2-.3l.3.2h-.1Zm-.2-.3c0,.1.1.3.2.3H14l-.3-.2Z" fill="#b06a1a"/><path d="M14,13.4c0,.2-.5.1-.6-.1s.6-.1.6.1Z" fill="#fff"/><path d="M13.8,13.5l-.5-.2h.5Zm-.5-.2H14c0-.1,0-.1-.1-.1h-.5Z" fill="#b06a1a"/><path d="M14.2,13.5c.1.1-.4.1-.6,0Z" fill="#fff"/><path d="M14,13.6h.2a.1.1,0,0,1,0,.1Zm.1-.1h0Z" fill="#b06a1a"/><path d="M14.5,13.6c.1.1-.4.1-.6.1s.6-.2.6-.1Z" fill="#fff"/><path d="M14.2,13.7h.3a.1.1,0,0,1,0,.1Zm.2-.2h0Z" fill="#b06a1a"/><path d="M14.8,13.6c.1.2-.4.2-.6.1s.5-.2.6-.1Z" fill="#fff"/><path d="M14.5,13.8h.3a.1.1,0,0,1,0,.1Zm.2-.2h.1a.1.1,0,0,0,0-.1Z" fill="#b06a1a"/><path d="M14.2,13.4c-.2.1-.1-.2-.3-.4s.4.3.3.4Z" fill="#fff"/><path d="M14.2,13.4V13h.1l.2.3h-.1ZM14,13v.2c0,.1.1.2.2.2h0l-.2-.2Z" fill="#b06a1a"/><path d="M14.5,13.5c-.1.1-.2-.3-.4-.5s.5.4.4.5Z" fill="#fff"/><path d="M14.5,13.5c-.1,0-.1-.2-.2-.3V13h.2l.2.3h-.1Zm-.3-.5v.2c.1.2.2.4.2.3h0l-.2-.3Z" fill="#b06a1a"/><path d="M14.9,13.6c-.1.1-.4-.4-.5-.6s.6.5.5.6Z" fill="#fff"/><path d="M14.8,13.6c-.1,0-.4-.4-.5-.7l.2.2c.2.2.4.3.3.4Zm-.5-.7c.1.2.4.7.5.6s-.1-.2-.3-.4l-.2-.2Z" fill="#b06a1a"/><path d="M14.6,14c-.1.2-.9-.2-1-.4s1,.2,1,.4Z" fill="#fff"/><path d="M14.5,14a1.5,1.5,0,0,1-.9-.4l.6.2c.2,0,.4.1.3.2Zm-.9-.4c.1.2.9.5,1,.4l-.3-.2-.6-.2Z" fill="#b06a1a"/><path d="M12,10h-.1a1.2,1.2,0,0,0,.3.6l1.3.3.5.3-.2-.5a.5.5,0,0,0-.4-.3l-1.1-.2L12,10Z" fill="#fff"/><path d="M12,10h-.1a1.2,1.2,0,0,0,.3.6l1.3.3.5.3-.2-.5a.5.5,0,0,0-.4-.3l-1.1-.2L12,10Z" fill="#fff"/><path d="M13.9,11.6c.1.1.2-.2.1-.5s-.2.3-.1.5Z" fill="#fff"/><path d="M13.9,11.7h0c-.1-.1,0-.1,0-.2a.6.6,0,0,0,.1-.3.4.4,0,0,1,0,.4Zm0-.5a.4.4,0,0,1-.1.3c0,.1-.1.1,0,.2H14a.4.4,0,0,0,0-.4Z" fill="#b06a1a"/><path d="M14,11.9c.1,0,.2-.2.1-.4s-.2.4-.1.4Z" fill="#fff"/><path d="M14,11.9h0a.4.4,0,0,0,.1-.2.4.4,0,0,1,0,.4Zm.1-.4a.3.3,0,0,1-.1.3h.1a.4.4,0,0,0,0-.4Z" fill="#b06a1a"/><path d="M14.1,12.1c.1.1.2-.2.1-.4s-.2.3-.1.4Z" fill="#fff"/><path d="M14.1,12.1h0a.4.4,0,0,0,.1-.3.3.3,0,0,1,0,.4Zm0-.4a.3.3,0,0,1-.1.3h.1a.4.4,0,0,0,0-.3Z" fill="#b06a1a"/><path d="M14,12.1c-.1.2-.4-.1-.4-.3s.5.2.4.3Z" fill="#fff"/><path d="M14,12.2c-.1,0-.3-.2-.4-.4l.3.2c.1,0,.2.1.1.2Zm-.4-.4c.1.1.4.4.4.3h-.1l-.3-.2Z" fill="#b06a1a"/><path d="M13.9,11.9c-.1.2-.5-.3-.6-.5s.6.3.6.5Z" fill="#fff"/><path d="M13.8,11.9c-.1,0-.4-.3-.5-.5l.3.2c.2.1.3.2.3.3Zm-.5-.5c.1.2.5.6.6.5l-.2-.2-.3-.2Z" fill="#b06a1a"/><path d="M13.8,11.6c-.1.2-.5-.3-.6-.5s.7.4.6.5Z" fill="#fff"/><path d="M13.7,11.7c-.1,0-.5-.4-.6-.5l.3.2c.2.1.3.2.3.3Zm-.6-.5c.1.2.6.6.6.5l-.3-.3-.3-.2Z" fill="#b06a1a"/><path d="M13.8,11.4c.2,0,0-.2-.2-.4s0,.4.2.4Z" fill="#fff"/><path d="M13.8,11.4h-.1c-.1-.1-.1-.2-.1-.3h.1l.2.2h-.1Zm-.2-.4a.5.5,0,0,0,.1.3h.2l-.2-.2Z" fill="#b06a1a"/><path d="M13.5,11.3c.1-.1-.1-.1-.2-.3s.2.3.2.3Z" fill="#fff"/><path d="M13.5,11.3h-.1a.3.3,0,0,1-.1-.2h.2Zm-.2-.3v.2h.1l-.2-.2Z" fill="#b06a1a"/><path d="M14.3,12.1c.1,0,.1-.1,0-.3s-.1.2,0,.3Z" fill="#fff"/><path d="M14.3,12.1h0c-.1,0,0-.1,0-.1v-.2a.2.2,0,0,1,.1.3Zm0-.3a.3.3,0,0,1,0,.1c0,.1,0,.1,0,.1h.1a.3.3,0,0,0,0-.2Z" fill="#b06a1a"/><path d="M13.9,11.6c.1.1.2-.2.1-.5s-.2.3-.1.5Z" fill="#fff"/><path d="M13.9,11.7h0c-.1-.1,0-.1,0-.2a.6.6,0,0,0,.1-.3.4.4,0,0,1,0,.4Zm0-.5a.4.4,0,0,1-.1.3c0,.1-.1.1,0,.2H14a.4.4,0,0,0,0-.4Z" fill="#b06a1a"/><path d="M14,11.9c.1,0,.2-.2.1-.4s-.2.4-.1.4Z" fill="#fff"/><path d="M14,11.9h0a.4.4,0,0,0,.1-.2.4.4,0,0,1,0,.4Zm.1-.4a.3.3,0,0,1-.1.3h.1a.4.4,0,0,0,0-.4Z" fill="#b06a1a"/><path d="M14.1,12.1c.1.1.2-.2.1-.4s-.2.3-.1.4Z" fill="#fff"/><path d="M14.1,12.1h0a.4.4,0,0,0,.1-.3.3.3,0,0,1,0,.4Zm0-.4a.3.3,0,0,1-.1.3h.1a.4.4,0,0,0,0-.3Z" fill="#b06a1a"/><path d="M14,12.1c-.1.2-.4-.1-.4-.3s.5.2.4.3Z" fill="#fff"/><path d="M14,12.2c-.1,0-.3-.2-.4-.4l.3.2c.1,0,.2.1.1.2Zm-.4-.4c.1.1.4.4.4.3h-.1l-.3-.2Z" fill="#b06a1a"/><path d="M13.9,11.9c-.1.2-.5-.3-.6-.5s.6.3.6.5Z" fill="#fff"/><path d="M13.8,11.9c-.1,0-.4-.3-.5-.5l.3.2c.2.1.3.2.3.3Zm-.5-.5c.1.2.5.6.6.5l-.2-.2-.3-.2Z" fill="#b06a1a"/><path d="M13.8,11.6c-.1.2-.5-.3-.6-.5s.7.4.6.5Z" fill="#fff"/><path d="M13.7,11.7c-.1,0-.5-.4-.6-.5l.3.2c.2.1.3.2.3.3Zm-.6-.5c.1.2.6.6.6.5l-.3-.3-.3-.2Z" fill="#b06a1a"/><path d="M13.8,11.4c.2,0,0-.2-.2-.4s0,.4.2.4Z" fill="#fff"/><path d="M13.8,11.4h-.1c-.1-.1-.1-.2-.1-.3h.1l.2.2h-.1Zm-.2-.4a.5.5,0,0,0,.1.3h.2l-.2-.2Z" fill="#b06a1a"/><path d="M13.5,11.3c.1-.1-.1-.1-.2-.3s.2.3.2.3Z" fill="#fff"/><path d="M13.5,11.3h-.1a.3.3,0,0,1-.1-.2h.2Zm-.2-.3v.2h.1l-.2-.2Z" fill="#b06a1a"/><path d="M14.3,12.1c.1,0,.1-.1,0-.3s-.1.2,0,.3Z" fill="#fff"/><path d="M14.3,12.1h0c-.1,0,0-.1,0-.1v-.2a.2.2,0,0,1,.1.3Zm0-.3a.3.3,0,0,1,0,.1c0,.1,0,.1,0,.1h.1a.3.3,0,0,0,0-.2Z" fill="#b06a1a"/><path d="M12.4,11c-.2.1-.5-.3-.5-.5s.6.4.5.5Z" fill="#fff"/><path d="M12.4,11.1c-.2,0-.4-.4-.5-.5l.3.2.2.3Zm-.5-.5c.1.2.4.6.5.5l-.2-.2-.3-.3Z" fill="#b06a1a"/><path d="M12.6,11.3c-.1.1-.4-.2-.5-.3s.6.2.5.3Z" fill="#fff"/><path d="M12.5,11.3c-.1,0-.4-.2-.5-.4h.3c.1.1.3.1.3.2Zm-.5-.4c.1.1.4.4.5.3s-.1-.1-.3-.2Z" fill="#b06a1a"/><path d="M12.7,11.5c0,.1-.5-.2-.6-.3s.6.2.6.3Z" fill="#fff"/><path d="M12.7,11.6l-.6-.4h.4c.2.1.3.1.3.2Zm-.6-.4.6.4h0c0-.1-.1-.1-.2-.2l-.3-.2Z" fill="#b06a1a"/><path d="M12.7,11.7c-.1.1-.4-.2-.5-.4s.6.2.5.4Z" fill="#fff"/><path d="M12.6,11.7c-.1,0-.4-.3-.5-.4l.3.2c.1.1.2.1.2.2Zm-.5-.4c.1.1.5.5.5.4l-.2-.2-.3-.2Z" fill="#b06a1a"/><path d="M12.5,11c.1-.1.1-.2,0-.4s-.1.3,0,.4Z" fill="#fff"/><path d="M12.5,11h0c-.1-.1-.1-.2-.1-.3h.1c.1.1.1.2,0,.3Zm0-.4a.2.2,0,0,1,0,.1c0,.1-.1.2,0,.2s.1-.2,0-.3Z" fill="#b06a1a"/><path d="M12.6,11.2c.2,0,0-.3,0-.5s-.1.4,0,.5Z" fill="#fff"/><path d="M12.7,11.3h0c-.1,0-.1-.1-.1-.2a1.7,1.7,0,0,0,0-.2V11c0,.1.1.2.1.2Zm-.1-.4a.6.6,0,0,1,0,.2c0,.1,0,.2,0,.2h.1s0-.1-.1-.2v-.2Z" fill="#b06a1a"/><path d="M12.8,11.4c.1,0,.1-.2,0-.5s-.1.4,0,.5Z" fill="#fff"/><path d="M12.8,11.5h0c-.1,0-.1-.1,0-.2a.7.7,0,0,0,0-.3c.1.2.1.4.1.4h-.1Zm0-.5a.6.6,0,0,1,0,.3c0,.1,0,.2,0,.2h.1c0-.1,0-.2-.1-.4Z" fill="#b06a1a"/><path d="M12.7,11.9c-.1.2-.5-.2-.5-.4s.6.2.5.4Z" fill="#fff"/><path d="M12.7,11.9c-.1,0-.4-.3-.5-.4l.3.2.2.2Zm-.5-.4c.1.1.5.5.5.3l-.2-.2-.3-.2Z" fill="#b06a1a"/><path d="M13,12.1c-.1.2-.5-.2-.6-.4s.7.2.6.4Z" fill="#fff"/><path d="M12.9,12.2a1.1,1.1,0,0,1-.6-.4l.4.2c.1,0,.3.1.2.2Zm-.6-.4c.2.2.6.5.6.3l-.2-.2-.4-.2Z" fill="#b06a1a"/><path d="M13.2,12.4c-.1.2-.5-.1-.7-.3s.7.2.7.3Z" fill="#fff"/><path d="M13.1,12.5a1.1,1.1,0,0,1-.6-.4l.5.2c.1,0,.3.1.2.2Zm-.6-.4c.1.1.6.5.7.3H13l-.4-.2Z" fill="#b06a1a"/><path d="M12.8,11.8c.1.1.2-.3.1-.5s-.2.5-.1.5Z" fill="#fff"/><path d="M12.8,11.8h-.1s0-.1.1-.2a.8.8,0,0,0,.1-.3.7.7,0,0,1,0,.5Zm.1-.6a.6.6,0,0,1-.1.3v.2h.1a.7.7,0,0,0,0-.5Z" fill="#b06a1a"/><path d="M13,12.1c.1,0,.1-.3,0-.6s-.1.5,0,.6Z" fill="#fff"/><path d="M13,12.1h0c-.1-.1-.1-.2-.1-.4v-.2a.7.7,0,0,1,.1.6Zm-.1-.6a.5.5,0,0,1,0,.2c0,.2-.1.3,0,.4h.1a.8.8,0,0,0-.1-.5Z" fill="#b06a1a"/><path d="M13.3,12.3c.2,0,.1-.3-.1-.5s-.1.5.1.5Z" fill="#fff"/><path d="M13.3,12.3h0c-.1,0-.1-.1-.1-.3a1.6,1.6,0,0,0,0-.2c.1.1.2.4.2.5Zm-.1-.5a.5.5,0,0,1,0,.2c0,.1,0,.3.1.3h.1a.7.7,0,0,0-.2-.5Z" fill="#b06a1a"/><path d="M13,12.5c-.1.1-.2-.1-.4-.2l.4.2Z" fill="#fff"/><path d="M12.9,12.5h0Zm-.3-.2H13l-.4-.2Z" fill="#b06a1a"/><path d="M12.4,11c-.2.1-.5-.3-.5-.5s.6.4.5.5Z" fill="#fff"/><path d="M12.4,11.1c-.2,0-.4-.4-.5-.5l.3.2.2.3Zm-.5-.5c.1.2.4.6.5.5l-.2-.2-.3-.3Z" fill="#b06a1a"/><path d="M12.6,11.3c-.1.1-.4-.2-.5-.3s.6.2.5.3Z" fill="#fff"/><path d="M12.5,11.3c-.1,0-.4-.2-.5-.4h.3c.1.1.3.1.3.2Zm-.5-.4c.1.1.4.4.5.3s-.1-.1-.3-.2Z" fill="#b06a1a"/><path d="M12.7,11.5c0,.1-.5-.2-.6-.3s.6.2.6.3Z" fill="#fff"/><path d="M12.7,11.6l-.6-.4h.4c.2.1.3.1.3.2Zm-.6-.4.6.4h0c0-.1-.1-.1-.2-.2l-.3-.2Z" fill="#b06a1a"/><path d="M12.7,11.7c-.1.1-.4-.2-.5-.4s.6.2.5.4Z" fill="#fff"/><path d="M12.6,11.7c-.1,0-.4-.3-.5-.4l.3.2c.1.1.2.1.2.2Zm-.5-.4c.1.1.5.5.5.4l-.2-.2-.3-.2Z" fill="#b06a1a"/><path d="M12.5,11c.1-.1.1-.2,0-.4s-.1.3,0,.4Z" fill="#fff"/><path d="M12.5,11h0c-.1-.1-.1-.2-.1-.3h.1c.1.1.1.2,0,.3Zm0-.4a.2.2,0,0,1,0,.1c0,.1-.1.2,0,.2s.1-.2,0-.3Z" fill="#b06a1a"/><path d="M12.6,11.2c.2,0,0-.3,0-.5s-.1.4,0,.5Z" fill="#fff"/><path d="M12.7,11.3h0c-.1,0-.1-.1-.1-.2a1.7,1.7,0,0,0,0-.2V11c0,.1.1.2.1.2Zm-.1-.4a.6.6,0,0,1,0,.2c0,.1,0,.2,0,.2h.1s0-.1-.1-.2v-.2Z" fill="#b06a1a"/><path d="M12.8,11.4c.1,0,.1-.2,0-.5s-.1.4,0,.5Z" fill="#fff"/><path d="M12.8,11.5h0c-.1,0-.1-.1,0-.2a.7.7,0,0,0,0-.3c.1.2.1.4.1.4h-.1Zm0-.5a.6.6,0,0,1,0,.3c0,.1,0,.2,0,.2h.1c0-.1,0-.2-.1-.4Z" fill="#b06a1a"/><path d="M12.7,11.9c-.1.2-.5-.2-.5-.4s.6.2.5.4Z" fill="#fff"/><path d="M12.7,11.9c-.1,0-.4-.3-.5-.4l.3.2.2.2Zm-.5-.4c.1.1.5.5.5.3l-.2-.2-.3-.2Z" fill="#b06a1a"/><path d="M13,12.1c-.1.2-.5-.2-.6-.4s.7.2.6.4Z" fill="#fff"/><path d="M12.9,12.2a1.1,1.1,0,0,1-.6-.4l.4.2c.1,0,.3.1.2.2Zm-.6-.4c.2.2.6.5.6.3l-.2-.2-.4-.2Z" fill="#b06a1a"/><path d="M13.2,12.4c-.1.2-.5-.1-.7-.3s.7.2.7.3Z" fill="#fff"/><path d="M13.1,12.5a1.1,1.1,0,0,1-.6-.4l.5.2c.1,0,.3.1.2.2Zm-.6-.4c.1.1.6.5.7.3H13l-.4-.2Z" fill="#b06a1a"/><path d="M12.8,11.8c.1.1.2-.3.1-.5s-.2.5-.1.5Z" fill="#fff"/><path d="M12.8,11.8h-.1s0-.1.1-.2a.8.8,0,0,0,.1-.3.7.7,0,0,1,0,.5Zm.1-.6a.6.6,0,0,1-.1.3v.2h.1a.7.7,0,0,0,0-.5Z" fill="#b06a1a"/><path d="M13,12.1c.1,0,.1-.3,0-.6s-.1.5,0,.6Z" fill="#fff"/><path d="M13,12.1h0c-.1-.1-.1-.2-.1-.4v-.2a.7.7,0,0,1,.1.6Zm-.1-.6a.5.5,0,0,1,0,.2c0,.2-.1.3,0,.4h.1a.8.8,0,0,0-.1-.5Z" fill="#b06a1a"/><path d="M13.3,12.3c.2,0,.1-.3-.1-.5s-.1.5.1.5Z" fill="#fff"/><path d="M13.3,12.3h0c-.1,0-.1-.1-.1-.3a1.6,1.6,0,0,0,0-.2c.1.1.2.4.2.5Zm-.1-.5a.5.5,0,0,1,0,.2c0,.1,0,.3.1.3h.1a.7.7,0,0,0-.2-.5Z" fill="#b06a1a"/><path d="M13,12.5c-.1.1-.2-.1-.4-.2l.4.2Z" fill="#fff"/><path d="M12.9,12.5h0Zm-.3-.2H13l-.4-.2Z" fill="#b06a1a"/><path d="M12.9,9.6c.2-.1,0-.3,0-.5s-.2.4,0,.5Z" fill="#fff"/><path d="M12.9,9.7h0c-.2-.1-.1-.3,0-.4h.1c0,.2.1.3,0,.4Zm0-.5h0c-.1.2-.1.3,0,.4s.1-.2,0-.4Z" fill="#b06a1a"/><path d="M12.9,9.9c-.2,0-.2-.3-.2-.5s.3.3.2.5Z" fill="#fff"/><path d="M12.9,9.9h0c-.2,0-.2-.3-.2-.5h0v.2a.3.3,0,0,1,.1.3Zm-.2-.5h0c0,.2,0,.4.2.4a.3.3,0,0,0-.1-.3V9.4Z" fill="#b06a1a"/><path d="M12.9,9.9c.2,0,.2-.2.2-.5s-.2.2-.2.5Z" fill="#fff"/><path d="M12.9,9.9h0a.4.4,0,0,1,.1-.3V9.4h0c0,.2,0,.4-.2.4Zm.2-.5v.2a.4.4,0,0,0-.1.3c.2,0,.2-.2.2-.4Z" fill="#b06a1a"/><path d="M12.9,10.2c-.2,0-.2-.1-.3-.4s.3.2.3.4Z" fill="#fff"/><path d="M12.9,10.2c-.1,0-.2-.1-.3-.4l.2.2a.2.2,0,0,1,.1.2Zm-.3-.4c.1.2.1.4.3.4h0a.2.2,0,0,0-.1-.2l-.2-.2Z" fill="#b06a1a"/><path d="M13,10.2c.2,0,.2-.2.2-.4s-.2.2-.2.4Z" fill="#fff"/><path d="M13,10.2h0a.2.2,0,0,1,.1-.2h.1a.5.5,0,0,1,0,.3Zm.1-.4v.2a.2.2,0,0,0-.1.2h.1c.1-.1,0-.2,0-.3Z" fill="#b06a1a"/><path d="M12.7,10.1c0,.2.1.4.3.4s-.1-.2-.3-.4Z" fill="#fff"/><path d="M12.9,10.4h0c-.1,0-.2-.2-.2-.4h.1c.1.1.2.1.1.3Zm-.2-.4c0,.2.1.4.3.3s0-.2-.1-.2Z" fill="#b06a1a"/><path d="M13,10.4c-.1-.1.2-.2.2-.4s0,.4-.2.4Z" fill="#fff"/><path d="M13,10.4H13c-.1-.1,0-.1.1-.2V10c0,.2,0,.3,0,.3Zm.1-.4v.2c-.1.1-.1.1-.1.2h.1a.5.5,0,0,0,0-.3Z" fill="#b06a1a"/><path d="M12.9,9.6c.2-.1,0-.3,0-.5s-.2.4,0,.5Z" fill="#fff"/><path d="M12.9,9.7h0c-.2-.1-.1-.3,0-.4h.1c0,.2.1.3,0,.4Zm0-.5h0c-.1.2-.1.3,0,.4s.1-.2,0-.4Z" fill="#b06a1a"/><path d="M12.9,9.9c-.2,0-.2-.3-.2-.5s.3.3.2.5Z" fill="#fff"/><path d="M12.9,9.9h0c-.2,0-.2-.3-.2-.5h0v.2a.3.3,0,0,1,.1.3Zm-.2-.5h0c0,.2,0,.4.2.4a.3.3,0,0,0-.1-.3V9.4Z" fill="#b06a1a"/><path d="M12.9,9.9c.2,0,.2-.2.2-.5s-.2.2-.2.5Z" fill="#fff"/><path d="M12.9,9.9h0a.4.4,0,0,1,.1-.3V9.4h0c0,.2,0,.4-.2.4Zm.2-.5v.2a.4.4,0,0,0-.1.3c.2,0,.2-.2.2-.4Z" fill="#b06a1a"/><path d="M12.9,10.2c-.2,0-.2-.1-.3-.4s.3.2.3.4Z" fill="#fff"/><path d="M12.9,10.2c-.1,0-.2-.1-.3-.4l.2.2a.2.2,0,0,1,.1.2Zm-.3-.4c.1.2.1.4.3.4h0a.2.2,0,0,0-.1-.2l-.2-.2Z" fill="#b06a1a"/><path d="M13,10.2c.2,0,.2-.2.2-.4s-.2.2-.2.4Z" fill="#fff"/><path d="M13,10.2h0a.2.2,0,0,1,.1-.2h.1a.5.5,0,0,1,0,.3Zm.1-.4v.2a.2.2,0,0,0-.1.2h.1c.1-.1,0-.2,0-.3Z" fill="#b06a1a"/><path d="M12.7,10.1c0,.2.1.4.3.4s-.1-.2-.3-.4Z" fill="#fff"/><path d="M12.9,10.4h0c-.1,0-.2-.2-.2-.4h.1c.1.1.2.1.1.3Zm-.2-.4c0,.2.1.4.3.3s0-.2-.1-.2Z" fill="#b06a1a"/><path d="M13,10.4c-.1-.1.2-.2.2-.4s0,.4-.2.4Z" fill="#fff"/><path d="M13,10.4H13c-.1-.1,0-.1.1-.2V10c0,.2,0,.3,0,.3Zm.1-.4v.2c-.1.1-.1.1-.1.2h.1a.5.5,0,0,0,0-.3Z" fill="#b06a1a"/><path d="M12.3,8.9c.1-.1,0-.3,0-.6s-.1.5,0,.6Z" fill="#fff"/><path d="M12.3,8.9h0c-.2-.1-.1-.3,0-.5h0v.2c0,.2.1.3,0,.4Zm0-.6h0c0,.2-.1.4,0,.5s0-.2,0-.4V8.3Z" fill="#b06a1a"/><path d="M12.3,9.1c-.2,0-.3-.4-.3-.6s.3.4.3.6Z" fill="#fff"/><path d="M12.3,9.1c-.2,0-.3-.4-.3-.6l.2.3a.4.4,0,0,1,.1.3ZM12,8.5c0,.2.1.6.3.6h0a.5.5,0,0,0-.1-.3L12,8.5Z" fill="#b06a1a"/><path d="M12.4,9.1c.2-.1.1-.2.2-.4s-.2.2-.2.4Z" fill="#fff"/><path d="M12.4,9.1h0a.3.3,0,0,1,.1-.3h.1a.5.5,0,0,1,0,.1.3.3,0,0,1-.1.3Zm.1-.4h-.1a.3.3,0,0,0-.1.3.3.3,0,0,0,.1-.2Z" fill="#b06a1a"/><path d="M12.3,9.4c-.2,0-.4-.5-.4-.7s.4.4.4.7Z" fill="#fff"/><path d="M12.3,9.4c-.2,0-.4-.5-.4-.7l.2.3a.5.5,0,0,1,.2.4ZM12,8.7c0,.2.2.7.4.7h0a.5.5,0,0,0-.2-.4L12,8.7Z" fill="#b06a1a"/><path d="M12.4,9.4c.2-.1.2-.2.2-.4s-.2.2-.2.4Z" fill="#fff"/><path d="M12.4,9.4h0a.3.3,0,0,1,.1-.2V9c.1.2.1.4-.1.4Zm.1-.4v.2a.2.2,0,0,0-.1.2c.2,0,.2-.2.1-.4Z" fill="#b06a1a"/><path d="M12.3,9.7c-.2,0-.2-.4-.4-.6s.5.5.4.6Z" fill="#fff"/><path d="M12.3,9.7c-.1,0-.2-.1-.2-.3L11.9,9l.2.2c.2.2.3.4.3.5Zm-.4-.6v.3c.1.2.1.3.2.3h0c0-.1-.1-.3-.3-.5Z" fill="#b06a1a"/><path d="M12.4,9.7c.2,0,.2-.3.2-.4s-.3.2-.2.4Z" fill="#fff"/><path d="M12.4,9.7h0c-.1-.1,0-.2.1-.3h.1a.4.4,0,0,1-.1.4Zm.2-.4h-.1c-.1.1-.1.2-.1.3h.1a.5.5,0,0,0,.1-.3Z" fill="#b06a1a"/><path d="M11.9,9.4c.1.3.2.6.4.6s-.2-.2-.4-.6Z" fill="#fff"/><path d="M12.3,10q-.2,0-.4-.6l.3.3c.1.1.2.1.1.2Zm-.4-.6c.1.4.3.6.4.6h0c0-.1,0-.1-.1-.2l-.3-.4Z" fill="#b06a1a"/><path d="M12.4,9.9c-.1-.1.2-.2.2-.4s0,.4-.2.4Z" fill="#fff"/><path d="M12.4,9.9h-.1c-.1-.1,0-.1.1-.2V9.5c0,.2,0,.3,0,.3Zm.1-.4v.2c-.1.1-.1.1-.1.2h.1a.5.5,0,0,0,0-.3Z" fill="#b06a1a"/><path d="M12,9.7c.1.3.2.6.4.5s-.2-.3-.4-.5Z" fill="#fff"/><path d="M12.3,10.3c-.1,0-.2-.2-.3-.3V9.7l.3.2c.1.1.2.2.1.3ZM12,9.8h.1c.1.2.1.3.2.3h0c0-.1,0-.2-.1-.3L12,9.8Z" fill="#b06a1a"/><path d="M12.4,10.2c-.1-.1.2-.2.2-.4s0,.4-.2.4Z" fill="#fff"/><path d="M12.5,10.2h-.1c-.1-.1,0-.1.1-.2V9.8a.5.5,0,0,1,0,.4Zm.1-.4V10c-.1.1-.1.1-.1.2h.1c0-.1.1-.2,0-.4Z" fill="#b06a1a"/><path d="M12.3,8.9c.1-.1,0-.3,0-.6s-.1.5,0,.6Z" fill="#fff"/><path d="M12.3,8.9h0c-.2-.1-.1-.3,0-.5h0v.2c0,.2.1.3,0,.4Zm0-.6h0c0,.2-.1.4,0,.5s0-.2,0-.4V8.3Z" fill="#b06a1a"/><path d="M12.3,9.1c-.2,0-.3-.4-.3-.6s.3.4.3.6Z" fill="#fff"/><path d="M12.3,9.1c-.2,0-.3-.4-.3-.6l.2.3a.4.4,0,0,1,.1.3ZM12,8.5c0,.2.1.6.3.6h0a.5.5,0,0,0-.1-.3L12,8.5Z" fill="#b06a1a"/><path d="M12.4,9.1c.2-.1.1-.2.2-.4s-.2.2-.2.4Z" fill="#fff"/><path d="M12.4,9.1h0a.3.3,0,0,1,.1-.3h.1a.5.5,0,0,1,0,.1.3.3,0,0,1-.1.3Zm.2-.4h-.1a.3.3,0,0,0-.1.3.3.3,0,0,0,.1-.2Z" fill="#b06a1a"/><path d="M12.3,9.4c-.2,0-.4-.5-.4-.7s.4.4.4.7Z" fill="#fff"/><path d="M12.3,9.4c-.2,0-.4-.5-.4-.7l.2.3a.5.5,0,0,1,.2.4ZM12,8.7c0,.2.2.7.4.7h0a.5.5,0,0,0-.2-.4L12,8.7Z" fill="#b06a1a"/><path d="M12.4,9.4c.2-.1.2-.2.2-.4s-.2.2-.2.4Z" fill="#fff"/><path d="M12.4,9.4h0a.3.3,0,0,1,.1-.2V9c.1.2.1.4-.1.4Zm.2-.4v.2a.2.2,0,0,0-.1.2c.2,0,.2-.2.1-.4Z" fill="#b06a1a"/><path d="M12.3,9.7c-.2,0-.2-.4-.4-.6s.5.5.4.6Z" fill="#fff"/><path d="M12.3,9.7c-.1,0-.2-.1-.2-.3L11.9,9l.2.2c.2.2.3.4.3.5h0Zm-.4-.6v.3c.1.2.1.3.2.3h0c0-.1-.1-.3-.3-.5Z" fill="#b06a1a"/><path d="M12.4,9.7c.2,0,.2-.3.2-.4s-.3.2-.2.4Z" fill="#fff"/><path d="M12.4,9.7h0c-.1-.1,0-.2.1-.3h.1a.4.4,0,0,1-.1.4Zm.2-.4h-.1c-.1.1-.1.2-.1.3h.1a.5.5,0,0,0,.1-.3Z" fill="#b06a1a"/><path d="M11.9,9.4c.1.3.2.6.4.6s-.2-.2-.4-.6Z" fill="#fff"/><path d="M12.3,10q-.2,0-.4-.6l.3.3c.1.1.2.1.1.2Zm-.4-.6c.1.4.3.6.4.6h0c0-.1,0-.1-.1-.2l-.3-.4Z" fill="#b06a1a"/><path d="M12.4,9.9c-.1-.1.2-.2.2-.4s0,.4-.2.4Z" fill="#fff"/><path d="M12.4,9.9h-.1c-.1-.1,0-.1.1-.2V9.5c0,.2,0,.3,0,.3Zm.1-.4v.2c-.1.1-.1.1-.1.2h.1a.5.5,0,0,0,0-.3Z" fill="#b06a1a"/><path d="M12,9.7c.1.3.2.6.4.5s-.2-.3-.4-.5Z" fill="#fff"/><path d="M12.3,10.3c-.1,0-.2-.2-.3-.3V9.7l.3.2c.1.1.2.2.1.3h0ZM12,9.8h.1c.1.2.1.3.2.3h0c0-.1,0-.2-.1-.3L12,9.8Z" fill="#b06a1a"/><path d="M12.4,10.2c-.1-.1.2-.2.2-.4s0,.4-.2.4Z" fill="#fff"/><path d="M12.5,10.2h-.1c-.1-.1,0-.1.1-.2V9.8a.5.5,0,0,1,0,.4Zm.1-.4V10c-.1.1-.1.1-.1.2h.1c0-.1.1-.2,0-.4Z" fill="#b06a1a"/><path d="M12.8,8.4c.1,0,.3-.1.2-.3a.3.3,0,0,0-.2.3Z" fill="#fff"/><path d="M12.8,8.4h0c0-.2.1-.3.2-.4a.3.3,0,0,1,0,.3ZM13,8a.3.3,0,0,0-.2.3H13A.3.3,0,0,0,13,8Z" fill="#b06a1a"/><path d="M12.4,8.2h.1a.3.3,0,0,1,0-.2.4.4,0,0,0,0-.2h-.1a.3.3,0,0,1,0,.2.4.4,0,0,0,0,.2Z" fill="#fff"/><path d="M12.4,8.3h-.1a.4.4,0,0,1,0-.2.3.3,0,0,0,0-.2h.1a.4.4,0,0,1,0,.3.3.3,0,0,0,0,.2.1.1,0,0,1,0,.1Zm0-.5h0a.3.3,0,0,1,0,.2.4.4,0,0,0,0,.2h0a.1.1,0,0,0,0-.1.3.3,0,0,1,0-.2.4.4,0,0,0,0-.2Z" fill="#b06a1a"/><path d="M12.8,8.4c.1,0,.3-.1.2-.3a.3.3,0,0,0-.2.3Z" fill="#fff"/><path d="M12.8,8.4h0c0-.2.1-.3.2-.4a.3.3,0,0,1,0,.3ZM13,8a.3.3,0,0,0-.2.3H13A.3.3,0,0,0,13,8Z" fill="#b06a1a"/><path d="M12.4,8.2h.1a.3.3,0,0,1,0-.2.4.4,0,0,0,0-.2h-.1a.3.3,0,0,1,0,.2.4.4,0,0,0,0,.2Z" fill="#fff"/><path d="M12.4,8.3h-.1a.4.4,0,0,1,0-.2.3.3,0,0,0,0-.2h.1a.4.4,0,0,1,0,.3.3.3,0,0,0,0,.2.1.1,0,0,1,0,.1Zm0-.5h0a.3.3,0,0,1,0,.2.4.4,0,0,0,0,.2h0a.1.1,0,0,0,0-.1.3.3,0,0,1,0-.2.4.4,0,0,0,0-.2Z" fill="#b06a1a"/><path d="M12.8,8c0,.1-.1.1-.1,0a.6.6,0,0,0,0-.3.9.9,0,0,1,0-.4h.1a.5.5,0,0,0,0,.3.9.9,0,0,1,0,.4Z" fill="#fff"/><path d="M12.8,8.1h0a.1.1,0,0,1,0-.1.6.6,0,0,0,0-.3,1,1,0,0,1,0-.4h.1a.1.1,0,0,1,0,.1.6.6,0,0,0,0,.3,1,1,0,0,1,0,.4Zm0-.8h0a.8.8,0,0,0,0,.4.6.6,0,0,1,0,.3.1.1,0,0,0,0,.1h0a1,1,0,0,0,0-.4.5.5,0,0,1,0-.3.1.1,0,0,0,0,0Z" fill="#b06a1a"/><path d="M13.5,9c-.1.1-.1,0-.1-.1V8.6l.2-.2c.1-.1.1,0,.1,0l-.2.2c-.1.1,0,.2-.1.3Z" fill="#fff"/><path d="M13.4,9h0a.1.1,0,0,1,0-.1h.1l.2-.2h.1l-.2.2v.2h-.1Zm.3-.6h-.1l-.2.2h-.1a.1.1,0,0,0,0,.1h.1V8.7l.2-.2h0Z" fill="#b06a1a"/><path d="M13.6,9.1c-.1.1-.2,0-.1-.1l.2-.2V8.5c.1-.1.1,0,.1.1a.5.5,0,0,0-.1.3l-.2.3Z" fill="#fff"/><path d="M13.5,9.1h0V8.8a.6.6,0,0,1,.1-.3h.1a.5.5,0,0,0-.1.3V9h-.1Zm.3-.7h0V9h.1V8.8a.5.5,0,0,1,.1-.3h0Z" fill="#b06a1a"/><path d="M13.6,9.1c-.1.1-.2,0-.1-.1l.2-.2V8.5c.1-.1.1,0,.1.1a.5.5,0,0,0-.1.3l-.2.3Z" fill="#fff"/><path d="M13.5,9.1h0V8.8a.6.6,0,0,1,.1-.3h.1a.5.5,0,0,0-.1.3V9h-.1Zm.3-.7h0V9h.1V8.8a.5.5,0,0,1,.1-.3h0Z" fill="#b06a1a"/><path d="M13.5,9c-.1.1-.1,0-.1-.1V8.6l.2-.2c.1-.1.1,0,.1,0l-.2.2c-.1.1,0,.2-.1.3Z" fill="#fff"/><path d="M13.4,9h0a.1.1,0,0,1,0-.1h.1l.2-.2h.1l-.2.2v.2h-.1Zm.3-.6h-.1l-.2.2h-.1a.1.1,0,0,0,0,.1h.1V8.7l.2-.2h0Z" fill="#b06a1a"/><path d="M12.6,8.6c0,.1.1.1.1,0s-.1-.3,0-.6a1.1,1.1,0,0,0,0-.4c0-.1-.1,0-.1,0a.9.9,0,0,1,0,.4c-.1.3.1.4.1.6Z" fill="#fff"/><path d="M12.6,8.7h0V8.4a.6.6,0,0,1,0-.4.9.9,0,0,0,0-.4.1.1,0,0,1,0-.1h.1a1.1,1.1,0,0,1,0,.5.7.7,0,0,0,0,.4v.2h0Zm0-1.2h0a1,1,0,0,1,0,.4.7.7,0,0,0,0,.4v.2h.1V8.4a.7.7,0,0,1,0-.4,1.1,1.1,0,0,0,0-.4Z" fill="#b06a1a"/><path d="M12.6,8.6c0,.1.1.1.1,0s-.1-.3,0-.6a1.1,1.1,0,0,0,0-.4c0-.1-.1,0-.1,0a.9.9,0,0,1,0,.4c-.1.3.1.4.1.6Z" fill="#fff"/><path d="M12.6,8.7h0V8.4a.6.6,0,0,1,0-.4.9.9,0,0,0,0-.4.1.1,0,0,1,0-.1h.1a1.1,1.1,0,0,1,0,.5.7.7,0,0,0,0,.4v.2h0Zm0-1.2h0a1,1,0,0,1,0,.4.7.7,0,0,0,0,.4v.2h.1V8.4a.7.7,0,0,1,0-.4,1.1,1.1,0,0,0,0-.4Z" fill="#b06a1a"/><path d="M12.8,8c0,.1-.1.1-.1,0a.6.6,0,0,0,0-.3.9.9,0,0,1,0-.4h.1a.5.5,0,0,0,0,.3.9.9,0,0,1,0,.4Z" fill="#fff"/><path d="M12.8,8.1h0a.1.1,0,0,1,0-.1.6.6,0,0,0,0-.3,1,1,0,0,1,0-.4h.1a.1.1,0,0,1,0,.1.6.6,0,0,0,0,.3,1,1,0,0,1,0,.4Zm0-.8h0a.8.8,0,0,0,0,.4.6.6,0,0,1,0,.3.1.1,0,0,0,0,.1h0a1,1,0,0,0,0-.4.5.5,0,0,1,0-.3.1.1,0,0,0,0,0Z" fill="#b06a1a"/><path d="M12,10c0,.1.1,0,0,0H12V9.6h0V10Z" fill="#fff"/><path d="M12,10h0Zm-.2-.3h0Z" fill="#b06a1a"/><path d="M13.1,11.3a.5.5,0,0,1,.2.4.9.9,0,0,0,.1.4c-.1,0-.2-.2-.2-.4s-.1-.2-.2-.4Z" fill="#fff"/><path d="M13.5,12.1h0c-.1,0-.2-.3-.2-.4v-.2h-.1a.4.4,0,0,1,.3.4.8.8,0,0,0,.1.4Zm-.4-.8h.1v.3a.5.5,0,0,0,.1.3.9.9,0,0,1-.1-.4.5.5,0,0,0-.2-.3Z" fill="#b06a1a"/><path d="M13.4,11.6c.1.2.2.2.2.4v.3c-.1,0-.1,0-.2-.2s-.1-.3-.1-.4Z" fill="#fff"/><path d="M13.7,12.3h0c-.1,0-.1,0-.2-.3v.2Zm-.3-.7V12c0,.2.1.2.1.2h0v-.6Z" fill="#b06a1a"/><g clip-path=""><path d="M18.3,14.4v.2a1.1,1.1,0,0,0-.7.1c-.1,0-.2-.1-.1-.1s.5-.1.8-.1Zm-3.1,0a.3.3,0,0,1,0,.2,1,1,0,0,1,.7.1c.2.1.2-.1.2-.1l-.3-.2Zm.2-1.2h-.2l-.7.6c-.1.1-.2.2.2.3h.4c.1,0,.1.1.1.1h-.1c-.1.1,0,.1.1.1s.5-.1.8,0,.2,0,.2-.1v-.2h.9c.1,0,.1.1.2.2h.3a.8.8,0,0,1,.7,0h0c-.1-.1,0-.1,0-.1s.8-.3.6-.4l-.7-.7h-.2a3.5,3.5,0,0,1-1.4.3,4,4,0,0,1-1.3-.3Z"/></g><path d="M18.3,14.4v.2a1.1,1.1,0,0,0-.7.1c-.1,0-.2-.1-.1-.1s.5-.1.8-.1Zm-3.1,0a.3.3,0,0,1,0,.2,1,1,0,0,1,.7.1c.2.1.2-.1.2-.1l-.3-.2Zm.2-1.2h-.2l-.7.6c-.1.1-.2.2.2.3h.4c.1,0,.1.1.1.1h-.1c-.1.1,0,.1.1.1s.5-.1.8,0,.2,0,.2-.1v-.2h.9c.1,0,.1.1.2.2h.3a.8.8,0,0,1,.7,0h0c-.1-.1,0-.1,0-.1s.8-.3.6-.4l-.7-.7h-.2a3.5,3.5,0,0,1-1.4.3,4,4,0,0,1-1.3-.3Z" fill="#fff"/><path d="M19.5,12.1c0,.1.4-.1.6-.4s-.6.3-.6.4Z" fill="#fff"/><path d="M19.6,12.2h-.1c0-.1.1-.2.2-.2l.4-.2a.8.8,0,0,1-.5.5Zm.5-.5-.4.3c-.1.1-.2.1-.2.2h0a.9.9,0,0,0,.5-.5Z" fill="#b06a1a"/><path d="M19.5,12.1c0,.1.4-.1.6-.4s-.6.3-.6.4Z" fill="#fff"/><path d="M19.6,12.2h-.1c0-.1.1-.2.2-.2l.4-.2a.8.8,0,0,1-.5.5Zm.5-.5-.4.3c-.1.1-.2.1-.2.2h0a.9.9,0,0,0,.5-.5Z" fill="#b06a1a"/><path d="M20.2,11.6c-.1.2-.3.3-.3.4v.3c.1,0,.1,0,.2-.2s.2-.3.2-.4Z" fill="#fff"/><path d="M19.8,12.3h0V12l.2-.3h.1a.3.3,0,0,1-.1.2V12c0,.2-.1.2-.2.3Zm.3-.7v.6h0c.1,0,.1,0,.1-.2v-.4Z" fill="#b06a1a"/><path d="M20.2,11.6c-.1.2-.3.3-.3.4v.3c.1,0,.1,0,.2-.2s.2-.3.2-.4Z" fill="#fff"/><path d="M19.8,12.3h0V12l.2-.3h.1a.3.3,0,0,1-.1.2V12c0,.2-.1.2-.2.3Zm.3-.7v.6h0c.1,0,.1,0,.1-.2v-.4Z" fill="#b06a1a"/><path d="M20.3,11.4a.3.3,0,0,0-.2.3.7.7,0,0,1-.1.4c.1,0,.2-.2.2-.4a.7.7,0,0,1,.1-.3Z" fill="#fff"/><path d="M20.1,12.1h0a.8.8,0,0,0,.1-.4.3.3,0,0,1,.2-.3h0v.2c0,.1,0,.4-.2.4Zm.3-.7a.3.3,0,0,0-.2.3.7.7,0,0,1-.1.4c.1,0,.1-.2.2-.4v-.2Z" fill="#b06a1a"/><path d="M20.3,11.4a.3.3,0,0,0-.2.3.7.7,0,0,1-.1.4c.1,0,.2-.2.2-.4a.7.7,0,0,1,.1-.3Z" fill="#fff"/><path d="M20.1,12.1h0a.8.8,0,0,0,.1-.4.3.3,0,0,1,.2-.3h0v.2c0,.1,0,.4-.2.4Zm.3-.7a.3.3,0,0,0-.2.3.7.7,0,0,1-.1.4c.1,0,.1-.2.2-.4v-.2Z" fill="#b06a1a"/><path d="M20.7,8c0,.1.1.1.1,0a.7.7,0,0,1,0-.3.9.9,0,0,0,0-.4h-.1a.6.6,0,0,1,0,.3,1,1,0,0,0,0,.4Z" fill="#fff"/><path d="M20.8,8.1h-.1a1,1,0,0,1,0-.4.5.5,0,0,0,0-.3.1.1,0,0,1,0-.1h.1a.9.9,0,0,1,0,.4.8.8,0,0,0,0,.3.1.1,0,0,1,0,.1Zm0-.8h0a.5.5,0,0,1,0,.3,1.1,1.1,0,0,0,0,.4h.1a.1.1,0,0,0,0-.1.7.7,0,0,1,0-.3.9.9,0,0,0,0-.4Z" fill="#b06a1a"/><path d="M20.7,8c0,.1.1.1.1,0a.7.7,0,0,1,0-.3.9.9,0,0,0,0-.4h-.1a.6.6,0,0,1,0,.3,1,1,0,0,0,0,.4Z" fill="#fff"/><path d="M20.8,8.1h-.1a1,1,0,0,1,0-.4.5.5,0,0,0,0-.3.1.1,0,0,1,0-.1h.1a.9.9,0,0,1,0,.4.8.8,0,0,0,0,.3.1.1,0,0,1,0,.1Zm0-.8h0a.5.5,0,0,1,0,.3,1.1,1.1,0,0,0,0,.4h.1a.1.1,0,0,0,0-.1.7.7,0,0,1,0-.3.9.9,0,0,0,0-.4Z" fill="#b06a1a"/><path d="M20.9,8.6c0,.1-.1.1-.1,0s.1-.3,0-.6a1.2,1.2,0,0,1,0-.5c0-.1.1,0,.1,0A1,1,0,0,0,21,8c.1.3-.1.4-.1.6Z" fill="#fff"/><path d="M20.9,8.7h0V8.4a.7.7,0,0,0,0-.4,1.3,1.3,0,0,1,0-.5H21A1,1,0,0,0,21,8a.6.6,0,0,1,0,.4h-.1Zm0-1.2h0a1.2,1.2,0,0,0,0,.4.7.7,0,0,1,0,.4v.2h.1V8.4A.6.6,0,0,0,21,8a.9.9,0,0,1,0-.4.1.1,0,0,0,0-.1Z" fill="#b06a1a"/><path d="M20.9,8.6c0,.1-.1.1-.1,0s.1-.3,0-.6a1.2,1.2,0,0,1,0-.5c0-.1.1,0,.1,0A1,1,0,0,0,21,8c.1.3-.1.4-.1.6Z" fill="#fff"/><path d="M20.9,8.7h0V8.4a.7.7,0,0,0,0-.4,1.3,1.3,0,0,1,0-.5H21A1,1,0,0,0,21,8a.6.6,0,0,1,0,.4h-.1Zm0-1.2h0a1.2,1.2,0,0,0,0,.4.7.7,0,0,1,0,.4v.2h.1V8.4A.6.6,0,0,0,21,8a.9.9,0,0,1,0-.4.1.1,0,0,0,0-.1Z" fill="#b06a1a"/><path d="M21.2,8.2h-.1a.3.3,0,0,0,0-.2.4.4,0,0,1,0-.2h.1a.3.3,0,0,0,0,.2.4.4,0,0,1,0,.2Z" fill="#fff"/><path d="M21.1,8.3h0s0,0,0-.1a.3.3,0,0,0,0-.2.4.4,0,0,1,0-.3h.1a.3.3,0,0,0,0,.2.4.4,0,0,1,0,.2Zm0-.5h0a.4.4,0,0,0,0,.2.3.3,0,0,1,0,.2.1.1,0,0,0,0,0h0a.5.5,0,0,0,0-.2.3.3,0,0,1,0-.2Z" fill="#b06a1a"/><path d="M21.2,8.2h-.1a.3.3,0,0,0,0-.2.4.4,0,0,1,0-.2h.1a.3.3,0,0,0,0,.2.4.4,0,0,1,0,.2Z" fill="#fff"/><path d="M21.1,8.3h0s0,0,0-.1a.3.3,0,0,0,0-.2.4.4,0,0,1,0-.3h.1a.3.3,0,0,0,0,.2.4.4,0,0,1,0,.2Zm0-.5h0a.4.4,0,0,0,0,.2.3.3,0,0,1,0,.2.1.1,0,0,0,0,0h0a.5.5,0,0,0,0-.2.3.3,0,0,1,0-.2Z" fill="#b06a1a"/><path d="M20.7,8.4c-.1.1-.2-.3-.1-.3s.3.3.1.3Z" fill="#fff"/><path d="M20.7,8.4l-.2-.2c0-.1,0-.1,0-.2h0l.2.2a.1.1,0,0,1,0,.1ZM20.6,8s0,.1,0,.1v.2h0a.1.1,0,0,0,0-.1L20.6,8Z" fill="#b06a1a"/><path d="M20.7,8.4c-.1.1-.2-.3-.1-.3s.3.3.1.3Z" fill="#fff"/><path d="M20.7,8.4l-.2-.2c0-.1,0-.1,0-.2h0l.2.2a.1.1,0,0,1,0,.1ZM20.6,8s0,.1,0,.1v.2h0a.1.1,0,0,0,0-.1L20.6,8Z" fill="#b06a1a"/><path d="M20.1,9c0,.1.1,0,.1-.1V8.6l-.2-.2c-.1-.1-.1,0-.1,0l.2.2c.1.1,0,.2.1.3Z" fill="#fff"/><path d="M20.2,9h-.1V8.7l-.2-.2h.1l.2.2h.1a.1.1,0,0,1,0,.1Zm-.3-.6s0,0,0,.1l.2.2v.2h.1a.1.1,0,0,0,0-.1h-.1l-.2-.2h-.1Z" fill="#b06a1a"/><path d="M20.1,9c0,.1.1,0,.1-.1V8.6l-.2-.2c-.1-.1-.1,0-.1,0l.2.2c.1.1,0,.2.1.3Z" fill="#fff"/><path d="M20.2,9h-.1V8.7l-.2-.2h.1l.2.2h.1a.1.1,0,0,1,0,.1Zm-.3-.6s0,0,0,.1l.2.2v.2h.1a.1.1,0,0,0,0-.1h-.1l-.2-.2h-.1Z" fill="#b06a1a"/><path d="M20,9.1c.1.1.2,0,.1-.1l-.2-.2V8.4c-.1-.1-.1,0-.1.1a.5.5,0,0,1,.1.3l.2.3Z" fill="#fff"/><path d="M20,9.1h-.1V8.8a.5.5,0,0,0-.1-.3h.1a.6.6,0,0,1,.1.3v.2h0Zm-.3-.7h0a.5.5,0,0,1,.1.3V9H20V8.4Z" fill="#b06a1a"/><path d="M20,9.1c.1.1.2,0,.1-.1l-.2-.2V8.4c-.1-.1-.1,0-.1.1a.5.5,0,0,1,.1.3l.2.3Z" fill="#fff"/><path d="M20,9.1h-.1V8.8a.5.5,0,0,0-.1-.3h.1a.6.6,0,0,1,.1.3v.2h0Zm-.3-.7h0a.5.5,0,0,1,.1.3V9H20V8.4Z" fill="#b06a1a"/><path d="M15.7,12.5a.9.9,0,0,1,.3.4,1.3,1.3,0,0,0,.2.4.6.6,0,0,1-.3-.4l-.2-.4Z" fill="#fff"/><path d="M15.7,12.5a.9.9,0,0,1,.3.4,1.3,1.3,0,0,0,.2.4.6.6,0,0,1-.3-.4l-.2-.4Z" fill="#fff"/><path d="M15.5,12.5a.7.7,0,0,1,.3.4l.2.4a.7.7,0,0,1-.3-.4l-.2-.4Z" fill="#fff"/><path d="M18.1,12.5a.7.7,0,0,0-.3.4l-.2.4a.7.7,0,0,0,.3-.4l.2-.4Z" fill="#fff"/><path d="M17.9,12.5a.9.9,0,0,0-.3.4,1.3,1.3,0,0,1-.2.4.6.6,0,0,0,.3-.4l.2-.4Z" fill="#fff"/><path d="M17.4,12.9h-.3a1,1,0,0,0,0,.1h.3Z" fill="#fff"/><path d="M16.8,12.9h0Z" fill="#fff"/><path d="M16.1,12.9h0Z" fill="#fff"/><path d="M16.7,12.9h-.2a1.1,1.1,0,0,0,0,.1h.2Z" fill="#fff"/><path d="M17.4,12.9h-.3a1,1,0,0,0,0,.1h.3Z" fill="#fff"/><path d="M16.8,12.9h0Z" fill="#fff"/><path d="M16.1,12.9h0Z" fill="#fff"/><path d="M16.7,12.9h-.2a1.1,1.1,0,0,0,0,.1h.2Z" fill="#fff"/><path d="M16.2,13.2c.1.1.1.2.2.2l-.2-.2Z" fill="#fff"/><path d="M16.3,13.2c.2.1.4.1.4.2s-.3-.1-.4-.2Z" fill="#fff"/><path d="M17.4,13.2c-.1.1-.1.2-.2.2l.2-.2Z" fill="#fff"/><path d="M17.2,13.2c-.2.1-.4.1-.4.2s.3-.1.4-.2Z" fill="#fff"/><g clip-path=""><path d="M17.8,11.2h.4a.6.6,0,0,0,.2.5h-.9a.5.5,0,0,0,.2-.5Z" fill="#fff"/></g><path d="M18.6,11.6h-.9a.6.6,0,0,0,.2-.5h.5a.6.6,0,0,0,.3.5Zm-.3-.5h-.4a.5.5,0,0,1-.2.5h.8a.6.6,0,0,1-.2-.4Z" fill="#b06a1a"/><path d="M17.8,11.2h.4a.6.6,0,0,0,.2.5h-.9a.5.5,0,0,0,.2-.5Z" fill="#fff"/><path d="M18.6,11.6h-.9a.6.6,0,0,0,.2-.5h.5a.6.6,0,0,0,.3.5Zm-.3-.5h-.4a.5.5,0,0,1-.2.5h.8a.6.6,0,0,1-.2-.4Z" fill="#b06a1a"/><path d="M18.2,13.3h-.1l-1.4.3-1.3-.3h-.2l-.6.6a.1.1,0,0,0,0,.1h0a4.6,4.6,0,0,0,2.1.4,4.8,4.8,0,0,0,2.1-.4H19a0,0,0,0,0,0,0h0l-.6-.6Zm0,0h.1l.6.6h0a4.9,4.9,0,0,1-2.1.4,4.4,4.4,0,0,1-2.1-.4,0,0,0,0,1,0-.1l.6-.6h.1a3.6,3.6,0,0,0,1.3.3l1.4-.3Z" fill="#b06a1a"/><path d="M15.2,5.2c0-.1.1-.1.1,0s.2.4.3.6a.4.4,0,0,1-.2.3H15a.2.2,0,0,1-.1-.2s.1.2.2.2a.3.3,0,0,0,.3-.2c0-.2-.3-.5-.3-.7Z" fill="#fff"/><path d="M15.7,5.7s.1.1,0,.1-.1-.1,0-.1Z" fill="#fff"/><path d="M15.7,5.5h0l.2-.2h0l-.2.2Z" fill="#fff"/><path d="M16.4,5h0Z" fill="#fff"/><path d="M16.7,5V4.8h.1l-.2.2Z" fill="#fff"/><path d="M16.5,5.1h.1s0-.2,0-.1Z" fill="#fff"/><path d="M16.1,5.4c-.1-.1,0-.1.1-.1s-.2.5-.4.7-.1-.1,0-.1l.4-.4a.1.1,0,0,0,0-.1Z" fill="#fff"/><path d="M16.9,5.1h.1a.1.1,0,0,1-.1.2l-.2.2H17c.1,0,.1.1,0,.1h-.3l-.2.2h0l.2-.2h-.2s0-.1,0-.1l.3-.2Z" fill="#fff"/><path d="M17.2,5.1h0Z" fill="#fff"/><path d="M17.5,5s.1.1,0,.1-.1-.1,0-.1Z" fill="#fff"/><path d="M17.4,5.2h0Z" fill="#fff"/><path d="M16.9,5.6c0,.1,0,.2.1.2l.3-.3h.1a.7.7,0,0,0,0,.4h.2a1.5,1.5,0,0,0,0-.4h.1c0,.1,0,.3,0,.4a.1.1,0,0,0,.2,0c0-.1.1-.2,0-.3h.1c0,.1,0,.2,0,.3a.2.2,0,0,1-.2.2h-.3c-.2,0-.1-.3-.1-.3s-.1.3-.2.3-.2-.2-.1-.3Z" fill="#fff"/><path d="M17.8,5.2c-.1-.1,0-.2.1-.1l.2.4s0-.2.1-.3h.1v.4l.2.4h-.1V6c0,.1-.1,0-.1,0V5.5l-.3-.3Z" fill="#fff"/><path d="M18,6.1s-.1.1.1.1a.3.3,0,0,0,.4-.2V5.5c0-.1.1-.1.1-.2h-.1l-.2.6c-.1.1-.2.2-.4.2Z" fill="#fff"/><path d="M18.3,5.4h0Z" fill="#fff"/><path d="M18.3,5.3h0Z" fill="#fff"/><path d="M18.8,5.4h.1l-.3.7h0l.3-.7Z" fill="#fff"/><path d="M18.4,6.2s-.1-.1-.1,0,.3.1.4.1,0,.2.1.3H19l.4-.6c.1-.1,0-.1-.1-.1s-.3.6-.4.7-.1-.1-.1-.2h-.4Z" fill="#fff"/><path d="M18.9,5.8h0c.1-.1,0,0,0-.1Z" fill="#fff"/><path d="M18.8,6s0,.1,0,.1H19s0,0,0,0Z" fill="#fff"/><path d="M19.7,6c.1-.2.2,0,.1.2s-.2.5-.5.6h.1a1.4,1.4,0,0,0,.4-.6Z" fill="#fff"/><path d="M15.2,5.2c0-.1.1-.1.1,0s.2.4.3.6a.4.4,0,0,1-.2.3H15a.2.2,0,0,1-.1-.2s.1.2.2.2a.3.3,0,0,0,.3-.2c0-.2-.3-.5-.3-.7Z" fill="#fff"/><path d="M15.5,5.1h0s0-.1,0-.1Zm-.3.6c-.1,0,0,.1.1.1s.4-.2.4-.4V5.2h.4a.3.3,0,0,0,0-.2h-.3c-.1-.1-.1-.2-.1,0h-.1c-.1,0,0-.2-.2-.1s-.1.1-.1.2h.2c0,.1-.2.3-.4.4Z" fill="#fff"/><path d="M14,6.4h0Z" fill="#fff"/><path d="M14.1,6.7s-.1,0,0,.1h.2c0-.1,0-.3,0-.3l.2.2c.1,0,.1-.2.3-.2s.1-.1.1-.2l-.2-.2c-.1-.1-.1.1-.1.1l.2.2h-.1l-.2-.2s-.1,0,0,.1l.2.2v.2l-.2-.2h-.1a1.2,1.2,0,0,0,0,.3Z" fill="#fff"/><path d="M13.9,6.2H14V6.1h-.2c0,.1.1.1.1.1Z" fill="#fff"/><path d="M14.1,5.8h0Z" fill="#fff"/><path d="M14.2,6h.1s.2,0,.1-.1h-.2Z" fill="#fff"/><path d="M14.5,5.5h0Z" fill="#fff"/><path d="M14.6,5.4c0-.1.1-.1.1,0l.3.5c0,.1,0,.1-.1.1l-.4-.6Z" fill="#fff"/><path d="M14.9,5.5c.1-.1.1-.2.1-.2H15c-.1.1,0,.1,0,.1h-.1Z" fill="#fff"/><path d="M14,6.4h0Z" fill="#fff"/><path d="M14.1,6.7s-.1,0,0,.1h.2c0-.1,0-.3,0-.3l.2.2c.1,0,.1-.2.3-.2s.1-.1.1-.2l-.2-.2c-.1-.1-.1.1-.1.1l.2.2h-.1l-.2-.2s-.1,0,0,.1l.2.2v.2l-.2-.2h-.1a1.2,1.2,0,0,0,0,.3Z" fill="#fff"/><path d="M13.9,6.2H14V6.1h-.2c0,.1.1.1.1.1Z" fill="#fff"/><path d="M14.1,5.8h0Z" fill="#fff"/><path d="M14.2,6h.1s.2,0,.1-.1h-.2Z" fill="#fff"/><path d="M14.5,5.5h0Z" fill="#fff"/><path d="M14.6,5.4c0-.1.1-.1.1,0l.3.5c0,.1,0,.1-.1.1l-.4-.6Z" fill="#fff"/><path d="M14.9,5.5c.1-.1.1-.2.1-.2H15c-.1.1,0,.1,0,.1h-.1Z" fill="#fff"/><path d="M18.4,6.2s-.1-.1-.1,0,.3.1.4.1,0,.2.1.3H19l.4-.6c.1-.1,0-.1-.1-.1s-.3.6-.4.7-.1-.1-.1-.2h-.4Z" fill="#fff"/><path d="M15.7,5.7s.1.1,0,.1-.1-.1,0-.1Z" fill="#fff"/><path d="M19.1,5.6s0-.2.1-.1a2.5,2.5,0,0,1,.2,1h-.1a1.7,1.7,0,0,0-.2-.9Z" fill="#fff"/><path d="M15.7,5.5h0l.2-.2h0l-.2.2Z" fill="#fff"/><path d="M19.1,5.6s0-.2.1-.1a2.5,2.5,0,0,1,.2,1h-.1a1.7,1.7,0,0,0-.2-.9Z" fill="#fff"/><path d="M19.2,6.5l.4-.7c0-.1.1.1,0,.2l-.3.6Z" fill="#fff"/><path d="M16.9,5.1h.1a.1.1,0,0,1-.1.2l-.2.2H17c.1,0,.1.1,0,.1h-.3l-.2.2h0l.2-.2h-.2s0-.1,0-.1l.3-.2Z" fill="#fff"/><path d="M16.1,5.4c-.1-.1,0-.1.1-.1s-.2.5-.4.7-.1-.1,0-.1l.4-.4a.1.1,0,0,0,0-.1Z" fill="#fff"/><path d="M16.2,5.2c0-.1.1-.1.1-.1a2.4,2.4,0,0,0,.4.8c0,.1,0,.1-.1,0l-.2-.2c-.1,0-.2.3-.5.2s-.1-.2-.1-.3h0c0,.1,0,.3.1.3l.3-.2c0-.1-.1-.3-.2-.4Z" fill="#fff"/><path d="M15.5,5.1h0s0-.1,0-.1Zm-.3.6c-.1,0,0,.1.1.1s.4-.2.4-.4V5.2h.4a.3.3,0,0,0,0-.2h-.3c-.1-.1-.1-.2-.1,0h-.1c-.1,0,0-.2-.2-.1s-.1.1-.1.2h.2c0,.1-.2.3-.4.4Z" fill="#fff"/><path d="M16.2,5.2c0-.1.1-.1.1-.1a2.4,2.4,0,0,0,.4.8c0,.1,0,.1-.1,0l-.2-.2c-.1,0-.2.3-.5.2s-.1-.2-.1-.3h0c0,.1,0,.3.1.3l.3-.2c0-.1-.1-.3-.2-.4Z" fill="#fff"/><path d="M16.4,5h0Z" fill="#fff"/><path d="M16.7,5V4.8h.1l-.2.2Z" fill="#fff"/><path d="M16.5,5.1h.1s0-.2,0-.1Z" fill="#fff"/><path d="M17.2,5.1h0Z" fill="#fff"/><path d="M17.5,5s.1.1,0,.1-.1-.1,0-.1Z" fill="#fff"/><path d="M17.4,5.2h0Z" fill="#fff"/><path d="M16.9,5.6c0,.1,0,.2.1.2l.3-.3h.1a.7.7,0,0,0,0,.4h.2a1.5,1.5,0,0,0,0-.4h.1c0,.1,0,.3,0,.4a.1.1,0,0,0,.2,0c0-.1.1-.2,0-.3h.1c0,.1,0,.2,0,.3a.2.2,0,0,1-.2.2h-.3c-.2,0-.1-.3-.1-.3s-.1.3-.2.3-.2-.2-.1-.3Z" fill="#fff"/><path d="M17.8,5.2c-.1-.1,0-.2.1-.1l.2.4s0-.2.1-.3h.1v.4l.2.4h-.1V6c0,.1-.1,0-.1,0V5.5l-.3-.3Z" fill="#fff"/><path d="M18,6.1s-.1.1.1.1a.3.3,0,0,0,.4-.2V5.5c0-.1.1-.1.1-.2h-.1l-.2.6c-.1.1-.2.2-.4.2Z" fill="#fff"/><path d="M18.3,5.4h0Z" fill="#fff"/><path d="M18.3,5.3h0Z" fill="#fff"/><path d="M18.8,5.4h.1l-.3.7h0l.3-.7Z" fill="#fff"/><path d="M18.9,5.8h0c.1-.1,0,0,0-.1Z" fill="#fff"/><path d="M19.2,6.5l.4-.7c0-.1.1.1,0,.2l-.3.6Z" fill="#fff"/><path d="M18.8,6s0,.1,0,.1H19s0,0,0,0Z" fill="#fff"/><path d="M19.2,6.5l.4-.7c0-.1.1.1,0,.2l-.3.6Z" fill="#fff"/><path d="M19.7,6c.1-.2.2,0,.1.2s-.2.5-.5.6h.1a1.4,1.4,0,0,0,.4-.6Z" fill="#fff"/><path d="M19.7,6c.1-.2.2,0,.1.2s-.2.5-.5.6h.1a1.4,1.4,0,0,0,.4-.6Z" fill="#fff"/><path d="M16.6,6.7h-.1c0,.1,0,.1,0,.2h-.1c0-.1.1-.2,0-.2s-.1,0,0-.1h.1Z" fill="#fff"/><path d="M16.6,6.6l-.2.2h0l.2-.2s.1,0,0,.1Z" fill="#fff"/><path d="M16.9,6.8a.1.1,0,0,0,0,.1h.1s0,.2.1.1h.2a.1.1,0,0,0,0-.1h-.1s0-.1,0-.1h0s0,.1,0,.1h-.2Z" fill="#fff"/><path d="M17.4,6.7h.1a.9.9,0,0,0,0,.2h0c0-.1,0-.1,0-.2s0-.1,0-.1Z" fill="#fff"/><path d="M17.1,6.5h0a.4.4,0,0,0,0-.1Z" fill="#fff"/><path d="M16.9,6.8a.1.1,0,0,0,0,.1h.1s0,.2.1.1h.2a.1.1,0,0,0,0-.1h-.1s0-.1,0-.1h0s0,.1,0,.1h-.2Z" fill="#fff"/><path d="M17.4,6.7h.1a.9.9,0,0,0,0,.2h0c0-.1,0-.1,0-.2s0-.1,0-.1Z" fill="#fff"/><path d="M17.1,6.5h0a.4.4,0,0,0,0-.1Z" fill="#fff"/><path d="M16.6,6.6l-.2.2h0l.2-.2s.1,0,0,.1Z" fill="#fff"/><path d="M16.6,6.7h-.1c0,.1,0,.1,0,.2h-.1c0-.1.1-.2,0-.2s-.1,0,0-.1h.1Z" fill="#fff"/><path d="M21.5,9.9h.1V9.7h-.1v.3Z" fill="#fff"/><path d="M21.6,10h-.1V9.7h.1V10Zm.1-.3v.3h0V9.7Z" fill="#b06a1a"/><path d="M16.3,12.6h0Z" fill="#fff"/><path d="M16.7,12.3h0Z" fill="#fff"/><path d="M17,12.6h0Zm-.1-.2h0Z" fill="#fff"/><path d="M17.4,12.6h-.1v0h.2Z" fill="#fff"/><path d="M18.3,13.8h0Zm-.5-.3h0Zm.4.4h-.1v.2Zm-.3-.2h-.1s0,0,0,0H18Zm-.4-.1h0Zm.4.4h0Zm-.4.1h0Zm-.4-.4h0Zm.1.4h0Zm-.3,0h0Zm-.6-.4h0Zm-.1.4h0Zm-.3-.1h0Zm-.2-.4h0Zm-.1.3h-.6a.1.1,0,0,1,0-.1h.1s0,0,0,.1h.5Z" fill="#ae0018"/><path d="M16.8,6v.3l-.2-.3v.3l-.2-.2v.2l-.4-.2.2.3h-.3l.2.2-.5-.2.5.2h1.4l.5-.2-.5.2.2-.2h-.3l.2-.3-.4.2V6.2l-.2.2V6.1l-.2.3V6Z" fill="#fff"/></g></g></g></svg>