<svg xmlns="http://www.w3.org/2000/svg" xmlns:xlink="http://www.w3.org/1999/xlink" viewBox="0 0 33.6 19.6"><defs><clipPath id="a" transform="translate(-408.4 -370.5)"><rect x="408.4" y="370.5" width="33.6" height="19.58" fill="none"/></clipPath></defs><title>AND</title><g clip-path=""><rect x="23.1" width="10.5" height="19.58" fill="#d90037"/><rect x="10.5" width="12.6" height="19.58" fill="#eee528"/><rect width="10.5" height="19.58" fill="#221e88"/><g clip-path=""><path d="M425.6,376.3c-.1,0-.1-.1,0-.1h0c-.1,0-.1.1,0,.1Z" transform="translate(-408.4 -370.5)" fill="#272425"/><path d="M421.5,381.6h0Z" transform="translate(-408.4 -370.5)" fill="#dbc190"/><path d="M424.1,374.8c.4,0,.6.3,1,.3a1.1,1.1,0,0,0,.6-.2h.5c.2,0,.3,0,.4.2s.1.3,0,.4a.6.6,0,0,1-.1.4c0,.1-.1.1-.1.2s.3.3.5.3a1.2,1.2,0,0,0,.7-.2c-.2,0-.3-.1-.3-.2s.1-.3.2-.3h.1c.1,0,.1,0,.1-.1h.2a.1.1,0,0,1,.1.1h.3a.1.1,0,0,1,.1.1h.2l.3.2h.4c.1.1.2.2.2.3h0a5.5,5.5,0,0,1-.6.8.5.5,0,0,0-.2.4h.1c-.1-.1,0-.2.1-.2a.2.2,0,0,1,.2.2h.2c0-.1,0-.1.1-.1l.5.3a1.4,1.4,0,0,1,.4.9c-.1.2-.1.7-.8.9s.3.2.3.3a.3.3,0,0,1-.3.3h-.2c-.1.2-.2.3-.2.5s.1.2.1.3l.2.3h.4c.1,0,0,0,.1.1h0v.2c.1,0,.1,0,.1.1h0a.3.3,0,0,1-.3.3h-.1l.2.2c.1.2.2.3.2.5h0a1.5,1.5,0,0,1-.1.6l-.4.4-.9.4h-1.3a1.7,1.7,0,0,0-1,.3c.2.1.3.2.3.4s-.1.2-.3.3h-.1a.1.1,0,0,1-.1.1h-.2l-.3-.2-.3.3H425c-.1-.1-.2-.2-.2-.3s-.2.2-.4.2H424a.5.5,0,0,1-.2-.4c0-.1,0-.2.2-.3a1,1,0,0,0-.9-.3h-1.4l-.4-.2a1.5,1.5,0,0,1-1-1.2h0a.8.8,0,0,1,.4-.7h-.2c-.1-.1-.2-.2-.2-.3v-.2h.1v-.2h.1a.2.2,0,0,1,.2-.2h.2c.1,0,.1-.1.1-.2a.5.5,0,0,0,.2-.4.4.4,0,0,0-.1-.3c0-.1,0-.1-.1-.2h-.2c-.1,0-.2-.2-.2-.3a.4.4,0,0,1,.1-.3h-.2c-.2-.1-.2-.2-.3-.3a.4.4,0,0,1-.1-.3c0-.1-.1-.2-.1-.3h0c.1-.2.1-.4.3-.6l.3-.3h.6l.2-.2c.1,0,.1.1.2.2v-.2c0-.1-.1-.2-.2-.4s-.6-.4-.6-.8.1-.2.2-.3h.5l.2-.2c.1,0,.1,0,.1.1h.1a.1.1,0,0,1,.1-.1h.6a.1.1,0,0,0,.1.1h.1c.1.1.2.1.2.3s0,.1-.1.2h-.1c.2.2.3.2.6.2s.5-.1.5-.3a.3.3,0,0,0-.1-.2.9.9,0,0,1-.1-.5.6.6,0,0,1,.1-.4Z" transform="translate(-408.4 -370.5)" fill="#dbc190"/><path d="M421.2,378.3h0Z" transform="translate(-408.4 -370.5)" fill="#272425"/><path d="M425.4,385.3q-.3-.2-.3-.3h0l.3-.3h.2l.5-.2h2.1l.8-.2a.7.7,0,0,0,.3-.9v-.2h-.1c0-.1-.1-.1-.1-.2s-.3,0-.3.1-.1.1-.1.2h0c0-.1,0-.2.1-.2s.2-.1.3-.1a.1.1,0,0,0,.1.1h.1c0,.1,0,.1.1.2a.9.9,0,0,1-.4.9,1.1,1.1,0,0,1-.8.2h-2.1l-.5.2h-.2l-.2.3h0c0,.1,0,.2.2.3Z" transform="translate(-408.4 -370.5)" fill="#dbc190"/><path d="M426.2,385.3H426c.1,0,.1.1.2,0h.1a.1.1,0,0,1-.1.1Z" transform="translate(-408.4 -370.5)" fill="#4b2508"/><path d="M421.2,383.7a.7.7,0,0,1-.2-.8h0a.1.1,0,0,1,.1-.1h.1c.2-.1.3-.1.4,0v.2h0a.3.3,0,0,0-.1-.2.1.1,0,0,0-.2,0H421a1,1,0,0,0,.2.8Z" transform="translate(-408.4 -370.5)" fill="#4b2508"/><path d="M426.2,385.3l-.2-.2h.3a.1.1,0,0,0-.1-.1h0Z" transform="translate(-408.4 -370.5)" fill="#4b2508"/><path d="M424.7,376.3c.1,0,.1-.1,0-.1h.1a.1.1,0,0,1-.1.1Z" transform="translate(-408.4 -370.5)" fill="#4b2508"/><path d="M422.6,376h.4v-.2h-.1l-.3.3Z" transform="translate(-408.4 -370.5)" fill="#272425"/><path d="M422.8,376.1h-.2l.3-.3a.1.1,0,0,1,.1.1v.2Zm.1-.4-.3.3h.2a.1.1,0,0,0,.1-.1c.1,0,.1-.1.1-.2Z" transform="translate(-408.4 -370.5)" fill="#4b2508"/><polygon points="14.5 5.1 14.5 5.2 14.6 5.2 14.6 5.3 14.6 5.3 14.6 5.4 14.6 5.4 14.6 5.5 14.6 5.5 14.5 5.5 14.5 5.6 14.4 5.6 14.4 5.6 14.3 5.5 14.3 5.5 14.2 5.5 14.2 5.4 14.2 5.4 14.5 5.1" fill="#dbc190"/><path d="M423.8,376.5h0a1.1,1.1,0,0,0,.7-.3,1.1,1.1,0,0,1-.7.3Z" transform="translate(-408.4 -370.5)" fill="#4b2508"/><path d="M423.8,376.5h0l.7-.3a1.1,1.1,0,0,1-.7.3Z" transform="translate(-408.4 -370.5)" fill="#4b2508"/><path d="M425.2,385.8a.9.9,0,0,1-.5-.3l.5.3c.1-.1.3-.2.3-.3h.1l-.4.3Z" transform="translate(-408.4 -370.5)" fill="#4b2508"/><path d="M428.3,376.3l.2-.3a.6.6,0,0,0-.1-.4.2.2,0,0,0-.3,0h0c.1-.1.2,0,.3.1a.6.6,0,0,1,.1.4c0,.1-.1.2-.2.3Z" transform="translate(-408.4 -370.5)" fill="#4b2508"/><path d="M428.6,376.5a.5.5,0,0,0,.3-.5.4.4,0,0,0-.1-.3c-.1-.1-.2-.2-.4-.1h0c.2-.1.4-.1.5.1s.1.2.1.3-.2.4-.4.5Z" transform="translate(-408.4 -370.5)" fill="#4b2508"/><path d="M428.8,378h-.1a.5.5,0,0,1-.3-.5c0-.3.3-.5.5-.7s.1-.1.1-.2h0c.1-.2.2-.3.2-.5a.3.3,0,0,0-.3-.3h0c.2.1.3.2.3.4a.7.7,0,0,1-.1.5H429v.2a1,1,0,0,0-.4.7c0,.2,0,.4.2.4s.2,0,.3,0v-.2h-.1c-.1-.1-.1,0-.1,0h0a.1.1,0,0,0,.1.1c-.1,0-.1,0-.1-.1s-.1-.1,0-.1a.1.1,0,0,1,.1-.1c.1,0,.1.1.2.2s0,.2-.1.2Z" transform="translate(-408.4 -370.5)" fill="#4b2508"/><path d="M428.8,377.8c-.1,0-.1-.2-.2-.3s.3-.4.5-.6h.1a.6.6,0,0,0,.2-.5c0-.2-.1-.3-.2-.3h0a.3.3,0,0,1,.3.3c0,.2-.1.3-.3.5h-.1c-.2.2-.4.4-.4.6s.1.2.1.3Z" transform="translate(-408.4 -370.5)" fill="#4b2508"/><path d="M429.4,379.9h-.1l-.3-.2c0-.1-.1-.2-.1-.3l.2-.2h.2v.2c0,.1,0,.2-.1.2h-.2a.1.1,0,0,1,.1-.1h.1a.1.1,0,0,0,.1-.1h-.3v.5h.9a1.1,1.1,0,0,0,.3-1.1.8.8,0,0,0-.4-.7.6.6,0,0,0-.8,0,.8.8,0,0,0-.1.4c.1.1.1.2.3.2h.2a.4.4,0,0,0-.1-.3h-.2s-.1-.1,0-.1h.1c0-.1.1,0,.1,0s.1.2.1.3-.1.1-.2.1-.3,0-.3-.1-.1-.3.1-.5.6-.2.9,0a.9.9,0,0,1,.3.7,1,1,0,0,1-.3,1.1l-.5.2Z" transform="translate(-408.4 -370.5)" fill="#4b2508"/><path d="M429.4,379.6h-.2a.1.1,0,0,0-.1-.1h.3c.4,0,.6-.3.6-.8s-.2-.8-.6-.8-.3,0-.3.2h0a.3.3,0,0,1,.3-.3.9.9,0,0,1,.6.9c0,.5-.2.8-.6.8Z" transform="translate(-408.4 -370.5)" fill="#4b2508"/><path d="M429.3,379.6a.8.8,0,0,0,.5-.8.7.7,0,0,0-.5-.7h0c.3,0,.5.3.5.7a.8.8,0,0,1-.5.8Z" transform="translate(-408.4 -370.5)" fill="#4b2508"/><path d="M429.7,382.1h-.1c-.1,0-.2,0-.2-.1s-.3-.1-.3-.2a.9.9,0,0,1-.4-.6v-.6c.1-.4.4-.8.7-.8h.3v.2c0,.1-.1.1-.2.1h-.2a.1.1,0,0,1,0-.2.1.1,0,1,1,.2,0h-.1a.1.1,0,0,0-.1.1v.2h.4V380h-.3c-.3,0-.5.3-.6.7a1.1,1.1,0,0,0,0,.6.9.9,0,0,0,.3.6l.3.2h.6v-.2l-.2-.2h0c-.1.1-.1.1-.2,0h.4v.3c0,.1-.1.1-.2.1Z" transform="translate(-408.4 -370.5)" fill="#4b2508"/><path d="M429.7,382a.1.1,0,0,1-.1-.1h-.1a2.3,2.3,0,0,1-.5-.5c0-.1,0-.2-.1-.2v-.6a1.3,1.3,0,0,1,.3-.5h.2l-.2.2a.5.5,0,0,0-.2.4.8.8,0,0,0-.1.4h.1a.4.4,0,0,0,.1.3,1.1,1.1,0,0,0,.4.5h.2Z" transform="translate(-408.4 -370.5)" fill="#4b2508"/><path d="M429.6,381.8c-.1,0-.1-.1-.1-.2a.2.2,0,1,1,.4,0h0a.2.2,0,1,0-.4,0v.2Z" transform="translate(-408.4 -370.5)" fill="#4b2508"/><path d="M429.5,381.6c-.1,0-.1,0-.1-.1a.2.2,0,0,1,.4,0h0a.2.2,0,0,0-.2-.2c-.1,0-.1.1-.1.2Z" transform="translate(-408.4 -370.5)" fill="#4b2508"/><path d="M429.4,381.5a1.5,1.5,0,0,1-.3-.7,1.1,1.1,0,0,1,.2-.6,1.4,1.4,0,0,0-.2.6.7.7,0,0,0,.4.6Z" transform="translate(-408.4 -370.5)" fill="#4b2508"/><path d="M429.5,381.7l-.4-.3h.1a.5.5,0,0,0,.3.4Z" transform="translate(-408.4 -370.5)" fill="#4b2508"/><path d="M426.3,384.8c.3-.4.8-.4,1.4-.4l1.3-.2c.6-.3.8-.6.8-.7a1.1,1.1,0,0,0,.1-.5v-.3c-.1-.3-.2-.5-.5-.6s-.3-.2-.5-.1h-.3l.3-.2h.5a1.3,1.3,0,0,1,.5.6c.1.1.1.2.1.4s-.1.4-.1.5a1.8,1.8,0,0,1-.9.7,2.7,2.7,0,0,1-1.3.2c-.6.1-1.1.1-1.4.4Z" transform="translate(-408.4 -370.5)" fill="#4b2508"/><path d="M428.8,383h-.3a.6.6,0,0,1-.1-.6c0-.1.1-.1.2-.2a.7.7,0,0,1,.8.1h0c-.1,0-.5-.2-.8-.1l-.2.3a.4.4,0,0,0,.1.5h.3a.2.2,0,0,0,.2-.2.3.3,0,0,0-.1-.2h-.2a.1.1,0,0,0,.1.1.1.1,0,0,1-.1-.1h.2s.2.1.1.2,0,.2-.2.2Z" transform="translate(-408.4 -370.5)" fill="#4b2508"/><path d="M425.4,385.3a.3.3,0,0,1-.3-.3h0l.3-.3h.2l.5-.2h2.1a1.5,1.5,0,0,0,.8-.2.7.7,0,0,0,.3-.9v-.2h-.2a.2.2,0,0,0-.3,0c-.1.1-.1.1-.1.2h0c0-.1,0-.2.1-.2s.2-.1.3-.1h.2c0,.1.1.1.1.2a.8.8,0,0,1-.4.9,1.5,1.5,0,0,1-.8.2h-2.1l-.5.2h-.2l-.2.3h0c0,.1.1.2.2.3Z" transform="translate(-408.4 -370.5)" fill="#4b2508"/><path d="M426.2,385.5h-.3l-.2-.3c0-.5.9-.7.9-.7l1-.2h1a.9.9,0,0,0,.7-.3l.3-.4a1.2,1.2,0,0,0-.1-.8.5.5,0,0,0-.5-.3.4.4,0,0,0-.5.2v.3c0,.1.1.2.3.2h0a.2.2,0,0,0,.2-.2.3.3,0,0,0-.1-.2h-.2a.1.1,0,0,0,.1.1.1.1,0,0,1-.1-.1h.2s.2.1.1.2,0,.2-.2.2h-.3a.3.3,0,0,1,0-.4.5.5,0,0,1,.5-.3,1,1,0,0,1,.5.4.8.8,0,0,1,.1.8l-.3.4-.7.4h-2c-.3.1-.8.3-.8.7a.4.4,0,0,0,.1.3h.3a.2.2,0,0,0,.2-.2c.1,0,.1-.1.1-.2h0l-.3-.2h-.1c-.1,0-.1.1-.1.2h.3v.2H426c0-.1,0-.2.1-.2h.1c.2,0,.3.1.3.2h0c.1.1,0,.2,0,.3Z" transform="translate(-408.4 -370.5)" fill="#4b2508"/><path d="M425.9,385.6h-.3a.5.5,0,0,1-.2-.4.4.4,0,0,1,.1-.3.9.9,0,0,1,.6-.4h0a1,1,0,0,0-.6.5.3.3,0,0,0-.1.2.5.5,0,0,0,.2.4h.6c0,.1-.1.1-.2.1Z" transform="translate(-408.4 -370.5)" fill="#4b2508"/><path d="M429.1,378.8h-.2a.7.7,0,0,1-.5-.6l.2-.3h0a.4.4,0,0,0-.1.3.5.5,0,0,0,.4.5c.2.1.3.1.4,0Z" transform="translate(-408.4 -370.5)" fill="#4b2508"/><path d="M428.7,380.3c-.1-.1-.3-.2-.3-.4a.5.5,0,0,1,.3-.5h0c-.1,0-.2.2-.2.4a.5.5,0,0,0,.2.4Z" transform="translate(-408.4 -370.5)" fill="#4b2508"/><path d="M428.7,381.6a.9.9,0,0,1-.3-.7c0-.4.2-.5.4-.8h0a1.3,1.3,0,0,0-.3.8.8.8,0,0,0,.2.7Z" transform="translate(-408.4 -370.5)" fill="#4b2508"/><path d="M427.9,376.3c.1-.1.2-.2.2-.3a.4.4,0,0,0-.1-.5h-.2a.1.1,0,0,0-.1.1h-.1l.2-.2c.1,0,.2,0,.2.1s.2.3.2.5-.1.2-.3.3Z" transform="translate(-408.4 -370.5)" fill="#4b2508"/><path d="M423.5,376.5a1.1,1.1,0,0,1-.8-.2c-.2-.1-.4-.3-.3-.5a.2.2,0,0,1,.2-.2h.3a.1.1,0,0,1,.1.1c0,.1,0,.2-.1.2s-.1.1-.2.1h-.1v-.2h0c0,.1.1.1.1.2s.2,0,.2-.1.1-.2,0-.2h-.3l-.2.2c-.1.2.1.4.3.5a1.1,1.1,0,0,0,.8.2,2.4,2.4,0,0,0,1-.3h.2c.1,0,.1.1,0,.1h-.2a2.4,2.4,0,0,1-1,.3Z" transform="translate(-408.4 -370.5)" fill="#4b2508"/><path d="M422,376.3c-.1-.1-.2-.2-.2-.3a.6.6,0,0,1,.1-.4h.3a.2.2,0,0,0-.3,0,.6.6,0,0,0-.1.4l.2.3Z" transform="translate(-408.4 -370.5)" fill="#4b2508"/><path d="M421.7,376.5a.7.7,0,0,1-.4-.5c0-.1.1-.2.1-.3s.3-.2.5-.1h0c-.2-.1-.3-.1-.4.1a.4.4,0,0,0-.1.3.5.5,0,0,0,.3.5Z" transform="translate(-408.4 -370.5)" fill="#4b2508"/><path d="M421.5,378h-.2c-.1,0-.1-.1-.1-.2l.2-.2c.1,0,.1,0,.1.1s.1.1,0,.1,0,.1-.1.1a.1.1,0,0,0,.1-.1h0s0-.1-.1,0h-.1v.2c.1,0,.2.1.3,0s.2-.2.2-.4a1,1,0,0,0-.4-.7c0-.1-.1-.1-.1-.2s-.2-.2-.2-.5.1-.3.3-.4h0a.3.3,0,0,0-.3.3c0,.2.1.3.2.5s.1.1.1.2.5.4.5.7a.5.5,0,0,1-.3.5Z" transform="translate(-408.4 -370.5)" fill="#4b2508"/><path d="M421.5,377.8h0c.1,0,.1-.1.1-.2s-.2-.4-.4-.6h-.1c-.2-.2-.3-.3-.3-.5a.3.3,0,0,1,.3-.3h0c-.1,0-.2.1-.2.3s0,.2.2.4.1.1.1.2.4.4.4.6a.4.4,0,0,1-.1.3Z" transform="translate(-408.4 -370.5)" fill="#4b2508"/><path d="M420.9,379.9l-.5-.3h-.2c0-.2-.1-.3-.1-.5v-.2c0-.1.1-.2.1-.3s.3-.6.4-.6a.5.5,0,0,1,.8,0c.2.1.2.3.1.5s-.1.2-.2.1-.3,0-.3-.1,0-.3.1-.3.1-.1.1,0h.1c.1,0,0,.1,0,.1H421a.4.4,0,0,0-.1.3h.3s.1,0,.2-.2,0-.3-.1-.4a.6.6,0,0,0-.8,0,1.5,1.5,0,0,0-.4.6v.5a.5.5,0,0,0,.2.4h.1a.7.7,0,0,0,.6.2h.3v-.5H421v.2a.1.1,0,0,0,.1.1h.1a.1.1,0,0,1,.1.1H421c0-.1-.1-.1-.1-.2v-.2h.2a.2.2,0,0,1,.2.2.4.4,0,0,1-.1.3l-.3.2Z" transform="translate(-408.4 -370.5)" fill="#4b2508"/><path d="M420.6,382.2h-.1c-.1,0-.2,0-.2-.1v-.3h.4c-.1.1-.1.1-.2,0h0l-.2.2v.2h.6l.3-.2a.9.9,0,0,0,.3-.6,1.1,1.1,0,0,0,0-.6c-.1-.4-.3-.7-.6-.7h-.3v.2h.4v-.2a.1.1,0,0,0-.1-.1h-.1a.1.1,0,1,1,.2,0,.1.1,0,0,1,0,.2h-.2c-.1,0-.2,0-.2-.1V380h.3c.3,0,.6.4.7.8v.6l-.3.6a.5.5,0,0,1-.4.2c0,.1-.1.1-.2.1Z" transform="translate(-408.4 -370.5)" fill="#4b2508"/><path d="M420.6,382h.2a2.3,2.3,0,0,0,.5-.5v-.3a.1.1,0,0,0,.1-.1.8.8,0,0,0-.1-.4.5.5,0,0,0-.2-.4.2.2,0,0,0-.2-.2h.2a1.3,1.3,0,0,1,.3.5v.6c-.1,0-.1.1-.1.2a1.2,1.2,0,0,1-.5.5h-.1c0,.1,0,.1-.1.1Z" transform="translate(-408.4 -370.5)" fill="#4b2508"/><path d="M420.7,381.8v-.2a.2.2,0,1,0-.4,0h0a.2.2,0,1,1,.4,0c0,.1,0,.2-.1.2Z" transform="translate(-408.4 -370.5)" fill="#4b2508"/><path d="M420.8,381.6h.1a.2.2,0,1,0-.4,0h0a.2.2,0,1,1,.4,0c0,.1,0,.1-.1.1Z" transform="translate(-408.4 -370.5)" fill="#4b2508"/><path d="M420.9,381.5h0a.9.9,0,0,0,.3-.6c0-.2-.1-.5-.2-.5s.2.3.2.5a1.5,1.5,0,0,1-.3.7Z" transform="translate(-408.4 -370.5)" fill="#4b2508"/><path d="M420.8,381.7a.5.5,0,0,0,.3-.4h.1l-.4.3Z" transform="translate(-408.4 -370.5)" fill="#4b2508"/><path d="M424,384.8a2,2,0,0,0-1.4-.4,2.7,2.7,0,0,1-1.3-.2c-.6-.2-.8-.6-.8-.7a1.4,1.4,0,0,1-.2-.6.4.4,0,0,1,.1-.3,1,1,0,0,1,.5-.6h.5l.3.2h0l-.3-.2h-.5a1.3,1.3,0,0,0-.5.6v.3c0,.2,0,.5.1.5s.2.5.8.8l1.4.2c.5,0,1,0,1.3.4Z" transform="translate(-408.4 -370.5)" fill="#4b2508"/><path d="M421.5,383a.2.2,0,0,1-.2-.2.3.3,0,0,1,.1-.2h0a.3.3,0,0,0-.1.2s0,.2.3.2h.2a.4.4,0,0,0,.1-.5l-.2-.3c-.3-.1-.7.1-.8.1h0a.7.7,0,0,1,.8-.1c.1.1.2.1.2.2a.6.6,0,0,1-.1.6h-.3Z" transform="translate(-408.4 -370.5)" fill="#4b2508"/><path d="M424.9,385.3c.2-.1.2-.2.2-.3h0l-.2-.3h-.2l-.5-.2h-2.1a1.1,1.1,0,0,1-.8-.2.9.9,0,0,1-.4-.9c.1-.1.1-.1.1-.2h.2c.1,0,.3,0,.3.1s.1.1.1.2h0c0-.1,0-.2-.1-.2s-.2-.1-.3,0H421v.2c-.2.3.1.7.3.9l.8.2h2.1l.5.2h.1a.1.1,0,0,0,.1.1h0l.3.3h0a.3.3,0,0,1-.3.3Z" transform="translate(-408.4 -370.5)" fill="#4b2508"/><path d="M424.2,385.5h-.4v-.3h0c0-.1.1-.2.3-.2h.2v.2H424V385h.3c0-.1,0-.2-.1-.2h-.1l-.3.2h0c0,.1,0,.2.1.2a.2.2,0,0,0,.2.2h.3a.4.4,0,0,0,.1-.3c0-.4-.5-.6-.8-.7h-2l-.7-.4-.3-.4a.8.8,0,0,1,.1-.8,1,1,0,0,1,.5-.4.5.5,0,0,1,.5.3.3.3,0,0,1,0,.4h-.2c-.3,0-.3-.1-.3-.2a.3.3,0,0,1,.1-.2h0a.3.3,0,0,0-.1.2s0,.2.3.2l.2-.2v-.3a.4.4,0,0,0-.5-.2.5.5,0,0,0-.5.3,1.2,1.2,0,0,0-.1.8l.3.4a.9.9,0,0,0,.7.3h1l1,.2s.9.2.9.7l-.2.3Z" transform="translate(-408.4 -370.5)" fill="#4b2508"/><path d="M424.4,385.6h-.1c-.1,0-.2,0-.2-.1h.6a.5.5,0,0,0,.2-.4.3.3,0,0,0-.1-.2,1,1,0,0,0-.6-.5h0a.9.9,0,0,1,.6.4.4.4,0,0,1,.1.3.5.5,0,0,1-.2.4Z" transform="translate(-408.4 -370.5)" fill="#4b2508"/><path d="M421.3,378.8H421c.1,0,.2.1.4,0a.5.5,0,0,0,.4-.5.4.4,0,0,0-.1-.3h0l.2.3a.7.7,0,0,1-.5.6Z" transform="translate(-408.4 -370.5)" fill="#4b2508"/><path d="M421.3,379.1h-.4l-.2-.3.3.3h.3c.2,0,.4-.1.4-.2s.1-.1.1-.2h.1v.3l-.5.2Z" transform="translate(-408.4 -370.5)" fill="#4b2508"/><path d="M421.6,379.5h0c.2-.1.2-.2.2-.3v-.3h0c0,.1.1.2.1.3l-.2.4Z" transform="translate(-408.4 -370.5)" fill="#4b2508"/><path d="M421.6,380.3a.5.5,0,0,0,.2-.4c0-.2,0-.3-.2-.4h.1c.1.2.2.3.2.5s-.2.3-.3.4Z" transform="translate(-408.4 -370.5)" fill="#4b2508"/><path d="M421.6,381.6a.8.8,0,0,0,.2-.7,1.3,1.3,0,0,0-.3-.8h0c.2.3.4.4.4.8a.9.9,0,0,1-.3.7Z" transform="translate(-408.4 -370.5)" fill="#4b2508"/><path d="M422.4,376.3c-.2-.1-.2-.2-.3-.3s0-.4.2-.5.1-.1.2-.1l.2.2h-.4a.4.4,0,0,0-.1.5c0,.1.1.2.2.3Z" transform="translate(-408.4 -370.5)" fill="#4b2508"/><path d="M423.4,376.3h0a1,1,0,0,1-.8-.3,1,1,0,0,0,.8.3h.4a.4.4,0,0,0,.1-.3h-.1a4.3,4.3,0,0,1-.1-.5c0-.3.1-.5.3-.5s.5.1.7.2h.9c.2-.1.5-.3.7-.2a.3.3,0,0,1,.3.5.7.7,0,0,1-.1.5h-.1a.4.4,0,0,0,.1.3h.4a1,1,0,0,0,.8-.3h0a1,1,0,0,1-.8.3c-.1.1-.3,0-.4-.1s-.1-.2-.1-.3h.1a4.3,4.3,0,0,0,.1-.5.5.5,0,0,0-.3-.5c-.2-.1-.4.1-.6.2h-1c-.2-.1-.5-.3-.7-.2a.5.5,0,0,0-.3.5,4.3,4.3,0,0,0,.1.5h.1c0,.1,0,.3-.1.3Z" transform="translate(-408.4 -370.5)" fill="#4b2508"/><path d="M425.6,376.5h-.3v-.3c.2-.3.5-.1.8,0h0v-.5c.1,0,.1-.1.1-.2a.2.2,0,0,0,0-.3c-.1-.1-.1-.1-.3,0h-.1l-.7.2-.8-.2h-.1c-.2-.1-.2-.1-.3,0a.2.2,0,0,0,0,.3c0,.1,0,.2.1.2v.5h0c.3-.1.6-.3.8,0v.3c-.2.2-.4.2-.5,0s0-.2.1-.2-.1.1-.1.2.3.1.4,0a.2.2,0,0,0,0-.3c-.1-.2-.4-.1-.7,0h0v-.5c-.1,0-.1-.1-.2-.2a.4.4,0,0,1,.1-.3h.3c0,.1.1.1.2.1a.9.9,0,0,0,.7.3.9.9,0,0,0,.6-.3c.1,0,.2,0,.2-.1s.3,0,.3.1a.4.4,0,0,1,.1.3c-.1.1-.1.2-.2.2v.5h0c-.3-.1-.6-.2-.7,0a.2.2,0,0,0,0,.3c.1.1.3.2.4,0v-.2h.1v.2c0,.1-.1.1-.2.1Z" transform="translate(-408.4 -370.5)" fill="#4b2508"/><path d="M425.2,375.8l-.5-.2h-.1c0-.1-.1-.1-.2-.1h-.1a.1.1,0,0,1,.1-.1h.2a.1.1,0,0,0,.1.1h.9a.1.1,0,0,0,.1-.1h.2a.1.1,0,0,1,.1.1h0a.1.1,0,0,0-.1-.1h-.3l-.4.2Z" transform="translate(-408.4 -370.5)" fill="#dbc190"/><path d="M424.2,376.1h0c0-.1-.1-.2-.1-.3a.4.4,0,0,1-.1-.3.2.2,0,1,1,.3-.3h.2l.7.2-.7-.2H424c-.1.1,0,.2,0,.3s.1.2.1.3.1.1.1.3Z" transform="translate(-408.4 -370.5)" fill="#4b2508"/><path d="M425.2,375.4h0a1.5,1.5,0,0,0,.7-.3h.2c.1,0,.2,0,.2.1h-.4l-.7.2Z" transform="translate(-408.4 -370.5)" fill="#4b2508"/><path d="M425.7,376.5h0a.1.1,0,0,0,.1-.1v0c0,.1,0,.1-.1.1h0Z" transform="translate(-408.4 -370.5)" fill="#4b2508"/><path d="M424.6,376.3c0-.1,0-.1.1-.1a.1.1,0,0,1,.1.1h-.2Z" transform="translate(-408.4 -370.5)" fill="#dbc190"/><path d="M428.5,382.2c-.1,0,0,0,0-.1h0v-.9h0v.9h0Z" transform="translate(-408.4 -370.5)" fill="#4b2508"/><path d="M428.5,382.3v-.2h.1v-.9h.1v.9h0v.2Z" transform="translate(-408.4 -370.5)" fill="#4b2508"/><polygon points="20.1 10.2 20.1 9.4 20.1 9.4 20.1 10.2 20.1 10.2" fill="#4b2508"/><polygon points="20.1 10.1 20.1 9.5 20.1 9.5 20.1 10.1 20.1 10.1" fill="#4b2508"/><polygon points="20.1 9.2 20.1 8.7 20.1 8.7 20.1 9.2 20.1 9.2" fill="#4b2508"/><polygon points="20.1 9.2 20.1 8.6 20.1 8.6 20.1 9.2 20.1 9.2" fill="#4b2508"/><path d="M428.5,378.7v0Z" transform="translate(-408.4 -370.5)" fill="none"/><path d="M428.5,378.7v0Z" transform="translate(-408.4 -370.5)" fill="none"/><path d="M428.5,378.3v0Z" transform="translate(-408.4 -370.5)" fill="none"/><path d="M428.5,378.3v0Z" transform="translate(-408.4 -370.5)" fill="none"/><path d="M428.5,377.7v0Z" transform="translate(-408.4 -370.5)" fill="none"/><polygon points="20.1 7.6 20.1 7.1 20.1 7.1 20.1 7.6 20.1 7.6" fill="#4b2508"/><path d="M425.2,383.4l-.4-.2h-2.3l-.3-.3h0l.3.2h2.3l.4.2.3-.2h2.3l.3-.2c.1-.1.2-.2.2-.3h.1l-.2.3-.4.3h-2.3l-.3.2Z" transform="translate(-408.4 -370.5)" fill="#4b2508"/><path d="M425.2,383.4l-.4-.2h-1.9l-.4-.2-.3-.2a.1.1,0,0,1-.1-.1.1.1,0,0,1,.1.1l.3.2h2.3l.4.2.3-.2h2.3l.3-.2c.1-.1.2-.2.2-.3h.1l-.3.3c-.1.1-.1.2-.3.2l-.3.2h-2l-.3.2Z" transform="translate(-408.4 -370.5)" fill="#4b2508"/><path d="M421.3,382.8a.2.2,0,0,1,.2-.2.3.3,0,0,1,.1.2h-.3Z" transform="translate(-408.4 -370.5)" fill="#dbc190"/><path d="M421.5,382.9h-.2a.2.2,0,0,1,.2-.2.3.3,0,0,1,.1.2Zm0-.3a.2.2,0,0,0-.2.2h.3a.3.3,0,0,0-.1-.2Z" transform="translate(-408.4 -370.5)" fill="#dbc190"/><polygon points="12.6 12.5 12.5 12.5 12.6 12.3 12.7 12.1 12.8 12 12.9 12 12.9 12 12.8 12.1 12.7 12.1 12.6 12.3 12.6 12.5 12.6 12.5" fill="#4b2508"/><path d="M421.6,383.1a.4.4,0,0,1-.3-.2h.3c.1,0,.2,0,.2-.1a.8.8,0,0,0,.2-.4h0c0,.1-.1.3-.1.4l-.3.2Z" transform="translate(-408.4 -370.5)" fill="#4b2508"/><polygon points="13.2 12.5 13.4 12.4 13.5 12.3 13.5 12.1 13.6 12 13.6 12 13.6 12.2 13.5 12.3 13.4 12.4 13.3 12.5 13.2 12.5 13.2 12.5" fill="#4b2508"/><path d="M421.8,382.9h0a.3.3,0,0,0,0-.4.1.1,0,0,0-.1-.1h0a.1.1,0,0,1,.1.1.3.3,0,0,1,0,.4Z" transform="translate(-408.4 -370.5)" fill="#4b2508"/><path d="M424,384.8a1.8,1.8,0,0,0-1.3-.3,5.8,5.8,0,0,1-1.4-.3l-.6-.3h0l.6.4a3.2,3.2,0,0,0,1.4.2,1.8,1.8,0,0,1,1.3.4Z" transform="translate(-408.4 -370.5)" fill="#4b2508"/><path d="M425.2,384.9l-.3-.3h.1l.2.3Z" transform="translate(-408.4 -370.5)" fill="#4b2508"/><path d="M424.9,385.3h-.1l.3-.2h.1a.4.4,0,0,1-.3.2Z" transform="translate(-408.4 -370.5)" fill="#4b2508"/><path d="M424.8,385.5c0-.1,0-.1.1-.2h0c0,.1-.1.1-.1.2Z" transform="translate(-408.4 -370.5)" fill="#4b2508"/><path d="M424.9,385.3v-.2a.3.3,0,0,0-.1-.2c-.1-.3-.3-.4-.6-.5h0a1.2,1.2,0,0,1,.7.5v.4Z" transform="translate(-408.4 -370.5)" fill="#4b2508"/><path d="M424.4,385.7h0l-.3-.2h.3c.1.1.2,0,.3-.1h-.3Z" transform="translate(-408.4 -370.5)" fill="#4b2508"/><path d="M424.9,385.2h0Z" transform="translate(-408.4 -370.5)" fill="none"/><polygon points="16.1 15.1 16.3 15 16.4 15 16.3 15 16.2 15.1 16.1 15.1 16.1 15.1" fill="#4b2508"/><path d="M425.2,385.8a.9.9,0,0,1-.5-.3.9.9,0,0,0,.5.3l.4-.3h0l-.4.3Z" transform="translate(-408.4 -370.5)" fill="#4b2508"/><path d="M425.2,385.8a.4.4,0,0,1-.4-.3c.1.1.2.3.4.3s.3-.2.4-.3h0c-.1.1-.2.3-.4.3Z" transform="translate(-408.4 -370.5)" fill="#272425"/><path d="M424.5,385.6Z" transform="translate(-408.4 -370.5)" fill="none"/><path d="M424.1,385.5c-.1,0-.2,0-.2-.1h.2Z" transform="translate(-408.4 -370.5)" fill="#4b2508"/><path d="M424.2,385.5H424c0,.1.1.1.2.1h.2a.4.4,0,0,0,.1-.3c0-.2,0-.3-.1-.4a.5.5,0,0,1,.2.4l-.2.3c0,.1-.1.1-.2.1Z" transform="translate(-408.4 -370.5)" fill="#4b2508"/><path d="M424.2,385.3H424V385h.3c0-.1,0-.2-.1-.2s.1.1.1.2h0a.1.1,0,0,0-.1.1Z" transform="translate(-408.4 -370.5)" fill="#4b2508"/><path d="M424,385.1a.1.1,0,0,1,.1-.1c.1,0,.2,0,.2.1H424Z" transform="translate(-408.4 -370.5)" fill="#dbc190"/><path d="M425.2,385.9c-.2-.1-.4-.3-.4-.4h0c.1.1.2.3.4.3l.4-.3h0l-.4.4Z" transform="translate(-408.4 -370.5)" fill="#4b2508"/><path d="M425.9,384.5h0Z" transform="translate(-408.4 -370.5)" fill="#dbc190"/><path d="M425.7,384.7Z" transform="translate(-408.4 -370.5)" fill="#dbc190"/><path d="M424.5,384.7h-.1a.1.1,0,0,1,.1.1h0Z" transform="translate(-408.4 -370.5)" fill="#dbc190"/><path d="M425.9,385.7h-.3c.1.1.2.2.4.1s.2,0,.2-.1h0a.2.2,0,0,1-.2.2Z" transform="translate(-408.4 -370.5)" fill="#4b2508"/><polygon points="17.5 15.1 17.7 15.1 17.8 15 17.8 15 17.8 15 17.8 15 17.7 15.1 17.6 15.1 17.5 15.1 17.5 15.1" fill="#4b2508"/><path d="M426.2,385.5h.3V385a.1.1,0,0,0-.1-.1h0a.1.1,0,0,1,.1.1v.2a.3.3,0,0,1-.1.2Z" transform="translate(-408.4 -370.5)" fill="#4b2508"/><path d="M426.2,385.5h0Z" transform="translate(-408.4 -370.5)" fill="#4b2508"/><polygon points="17.8 15 17.8 15 17.9 15 18 14.9 18.1 14.7 18.1 14.6 18.2 14.7 18.1 14.8 18 14.9 17.9 15 17.8 15 17.8 15" fill="#4b2508"/><path d="M426,385.1c0-.1.1-.1.2-.1a.1.1,0,0,1,.1.1H426Z" transform="translate(-408.4 -370.5)" fill="#dbc190"/><path d="M426.3,384.8a2,2,0,0,1,1.4-.4,3.4,3.4,0,0,0,1.4-.2,1.9,1.9,0,0,0,.8-.7,4.3,4.3,0,0,0,.1-.5.4.4,0,0,0-.1-.3.5.5,0,0,0-.2-.4h0l.3.5v.3a.7.7,0,0,1-.1.5,1.4,1.4,0,0,1-.8.7,7,7,0,0,1-1.4.3c-.6,0-1.1,0-1.4.3Z" transform="translate(-408.4 -370.5)" fill="#4b2508"/><polygon points="17.9 14.3 17.9 14.3 18.1 14.1 18.3 14 18.8 13.9 18.2 14.1 18 14.2 17.9 14.3 17.9 14.3" fill="#4b2508"/><path d="M429.2,382.7h-.1c-.1-.1-.3,0-.3,0h0c0-.1.2-.1.3-.1v.2Z" transform="translate(-408.4 -370.5)" fill="#4b2508"/><path d="M422.2,383.2h0a.1.1,0,0,0-.1.1H422v-.2h-.1v.4h0Z" transform="translate(-408.4 -370.5)" fill="#4b2508"/><path d="M422.4,383.3h-.1v.3c0,.1,0,.1-.1.1h.2Z" transform="translate(-408.4 -370.5)" fill="#4b2508"/><path d="M422.6,383.3h.1a.1.1,0,0,1-.1.1c-.1,0-.1,0-.1-.1Zm-.2.3h.1c.1,0,.1,0,.1.1h.1v-.2h.1s.1-.1-.1-.1h-.1c-.1.1,0,.1,0,.1Z" transform="translate(-408.4 -370.5)" fill="#4b2508"/><path d="M422.9,383.7h.1a.1.1,0,0,1-.1-.1v-.3h.1c.1,0,0,.1,0,.1h-.3c0,.1,0,0,.1,0h0Z" transform="translate(-408.4 -370.5)" fill="#4b2508"/><path d="M423.5,383.6h-.1a.1.1,0,0,1,.1.1h0v.2h-.1v-.2h-.1v.4h0Z" transform="translate(-408.4 -370.5)" fill="#4b2508"/><path d="M423.6,383.9h0a.1.1,0,0,0,.2,0v-.2h-.1v.2h0a.1.1,0,0,0-.1-.1h-.1v.2h.1s-.1.1-.1,0h-.1Z" transform="translate(-408.4 -370.5)" fill="#4b2508"/><path d="M424.4,383.7h-.1s0,.1-.1,0h0v-.2h-.1v.4h0Z" transform="translate(-408.4 -370.5)" fill="#4b2508"/><path d="M424.5,384h.1c0-.1-.1,0-.1-.2v-.2h.1l.2.4h.1v-.4h-.1v.2h0l-.2-.3h-.1Z" transform="translate(-408.4 -370.5)" fill="#4b2508"/><path d="M425.1,383.7H425v.3h.1Z" transform="translate(-408.4 -370.5)" fill="#4b2508"/><path d="M425.3,384c0,.1-.1,0-.1.1h.3c0-.1-.1,0-.1-.1v-.3h-.1Z" transform="translate(-408.4 -370.5)" fill="#4b2508"/><path d="M425.6,383.9Zm.1,0h.2l-.2-.4h0l-.2.4h.2c0-.1-.1,0-.1-.1h.1Z" transform="translate(-408.4 -370.5)" fill="#4b2508"/><path d="M426.2,383.6h-.1v.3a.1.1,0,0,1-.1.1h.2a.1.1,0,0,1-.1-.1h0Z" transform="translate(-408.4 -370.5)" fill="#4b2508"/><path d="M426.4,383.8a.2.2,0,0,0,.2.2c.2-.1.2-.2.2-.3s-.1-.2-.2-.2-.2.1-.2.3Zm.1-.1c-.1-.1,0-.2.1-.2v.2c.1.1,0,.2-.1.2s-.1-.1-.1-.2Z" transform="translate(-408.4 -370.5)" fill="#4b2508"/><path d="M426.9,383.5h0c.1-.1.1,0,.2,0s0,.1-.1.1h-.1Zm0,.3h.3v-.2h0a.1.1,0,0,0-.1-.1h-.2Z" transform="translate(-408.4 -370.5)" fill="#4b2508"/><path d="M427.4,383.7a.1.1,0,0,1-.1.1h.2s0,.1-.1,0v-.3h-.2s-.1-.1,0-.1h.1Z" transform="translate(-408.4 -370.5)" fill="#4b2508"/><path d="M427.7,383.3h0a.1.1,0,0,0-.1.1h0v.3h0Z" transform="translate(-408.4 -370.5)" fill="#4b2508"/><path d="M427.8,383.5c0,.1.1.1.2.1s.2-.2.2-.3-.2-.2-.3-.1-.2.1-.1.3Zm0-.1c0-.1,0-.2.1-.2s.2,0,.2.1a.4.4,0,0,1-.1.3l-.2-.2Z" transform="translate(-408.4 -370.5)" fill="#4b2508"/><path d="M428.2,383.1h.1c0-.1.1,0,.1,0h-.2Zm.1.3h0c.1-.1.1,0,.1,0h-.1a.1.1,0,0,0-.1.1h0Z" transform="translate(-408.4 -370.5)" fill="#4b2508"/><path d="M429.3,381.8l-.3-.4V381a2,2,0,0,1,.3-.8c0-.1.1-.1.1-.2s-.1.1-.1.2a.8.8,0,0,0-.2.5v.5a.3.3,0,0,0,.1.2c0,.1.1.2.2.3Z" transform="translate(-408.4 -370.5)" fill="#4b2508"/><path d="M429.4,381.4h0a.9.9,0,0,1-.3-.6.8.8,0,0,1,.2-.5.7.7,0,0,0-.1.5.7.7,0,0,0,.2.6Z" transform="translate(-408.4 -370.5)" fill="#4b2508"/><polygon points="20.8 10.2 20.7 10.2 20.8 10 20.9 9.8 20.9 9.7 20.8 10.2 20.8 10.2 20.8 10.2" fill="#4b2508"/><path d="M429.7,382.2h.1c.1,0,.2,0,.2-.1v-.2h-.1c.1,0,.1,0,.1.1s.1.1,0,.2-.1.1-.2.2Z" transform="translate(-408.4 -370.5)" fill="#4b2508"/><path d="M430,381.7h-.1v-.2h-.1a.1.1,0,0,0,.1.1v.2Z" transform="translate(-408.4 -370.5)" fill="#4b2508"/><path d="M429.8,381.5c0-.1,0-.2-.1-.2a.2.2,0,0,1,.2.2Z" transform="translate(-408.4 -370.5)" fill="#4b2508"/><path d="M429.5,380.4h.1a.1.1,0,0,0,.1-.1h-.1c.1,0,.1,0,.1.1h0c.1,0,.1.1,0,.2h-.2Z" transform="translate(-408.4 -370.5)" fill="#4b2508"/><polygon points="21.1 9.8 21.1 9.8 21.3 9.8 21.3 9.7 21.3 9.6 21.4 9.6 21.3 9.7 21.2 9.8 21.1 9.8 21.1 9.8" fill="#4b2508"/><path d="M429.5,380h0Z" transform="translate(-408.4 -370.5)" fill="none"/><path d="M429.7,382h.1a.1.1,0,0,1-.1.1Z" transform="translate(-408.4 -370.5)" fill="#4b2508"/><path d="M429.6,381.8a.1.1,0,1,1,.2,0h-.2Z" transform="translate(-408.4 -370.5)" fill="#dbc190"/><path d="M429.2,379.4h.1c0,.1,0,.1-.1.1Z" transform="translate(-408.4 -370.5)" fill="#dbc190"/><path d="M429.1,378.3c0-.1,0-.1.1-.1h-.1Z" transform="translate(-408.4 -370.5)" fill="#dbc190"/><path d="M428.8,377.7h-.1a1,1,0,0,1,.4-.7h.1c.2-.2.3-.3.3-.5a.3.3,0,0,0-.3-.3h0a.3.3,0,0,1,.3.3c0,.2-.1.3-.2.5s-.1.1-.2.2a.8.8,0,0,0-.4.6Z" transform="translate(-408.4 -370.5)" fill="#4b2508"/><path d="M428.8,377.7h.1a.1.1,0,0,1-.1-.1Z" transform="translate(-408.4 -370.5)" fill="#dbc190"/><path d="M428.9,377.8a.1.1,0,0,1-.1-.1h.1Zm0-.2h-.1c0,.1.1.1.1,0Z" transform="translate(-408.4 -370.5)" fill="#dbc190"/><polygon points="20.3 7 20.3 7 20.3 6.9 20.4 6.7 21 5.9 21.1 5.8 21.1 5.7 21 5.7 21.1 5.7 21.1 6 20.9 6.2 20.4 6.8 20.3 6.9 20.3 7 20.3 7" fill="#4b2508"/><path d="M429.1,377.8H429c.1-.1.1-.1,0-.2h-.1c.1-.1.1-.1.1,0s.1.1.1.2Z" transform="translate(-408.4 -370.5)" fill="#4b2508"/><path d="M428.8,378h-.1a.1.1,0,0,1-.1-.1h0a.1.1,0,0,1,.1.1h.2a.1.1,0,0,1-.1.1Z" transform="translate(-408.4 -370.5)" fill="#4b2508"/><path d="M428.8,376.9h0l.2-.2a.6.6,0,0,0,.2-.5.3.3,0,0,0-.3-.3h0a.4.4,0,0,1,.4.4c0,.3-.2.4-.2.5l-.3.2Z" transform="translate(-408.4 -370.5)" fill="#4b2508"/><path d="M428.7,376.5a.8.8,0,0,0,.2-.5v-.3h0a.4.4,0,0,1,.1.3.6.6,0,0,1-.3.5Z" transform="translate(-408.4 -370.5)" fill="#4b2508"/><path d="M428.6,376.5Z" transform="translate(-408.4 -370.5)" fill="#dbc190"/><path d="M428.3,376.3c.1-.1.2-.2.2-.3a.6.6,0,0,0-.1-.4h0a.6.6,0,0,1,.1.4c0,.1-.1.2-.2.3Z" transform="translate(-408.4 -370.5)" fill="#4b2508"/><path d="M428.2,376.3Z" transform="translate(-408.4 -370.5)" fill="#dbc190"/><path d="M428,376.3l.2-.3c0-.2,0-.4-.2-.5h0c.2.1.2.3.2.5s-.1.2-.2.3Z" transform="translate(-408.4 -370.5)" fill="#4b2508"/><path d="M427.9,376.3h0c0-.1,0-.1.1-.1h-.1Z" transform="translate(-408.4 -370.5)" fill="#dbc190"/><path d="M427.2,376.5l.4-.2c.2-.1.4-.3.3-.5a.1.1,0,0,0-.1-.1h0c.1.1.1.1.1.2s-.1.4-.3.6Z" transform="translate(-408.4 -370.5)" fill="#4b2508"/><path d="M427.6,376.1c-.1,0-.2,0-.2-.1h.2Z" transform="translate(-408.4 -370.5)" fill="#4b2508"/><path d="M426.6,376.3h-.1c-.1-.1-.1-.1-.1-.2s.1-.1.1-.2.1-.3.1-.4,0-.5-.2-.6a.6.6,0,0,1,.3.6.8.8,0,0,1-.2.4v.2c-.1.1-.1.1,0,.2h.1Z" transform="translate(-408.4 -370.5)" fill="#4b2508"/><path d="M426.4,376.1h0l.2-.4v-.2h0v.6Z" transform="translate(-408.4 -370.5)" fill="#4b2508"/><path d="M429.1,378.8h-.2l-.3-.2a.1.1,0,0,0-.1-.1h.1l.4.3h.1Z" transform="translate(-408.4 -370.5)" fill="#4b2508"/><path d="M429.1,378.7h0Z" transform="translate(-408.4 -370.5)" fill="#dbc190"/><path d="M429.3,379Z" transform="translate(-408.4 -370.5)" fill="#dbc190"/><path d="M428.7,379.5h0a.1.1,0,0,0,.1.1Z" transform="translate(-408.4 -370.5)" fill="none"/><polygon points="20.3 9.7 20.3 9.7 20.3 9.7 20.4 9.5 20.4 9.6 20.3 9.7 20.3 9.7 20.3 9.7" fill="#dbc190"/><polygon points="20.3 9.8 20.3 9.8 20.3 9.8 20.5 9.5 20.3 9.8 20.3 9.8 20.3 9.8" fill="#dbc190"/><path d="M428.8,381.7h-.1a.1.1,0,0,1-.1-.1h.2Z" transform="translate(-408.4 -370.5)" fill="#dbc190"/><path d="M428.7,382.8c0-.1,0-.1.1-.1s.1,0,.1.1,0,.1,0,.1Z" transform="translate(-408.4 -370.5)" fill="#dbc190"/><path d="M428.8,382.9h-.1c0-.1,0-.1.1-.1h0Zm0-.2c-.1,0-.1,0-.1.1h.2s.1-.1,0-.1,0-.1-.1-.1Z" transform="translate(-408.4 -370.5)" fill="#dbc190"/><path d="M429.3,381.6h-.2v.2h0c.1,0,.1,0,.1.1Z" transform="translate(-408.4 -370.5)" fill="#dbc190"/><path d="M429.4,382.2Z" transform="translate(-408.4 -370.5)" fill="#dbc190"/><path d="M428.8,383.1h0l-.3-.2h.3c.2,0,.2-.1.2-.1s0-.2-.1-.3h0c.1.1.2.1.2.3a.4.4,0,0,1-.3.2Z" transform="translate(-408.4 -370.5)" fill="#4b2508"/><polygon points="20.4 12.5 20.4 12.5 20.5 12.4 20.6 12.4 20.6 12.3 20.6 12.3 20.6 12.4 20.6 12.5 20.5 12.5 20.4 12.5 20.4 12.5" fill="#4b2508"/><path d="M420.6,382.2h-.1l-.2-.2v0h.3Z" transform="translate(-408.4 -370.5)" fill="#4b2508"/><polygon points="12.2 11.6 12.2 11.6 12.2 11.6 12.2 11.6 12.3 11.6 12.4 11.6 12.3 11.6 12.2 11.6 12.2 11.6" fill="#4b2508"/><path d="M420.6,382h.1c0,.1,0,.1-.1.1Z" transform="translate(-408.4 -370.5)" fill="#4b2508"/><path d="M420.5,381.8c0-.1,0-.1.1-.1a.1.1,0,0,1,.1.1h-.2Z" transform="translate(-408.4 -370.5)" fill="#dbc190"/><path d="M420.6,381.9h-.1c0-.1,0-.1.1-.1a.1.1,0,0,1,.1.1Zm0-.2c-.1,0-.1,0-.1.1h.2a.1.1,0,0,0-.1-.1Z" transform="translate(-408.4 -370.5)" fill="#dbc190"/><path d="M421.1,382h.2l.3-.6v-.6c-.1-.4-.4-.7-.6-.7h0a1.3,1.3,0,0,1,.6.8c0,.1.1.4,0,.6a.9.9,0,0,1-.3.6h-.2Z" transform="translate(-408.4 -370.5)" fill="#4b2508"/><path d="M420.9,380.4h-.1a.2.2,0,0,1-.2-.2h.4a.1.1,0,0,0,0-.2h.1v.2Z" transform="translate(-408.4 -370.5)" fill="#4b2508"/><polygon points="12.5 9.8 12.4 9.8 12.6 9.8 12.6 9.7 12.6 9.6 12.7 9.6 12.6 9.7 12.6 9.8 12.5 9.8 12.5 9.8" fill="#4b2508"/><path d="M420.9,380h0Z" transform="translate(-408.4 -370.5)" fill="none"/><path d="M420.8,381.7c0-.1.1-.1.1-.2a.2.2,0,0,0-.2-.2h0a.2.2,0,0,1,.2.2c0,.1,0,.1-.1.2Z" transform="translate(-408.4 -370.5)" fill="#4b2508"/><path d="M420.8,381.8v-.2a.2.2,0,0,0-.2-.2h0a.2.2,0,0,1,.2.2v.2Z" transform="translate(-408.4 -370.5)" fill="#4b2508"/><path d="M421,381.6Z" transform="translate(-408.4 -370.5)" fill="#dbc190"/><path d="M420.9,382.2Z" transform="translate(-408.4 -370.5)" fill="#dbc190"/><path d="M421.6,380.2Z" transform="translate(-408.4 -370.5)" fill="#dbc190"/><path d="M421.9,380.7l-.3-.4h.1c.1.1.1.2.2.4Z" transform="translate(-408.4 -370.5)" fill="#4b2508"/><path d="M421.6,381.6a.2.2,0,0,1,.2-.2v-.2h.1c-.1,0-.1.1-.1.2s-.1.2-.2.2Z" transform="translate(-408.4 -370.5)" fill="#4b2508"/><path d="M421.7,380.3c0-.1.1-.2.1-.3h.1l-.2.3Z" transform="translate(-408.4 -370.5)" fill="#4b2508"/><path d="M421.9,379.7l-.3-.2h.1c.1,0,.1.1.2.2Z" transform="translate(-408.4 -370.5)" fill="#4b2508"/><path d="M421.8,378.8h0Z" transform="translate(-408.4 -370.5)" fill="none"/><path d="M421.7,379.5h0Z" transform="translate(-408.4 -370.5)" fill="none"/><path d="M421.7,379.5h0Z" transform="translate(-408.4 -370.5)" fill="none"/><path d="M421.7,379.5a.4.4,0,0,0,.1-.3h.1l-.2.3Z" transform="translate(-408.4 -370.5)" fill="#4b2508"/><path d="M421.8,378.5h0Z" transform="translate(-408.4 -370.5)" fill="none"/><path d="M421.3,379.1H421l-.3-.3.3.3h.3l.5-.2v-.2h.1v.2l-.5.2Z" transform="translate(-408.4 -370.5)" fill="#4b2508"/><path d="M421,379h0Z" transform="translate(-408.4 -370.5)" fill="#dbc190"/><path d="M421.9,378.1l-.2-.2h0l.2.2Z" transform="translate(-408.4 -370.5)" fill="#4b2508"/><path d="M421.3,378.8h.1a.6.6,0,0,0,.4-.5h.1c-.1,0-.2.3-.5.4Z" transform="translate(-408.4 -370.5)" fill="#4b2508"/><path d="M421.2,378.7Z" transform="translate(-408.4 -370.5)" fill="#dbc190"/><path d="M421.2,378.6h0a.3.3,0,0,1-.3-.3h0c0,.2.1.2.3.2s.2,0,.2-.1a.5.5,0,0,0,0-.5.9.9,0,0,1,.1.5l-.3.2Z" transform="translate(-408.4 -370.5)" fill="#4b2508"/><path d="M421.2,378.6h.2v-.2h.1v.2h-.2Z" transform="translate(-408.4 -370.5)" fill="#4b2508"/><path d="M421,378.2h.2a.1.1,0,0,1-.2,0Z" transform="translate(-408.4 -370.5)" fill="#dbc190"/><path d="M421.1,378.3h0a.1.1,0,0,1-.1-.1h.2c0,.1,0,.1-.1.1Zm0-.2h0c.1,0,.1,0,.1-.1h-.1Z" transform="translate(-408.4 -370.5)" fill="#dbc190"/><polygon points="12.1 8.3 12.1 8.2 12.2 7.9 12.3 7.8 12.4 7.7 12.5 7.6 12.5 7.6 12.4 7.7 12.3 7.8 12.2 7.9 12.1 8.3 12.1 8.3" fill="#dbc190"/><path d="M420.6,379.5h-.1c-.1-.1-.1-.2-.1-.4a.1.1,0,0,1-.1-.1.8.8,0,0,1,.1-.4h.1a.1.1,0,0,1,.1-.1h.1c.2-.1.3-.1.4,0h0c-.1-.1-.2-.1-.4,0h-.1a.1.1,0,0,0-.1.1h-.1c-.1.2,0,.3,0,.4h0c0,.1,0,.3.1.3v.2Z" transform="translate(-408.4 -370.5)" fill="#dbc190"/><path d="M421,379.4h.1c-.1,0-.1,0-.1-.1Z" transform="translate(-408.4 -370.5)" fill="#dbc190"/><path d="M420.8,379.8h-.3l.3.2Z" transform="translate(-408.4 -370.5)" fill="#4b2508"/><path d="M421.1,379.9h0l.2-.2c.1,0,.1-.1.1-.2s-.2-.3-.3-.3a.3.3,0,0,1,.3.3c0,.1,0,.2-.1.2a.2.2,0,0,1-.2.2Z" transform="translate(-408.4 -370.5)" fill="#4b2508"/><polygon points="12.6 9.3 12.9 9.2 12.9 9.1 13 9 13 9 12.9 9.2 12.9 9.2 12.8 9.3 12.6 9.3 12.6 9.3" fill="#4b2508"/><path d="M421.6,378h0l.2-.2h.1c-.1.1-.1.2-.2.2Z" transform="translate(-408.4 -370.5)" fill="#4b2508"/><polygon points="13.2 7.5 13.1 7.5 13.2 7.5 13.3 7.4 13.4 7.3 13.4 7.2 13.5 7.2 13.4 7.3 13.3 7.4 13.2 7.5 13.2 7.5" fill="#4b2508"/><path d="M421.6,377.7h-.2c.1,0,.1,0,.1.1Z" transform="translate(-408.4 -370.5)" fill="#4b2508"/><path d="M421.4,377.8h0l.2-.2h0c0,.1,0,.2-.2.2Z" transform="translate(-408.4 -370.5)" fill="#4b2508"/><path d="M421.3,377.7h.2a.1.1,0,0,1-.1.1Z" transform="translate(-408.4 -370.5)" fill="#dbc190"/><path d="M421.4,377.8h-.1c0-.2.2-.2.2,0a.1.1,0,0,1-.1.1Zm0-.2h-.1c0,.1.2.1.2,0Z" transform="translate(-408.4 -370.5)" fill="#dbc190"/><path d="M421.6,377.7Z" transform="translate(-408.4 -370.5)" fill="none"/><path d="M421.7,376.5a.3.3,0,0,1-.3-.3h0l.3.3Z" transform="translate(-408.4 -370.5)" fill="#4b2508"/><path d="M421.7,376.6h-.1a.1.1,0,0,1-.1-.1h.2Z" transform="translate(-408.4 -370.5)" fill="#dbc190"/><path d="M422.1,376.3H422a.1.1,0,0,1-.1-.1h0a.1.1,0,0,0,.1.1Z" transform="translate(-408.4 -370.5)" fill="#dbc190"/><path d="M422.3,376.3h0Z" transform="translate(-408.4 -370.5)" fill="#dbc190"/><path d="M422.6,375.9h.2a.1.1,0,1,1-.2,0Z" transform="translate(-408.4 -370.5)" fill="#dbc190"/><path d="M429.2,378.6l-.3-.2h.5v-.2h0a.1.1,0,0,1,0,.2.2.2,0,0,1-.2.2Z" transform="translate(-408.4 -370.5)" fill="#4b2508"/><path d="M420.9,379.6h0c-.2,0-.3-.1-.4-.3l-.2-.3h0a.8.8,0,0,1,.1-.4h0c0-.1.1-.1.1-.2h.1a.4.4,0,0,1,.6,0h0a.4.4,0,0,0-.5,0h-.1a.1.1,0,0,0-.1.1h-.1a.8.8,0,0,0-.1.4h.1a.4.4,0,0,0,.1.3c.1.2.2.3.4.3h.2c.1,0,0,0,0,.1Z" transform="translate(-408.4 -370.5)" fill="#4b2508"/><path d="M426.8,376.5h0a2.4,2.4,0,0,1-1-.3h-.2c-.1,0-.1-.1,0-.1h.2a2.4,2.4,0,0,0,1,.3,1.1,1.1,0,0,0,.8-.2c.2-.1.4-.3.3-.5s-.1-.1-.2-.2h-.3c-.1,0-.1.1,0,.2s.1.1.2.1a.1.1,0,0,1,.1-.1v-.2h0v.2a.1.1,0,0,1-.1.1c-.1,0-.2,0-.2-.1v-.2a.1.1,0,0,1,.1-.1h.3a.2.2,0,0,1,.2.2c.1.2-.1.4-.3.5a1.1,1.1,0,0,1-.8.2Z" transform="translate(-408.4 -370.5)" fill="#4b2508"/><path d="M427.6,376.1h.1v-.2h0c0,.1.1.1,0,.2a.1.1,0,0,1-.1.1Z" transform="translate(-408.4 -370.5)" fill="#4b2508"/><path d="M425.6,376.3c0-.1,0-.1.1-.1a.1.1,0,0,1,.1.1h-.2Z" transform="translate(-408.4 -370.5)" fill="#dbc190"/><path d="M427.5,375.9h.2a.1.1,0,0,1-.2,0Z" transform="translate(-408.4 -370.5)" fill="#dbc190"/><path d="M424.9,376.5v-.2a.4.4,0,0,0-.1-.3h0a.4.4,0,0,1,.1.3c0,.1,0,.2-.1.2Z" transform="translate(-408.4 -370.5)" fill="#4b2508"/><polygon points="20.1 6.8 20.1 6 20.1 6 20.1 6.8 20.1 6.8" fill="#4b2508"/><path d="M424.9,376.5v-.2h0c0,.1,0,.2-.1.2Z" transform="translate(-408.4 -370.5)" fill="#4b2508"/><path d="M425.9,375.6a.1.1,0,0,0-.1-.1h-1.2c-.1,0-.2,0-.2.1h.1c0-.1,0-.1.1-.1l.2.2h.7l.3-.2Z" transform="translate(-408.4 -370.5)" fill="#4b2508"/><path d="M425.2,375.8h-.8a.1.1,0,0,1,.1-.1h1a.1.1,0,0,0,.1-.1h.2a.1.1,0,0,1,.1.1h-.1a.1.1,0,0,0-.1.1h-.5Zm-.5-.2h0Zm-.1-.1h-.1c0-.1,0-.1.1-.1a.1.1,0,0,1,.1.1h-.1Z" transform="translate(-408.4 -370.5)" fill="#4b2508"/><path d="M422.8,376.1a.2.2,0,0,0,.2-.2h0a.2.2,0,0,1-.2.2Z" transform="translate(-408.4 -370.5)" fill="#4b2508"/><path d="M420.7,379.4h0l-.2-.3v-.4a.4.4,0,0,1,.1-.3l.3-.2h0l-.2.2c-.1,0-.1.2-.2.3a.5.5,0,0,0,.1.3c0,.1,0,.3.1.3Z" transform="translate(-408.4 -370.5)" fill="#4b2508"/><path d="M420.8,379.5a.1.1,0,0,1-.1-.1h-.1c0-.1-.1-.2-.1-.3v-.3c0-.2.1-.3.1-.4l.3-.2h0l-.3.2c0,.1-.1.2-.1.4v.3c0,.1.1.2.1.3h.2Z" transform="translate(-408.4 -370.5)" fill="#4b2508"/><path d="M420.5,378.7c0-.2,0-.3.1-.4h.2a.1.1,0,0,1-.1.1l-.2.4Z" transform="translate(-408.4 -370.5)" fill="#4b2508"/><path d="M428.7,379.5h0a.5.5,0,0,1-.2-.4c-.1,0-.1-.2,0-.3h.1a.3.3,0,0,0-.1.2.5.5,0,0,0,.2.4Z" transform="translate(-408.4 -370.5)" fill="#4b2508"/><path d="M429,379.1h0l-.5-.2v-.5h.1a.1.1,0,0,0-.1.1c0,.1,0,.2.1.2a.4.4,0,0,0,.4.2h.4c.1,0,.1-.2.2-.2s-.1.2-.2.3Z" transform="translate(-408.4 -370.5)" fill="#4b2508"/><path d="M428.5,382a.1.1,0,0,1-.1.1.6.6,0,0,1-.1.4c0,.1-.1.2-.2.3l-.3.2h-2.3l-.3.2-.4-.2h-2.3l-.3-.2c-.1-.1-.2-.2-.2-.3a.6.6,0,0,1-.1-.4h0v-5.5h6.5V382Z" transform="translate(-408.4 -370.5)" fill="#dbc190"/><path d="M425.2,383.4h-.1l-.3-.2h-2.3l-.3-.2c-.1-.1-.2-.2-.2-.3s-.1-.2-.2-.4h0v-5.5h6.6V382h0l-.2.4c0,.1-.1.2-.2.3l-.3.2h-2.3l-.3.2Zm-1-.3h.6l.4.2c0-.1.1-.2.3-.2h2.3l.3-.2c.1-.1.2-.2.2-.3a.6.6,0,0,0,.1-.4h0v-5.5h-6.5V382h0a.6.6,0,0,0,.1.4c0,.1.1.2.2.3l.3.2h1.7Z" transform="translate(-408.4 -370.5)" fill="#4b2508"/><rect x="13.8" y="6.3" width="2.8" height="2.81" fill="#d90037"/><path d="M425,379.7h-2.8v-2.8H425v2.9Zm0-2.8h-2.8v2.8H425v-2.8Z" transform="translate(-408.4 -370.5)" fill="#4b2508"/><path d="M423.9,379h-.2v.2h.1a.1.1,0,0,0,.1.1h.2c.2,0,.3-.2.3-.4s.2-.3.3-.2v.2h-.2v.2s.3-.1.3-.3,0-.2-.2-.3l-.3.2c-.1.2-.1.4-.3.4s-.2-.2-.2-.3Z" transform="translate(-408.4 -370.5)" fill="#fff"/><path d="M423.5,379.1v.2h-.1a.1.1,0,0,1-.1.1h-.2c-.2,0-.3-.2-.3-.4s-.2-.3-.3-.2v.2h.1v.2a.4.4,0,0,1-.1-.6.5.5,0,0,1,.4.2c.1.2.1.4.3.4s.2-.2.2-.3h.2Z" transform="translate(-408.4 -370.5)" fill="#fff"/><path d="M423.8,377.9l.4-.4h.1a.3.3,0,0,1,.5,0c.2.1.1.3,0,.4s-.2,0-.3,0v-.2h.2a.2.2,0,0,0-.2-.2h-.2v.2h-.1l-.4.4-1.4,1.6h-.1Z" transform="translate(-408.4 -370.5)" fill="#f9eb2e"/><path d="M422.8,378a6.7,6.7,0,0,0,.4,1.2h.8a6.7,6.7,0,0,0,.4-1.2l-.8-1.1Z" transform="translate(-408.4 -370.5)" fill="#fff"/><path d="M423.7,377.3l.5.8a2.3,2.3,0,0,1-.3.9h-.2Z" transform="translate(-408.4 -370.5)" fill="#f9eb2e"/><path d="M423.5,377.3l-.6.8.3.9h.3Z" transform="translate(-408.4 -370.5)" fill="#f9eb2e"/><rect x="16.9" y="6.3" width="2.8" height="2.81" fill="#f9eb2e"/><path d="M428.1,379.7h-2.8v-2.8h2.8v2.9Zm0-2.8h-2.8v2.8h2.8v-2.8Z" transform="translate(-408.4 -370.5)" fill="#4b2508"/><path d="M428.1,382.1v.4l-.2.2h-2.4V380h2.8v2Z" transform="translate(-408.4 -370.5)" fill="#f9eb2e"/><path d="M425.3,382.9h0V380h2.8v2h0c0,.1,0,.2-.1.2h0a.3.3,0,0,1-.1.2h-2.6Zm2.8-2.9h-2.8v2.9h.6c.1-.1.2-.1.2,0h1.6l.2-.2h.1v-.2h0v-2Z" transform="translate(-408.4 -370.5)" fill="#4b2508"/><path d="M426,380.8Z" transform="translate(-408.4 -370.5)" fill="#3227fc"/><path d="M426,380.8Z" transform="translate(-408.4 -370.5)" fill="#3227fc"/><path d="M425.9,380.3h.1c0,.1,0,.1-.1.1Z" transform="translate(-408.4 -370.5)" fill="#3227fc"/><path d="M427.5,380.6h0c.1,0,.1,0,.1.1s0,0-.1.1h0v.2h0c-.1,0-.1,0-.1-.1h0a.1.1,0,0,0-.1.1h-.2a.1.1,0,0,1-.1-.1h-.1c-.1,0-.2.1-.3,0h-.1c-.1,0-.1,0-.1-.1h-.7a.1.1,0,0,0,.1-.1h.1a.1.1,0,0,0,.1-.1h.2a.1.1,0,0,1,.1-.1h1.3c0,.1,0,.1-.1.1Z" transform="translate(-408.4 -370.5)" fill="#d90037"/><path d="M427,380.7h.3c-.2-.1-.2-.1-.3,0h0Z" transform="translate(-408.4 -370.5)" fill="#f9eb2e"/><path d="M426,380.3Z" transform="translate(-408.4 -370.5)" fill="#f9eb2e"/><path d="M426,380.3Z" transform="translate(-408.4 -370.5)" fill="none"/><path d="M426.4,381Z" transform="translate(-408.4 -370.5)" fill="#f9eb2e"/><path d="M426.7,380.7h-.1Z" transform="translate(-408.4 -370.5)" fill="none"/><path d="M426.1,380.6h0l.2-.2h-.1a.1.1,0,0,1-.1.1Z" transform="translate(-408.4 -370.5)" fill="#3227fc"/><polygon points="17.7 10.1 17.7 10.1 17.7 10.1 17.7 10.1 17.7 10.1" fill="#d90037"/><path d="M426.2,381.2h.1a.1.1,0,0,1-.1-.1Z" transform="translate(-408.4 -370.5)" fill="#3227fc"/><path d="M427.4,381.3Z" transform="translate(-408.4 -370.5)" fill="#3227fc"/><path d="M427,381.2a.1.1,0,0,1,.1.1H427Z" transform="translate(-408.4 -370.5)" fill="#3227fc"/><path d="M426.4,381.3h0Z" transform="translate(-408.4 -370.5)" fill="#3227fc"/><path d="M426.1,380.3h0Z" transform="translate(-408.4 -370.5)" fill="#3227fc"/><path d="M426,380.6Z" transform="translate(-408.4 -370.5)" fill="#d90037"/><path d="M426.2,380.9h0Z" transform="translate(-408.4 -370.5)" fill="none"/><path d="M426.3,380.8h0Z" transform="translate(-408.4 -370.5)" fill="none"/><path d="M427.2,381h0a.1.1,0,0,0,.1-.1Z" transform="translate(-408.4 -370.5)" fill="none"/><path d="M427,380.9Z" transform="translate(-408.4 -370.5)" fill="#f9eb2e"/><path d="M427.4,381Z" transform="translate(-408.4 -370.5)" fill="#f9eb2e"/><path d="M427.1,380.8Z" transform="translate(-408.4 -370.5)" fill="#d90037"/><path d="M427.5,380.4Z" transform="translate(-408.4 -370.5)" fill="#d90037"/><path d="M427.3,380.7Z" transform="translate(-408.4 -370.5)" fill="#d90037"/><path d="M427,380.7Z" transform="translate(-408.4 -370.5)" fill="#d90037"/><path d="M426.9,380.6Z" transform="translate(-408.4 -370.5)" fill="#d90037"/><path d="M425.8,380.5Z" transform="translate(-408.4 -370.5)" fill="#f9eb2e"/><path d="M425.8,380.5Z" transform="translate(-408.4 -370.5)" fill="none"/><path d="M426,382.1h0Z" transform="translate(-408.4 -370.5)" fill="#3227fc"/><path d="M426,382.1Z" transform="translate(-408.4 -370.5)" fill="#3227fc"/><path d="M425.9,381.5Z" transform="translate(-408.4 -370.5)" fill="#3227fc"/><path d="M427.5,381.9h0c.1.1.1.1.1.2h-.3v.2h-.8c.1,0,.1,0,.1-.1h-.4c0-.1,0-.1.1-.1h0a.1.1,0,0,0-.1-.1h1.4Z" transform="translate(-408.4 -370.5)" fill="#d90037"/><path d="M427,382h0c0-.1,0-.1.1-.1H427Z" transform="translate(-408.4 -370.5)" fill="#f9eb2e"/><path d="M426,381.6Z" transform="translate(-408.4 -370.5)" fill="#f9eb2e"/><path d="M426,381.6Z" transform="translate(-408.4 -370.5)" fill="none"/><path d="M426.4,382.2Z" transform="translate(-408.4 -370.5)" fill="#f9eb2e"/><path d="M426.7,382h-.1Z" transform="translate(-408.4 -370.5)" fill="none"/><path d="M426.1,381.9h.2v-.2h-.1v.2Z" transform="translate(-408.4 -370.5)" fill="#3227fc"/><polygon points="17.7 11.4 17.7 11.3 17.7 11.3 17.7 11.4 17.7 11.4" fill="#d90037"/><path d="M426.2,382.5h.1a.1.1,0,0,0-.1-.1Z" transform="translate(-408.4 -370.5)" fill="#3227fc"/><path d="M427.4,382.6Z" transform="translate(-408.4 -370.5)" fill="#3227fc"/><path d="M427,382.5h0Z" transform="translate(-408.4 -370.5)" fill="#3227fc"/><path d="M426.4,382.6h0Z" transform="translate(-408.4 -370.5)" fill="#3227fc"/><path d="M426.1,381.6h0Z" transform="translate(-408.4 -370.5)" fill="#3227fc"/><path d="M426.2,382.1h0Z" transform="translate(-408.4 -370.5)" fill="none"/><path d="M426.3,382.1h0Z" transform="translate(-408.4 -370.5)" fill="none"/><path d="M427.2,382.2Z" transform="translate(-408.4 -370.5)" fill="none"/><path d="M427,382.2Z" transform="translate(-408.4 -370.5)" fill="#f9eb2e"/><path d="M427.4,382.2h-.2c0-.1,0-.1-.1-.1h0c.1,0,.1,0,.1.1h.2Z" transform="translate(-408.4 -370.5)" fill="#f9eb2e"/><path d="M427.1,382h.1a.1.1,0,0,0-.1-.1Z" transform="translate(-408.4 -370.5)" fill="#d90037"/><path d="M427.5,381.7Z" transform="translate(-408.4 -370.5)" fill="#d90037"/><path d="M427.3,382h-.2a.1.1,0,0,1-.1.1h.3Z" transform="translate(-408.4 -370.5)" fill="#d90037"/><path d="M427,382h0Z" transform="translate(-408.4 -370.5)" fill="#d90037"/><path d="M425.8,381.7Z" transform="translate(-408.4 -370.5)" fill="#f9eb2e"/><path d="M425.8,381.7Z" transform="translate(-408.4 -370.5)" fill="none"/><path d="M422.2,382.1v.4l.2.2H425V380h-2.8v2Z" transform="translate(-408.4 -370.5)" fill="#f9eb2e"/><path d="M425,382.9h-2.6a.3.3,0,0,1-.1-.2h0c-.1,0-.1-.1-.1-.2h0v-2H425v2.9Zm-.7-.2h.7V380h-2.8v2h0c0,.1,0,.2.1.2h.1l.2.2h1.6c0-.1,0-.1.1-.1Z" transform="translate(-408.4 -370.5)" fill="#4b2508"/><path d="M422.5,382.6h.3V380h-.3v2.6Z" transform="translate(-408.4 -370.5)" fill="#d90037"/><path d="M422.8,382.8h-.3V380h.3v2.8Zm0-2.8h-.3v2.6h.3V380Z" transform="translate(-408.4 -370.5)" fill="#d90037"/><path d="M424.1,382.8V380h-.3v2.8Z" transform="translate(-408.4 -370.5)" fill="#d90037"/><path d="M423.8,382.8V380h.3v2.8Zm.3-2.8h-.3v2.8h.3V380Z" transform="translate(-408.4 -370.5)" fill="#d90037"/><path d="M424.7,380h-.3v2.7h.3Z" transform="translate(-408.4 -370.5)" fill="#d90037"/><path d="M424.7,382.8h-.3V380h.3v2.8Zm0-2.8h-.3v2.7h.3V380Z" transform="translate(-408.4 -370.5)" fill="#d90037"/><path d="M429.6,379.9a1.1,1.1,0,0,0,.7-1.1.8.8,0,0,0-.3-.7.8.8,0,0,0-.7-.3h0a1.3,1.3,0,0,1,.7.3,1.1,1.1,0,0,1,.3.8c0,.9-.5,1-.7,1.1Z" transform="translate(-408.4 -370.5)" fill="#4b2508"/><path d="M429.6,379.8a.9.9,0,0,0,.7-1,1.2,1.2,0,0,0-.4-.8c-.1-.2-.3-.2-.5-.2h0l.6.2a1.4,1.4,0,0,1,.3.9.9.9,0,0,1-.7,1Z" transform="translate(-408.4 -370.5)" fill="#4b2508"/><rect x="17.3" y="6.3" width="0.4" height="2.77" fill="#d90037"/><path d="M426.1,379.6h-.4v-2.7h.4v2.7Zm0-2.7h-.4v2.7h.4v-2.7Z" transform="translate(-408.4 -370.5)" fill="#d90037"/><rect x="18.1" y="6.3" width="0.4" height="2.77" fill="#d90037"/><path d="M426.9,379.6h-.4v-2.7h.4v2.7Zm0-2.7h-.4v2.7h.4v-2.7Z" transform="translate(-408.4 -370.5)" fill="#d90037"/><rect x="18.9" y="6.3" width="0.4" height="2.77" fill="#d90037"/><path d="M427.7,379.6h-.4v-2.7h.4v2.7Zm0-2.7h-.4v2.7h.4v-2.7Z" transform="translate(-408.4 -370.5)" fill="#d90037"/><path d="M423.5,380v2.8h-.4V380Z" transform="translate(-408.4 -370.5)" fill="#d90037"/><path d="M423.4,382.8h-.3V380h.4v2.8Zm.1-2.8h-.4v2.8h.4V380Z" transform="translate(-408.4 -370.5)" fill="#d90037"/></g></g></svg>