<?xml version="1.0" encoding="utf-8"?>
<!-- Generator: Adobe Illustrator 23.0.1, SVG Export Plug-In . SVG Version: 6.00 Build 0)  -->
<svg version="1.1" id="Layer_1" xmlns="http://www.w3.org/2000/svg" xmlns:xlink="http://www.w3.org/1999/xlink" x="0px" y="0px"
	 viewBox="0 0 33.6 19.6" enable-background="new 0 0 33.6 19.6" xml:space="preserve">
<g>
	<path fill="#000066" d="M-0.13-0.27h33.79v20.03H-0.13V-0.27z"/>
	<path fill="#BD1021" d="M-0.13,9.75L33.66-0.27v20.03L-0.13,9.75z"/>
	<path fill="#FFFFFF" d="M3.49,9.75l30.17-8.94v17.88"/>
	<g transform="translate(-250)">
		<path d="M273.14,10.87c0.3,0.02,0.29,0.29,0.29,0.29l1.06,0.02c0.14-0.33,0.28-0.29,0.54-0.13c0.25,0.15,0.51,0.22,0.51,0.22
			c0.1-0.47,0.86-0.38,0.86-0.38c0.32-0.68,0.35-0.67,0.16-0.76c-0.19-0.09-0.27-0.23-0.27-0.23c-0.18-0.2-0.28-0.48-0.3-0.65
			c-0.02-0.17-0.25,0.09-0.29,0.03c-0.04-0.05-0.38-0.02-0.38-0.02c0.08,0.08-0.2,0.03-0.2,0.03c0.03,0.02,0,0.09,0,0.09
			c-0.03-0.03-0.24-0.06-0.24-0.06c-0.02,0.04-0.07,0.09-0.07,0.09c-0.12-0.05-0.35-0.04-0.35-0.04c-0.34,0-0.55,0.09-0.64,0.14
			c-0.1,0.05-0.44,0.2-0.72,0.45s-0.44,0.21-0.44,0.21c-0.08,0.27-0.75,0.6-0.75,0.6c-0.11,0.09-0.44,0.13-0.62,0
			c-0.17-0.13,0-0.36,0-0.36c0.06-0.11,0.13-0.1,0.13-0.47c0-0.25,0.29-0.45,0.59-0.74c0.36-0.35,0.87-0.94,0.87-0.94
			c0,0.18,0.11,0.21,0.11,0.21c0.1-0.18,0.24-0.33,0.24-0.33c0.01,0.02,0.03,0.03,0.03,0.03c0.11-0.14,0.18-0.19,0.18-0.19
			c-0.04-0.01-0.35,0-0.65,0.23c-0.3,0.23-0.5,0.15-0.5,0.15c-0.21-0.06-0.22-0.2-0.22-0.2c-0.15-0.57,0.44-0.98,0.44-0.98
			c-0.79-0.17-0.22-1.06,0.76-1.44c0.98-0.38,0.97-0.55,0.97-0.55c0.06,0.06,0.1,0.16,0.1,0.16c0.01-0.01,0.08-0.1,0.65-0.32
			c0.56-0.22,0.84-0.41,0.84-0.41c0.07,0.12,0.06,0.21,0.06,0.21c1.55-0.48,3.07-1.59,3.07-1.59c0.04,0.09,0.02,0.23,0.02,0.23
			c0.25-0.21,1.16-0.69,1.16-0.69c0.02,0.31-0.27,0.43-0.27,0.43c0.03,0.04,0.05,0.12,0.05,0.12c0.15-0.07,0.84-0.5,0.84-0.5
			c0.25,0.19,0.02,0.51,0.02,0.51c0.09-0.01,0.16-0.08,0.16-0.08c0.06,0.33-0.35,0.62-0.35,0.62c0.07,0,0.19-0.06,0.19-0.06
			c-0.08,0.36-0.85,0.76-0.85,0.76c0.11,0.09,0.01,0.21-0.09,0.26c-0.09,0.05-0.26,0.17-0.21,0.22c0.05,0.05,0.39-0.17,0.39-0.17
			c0.06,0.15-0.38,0.45-0.38,0.45c0.31,0.04,1.15-0.31,1.15-0.31c-0.07,0.29-0.39,0.52-0.79,0.65c-0.4,0.13-0.37,0.15-0.37,0.15
			c0.07,0.05,0.62-0.09,0.62-0.09c-0.16,0.33-0.73,0.55-0.73,0.55c0.16,0.12,0.37-0.02,0.58-0.15c0.21-0.13,0.5-0.24,0.82-0.34
			c0.32-0.1,0.55-0.02,0.55-0.02c0.27-0.08,0.49,0.03,0.49,0.03c0.51,0.04,0.56,0.2,0.56,0.2c0.06,0.01,0.1,0.03,0.23,0.12
			s0.12,0.35,0.12,0.48c-0.01,0.13-0.05,0.13-0.07,0.17s-0.03,0.08-0.03,0.13s-0.13,0.36-0.92,0.36c-0.79,0-1.2,0-1.2,0
			c-0.07,0-0.14,0.03-0.14,0.03c-0.33,0.15-0.16-0.1-0.55,0.19c-0.4,0.29-0.6,0.24-0.6,0.24c-0.07,0.07-0.48,0.41-0.72,0.55
			s-0.2,0.12,0.01,0.2c0.21,0.08,0.52,0,0.52,0c-0.2,0.12-0.06,0.17-0.06,0.17c0.26-0.14,0.42-0.09,0.42-0.09
			c0.08,0.2-0.22,0.53-0.22,0.53c0.12,0.01,0.34,0,0.34,0c-0.05,0.14-0.27,0.29-0.43,0.34c-0.16,0.05-0.13,0.06-0.08,0.15
			c0.05,0.09,0.01,0.17,0.01,0.17c-0.28-0.17-0.29-0.02-0.29-0.02c-0.03,0.21-0.03,0.5-0.03,0.5c-0.2-0.09-0.21,0.03-0.21,0.03
			c-0.05,0.19-0.29,0.4-0.29,0.4c-0.01-0.12-0.13-0.15-0.13-0.15c-0.13,0.22-0.36,0.35-0.36,0.35c-0.03,0.19,0.03,0.45,0.03,0.45
			c-0.15-0.03-0.21-0.03-0.23,0.01c-0.02,0.03,0.03,0.05,0.03,0.05l1.96,0.04c0.03,0,0.14,0.01,0.15,0.2s-0.17,0.2-0.17,0.2
			l-2.15-0.05c0,0,0.01,0.05-0.1,0.1c-0.11,0.05-0.08-0.06-0.11,0.18c-0.03,0.23-0.46-0.02-0.46-0.02
			c-0.07,0.09-0.24,0.21-0.24,0.21c-0.1-0.26-0.2-0.34-0.35-0.11c-0.15,0.22,0.28,0.18,0.28,0.18s2.52-0.33,2.66-0.34
			c0.14-0.01,0.29,0,0.35,0.17s-0.3,0.2-0.3,0.2l-2.58,0.25c-0.05,0.14-0.27,0.13-0.27,0.13c0.02,0.13-0.14,0.21-0.22,0.26
			c-0.08,0.05-0.33,0.03-0.33,0.03c-0.3,0.18-0.45,0.04-0.45,0.04c-0.2,0.08-0.32,0.04-0.48-0.02c-0.16-0.06-0.15-0.23-0.15-0.23
			l-1.63,0.15c-0.08,0.02-0.13,0.07-0.13,0.07c0.06,0.07-0.12,0.22-0.12,0.22c0.05,0.03,0.14,0.11,0.16,0.29
			c0.01,0.19-0.26,0.22-0.12,0.36c0.14,0.13,0.39,0.02,0.67-0.1s0.56-0.11,0.68-0.1c0.12,0,0.46,0.08,0.67,0.14
			c0.21,0.07,0.28,0.03,0.3-0.07c0.01-0.1,0.11-0.12,0.11-0.12c-0.03,0.09,0.03,0.14,0.03,0.14c0.08,0.01,0.22-0.06,0.22-0.06
			c-0.01,0.07-0.12,0.11-0.12,0.11c-0.21,0.12,0.08,0.08,0.08,0.08c0.56-0.1,0.76-0.09,0.91-0.08c0.15,0.01,0.84,0.27,0.84,0.27
			c0.03-0.06,0.01-0.21,0.01-0.21c0.18,0.04,0.25,0.13,0.25,0.13c0.07-0.06,0.02-0.17,0.02-0.17c0.57,0.28-0.12,0.41-0.3,0.47
			c-0.18,0.05-0.18,0.12-0.18,0.12c0.15-0.04,0.26-0.06,0.38-0.07c0.13-0.01,0.08,0,0.38-0.05c0.3-0.05,0.45,0.06,0.45,0.06
			c-0.25,0.01-0.33,0.08-0.33,0.08c0.16,0.1,0.01,0.18,0.01,0.18c-0.23-0.26-0.42,0.01-0.42,0.01c0.08-0.01,0.31,0.03,0.37,0.07
			c0.05,0.03,0.17,0.08,0.32,0.14c0.21,0.09,0.17,0.03,0.33,0.09c0.16,0.05,0.1,0.19,0.1,0.19c-0.07-0.11-0.22-0.15-0.22-0.15
			c-0.01,0.15-0.18,0.18-0.18,0.18c0.21-0.21-0.24-0.3-0.46-0.3c-0.21,0-0.37,0.12-0.37,0.12c0.43,0.36,0.73,0.24,0.73,0.24
			c-0.05,0.13-0.41,0.08-0.41,0.08c0.16,0.11,0.15,0.19,0.15,0.19c-0.09-0.08-0.23-0.04-0.54-0.22c-0.31-0.18-0.58-0.12-0.58-0.12
			c0.3,0.29-0.11,0.45-0.11,0.45c-0.15,0.08,0.06,0.18,0.06,0.18c-0.19,0.03-0.22-0.14-0.22-0.14c-0.1-0.02-0.24,0.09-0.24,0.09
			c0.01-0.17,0.27-0.09,0.27-0.27c0.01-0.18-0.24-0.32-0.97-0.23c-0.73,0.09-0.94-0.12-0.94-0.12c-0.06,0-0.07,0.06-0.07,0.06
			c0.12,0.1,0.17,0.15,0.15,0.22c-0.02,0.07,0.04,0.1,0.04,0.1c-0.13-0.01-0.14-0.15-0.14-0.15c0,0.06-0.03,0.06-0.07,0.12
			c-0.04,0.06,0,0.14,0,0.14c-0.06-0.04-0.16-0.1-0.06-0.22c0.08-0.1-0.16-0.22-0.16-0.22c-0.09-0.08-0.33-0.01-0.33-0.01
			c-0.5,0.09-0.79-0.19-0.79-0.19c-0.06,0-0.16-0.03-0.16-0.03c-0.52,0.21-0.98-0.24-0.98-0.24c-0.4,0.07-0.57-0.1-0.7-0.27
			c-0.12-0.17-0.14-0.18-0.3-0.26c-0.16-0.09-0.31-0.33-0.16-0.45c0.13-0.11,0.09-0.14,0.09-0.14c-0.21-0.31,0.37-0.41,0.38-0.48
			c0.01-0.11,0.13-0.17,0.26-0.18c0.13-0.01,0.13,0,0.21-0.07c0.08-0.08,0.25,0.02,0.25,0.02c0.03-0.02,0.32-0.22,0.57-0.12
			c0.25,0.1,0.46,0.03,0.46,0.03c0.18-0.03,1.65-0.21,1.65-0.21c0.1-0.13,0.16-0.28,0.57-0.36c0.41-0.08,0.71-0.31,0.71-0.31
			c-0.07-0.07-0.19-0.06-0.25-0.07c-0.06-0.01-0.19-0.1-0.19-0.1c-0.07,0.03-0.11,0.01-0.64,0.3c-0.47,0.26-0.49-0.25-0.49-0.25
			l-1.04,0c-0.02,0.19-0.18,0.27-0.18,0.27l-0.38,0.02c-0.21-0.1-0.21-0.43-0.21-0.43c-1.14,0.02-1.77,0.38-1.77,0.38
			c-1.29-0.59-2.3-0.72-2.3-0.72c1.57-0.15,2.4-0.54,2.4-0.54c0.86,0.46,1.68,0.47,1.68,0.47c0.03-0.28,0.24-0.35,0.24-0.35
			L273.14,10.87z"/>
		<path fill="#FFC221" d="M271.27,13.18c-0.33,0.17-0.27,0.26-0.24,0.32c0.03,0.05,0.03,0.1-0.06,0.18
			c-0.09,0.08-0.08,0.11-0.08,0.11c0.01,0.28,0.24,0.34,0.33,0.41c0.08,0.06,0.21,0.24,0.21,0.24c0.17,0.21,0.35,0.22,0.48,0.22
			s0.12-0.01,0.05-0.06c-0.06-0.05-0.2-0.15-0.2-0.15c0.18,0.05,0.34,0.22,0.34,0.22c0.33,0.32,0.64,0.28,0.78,0.27
			c0.14-0.02,0.11-0.09,0.11-0.09c-0.01-0.01-0.14-0.02-0.14-0.02c-0.5-0.04-0.65-0.33-0.65-0.33c0.3,0.26,0.77,0.32,0.92,0.31
			c0.15,0,0.14,0.03,0.11,0.04c-0.03,0.01-0.08,0-0.14,0c-0.07,0-0.07,0.01-0.05,0.04s0.08,0.03,0.16,0.03
			c0.08,0,0.02,0.01,0.22,0.15c0.21,0.14,0.72,0.03,0.72,0.03c-0.33-0.07-0.38-0.21-0.38-0.21c-0.45,0.05-0.64-0.19-0.64-0.19
			c-0.08-0.07-0.32-0.18-0.32-0.18c-0.26-0.1-0.3-0.3-0.3-0.3c0.07,0.09,0.21,0.2,0.39,0.24c0.18,0.04,0.23,0.07,0.23,0.07
			c-0.08,0.01-0.13-0.01-0.13-0.01c-0.18-0.05-0.08,0.02-0.08,0.02c0.2,0.14,0.25,0.13,0.25,0.13c0.51,0.05,0.26-0.13,0.26-0.13
			c0.36,0.08,0.42-0.04,0.42-0.04c0.08,0.14,0.35,0.09,0.35,0.09c-0.37,0.16-0.09,0.11-0.09,0.11c0.37-0.06,0.44,0.02,0.44,0.02
			c0.1,0.08,0.2,0.07,0.2,0.07s0.07,0,0.21,0.03c0.14,0.03,0.36,0.13,0.56,0.11c0.21-0.02,0.24,0.03,0.24,0.03
			c-0.04-0.01-0.13-0.02-0.29,0.04c-0.16,0.06-0.43,0.08-0.83,0s-0.43-0.07-0.43-0.07c0.09,0.06,0.18,0.15,0.2,0.21
			s0.09,0.06,0.09,0.06c0.03-0.08,0.15-0.11,0.15-0.11c0.08,0.06,0.29,0.15,0.29,0.15c0.02-0.04,0-0.07,0-0.07
			c0.15,0.13,0.33,0.09,0.33,0.09c0.05-0.03,0.03-0.1,0.03-0.1c0.06,0,0.07,0.03,0.12,0.06c0.04,0.03,0.18,0.01,0.18,0.01
			c-0.05-0.02-0.09-0.09-0.09-0.09c0.2-0.12,0.64-0.07,0.64-0.07c0.32,0.05,0.28,0.23,0.28,0.23c0.06,0.03,0.15,0.11,0.15,0.11
			c0.03-0.06,0-0.13,0-0.13c0.15,0.06,0.18,0.21,0.18,0.21c0.17-0.17-0.16-0.36-0.16-0.36c0.16-0.02,0.33-0.01,0.44,0.01
			c0.11,0.01,0.26,0.06,0.38,0.16c0.12,0.09,0.35,0.13,0.35,0.13c-0.01-0.04-0.13-0.1-0.15-0.12c-0.03-0.01-0.04-0.05-0.04-0.05
			c0.11,0.02,0.18,0.01,0.18,0.01c-0.38-0.21-0.48-0.31-0.48-0.31c0.14,0.02,0.22-0.06,0.22-0.06c-0.3,0.01-0.31-0.06-0.31-0.06
			c0.04,0.01,0.17,0.04,0.36,0.01c0.18-0.03,0.43,0,0.43,0c-0.13-0.19-0.64-0.16-0.8-0.15c-0.16,0.01-0.22-0.01-0.22-0.01
			c0.03-0.01,0.05-0.04,0.18-0.04c0.13,0,0.25,0.01,0.4-0.08c0.14-0.09,0.34-0.06,0.34-0.06c-0.05-0.08-0.28-0.11-0.48,0
			c-0.2,0.11-0.38,0.08-0.38,0.08c0.32-0.04,0.41-0.14,0.41-0.14c-0.1-0.02-0.15,0.01-0.34,0.04c-0.19,0.03-0.24-0.03-0.24-0.03
			c0.21-0.11,0.35-0.15,0.35-0.15c-0.18-0.03-0.34-0.1-0.34-0.1c-0.18,0.15-0.33,0.24-0.68,0.08c-0.35-0.17-0.54-0.15-0.54-0.15
			c0.31-0.16,0.63-0.09,0.86,0.03c0.23,0.12,0.3,0.02,0.3,0.02c-0.07-0.04-0.06-0.08-0.06-0.08c0.56,0.26,0.81,0.1,0.93,0.02
			c0.12-0.08-0.06-0.18-0.06-0.18c-0.01,0.16-0.24,0.24-0.42,0.18c-0.18-0.05-0.35-0.12-0.61-0.22c-0.26-0.1-0.59-0.05-0.89,0.01
			c-0.3,0.06-0.34,0.03-0.37,0.01s-0.04-0.09-0.2-0.03c-0.16,0.06-0.52-0.09-0.74-0.14c-0.23-0.05-0.6-0.02-0.92,0.13
			s-0.48,0.12-0.57,0.08c-0.1-0.04-0.16-0.15-0.05-0.24c0.1-0.1,0.11-0.12,0.1-0.26c-0.01-0.14-0.16-0.22-0.16-0.22
			c0.14-0.13,0.17-0.16,0.13-0.21c-0.05-0.06,0.03-0.05,0.11-0.09c0.08-0.03,0.04-0.04,0.03-0.08c-0.02-0.04-0.07-0.04-0.07-0.04
			c-0.19,0.01-0.29-0.04-0.29-0.04c-0.31-0.13-0.6,0.12-0.6,0.12c-0.18-0.12-0.22-0.04-0.25-0.01c-0.03,0.03-0.09,0.05-0.17,0.06
			c-0.07,0.01-0.19,0.03-0.23,0.09c0,0-0.03,0.05,0.01,0.1c0,0,0.05,0.06-0.04,0.14c-0.09,0.08-0.12,0.1-0.09,0.17
			c0.03,0.07,0.02,0.13-0.01,0.18c0,0-0.04-0.04-0.03-0.09c0.01-0.05,0.01-0.08,0-0.11c0,0-0.09,0.08-0.1,0.13
			c0,0-0.04-0.08,0.09-0.19c0.12-0.11,0.18-0.17,0.15-0.21C271.39,13.12,271.3,13.17,271.27,13.18L271.27,13.18z"/>
		<path d="M271.63,14.4c0,0-0.16-0.11-0.14-0.25c0.02-0.15,0.02-0.17,0-0.2c0,0-0.03,0.01-0.03,0.07c0,0.05-0.01,0.11-0.01,0.12
			c0,0-0.08-0.12-0.11-0.14c0,0,0.03-0.13-0.02-0.18c-0.04-0.05-0.09-0.06-0.14-0.04c-0.07,0.02-0.12,0.08,0.11,0.25
			c0,0,0.09,0.06,0.15,0.2C271.5,14.37,271.61,14.39,271.63,14.4z M272.4,14c0,0-0.01-0.08,0.07-0.23c0.08-0.15,0.03-0.26,0.01-0.29
			s-0.03-0.02,0.05-0.09c0.1-0.08-0.04-0.18,0.13-0.31c0,0,0.11-0.09,0.14-0.12c0,0-0.18,0.09-0.3,0.13
			c-0.12,0.04-0.57,0.24-0.47,0.37c0.1,0.13,0.09,0.14,0.07,0.19c0,0-0.27-0.13-0.17-0.33c0,0,0.04-0.08,0.16-0.18
			c0.1-0.08,0.04,0.02,0.25-0.09c0,0,0.17-0.09,0.25-0.21c0,0-0.11,0.06-0.15,0.07c0,0-0.24,0.04-0.34,0.13
			c-0.1,0.09-0.3,0.25-0.23,0.43c0,0-0.24-0.03-0.3-0.25c0,0-0.45,0.49,0.49,0.72C272.07,13.94,272.24,13.98,272.4,14z"/>
		<path fill="#FFC221" d="M276.52,12.36c0.35-0.05,2.38-0.32,2.56-0.34c0.2-0.02,0.28-0.04,0.35,0.1c0.08,0.16-0.28,0.17-0.28,0.17
			l-2.42,0.24c-0.12,0.01-0.15-0.03-0.15-0.03c-0.02-0.03-0.06-0.08-0.09-0.11C276.5,12.4,276.47,12.37,276.52,12.36L276.52,12.36z"
			/>
		<path fill="#5A3719" d="M271.57,13.34c0,0-0.26,0.49,0.77,0.61c0,0,0-0.05,0.04-0.13s0.13-0.23,0.05-0.33
			c-0.08-0.1,0.07-0.05,0.09-0.18c0.02-0.13-0.02-0.11,0.06-0.2c0,0-0.32,0.1-0.45,0.23c-0.12,0.13,0.17,0.22-0.01,0.36
			c0,0-0.14-0.05-0.23-0.18C271.89,13.51,271.69,13.52,271.57,13.34L271.57,13.34z"/>
		<path d="M272.57,13.94c0,0,0.25,0.2,0.56,0.19c0.3-0.01,0.43-0.08,0.51-0.19c0,0,0.06,0.08,0.06,0.14c0,0,0.26-0.19,0.71-0.03
			c0.45,0.17,0.31,0.12,0.41,0.13c0,0-0.19-0.03-0.63,0.15C273.74,14.52,272.56,14.45,272.57,13.94L272.57,13.94z"/>
		<path fill="#5A3719" d="M272.15,13.07c0,0,0.11,0.02,0.23-0.1C272.38,12.98,272.23,13,272.15,13.07z M271.29,13.99
			c0,0-0.21-0.15-0.08-0.18C271.21,13.81,271.31,13.79,271.29,13.99z"/>
		<path d="M275.91,14.91c0,0,0.11-0.18,0.44-0.18c0.33,0,0.36,0.13,0.78,0.16c0,0-0.49,0.12-0.84,0.01
			C276.11,14.84,275.95,14.89,275.91,14.91z"/>
		<path fill="#5A3719" d="M272.69,14.07c0,0,0.49,0.26,0.92-0.02c0,0,0.04,0.03,0.07,0.1c0,0,0.33-0.28,0.92,0.02
			c0,0-0.07-0.01-0.35,0.1C273.88,14.41,272.98,14.5,272.69,14.07z"/>
		<path d="M274.57,14.34c0,0,0.47,0.05,0.86,0.03c0.24-0.01,0.51-0.05,0.37,0.02c-0.13,0.07-0.07,0.08,0.49,0.03
			c0.56-0.05-0.01,0.09,0.38,0.14C276.68,14.56,275.75,14.98,274.57,14.34z"/>
		<path fill="#5A3719" d="M275.8,14.07c0,0,0.27-0.09,0.53,0.02c0.25,0.11,0.22,0.11,0.39,0.13c0,0-0.12,0.15-0.4,0.03
			C276.03,14.13,275.96,14.1,275.8,14.07z M276.1,14.82c0,0,0.27-0.12,0.57,0c0.04,0.02,0.12,0.05,0.19,0.06c0,0-0.23,0.06-0.46,0
			C276.3,14.86,276.23,14.84,276.1,14.82L276.1,14.82z M274.77,14.39c0,0,0.6,0.05,0.93-0.01c0,0-0.38,0.16,0.57,0.09
			c0,0,0.21-0.02,0.18,0.01c-0.03,0.03-0.04,0.05,0.06,0.08C276.51,14.56,275.81,14.84,274.77,14.39L274.77,14.39z"/>
		<path d="M271.77,13.94c0,0,0.01,0.04,0.14,0.09s0.21,0.15,0.23,0.2s0.1,0.13,0.21,0.15c0,0-0.47,0.09-0.68-0.13
			C271.67,14.25,271.51,14.1,271.77,13.94"/>
		<path fill="#5A3719" d="M275.47,14.91c0,0-0.19-0.01-0.44-0.09c-0.25-0.08-0.32-0.01-0.46-0.11c-0.14-0.1-0.43-0.04-0.49-0.03
			c-0.05,0.01-0.21,0-0.02-0.11c0,0-0.15,0-0.21-0.07c0,0-0.07,0.06-0.33,0.04c0,0,0.12,0.16-0.35,0.11c0,0,0.14,0.14,0.31,0.17
			s0.24,0.02,0.34-0.01c0,0-0.03,0.12,0.18,0.17c0.22,0.05,0.26,0.09,0.37,0.12c0,0,0.02-0.08-0.27-0.27c0,0,0.15-0.01,0.37,0.04
			C274.7,14.93,275.2,15.05,275.47,14.91L275.47,14.91z M275.59,15.1c0,0,0.05,0.1,0.19,0.07c0.14-0.02,0.38-0.06,0.6,0.04
			c0,0,0.04-0.17-0.41-0.18C275.97,15.03,275.68,15.05,275.59,15.1L275.59,15.1z M271.75,14c0,0-0.17,0.13-0.02,0.26
			c0.14,0.12,0.37,0.11,0.47,0.11c0,0-0.06-0.03-0.12-0.11c-0.06-0.08-0.06-0.13-0.18-0.17C271.79,14.04,271.77,14.02,271.75,14z
			 M271.57,13.34c0,0-0.26,0.49,0.77,0.61c0,0,0-0.05,0.04-0.13s0.13-0.23,0.05-0.33s0.07-0.05,0.09-0.18
			c0.02-0.13-0.02-0.11,0.06-0.2c0,0-0.32,0.1-0.45,0.23c-0.12,0.13,0.17,0.22-0.01,0.36c0,0-0.14-0.05-0.23-0.18
			C271.89,13.51,271.69,13.52,271.57,13.34L271.57,13.34z"/>
		<path d="M274.27,14.47c0,0,0.22-0.03,0.76,0.15c0.55,0.18,0.78,0.14,0.86,0.13c0,0-0.31,0.14-0.79-0.04
			C274.68,14.54,274.66,14.6,274.27,14.47L274.27,14.47z"/>
		<path fill="#FFC221" d="M277.71,14.36c0,0,0.13,0,0.2,0.03c0,0,0.05-0.04,0.16-0.05C278.07,14.34,278,14.27,277.71,14.36z
			 M277.34,14.09c0,0,0.13-0.01,0.16-0.06c0,0-0.06-0.07-0.16-0.11C277.34,13.92,277.36,14,277.34,14.09z M273.12,12.84
			c0,0-0.02-0.05,0.11-0.07c0.13-0.02,1.84-0.23,1.84-0.23s0.09,0,0.1,0.05c0.01,0.06-0.01,0.1-0.42,0.14
			c-0.41,0.04-1.5,0.16-1.5,0.16S273.13,12.91,273.12,12.84z"/>
		<path fill="#FFC221" d="M274.78,12.78c0,0,0,0.22,0.25,0.25c0.24,0.03,0.32-0.01,0.38-0.13c0.02-0.03,0.09-0.25-0.02-0.27
			c-0.04-0.01-0.12,0-0.17,0.02c-0.08,0.03-0.16,0.07-0.13,0.1c0.06,0.08,0.07,0.1,0.05,0.1c-0.06,0.02-0.1-0.03-0.11-0.06
			c-0.02-0.04,0.03-0.07-0.13-0.04C274.84,12.75,274.78,12.75,274.78,12.78L274.78,12.78z"/>
		<path fill="#FFC221" d="M275.81,12.61c0.13,0.01,0.12,0.25-0.03,0.36c-0.16,0.12-0.32,0.07-0.32,0.07
			c-0.08-0.03-0.07-0.02-0.01-0.11c0.06-0.08,0.09-0.19,0.05-0.27c-0.01-0.02,0.02-0.04,0.06-0.05
			C275.57,12.62,275.68,12.6,275.81,12.61z"/>
		<path fill="#FFC221" d="M275.92,12.63c0,0,0.09,0.1-0.02,0.29c0,0-0.05,0.05,0.06,0.05c0.11-0.01,0.36-0.11,0.33-0.25
			c0,0-0.01-0.03-0.07-0.03c-0.07,0-0.01-0.03,0.02-0.04c0.03-0.01,0.11-0.03-0.11-0.16c0,0-0.04-0.03-0.08-0.02
			c-0.03,0.01-0.15,0.05-0.15,0.11C275.9,12.61,275.92,12.63,275.92,12.63L275.92,12.63z"/>
		<path fill="#FFC221" d="M276.16,12.46c0,0,0.18,0.11,0.17,0.14c0,0.03-0.02,0.08,0.03,0.07c0.05,0,0.24-0.04,0.18-0.15
			c-0.05-0.11-0.1-0.15-0.19-0.18c-0.09-0.03-0.11,0.01-0.19,0.06C276.17,12.41,276.12,12.44,276.16,12.46z M275.21,12.62
			c0,0,0.03-0.08-0.13-0.11c0,0,0.07-0.05,0.2-0.02c0.13,0.03,0.12,0.1,0.12,0.11C275.4,12.6,275.3,12.59,275.21,12.62L275.21,12.62
			z M275.55,12.6c0,0,0.18-0.03,0.26-0.02c0,0-0.09-0.18-0.33-0.12C275.48,12.46,275.57,12.55,275.55,12.6L275.55,12.6z
			 M275.87,12.55c0,0,0-0.05,0.15-0.11c0,0-0.08-0.06-0.18-0.06c-0.12,0.01-0.14,0.05-0.14,0.05S275.83,12.47,275.87,12.55z
			 M275.93,12.37c0,0,0.1,0.02,0.16,0.07c0,0,0.09-0.09,0.17-0.11C276.25,12.33,276.1,12.26,275.93,12.37z"/>
		<path fill="#5A3719" d="M270.89,11.94c0,0,0.42-0.32,0.66-0.28c0.24,0.04,0.12,0.01,0.38-0.02c0.26-0.04,0.53-0.06,0.63-0.05
			c0,0-0.31-0.2-0.87-0.2c0,0-0.4,0.12-0.67,0.28c0,0-0.52-0.26-1.07-0.1C269.95,11.57,270.54,11.76,270.89,11.94L270.89,11.94z"/>
		<path fill="#FFC221" d="M275.38,12.49l0.07-0.01c0,0,0.12,0.13,0.03,0.13c-0.07,0-0.04-0.02-0.05-0.06
			C275.42,12.52,275.4,12.5,275.38,12.49z M274.85,12.5c0,0-0.04,0.05,0.04,0.04c0.1-0.01,0.08,0,0.18-0.06c0,0,0.07-0.06,0.19-0.02
			c0,0,0.1,0.03,0.19-0.01c0.08-0.04,0.1-0.03,0.15-0.03c0.04,0,0.04,0.01,0.1-0.03c0.06-0.04,0.16-0.01,0.23-0.06
			c0.07-0.05,0.15-0.01,0-0.1c0,0-0.03-0.03-0.03-0.05c0,0,0.06,0.01,0.1,0.05c0.04,0.04,0.12,0.02,0.13,0.02
			c0,0,0.01-0.12,0.14-0.22c0.13-0.11,0.13-0.12,0.06-0.12c-0.08,0-0.21-0.03-0.25,0c-0.04,0.03-0.43,0.25-0.65,0.29
			C275.2,12.23,275,12.29,274.85,12.5z M268.89,11.28c0,0,0.69,0.16,0.84,0.22c0,0,0.04-0.1-0.27-0.18c0,0,0.76-0.02,1.56,0.3
			c0,0,0.39-0.29,1.63-0.2c0,0,0-0.1,0.01-0.17c0,0-0.87-0.02-1.67-0.46C270.98,10.79,270.26,11.1,268.89,11.28L268.89,11.28z
			 M272.7,11.57c-0.05-0.62,0.22-0.68,0.22-0.68s0.13,0,0.26,0.02c0,0-0.21,0.22-0.16,0.67c0,0,0.02,0.07-0.16,0.07
			C272.7,11.65,272.7,11.57,272.7,11.57z"/>
		<path fill="#5A3719" d="M272.89,11.98c0,0-0.13-0.12-0.14-0.25c0,0,0-0.04,0.13-0.03c0.13,0,0.15-0.01,0.18,0.06
			c0.03,0.07,0.11,0.21,0.14,0.22L272.89,11.98z"/>
		<path fill="#FFC221" d="M273.17,11.67c-0.01-0.08-0.02-0.15-0.01-0.24c0.01-0.35,0.07-0.32,0.1-0.27l0.13,0
			c0,0-0.1-0.39-0.21-0.16c-0.11,0.22-0.1,0.37-0.09,0.55c0.01,0.1,0.02,0.17,0.04,0.2L273.17,11.67z"/>
		<path fill="#5A3719" d="M274.68,11.67c0,0,0.26,0.04-0.14,0.12c0,0,0.02,0.42,0.49,0.13c0,0,0.28-0.16,0.47-0.22
			c0,0,0.1-0.03,0.08-0.09c0,0,0.01-0.08-0.09-0.06c0,0-0.08,0-0.13-0.01c0,0-0.06-0.06-0.09-0.04c-0.04,0.02-0.12,0.01-0.06,0.08
			c0.07,0.07,0.09,0.05,0.12,0.03c0.03-0.02,0.18-0.07,0.04,0.04c-0.14,0.11-0.24-0.06-0.29-0.09L274.68,11.67z M273.39,11.72
			l-0.11,0c0,0-0.06,0.08-0.1-0.05l-0.05,0.08C273.12,11.75,273.26,12.21,273.39,11.72z"/>
		<path fill="#FFC221" d="M273.22,11.19c0,0-0.06,0.3,0.02,0.48l1.24,0.02c0,0-0.02-0.21,0-0.5h-0.18c0,0-0.02,0.24,0,0.39l-0.03,0
			c0,0-0.02-0.21,0-0.39h-0.15c0,0-0.02,0.22-0.01,0.39h-0.03c0,0-0.02-0.19,0-0.39h-0.14c0,0-0.03,0.2,0,0.39l-0.03,0
			c0,0-0.03-0.2,0-0.39h-0.16c0,0-0.04,0.19,0,0.39h-0.03c0,0-0.04-0.19,0-0.39h-0.16c0,0-0.04,0.21-0.01,0.39h-0.03
			c0,0-0.03-0.21,0.01-0.39h-0.15c0,0-0.04,0.18-0.01,0.39h-0.03c0,0-0.02-0.16,0.01-0.39L273.22,11.19L273.22,11.19z M274.53,11.74
			c0,0-0.03-0.54,0.08-0.68c0.12-0.14,0.14-0.11,0.34,0c0.2,0.11,0.46,0.23,0.5,0.25c0.04,0.01,0.1,0.03,0.1,0.13s0.02,0.13-0.15,0
			c-0.03-0.02-0.11-0.08-0.16-0.1c-0.15-0.04,0.04,0.03,0.09,0.1c0.05,0.06,0.08,0.05-0.04,0.08
			C275.17,11.54,274.76,11.67,274.53,11.74L274.53,11.74z"/>
		<path d="M274.97,11.35c0,0-0.09-0.1,0.02-0.12c0.11-0.02,0.12,0.16,0.14,0.27C275.15,11.61,274.99,11.39,274.97,11.35z
			 M274.8,11.82c0,0-0.13,0.04-0.05,0.08c0.09,0.04,0.33-0.14,0.25-0.13C274.92,11.78,274.8,11.82,274.8,11.82z M274.98,11.66
			c0,0,0.12-0.01,0.09,0.04c-0.02,0.05-0.07,0.02-0.08,0.01C274.98,11.69,274.89,11.66,274.98,11.66L274.98,11.66z"/>
		<path fill="#FFC221" d="M275.61,11.51c0,0,0.03,0.21,0.23,0.26c0,0,0.11,0.03,0.09-0.06c0,0-0.02-0.08-0.04-0.11
			c-0.02-0.03-0.1-0.05-0.1-0.05c-0.01,0-0.02-0.03,0.04-0.01c0.05,0.02,0.06,0.02,0.06-0.02c0-0.03-0.04-0.02-0.09-0.04
			c-0.02-0.01,0-0.02,0.02-0.02c0.02,0,0.07,0.02,0.07-0.05c0,0,0.01-0.04-0.05-0.04c-0.07,0-0.06-0.03-0.04-0.03
			c0.02,0,0.09,0.04,0.11-0.03c0.02-0.07-0.09-0.03-0.08-0.07s0.1,0.02,0.1-0.02c0.01-0.04,0.07-0.06-0.04-0.08
			c-0.05-0.01,0-0.03,0.06-0.02c0.06,0.01,0.1-0.06,0.14-0.08c0.04-0.02,0.24-0.13-0.03-0.1c-0.28,0.04-0.36,0.16-0.38,0.18
			C275.66,11.14,275.59,11.28,275.61,11.51L275.61,11.51z"/>
		<path fill="#FFC221" d="M276.26,11.67c0.04-0.01,0.07,0,0.08,0.02c0.05,0.08-0.06,0.05-0.12,0.11c-0.06,0.06-0.06,0.05-0.14,0.03
			c-0.08-0.02-0.11-0.13-0.11-0.13c-0.01-0.03,0.03-0.04,0.07-0.03C276.03,11.68,276.17,11.69,276.26,11.67L276.26,11.67z
			 M275.96,11.63c0,0,0.01,0.02,0.05,0.03s0.18,0.01,0.27-0.01c0,0,0.03-0.01,0.02-0.05c0,0,0-0.03-0.07-0.02
			c-0.07,0.01-0.18,0-0.21-0.01C275.97,11.56,275.94,11.57,275.96,11.63L275.96,11.63z M275.94,11.48c0,0,0,0.06,0.07,0.07
			c0.07,0.01,0.17,0.01,0.2,0c0.03-0.01,0.08-0.01,0.09-0.05c0-0.04,0.02-0.07-0.07-0.05c-0.09,0.02-0.2,0.01-0.21,0
			C276.01,11.46,275.95,11.44,275.94,11.48L275.94,11.48z M275.98,11.35c0,0-0.02,0.03-0.02,0.06c0,0.03,0.06,0.04,0.15,0.04
			c0.1,0,0.18-0.01,0.19-0.04c0.01-0.03,0.03-0.06-0.05-0.05c-0.08,0.01-0.17,0.01-0.21,0C276.01,11.34,275.98,11.34,275.98,11.35z"
			/>
		<path fill="#5A3719" d="M279.5,11.68c0,0,0,0.06,0.05,0.12l-2.66-0.07c0,0,0.04-0.02,0.05-0.11L279.5,11.68z"/>
		<path fill="#FFC221" d="M276,11.25c0,0-0.02,0.06,0.02,0.07c0.05,0.01,0.13,0.03,0.24,0.01c0,0,0.05,0,0.07-0.05
			s0.02-0.02-0.14-0.05c0,0-0.05-0.01,0.09-0.01c0,0,0.08,0,0.09-0.01c0.01-0.01,0.12-0.09-0.02-0.08c-0.14,0-0.07-0.02,0-0.02
			c0.07,0,0.09,0.01,0.11-0.01c0.02-0.02,0-0.01-0.04-0.04c-0.04-0.03-0.01-0.02,0.02-0.01c0.03,0.02,0.04,0.02,0.07,0
			c0.03-0.02-0.02-0.06,0-0.05c0.02,0,0.03,0.04,0.12,0.01c0.09-0.04,0.21-0.02,0.24,0c0.03,0.02,0.12,0.05,0.18,0
			c0.06-0.05-0.07-0.09-0.01-0.1c0.05-0.01,0.09,0.01,0.11-0.03c0.02-0.04-0.08-0.07,0.02-0.09c0.1-0.02,0.02-0.26-0.02-0.29
			c0,0-0.11,0.06-0.23,0.23c-0.12,0.17-0.19,0.27-0.35,0.22c-0.23-0.08-0.35,0.03-0.39,0.05c-0.06,0.03,0.12,0.04,0.02,0.05
			c-0.1,0-0.1,0.01-0.11,0.02c-0.01,0.01,0,0.03,0.02,0.03s0.06,0.04-0.01,0.03s-0.11-0.01-0.09,0.05c0,0,0,0.01,0.04,0.02
			c0.04,0,0.05,0.04-0.02,0.04C276.01,11.23,276,11.25,276,11.25L276,11.25z M276.25,11.84c0,0-0.05,0.03,0.02,0.03
			c0.07,0,0.1,0.01,0.12-0.02c0.02-0.03,0.11-0.02,0.05-0.06C276.38,11.76,276.34,11.78,276.25,11.84L276.25,11.84z"/>
		<path fill="#FFC221" d="M276.52,11.13c0,0,0.22-0.19,0.41-0.06s0.2,0.14,0.21,0.15c0,0,0.02,0.02-0.03,0.06s0,0.04,0.05,0.01
			c0.06-0.02,0.06,0,0.09,0.02c0.03,0.03,0.06,0.04-0.02,0.04s-0.27,0-0.27,0s-0.12,0.01-0.06-0.04c0.06-0.05,0.05-0.1,0.02-0.1
			c-0.03,0,0,0.03-0.02,0.05c-0.02,0.02-0.06,0.04-0.11,0.04s-0.08,0.03-0.01,0.05c0.07,0.02-0.01,0.04-0.04,0.04
			c-0.04,0-0.21,0.01-0.03,0.03c0.18,0.02-0.02,0.01,0.11,0.08c0.14,0.07,0.04,0.23-0.01,0.24c0,0-0.06,0.03,0.02,0.02
			c0.07-0.01,0.12-0.02,0.06,0.02c-0.05,0.04-0.16,0.16-0.3,0.06c0,0-0.07-0.03,0.05-0.03s-0.1-0.03-0.13-0.05
			c-0.04-0.02-0.17-0.15-0.09-0.13c0.09,0.02,0.06-0.03,0-0.05c-0.05-0.02-0.06-0.09,0-0.07c0.06,0.02,0.13,0.04,0.17,0.04
			c0.05,0,0.03-0.02-0.07-0.05c-0.1-0.03-0.14-0.03-0.12-0.11c0.02-0.07,0.13,0.03,0.11-0.03c-0.03-0.06-0.12-0.03-0.07-0.1
			c0.05-0.07,0.06-0.04,0.08-0.03c0.02,0.01,0.06,0-0.01-0.04C276.46,11.18,276.51,11.14,276.52,11.13L276.52,11.13z"/>
		<path d="M276.68,11.18c0,0,0-0.02,0.04-0.02c0.04,0,0.03-0.01,0.04-0.02s0.11,0.03,0.02,0.06
			C276.74,11.21,276.69,11.21,276.68,11.18L276.68,11.18z"/>
		<path fill="#FFC221" d="M276.89,11.39c0,0-0.07,0.03-0.01,0.1c0.06,0.06,0.06,0.08,0.05,0.12c0,0.04,2.56,0.06,2.56,0.06
			s0-0.15,0.11-0.23C279.6,11.45,278.2,11.42,276.89,11.39L276.89,11.39z"/>
		<path fill="#5A3719" d="M279.54,11.64c0,0,0.01-0.12,0.09-0.16c0.04-0.02,0.1-0.01,0.12,0.09c0.03,0.14-0.1,0.26-0.16,0.21
			C279.53,11.72,279.54,11.64,279.54,11.64L279.54,11.64z"/>
		<path fill="#7B3C20" d="M276.6,12.17c0,0,0.17-0.13,0.2-0.19c0,0,0.46,0.29,0.43,0.02c0,0,0-0.07,0.01-0.14
			c0,0,0.17,0.01,0.19-0.1l-0.43-0.01c0,0-0.04-0.01-0.11,0.06c-0.07,0.06-0.2,0.13-0.33,0.07c0,0-0.05-0.04-0.11-0.01
			c-0.05,0.04-0.06,0.05-0.01,0.08C276.49,12,276.58,12.11,276.6,12.17L276.6,12.17z M277.59,11.37l-0.25-0.01
			c0,0-0.09-0.12-0.27-0.24c0,0-0.05-0.02,0.05-0.09c0.1-0.07,0.13-0.15,0.13-0.18c0-0.04-0.01-0.09,0.03-0.05
			c0.04,0.04,0.3,0.25,0.34,0.19c0.04-0.06,0.04-0.09,0.05-0.11c0.01-0.02,0.02-0.08,0.05-0.02c0.04,0.06,0.06,0.05,0.06,0.2
			c0,0,0.01,0.16,0.03,0.21C277.82,11.27,277.49,11.18,277.59,11.37L277.59,11.37z M276.5,10.89c0,0,0.19,0.1,0.29-0.03
			c0.09-0.13,0.16-0.15,0.09-0.27s0-0.18,0.06-0.23c0.05-0.05,0.1-0.04,0.11-0.24s0.16-0.26,0.23-0.33
			c0.07-0.06,0.24-0.16-0.02-0.19c-0.26-0.04-0.79-0.16-0.92-0.34c-0.14-0.18-0.2-0.07-0.2-0.07c0,0.01-0.05,0.14,0.09,0.38
			c0.14,0.24,0.25,0.4,0.38,0.47c0.13,0.08,0.25,0.12,0.18,0.28C276.71,10.47,276.59,10.76,276.5,10.89z"/>
		<path fill="#5A3719" d="M277.21,10.38c0,0,0.03,0.41,0.37,0.56c0,0,0.08-0.16,0.05-0.32c0,0,0.11,0.01,0.14,0.05
			c0,0,0.01-0.12-0.15-0.16c-0.16-0.04-0.08-0.31-0.03-0.34c0.06-0.03,0.04-0.08,0-0.13c-0.04-0.05-0.05-0.12,0.08-0.09
			c0.13,0.03,0.11-0.03,0.03-0.09c-0.08-0.06-0.08-0.13,0.04-0.13s0.3-0.1,0.19-0.13c-0.11-0.03-0.15-0.06,0.01-0.1
			c0.15-0.04,0.23-0.09,0.11-0.1c-0.12-0.01-0.19-0.05-0.08-0.06s-0.02-0.12-0.15-0.12s-0.41,0.04-0.19-0.12s-0.32-0.04-0.1-0.15
			s-0.07-0.06-0.12-0.06s-0.04,0-0.03-0.05c0.02-0.05-0.03-0.08-0.1-0.04c-0.06,0.03-0.06,0.03-0.06-0.04c0-0.07-0.08-0.02-0.13,0
			c-0.05,0.02-0.17,0.1-0.22,0.06c-0.05-0.04-0.08-0.09-0.23-0.01c-0.15,0.08-0.12,0.01-0.11-0.03s0.06-0.18-0.15-0.03
			c-0.21,0.15-0.04-0.16-0.2-0.06s-0.18,0.13-0.21,0.08c-0.03-0.05-0.06-0.09-0.24,0.02c-0.18,0.1-0.05-0.06-0.02-0.1
			c0.03-0.04,0.1-0.27-0.06-0.09c0,0-0.08,0.13-0.25-0.1c0,0-0.18,0.22-0.23,0.12c-0.05-0.1-0.09-0.11-0.15-0.04
			c-0.06,0.06-0.02,0-0.04-0.06c-0.03-0.05-0.04-0.16-0.34,0.04c-0.3,0.2,0.11,0.05-0.13,0.14c-0.23,0.09-0.79,0.37-0.28,0.3
			c0.51-0.06-0.25,0.18-0.07,0.22s0.12,0.18,0.79,0.02c0.66-0.16,0.56-0.03,0.9-0.16c0.34-0.13-0.08,0.04,0.38,0.04
			c0.45-0.01,0.08,0,0.16,0.09c0.09,0.08,0.47,0.28,0.83,0.31c0.36,0.03,0.45-0.09,0.34,0.05c-0.1,0.14-0.14,0.19-0.2,0.24
			c-0.06,0.05-0.23,0.16-0.23,0.35c0,0.19-0.28,0.22-0.18,0.43C276.96,10.59,277.12,10.45,277.21,10.38L277.21,10.38z"/>
		<path fill="#5A3719" d="M277.8,10.84c0,0-0.08-0.05-0.08-0.14c0,0,0.06,0.01,0.08,0.04c0,0,0.21-0.21-0.04-0.28
			c-0.25-0.08-0.12-0.27-0.04-0.28c0.08,0,0.1-0.02,0.03-0.1c-0.07-0.08-0.07-0.09,0.07-0.11c0.14-0.02,0.12-0.05,0.06-0.08
			c-0.06-0.03-0.11-0.08-0.11-0.08s0.4-0.15,0.27-0.22s0-0.05,0.11-0.13c0.11-0.07,0.13-0.09,0.15-0.11c0,0-0.11,0.01-0.2,0
			c0,0,0.1-0.04,0-0.11c-0.1-0.07-0.14-0.14-0.3-0.1c-0.16,0.03-0.11-0.01-0.04-0.07c0.06-0.06,0.03-0.09-0.08-0.11
			c0,0,0.01-0.06,0.1-0.13c0,0-0.21,0.01-0.29-0.02c0,0,0.09-0.05,0.09-0.11c0,0-0.12,0.03-0.27,0.02c0,0,0.09-0.07,0.09-0.13
			c0,0-0.26,0.05-0.38,0.13c0,0-0.03,0-0.05-0.03c-0.02-0.03-0.04-0.05-0.32,0.03c0,0,0.03-0.11,0.1-0.16s0.06-0.14-0.39,0.11
			c0,0-0.06-0.03-0.11-0.15c0,0-0.1,0.12-0.17,0.16c0,0-0.06,0.02-0.05-0.05c0.01-0.08-0.04-0.02-0.09,0
			c-0.05,0.02-0.08,0.08-0.05-0.08c0.02-0.16-0.06-0.19-0.06-0.19s-0.14,0.17-0.22,0.19c0,0-0.15-0.13-0.2-0.21
			c-0.05-0.08-0.05-0.11-0.1,0.03c-0.05,0.15-0.12,0.16-0.12,0.16s-0.09-0.07-0.1-0.1c0,0-0.02,0.04-0.04,0.06
			c0,0-0.08-0.08-0.07-0.2c0,0-0.48,0.23-0.54,0.38c0,0-0.45-0.02-0.64,0.01c0,0,0.05-0.13,0.16-0.19c0,0-0.12-0.01-0.12-0.12
			c0,0,0.1,0.01,0.15,0c0.06-0.01-0.08-0.17,0.07-0.17s0.24,0.06,0.18-0.11c-0.07-0.18-0.04-0.18-0.04-0.18s0.26,0.14,0.3,0.1
			c0.04-0.03-0.03-0.11,0.2-0.07c0.23,0.03,0.17-0.08,0.26-0.09c0.09-0.01,0.14,0.05,0.08-0.32c-0.06-0.37,0.28,0.18,0.05-0.38
			c0,0-0.06-0.17-0.2-0.24c0,0-0.03,0.12-0.19,0.01c-0.16-0.11-0.46-0.15-0.33-0.23c0.13-0.09,0.19-0.2,0.15-0.27
			c0,0-0.15,0.14-0.41,0.04c-0.21-0.08-0.25,0.07-0.46,0.02c0,0,0-0.05,0.18-0.17s-0.1,0.04-0.22,0.06c-0.11,0.02-0.14,0,0.09-0.16
			c0.24-0.16,0.7-0.45,0.64-0.68c0,0,0.11,0.12,0.4,0.03s0.51-0.12,0.59-0.26c0.09-0.13,0.32-0.27,0.37-0.3s0.14-0.05,0.05,0.08
			c-0.09,0.13-0.24,0.34-0.64,0.49c-0.4,0.15-0.55,0.25-0.63,0.33c-0.07,0.08-0.44,0.25-0.2,0.22c0.24-0.03,0.65,0.01,0.45-0.04
			c-0.19-0.05-0.41,0.03-0.23-0.11c0.18-0.14,0.21-0.19,0.46-0.29c0.26-0.1,0.54-0.31,0.51-0.08c-0.03,0.23-0.51,0.48-0.62,0.55
			c-0.12,0.08-0.07,0.06-0.07,0.09c0,0.03-0.02,0.09-0.07,0.12s-0.03,0.06-0.02,0.13s-0.01,0.09,0.02,0.1
			c0.04,0.01,0.07,0.02,0.08,0.06c0.01,0.05,0.04,0.05,0.11,0.05s0.11,0,0.12,0.04c0.01,0.04,0.07,0.08,0.08-0.02
			c0.01-0.11,0.05-0.13-0.07-0.08c-0.13,0.05-0.15,0.03-0.15-0.02c0-0.05-0.01-0.04-0.06-0.04c-0.05,0-0.07-0.07,0.02-0.11
			c0.09-0.04,0.09,0,0.21-0.09c0.12-0.09,0.12-0.11,0.13-0.15s-0.17,0.12-0.26,0.15c-0.09,0.04-0.07-0.02-0.05-0.11
			c0.02-0.09,0.24-0.21,0.34-0.21s0.33,0.05,0.23,0.17c-0.1,0.12-0.38,0.27-0.26,0.28c0.12,0.01,0.14-0.03,0.21,0.02
			c0.07,0.05,0.01,0.17-0.03,0.22c-0.03,0.06-0.1,0.13-0.13,0.15c0,0-0.13-0.2-0.12-0.04c0,0.16-0.03,0.22,0,0.22
			s0.17,0.09,0.21,0.09c0.04,0-0.24,0.12-0.12,0.13c0.12,0.01,0.31-0.05,0.38-0.16c0,0-0.25-0.05-0.34-0.13c0,0,0.29-0.06,0.21-0.3
			c0,0,0.28,0.07,0.16,0.18c-0.12,0.11-0.2,0.1-0.09,0.13c0.11,0.03,0.16,0.06,0.16,0.06s0.07,0.03,0.03,0.09
			c-0.04,0.05-0.04,0.13-0.01,0.13c0.04,0,0.16-0.05,0.06-0.11c-0.1-0.05,0.12-0.05,0.02-0.09c-0.09-0.05-0.12-0.06-0.14-0.08
			c-0.02-0.02,1.16-0.64,0.56-0.41c0,0,0.12-0.24,0.3-0.24c0.17,0,0.19,0.12,0.09,0.22c-0.1,0.09-0.16,0.24-0.4,0.27
			c0,0,0.33,0.14-0.06,0.38c0,0-0.09,0.04-0.05,0.06c0.03,0.03,0.26-0.09,0.3-0.16c0.03-0.07,0.08-0.12,0.17-0.16
			c0.09-0.04,0.53-0.3,0.66-0.5c0.13-0.2,0.17-0.21,0.42-0.39c0.26-0.18,0.21-0.15,0.24-0.19s0.05-0.12,0.16-0.18
			c0.12-0.06,0.58-0.29,0.72-0.38c0.14-0.09,0.44-0.26,0.56-0.41c0.13-0.14,0.47-0.33,0.55-0.29c0.09,0.03-0.01,0.14-0.21,0.28
			c-0.2,0.14-0.7,0.49-0.78,0.55c-0.08,0.05-0.5,0.33-0.66,0.35c-0.16,0.02-0.14,0.07-0.23,0.16s-0.31,0.28-0.39,0.33
			c-0.07,0.05-0.25,0.16-0.26,0.23c-0.01,0.08,0.03,0.08-0.11,0.2c-0.14,0.12-0.55,0.38-0.7,0.42c0,0,0.26,0.08,0.11,0.24
			c-0.16,0.16-0.15,0.14-0.16,0.15c0,0,0.4-0.05,0.12,0.22c0,0-0.05,0.08,0.07,0c0.14-0.09,0.08-0.21,0.06-0.23
			c0,0,0.21-0.12,0.46-0.12c0.24,0,0.24-0.02,0.02-0.07c0,0,0.16-0.17,0.29-0.09s0.09,0.13-0.05,0.2c-0.14,0.07-0.34,0.09-0.5,0.17
			c0,0,0.29,0.05,0.44-0.05c0.16-0.1,0.16-0.05,0.18-0.03c0.02,0.02,0.04,0.05-0.03,0.14s-0.08,0.09-0.07,0.11
			c0,0.02-0.01,0.08-0.15,0.1c-0.14,0.02-0.2,0.07-0.16,0.13c0.05,0.06,0.05,0.21-0.07,0.19c-0.12-0.01-0.09-0.1-0.13-0.13
			c-0.05-0.03-0.11-0.08-0.32,0.01c-0.21,0.1-0.23-0.02-0.22-0.08c0,0-0.14,0.1-0.25,0.01c-0.11-0.1-0.01-0.13,0.05-0.18
			c0.07-0.05,0.33-0.15,0.17-0.13c-0.16,0.02-0.4,0.03-0.45-0.08c-0.05-0.11,0.12-0.1,0.15-0.09c0.03,0.01,0.14,0.09,0.14-0.01
			c0-0.11,0.18-0.12,0.12-0.14c-0.06-0.02-0.14,0.05-0.17,0.07c0,0-0.12-0.15-0.32-0.1c-0.2,0.05,0.06,0.03,0.12,0.04
			c0.05,0.01,0.02,0.1-0.16,0.24c-0.18,0.14-0.1,0.1,0.03,0.1c0.13,0,0.46,0,0.27,0.14c-0.19,0.14-0.26,0.2-0.36,0.18
			c-0.1-0.02,0.01-0.08,0.05-0.1c0.04-0.02,0.07-0.07-0.02-0.04c-0.09,0.03-0.12,0.04-0.2-0.08c-0.07-0.12-0.04-0.08-0.01-0.16
			c0.03-0.08,0.1-0.16,0.02-0.13s-0.08,0.03-0.07-0.06c0.01-0.09-0.1-0.11-0.1-0.11s0.04,0.09,0,0.14s-0.04,0.08,0.02,0.09
			c0.06,0.01,0.12,0.06,0.04,0.11c-0.08,0.05-0.07,0.04-0.02,0.08s0.13,0.07,0.05,0.14c-0.08,0.07-0.01,0.05,0.03,0.05
			c0.04,0,0.13,0.03,0.14,0.1c0,0.07-0.01,0.09,0.13,0.02c0.13-0.07,0.4-0.06,0.4,0.03c0,0.09-0.03,0.11,0.11,0.04s0.21,0.07,0.3,0
			c0.1-0.07,0.16-0.15,0.27-0.02s0.08,0.16-0.06,0.25s0.07,0.02,0.17-0.03c0.1-0.05,0.4-0.08,0.56-0.01
			c0.17,0.07,0.22,0.05,0.34,0.01c0.12-0.05,0.19-0.06,0.37,0.05c0.19,0.11,0.33,0.13,0.43,0.13c0,0-0.21,0.07-0.44,0.09
			c-0.23,0.01-0.35,0.05-0.4,0.08c0,0,0.14,0.08,0.17,0.17c0,0,0.15-0.02,0.23,0.01c0,0-0.04,0.1,0.05,0.15
			c0.09,0.05,0.16,0.07,0.09,0.14c-0.07,0.07,0.11,0.04,0.01,0.14c-0.1,0.1-0.13,0.15-0.13,0.23c0,0.08,0.02,0.09-0.07,0.1
			c-0.09,0.01,0.02,0.1-0.03,0.2c-0.04,0.11-0.29,0.1-0.28,0.38c0,0,0.07-0.14,0.22-0.26s0.16-0.13,0.15-0.21
			c0-0.07-0.01-0.06,0.07-0.11c0.08-0.06-0.04-0.11,0.04-0.19c0.08-0.08,0.01-0.06,0.1-0.14s-0.08-0.09,0.01-0.17
			c0.1-0.08-0.23-0.18-0.14-0.23c0.09-0.05,0.26-0.13-0.29-0.12c0,0,0.13-0.19,0.59-0.15c0,0-0.12,0.08-0.13,0.15
			c0,0,0.05,0.02,0.09,0.03c0,0-0.02,0.06-0.11,0.12c0,0,0.24,0.12,0.28,0.19c0,0-0.15,0.04-0.19,0.1c0,0,0.07,0.07,0.09,0.15
			c0,0-0.17-0.02-0.19,0.09c-0.02,0.11-0.07,0.04-0.07,0.1s0.01,0.09-0.05,0.1c-0.06,0.01-0.01,0.06,0,0.1
			c0.01,0.04,0.03,0.12,0.02,0.15c0,0-0.08,0-0.12,0.01c0,0,0.03,0.16-0.07,0.18c-0.1,0.02,0.05,0.05-0.05,0.07
			c-0.11,0.02-0.09,0.02-0.22,0.23c0,0,0.11-0.06,0.23-0.12c0.11-0.07-0.01-0.05,0.18-0.21c0.19-0.17,0.16-0.18,0.14-0.26
			c-0.02-0.08-0.02-0.15,0.05-0.23c0.07-0.08,0.09-0.17,0.33-0.16c0,0-0.07-0.14-0.16-0.18c0,0,0.12-0.07,0.24-0.08
			c0,0-0.11-0.11-0.33-0.23c0,0,0.18-0.14,0.22-0.2c0,0-0.08,0.01-0.15,0c0,0,0.03-0.07,0.2-0.16c0,0,0.09,0.08,0.08,0.15
			c0,0,0.28-0.14,0.44-0.13c0,0,0.08,0.18-0.31,0.52c0,0,0.24,0.02,0.34,0.01c0,0-0.06,0.17-0.35,0.26
			c-0.29,0.1,0.06,0.21-0.24,0.19c-0.3-0.02-0.21,0.07-0.2,0.21c0.01,0.14,0.02,0.27,0.01,0.31c0,0-0.24-0.07-0.23,0.14
			c0.01,0.21-0.12,0.25-0.15,0.27c0,0-0.07-0.06-0.17-0.09C278.19,10.44,278.04,10.69,277.8,10.84L277.8,10.84z"/>
		<path fill="#7B3C20" d="M277.46,8.26c0,0,0.08-0.01,0.22,0.06c0.14,0.08,0.27-0.08,0.12-0.12c-0.15-0.04,0-0.09,0.14,0.01
			c0.14,0.1,0.19,0.05,0.24,0.02s0.11-0.05,0.02-0.11c-0.09-0.06,0.06-0.03,0.14,0.01c0.07,0.04,0.04,0.08,0.03,0.1
			c-0.01,0.01-0.02,0.15,0.12,0.02c0.14-0.12,0.21-0.25,0.21-0.31c0,0,0.08,0.04,0.09,0.12c0.01,0.08,0.12-0.04,0.15-0.09
			c0.04-0.04,0.1-0.15,0.09-0.23c0,0,0.09,0.13,0.24,0c0.14-0.13,0.08-0.05,0.25-0.09c0.17-0.04,0.38-0.15,0.5-0.27
			s0.12-0.04,0.27-0.07c0.15-0.03,0.45-0.22,0.48-0.32c0.03-0.1,0.02-0.16-0.02-0.13c-0.04,0.03-0.03,0.01-0.09-0.03
			c-0.06-0.04-0.16,0.05-0.16,0.05s0.09,0.06,0.02,0.09c-0.07,0.03-0.14,0.12-0.28,0.08c-0.14-0.03-0.28,0.11-0.28,0.11
			s0.12,0.09-0.04,0.14c-0.16,0.05-0.13,0.07-0.23,0.01c0,0-0.17,0.19-0.27,0.23c0,0-0.05,0-0.08-0.04c0,0-0.11,0.11-0.17,0.13
			c0,0-0.07-0.06-0.13-0.08c0,0-0.13,0.15-0.25,0.19c0,0-0.03-0.05-0.11-0.09c0,0-0.04,0.19-0.27,0.31c0,0,0.02-0.05-0.1-0.12
			c0,0-0.29,0.23-0.41,0.25c-0.12,0.02-0.01-0.05,0.01-0.08s0.09-0.12-0.05-0.16c-0.14-0.04-0.12,0.03-0.15,0.04
			c-0.03,0.01-0.03-0.02-0.13-0.01c-0.09,0.01-0.08,0.05-0.12,0.06c-0.04,0.01-0.21-0.02-0.2,0.07c0.01,0.1,0.08,0.16-0.06,0.22
			C277.07,8.29,277.27,8.28,277.46,8.26L277.46,8.26z"/>
		<path fill="#5A3719" d="M278.05,7.98c0,0,0.03-0.12-0.09-0.18c0,0,0.78-0.11,0.19-0.37c0,0,0.7-0.13,0.53-0.33
			c-0.16-0.2-0.32-0.15-0.35-0.15c-0.02,0,0.15-0.11,0.19-0.1c0.05,0.02,0.61,0.21,0.46,0.04c-0.14-0.16-0.13-0.15-0.15-0.2
			c0,0,0.18,0,0.46,0.24c0,0,0.06-0.05,0.05-0.15c0,0,0.2,0.05,0.26,0.1c0,0,0.03-0.06,0.02-0.1c0,0,0.17,0.08,0.23,0.17
			c0,0,0.08-0.06,0.09-0.13c0,0,0.17,0.06,0.22,0.11c0,0,0.06-0.07,0.04-0.16c0,0,0.28,0.08,0.32-0.08c0,0,0.29,0.06,0.1,0.15
			c-0.24,0.13-0.02-0.03-0.27,0.12c-0.19,0.12-0.3,0.26-0.39,0.23c-0.07-0.02-0.15,0.15-0.24,0.07s-0.09-0.05-0.16,0.04
			c-0.06,0.09-0.16,0.18-0.16,0.18s-0.05-0.03-0.09-0.06c0,0-0.06,0.08-0.13,0.14c0,0-0.06-0.07-0.15-0.11c0,0-0.14,0.15-0.23,0.19
			c0,0-0.08-0.07-0.17-0.1c0,0-0.01,0.2-0.18,0.3c0,0-0.04-0.06-0.15-0.1C278.32,7.76,278.24,7.88,278.05,7.98L278.05,7.98z"/>
		<path fill="#5A3719" d="M277.64,7.68c0,0-0.09,0.06-0.03,0.13c0.06,0.07,0.06-0.01,0.14-0.02c0.08-0.01,1.03-0.15,0.17-0.38
			c0,0,0.04-0.03,0.18-0.04c0.15-0.01,0.69-0.14,0.44-0.31c-0.25-0.17-0.46,0.06-0.25-0.15c0.17-0.16,0.03-0.24,0.03-0.24
			s-0.5,0.3-0.61,0.35c-0.11,0.05-0.27,0.16-0.08,0.21c0.19,0.05,0.32-0.18,0.33-0.13c0.02,0.05-0.38,0.25-0.32,0.34
			c0.06,0.09,0.04,0.17,0.14,0.15c0.1-0.02,0.36,0.04,0.15,0.04C277.71,7.62,277.64,7.68,277.64,7.68L277.64,7.68z"/>
		<path d="M277.98,7.26c0,0-0.09,0.05,0.03,0.03c0.12-0.03,0.35-0.07,0.3-0.12C278.27,7.11,278.12,7.17,277.98,7.26z"/>
		<path fill="#7B3C20" d="M279.51,6.37c0,0,0.44-0.01,0.62,0.1s0.27,0.18,0.32,0.2c0,0-0.01,0.15-0.29,0.04c0,0,0.02,0.07-0.02,0.14
			c0,0-0.11-0.06-0.23-0.09c0,0-0.02,0.06-0.06,0.09c0,0-0.13-0.11-0.27-0.15c0,0-0.03,0.06-0.05,0.08c0,0-0.15-0.08-0.27-0.08
			c0,0,0.02,0.08,0,0.11c0,0-0.32-0.22-0.61-0.19c0,0,0.14,0.18,0.23,0.27c0,0-0.58-0.04-0.48-0.32s-0.01-0.21,0.37-0.21
			C279.17,6.38,279.51,6.37,279.51,6.37z"/>
		<path fill="#5A3719" d="M276.8,7.14c0,0-0.07,0.05,0,0.09c0.07,0.04,0.3-0.11,0.33-0.13c0.03-0.02,0.11-0.02,0,0.06
			c-0.11,0.08-0.23,0.16-0.3,0.24c0,0,0.38-0.09,0.63-0.28c0.25-0.19-0.01-0.07,0.41-0.25s0.65-0.47,0.42-0.44
			c-0.23,0.03-0.43,0.26-0.61,0.35c-0.18,0.09-0.28,0.1-0.25,0.05c0.03-0.05,0.16-0.03,0.4-0.2c0.24-0.17,0.19-0.16,0.19-0.22
			c0-0.06-0.09-0.21,0.27-0.38c0.37-0.17,1.51-0.76,1.61-0.97c0,0-0.33,0.03-0.77,0.32s-0.67,0.42-0.8,0.46
			c-0.12,0.04-0.11,0.01-0.19,0.1c-0.08,0.08-0.51,0.46-0.59,0.51c-0.08,0.05-0.1,0.09-0.11,0.2C277.45,6.68,276.95,7.01,276.8,7.14
			L276.8,7.14z"/>
		<path fill="#5A3719" d="M278.31,6.36c0,0-0.08,0.03-0.17,0c-0.08-0.03-0.06-0.19,0.14-0.29c0.2-0.09,0.56-0.23,0.74-0.25
			c0,0-0.03,0.2-0.59,0.37C278.43,6.2,278.47,6.3,278.31,6.36z"/>
		<path fill="#AA5323" d="M278.51,6.23c0,0,0.02,0.05,0,0.1c0,0,1.05,0.09,1.6-0.48c0,0-0.75,0.06-1.04,0.22
			c0,0,0.19-0.21,0.75-0.38c0.56-0.17,0.79-0.39,0.84-0.5c0,0-0.71,0.22-1.04,0.22c0,0-0.07,0-0.13,0.03
			c-0.06,0.03-0.52,0.32-0.64,0.37c0,0,0.25-0.02,0.34-0.09C279.18,5.72,279,6.14,278.51,6.23L278.51,6.23z"/>
		<path fill="#5A3719" d="M276.49,6.77c0,0-0.14,0.09-0.08,0.13s0.15,0.05,0.36-0.1c0.21-0.15,0.71-0.54,0.39-0.55
			c0,0-0.4-0.02-0.39,0.2C276.79,6.66,276.51,6.75,276.49,6.77z M275.56,6.64c0,0,0.27,0.14,0.17,0.25c0,0,0.82-0.62,0.59-0.75
			s-0.41,0.12-0.36,0.14c0.06,0.03,0.18-0.02,0.13,0.03S275.61,6.62,275.56,6.64L275.56,6.64z M275.34,6.44c0,0,0.18,0.05,0.19,0.12
			c0.01,0.07,0.54-0.33,0.4-0.5c-0.06-0.08-0.36-0.11-0.37,0.04c-0.01,0.15,0.27-0.02,0.17,0.09C275.6,6.33,275.38,6.42,275.34,6.44
			z M277.26,6.1c0,0-0.11,0.07-0.01,0.12c0.1,0.04,0.17-0.03,0.22-0.07c0.05-0.04,0.31-0.21,0.36-0.31
			c0.06-0.11,0.15-0.14,0.24-0.19c0.09-0.05,0.74-0.34,1.14-0.66c0.4-0.32,0.23-0.24,0.65-0.44c0.42-0.2,0.69-0.39,0.78-0.61
			c0,0-0.19,0.06-0.36,0.15c-0.17,0.1-0.55,0.31-0.63,0.34c-0.08,0.03-0.18,0.03-0.24,0.09c-0.06,0.05-0.05,0.12-0.25,0.26
			c-0.2,0.15-1.23,0.8-1.36,0.89C277.68,5.75,277.26,6.1,277.26,6.1L277.26,6.1z"/>
		<path fill="#AA5323" d="M276.43,6.32c0,0,0.11-0.06,0.33-0.04c0.21,0.01,1.05-0.71,1.29-0.85c0.24-0.15,1-0.63,1.11-0.72
			c0.1-0.09,0.12-0.18,0.21-0.24c0.09-0.05,0.17-0.05,0.38-0.15c0.21-0.1,1.19-0.63,1.13-0.93c0,0-1.47,0.78-1.81,1.04
			c-0.34,0.25-1.28,0.83-1.45,0.93c-0.17,0.09-0.3,0.25-0.58,0.46C276.76,6,276.48,6.17,276.43,6.32L276.43,6.32z"/>
		<path fill="#AA5323" d="M276.12,6.04c0,0,0.27-0.02,0.31,0.09c0,0,0.58-0.36,0.72-0.5c0.13-0.15-0.04-0.06,0.29-0.25
			c0.33-0.19,1.43-0.88,1.59-1c0.16-0.12,0.46-0.28,0.69-0.43c0.24-0.14,1.18-0.55,1.07-0.89c0,0-0.69,0.41-0.84,0.5
			c-0.15,0.09-0.22,0.04-0.38,0.15c-0.16,0.11-0.5,0.33-0.56,0.4c-0.06,0.07-0.59,0.43-0.85,0.58c-0.26,0.15-0.83,0.45-1.11,0.66
			C276.78,5.56,276.24,5.96,276.12,6.04L276.12,6.04z"/>
		<path fill="#AA5323" d="M275.28,5.97c0,0,0.14,0,0.18,0.05c0,0,0.25-0.2,0.52,0c0,0,0.99-0.6,1.09-0.75
			c0.1-0.15,0.26-0.15,0.65-0.4c0.39-0.25,0.63-0.36,0.89-0.53c0.26-0.18,0.47-0.38,0.66-0.48c0.18-0.11,0.65-0.38,0.57-0.61
			c0,0-0.38,0.19-0.62,0.43s-0.23,0.03-0.48,0.23c-0.25,0.2-0.64,0.47-0.96,0.61c-0.32,0.14-0.13,0.13-0.36,0.26
			c-0.23,0.13-0.22,0.11-0.3,0.13c-0.09,0.02-0.22,0.07-0.3,0.16c-0.09,0.09-0.31,0.21-0.56,0.33C276,5.53,275.39,5.85,275.28,5.97
			L275.28,5.97z"/>
		<path fill="#AA5323" d="M275.58,5.51c0,0-0.05-0.1,0.04-0.17c0.09-0.07,0.27-0.25,0.3-0.37s0.01-0.1,0.28-0.2
			c0.27-0.1,0.9-0.36,1.25-0.55c0.35-0.19,0.89-0.5,1-0.58s0.38-0.24,0.49-0.32c0,0,0.05,0.13-0.07,0.22
			c-0.12,0.09-0.57,0.37-0.65,0.42c-0.07,0.04-0.49,0.29-0.62,0.36c-0.13,0.06-0.45,0.21-0.56,0.29c-0.11,0.08-0.1,0.11-0.6,0.33
			s-0.53,0.24-0.51,0.26s0.24-0.07,0.35-0.13c0.11-0.06,0.52-0.22,0.64-0.31c0.12-0.09,0.33-0.22,0.42-0.27
			c0.09-0.04,0.83-0.44,1.05-0.58c0.21-0.14,0.27-0.19,0.32-0.16c0.05,0.02,0.12,0.03,0.03,0.11c-0.09,0.08-0.4,0.32-0.51,0.38
			c-0.12,0.07-0.48,0.26-0.58,0.31c-0.1,0.05-0.14,0.13-0.2,0.17c-0.06,0.04-0.22,0.14-0.42,0.18c-0.2,0.04-0.24,0.17-0.37,0.25
			c-0.13,0.08-1.06,0.52-1.09,0.54C275.56,5.68,275.62,5.63,275.58,5.51L275.58,5.51z"/>
		<path fill="#AA5323" d="M278.8,3.65c0,0-0.05,0.04-0.02,0.06c0.04,0.03,0.17,0.11,0.33-0.03c0.16-0.14,0.6-0.45,0.74-0.53
			s0.21-0.14,0.2-0.24C280.05,2.91,279.38,3.23,278.8,3.65z M279.72,3.6c0,0,0.1-0.15,0.35-0.3c0.25-0.14,0.63-0.35,0.68-0.4
			c0,0,0.09,0.09-0.11,0.2c-0.2,0.11-0.58,0.34-0.63,0.37C279.97,3.5,279.89,3.55,279.72,3.6z"/>
		<path fill="#7B3C20" d="M274.6,5.25c0,0-0.28,0.13-0.18,0.22c0.1,0.08,0.25,0.06,0.31,0.03c0.06-0.02,0.18-0.05,0.2-0.05
			s0.26-0.07,0.32-0.17c0.06-0.1,0.23-0.22,0.36-0.3c0.13-0.08,0.18-0.17,0.16-0.23C275.77,4.75,274.67,5.22,274.6,5.25z
			 M272.94,6.4c0,0,0.19-0.1,0.46-0.04c0,0-0.01-0.06-0.05-0.09c0,0,0.33-0.08,0.4-0.21c0.07-0.13,0.09-0.1,0.15-0.14
			c0.06-0.04,0.51-0.36,0.46-0.42c-0.05-0.07-0.06-0.16-0.1-0.19c0,0-0.09,0.11-0.52,0.3s-0.91,0.33-1.26,0.74
			c-0.35,0.42-0.31,0.66,0.11,0.77c0,0,0.3-0.17,1.03-0.11c0.73,0.06,0.98,0.3,1.03,0.35c0.05,0.04,0.2,0.2,0.05,0.48
			c0,0,0.15,0.06,0.16-0.07c0.01-0.12,0.02-0.1,0.05-0.08c0.03,0.02,0.07,0.02,0.06-0.07c-0.02-0.1-0.07-0.31-0.13-0.38
			c-0.07-0.07,0.01-0.04,0.05-0.03c0.04,0.02,0.2,0.13,0.11-0.08c-0.09-0.2-0.12-0.1-0.12-0.09c0,0.01-0.02,0.06-0.22-0.07
			c-0.2-0.13-0.38-0.2-0.52-0.23C274,6.7,274.1,6.7,274.18,6.67c0.08-0.03,0.19-0.04,0.22-0.12c0,0-0.08,0.02-0.23-0.03
			c-0.15-0.05-0.44-0.05-0.68,0.11c0,0,0.07-0.24-0.14-0.23c-0.22,0.01-0.37,0.01-0.6,0.17c0,0-0.01-0.24,0.2-0.37
			c0.22-0.13,0.19-0.05,0.31-0.08c0.12-0.03,0.13-0.14,0.08-0.17c0,0,0.28,0.04,0.76-0.31c0,0-0.26,0.3-0.57,0.36
			c0,0-0.05,0.16-0.33,0.19C272.93,6.22,272.94,6.37,272.94,6.4L272.94,6.4z"/>
		<path fill="#5A3719" d="M272.13,7.85c0,0,0.14-0.74,0.91-0.79c0.68-0.05,0.89,0.03,1.03,0.07c0.14,0.04,0.47,0.13,0.34,0.22
			c-0.13,0.09-0.2,0.08-0.2,0.08s0.15-0.15,0.01-0.17c-0.14-0.03-0.15,0.05-0.17,0.11c-0.02,0.06-0.03,0.14-0.09,0.18
			c0,0-0.07-0.07-0.17-0.01c-0.1,0.06-0.01,0.06,0.03,0.05c0.04-0.01,0.09-0.03,0.08,0.03s-0.07,0.15-0.23,0.22
			c-0.16,0.08-0.15,0.07-0.34,0.1c-0.19,0.03-0.37,0.09-0.61,0.28c-0.24,0.19-0.51,0.12-0.57-0.08
			C272.11,7.95,272.13,7.85,272.13,7.85L272.13,7.85z"/>
		<path d="M273.02,7.83c0,0,0.07-0.15-0.06-0.21c0,0-0.41,0.06-0.53-0.05c0,0,0.44-0.02,0.72-0.12c0.27-0.1,0.19-0.16,0.1-0.18
			c-0.1-0.02-0.27,0.02-0.29,0.1c0,0-0.05-0.08,0.02-0.14c0.07-0.05,0.18-0.06,0.27-0.04c0.1,0.03,0.18,0.06,0.51-0.09
			c0,0,0.18,0.04,0.19,0.15c0.01,0.11-0.01,0.16-0.03,0.17c-0.02,0.02-0.04,0.05-0.08,0.05c-0.04,0-0.09-0.01-0.14,0.06
			c-0.05,0.08-0.08,0.14-0.16,0.19c0,0,0.1-0.24-0.14-0.3c0,0-0.2,0.1-0.34,0.11C273.06,7.55,273.25,7.71,273.02,7.83L273.02,7.83z"
			/>
		<path fill="#5A3719" d="M273.44,7.39c0,0-0.09-0.09,0.03-0.1c0.12-0.01,0.27,0.07,0.24,0.13C273.69,7.49,273.55,7.48,273.44,7.39
			L273.44,7.39z"/>
		<path fill="#FFFFFF" d="M280.11,6.22c0,0-0.22,0.05-0.02,0.17c0.2,0.12,0.3,0.22,0.44,0.25c0.15,0.03,0.3,0.08,0.3,0.21
			c0,0.13-0.03,0.18-0.11,0.27c-0.08,0.09,0.04,0.13,0.15,0.08s0.2-0.08,0.26-0.11c0.07-0.04,0.18-0.03,0.08,0.02
			c-0.11,0.05-0.22,0.08-0.08,0.08c0.14,0,0.95,0.02,1.13-0.03s0.4-0.06,0.42-0.26c0,0,0.01-0.09,0.07-0.12
			c0.06-0.04,0.11-0.12,0.01-0.06c-0.09,0.06-0.17,0.09-0.18,0.07c-0.02-0.02-0.02-0.03,0.04-0.06c0.07-0.03,0.11,0,0.17-0.08
			c0.06-0.08,0.06-0.07,0.02-0.1c-0.03-0.03-0.1-0.05-0.07-0.09c0.03-0.04,0.07-0.16-0.08-0.09c-0.15,0.07-0.45,0.25-0.58,0.28
			c-0.14,0.03-0.24,0.07-0.43,0.1c-0.18,0.03-0.3,0.07-0.5,0.17c-0.2,0.1-0.18-0.05-0.15-0.07c0,0,0.08,0.12,0.28-0.04
			c0.2-0.15,0.14-0.01,0.62-0.15s0.37-0.17,0.56-0.25c0.19-0.09,0.37-0.09,0.24-0.21c-0.13-0.12-0.15-0.13-0.32,0
			c-0.17,0.13-0.65,0.34-0.94,0.34c0,0,1.1-0.42,0.99-0.48c-0.11-0.06-0.23-0.12-0.31-0.13s-0.1-0.03-0.28,0.04
			c-0.18,0.07-0.21,0.09-0.26,0.09c-0.05,0-0.2,0.03-0.41,0.13c-0.21,0.1-0.32,0.14-0.46,0.21c0,0,0.1-0.18,0.53-0.29
			s0.66-0.22,0.61-0.24s-0.16-0.04-0.24-0.02c-0.08,0.01-0.06-0.01-0.32,0.09c-0.27,0.09-0.15,0.07-0.37,0.11
			c-0.21,0.04-0.3,0.08-0.41,0.12c0,0,0.04-0.05,0.19-0.1c0.07-0.02-0.08-0.05,0.12-0.06c0.02,0,0.04,0,0.06,0
			c0.27-0.07,0.56-0.16,0.51-0.17c-0.04-0.01-0.3-0.03-0.56,0.08c-0.26,0.11-0.14,0.07-0.23,0.09c-0.09,0.02-0.29,0.13-0.35,0.17
			C280.21,6.19,280.11,6.22,280.11,6.22L280.11,6.22z"/>
		<path fill="#5A3719" d="M273.65,7.28c0,0,0.1,0.03,0.13,0.09c0.03,0.06,0.09-0.03,0.09-0.06c0-0.03-0.07-0.16-0.18-0.1
			C273.58,7.28,273.63,7.28,273.65,7.28L273.65,7.28z"/>
		<path fill="#7B3C20" d="M273.36,8.55c0,0,0.22-0.09,0.4-0.08c0,0-0.07-0.23,0.06-0.19s0.09,0.02,0.12,0.02
			c0,0,0.01-0.15-0.03-0.21c0,0,0.13,0.03,0.26,0.03c0,0-0.13-0.22,0.01-0.37c0,0,0.08,0.14,0.25,0.18c0,0,0-0.06,0-0.13
			c0,0,0.1-0.01,0.18,0.03c0.08,0.04,0.15-0.4-0.09-0.49c0,0-0.06,0.08-0.28,0.12c-0.22,0.04-0.22,0.08-0.31,0.23
			c-0.09,0.15-0.17,0.15-0.36,0.26c-0.18,0.11-0.3,0.32-0.31,0.34C273.28,8.28,273.38,8.39,273.36,8.55L273.36,8.55z"/>
		<path fill="#999999" d="M280.73,6.03c0.08-0.01-0.08-0.05,0.12-0.06c0.02,0,0.04,0,0.06,0c0.27-0.07,0.56-0.16,0.51-0.17
			c-0.04-0.01-0.3-0.03-0.56,0.08c-0.26,0.11-0.14,0.07-0.23,0.09c-0.09,0.02-0.29,0.13-0.35,0.17c-0.07,0.05-0.16,0.08-0.16,0.08
			s-0.22,0.05-0.02,0.17c0.2,0.12,0.3,0.22,0.44,0.25s0.3,0.08,0.3,0.21c0,0.13-0.03,0.18-0.11,0.27c-0.08,0.09,0.04,0.13,0.15,0.08
			c0.11-0.05,0.2-0.08,0.26-0.11c0.07-0.04,0.18-0.03,0.08,0.02c-0.11,0.05-0.22,0.08-0.08,0.08c0.14,0,0.95,0.02,1.13-0.03
			s0.4-0.06,0.42-0.26c0,0,0.01-0.09,0.07-0.12c0.06-0.04,0.11-0.12,0.01-0.06c-0.09,0.06-0.17,0.09-0.18,0.07
			c-0.02-0.02-0.02-0.03,0.04-0.06c0.07-0.03,0.11,0,0.17-0.08c0.06-0.08,0.06-0.07,0.02-0.1c-0.02-0.02-0.04-0.03-0.06-0.05
			c0,0-0.05-0.04-0.11-0.01c-0.06,0.03-0.31,0.13-0.41,0.14c-0.1,0.01-0.21,0.05-0.39,0.13c-0.18,0.08-0.48,0.24-0.53,0.09
			c0,0-0.13,0.04-0.16,0.05c-0.2,0.09-0.18-0.04-0.15-0.07c0,0-0.11,0.11-0.1,0.01c0-0.1,0.07-0.08,0.19-0.11s0.3-0.1,0.23-0.16
			c-0.08-0.06-0.16,0.06-0.24,0.09c-0.09,0.03-0.26,0.07-0.28-0.05c-0.03-0.11-0.03-0.19-0.26-0.2c-0.23-0.01-0.22-0.14-0.16-0.2
			C280.46,6.16,280.51,6.06,280.73,6.03L280.73,6.03z"/>
		<path d="M281.46,7.03c0,0,0.36-0.15,0.69-0.22c0.33-0.07,0.07,0.01,0.02,0.03S281.6,7,281.48,7.05S281.38,7.06,281.46,7.03
			L281.46,7.03z M281.55,7.09c0,0,0.41-0.12,0.48-0.07c0.08,0.05,0.01,0.03-0.08,0.04c-0.09,0.01-0.33,0.05-0.4,0.05
			C281.49,7.1,281.55,7.09,281.55,7.09z M282.2,6.97c0,0,0.08-0.01,0.09,0.01c0.01,0.03-0.03,0.03-0.08,0.02
			C282.16,7,282.13,6.98,282.2,6.97z"/>
		<path fill="#FFFFFF" d="M271.49,10.11c0,0-0.02-0.32,0.16-0.48c0.18-0.16,1.05-0.97,1.19-1.19c0,0,0.11,0.07,0.12,0.2
			c0,0,0.15-0.22,0.26-0.31c0,0,0.1,0.09,0.08,0.28c0,0,0.21-0.1,0.54-0.1c0,0-0.12,0.13-0.13,0.2c0,0,0.45-0.04,0.69-0.01
			c0,0-0.62,0.31-0.45,0.34s0.36,0,0.36,0s-0.2,0.18-0.51,0.22c0,0,0.4-0.01,0.48,0.08c0,0-0.39,0.05-0.7,0.26
			c0,0-0.03-0.01-0.03-0.09c0,0-0.01,0.07-0.1,0.14c-0.09,0.07-0.31,0.21-0.39,0.28c-0.08,0.07-0.23,0.21-0.39,0.21
			c0,0,0.04-0.11-0.08-0.14c-0.12-0.03-0.25-0.01-0.35,0.08c0,0-0.42,0.01-0.55,0.02c0,0,0.09-0.13,0.18-0.13
			c0.09,0,0.44,0.05,0.47-0.17c0.03-0.21-0.23-0.16-0.13-0.28c0.1-0.13,0.07-0.12,0.08-0.13c0,0-0.08,0.04-0.13,0.15
			c-0.05,0.11-0.08,0.2-0.25,0.31s-0.24,0.18-0.28,0.26C271.63,10.08,271.56,10.09,271.49,10.11z"/>
		<path fill="#FFFFFF" d="M271.89,9.91c0,0,0.01-0.04,0.14-0.06c0.12-0.02,0.13-0.07,0.11-0.09c-0.02-0.02-0.09-0.02,0.03-0.14
			c0,0,0.04,0.01,0.07,0.04C272.27,9.69,272.41,9.94,271.89,9.91z"/>
		<path fill="#999999" d="M271.6,9.69c0.01,0.21,0.32,0.13,0.32,0.13c-0.11,0.07-0.18,0.13-0.22,0.18c0.02-0.1-0.18-0.13-0.18-0.13
			C271.53,9.81,271.56,9.75,271.6,9.69z M272.74,8.56c0.05-0.05,0.08-0.1,0.1-0.13c0,0,0.11,0.07,0.12,0.2c0,0,0.15-0.22,0.26-0.31
			c0,0,0.1,0.09,0.08,0.28c0,0,0.21-0.1,0.54-0.1c0,0-0.12,0.13-0.13,0.2c0,0,0.45-0.04,0.69-0.01c0,0-0.62,0.31-0.45,0.34
			s0.36,0,0.36,0s-0.2,0.18-0.51,0.22c0,0,0.4-0.01,0.48,0.08c0,0-0.11,0.02-0.27,0.06c0,0-0.12-0.1-0.45-0.08
			c0,0,0.26-0.13,0.47-0.17c0,0-0.09-0.11-0.23-0.01c0,0-0.28-0.17-0.05-0.32c0,0-0.16-0.03-0.27,0.04c0,0,0.01-0.12,0.12-0.17
			c0,0-0.32-0.05-0.4,0.16c0,0-0.06-0.09-0.03-0.18c0,0-0.19,0.1-0.28,0.21C272.89,8.85,272.86,8.64,272.74,8.56 M272.13,9.9
			c-0.06,0.01-0.13,0.02-0.23,0.01c0,0,0.01-0.03,0.07-0.05C271.97,9.87,271.99,9.9,272.13,9.9"/>
		<path d="M272.7,9.1c0,0,0.14,0.1,0.2,0.16c0,0,0.13-0.08,0.18-0.15c0,0,0.1,0.06,0.14,0.15c0,0,0.07-0.04,0.09-0.11
			c0,0,0.18,0.03,0.24,0.09c0,0,0.03-0.16,0-0.25c0,0,0.13,0.01,0.2,0.04c0,0-0.07-0.1,0.29-0.23c0,0-0.28,0.05-0.38,0.16
			c0,0-0.12,0.01-0.17-0.03c0,0,0.01,0.16,0,0.23c0,0-0.07-0.03-0.21-0.05c0,0-0.03,0.05-0.06,0.06c0,0-0.09-0.06-0.13-0.14
			c0,0-0.13,0.11-0.18,0.15C272.92,9.19,272.79,9.11,272.7,9.1L272.7,9.1z"/>
		<path fill="#FFC221" d="M271.88,10.7c0,0,0.06,0.02,0.19-0.07c0.13-0.1,0.51-0.31,0.55-0.48c0.04-0.17-0.12-0.18-0.24-0.13
			c-0.12,0.05-0.07,0.15-0.07,0.18c0.01,0.03,0.01,0.15-0.19,0.32C271.91,10.68,271.88,10.7,271.88,10.7L271.88,10.7z"/>
		<path fill="#FFC221" d="M271.83,10.76c0,0-0.3-0.11-0.03-0.23c0.27-0.12,0.39-0.15,0.42-0.25c0.03-0.1,0.01-0.08-0.09-0.04
			c-0.1,0.04-0.49,0.2-0.54,0.05c0,0,0.16,0.05,0.36-0.03c0.2-0.09,0.36-0.11,0.23-0.15c-0.13-0.04-0.58,0.01-0.65,0.03
			c-0.07,0.02-0.06,0.02-0.07,0.08c-0.01,0.07-0.1,0.21-0.13,0.25c-0.03,0.04-0.11,0.21,0.03,0.29
			C271.5,10.82,271.72,10.82,271.83,10.76z"/>
		<path d="M271.71,10.17c0,0-0.07,0.01-0.06,0.03c0.01,0.02,0.03,0.02,0.06,0.02c0.03,0,0.06-0.01,0.07-0.03
			C271.79,10.18,271.74,10.16,271.71,10.17L271.71,10.17z"/>
		<path fill="#FFFFFF" d="M271.81,10.7c0,0-0.14-0.06,0.02-0.14c0.16-0.08,0.34-0.15,0.36-0.19
			C272.19,10.37,272.11,10.47,271.81,10.7L271.81,10.7z"/>
	</g>
</g>
</svg>
