<svg xmlns="http://www.w3.org/2000/svg" xmlns:xlink="http://www.w3.org/1999/xlink" viewBox="0 0 33.6 19.6"><defs><clipPath id="a"><rect width="33.6" height="19.58" fill="none"/></clipPath></defs><title>AZE</title><g clip-path=""><rect width="33.6" height="19.58" fill="#438fc3"/><rect y="6.5" width="33.6" height="6.53" fill="#d6003f"/><rect y="13.1" width="33.6" height="6.52" fill="#48ae68"/><g clip-path=""><path d="M17.4,12.1a2.3,2.3,0,1,1,1.2-4.2,2.7,2.7,0,1,0,0,3.8,2.3,2.3,0,0,1-1.2.4" fill="#fff"/><polygon points="20.5 10.8 19.8 10.5 19.5 11.3 19.2 10.5 18.5 10.8 18.8 10.1 18 9.8 18.8 9.5 18.5 8.8 19.2 9.1 19.5 8.3 19.8 9.1 20.5 8.8 20.2 9.5 21 9.8 20.2 10.1 20.5 10.8" fill="#fff"/></g></g></svg>