<?xml version="1.0" encoding="utf-8"?>
<!-- Generator: Adobe Illustrator 23.0.1, SVG Export Plug-In . SVG Version: 6.00 Build 0)  -->
<svg version="1.1" id="Layer_1" xmlns="http://www.w3.org/2000/svg" xmlns:xlink="http://www.w3.org/1999/xlink" x="0px" y="0px"
	 viewBox="0 0 33.6 19.6" enable-background="new 0 0 33.6 19.6" xml:space="preserve">
<g id="Sidebar_1_">
	<polygon display="none" fill="#F5A2C6" stroke="#002D62" stroke-width="0.25" points="23.6,9.1 23.6,7.5 20.3,9.1 	"/>
</g>
<g id="Flag_1_">
	<g display="none">
		<polygon display="inline" fill="#FDB913" points="12,5.8 20,14.4 20,5.8 		"/>
		<polygon display="inline" fill="#FFFFFF" points="11,7.4 11.2,6.9 10.7,6.5 11.3,6.5 11.4,6 11.6,6.5 12.2,6.5 11.7,6.9 11.9,7.4 
			11.4,7.1 		"/>
		<polygon display="inline" fill="#FFFFFF" points="12,8.5 12.2,8 11.7,7.6 12.3,7.6 12.4,7 12.6,7.6 13.2,7.6 12.7,8 12.9,8.5 
			12.4,8.2 		"/>
		<polygon display="inline" fill="#FFFFFF" points="13,9.6 13.2,9 12.7,8.7 13.3,8.7 13.4,8.1 13.6,8.7 14.1,8.7 13.7,9 13.9,9.6 
			13.4,9.2 		"/>
		<polygon display="inline" fill="#FFFFFF" points="14,10.7 14.1,10.1 13.7,9.8 14.3,9.8 14.4,9.2 14.6,9.8 15.1,9.8 14.7,10.1 
			14.9,10.7 14.4,10.3 		"/>
		<polygon display="inline" fill="#FFFFFF" points="15,11.7 15.1,11.2 14.7,10.8 15.2,10.8 15.4,10.3 15.6,10.8 16.1,10.8 
			15.7,11.2 15.9,11.7 15.4,11.4 		"/>
		<polygon display="inline" fill="#FFFFFF" points="16,12.8 16.1,12.3 15.7,11.9 16.2,11.9 16.4,11.3 16.6,11.9 17.1,11.9 
			16.7,12.3 16.9,12.8 16.4,12.5 		"/>
		<polygon display="inline" fill="#FFFFFF" points="17,13.9 17.1,13.3 16.7,13 17.2,13 17.4,12.4 17.6,13 18.1,13 17.7,13.3 
			17.8,13.9 17.4,13.5 		"/>
		<polygon display="inline" fill="#FFFFFF" points="18.1,14.4 17.7,14.1 18.2,14.1 18.4,13.5 18.6,14.1 19.1,14.1 18.7,14.4 		"/>
		<polygon display="inline" fill="#FFFFFF" points="10,6.4 10.2,5.8 10.7,5.8 10.9,6.4 10.4,6 		"/>
	</g>
	<g>
		<g>
			<rect x="-0.3" y="-0.2" fill="#E31937" width="34.3" height="20.4"/>
			<rect x="-0.3" y="1.8" fill="#0067B1" width="34.3" height="16.3"/>
		</g>
		<g>
			<path fill="#FFFFFF" d="M16.8,17.1c4,0,7.2-3.2,7.2-7.2c0-4-3.2-7.2-7.2-7.2c-4,0-7.2,3.2-7.2,7.2C9.6,13.9,12.8,17.1,16.8,17.1z
				"/>
			<g>
				<path fill="#00A94F" d="M16.8,4.2c0.2,0,0.3,0,0.5,0c-0.5,0-0.6,0.5-1,0.3c0,0,0.1,0.2,0.5,0.2c0.6,0,0.6-0.6,0.8-0.5l0,0
					c0.2,0,0.5,0.1,0.7,0.1c0.2,0,0.3,0.1,0.4,0.1c-0.5-0.1-0.7,0.3-1.1,0.1c0,0,0.1,0.3,0.4,0.4c0.6,0.2,0.7-0.4,0.9-0.3l0,0
					c0.2,0.1,0.4,0.2,0.7,0.3C19.7,5,19.9,5,20,5.1c-0.4-0.3-0.8,0.1-1.1-0.2c0,0,0,0.3,0.3,0.5c0.5,0.3,0.8-0.2,1-0.1l0,0
					c0.2,0.1,0.4,0.3,0.6,0.5C20.9,5.8,21,6,21.1,6.1c-0.3-0.4-0.8-0.1-1-0.5c0,0-0.1,0.3,0.2,0.5c0.4,0.4,0.8,0,0.9,0.2l0,0
					c0.2,0.2,0.3,0.4,0.4,0.6c0.1,0.1,0.2,0.3,0.2,0.4c-0.2-0.4-0.7-0.3-0.8-0.7c0,0-0.1,0.2,0.1,0.6c0.3,0.5,0.8,0.2,0.9,0.4l0,0
					c0.1,0.2,0.2,0.4,0.3,0.7c0,0.1,0.1,0.3,0.1,0.4c-0.1-0.5-0.6-0.4-0.6-0.9c0,0-0.2,0.2-0.1,0.6c0.2,0.6,0.7,0.4,0.8,0.6l0,0
					c0,0.2,0.1,0.5,0.1,0.7c0,0.2,0,0.3,0,0.5c0-0.5-0.5-0.6-0.4-1c0,0-0.2,0.1-0.2,0.5c0,0.6,0.6,0.6,0.6,0.8l0,0
					c0,0.2,0,0.5-0.1,0.7c0,0.2-0.1,0.3-0.1,0.4c0.1-0.5-0.4-0.7-0.1-1.1c0,0-0.3,0.1-0.3,0.5c-0.1,0.6,0.4,0.7,0.4,0.9l0,0
					c-0.1,0.2-0.2,0.5-0.3,0.7c-0.1,0.1-0.1,0.3-0.2,0.4c0.2-0.4-0.2-0.8,0.2-1.1c0,0-0.3,0-0.4,0.4c-0.3,0.5,0.3,0.8,0.1,0.9l0,0
					c-0.1,0.2-0.3,0.4-0.4,0.6c-0.1,0.1-0.2,0.2-0.3,0.3c0.3-0.4,0-0.8,0.4-1c0,0-0.3-0.1-0.5,0.2c-0.4,0.4,0.1,0.8-0.1,1l0,0
					c-0.2,0.2-0.4,0.3-0.6,0.5c-0.1,0.1-0.3,0.2-0.4,0.3c0.4-0.3,0.2-0.7,0.6-0.9c0,0-0.2-0.1-0.6,0.1c-0.5,0.3-0.2,0.8-0.3,0.9l0,0
					c-0.2,0.1-0.4,0.2-0.7,0.3c-0.1,0.1-0.3,0.1-0.4,0.2c0.5-0.2,0.4-0.7,0.8-0.7c0,0-0.2-0.2-0.6,0c-0.5,0.2-0.3,0.7-0.5,0.8l0,0
					c-0.2,0.1-0.5,0.1-0.7,0.1c-0.2,0-0.3,0-0.5,0c0.5,0,0.5-0.6,1-0.4c0,0-0.2-0.2-0.5-0.2c-0.6,0.1-0.5,0.6-0.7,0.6l0,0
					c-0.2,0-0.5,0-0.7,0c-0.2,0-0.3,0-0.5-0.1c0.5,0.1,0.7-0.4,1.1-0.2c0,0-0.1-0.2-0.5-0.3c-0.6-0.1-0.7,0.5-0.9,0.4l0,0
					c-0.2-0.1-0.5-0.1-0.7-0.2c-0.1-0.1-0.3-0.1-0.4-0.2c0.4,0.2,0.7-0.2,1.1,0.1c0,0,0-0.3-0.4-0.4c-0.5-0.2-0.8,0.3-0.9,0.2l0,0
					c-0.2-0.1-0.4-0.2-0.6-0.4c-0.1-0.1-0.2-0.2-0.4-0.3c0.4,0.3,0.8,0,1,0.3c0,0,0-0.3-0.3-0.5c-0.5-0.4-0.8,0.1-1,0l0,0
					c-0.2-0.2-0.3-0.3-0.5-0.5c-0.1-0.1-0.2-0.2-0.3-0.4c0.3,0.4,0.8,0.2,0.9,0.6c0,0,0.1-0.2-0.1-0.5c-0.4-0.5-0.8-0.1-0.9-0.3l0,0
					c-0.1-0.2-0.2-0.4-0.4-0.6c-0.1-0.1-0.1-0.3-0.2-0.4c0.2,0.5,0.7,0.4,0.7,0.8c0,0,0.2-0.2,0-0.6c-0.2-0.5-0.8-0.3-0.8-0.5l0,0
					c-0.1-0.2-0.1-0.5-0.2-0.7c0-0.2-0.1-0.3-0.1-0.5c0.1,0.5,0.6,0.5,0.5,1c0,0,0.2-0.2,0.1-0.5c-0.1-0.6-0.7-0.5-0.7-0.7l0,0
					c0-0.2,0-0.5,0-0.7c0-0.2,0-0.3,0-0.5c-0.1,0.5,0.4,0.6,0.3,1.1c0,0,0.2-0.1,0.3-0.5c0.1-0.6-0.5-0.6-0.5-0.8l0,0
					c0-0.2,0.1-0.5,0.2-0.7c0-0.1,0.1-0.3,0.2-0.4c-0.2,0.5,0.3,0.7,0,1.1c0,0,0.3,0,0.4-0.4c0.2-0.5-0.3-0.7-0.3-0.9l0,0
					c0.1-0.2,0.2-0.4,0.4-0.6c0.1-0.1,0.2-0.3,0.3-0.4c-0.3,0.4,0.1,0.8-0.3,1c0,0,0.3,0,0.5-0.3c0.3-0.5-0.2-0.8,0-1l0,0
					c0.2-0.2,0.3-0.4,0.5-0.5c0.1-0.1,0.2-0.2,0.3-0.3c-0.4,0.3-0.1,0.8-0.5,0.9c0,0,0.3,0.1,0.5-0.2c0.4-0.4,0.1-0.8,0.2-0.9l0,0
					C13.6,5.1,13.8,5,14,4.9c0.1-0.1,0.3-0.1,0.4-0.2c-0.4,0.2-0.3,0.7-0.8,0.8c0,0,0.2,0.1,0.6,0c0.5-0.3,0.3-0.8,0.4-0.9l0,0
					c0.2-0.1,0.5-0.2,0.7-0.2c0.2,0,0.3-0.1,0.5-0.1c-0.5,0.1-0.5,0.6-0.9,0.6c0,0,0.2,0.2,0.6,0.1c0.6-0.1,0.4-0.7,0.6-0.7l0,0
					C16.3,4.2,16.6,4.2,16.8,4.2V4c-0.3,0-0.5,0-0.7,0l0,0c-0.2,0-0.3-0.5-0.9-0.4C14.8,3.8,14.7,4,14.7,4c0.4-0.2,0.6,0.1,1.1,0.1
					c-0.2,0-0.3,0.1-0.5,0.1c-0.2,0.1-0.5,0.1-0.7,0.2l0,0c-0.2,0.1-0.4-0.4-1-0.1c-0.4,0.2-0.4,0.4-0.4,0.5c0.3-0.3,0.6,0,1.1-0.2
					c-0.1,0.1-0.3,0.1-0.4,0.2c-0.2,0.1-0.4,0.3-0.6,0.4l0,0c-0.2,0.1-0.5-0.3-1,0.1c-0.3,0.3-0.2,0.5-0.2,0.5
					c0.2-0.4,0.6-0.2,1-0.5c-0.1,0.1-0.2,0.2-0.3,0.3c-0.2,0.2-0.4,0.4-0.5,0.5l0,0c-0.2,0.2-0.6-0.2-0.9,0.4
					c-0.2,0.3-0.1,0.6-0.1,0.6c0.1-0.5,0.6-0.3,0.8-0.7c-0.1,0.1-0.2,0.2-0.3,0.4c-0.1,0.2-0.3,0.4-0.4,0.7l0,0
					c-0.1,0.2-0.6,0-0.8,0.6c-0.1,0.4,0,0.6,0.1,0.6c0-0.5,0.5-0.5,0.6-0.9c-0.1,0.1-0.1,0.3-0.2,0.4C11,8.4,11,8.6,10.9,8.9l0,0
					c0,0.2-0.6,0.1-0.6,0.8c0,0.4,0.2,0.5,0.2,0.6c-0.1-0.5,0.3-0.6,0.4-1c0,0.2,0,0.3,0,0.5c0,0.3,0,0.5,0,0.7l0,0
					c0,0.2-0.5,0.3-0.4,0.9c0.1,0.4,0.3,0.5,0.3,0.5c-0.2-0.4,0.2-0.6,0.1-1.1c0,0.2,0,0.3,0.1,0.5c0,0.2,0.1,0.5,0.2,0.7l0,0
					c0.1,0.2-0.4,0.4-0.2,1c0.2,0.4,0.4,0.4,0.4,0.4c-0.3-0.3,0-0.6-0.1-1.1c0.1,0.1,0.1,0.3,0.2,0.4c0.1,0.2,0.2,0.4,0.4,0.7l0,0
					c0.1,0.2-0.3,0.5,0.1,1c0.2,0.3,0.5,0.3,0.5,0.3c-0.4-0.2-0.1-0.6-0.4-1c0.1,0.1,0.2,0.2,0.3,0.4c0.2,0.2,0.3,0.4,0.5,0.5l0,0
					c0.2,0.2-0.2,0.6,0.3,0.9c0.3,0.2,0.6,0.1,0.6,0.1c-0.4-0.1-0.3-0.6-0.7-0.9c0.1,0.1,0.2,0.2,0.4,0.3c0.2,0.1,0.4,0.3,0.6,0.4
					l0,0c0.2,0.1,0,0.6,0.5,0.8c0.4,0.2,0.6,0,0.6,0c-0.5,0-0.4-0.5-0.9-0.7c0.1,0.1,0.3,0.1,0.4,0.2c0.2,0.1,0.5,0.2,0.7,0.2l0,0
					c0.2,0.1,0.1,0.6,0.7,0.7c0.4,0.1,0.6-0.1,0.6-0.2c-0.5,0.1-0.5-0.4-1-0.5c0.1,0,0.3,0.1,0.5,0.1c0.3,0,0.5,0,0.7,0l0,0
					c0.2,0,0.3,0.6,0.9,0.5c0.4,0,0.5-0.3,0.5-0.3c-0.4,0.2-0.6-0.2-1.1-0.2c0.2,0,0.3,0,0.5,0c0.3,0,0.5-0.1,0.7-0.1l0,0
					c0.2-0.1,0.4,0.5,1,0.3c0.4-0.1,0.4-0.4,0.4-0.4c-0.4,0.3-0.6-0.1-1.1,0.1c0.1,0,0.3-0.1,0.4-0.2c0.2-0.1,0.5-0.2,0.7-0.3l0,0
					c0.2-0.1,0.5,0.4,1,0C21,15,21,14.7,21,14.7c-0.3,0.4-0.6,0.1-1,0.3c0.1-0.1,0.3-0.2,0.4-0.3c0.2-0.1,0.4-0.3,0.6-0.5l0,0
					c0.2-0.2,0.6,0.2,1-0.2c0.3-0.3,0.2-0.5,0.2-0.6c-0.2,0.4-0.6,0.3-0.9,0.6c0.1-0.1,0.2-0.2,0.3-0.3c0.2-0.2,0.3-0.4,0.4-0.6l0,0
					c0.1-0.2,0.6,0.1,0.9-0.5c0.2-0.4,0-0.6,0-0.6c-0.1,0.5-0.5,0.4-0.7,0.8c0.1-0.1,0.1-0.3,0.2-0.4c0.1-0.2,0.2-0.5,0.3-0.7l0,0
					c0.1-0.2,0.6-0.1,0.7-0.7c0.1-0.4-0.1-0.6-0.1-0.6c0.1,0.5-0.4,0.5-0.5,1c0-0.1,0.1-0.3,0.1-0.4c0-0.2,0.1-0.5,0.1-0.7l0,0
					c0-0.2,0.6-0.2,0.5-0.8C23.3,9.1,23.1,9,23,9c0.2,0.4-0.3,0.6-0.3,1.1c0-0.2,0-0.3,0-0.5c0-0.3,0-0.5-0.1-0.7l0,0
					c0-0.2,0.5-0.4,0.3-0.9c-0.1-0.4-0.4-0.4-0.4-0.4c0.3,0.4-0.1,0.6,0,1.1c0-0.1-0.1-0.3-0.1-0.4c-0.1-0.2-0.2-0.5-0.3-0.7l0,0
					c-0.1-0.2,0.4-0.5,0.1-1c-0.2-0.3-0.5-0.3-0.5-0.3c0.4,0.3,0.1,0.6,0.3,1.1C22,7,21.9,6.9,21.8,6.8c-0.1-0.2-0.3-0.4-0.4-0.6
					l0,0c-0.1-0.2,0.3-0.5-0.2-1C20.9,4.9,20.7,5,20.7,5c0.4,0.2,0.2,0.6,0.5,1c-0.1-0.1-0.2-0.2-0.3-0.3c-0.2-0.2-0.4-0.3-0.6-0.5
					l0,0c-0.2-0.1,0.1-0.6-0.4-0.9c-0.3-0.2-0.6-0.1-0.6-0.1c0.5,0.1,0.4,0.5,0.8,0.8c-0.1-0.1-0.3-0.2-0.4-0.2
					c-0.2-0.1-0.4-0.2-0.7-0.3l0,0c-0.2-0.1,0-0.6-0.6-0.8c-0.4-0.1-0.6,0.1-0.6,0.1c0.5,0,0.5,0.4,0.9,0.6c-0.1,0-0.3-0.1-0.4-0.1
					c-0.2-0.1-0.5-0.1-0.7-0.1l0,0c-0.2,0-0.2-0.6-0.8-0.6c-0.4,0-0.5,0.2-0.5,0.2c0.4-0.1,0.6,0.3,1,0.3c-0.2,0-0.3,0-0.5,0
					L16.8,4.2L16.8,4.2z"/>
			</g>
			<g>
				<g>
					<g>
						<path fill="#00A94F" d="M13.7,12c0,0,0-0.1,0-0.2c0-0.1,0.1,0.2,0.2,0.2c0.1,0,0.5-0.2,0.5-0.2l0.1-0.2l0,0.1
							c0,0,0.1-0.1,0.1-0.2c0,0,0,0.1,0,0.1c0,0,0.1,0.1,0.1,0.2c0,0.1,0.1-0.1,0.1-0.1l0.4,0c0,0,0.1-0.2,0.2-0.4l0,0.1l0.2-0.2
							c0.2,0.5,0.5,1,1.3,1.2c0.7-0.3,1.1-0.7,1.3-1.1c0,0,0.1,0.2,0.2,0.2c0.1,0,0.2,0,0.2-0.1c0,0,0.4,0.1,0.4,0.1s0.1,0,0.1,0
							c0,0,0-0.1,0-0.1s0.2,0,0.2,0.1c0,0,0-0.1,0.1-0.1c0,0,0.1,0.1,0.1,0.1c0,0,0.4,0.1,0.5,0.1c0,0,0,0,0,0.1c0,0,0.1,0,0.1,0
							c0,0,0,0,0,0.1c0,0,0,0.1-0.1,0.1c0,0,0,0,0.1,0c0.1,0,0,0.1-0.1,0.1c0,0,0,0.1,0,0.1c0,0-0.1,0-0.1,0c0,0,0,0.1,0,0.1
							c0,0-0.1,0-0.2-0.1c0,0,0,0,0,0.1c0,0-0.2,0-0.3-0.1c0,0-0.1,0-0.1,0c0,0-0.2-0.1-0.2-0.1l0,0.1c0,0-0.1-0.1-0.1-0.1
							c0,0,0,0,0,0l-0.1-0.1l-0.1,0.1c0,0-0.1-0.1-0.2-0.1c0,0,0,0-0.1,0.1c0,0,0-0.1-0.1-0.1c0,0,0,0.1,0,0.1c0,0-0.2,0-0.2,0
							c0,0,0,0,0,0.1c0,0-0.1,0-0.2-0.1l0,0.1c0,0-0.1,0-0.1,0l-0.1,0.1h-0.1l0,0.1c0,0-0.2-0.1-0.2,0c0,0,0,0.1,0,0.1s-0.2,0-0.2,0
							l0,0.1c0,0-0.2-0.1-0.3,0c0,0-0.1,0.1-0.1,0.1c0,0,0,0,0,0l-0.1-0.1c0,0-0.1,0-0.1,0c0,0-0.2,0.1-0.2,0c0,0,0-0.1,0-0.1
							c0,0-0.1,0-0.1,0c0,0,0,0-0.1-0.1c0-0.1-0.1,0-0.1,0l0-0.1c0,0,0,0-0.1,0c-0.1,0-0.1-0.1-0.1-0.1s-0.2,0-0.2,0l0,0
							c0,0-0.2,0-0.3,0c0,0,0.1-0.1,0.1-0.1s-0.2-0.1-0.3-0.1c0,0-0.3,0-0.3,0c0,0,0-0.1,0-0.1s-0.1,0-0.1,0.1c0,0,0-0.1,0-0.1
							c0,0-0.2,0-0.2,0.1c0,0,0-0.1,0-0.1c0,0-0.1,0.1-0.1,0.1c0,0,0-0.1,0-0.1s-0.1,0.1-0.1,0.1v-0.1c0,0-0.3,0.1-0.3,0.1
							c0,0,0-0.1,0-0.1c0,0-0.1,0-0.2,0c0,0-0.1,0-0.1,0c0,0,0.1,0,0.1,0c0,0-0.2-0.1-0.2,0c0,0,0-0.1,0.1-0.1c0,0-0.1-0.1-0.2-0.1
							c0,0,0.1,0,0.1,0c0,0-0.1-0.2-0.1-0.2C13.4,12,13.6,12,13.7,12z"/>
					</g>
					<path fill="#7C3A00" d="M17.8,6.3C17.8,6.3,17.8,6.2,17.8,6.3c0.1,0,0.1,0.1,0.1,0.1l0,0C17.8,6.4,17.9,6.4,17.8,6.3"/>
					<path fill="#7C3A00" d="M17.5,7.3c0,0,0,0,0-0.1l0,0C17.6,7.1,17.6,7.2,17.5,7.3L17.5,7.3z"/>
					<g>
						<g>
							<path fill="#7C3A00" d="M16.8,7.5C16.8,7.6,16.8,7.6,16.8,7.5c-0.1,0.1-0.1,0.1-0.1,0.2c0,0,0,0.1,0,0.1c0,0,0.1,0.3,0.1,0.4
								c0,0.2,0,0.2,0,0.3c0,0,0,0.1,0.1,0.1c0,0,0,0,0,0c0-0.1,0-0.7,0-0.9c0-0.1-0.1-0.3-0.1-0.3c0,0,0-0.1,0-0.1
								c0-0.1-0.1-0.4-0.1-0.4c0-0.1-0.3-0.1-0.3-0.3c0-0.1-0.1-0.1-0.2-0.1l0,0c0,0,0.1,0,0.1,0c0,0,0-0.1,0-0.1l0,0
								c0,0,0,0.1,0,0.2c0,0.1,0.2,0.2,0.2,0.3c0,0,0.1-0.1,0.1-0.2c0-0.1,0-0.2,0-0.2l0.1,0c0,0,0,0,0,0.1c0,0,0,0,0.1,0
								c0,0,0,0,0,0c0,0,0,0.1-0.1,0.1c0,0,0,0.2,0,0.3c0,0.1,0,0.2,0,0.2c0,0,0.1,0.2,0.1,0.2C16.9,7.4,16.9,7.5,16.8,7.5
								c0.1,0,0.1,0,0.2,0.1c0,0,0,0.1,0,0.2c0,0,0,0.1,0,0.2c0,0.1,0.1,0,0.1,0c0.1-0.1,0.1-0.2,0.1-0.2s0.1,0,0,0c0,0,0,0.1,0,0.1
								c0,0.1,0,0.1,0,0.1c0,0,0.2-0.1,0.2-0.1c0,0,0.1,0,0.1,0c0,0,0,0.1,0,0.1l0.1,0c0,0-0.2,0.1-0.2,0.1s-0.2,0.1-0.3,0.1
								c-0.1,0-0.2,0.1-0.2,0.2c0,0.1,0,0.3,0,0.3C17,8.7,17,9,17,9h-0.3c0,0,0.1-0.2,0-0.3c-0.1-0.1-0.2-0.3-0.3-0.3
								c-0.1-0.1,0.1,0,0.1,0V8.2l0.2,0.2c0,0,0.1-0.2,0-0.6c0-0.1-0.2-0.2-0.2-0.2c-0.1,0-0.1-0.1-0.3,0c-0.1,0-0.4,0-0.5-0.1
								l0.1,0l0.1,0c0,0,0,0.1,0.2,0.1c0.2,0,0.3,0,0.3-0.2l0.1,0l0,0c0,0,0,0.1,0,0.2c0,0,0.1,0.1,0.2,0.1c0,0,0,0,0.1,0
								c0,0,0,0,0.1,0C16.7,7.5,16.7,7.6,16.8,7.5C16.7,7.5,16.8,7.5,16.8,7.5L16.8,7.5z"/>
							<path fill="#7C3A00" d="M16.9,7.4C16.9,7.4,16.9,7.3,16.9,7.4C17,7.2,17,7.2,17,7.1c0-0.1,0.1-0.2,0-0.2l0,0l0,0.1
								c0,0,0.1,0,0.1-0.1l0,0C17.2,6.9,17.1,7.1,16.9,7.4L16.9,7.4z"/>
							<path fill="#7C3A00" d="M15.2,6.7c0,0,0,0.1,0.1,0.2l0,0C15.4,6.9,15.3,6.8,15.2,6.7L15.2,6.7z"/>
							<path fill="#7C3A00" d="M15.5,6.7c0,0,0,0.2,0,0.2l0,0C15.6,6.9,15.6,6.8,15.5,6.7L15.5,6.7z"/>
							<path fill="#7C3A00" d="M17.2,6.2c0,0,0,0.2,0,0.3l0.1,0c0,0,0,0,0-0.1c0,0,0.2-0.1,0.2-0.1l0,0c0,0-0.1,0.1-0.1,0.1
								c0,0-0.1,0-0.1,0C17.2,6.4,17.2,6.3,17.2,6.2L17.2,6.2z"/>
							<path fill="#7C3A00" d="M17.8,7c0,0-0.1,0.2,0,0.4l0.1,0C17.8,7.4,17.8,7.3,17.8,7L17.8,7z"/>
							<path fill="#7C3A00" d="M18,7.3c0,0-0.1,0.1-0.1,0.1L18,7.3C18,7.4,18,7.4,18,7.3l0.3-0.1l0.1-0.1l-0.1,0l-0.1,0.1L18,7.3z"
								/>
						</g>
						<g>
							<g>
								<path fill="#00A94F" d="M17.1,6.9L17.1,6.9L17.1,6.9c0.1,0,0.1,0.1,0.2,0.1c0,0,0,0,0,0l0,0.1h0c0,0,0,0.1,0,0.1l0.1,0
									l0.1,0.1c0,0,0,0,0.1,0c0,0,0.1-0.1,0.1-0.1s0.1,0,0.2,0c0,0.2,0.4,0.1,0.4,0.1s0,0,0,0c0,0,0-0.1,0-0.1
									c0,0,0.1,0.1,0.1,0.1s0.1,0,0.1,0l0,0c0,0,0.1,0.1,0.1,0.1c0,0,0.1,0,0-0.1c0,0,0.1,0.1,0.1,0.1l0,0c0,0,0-0.1,0-0.1
									c0,0,0.1-0.1,0.1-0.1s0-0.1,0.1-0.1c0,0,0,0,0,0c0,0,0,0,0,0s0,0,0.1,0c0,0,0,0,0,0s-0.1-0.1-0.1-0.1c0,0,0-0.1-0.1-0.1h0
									c0,0,0-0.1-0.1-0.1c0,0,0,0,0.1,0c0,0-0.1-0.1-0.1,0l0,0c0,0,0,0-0.1,0c0,0,0,0,0-0.1c0,0,0,0,0,0c0,0,0,0-0.1,0
									c0,0,0,0,0,0s-0.1,0-0.1,0c0,0,0-0.1,0-0.1c0,0,0,0-0.1,0.1l0,0c0,0-0.1,0.1-0.1,0.1c0,0,0-0.1,0-0.1l0,0.1l0-0.1
									c0,0,0,0-0.1,0.1c0,0,0,0,0,0.1c0,0,0,0-0.1,0c0,0,0,0,0,0s0,0,0,0l0,0c0,0,0,0-0.1,0l0,0c0,0-0.1,0-0.1-0.1
									c0,0-0.1,0-0.1,0c0,0-0.1,0,0,0c0,0,0,0,0,0c0,0,0,0,0,0s0,0,0-0.1c0,0,0,0,0,0s0,0,0-0.1c0,0,0,0,0,0.1l0,0c0,0,0,0,0,0
									c0,0-0.1,0-0.1,0s0-0.1,0-0.1c0,0-0.1,0-0.1,0.1c0,0.1,0,0,0,0s0,0-0.1,0c0,0,0,0,0,0s-0.1,0-0.1,0l0,0c0,0,0,0-0.1,0
									c-0.1,0,0,0,0,0s-0.1,0-0.1,0c0,0,0,0,0,0s-0.1,0-0.1,0c0,0,0,0.1,0,0.1s-0.1,0-0.1,0.1l0.1,0c0,0,0,0,0,0c0,0,0,0,0,0
									s-0.1,0-0.1,0.1c0,0,0,0,0.1,0c0,0,0,0,0,0l0,0c0,0,0.1,0,0.1,0c0,0,0,0,0,0L17.1,6.9L17.1,6.9"/>
								<path fill="#00A94F" d="M17,5.9L17,5.9c0-0.1,0.1-0.1,0.1,0l0-0.1c0,0,0.1,0,0.1,0.1c0,0,0.1,0,0.2,0l0,0.1c0,0,0.1,0,0.2,0
									c0,0,0,0,0,0s0.1,0,0.2,0.1c0.1,0,0.1,0.1,0,0.1L18,6.2c0,0-0.1,0-0.2,0c0,0,0,0,0,0l0,0.1c0,0-0.1,0-0.1-0.1c0,0,0,0,0,0.1
									c0,0-0.1,0-0.1-0.1c0,0-0.1,0-0.1,0c0,0-0.1-0.1-0.1-0.1l-0.1,0c0,0,0,0,0,0c0,0,0,0,0,0l0-0.1l0-0.1c0,0,0,0.1-0.1,0.1
									c0,0,0,0,0-0.1c0,0-0.1,0-0.1,0c0,0,0-0.1,0.1-0.2C17,5.9,17,5.9,17,5.9z"/>
								<path fill="#00A94F" d="M17.9,6.3C17.9,6.3,17.9,6.2,17.9,6.3"/>
								<path fill="#00A94F" d="M17.3,6.1C17.3,6.1,17.3,6.1,17.3,6.1C17.2,6,17.3,6.2,17.3,6.1"/>
								<path fill="#00A94F" d="M17.5,6.2C17.5,6.2,17.5,6.2,17.5,6.2C17.6,6.2,17.6,6.1,17.5,6.2c0-0.1,0.1,0,0.2,0
									c0,0,0-0.1,0-0.1s0.1,0,0.1,0"/>
								<path fill="#00A94F" d="M17.1,6.1C17.1,6.1,17.1,6,17.1,6.1"/>
								<path fill="#00A94F" d="M16.4,6.3L16.4,6.3L16.4,6.3l-0.1,0.1l0,0l0,0.1l-0.1,0l0,0l0,0c0,0,0,0-0.1,0c0,0,0-0.1,0-0.1
									s0,0.1-0.1,0.1c0,0,0,0,0,0s0,0,0,0c0,0,0,0,0,0l0,0v0l0,0c0,0,0-0.1,0-0.1c0,0,0,0,0,0l0,0c0,0-0.1,0-0.1,0
									c0,0,0-0.1,0.1-0.1l0-0.1c0,0,0,0,0.1,0c0,0,0-0.1,0-0.1L16.1,6l0-0.1l0.1,0l0-0.1l0.1,0l0.1-0.1l0.1,0.1l0.1,0
									c0,0,0,0.1,0,0.1c0,0,0.1,0,0.1,0.1c0,0,0,0.1,0,0.1c0,0,0.1,0,0.1,0c0,0,0,0.1,0,0.1c0,0,0.2,0,0.2,0.1c0,0,0,0-0.1,0
									c0,0,0,0.1,0,0.1l0,0c0,0,0,0-0.1,0l0,0.1l-0.1,0l0,0c0,0,0,0,0,0l0,0l0,0c0,0-0.1,0-0.1-0.1c0,0,0,0,0,0l-0.1,0
									c0,0,0,0,0-0.1c0,0,0,0,0,0S16.5,6.4,16.4,6.3L16.4,6.3C16.5,6.4,16.5,6.4,16.4,6.3z"/>
								<path fill="#00A94F" d="M15.5,6.6c0,0,0.1,0.1,0.1,0.1c0,0,0-0.1,0-0.1l0,0c0,0,0-0.1,0-0.1c0,0,0.1-0.1,0.1,0
									c0,0,0.1-0.1-0.1-0.1c0,0,0,0,0.1,0c0,0,0,0,0,0h0.1c0,0-0.1,0-0.1-0.1c-0.1,0,0,0,0,0c0,0,0-0.1,0-0.1s0,0-0.1,0l0,0
									c0,0-0.1,0-0.1,0c0,0,0,0,0-0.1c0,0,0,0-0.1,0c0,0,0,0-0.1,0c0,0-0.1,0-0.1,0l0,0.1l-0.1,0l0,0c0,0-0.1,0-0.1,0
									c0,0,0,0.1,0,0.1c0,0-0.1,0-0.1,0c0,0,0,0,0,0s-0.1,0-0.1,0l0,0l0,0l0,0c0,0,0,0-0.1,0c0,0,0,0,0,0l0,0l0.1,0
									c0,0,0,0.1,0,0.2c0,0,0.1-0.1,0.1-0.1l-0.1,0.1c0,0,0.1,0,0.1,0c0,0,0,0,0,0l0,0.1c0,0,0-0.1,0-0.1c0,0,0.1,0,0.1,0v0
									c0,0,0.1,0,0.1,0c0,0,0,0,0,0l0,0l0,0c0,0,0,0,0,0C15.4,6.7,15.4,6.7,15.5,6.6L15.5,6.6C15.4,6.6,15.4,6.6,15.5,6.6z"/>
								<path fill="#00A94F" d="M15,7.1L15,7.1c0,0.1,0,0.1,0,0.1c0,0.2,0,0.2,0,0.2c0,0,0,0.1,0,0.1s0.1,0,0.1,0.1
									c0,0.1,0.2,0,0.3-0.1c0.1,0,0.3,0,0.3,0l0.1,0l0.1,0c0,0,0,0,0,0c0,0,0.1,0,0.1,0s0,0,0,0c0,0,0.1-0.1,0.1-0.1l0.1,0
									c0,0,0,0,0-0.1c0,0,0.1,0,0.1,0l0.1,0l0.1-0.1c0,0,0,0.1,0,0.1c0,0,0.1,0.1,0.1,0c0,0,0-0.1,0-0.1l0.1,0
									c0-0.1-0.1-0.1-0.1-0.1s0.1,0,0-0.1c0,0,0,0,0,0l0-0.1h0l0,0l-0.1,0l0-0.1c0,0-0.2-0.1-0.2-0.1l0,0c0,0,0,0,0,0
									c0,0-0.2,0-0.2,0c0,0-0.1-0.1-0.1-0.1L16,6.8l0,0l-0.1,0c0,0,0,0,0,0c0,0-0.1-0.1-0.1-0.1c0,0-0.1,0.1-0.1,0.1s0,0.1,0,0
									c0,0-0.1-0.1-0.1,0c0,0-0.1,0.1-0.1,0.1c0,0-0.1,0-0.1,0c0,0-0.1,0.1-0.1,0.1c0,0-0.1,0-0.1,0s0,0,0,0.1L15,7.1z"/>
								<path fill="#00A94F" d="M16.4,8.3L16.4,8.3L16.4,8.3l0.1-0.1l0.1,0.1l0-0.1v0.1l0.1-0.1c0,0,0,0.1,0.1,0.1c0,0,0-0.1,0-0.1
									s0-0.1,0-0.1l0,0c0,0-0.1-0.1-0.1-0.1c0,0-0.1,0-0.1,0s-0.1,0-0.1,0c0,0-0.1,0-0.1,0s0,0-0.1-0.1c0,0,0,0,0,0s0,0-0.1,0
									c0,0,0,0,0,0l-0.1,0l0,0l-0.1,0l0,0l-0.1,0l0,0l-0.1,0l0,0l-0.1,0V8l-0.1,0l0,0c0,0-0.1,0.1-0.1,0.1c0,0,0,0,0,0l-0.1,0l0,0
									l-0.1,0.1l0.1,0.1l0,0.1l0.1,0l0,0.1l0.1,0v0.1l0.1-0.1c0,0,0.1,0.1,0.1,0.1c0,0,0-0.1,0-0.1h0V8.4l0,0l0.1-0.1l0.1,0.1
									L16.4,8.3L16.4,8.3z"/>
								<path fill="#00A94F" d="M17,7.9L17,7.9l-0.1-0.1c0,0,0-0.1,0-0.1c0,0-0.1,0-0.1,0s0,0,0-0.1c0-0.1,0-0.1,0-0.1l0-0.1l0.1,0
									L17,7.3l0.2,0l0-0.1c0,0,0.1,0,0.1,0c0,0,0.1,0,0.1,0l0.1,0l0,0.1c0,0,0.1,0,0.2,0l-0.1,0.1l0.1,0l0.1,0l0.1,0l0.1,0l0,0
									h0.1l0,0l0.1,0.1l0,0c0,0,0.1,0,0.1,0c0,0,0,0,0,0s0,0.1,0,0.1c0,0,0,0.1,0.1,0.1c0.1,0,0.1,0,0.1,0c0,0,0,0.1-0.1,0.1V8
									c0,0-0.1,0.1-0.1,0.1l0,0c0,0,0,0,0,0.1c0,0-0.1-0.1-0.1-0.1c0,0,0,0.1,0,0.1L18,8L18,8l-0.1-0.1l-0.1,0l-0.1-0.1l-0.1,0
									l0-0.1h-0.1l0-0.1l0,0.1l-0.1,0l-0.1,0.1c0,0,0,0,0-0.1c0,0-0.1,0.1-0.1,0.1l0-0.1l0,0.1c0,0,0-0.1-0.1-0.1
									C17.1,7.8,17,7.9,17,7.9z"/>
								<path fill="#00A94F" d="M17,8.3L17,8.3l0.2-0.1l0.1-0.1l0.1,0l0,0.1l0-0.1l0.1,0.1l0,0l0.1,0h0l0,0.1c0,0,0.1,0,0.1,0
									c0,0,0,0.1,0,0.1l0.1,0l0,0.1c0,0,0.1,0.1,0,0.2c0,0-0.1-0.1-0.1-0.1s0,0.1,0,0.1c0,0-0.2,0-0.2,0l-0.1,0.1
									c0,0-0.1-0.1-0.1-0.1c0,0,0,0.1,0,0.1s-0.1-0.1-0.1-0.2c0,0,0,0,0,0s-0.1-0.1-0.1-0.1c0,0-0.1-0.1-0.1-0.1s-0.1,0.1-0.2,0.1
									c0,0,0-0.1,0-0.1c0,0-0.1,0-0.1,0S17,8.4,17,8.3z"/>
							</g>
							<g>
								<path fill="none" d="M17.9,6.4L17.9,6.4c0,0.1,0.1,0,0.1,0.1c0,0,0,0,0,0.1c0,0,0.1,0,0.1,0c0,0,0,0,0,0c0,0,0,0,0.1,0
									c0,0-0.1,0-0.1,0.1c0,0,0.1,0,0.2,0.1c0,0-0.1,0.1-0.1,0.1c0,0,0,0,0,0.1l-0.1,0c0,0,0,0.1,0,0.1c0,0-0.1,0-0.1,0"/>
								<path fill="none" d="M18.4,6.8c0,0,0-0.1,0-0.2c0,0,0,0,0.1,0c0.1,0,0.1,0,0.1,0s0.1,0,0.1,0c0,0,0-0.1,0-0.1s0,0,0.1,0"/>
								<path fill="none" d="M16.3,6.4C16.3,6.4,16.3,6.3,16.3,6.4C16.3,6.3,16.3,6.3,16.3,6.4c0.1-0.1,0.1-0.1,0.1-0.1l0,0
									c0,0,0.1,0,0.1-0.1c0,0,0,0,0,0s0,0,0-0.1c0,0,0,0,0,0s0,0,0,0c0,0,0.1,0,0.1,0s0,0,0-0.1"/>
								<path fill="none" d="M16.1,6.4c0,0,0-0.1,0-0.1"/>
								<path fill="none" d="M15.3,6.6c0,0,0-0.1,0-0.1c0,0,0,0,0.1,0"/>
								<path fill="none" d="M15.7,6.5c0,0-0.1-0.1-0.1-0.1"/>
								<path fill="none" d="M15.1,6.7c0,0,0-0.1,0-0.1"/>
								<path fill="none" d="M15.7,7.4c0,0,0-0.1,0-0.1c0,0,0.1,0.1,0.1,0.1s0.1,0,0.1,0c0-0.1,0.1,0,0.1,0s0-0.1,0-0.1
									c0,0,0.1,0,0.1,0s0.1,0,0-0.1c0,0,0.1,0,0.1,0s0-0.1,0-0.1c0,0,0.1,0,0.1,0l0,0c0,0,0.1,0,0.1,0c0,0,0-0.1,0-0.1"/>
								<path fill="none" d="M15.8,8.2C15.8,8.2,15.9,8.2,15.8,8.2c0.1,0,0.1,0.1,0.1,0.1l0-0.1l0,0c0,0,0-0.1,0.1-0.1
									c0,0,0.1,0.1,0.1,0.1"/>
								<path fill="none" d="M17.4,7.8l0.1-0.1l0.1,0l0-0.1l0.1,0l0-0.1l0.1,0l0-0.1c0,0,0.1,0,0.1,0.1c0,0,0-0.1,0-0.1l0.1,0
									c0,0,0,0,0-0.1"/>
								<path fill="none" d="M17.6,7.6l0.1,0.1c0,0,0.1,0,0.1,0c0,0,0.1,0.1,0.1,0.1s0.1,0,0.1,0c0,0,0.1,0.1,0.1,0.1l0,0
									c0,0,0.1,0.1,0.1,0.1c0,0,0-0.1,0-0.1c0,0,0.1,0,0.1,0c0-0.1,0.1-0.1,0.1-0.1"/>
								<path fill="none" d="M17.3,8.4L17.3,8.4l0.1,0c0,0,0-0.1,0.1-0.1c0,0,0,0,0.1,0c0,0,0,0,0,0s0.1,0,0.1,0c0,0,0.1,0,0.1,0
									l0,0l0,0l0,0l0-0.1"/>
							</g>
						</g>
					</g>
					<g>
						<g>
							<path fill="#007DC3" d="M15.4,13.4c0,0-0.4,0.2-0.6,0.2c-0.1,0-0.4-0.1-0.3-0.3c0-0.1,0.2-0.1,0.3-0.1
								C15,13.1,15.1,13.1,15.4,13.4z"/>
							<path fill="#007DC3" d="M15.7,13.1c0,0-0.1-0.1-0.2-0.1c0,0-0.1,0-0.1-0.1c0,0,0.1-0.1,0.2-0.1c0.1,0,0.2,0,0.2,0.1
								C15.8,13,15.7,13.1,15.7,13.1z"/>
							<path fill="#007DC3" d="M18.3,13.4c0,0,0.4,0.2,0.6,0.2c0.1,0,0.4-0.1,0.3-0.3c0-0.1-0.2-0.1-0.3-0.1
								C18.8,13.1,18.7,13.2,18.3,13.4z"/>
							<path fill="#FFFFFF" d="M16.9,13.9c0.7,0,1.1-0.2,1.3-0.4c0.5-0.4,0.6-0.4,0.7-0.4c0.1,0,0.2,0.1,0.2,0.2
								c0,0.2-0.1,0.3-0.3,0.3c-0.1,0-0.5-0.2-0.5-0.2l-0.1,0c0.2,0.1,0.7,0.3,0.8,0.1c0.1-0.2,0.2-0.4,0.3-0.6c0,0-0.1-0.3-0.5-0.3
								c-0.3,0-0.7,0.2-0.9,0.4c-0.2,0.2-0.5,0.4-1.2,0.4c-0.7,0-1-0.2-1.2-0.4c-0.2-0.2-0.5-0.4-0.9-0.4c-0.3,0-0.5,0.2-0.5,0.3
								c0,0.1,0.1,0.3,0.2,0.5c0.2,0.3,0.6,0.2,0.9,0l-0.1,0c0,0-0.3,0.2-0.5,0.2c-0.1,0-0.3-0.1-0.3-0.3c0-0.1,0.1-0.2,0.2-0.2
								c0.1,0,0.2,0,0.7,0.4C15.8,13.6,16.2,13.9,16.9,13.9z"/>
						</g>
						<g>
							<path fill="#FFFFFF" d="M15.7,13c0,0,0-0.1,0-0.1c0-0.1,0-0.1-0.1-0.1c0,0-0.2,0.1-0.2,0.1s0,0,0,0c0,0,0.2-0.1,0.2-0.1
								c0.1,0,0.4,0.2,0.6,0.3c0,0,0.1,0.1,0,0.3C16,13.2,15.9,13.2,15.7,13L15.7,13z"/>
							<g>
								<path fill="#FFFFFF" d="M16.1,14.1c0,0-0.2-0.1-0.4-0.1c-0.1,0-0.2-0.1-0.2-0.2c0-0.2,0.1-0.3,0.1-0.3s0.2,0.1,0.4,0.2
									c0.2,0.1,0.2,0.1,0.2,0.1s0,0.1,0,0.1L16.1,14.1z"/>
								<path fill="#007DC3" d="M15.5,13.9c0,0,0.1,0,0.1,0c0.1,0,0.1-0.1,0.1-0.2c0,0,0.3,0.1,0.5,0.2c0,0,0,0.1,0,0.1
									c0,0,0,0.1-0.1,0.1c0,0-0.3-0.1-0.5-0.1C15.6,14,15.5,13.9,15.5,13.9z"/>
							</g>
						</g>
					</g>
					<g>
						<g>
							<path fill="#7C3A00" d="M13.4,8.4l2.2-1.2l-0.1-0.2l-1.9,0.9c0,0-0.4,0.2-0.6,0.4C13,8.6,13,8.6,13,8.6s0,0.1,0,0.1l0,0.1
								c0,0,0,0,0.1,0.1c0,0,0.1,0,0.1-0.1C13.2,8.6,13.3,8.5,13.4,8.4z"/>
							<path fill="#FFFFFF" d="M15.2,7.3l0.3-0.1c0,0,0.1,0.1,0.1,0.2c0,0,0,0.2,0.3,0.3c0,0-0.2,0.2-0.5,0.3c0,0,0-0.3,0-0.4
								C15.2,7.5,15.2,7.4,15.2,7.3z"/>
							<path fill="none" d="M15.5,7.3c-0.1,0-0.3,0.1-0.3,0.1"/>
							<path fill="none" d="M15.4,7.4c0,0,0,0.1,0,0.2"/>
							<path fill="none" d="M15.4,7.4c0,0,0,0.1,0,0.1"/>
							<path fill="none" d="M15.4,7.4C15.4,7.5,15.4,7.5,15.4,7.4"/>
							<path fill="none" d="M15.4,7.4C15.3,7.5,15.4,7.5,15.4,7.4"/>
							<path fill="none" d="M15.5,7.4c0,0,0.1,0.2,0.1,0.2"/>
							<path fill="none" d="M15.6,7.5c0,0,0.1,0.1,0.1,0.1"/>
							<path fill="none" d="M15.5,7.5c0,0,0,0.1,0.1,0.1"/>
							<path fill="none" d="M15.5,7.6C15.6,7.6,15.6,7.7,15.5,7.6"/>
						</g>
						<path fill="#E7A614" d="M14.4,7.1c0,0.1,0,0.2,0,0.3c0,0.1,0,0.1,0.1,0.2c0,0,0,0.1,0.1,0.1c0.1,0.1,0.2,0,0.3,0
							c0,0,0.1-0.1,0.1-0.1c0,0,0-0.1,0-0.1c0,0,0,0,0,0c0,0,0-0.1,0-0.1c0,0,0-0.1-0.1-0.1c0-0.1,0-0.1,0-0.2c0,0,0-0.1,0-0.1
							C14.8,7.2,14.6,7.1,14.4,7.1C14.4,7.1,14.4,7.1,14.4,7.1C14.4,7.1,14.4,7.1,14.4,7.1z"/>
						<g>
							<path d="M14.4,7.2C14.4,7.2,14.4,7.2,14.4,7.2c0-0.2,0-0.2,0-0.2c0,0,0,0,0-0.1c0,0,0.1,0,0.1,0c0,0,0,0,0.1,0
								c0,0,0.1,0,0.2,0c0,0,0.1,0.1,0.1,0.1c0,0,0,0.1,0,0.2c0,0.1,0,0.1,0,0.1s0-0.1-0.1,0c0,0,0,0,0-0.1c0,0,0-0.1,0-0.1
								c0,0-0.2,0.1-0.3,0C14.5,7.2,14.4,7.2,14.4,7.2L14.4,7.2z"/>
							<path fill="#FFFFFF" d="M14.5,7.1c0,0-0.1-0.1,0-0.1C14.5,7,14.5,7.1,14.5,7.1C14.5,7.1,14.5,7.1,14.5,7.1z"/>
						</g>
						<g>
							<path fill="#E7A614" d="M14.9,7.5C14.9,7.5,14.9,7.5,14.9,7.5c0,0.1,0,0.1,0,0.1c0,0-0.1,0.1-0.1,0.1c-0.1,0-0.1,0.1-0.3,0
								c0,0,0,0,0,0c0,0,0,0.1-0.1,0.2c0,0-0.5,0.2-0.5,0.2s0,0.1,0,0.2c0,0,0,0,0,0c0,0-0.1,0.1-0.1,0.2c0,0-0.1,0-0.1-0.1
								c0-0.1,0-0.1,0-0.1c0,0,0-0.1,0-0.2c0,0-0.1,0-0.1-0.1c0,0,0,0,0,0c0,0,0,0,0,0c0,0,0,0.1,0,0.1l-0.3,0.1c0,0,0,0,0,0.1
								c0,0,0,0.3,0.1,0.4c0.1,0.1,0.1,0.1,0.1,0.1c0,0,0,0,0.1,0.1c0,0,0.1,0,0.1,0c0,0,0-0.1,0.1-0.1c0.1,0,0.2-0.2,0.2-0.2
								c0,0,0.1,0.2,0.1,0.4c0,0,0.3,0.1,0.5,0.1c0.2,0,0.3,0,0.3,0s0-0.2,0-0.2c0,0,0,0.1,0.1,0.2c0,0.1,0.1,0.2,0.1,0.2
								c0.1,0,0.1-0.1,0.1-0.1L15.5,9L15.7,9c0,0,0.1,0,0.2,0c0,0,0.1,0,0,0c0,0,0,0,0,0c0,0,0.1,0,0.1,0C16,9,16,9,16,9
								c0,0,0,0,0,0c0,0-0.1-0.1-0.1-0.1c0,0-0.1,0-0.1,0c-0.1,0-0.1,0-0.2,0c0,0-0.1,0-0.2,0c0,0,0,0,0,0c0,0,0-0.2,0-0.3
								c0-0.1,0-0.1,0-0.2c0,0,0-0.2,0-0.3c0,0-0.1-0.1-0.2-0.1c-0.1,0-0.2-0.1-0.2-0.2C14.9,7.7,14.9,7.6,14.9,7.5z"/>
							<g>
								<path fill="none" d="M16,9C16,8.9,16,8.9,16,9c-0.1,0-0.1-0.1-0.1-0.1c0,0-0.1,0-0.1,0"/>
								<path fill="none" d="M15.8,8.9C15.8,8.9,15.8,8.9,15.8,8.9C15.8,8.9,15.8,8.9,15.8,8.9C15.8,8.9,15.8,8.9,15.8,8.9
									c-0.1,0-0.1,0-0.1-0.1"/>
								<path fill="none" d="M13.8,8.6c0,0,0.1,0.1,0.1,0.2c0,0,0,0.1,0,0.1"/>
								<path fill="none" d="M13.5,8.6c0,0,0,0.2,0.2,0.4"/>
								<path fill="none" d="M13.6,8.4C13.6,8.4,13.5,8.4,13.6,8.4"/>
								<path fill="none" d="M14,8.8c0-0.1,0.1-0.1,0.1-0.1"/>
								<path fill="none" d="M14.2,8.8c0-0.1,0-0.1,0-0.3c0,0,0-0.2,0-0.2c0,0,0,0.2-0.1,0.3"/>
								<path fill="none" d="M15.1,8.9c0-0.1,0-0.2,0-0.2c0-0.2,0-0.2,0-0.3c0,0,0.1-0.1,0-0.3c0,0,0.1,0.3-0.1,0.3
									c-0.2,0-0.2-0.1-0.2-0.1"/>
								<path fill="none" d="M14.2,8.3c0,0.1,0,0.3,0.3,0.3c0.1,0,0.2-0.1,0.2-0.1"/>
								<path fill="none" d="M14.7,8.3c0-0.1,0-0.1,0-0.2"/>
								<path fill="none" d="M14.3,8c0.1,0,0.1,0,0.3,0"/>
								<path fill="none" d="M14.6,7.8c0,0.1,0,0.2,0.1,0.2"/>
								<path fill="none" d="M14.8,7.8c0,0,0,0.1,0,0.1"/>
								<path fill="none" d="M14.8,8c0,0,0.1,0,0.3,0"/>
								<path fill="none" d="M15.1,8.7c0,0,0,0.1,0.1,0.2"/>
								<path fill="none" d="M14.3,8.5c0,0,0,0.2,0,0.3c0,0.1,0,0.2,0,0.3"/>
								<path fill="none" d="M14.4,8.6c0,0-0.1,0.1-0.1,0.1"/>
								<path fill="none" d="M14.6,8.6c0,0-0.1,0.3-0.1,0.3c0,0,0.1,0,0.1,0.2"/>
								<path fill="none" d="M14.7,8.5C14.7,8.6,14.7,8.6,14.7,8.5"/>
								<path fill="none" d="M14.8,8.6c0,0,0.2,0.2,0.1,0.3"/>
								<path fill="none" d="M14.7,8.7c0,0,0,0.2,0,0.3"/>
								<path fill="none" d="M14.7,9C14.6,9,14.6,9,14.7,9"/>
								<path fill="none" d="M14.8,9c0,0,0.1,0,0.1,0.2"/>
								<path fill="none" d="M15.4,8.9C15.3,8.9,15.3,8.9,15.4,8.9c-0.1,0.1-0.1,0.1-0.1,0.1"/>
								<path fill="none" d="M14.6,7.3C14.6,7.4,14.6,7.4,14.6,7.3"/>
								<path fill="none" d="M14.9,7.5C14.9,7.5,14.9,7.5,14.9,7.5"/>
								<path fill="none" d="M14.9,7.4C14.9,7.4,14.9,7.4,14.9,7.4"/>
							</g>
							<g>
								<path d="M14.3,8.5C14.3,8.5,14.4,8.5,14.3,8.5C14.4,8.4,14.3,8.4,14.3,8.5C14.3,8.4,14.3,8.4,14.3,8.5
									C14.3,8.5,14.3,8.5,14.3,8.5z"/>
							</g>
							<g>
								<path d="M15,8.5C15,8.5,15,8.5,15,8.5C15,8.4,15,8.4,15,8.5C15,8.4,15,8.4,15,8.5C15,8.5,15,8.5,15,8.5z"/>
							</g>
						</g>
						<g>
							<path fill="none" d="M14.4,7.3C14.4,7.3,14.5,7.3,14.4,7.3c0.1,0,0.1,0.1,0.1,0.2c0,0,0,0.1,0,0.1c0,0,0,0,0.1,0c0,0,0,0,0,0
								c0,0,0,0,0,0c0,0,0,0,0-0.1"/>
							<path fill="none" d="M14.6,7.3C14.6,7.3,14.6,7.3,14.6,7.3c0.1,0,0.2,0,0.2,0"/>
							<path fill="#FFFFFF" d="M14.4,7.3C14.4,7.3,14.4,7.3,14.4,7.3C14.5,7.4,14.4,7.4,14.4,7.3C14.4,7.4,14.4,7.4,14.4,7.3
								C14.4,7.3,14.4,7.3,14.4,7.3z"/>
							<g>
								<ellipse cx="14.4" cy="7.4" rx="0" ry="0"/>
							</g>
							<g>
								<path fill="none" d="M14.6,7.6c-0.1,0-0.1,0-0.2,0"/>
								<path fill="none" d="M14.5,7.6C14.5,7.6,14.5,7.6,14.5,7.6C14.6,7.6,14.6,7.6,14.5,7.6c0.1,0,0.1,0,0.2,0"/>
								<path fill="none" d="M14.5,7.6c0,0,0.1,0,0.2,0"/>
							</g>
							<path fill="#FFFFFF" d="M14.6,7.4C14.7,7.3,14.7,7.3,14.6,7.4c0.1,0,0.1,0,0.1,0C14.7,7.4,14.8,7.4,14.6,7.4
								C14.7,7.4,14.7,7.4,14.6,7.4C14.7,7.4,14.6,7.4,14.6,7.4C14.6,7.4,14.6,7.4,14.6,7.4z"/>
							<g>
								<path d="M14.7,7.4C14.7,7.4,14.7,7.4,14.7,7.4C14.7,7.3,14.7,7.3,14.7,7.4C14.7,7.3,14.7,7.3,14.7,7.4
									C14.7,7.4,14.7,7.4,14.7,7.4z"/>
							</g>
						</g>
						<g>
							<path fill="#E7A614" d="M13.3,8.2C13.3,8.2,13.3,8.2,13.3,8.2c0-0.1,0-0.1,0.1-0.2c0,0,0-0.1,0.1,0c0,0,0.1,0,0.1,0
								c0,0,0.1,0.1,0.1,0.1c0,0,0,0.1,0,0.1c0,0,0,0,0,0c0,0,0,0,0,0.1c0,0,0,0,0,0c0,0,0,0,0,0.1c0,0,0,0-0.1,0c0,0,0,0,0,0
								C13.4,8.3,13.4,8.3,13.3,8.2C13.4,8.2,13.4,8.2,13.3,8.2z"/>
							<g>
								<path fill="none" d="M13.6,8.1c0-0.1-0.1-0.1-0.1-0.1"/>
								<path fill="none" d="M13.5,8.2C13.5,8.2,13.5,8.1,13.5,8.2c0-0.1-0.1-0.1-0.2-0.1"/>
								<path fill="none" d="M13.5,8.2C13.4,8.2,13.4,8.2,13.5,8.2c-0.1-0.1-0.1-0.1-0.1-0.1"/>
							</g>
						</g>
						<g>
							<path fill="#FFFFFF" d="M14,9.7c0-0.2,0.1-0.4,0.2-0.5c0,0,0.1,0,0.3,0c0.2,0,0.3,0,0.3,0c0.1,0,0.2,0,0.2,0s0,0.1,0,0.1
								c0,0.2,0.1,0.8,0.1,1c0,0,0,0.1,0,0.4c0,0.3,0.1,0.9,0.1,1.2l-0.1,0c0,0-0.4,0-0.4,0c0-0.1,0-0.8,0-1.3c0,0,0-0.1,0-0.2
								c0-0.1-0.1-0.3-0.1-0.4c0,0-0.2,0.5-0.2,0.6c0,0.1,0,1.2,0,1.2c0,0-0.2,0.2-0.3,0.2c0,0-0.3-0.1-0.3-0.1c0,0,0-0.4,0.1-1
								c0-0.2,0-0.3,0-0.3C14,10.8,14,10,14,9.7z"/>
							<path fill="none" d="M14.3,9.4c0,0-0.1,0.2-0.2,0.3"/>
							<path fill="none" d="M14.5,9.4c0,0.1-0.2,0.7-0.2,1.4"/>
							<path fill="none" d="M14.5,10.8c0,0.1,0,0.1-0.1,0.2"/>
							<path fill="none" d="M14.3,11c0,0.1,0,0.5,0,0.6"/>
							<path fill="none" d="M14.2,11.7c0,0-0.1,0.3-0.1,0.6"/>
							<path fill="none" d="M15.1,11.2c0,0.1,0,0.5,0.1,0.8"/>
							<path fill="none" d="M14.6,9.4c0,0.1,0,0.5,0,0.5c0,0,0,0.1,0.1,0.1"/>
							<path fill="none" d="M14.7,10.1c0,0,0,0.1,0,0.2"/>
							<path fill="none" d="M14.5,9.8c0,0-0.1,0.3-0.1,0.3"/>
							<path fill="none" d="M14.8,9.4c0,0,0.1,0,0.2,0c0,0,0,0.9,0.1,1.4"/>
							<path fill="none" d="M14.8,9.5c0,0.1,0,0.5,0,0.5"/>
							<path fill="none" d="M14.8,10.1c0,0,0.1,0.1,0,0.1"/>
							<path fill="none" d="M14.3,9.4C14.4,9.4,14.4,9.4,14.3,9.4"/>
							<path fill="none" d="M14.6,9.4c0,0,0,0.1,0,0.1"/>
							<path fill="none" d="M14.8,10.8c0,0,0,0.1,0,0.1"/>
						</g>
						<g>
							<path fill="#FFFFFF" d="M14.2,9.3c0,0,0-0.1,0-0.1c0,0,0.1,0,0.3,0c0.1,0,0.3,0,0.4,0c0.1,0,0.2,0,0.2,0s0,0.1,0,0.2
								c0,0-0.1,0-0.3,0c-0.1,0-0.4,0-0.4,0C14.3,9.3,14.2,9.3,14.2,9.3z"/>
							<polygon fill="#FFFFFF" points="14.3,9.3 14.3,9.1 14.3,9.1 14.3,9.3 							"/>
							<polygon fill="#FFFFFF" points="14.9,9.2 14.9,9.3 15,9.3 15,9.2 							"/>
							<polygon fill="#FFFFFF" points="14.5,9.2 14.4,9.3 14.5,9.3 14.5,9.2 							"/>
						</g>
						<g>
							<path fill="#E7A614" d="M13.9,12.2c0,0,0,0.1,0,0.2c0,0,0,0.1,0,0.1c0,0,0-0.1,0-0.1s0,0.1,0,0.1c0.1,0,0.1-0.1,0.1-0.1
								c0,0,0,0.1,0,0.1c0.1,0,0.1-0.1,0.1-0.1s0,0.1,0,0.1c0.1,0,0.1-0.1,0.1-0.1s0,0.2,0,0.1c0,0,0-0.1,0.1-0.1c0,0,0-0.1,0-0.2
								c0-0.1,0-0.1,0-0.1s-0.1,0.1-0.2,0.1C14.1,12.3,13.9,12.2,13.9,12.2z"/>
							<path fill="#E7A614" d="M14.8,12.1C14.8,12,14.8,12.1,14.8,12.1c0,0.1,0,0.2,0.1,0.2c0.1,0,0.2,0,0.3,0s0.2,0,0.2,0
								s0.1,0,0.1,0c0,0,0.1,0,0.1,0c0,0,0.1,0,0.1-0.1c0,0,0,0-0.1,0c-0.1,0-0.1,0-0.2,0c0,0-0.1,0-0.2-0.1c0,0-0.1,0-0.2,0
								C15,12.1,14.8,12.1,14.8,12.1z"/>
						</g>
					</g>
					<g>
						<g>
							<path fill="#7C3A00" d="M17.6,7.1l2.7,1.3c0,0,0,0,0,0.1c0,0.1,0.1,0.1,0.1,0.1c0.1,0,0.1-0.1,0.1-0.1c0,0-0.1-0.1-0.1-0.1
								l-0.1,0c0,0,0,0-0.1,0c-0.1,0-0.2-0.2-0.3-0.2l-2.4-1.3c0,0-0.2-0.1-0.3,0C17.4,7,17.4,7,17.6,7.1z"/>
						</g>
						<line fill="none" x1="17.6" y1="6.9" x2="18.8" y2="7.6"/>
						<path fill="#7C3A00" d="M19.3,7.1c0,0.1,0,0.1,0,0.2c0,0,0,0,0,0.1c0,0.1,0,0.2-0.1,0.2c0,0,0,0.1-0.1,0.1
							c-0.1,0.1-0.2,0-0.3,0c0,0-0.1,0-0.1-0.1c0,0,0-0.1,0-0.1c0,0,0,0,0,0c0,0,0-0.1,0-0.1c0,0,0-0.1,0.1-0.1c0-0.1,0-0.1,0-0.2
							c0,0,0-0.1,0-0.1C19,7.2,19.1,7.1,19.3,7.1C19.3,7.1,19.3,7.1,19.3,7.1C19.3,7.1,19.3,7.1,19.3,7.1z"/>
						<g>
							<path d="M19.4,7.2c0,0,0-0.1,0-0.1c0,0,0,0-0.1-0.1c0,0,0,0-0.1,0c0,0-0.1,0-0.1,0c0,0-0.1,0-0.1,0c-0.1,0-0.1,0-0.1,0
								c0,0-0.1,0.1-0.1,0.1c0,0,0,0.1,0,0.2c0,0.1,0,0.1,0,0.1s0,0,0.1,0c0,0,0-0.1,0-0.1c0,0,0-0.1,0-0.1c0,0,0.1,0.1,0.3,0.1
								C19.2,7.2,19.3,7.2,19.4,7.2L19.4,7.2z"/>
						</g>
						<g>
							<path fill="#7C3A00" d="M18.8,7.5C18.8,7.5,18.8,7.5,18.8,7.5c0,0.1,0,0.1,0,0.1c0,0,0,0,0.1,0.1c0,0,0.2,0.1,0.3,0
								c0,0,0,0,0,0c0,0,0,0.1,0.1,0.2c0,0,0.5,0.2,0.5,0.2s0,0.1,0,0.2c0,0,0,0,0,0c0,0,0.1,0.1,0.1,0.2c0,0,0.1,0,0.1-0.1
								c0-0.1,0-0.1,0-0.1c0,0,0-0.1,0-0.2c0,0,0.1,0,0.1-0.1c0,0,0,0,0,0c0,0,0,0,0,0c0,0,0,0.1,0,0.1l0.3,0.1c0,0,0,0,0,0.1
								c0,0,0,0.3-0.1,0.4c-0.1,0.1-0.1,0.1-0.1,0.1c0,0,0,0-0.1,0.1c0,0-0.1,0-0.1,0c0,0,0-0.1-0.1-0.1c-0.1,0-0.2-0.2-0.2-0.2
								c0,0-0.1,0.2-0.1,0.4c0,0-0.3,0.1-0.5,0.1c-0.2,0-0.3,0-0.3,0s0-0.2,0-0.2c0,0,0,0.1-0.1,0.2c0,0.1-0.1,0.2-0.1,0.2
								c-0.1,0-0.1-0.1-0.1-0.1L18.2,9L18.1,9c0,0-0.1,0-0.2,0c0,0-0.1,0,0,0c0,0,0,0,0,0c0,0-0.1,0-0.1,0c-0.1,0-0.1,0-0.1,0
								c0,0,0,0,0,0c0,0,0.1-0.1,0.1-0.1c0,0,0.1,0,0.1,0c0.1,0,0.1,0,0.2,0c0,0,0.1,0,0.2,0c0,0,0,0,0,0c0,0,0-0.2,0-0.3
								c0-0.1,0-0.1,0-0.2c0,0,0-0.2,0-0.2c0-0.2,0.1-0.2,0.2-0.3c0.1,0,0.2-0.1,0.2-0.2C18.8,7.7,18.8,7.6,18.8,7.5z"/>
							<g>
								<path fill="none" d="M17.7,9C17.8,8.9,17.8,8.9,17.7,9c0.1,0,0.1-0.1,0.1-0.1c0,0,0.1,0,0.1,0"/>
								<path fill="none" d="M17.9,8.9C17.9,8.9,17.9,8.9,17.9,8.9C17.9,8.9,18,8.9,17.9,8.9C18,8.9,18,8.9,17.9,8.9
									c0.1,0,0.1,0,0.1-0.1"/>
								<path fill="none" d="M19.9,8.6c0,0-0.1,0.1-0.1,0.2c0,0,0,0.1,0,0.1"/>
								<path fill="none" d="M20.2,8.6c0,0,0,0.2-0.2,0.4"/>
								<path fill="none" d="M20.2,8.4C20.2,8.4,20.2,8.4,20.2,8.4"/>
								<path fill="none" d="M19.7,8.8c0-0.1-0.1-0.1-0.1-0.1"/>
								<path fill="none" d="M19.6,8.8c0-0.1,0-0.1,0-0.3c0,0,0-0.2,0-0.2c0,0,0,0.2,0.1,0.3"/>
								<path fill="none" d="M18.7,8.9c0-0.1,0-0.2,0-0.2c0-0.2,0-0.2,0-0.3c0,0-0.1-0.1,0-0.3c0,0-0.1,0.3,0.1,0.3
									C19,8.5,19,8.4,19,8.4"/>
								<path fill="none" d="M19.6,8.3c0,0.1,0,0.3-0.3,0.3c-0.1,0-0.2-0.1-0.2-0.1"/>
								<path fill="none" d="M19,8.3c0-0.1,0-0.1,0-0.2"/>
								<path fill="none" d="M19.4,8c-0.1,0-0.1,0-0.3,0"/>
								<path fill="none" d="M19.2,7.8c0,0.1,0,0.2-0.1,0.2"/>
								<path fill="none" d="M18.9,7.8c0,0,0,0.1,0,0.1"/>
								<path fill="none" d="M18.9,8c0,0-0.1,0-0.3,0"/>
								<path fill="none" d="M18.6,8.7c0,0,0,0.1-0.1,0.2"/>
								<path fill="none" d="M19.5,8.5c0,0,0,0.2,0,0.3c0,0.1,0,0.2,0,0.3"/>
								<path fill="none" d="M19.3,8.6c0,0,0.1,0.1,0.1,0.1"/>
								<path fill="none" d="M19.2,8.6c0,0,0.1,0.3,0.1,0.3c0,0-0.1,0-0.1,0.2"/>
								<path fill="none" d="M19,8.5C19,8.6,19,8.6,19,8.5"/>
								<path fill="none" d="M18.9,8.6c0,0-0.2,0.2-0.1,0.3"/>
								<path fill="none" d="M19,8.7c0,0,0,0.2,0,0.3"/>
								<path fill="none" d="M19.1,9C19.1,9,19.2,9,19.1,9"/>
								<path fill="none" d="M18.9,9c0,0-0.1,0-0.1,0.2"/>
								<path fill="none" d="M18.3,8.9C18.4,8.9,18.4,8.9,18.3,8.9c0.1,0.1,0.1,0.1,0.1,0.1"/>
								<path fill="none" d="M19.2,7.3C19.2,7.4,19.2,7.4,19.2,7.3"/>
								<path fill="none" d="M18.9,7.5C18.9,7.5,18.8,7.5,18.9,7.5"/>
							</g>
							<g>
								<path d="M19.4,8.5C19.4,8.5,19.4,8.5,19.4,8.5C19.4,8.4,19.4,8.4,19.4,8.5C19.4,8.4,19.5,8.4,19.4,8.5
									C19.5,8.5,19.4,8.5,19.4,8.5z"/>
							</g>
							<g>
								<path d="M18.7,8.5C18.7,8.5,18.7,8.5,18.7,8.5C18.7,8.4,18.7,8.4,18.7,8.5C18.7,8.4,18.8,8.4,18.7,8.5
									C18.8,8.5,18.7,8.5,18.7,8.5z"/>
							</g>
						</g>
						<g>
							<path fill="none" d="M19.4,7.3c0,0-0.1,0-0.1,0c0,0,0,0.1,0,0.1c0,0,0,0.1,0,0.1c0,0,0,0,0,0c0,0,0,0,0,0c0,0,0,0,0,0
								c0,0,0,0,0-0.1"/>
							<path fill="none" d="M19.1,7.3C19.1,7.3,19.1,7.3,19.1,7.3c-0.2,0-0.2,0-0.2,0"/>
							<path fill="#FFFFFF" d="M19.3,7.3C19.3,7.3,19.3,7.3,19.3,7.3C19.2,7.4,19.3,7.4,19.3,7.3C19.3,7.4,19.3,7.4,19.3,7.3
								C19.3,7.3,19.4,7.3,19.3,7.3z"/>
							<g>
								<path d="M19.3,7.4C19.3,7.4,19.3,7.4,19.3,7.4C19.3,7.3,19.3,7.3,19.3,7.4C19.3,7.3,19.3,7.3,19.3,7.4
									C19.3,7.4,19.3,7.4,19.3,7.4z"/>
							</g>
							<g>
								<path fill="none" d="M19.3,7.6C19.3,7.6,19.2,7.6,19.3,7.6c-0.1,0-0.1,0-0.1,0c0,0,0,0-0.1,0"/>
								<path fill="none" d="M19.3,7.6c0,0-0.1,0-0.2,0"/>
								<path fill="none" d="M19.1,7.6c0.1,0,0.1,0,0.2,0"/>
							</g>
							<path fill="#FFFFFF" d="M19.1,7.4C19.1,7.3,19,7.3,19.1,7.4c-0.1,0-0.1,0-0.1,0C19,7.4,19,7.4,19.1,7.4
								C19,7.4,19,7.4,19.1,7.4C19.1,7.4,19.1,7.4,19.1,7.4C19.1,7.4,19.1,7.4,19.1,7.4z"/>
							<g>
								<path d="M19,7.4C19,7.4,19,7.4,19,7.4C19,7.3,19,7.3,19,7.4C19.1,7.3,19.1,7.3,19,7.4C19.1,7.4,19.1,7.4,19,7.4z"/>
							</g>
						</g>
						<g>
							<path fill="#FFFFFF" d="M19.7,9.7c0-0.2-0.1-0.4-0.2-0.5c0,0-0.1,0-0.3,0c-0.2,0-0.3,0-0.3,0c-0.1,0-0.2,0-0.2,0s0,0.1,0,0.1
								c0,0.2-0.1,0.8-0.1,1c0,0,0,0.1,0,0.4c0,0.3-0.1,0.9-0.1,1.2l0.1,0c0,0,0.4,0,0.4,0c0-0.1,0-0.8,0-1.3c0,0,0-0.1,0-0.2
								c0-0.1,0.1-0.3,0.1-0.4c0,0,0.2,0.5,0.2,0.6c0,0.1,0,1.2,0,1.2c0,0,0.2,0.2,0.3,0.2c0,0,0.3-0.1,0.3-0.1c0,0,0-0.4-0.1-1
								c0-0.2,0-0.3,0-0.3C19.7,10.8,19.7,10,19.7,9.7z"/>
							<path fill="none" d="M19.5,9.4c0,0,0.1,0.2,0.2,0.3"/>
							<path fill="none" d="M19.3,9.4c0,0.1,0.2,0.7,0.2,1.4"/>
							<path fill="none" d="M19.3,10.8c0,0.1,0,0.1,0.1,0.2"/>
							<path fill="none" d="M19.5,11c0,0.1,0,0.5,0,0.6"/>
							<path fill="none" d="M19.5,11.7c0,0,0.1,0.3,0.1,0.6"/>
							<path fill="none" d="M18.6,11.2c0,0.1,0,0.5-0.1,0.8"/>
							<path fill="none" d="M19.1,9.4c0,0.1,0,0.5,0,0.5c0,0,0,0.1-0.1,0.1"/>
							<path fill="none" d="M19.1,10.1c0,0,0,0.1,0,0.2"/>
							<path fill="none" d="M19.2,9.8c0,0,0.1,0.3,0.1,0.3"/>
							<path fill="none" d="M18.9,9.4c0,0-0.1,0-0.2,0c0,0,0,0.9-0.1,1.4"/>
							<path fill="none" d="M19,9.5c0,0.1,0,0.5,0,0.5"/>
							<path fill="none" d="M18.9,10.1c0,0-0.1,0.1,0,0.1"/>
							<path fill="none" d="M19.4,9.4C19.4,9.4,19.3,9.4,19.4,9.4"/>
							<path fill="none" d="M19.2,9.4c0,0,0,0.1,0,0.1"/>
							<path fill="none" d="M18.9,10.8c0,0,0,0.1,0,0.1"/>
						</g>
						<g>
							<path fill="#FFFFFF" d="M19.6,9.3c0,0,0-0.1,0-0.1c0,0-0.1,0-0.3,0c-0.1,0-0.3,0-0.4,0c-0.1,0-0.2,0-0.2,0s0,0.1,0,0.2
								c0,0,0.1,0,0.3,0c0.1,0,0.4,0,0.4,0C19.4,9.3,19.5,9.3,19.6,9.3z"/>
							<polygon fill="#FFFFFF" points="19.5,9.3 19.5,9.1 19.4,9.1 19.4,9.3 							"/>
							<polygon fill="#FFFFFF" points="18.8,9.2 18.8,9.3 18.8,9.3 18.8,9.2 							"/>
							<polygon fill="#FFFFFF" points="19.3,9.2 19.3,9.3 19.3,9.3 19.3,9.2 							"/>
						</g>
						<g>
							<path fill="#7C3A00" d="M19.8,12.2c0,0,0,0.1,0,0.2c0,0,0,0.1,0,0.1c0,0,0-0.1,0-0.1s0,0.1,0,0.1c-0.1,0-0.1-0.1-0.1-0.1
								c0,0,0,0.1,0,0.1c-0.1,0-0.1-0.1-0.1-0.1s0,0.1,0,0.1c-0.1,0-0.1-0.1-0.1-0.1s0,0.2,0,0.1c0,0,0-0.1-0.1-0.1c0,0,0-0.1,0-0.2
								c0-0.1,0-0.1,0-0.1s0.1,0.1,0.2,0.1C19.6,12.3,19.8,12.2,19.8,12.2z"/>
							<path fill="#7C3A00" d="M18.9,12.1C18.9,12,18.9,12.1,18.9,12.1c0,0.1,0,0.2-0.1,0.2c-0.1,0-0.2,0-0.3,0c-0.1,0-0.2,0-0.2,0
								c-0.1,0-0.1,0-0.1,0c0,0-0.1,0-0.1,0c0,0-0.1,0-0.1-0.1c0,0,0,0,0.1,0c0.1,0,0.1,0,0.2,0c0,0,0.1,0,0.2-0.1c0,0,0.1,0,0.2,0
								C18.7,12.1,18.9,12.1,18.9,12.1z"/>
						</g>
					</g>
					<g>
						<path fill="#00A94F" d="M14.3,12.3l0-0.1L14.3,12.3l0.1-0.2c0,0,0.1,0,0.1,0l0-0.1l0.1,0.1c0,0,0-0.1,0-0.1
							c0,0,0.1,0.1,0.1,0.1c0,0.1,0.1-0.1,0.1-0.1c0,0,0,0.2,0,0.2l0-0.1l0,0.1l0.1-0.1l0.1,0.1l0.1,0l0,0.1l0.1-0.1l0.1,0
							c0,0,0.1,0,0.1,0c0,0,0.1,0,0.1,0s0,0,0-0.1c0,0,0.1,0,0.1,0l0-0.1c0,0,0.1,0.1,0.1,0.1c0,0,0-0.1,0-0.1c0,0,0,0,0.1,0l0-0.1
							c0,0,0,0,0.1,0.1c0,0,0-0.1,0-0.1s0.1,0.1,0.1,0.2"/>
						<path fill="#00A94F" d="M16,12.7c0,0,0.1-0.1,0.1-0.1c0,0,0.1,0.1,0.1,0.1c0,0,0,0,0-0.1c0,0,0.1,0,0.1,0.1c0,0,0-0.1,0.1-0.1
							c0,0,0,0.1,0,0.1c0,0,0.1-0.1,0.1-0.1c0,0,0.1,0,0.1,0.1c0,0,0.1-0.1,0.1,0c0,0,0.1,0,0.1,0.1c0,0,0.1,0,0.2-0.1l0.1,0.1
							c0,0,0.1-0.1,0.1-0.1c0,0,0.1,0,0.1,0.1c0,0,0-0.1,0.1-0.1c0,0,0.1,0,0.1,0.1c0,0,0-0.1,0.1-0.1c0,0,0,0,0,0.1
							c0,0,0-0.1,0.1-0.1"/>
						<path fill="#00A94F" d="M17.8,12.3C17.8,12.3,17.8,12.2,17.8,12.3c0.1-0.1,0.1,0,0.1,0c0,0,0,0,0,0l0,0l0.1,0l0.1,0l0.1,0l0,0
							l0.2,0l0.1,0l0.1-0.1l0.1,0.1l0.1-0.1c0,0,0,0,0,0.1c0,0,0.1,0,0.1-0.1c0,0,0.1,0,0.1,0c0,0,0,0,0-0.1c0,0,0,0,0.1,0
							c0,0,0-0.1,0.1-0.1c0,0,0,0,0,0.1c0,0,0.1-0.1,0.1-0.1c0,0,0,0.1,0,0.2c0,0,0.1-0.1,0.1-0.1c0,0,0,0.1,0,0.2l0.1,0l0,0.1
							l0.1,0"/>
					</g>
				</g>
				<g>
					<g>
						<path fill="#7C3A00" d="M15.7,13.3C15.7,13.2,15.7,13.2,15.7,13.3C15.7,13.2,15.7,13.2,15.7,13.3l0-0.1
							C15.7,13.2,15.7,13.2,15.7,13.3c0.1-0.1,0.1,0,0.1,0l0,0C15.8,13.2,15.8,13.2,15.7,13.3C15.8,13.2,15.7,13.3,15.7,13.3
							L15.7,13.3c0,0.1,0,0.2,0,0.2c0,0,0,0,0.1,0c0,0,0.1,0,0.1-0.1l0,0c0,0,0-0.1,0-0.1c0,0,0,0,0,0l0,0c0,0,0,0,0.1,0
							c0,0,0,0,0,0l0,0c0,0,0,0,0,0c0,0,0,0,0,0.1l0,0c0,0,0,0,0,0c0,0,0,0.1-0.1,0.1c0,0-0.1,0-0.1,0
							C15.6,13.5,15.6,13.4,15.7,13.3L15.7,13.3z"/>
						<path fill="#7C3A00" d="M16.2,13.7C16.2,13.7,16.2,13.7,16.2,13.7c0,0,0.1-0.2,0.1-0.2l0,0C16.2,13.5,16.1,13.6,16.2,13.7
							c-0.1,0-0.1-0.3-0.1-0.3l0,0c0,0.1-0.1,0.2-0.1,0.2c0,0,0,0,0,0l0,0c0,0,0,0-0.1,0c0,0,0,0,0,0l0,0c0,0,0,0,0,0
							c0,0,0.1-0.2,0.1-0.2c0,0,0,0,0,0l0,0c0,0,0,0,0.1,0c0,0,0,0,0.1,0l0,0c0,0,0,0,0,0C16.1,13.4,16.1,13.6,16.2,13.7
							c0-0.1,0.1-0.2,0.1-0.2c0,0,0,0,0,0l0,0c0,0,0,0,0.1,0c0,0,0,0,0.1,0l0,0c0,0,0,0,0,0C16.3,13.5,16.3,13.7,16.2,13.7
							c0.1,0,0.1,0,0.1,0l0,0C16.3,13.7,16.2,13.7,16.2,13.7C16.2,13.7,16.2,13.7,16.2,13.7L16.2,13.7z"/>
						<path fill="#7C3A00" d="M16.7,13.6C16.7,13.6,16.7,13.5,16.7,13.6c0-0.1,0-0.1,0-0.1l0,0l0.1,0c0,0,0.1,0,0.1,0c0,0,0,0,0,0
							c0,0,0,0.1,0,0.1c0,0,0.1,0.1,0.1,0.2l0,0C16.9,13.8,16.8,13.7,16.7,13.6C16.8,13.6,16.7,13.6,16.7,13.6L16.7,13.6
							c0,0.1,0,0.1,0,0.2c0,0,0,0,0,0l0,0c0,0,0,0-0.1,0c0,0-0.1,0-0.1,0l0,0c0,0,0,0,0,0C16.7,13.7,16.7,13.7,16.7,13.6L16.7,13.6
							L16.7,13.6C16.7,13.6,16.7,13.6,16.7,13.6L16.7,13.6C16.7,13.6,16.8,13.6,16.7,13.6c0.1,0,0.1,0,0.1,0
							C16.8,13.5,16.8,13.5,16.7,13.6C16.7,13.5,16.7,13.6,16.7,13.6L16.7,13.6z"/>
						<path fill="#7C3A00" d="M17,13.6C17,13.6,17.1,13.6,17,13.6L17,13.6C17.1,13.5,17.1,13.6,17,13.6L17,13.6L17,13.6
							C17,13.6,17.1,13.6,17,13.6c0.1,0,0.1,0.1,0.1,0.1c0,0,0,0,0,0l0,0c0,0,0.1,0,0.1,0c0,0,0.1,0,0.1,0l0,0c0,0,0,0,0,0
							c0,0-0.1-0.1-0.1-0.1c0,0,0-0.1-0.1-0.1c0,0,0,0,0,0l0,0c0,0-0.1,0-0.1,0c0,0,0,0-0.1,0l0,0c0,0,0,0,0,0c0,0-0.1,0.2-0.1,0.3
							c0,0,0,0,0,0l0,0c0,0,0,0,0,0c0,0,0,0,0.1,0l0,0c0,0,0,0,0,0C17,13.7,17,13.7,17,13.6L17,13.6z"/>
						<path fill="#7C3A00" d="M16.5,13.6C16.5,13.6,16.5,13.6,16.5,13.6C16.5,13.6,16.5,13.6,16.5,13.6c0.1-0.1,0.1-0.1,0-0.1
							c0,0,0,0,0,0C16.5,13.5,16.5,13.5,16.5,13.6L16.5,13.6c0-0.1,0-0.1,0-0.1c0,0,0,0,0,0l0,0c0,0,0.1,0,0.1,0
							c0.1,0,0.1,0,0.1,0.1c0,0,0,0,0,0C16.5,13.6,16.5,13.6,16.5,13.6L16.5,13.6c0.1,0,0.1,0.1,0.1,0.1c0,0,0,0.1-0.1,0.1
							c0,0-0.1,0-0.1,0c0,0,0,0-0.1,0l0,0c0,0,0,0,0,0C16.4,13.7,16.4,13.6,16.5,13.6L16.5,13.6C16.4,13.6,16.4,13.6,16.5,13.6
							L16.5,13.6C16.5,13.6,16.5,13.6,16.5,13.6L16.5,13.6L16.5,13.6L16.5,13.6c0,0.1,0,0.1,0,0.1c0,0,0,0,0,0
							C16.5,13.7,16.5,13.7,16.5,13.6C16.5,13.7,16.5,13.6,16.5,13.6C16.5,13.6,16.5,13.6,16.5,13.6L16.5,13.6z"/>
					</g>
					<g>
						<path fill="#7C3A00" d="M14.7,13.1C14.7,13.1,14.7,13,14.7,13.1c0-0.1,0-0.1,0-0.1l0,0C14.7,12.9,14.7,13,14.7,13.1
							C14.7,13,14.8,13,14.7,13.1c0.1-0.1,0.1-0.1,0.1-0.1c0,0,0,0-0.1-0.1c0,0-0.1,0-0.1-0.1c0,0,0-0.1,0.1-0.1c0,0,0,0,0.1,0
							c0,0,0,0,0,0l0,0c0,0,0,0.1,0,0.1l0,0c0,0,0,0,0,0c0,0,0,0-0.1,0c0,0,0,0,0,0c0,0,0,0,0.1,0.1c0,0,0.1,0,0.1,0.1
							C14.9,13,14.8,13,14.7,13.1C14.8,13,14.7,13,14.7,13.1C14.7,13,14.7,13.1,14.7,13.1L14.7,13.1z"/>
						<path fill="#7C3A00" d="M15,12.9C15,12.8,15,12.8,15,12.9c0-0.1,0-0.1,0-0.1l0,0C15,12.8,15.1,12.8,15,12.9
							c0.1-0.1,0.1-0.1,0.1-0.1l0,0C15.1,12.8,15.1,12.8,15,12.9C15.1,12.8,15.1,12.9,15,12.9L15,12.9c0,0.1,0,0.2,0,0.2
							c0,0,0,0,0.1,0c0,0,0,0,0.1-0.1l0,0c0,0,0-0.1,0-0.1c0,0,0,0,0,0l0,0c0,0,0,0,0.1,0c0,0,0,0,0,0l0,0c0,0,0,0,0,0
							c0,0,0,0,0,0.1l0,0c0,0,0,0,0,0c0,0,0,0.1-0.1,0.1c0,0-0.1,0-0.1,0C15,13,14.9,13,15,12.9L15,12.9z"/>
						<path fill="#7C3A00" d="M15.4,13.1C15.4,13.1,15.4,13.1,15.4,13.1C15.4,13.1,15.4,13.1,15.4,13.1C15.5,13,15.5,13,15.4,13.1
							C15.4,13,15.4,13,15.4,13.1C15.4,13,15.4,13,15.4,13.1L15.4,13.1c0-0.1,0-0.1,0-0.1c0,0,0,0,0,0l0,0c0,0,0.1,0,0.1,0.1
							c0.1,0,0.1,0.1,0,0.1c0,0,0,0,0,0C15.4,13.1,15.4,13.1,15.4,13.1L15.4,13.1c0.1,0.1,0.1,0.1,0.1,0.1c0,0-0.1,0-0.1,0
							c0,0,0,0-0.1,0c0,0,0,0-0.1,0l0,0c0,0,0,0,0,0C15.3,13.2,15.3,13.1,15.4,13.1L15.4,13.1C15.3,13,15.3,13,15.4,13.1L15.4,13.1
							C15.4,13,15.4,13.1,15.4,13.1L15.4,13.1L15.4,13.1L15.4,13.1c0,0.1-0.1,0.1-0.1,0.1c0,0,0,0,0,0c0,0,0.1,0,0.1,0
							C15.4,13.2,15.4,13.2,15.4,13.1C15.4,13.1,15.4,13.1,15.4,13.1L15.4,13.1z"/>
					</g>
					<g>
						<path fill="#7C3A00" d="M17.5,13.5c0,0,0-0.1,0-0.1C17.5,13.4,17.4,13.4,17.5,13.5l-0.1-0.1c0,0,0.1,0,0.1,0c0,0,0.1,0,0.1,0
							c0,0,0,0,0,0l0,0c0,0,0,0.1,0,0.1h0c0,0,0,0,0,0c0,0-0.1,0-0.1,0C17.5,13.4,17.5,13.5,17.5,13.5L17.5,13.5c0.1,0,0.1,0,0.1,0
							c0,0,0,0,0,0l0,0c0,0,0,0.1,0,0.1l0,0c0,0,0,0,0,0C17.6,13.5,17.6,13.5,17.5,13.5L17.5,13.5c0.1,0,0.1,0.1,0.1,0.1
							c0,0,0,0,0,0l0,0c0,0,0,0-0.1,0c0,0,0,0-0.1,0l0,0c0,0,0,0,0,0C17.5,13.7,17.5,13.6,17.5,13.5L17.5,13.5z"/>
						<path fill="#7C3A00" d="M17.7,13.4C17.7,13.4,17.7,13.4,17.7,13.4C17.7,13.4,17.7,13.4,17.7,13.4L17.7,13.4
							c-0.1-0.1,0-0.1,0-0.1c0,0,0.1,0,0.1,0l0,0c0,0,0,0,0,0C17.7,13.3,17.8,13.4,17.7,13.4L17.7,13.4c0.1,0,0.1,0.1,0.1,0.1
							c0,0,0.1,0,0.1-0.1c0,0,0,0,0,0l0,0c0,0,0,0.1,0,0.1l0,0c0,0,0,0,0,0c0,0-0.1,0-0.1,0c0,0-0.1,0-0.1,0l0,0c0,0,0,0,0,0
							C17.8,13.6,17.8,13.5,17.7,13.4L17.7,13.4z"/>
						<path fill="#7C3A00" d="M18.5,13C18.5,13,18.5,12.9,18.5,13C18.4,12.9,18.4,12.9,18.5,13L18.5,13c-0.1-0.1,0-0.1,0-0.1
							c0,0,0.1,0,0.1-0.1c0,0,0,0,0,0l0,0c0,0,0,0.1,0,0.1l0,0c0,0,0,0,0,0c0,0-0.1,0-0.1,0C18.5,12.9,18.5,13,18.5,13L18.5,13
							c0.1,0,0.1-0.1,0.1-0.1c0,0,0,0,0,0l0,0c0,0,0,0.1,0,0.1l0,0c0,0,0,0,0,0C18.6,13,18.6,13,18.5,13L18.5,13
							c0.1,0,0.1,0.1,0.1,0.1c0,0,0.1,0,0.1-0.1c0,0,0,0,0,0l0,0c0,0,0,0.1,0,0.1l0,0c0,0,0,0,0,0c0,0-0.1,0-0.1,0.1c0,0,0,0-0.1,0
							l0,0c0,0,0,0,0,0C18.6,13.1,18.5,13.1,18.5,13L18.5,13z"/>
						<path fill="#7C3A00" d="M18,13.2c0.1,0,0.1,0,0.2,0.1c0,0,0,0.1,0,0.1c-0.1,0-0.1,0-0.2,0C17.9,13.3,17.9,13.2,18,13.2
							L18,13.2c-0.1,0-0.1,0.1-0.1,0.2c0,0,0,0.1,0.1,0.1c0.1,0,0.1,0,0.1,0c0.1-0.1,0.1-0.1,0.1-0.2c0,0-0.1-0.1-0.1-0.1
							C18,13.1,18,13.1,18,13.2L18,13.2z"/>
						<path fill="#7C3A00" d="M18.8,12.8c0,0-0.1,0.1-0.1,0.1c0,0.1,0.1,0.1,0.2,0.1c0,0,0.1-0.1,0.1-0.1
							C19,12.8,18.9,12.7,18.8,12.8L18.8,12.8c0,0,0.1,0,0.1,0c0,0,0.1,0,0.1,0.1c0,0.1,0,0.2-0.1,0.2c0,0-0.1,0-0.1,0
							c0,0-0.1,0-0.1-0.1C18.7,12.8,18.7,12.8,18.8,12.8L18.8,12.8z"/>
						<path fill="#7C3A00" d="M18.2,13.1C18.2,13.1,18.2,13.1,18.2,13.1C18.2,13.1,18.1,13.1,18.2,13.1L18.2,13.1l0-0.1
							c0,0,0.1,0,0.1,0c0,0,0,0,0.1,0c0,0,0,0.1,0,0.1c0,0,0.1,0.1,0.2,0.1l0,0C18.5,13.2,18.3,13.1,18.2,13.1
							C18.3,13.1,18.3,13.2,18.2,13.1L18.2,13.1c0.1,0,0.1,0.1,0.1,0.1c0,0,0,0,0,0l0,0c0,0,0,0-0.1,0c0,0,0,0-0.1,0l0,0
							c0,0,0,0,0,0C18.3,13.3,18.3,13.2,18.2,13.1L18.2,13.1L18.2,13.1C18.3,13.1,18.3,13.1,18.2,13.1L18.2,13.1
							C18.3,13.1,18.3,13.1,18.2,13.1C18.3,13.1,18.3,13.1,18.2,13.1c0.1-0.1,0-0.1,0-0.1C18.2,13.1,18.2,13.1,18.2,13.1L18.2,13.1z
							"/>
					</g>
					<g>
						<path fill="#7C3A00" d="M15.6,13.2C15.6,13.2,15.6,13.2,15.6,13.2C15.6,13.2,15.6,13.2,15.6,13.2
							C15.5,13.2,15.5,13.2,15.6,13.2C15.5,13.2,15.5,13.2,15.6,13.2z"/>
					</g>
					<g>
						<path fill="#7C3A00" d="M17.3,13.6C17.3,13.6,17.3,13.6,17.3,13.6C17.3,13.6,17.3,13.6,17.3,13.6
							C17.3,13.6,17.3,13.6,17.3,13.6C17.3,13.6,17.3,13.6,17.3,13.6z"/>
					</g>
				</g>
				<path fill="#7C3A00" d="M15.8,12.9c0,0,0,0.1,0,0.1c0,0,0,0,0.1,0.1c0,0,0,0,0.1,0c0,0,0,0,0,0c0,0,0,0,0.1,0c0,0,0,0,0,0
					c0,0,0,0,0,0c0,0,0.1,0.1,0.1,0.1c0,0,0,0,0,0c0,0,0-0.1,0-0.1c0,0,0,0,0,0c0,0,0,0,0,0c0,0,0,0,0,0c0,0,0,0,0,0c0,0,0,0,0,0
					c0,0,0,0,0,0c0,0,0,0,0,0c0,0,0-0.1,0-0.1s0,0,0,0c0,0,0,0,0,0c0,0,0,0,0,0c0,0,0,0,0,0c0,0,0,0,0,0c0,0,0,0,0,0c0,0,0,0,0,0
					c0,0,0,0,0,0C15.9,12.9,15.8,12.9,15.8,12.9L15.8,12.9z"/>
				<path fill="#7C3A00" d="M14.5,12.8C14.5,12.8,14.5,12.8,14.5,12.8c0,0.1,0,0.2,0,0.2c0,0,0,0,0,0.1c0,0,0,0,0,0c0,0,0,0,0,0
					c0,0,0,0,0,0c0,0,0,0,0,0c0,0,0,0,0,0.1c0,0,0,0,0-0.1c0,0,0,0,0,0c0,0,0,0,0,0c0,0,0,0,0,0c0,0,0,0,0,0c0,0,0,0,0,0
					c0,0,0,0,0,0c0,0,0,0-0.1,0c0,0,0,0,0,0c0,0,0,0,0,0C14.4,12.9,14.4,12.9,14.5,12.8C14.4,12.8,14.5,12.8,14.5,12.8
					C14.5,12.8,14.5,12.8,14.5,12.8C14.5,12.8,14.5,12.8,14.5,12.8L14.5,12.8z"/>
				<path fill="#007DC3" d="M18,13.1c0,0,0.1-0.1,0.2-0.1c0,0,0.1-0.1,0.2-0.1c0,0-0.2-0.1-0.3-0.1c-0.1,0-0.1,0-0.1,0.1
					C17.9,12.9,18,13.1,18,13.1z"/>
				<path fill="#FFFFFF" d="M18,13c0,0,0-0.1,0-0.2c0-0.1,0-0.1,0.1-0.1c0,0,0.2,0.1,0.2,0.1s0,0,0,0c0,0-0.2-0.1-0.3-0.1
					c-0.1,0-0.4,0.2-0.6,0.3c0,0,0,0.2,0,0.3C17.7,13.2,17.8,13.2,18,13L18,13z"/>
				<g>
					<path fill="#FFFFFF" d="M17.7,14.1c0,0,0.2-0.1,0.4-0.1c0.1,0,0.2-0.1,0.2-0.2c0-0.2-0.1-0.3-0.1-0.3s-0.2,0.1-0.4,0.2
						c-0.2,0.1-0.2,0.1-0.2,0.1s0,0.1,0,0.1L17.7,14.1z"/>
					<path fill="#007DC3" d="M18.2,13.9c0,0,0.1-0.1,0-0.4C18.2,13.7,18.3,13.8,18.2,13.9c-0.1,0-0.2-0.1-0.1-0.3
						c0,0-0.3,0.1-0.6,0.3c0,0,0,0.1,0,0.1c0,0,0,0.1,0.1,0.1c0,0,0.2-0.1,0.4-0.1C18.1,14,18.1,14,18.2,13.9z"/>
				</g>
				<path fill="#7C3A00" d="M17.9,12.9C18,12.9,18,13,17.9,12.9c0,0.1,0,0.1-0.1,0.1c0,0,0,0-0.1,0c0,0,0,0,0,0c0,0,0,0-0.1,0
					c0,0,0,0,0,0c0,0,0,0,0,0c0,0-0.1,0-0.1,0.1c0,0,0,0,0,0c0,0,0-0.1,0-0.1c0,0,0,0,0,0c0,0,0,0,0,0c0,0,0,0,0,0c0,0,0,0,0,0
					c0,0,0,0,0,0c0,0,0,0,0,0s0,0,0,0c0,0,0,0,0,0c0,0,0,0,0.1,0c0,0,0,0,0,0C17.9,13,17.8,13,17.9,12.9
					C17.9,12.9,17.9,13,17.9,12.9L17.9,12.9z"/>
				<path fill="#7C3A00" d="M19.2,12.8C19.2,12.8,19.2,12.8,19.2,12.8c0,0.1,0,0.2,0,0.2c0,0,0,0.1,0,0.1c0,0,0,0,0,0s0,0,0,0
					c0,0,0,0,0,0.1c0,0,0-0.1,0-0.1c0,0,0,0,0,0c0,0,0,0,0,0c0,0,0,0,0,0c0,0,0,0,0,0c0,0,0,0,0,0c0,0,0,0,0,0c0,0,0,0,0.1,0
					c0,0,0,0,0,0c0,0,0,0,0,0C19.3,12.8,19.3,12.8,19.2,12.8C19.2,12.8,19.2,12.8,19.2,12.8z"/>
				<g>
					<g>
						<path fill="#007DC3" d="M15.7,11.9c-0.1-0.1-0.1-0.3-0.2-0.4l1.3-1.2l1.3,1.2c0,0.1-0.1,0.3-0.2,0.4l0,0c0,0-0.1,0-0.1,0
							s0,0-0.1,0c0,0-0.1,0-0.1,0s-0.1,0-0.1,0c-0.1,0-0.1,0-0.1,0s-0.1,0-0.1,0c0,0-0.1,0-0.1,0s0,0-0.1,0c0,0-0.1,0-0.1,0
							s-0.1,0-0.1,0c0,0-0.1,0-0.1,0s-0.1,0-0.1,0s-0.1,0-0.1,0s-0.1,0-0.1,0c0,0-0.1,0-0.1,0s-0.1,0-0.1,0s-0.1,0-0.1,0
							s-0.1,0-0.1,0c0,0-0.1,0-0.1,0s-0.1,0-0.1,0c0,0-0.1,0-0.1,0S15.8,11.9,15.7,11.9L15.7,11.9z"/>
						<g>
							<path fill="none" d="M17.2,11.2c0,0,0.3,0.1,0,0.4"/>
							<path fill="#7C3A00" d="M16,11.6c0,0,0.1,0,0.3,0.1c0.2,0.1,0.4,0.1,0.7,0.1c0.6,0,0.6-0.1,0.6-0.1l-0.2,0.2c0,0-0.9,0-1-0.1
								C16.2,11.8,16.1,11.7,16,11.6z"/>
							<polyline fill="none" points="16,11.6 16.4,11.2 16.3,11.7 							"/>
							<polygon fill="#E31937" points="16.5,11 16.3,11.1 16.5,11.1 							"/>
							<polygon fill="#E31937" points="16.8,10.9 16.7,11 16.8,11 							"/>
							<polygon fill="#E31937" points="17.2,10.9 17,11 17.2,11 							"/>
							<path fill="#FFFFFF" d="M16,11.6L16,11.6l0.4-0.4c0,0-0.1,0.1-0.2,0.2c-0.1,0.1-0.1,0.2-0.1,0.3C16.2,11.6,16,11.6,16,11.6z"
								/>
							<path fill="#FFFFFF" d="M16.2,11.7c0,0,0-0.3,0.2-0.4c0,0-0.1,0.2-0.1,0.5C16.3,11.7,16.3,11.6,16.2,11.7z"/>
							<path fill="#FFFFFF" d="M16.7,11.1c0,0,0.1,0,0.2,0c0,0,0,0.1,0,0.2c0,0-0.2,0-0.3,0C16.6,11.3,16.6,11.1,16.7,11.1z"/>
							<path fill="#FFFFFF" d="M16.4,11.1c0,0,0.1,0,0.2,0c0,0,0,0.1,0,0.2c0,0-0.1-0.1-0.2,0C16.4,11.3,16.3,11.2,16.4,11.1z"/>
							<path fill="#FFFFFF" d="M16.4,11.3c0,0,0.1,0,0.2,0c0,0,0,0.1,0,0.2c0,0-0.2,0-0.2,0C16.4,11.5,16.3,11.3,16.4,11.3z"/>
							<path fill="#FFFFFF" d="M16.6,11.3c0,0,0.2,0,0.3,0c0,0,0,0.1,0,0.2c0,0-0.2-0.1-0.3,0C16.7,11.4,16.6,11.3,16.6,11.3z"/>
							<path fill="#FFFFFF" d="M16.4,11.5c0,0,0.2,0,0.3,0c0,0,0,0.2,0,0.2c0,0-0.2,0-0.2,0C16.4,11.7,16.3,11.5,16.4,11.5z"/>
							<path fill="#FFFFFF" d="M16.7,11.5c0,0,0.2,0,0.3,0c0,0-0.1,0.1,0,0.3c0,0-0.3-0.1-0.3,0C16.7,11.7,16.6,11.5,16.7,11.5z"/>
							<path fill="#FFFFFF" d="M17,11.1c0,0,0.1,0,0.2,0c0,0,0,0.1,0,0.2c0,0-0.2,0-0.3,0C17,11.3,16.9,11.1,17,11.1z"/>
							<path fill="#FFFFFF" d="M17,11.3c0,0,0.1,0,0.2,0c0,0,0,0.1,0,0.2c0,0-0.2,0-0.3,0C17,11.4,16.9,11.3,17,11.3z"/>
							<path fill="#FFFFFF" d="M17,11.5c0,0,0.1,0,0.2,0c0,0,0,0.2,0,0.2c0,0-0.2-0.1-0.2,0C17,11.7,17,11.5,17,11.5z"/>
							<path fill="#E31937" d="M17.3,11.3c0,0,0.1,0,0.1,0s0,0.1,0,0.2l-0.1,0C17.3,11.5,17.3,11.4,17.3,11.3z"/>
							<path fill="#FFFFFF" d="M17.3,11.5c0,0,0,0.2,0.1,0.2l-0.1,0.1c0,0-0.1-0.1-0.1-0.1C17.2,11.6,17.3,11.5,17.3,11.5z"/>
						</g>
						<g>
							<path fill="#007DC3" d="M18,11.9c-0.2,0.4-0.6,0.7-1.1,0.9c-0.6-0.2-0.9-0.6-1.1-0.9l0,0c0.1,0,0.1,0,0.1,0s0.1,0,0.1,0
								c0,0,0.1,0,0.1,0s0,0,0.1,0c0,0,0.1,0,0.1,0s0.1,0,0.1,0s0.1,0,0.1,0s0.1,0,0.1,0c0,0,0.1,0,0.1,0s0.1,0,0.1,0
								c0.1,0,0.1,0,0.1,0s0,0.1,0.1,0c0,0,0.1,0,0.1,0s0,0,0.1,0c0,0,0.1,0,0.1,0s0,0,0.1,0c0,0,0.1,0,0.1,0s0,0,0.1,0
								c0.1,0,0.1,0,0.1,0s0,0,0.1,0c0,0,0.1,0,0.1,0S18,11.9,18,11.9z"/>
							<g>
								<path fill="none" d="M17.9,12C17.9,12,17.9,11.9,17.9,12c-0.1,0-0.1,0-0.2,0c-0.1,0-0.1,0-0.1,0s-0.1,0.1-0.1,0
									c0,0-0.1,0-0.1,0s0,0-0.1,0c-0.1,0-0.1,0-0.1,0s-0.1,0-0.1,0c-0.1,0-0.1,0-0.1,0s-0.1,0-0.1,0c0,0-0.1,0-0.1,0s-0.1,0-0.1,0
									c0,0-0.1,0-0.1,0s-0.1,0-0.1,0c0,0-0.1,0-0.1,0s-0.1,0-0.1,0c0,0-0.1,0-0.1,0s-0.1,0-0.1,0c-0.1,0-0.1,0-0.1,0s0,0-0.1,0
									l0,0"/>
								<path fill="none" d="M17.4,12.5C17.4,12.5,17.3,12.5,17.4,12.5c-0.1,0-0.1,0-0.1,0c0,0-0.1,0-0.1,0s0,0-0.1,0
									c0,0-0.1,0-0.1,0s0,0-0.1,0c0,0-0.1,0-0.1,0s0,0-0.1,0c0,0-0.1,0-0.1,0s0,0-0.1,0c0,0-0.1,0-0.1,0s-0.1,0-0.1,0
									c0,0-0.1,0-0.1,0s0,0-0.1,0c0,0-0.1,0-0.1,0s0,0-0.1,0l0,0"/>
							</g>
							<g>
								<path fill="none" d="M15.9,12L15.9,12c0.1,0,0.1,0,0.1,0s0,0,0.1,0c0,0,0.1,0,0.1,0s0,0,0.1,0c0.1,0,0.1,0,0.1,0
									s0.1,0,0.1,0c0,0,0.1,0,0.1,0s0.1,0,0.1,0c0,0,0.1,0,0.1,0s0.1,0,0.1,0c0,0,0.1,0,0.1,0s0,0.1,0.1,0c0,0,0.1,0,0.1,0
									s0,0,0.1,0c0,0,0.1,0,0.1,0s0,0,0.1,0c0,0,0.1,0,0.1,0c0,0,0,0,0.1,0c0.1,0,0.1,0,0.1,0c0,0,0,0,0,0"/>
								<path fill="none" d="M15.9,12.1L15.9,12.1c0.1,0,0.2,0,0.2,0s0,0,0.1,0c0,0,0.1,0,0.1,0s0,0,0.1,0c0,0,0.1,0,0.1,0
									s0.1,0,0.1,0c0,0,0.1,0,0.1,0s0.1,0,0.1,0c0,0,0.1,0,0.1,0s0.1,0,0.1,0c0,0,0.1,0,0.1,0s0.1,0,0.1,0c0,0,0.1,0,0.1,0
									s0.1,0,0.1,0c0,0,0.1,0,0.1,0s0.1,0,0.1,0c0,0,0.1,0,0.1,0c0,0,0.1,0,0.1,0"/>
								<path fill="none" d="M16,12.2c0.1,0,0.1,0,0.1,0s0,0,0.1,0c0,0,0.1,0,0.1,0s0,0,0.1,0c0,0,0.1,0,0.1,0s0,0,0.1,0
									c0,0,0.1,0,0.1,0s0,0,0.1,0c0,0,0.1,0,0.1,0s0.1,0,0.1,0c0,0,0.1,0,0.1,0s0,0,0.1,0c0,0,0.1,0,0.1,0s0,0,0.1,0
									c0,0,0.1,0,0.1,0c0,0,0.1,0,0.1,0c0,0,0,0,0.1,0c0,0,0.1,0,0.1,0c0,0,0,0,0.1,0l0.1-0.1c-0.1,0-0.1,0-0.2,0c0,0,0,0-0.1,0
									c-0.1,0-0.1,0-0.1,0s-0.1,0-0.1,0c0,0-0.1,0-0.1,0s-0.1,0-0.1,0c0,0-0.1-0.1-0.1-0.1s0,0-0.1,0c0,0-0.1,0-0.1,0
									s-0.1,0-0.1,0c0,0-0.1,0-0.1,0s-0.1,0-0.1,0c0,0-0.1,0-0.1,0s-0.1,0-0.1,0c0,0,0,0,0,0s-0.1,0-0.1,0c0,0-0.1,0-0.1,0
									S16,12.1,16,12.2L16,12.2z"/>
								<path fill="none" d="M16.1,12.3L16.1,12.3c0.1,0,0.1,0,0.1,0s0,0,0.1,0c0,0,0.1,0,0.1,0s0,0,0.1,0c0,0,0.1,0,0.1,0
									s0,0,0.1,0c0,0,0.1,0,0.1,0s0.1,0,0.1,0c0,0,0.1,0,0.1,0s0.1,0,0.1,0c0,0,0.1,0,0.1,0s0,0,0.1,0c0,0,0.1,0,0.1,0s0,0,0.1,0
									c0,0,0.1,0,0.1,0s0,0,0.1,0c0,0,0.1,0,0.1,0c0,0,0.1,0,0.1,0"/>
								<path fill="none" d="M17.5,12.4C17.5,12.4,17.5,12.4,17.5,12.4c0,0-0.1,0-0.1,0c0,0-0.1,0-0.1,0s0,0-0.1,0c0,0-0.1,0-0.1,0
									s-0.1,0-0.1,0c0,0-0.1,0-0.1,0s-0.1,0-0.1,0c0,0-0.1,0-0.1,0s0,0-0.1,0c0,0-0.1,0-0.1,0s0,0-0.1,0c0,0-0.1,0-0.1,0
									s-0.1,0-0.1,0c0,0-0.1,0-0.1,0s-0.1,0-0.1,0c0,0-0.1,0-0.1,0s0,0-0.1,0l0,0l-0.1-0.1l0,0c0.1,0,0.1,0,0.1,0s0,0,0.1,0
									c0,0,0.1,0,0.1,0s0,0,0.1,0c0,0,0.1,0,0.1,0s0,0,0.1,0c0,0,0.1,0,0.1,0s0,0,0.1,0c0,0,0.1,0,0.1,0s0,0,0.1,0
									c0,0,0.1,0,0.1,0s0,0,0.1,0c0,0,0.1,0,0.1,0s0,0,0.1,0c0,0,0.1,0,0.1,0S17.4,12.3,17.5,12.4C17.5,12.3,17.5,12.3,17.5,12.4
									C17.5,12.3,17.6,12.3,17.5,12.4L17.5,12.4z"/>
								<path fill="none" d="M17.5,12.5C17.5,12.5,17.4,12.5,17.5,12.5c-0.1,0-0.1,0-0.1,0s0,0-0.1,0c0,0-0.1,0-0.1,0s0,0-0.1,0
									c0,0-0.1,0-0.1,0s0,0-0.1,0c0,0-0.1,0-0.1,0s0,0-0.1,0c0,0-0.1,0-0.1,0s0,0-0.1,0c0,0-0.1,0-0.1,0s-0.1,0-0.1,0
									c0,0-0.1,0-0.1,0s0,0-0.1,0c0,0-0.1,0-0.1,0s0,0-0.1,0l0,0l-0.1-0.1l0,0c0.1,0,0.1,0,0.1,0s0,0,0.1,0c0,0,0.1,0,0.1,0
									s0,0,0.1,0c0,0,0.1,0,0.1,0s0,0,0.1,0c0,0,0.1,0,0.1,0s0,0,0.1,0c0,0,0.1,0,0.1,0s0,0,0.1,0c0,0,0.1,0,0.1,0s0,0,0.1,0
									c0,0,0.1,0,0.1,0s0,0,0.1,0C17.3,12.4,17.4,12.4,17.5,12.5C17.4,12.4,17.4,12.4,17.5,12.5C17.5,12.4,17.5,12.4,17.5,12.5
									C17.5,12.4,17.5,12.4,17.5,12.5L17.5,12.5z"/>
							</g>
						</g>
						<g>
							<path fill="#FFFFFF" d="M16.9,9v1.3l-1.3,1.2c-0.1-0.4-0.1-0.7-0.1-0.9c0-0.3,0-1.7,0-1.7L16.9,9L16.9,9z"/>
							<path fill="#E7A614" d="M16.9,9v1.3l1.3,1.2c0.1-0.4,0.1-0.7,0.1-0.9c0-0.3,0-1.7,0-1.7L16.9,9L16.9,9z"/>
							<g>
								<g>
									<g>
										<path fill="#7C3A00" d="M15.5,9.3l0.8,0.9c0,0.1,0.1,0.1,0.1,0.2c0,0,0.1,0.1,0.1,0.1c0,0,0.1-0.1,0.1-0.1
											c0,0,0-0.1-0.1-0.1c0,0-0.1,0-0.1-0.1c-0.1-0.1-0.1-0.1-0.1-0.1l-0.6-0.9c-0.1-0.1-0.1-0.1-0.2,0
											C15.5,9.1,15.5,9.3,15.5,9.3z"/>
									</g>
									<line fill="none" x1="15.6" y1="9.2" x2="16.4" y2="10.2"/>
								</g>
								<g>
									<path fill="#7C3A00" d="M15.6,10.5l0.8-1c0,0,0,0.1,0.1,0.1l-0.8,1C15.7,10.6,15.6,10.6,15.6,10.5z"/>
									<path fill="#FFFFFF" d="M16.3,9.4c0-0.1,0-0.2,0.2-0.2c0,0,0.3,0.1,0.3,0.3c0,0.1-0.1,0.2-0.2,0.2
										C16.5,9.6,16.3,9.4,16.3,9.4z"/>
									<path fill="none" d="M16.3,9.4c0,0,0.1,0.2,0.2,0.2c0,0,0-0.2,0.2-0.1"/>
								</g>
							</g>
							<g>
								<g>
									<path fill="#7C3A00" d="M18.3,10.5C18.2,10.5,18.2,10.5,18.3,10.5c-0.1,0-0.2-0.1-0.3-0.2l-0.8-1l0.1-0.1l0.7,0.8
										C18,10.1,18.2,10.2,18.3,10.5C18.3,10.4,18.3,10.5,18.3,10.5z"/>
									<path fill="#FFFFFF" d="M17.5,9.4l-0.1-0.2c0,0-0.1,0-0.1,0.1c0,0-0.1,0.1-0.3,0.1c0,0,0.1,0.2,0.3,0.3
										c0,0,0.1-0.2,0.2-0.3C17.4,9.5,17.5,9.5,17.5,9.4z"/>
									<path fill="none" d="M17.2,9.4c0,0,0.1,0.2,0.1,0.2"/>
									<path fill="none" d="M17.3,9.4C17.3,9.5,17.3,9.5,17.3,9.4"/>
									<path fill="none" d="M17.3,9.4C17.3,9.5,17.3,9.5,17.3,9.4"/>
									<path fill="none" d="M17.3,9.5C17.3,9.5,17.3,9.5,17.3,9.5"/>
									<path fill="none" d="M17.3,9.5C17.3,9.5,17.3,9.5,17.3,9.5"/>
									<path fill="none" d="M17.2,9.4c0,0-0.1,0.1-0.1,0.1"/>
									<path fill="none" d="M17.2,9.5C17.2,9.5,17.1,9.5,17.2,9.5"/>
									<path fill="none" d="M17.2,9.5C17.1,9.5,17.1,9.5,17.2,9.5"/>
									<path fill="none" d="M17.1,9.5C17.1,9.5,17.1,9.6,17.1,9.5"/>
								</g>
								<g>
									<path fill="#FFFFFF" d="M17.1,10.1L18,9.2l0.2,0.2c0,0,0,0-0.1,0c0,0,0,0.1,0,0.1s0,0-0.1,0c0,0,0,0.1,0,0.1s0,0-0.1,0
										c0,0,0,0.1,0,0.1s0,0-0.1,0c0,0,0,0.1,0,0.1s0,0-0.1,0c0,0,0,0.1,0,0.1s0,0-0.1,0c0,0,0,0.1,0,0.1s0,0-0.1,0
										c0,0,0,0.1,0,0.1s0,0-0.1,0c0,0,0,0.1,0,0.1s0,0-0.1,0c0,0,0,0.1,0,0.1s0,0-0.1,0c0,0,0,0.1,0,0.1s0,0-0.1,0
										c0,0,0,0.1,0,0.1s0,0-0.1,0c0,0,0,0.1,0,0.1s0,0-0.1,0c0,0,0,0.1,0,0.1s0,0-0.1,0c0,0,0,0.1,0,0.1s0,0-0.1,0
										c0,0,0,0.1,0,0.1s-0.1,0,0,0C17.3,10.3,17.1,10.1,17.1,10.1z"/>
									<path d="M18,9.3L18,9.3l-0.1,0.3c0,0,0,0.1,0,0c0,0,0-0.1,0-0.1C18,9.5,18,9.3,18,9.3z"/>
									<path d="M17.8,9.4L17.8,9.4l0,0.3c0,0,0,0.1,0,0c0,0,0-0.1,0-0.1C17.8,9.6,17.8,9.4,17.8,9.4z"/>
									<path d="M17.3,10L17.3,10l0,0.2c0,0,0-0.1,0,0C17.3,10.2,17.3,10.1,17.3,10C17.3,10.1,17.3,10,17.3,10z"/>
									<path fill="#7C3A00" d="M17.1,10.1C17.1,10.1,17.1,10.1,17.1,10.1c-0.1,0-0.1,0-0.1,0C17,10.1,17,10.1,17.1,10.1
										C17.1,10,17.2,10,17.1,10.1L17.1,10.1z"/>
									<path fill="#7C3A00" d="M18,9.2C18,9.2,18,9.2,18,9.2c0-0.1,0-0.1,0-0.1C17.9,9.1,17.9,9.2,18,9.2L18,9.2z"/>
									<path d="M17.3,10.1L17.3,10.1l0,0.2c0,0,0-0.1,0,0c0,0,0-0.1,0-0.1C17.3,10.2,17.3,10.1,17.3,10.1z"/>
								</g>
							</g>
						</g>
						<path fill="none" d="M18.3,9c0,0,0,1.3,0,1.7c0,0.3,0,1.7-1.5,2.2c-1.4-0.5-1.5-1.8-1.5-2.2c0-0.3,0-1.7,0-1.7H18.3z"/>
					</g>
					<path fill="none" d="M18.3,9c0,0,0,1.3,0,1.7c0,0.3,0,1.7-1.5,2.2c-1.4-0.5-1.5-1.8-1.5-2.2c0-0.3,0-1.7,0-1.7H18.3z"/>
				</g>
				<g>
					<path fill="#E7A614" d="M15.6,8.9c0,0,0.1,0.1,0.2,0.1c0,0,0.1,0,0,0c0,0,0,0,0,0"/>
					<path fill="#7C3A00" d="M18.1,8.9c-0.1,0-0.2,0.1-0.2,0c0,0-0.1,0,0,0c0,0,0,0,0,0"/>
				</g>
				<path d="M16.4,9.2c0.1,0,0.2,0.1,0.2,0.1c0,0,0,0.1,0,0.1c0,0,0,0,0,0c0,0,0,0-0.1,0c0,0,0,0,0,0c0,0,0-0.1-0.1-0.1
					C16.5,9.3,16.5,9.3,16.4,9.2C16.4,9.3,16.4,9.3,16.4,9.2C16.4,9.3,16.4,9.2,16.4,9.2C16.4,9.2,16.4,9.2,16.4,9.2z"/>
				<path d="M17.9,9.5l0,0.3c0,0,0-0.1,0-0.2C17.9,9.6,17.9,9.5,17.9,9.5z"/>
				<path fill="none" d="M20.5,8.4c0,0-0.1,0-0.1,0.1"/>
				<path fill="none" d="M13,8.6C13,8.6,13.1,8.6,13,8.6c0.1,0,0.2,0.1,0.1,0.2C13.1,8.8,13,8.7,13,8.6C13,8.6,13,8.6,13,8.6z"/>
				<g>
					<path fill="#7C3A00" d="M20.4,8.3C20.4,8.4,20.5,8.3,20.4,8.3c0-0.1,0-0.1,0-0.2c0,0,0-0.1-0.1,0c0,0-0.1,0-0.1,0
						c0,0-0.1,0.1-0.1,0.1c0,0,0,0.1,0,0.1c0,0,0,0,0,0c0,0,0,0,0,0.1c0,0,0,0,0,0c0,0,0,0,0,0.1c0,0,0,0,0.1,0c0,0,0,0,0,0
						C20.3,8.4,20.3,8.4,20.4,8.3C20.4,8.4,20.3,8.3,20.4,8.3z"/>
					<g>
						<path fill="none" d="M20.1,8.2c0-0.1,0.1-0.1,0.1-0.1"/>
						<path fill="none" d="M20.2,8.3C20.2,8.3,20.2,8.3,20.2,8.3c0-0.1,0.1-0.1,0.2-0.1"/>
						<path fill="none" d="M20.3,8.3C20.3,8.3,20.3,8.3,20.3,8.3c0.1-0.1,0.1-0.1,0.1-0.1"/>
					</g>
				</g>
			</g>
		</g>
	</g>
</g>
</svg>
