<svg xmlns="http://www.w3.org/2000/svg" xmlns:xlink="http://www.w3.org/1999/xlink" viewBox="0 0 33.6 19.6"><defs><clipPath id="a"><rect width="33.6" height="19.58" fill="none"/></clipPath></defs><title>BRA</title><g clip-path=""><rect width="33.6" height="19.58" fill="#3c9242"/><polygon points="5.2 9.8 16.8 17.2 28.4 9.8 16.8 2.4 5.2 9.8" fill="#edc226"/><g clip-path=""><path d="M21.7,9.8a4.9,4.9,0,1,1-4.9-4.9,4.9,4.9,0,0,1,4.9,4.9" fill="#2d146e"/><path d="M14,7.7H12.3l-.3.7L14,8.4a11.1,11.1,0,0,1,7.5,2.9,4.5,4.5,0,0,0,.2-.8A11.8,11.8,0,0,0,14,7.7" fill="#fff"/><path d="M12.6,8.4a.2.2,0,0,0-.1-.5.2.2,0,0,0-.2.3.2.2,0,0,0,.2.2m0-.1V8.1h-.1v.2h.1" fill="#3c9242" fill-rule="evenodd"/><path d="M13,8.3h.1V8.1h.2V8H13Zm.1-.3h0Z" fill="#3c9242" fill-rule="evenodd"/><path d="M13.4,8.3c0-.1,0-.2-.1-.2h-.1c.1,0,.2.1.2.2" fill="#3c9242"/><path d="M13.6,8.3h.2a.2.2,0,0,0,.2-.2h0a.2.2,0,0,0-.2-.2h-.2Zm.1-.1h0Z" fill="#3c9242" fill-rule="evenodd"/><polygon points="14.2 8.3 14.6 8.3 14.6 8.2 14.3 8.2 14.3 8.1 14.5 8.1 14.5 8 14.3 8 14.3 7.9 14.6 7.9 14.6 7.8 14.2 7.8 14.2 8.3" fill="#3c9242"/><polygon points="14.8 8.3 14.8 8.3 14.9 8 14.9 8.3 15 8.3 15.1 8 15.1 8.3 15.2 8.3 15.2 7.9 15.1 7.9 15 8.2 14.9 7.8 14.8 7.8 14.8 8.3" fill="#3c9242"/><polygon points="15.7 8.4 16.1 8.5 16.1 8.4 15.8 8.3 15.8 8.2 16.1 8.3 16.1 8.2 15.9 8.2 15.9 8.1 16.1 8.1 16.1 8.1 15.8 8 15.7 8.4" fill="#3c9242"/><path d="M16.6,8.6h.1V8.4h.4a.2.2,0,0,0-.1-.2h-.3Zm.2-.2h0Z" fill="#3c9242" fill-rule="evenodd"/><path d="M17.2,8.7h.1V8.6h.4a.1.1,0,0,0-.1-.2h-.3Zm.2-.2h0Z" fill="#3c9242" fill-rule="evenodd"/><path d="M17.6,8.9c0-.1.1-.2,0-.2h-.1c.1,0,.1.2.1.2" fill="#3c9242"/><path d="M17.9,9h.3a.2.2,0,0,0-.1-.3h-.3a.2.2,0,0,0,.1.3m0-.1h.2a.1.1,0,0,0-.1-.2h-.2a.1.1,0,0,0,.1.2" fill="#3c9242" fill-rule="evenodd"/><path d="M18.5,9.2h.3a.2.2,0,0,0-.1-.3h-.3a.2.2,0,0,0,.1.3m0-.1h.2a.1.1,0,0,0-.1-.2h-.2a.1.1,0,0,0,.1.2" fill="#3c9242" fill-rule="evenodd"/><polygon points="18.6 9 18.8 9.1 18.7 9.1 18.6 9.1 18.6 9" fill="#3c9242"/><polygon points="18.7 9.1 18.8 9.1 18.7 9.3 18.6 9.3 18.7 9.1" fill="#3c9242"/><path d="M18.8,9.4h.1V9.2h.4a.1.1,0,0,0-.1-.2h-.2Zm.2-.2h0Z" fill="#3c9242" fill-rule="evenodd"/><path d="M19.2,9.5c0-.1.1-.2,0-.2h-.1c.1.1.1.2,0,.3" fill="#3c9242"/><polygon points="19.4 9.6 19.7 9.8 19.8 9.8 19.5 9.6 19.5 9.5 19.8 9.6 19.8 9.6 19.6 9.4 19.6 9.3 19.9 9.5 19.9 9.4 19.6 9.2 19.4 9.6" fill="#3c9242"/><path d="M20.1,9.9h.2c.1-.1-.2-.2-.2-.3s.2,0,.3,0a.2.2,0,0,1,.1.2h-.1s0-.1,0-.1h-.1c0,.1.2.2.2.3s-.2.1-.2,0-.2-.1-.1-.2Z" fill="#3c9242"/><path d="M20.6,10.2s0,.1,0,.1h.1c.1-.1-.2-.2-.1-.3s.2,0,.3,0a.2.2,0,0,1,.1.2h-.1s0-.1,0-.1h-.1c0,.1.2.2.1.3s-.2,0-.3,0-.2-.1-.1-.2Z" fill="#3c9242"/><path d="M21,10.7h.3a.2.2,0,0,0,0-.3H21a.2.2,0,0,0,0,.3m.1-.1h.2a.1.1,0,0,0,0-.2h-.2a.1.1,0,0,0,0,.2" fill="#3c9242" fill-rule="evenodd"/><polygon points="12.8 8.7 12.7 8.9 12.8 8.9 12.8 8.7" fill="#fff"/><polygon points="12.8 8.7 12.9 8.9 12.8 8.9 12.8 8.7" fill="#fff"/><polygon points="13 8.8 12.8 8.8 12.8 8.9 13 8.8" fill="#fff"/><polygon points="13 8.8 12.8 9 12.8 8.9 13 8.8" fill="#fff"/><polygon points="12.6 8.8 12.8 9 12.8 8.9 12.6 8.8" fill="#fff"/><polygon points="12.6 8.8 12.8 8.8 12.8 8.9 12.6 8.8" fill="#fff"/><polygon points="12.9 9.1 12.8 8.9 12.7 8.9 12.9 9.1" fill="#fff"/><polygon points="12.9 9.1 12.7 9 12.8 8.9 12.9 9.1" fill="#fff"/><polygon points="12.7 9.1 12.8 9 12.8 8.9 12.7 9.1" fill="#fff"/><polygon points="12.7 9.1 12.7 8.9 12.8 8.9 12.7 9.1" fill="#fff"/><polygon points="13.2 10.8 13.2 11 13.3 11 13.2 10.8" fill="#fff"/><polygon points="13.2 10.8 13.3 11 13.2 11 13.2 10.8" fill="#fff"/><polygon points="13.4 10.9 13.2 10.9 13.2 11 13.4 10.9" fill="#fff"/><polygon points="13.4 10.9 13.3 11 13.2 10.9 13.4 10.9" fill="#fff"/><polygon points="13 10.9 13.2 11 13.3 10.9 13 10.9" fill="#fff"/><polygon points="13 10.9 13.2 10.9 13.2 11 13 10.9" fill="#fff"/><polygon points="13.3 11.1 13.3 10.9 13.2 11 13.3 11.1" fill="#fff"/><polygon points="13.3 11.1 13.2 11 13.2 10.9 13.3 11.1" fill="#fff"/><polygon points="13.1 11.1 13.3 11 13.2 10.9 13.1 11.1" fill="#fff"/><polygon points="13.1 11.1 13.2 10.9 13.3 11 13.1 11.1" fill="#fff"/><polygon points="12.6 11.3 12.6 11.4 12.6 11.4 12.6 11.3" fill="#fff"/><polygon points="12.6 11.3 12.7 11.4 12.6 11.4 12.6 11.3" fill="#fff"/><polygon points="12.8 11.4 12.6 11.4 12.6 11.4 12.8 11.4" fill="#fff"/><polygon points="12.8 11.4 12.6 11.4 12.6 11.4 12.8 11.4" fill="#fff"/><polygon points="12.5 11.4 12.6 11.4 12.6 11.4 12.5 11.4" fill="#fff"/><polygon points="12.5 11.4 12.6 11.4 12.6 11.4 12.5 11.4" fill="#fff"/><polygon points="12.7 11.5 12.7 11.4 12.6 11.4 12.7 11.5" fill="#fff"/><polygon points="12.7 11.5 12.6 11.4 12.6 11.4 12.7 11.5" fill="#fff"/><polygon points="12.5 11.5 12.7 11.4 12.6 11.4 12.5 11.5" fill="#fff"/><polygon points="12.5 11.5 12.6 11.4 12.6 11.4 12.5 11.5" fill="#fff"/><polygon points="13.7 10.6 13.7 10.7 13.7 10.7 13.7 10.6" fill="#fff"/><polygon points="13.7 10.6 13.7 10.7 13.7 10.7 13.7 10.6" fill="#fff"/><polygon points="13.8 10.6 13.7 10.6 13.7 10.7 13.8 10.6" fill="#fff"/><polygon points="13.8 10.6 13.7 10.7 13.7 10.7 13.8 10.6" fill="#fff"/><polygon points="13.6 10.6 13.7 10.7 13.7 10.7 13.6 10.6" fill="#fff"/><polygon points="13.6 10.6 13.7 10.6 13.7 10.7 13.6 10.6" fill="#fff"/><polygon points="13.8 10.7 13.7 10.7 13.7 10.7 13.8 10.7" fill="#fff"/><polygon points="13.8 10.7 13.7 10.7 13.7 10.6 13.8 10.7" fill="#fff"/><polygon points="13.6 10.7 13.7 10.7 13.7 10.6 13.6 10.7" fill="#fff"/><polygon points="13.6 10.7 13.7 10.7 13.7 10.7 13.6 10.7" fill="#fff"/><polygon points="14.2 11.3 14.2 11.4 14.3 11.5 14.2 11.3" fill="#fff"/><polygon points="14.2 11.3 14.3 11.4 14.2 11.5 14.2 11.3" fill="#fff"/><polygon points="14.4 11.4 14.2 11.4 14.2 11.5 14.4 11.4" fill="#fff"/><polygon points="14.4 11.4 14.3 11.5 14.2 11.4 14.4 11.4" fill="#fff"/><polygon points="14.1 11.4 14.2 11.5 14.3 11.4 14.1 11.4" fill="#fff"/><polygon points="14.1 11.4 14.2 11.4 14.2 11.5 14.1 11.4" fill="#fff"/><polygon points="14.3 11.6 14.3 11.4 14.2 11.5 14.3 11.6" fill="#fff"/><polygon points="14.3 11.6 14.2 11.5 14.3 11.4 14.3 11.6" fill="#fff"/><polygon points="14.1 11.6 14.3 11.5 14.2 11.4 14.1 11.6" fill="#fff"/><polygon points="14.1 11.6 14.2 11.4 14.3 11.5 14.1 11.6" fill="#fff"/><polygon points="14.1 11.8 14 11.9 14.1 12 14.1 11.8" fill="#fff"/><polygon points="14.1 11.8 14.1 11.9 14.1 12 14.1 11.8" fill="#fff"/><polygon points="14.3 11.9 14.1 11.9 14.1 12 14.3 11.9" fill="#fff"/><polygon points="14.3 11.9 14.1 12 14.1 11.9 14.3 11.9" fill="#fff"/><polygon points="13.9 11.9 14.1 12 14.1 11.9 13.9 11.9" fill="#fff"/><polygon points="13.9 11.9 14.1 11.9 14.1 12 13.9 11.9" fill="#fff"/><polygon points="14.2 12.1 14.1 11.9 14.1 11.9 14.2 12.1" fill="#fff"/><polygon points="14.2 12.1 14.1 12 14.1 11.9 14.2 12.1" fill="#fff"/><polygon points="14 12.1 14.1 12 14.1 11.9 14 12.1" fill="#fff"/><polygon points="14 12.1 14 11.9 14.1 11.9 14 12.1" fill="#fff"/><polygon points="18.3 8.1 18.2 8.3 18.3 8.3 18.3 8.1" fill="#fff"/><polygon points="18.3 8.1 18.4 8.3 18.3 8.3 18.3 8.1" fill="#fff"/><polygon points="18.5 8.2 18.3 8.2 18.3 8.3 18.5 8.2" fill="#fff"/><polygon points="18.5 8.2 18.3 8.3 18.3 8.2 18.5 8.2" fill="#fff"/><polygon points="18.1 8.2 18.3 8.3 18.3 8.2 18.1 8.2" fill="#fff"/><polygon points="18.1 8.2 18.3 8.2 18.3 8.3 18.1 8.2" fill="#fff"/><polygon points="18.4 8.4 18.4 8.2 18.3 8.3 18.4 8.4" fill="#fff"/><polygon points="18.4 8.4 18.3 8.3 18.3 8.2 18.4 8.4" fill="#fff"/><polygon points="18.2 8.4 18.3 8.3 18.3 8.2 18.2 8.4" fill="#fff"/><polygon points="18.2 8.4 18.2 8.2 18.3 8.3 18.2 8.4" fill="#fff"/><polygon points="20.2 11.3 20.1 11.5 20.2 11.5 20.2 11.3" fill="#fff"/><polygon points="20.2 11.3 20.3 11.5 20.2 11.5 20.2 11.3" fill="#fff"/><polygon points="20.4 11.4 20.2 11.4 20.2 11.5 20.4 11.4" fill="#fff"/><polygon points="20.4 11.4 20.2 11.6 20.2 11.5 20.4 11.4" fill="#fff"/><polygon points="20 11.4 20.2 11.6 20.2 11.5 20 11.4" fill="#fff"/><polygon points="20 11.4 20.2 11.4 20.2 11.5 20 11.4" fill="#fff"/><polygon points="20.3 11.7 20.3 11.5 20.2 11.5 20.3 11.7" fill="#fff"/><polygon points="20.3 11.7 20.2 11.6 20.2 11.5 20.3 11.7" fill="#fff"/><polygon points="20.1 11.7 20.3 11.6 20.2 11.5 20.1 11.7" fill="#fff"/><polygon points="20.1 11.7 20.2 11.5 20.3 11.5 20.1 11.7" fill="#fff"/><polygon points="20.9 11.4 20.8 11.5 20.9 11.6 20.9 11.4" fill="#fff"/><polygon points="20.9 11.4 20.9 11.5 20.9 11.6 20.9 11.4" fill="#fff"/><polygon points="21 11.5 20.9 11.5 20.9 11.6 21 11.5" fill="#fff"/><polygon points="21 11.5 20.9 11.6 20.9 11.5 21 11.5" fill="#fff"/><polygon points="20.8 11.5 20.9 11.6 20.9 11.5 20.8 11.5" fill="#fff"/><polygon points="20.8 11.5 20.9 11.5 20.9 11.6 20.8 11.5" fill="#fff"/><polygon points="21 11.7 20.9 11.5 20.9 11.6 21 11.7" fill="#fff"/><polygon points="21 11.7 20.9 11.6 20.9 11.5 21 11.7" fill="#fff"/><polygon points="20.8 11.7 20.9 11.6 20.9 11.5 20.8 11.7" fill="#fff"/><polygon points="20.8 11.7 20.9 11.5 20.9 11.6 20.8 11.7" fill="#fff"/><polygon points="20.4 11.8 20.4 11.9 20.4 12 20.4 11.8" fill="#fff"/><polygon points="20.4 11.8 20.5 11.9 20.4 12 20.4 11.8" fill="#fff"/><polygon points="20.6 11.9 20.4 11.9 20.4 12 20.6 11.9" fill="#fff"/><polygon points="20.6 11.9 20.4 12 20.4 11.9 20.6 11.9" fill="#fff"/><polygon points="20.2 11.9 20.4 12 20.4 11.9 20.2 11.9" fill="#fff"/><polygon points="20.2 11.9 20.4 11.9 20.4 12 20.2 11.9" fill="#fff"/><polygon points="20.5 12.1 20.5 11.9 20.4 11.9 20.5 12.1" fill="#fff"/><polygon points="20.5 12.1 20.4 12 20.4 11.9 20.5 12.1" fill="#fff"/><polygon points="20.3 12.1 20.4 12 20.4 11.9 20.3 12.1" fill="#fff"/><polygon points="20.3 12.1 20.4 11.9 20.4 11.9 20.3 12.1" fill="#fff"/><polygon points="19.2 12.8 19.2 13 19.3 13 19.2 12.8" fill="#fff"/><polygon points="19.2 12.8 19.3 13 19.2 13 19.2 12.8" fill="#fff"/><polygon points="19.4 12.9 19.2 12.9 19.2 13 19.4 12.9" fill="#fff"/><polygon points="19.4 12.9 19.3 13 19.2 12.9 19.4 12.9" fill="#fff"/><polygon points="19.1 12.9 19.2 13 19.3 12.9 19.1 12.9" fill="#fff"/><polygon points="19.1 12.9 19.2 12.9 19.2 13 19.1 12.9" fill="#fff"/><polygon points="19.3 13.1 19.3 12.9 19.2 13 19.3 13.1" fill="#fff"/><polygon points="19.3 13.1 19.2 13 19.2 12.9 19.3 13.1" fill="#fff"/><polygon points="19.1 13.1 19.3 13 19.2 12.9 19.1 13.1" fill="#fff"/><polygon points="19.1 13.1 19.2 12.9 19.3 13 19.1 13.1" fill="#fff"/><polygon points="19.2 13.3 19.2 13.4 19.3 13.5 19.2 13.3" fill="#fff"/><polygon points="19.2 13.3 19.3 13.4 19.2 13.5 19.2 13.3" fill="#fff"/><polygon points="19.4 13.4 19.2 13.4 19.2 13.5 19.4 13.4" fill="#fff"/><polygon points="19.4 13.4 19.2 13.5 19.2 13.4 19.4 13.4" fill="#fff"/><polygon points="19.1 13.4 19.2 13.5 19.2 13.4 19.1 13.4" fill="#fff"/><polygon points="19.1 13.4 19.2 13.4 19.2 13.5 19.1 13.4" fill="#fff"/><polygon points="19.3 13.6 19.3 13.4 19.2 13.5 19.3 13.6" fill="#fff"/><polygon points="19.3 13.6 19.2 13.5 19.2 13.4 19.3 13.6" fill="#fff"/><polygon points="19.1 13.6 19.3 13.5 19.2 13.4 19.1 13.6" fill="#fff"/><polygon points="19.1 13.6 19.2 13.4 19.3 13.5 19.1 13.6" fill="#fff"/><polygon points="19.7 12.4 19.7 12.6 19.7 12.6 19.7 12.4" fill="#fff"/><polygon points="19.7 12.4 19.8 12.6 19.7 12.6 19.7 12.4" fill="#fff"/><polygon points="19.9 12.5 19.7 12.5 19.7 12.6 19.9 12.5" fill="#fff"/><polygon points="19.9 12.5 19.7 12.6 19.7 12.6 19.9 12.5" fill="#fff"/><polygon points="19.6 12.5 19.7 12.6 19.7 12.6 19.6 12.5" fill="#fff"/><polygon points="19.6 12.5 19.7 12.5 19.7 12.6 19.6 12.5" fill="#fff"/><polygon points="19.8 12.7 19.8 12.6 19.7 12.6 19.8 12.7" fill="#fff"/><polygon points="19.8 12.7 19.7 12.6 19.7 12.6 19.8 12.7" fill="#fff"/><polygon points="19.6 12.7 19.8 12.6 19.7 12.6 19.6 12.7" fill="#fff"/><polygon points="19.6 12.7 19.7 12.6 19.7 12.6 19.6 12.7" fill="#fff"/><polygon points="20.1 12.2 20.1 12.3 20.1 12.3 20.1 12.2" fill="#fff"/><polygon points="20.1 12.2 20.2 12.3 20.1 12.3 20.1 12.2" fill="#fff"/><polygon points="20.3 12.3 20.1 12.3 20.1 12.4 20.3 12.3" fill="#fff"/><polygon points="20.3 12.3 20.1 12.4 20.1 12.3 20.3 12.3" fill="#fff"/><polygon points="19.9 12.3 20.1 12.4 20.1 12.3 19.9 12.3" fill="#fff"/><polygon points="19.9 12.3 20.1 12.3 20.1 12.4 19.9 12.3" fill="#fff"/><polygon points="20.2 12.5 20.2 12.3 20.1 12.3 20.2 12.5" fill="#fff"/><polygon points="20.2 12.5 20.1 12.4 20.1 12.3 20.2 12.5" fill="#fff"/><polygon points="20 12.5 20.2 12.4 20.1 12.3 20 12.5" fill="#fff"/><polygon points="20 12.5 20.1 12.3 20.1 12.3 20 12.5" fill="#fff"/><polygon points="19.2 12.3 19.2 12.5 19.2 12.5 19.2 12.3" fill="#fff"/><polygon points="19.2 12.3 19.3 12.5 19.2 12.5 19.2 12.3" fill="#fff"/><polygon points="19.3 12.4 19.2 12.4 19.2 12.5 19.3 12.4" fill="#fff"/><polygon points="19.3 12.4 19.2 12.5 19.2 12.5 19.3 12.4" fill="#fff"/><polygon points="19.1 12.4 19.2 12.5 19.2 12.5 19.1 12.4" fill="#fff"/><polygon points="19.1 12.4 19.2 12.4 19.2 12.5 19.1 12.4" fill="#fff"/><polygon points="19.3 12.6 19.3 12.5 19.2 12.5 19.3 12.6" fill="#fff"/><polygon points="19.3 12.6 19.2 12.5 19.2 12.5 19.3 12.6" fill="#fff"/><polygon points="19.1 12.6 19.2 12.5 19.2 12.5 19.1 12.6" fill="#fff"/><polygon points="19.1 12.6 19.2 12.5 19.2 12.5 19.1 12.6" fill="#fff"/><polygon points="14.9 9.8 14.9 10 14.9 10 14.9 9.8" fill="#fff"/><polygon points="14.9 9.8 15 10 14.9 10 14.9 9.8" fill="#fff"/><polygon points="15.1 9.9 14.9 9.9 14.9 10 15.1 9.9" fill="#fff"/><polygon points="15.1 9.9 14.9 10 14.9 10 15.1 9.9" fill="#fff"/><polygon points="14.8 9.9 14.9 10 14.9 10 14.8 9.9" fill="#fff"/><polygon points="14.8 9.9 14.9 9.9 14.9 10 14.8 9.9" fill="#fff"/><polygon points="15 10.1 15 10 14.9 10 15 10.1" fill="#fff"/><polygon points="15 10.1 14.9 10 14.9 10 15 10.1" fill="#fff"/><polygon points="14.8 10.1 15 10 14.9 10 14.8 10.1" fill="#fff"/><polygon points="14.8 10.1 14.9 10 14.9 10 14.8 10.1" fill="#fff"/><polygon points="18.1 9.4 18.1 9.5 18.1 9.6 18.1 9.4" fill="#fff"/><polygon points="18.1 9.4 18.2 9.5 18.1 9.6 18.1 9.4" fill="#fff"/><polygon points="18.2 9.5 18.1 9.5 18.1 9.6 18.2 9.5" fill="#fff"/><polygon points="18.2 9.5 18.1 9.6 18.1 9.5 18.2 9.5" fill="#fff"/><polygon points="18 9.5 18.1 9.6 18.1 9.5 18 9.5" fill="#fff"/><polygon points="18 9.5 18.1 9.5 18.1 9.6 18 9.5" fill="#fff"/><polygon points="18.2 9.7 18.1 9.5 18.1 9.5 18.2 9.7" fill="#fff"/><polygon points="18.2 9.7 18.1 9.6 18.1 9.5 18.2 9.7" fill="#fff"/><polygon points="18 9.7 18.1 9.6 18.1 9.5 18 9.7" fill="#fff"/><polygon points="18 9.7 18.1 9.5 18.1 9.5 18 9.7" fill="#fff"/><polygon points="16.8 11.8 16.7 12 16.8 12 16.8 11.8" fill="#fff"/><polygon points="16.8 11.8 16.8 12 16.7 12 16.8 11.8" fill="#fff"/><polygon points="17 11.9 16.8 11.9 16.8 12 17 11.9" fill="#fff"/><polygon points="17 11.9 16.8 12 16.8 12 17 11.9" fill="#fff"/><polygon points="16.6 11.9 16.8 12 16.8 12 16.6 11.9" fill="#fff"/><polygon points="16.6 11.9 16.8 11.9 16.8 12 16.6 11.9" fill="#fff"/><polygon points="16.9 12.2 16.8 12 16.7 12 16.9 12.2" fill="#fff"/><polygon points="16.9 12.2 16.7 12 16.8 11.9 16.9 12.2" fill="#fff"/><polygon points="16.7 12.2 16.8 12 16.8 11.9 16.7 12.2" fill="#fff"/><polygon points="16.7 12.2 16.7 12 16.8 12 16.7 12.2" fill="#fff"/><polygon points="17.4 10.8 17.3 11 17.4 11 17.4 10.8" fill="#fff"/><polygon points="17.4 10.8 17.4 11 17.3 11 17.4 10.8" fill="#fff"/><polygon points="17.5 11 17.3 11 17.3 11 17.5 11" fill="#fff"/><polygon points="17.5 11 17.4 11.1 17.3 11 17.5 11" fill="#fff"/><polygon points="17.2 11 17.3 11.1 17.4 11 17.2 11" fill="#fff"/><polygon points="17.2 11 17.4 11 17.4 11 17.2 11" fill="#fff"/><polygon points="17.5 11.2 17.4 11 17.3 11 17.5 11.2" fill="#fff"/><polygon points="17.5 11.2 17.3 11.1 17.4 11 17.5 11.2" fill="#fff"/><polygon points="17.2 11.2 17.4 11.1 17.3 11 17.2 11.2" fill="#fff"/><polygon points="17.2 11.2 17.3 11 17.4 11 17.2 11.2" fill="#fff"/><polygon points="16.8 10.4 16.7 10.6 16.8 10.6 16.8 10.4" fill="#fff"/><polygon points="16.8 10.4 16.8 10.6 16.8 10.6 16.8 10.4" fill="#fff"/><polygon points="16.9 10.5 16.8 10.5 16.8 10.6 16.9 10.5" fill="#fff"/><polygon points="16.9 10.5 16.8 10.6 16.8 10.6 16.9 10.5" fill="#fff"/><polygon points="16.6 10.5 16.8 10.6 16.8 10.6 16.6 10.5" fill="#fff"/><polygon points="16.6 10.5 16.8 10.5 16.8 10.6 16.6 10.5" fill="#fff"/><polygon points="16.9 10.7 16.8 10.5 16.7 10.6 16.9 10.7" fill="#fff"/><polygon points="16.9 10.7 16.7 10.6 16.8 10.5 16.9 10.7" fill="#fff"/><polygon points="16.7 10.7 16.8 10.6 16.8 10.5 16.7 10.7" fill="#fff"/><polygon points="16.7 10.7 16.7 10.5 16.8 10.6 16.7 10.7" fill="#fff"/><polygon points="16.3 10.9 16.2 11 16.3 11 16.3 10.9" fill="#fff"/><polygon points="16.3 10.9 16.3 11 16.3 11 16.3 10.9" fill="#fff"/><polygon points="16.4 11 16.3 11 16.3 11 16.4 11" fill="#fff"/><polygon points="16.4 11 16.3 11.1 16.3 11 16.4 11" fill="#fff"/><polygon points="16.2 11 16.3 11.1 16.3 11 16.2 11" fill="#fff"/><polygon points="16.2 11 16.3 11 16.3 11 16.2 11" fill="#fff"/><polygon points="16.4 11.1 16.3 11 16.3 11 16.4 11.1" fill="#fff"/><polygon points="16.4 11.1 16.3 11 16.3 11 16.4 11.1" fill="#fff"/><polygon points="16.2 11.1 16.3 11 16.3 11 16.2 11.1" fill="#fff"/><polygon points="16.2 11.1 16.3 11 16.3 11 16.2 11.1" fill="#fff"/><polygon points="16.5 11.3 16.5 11.3 16.6 11.4 16.5 11.3" fill="#fff"/><polygon points="16.5 11.3 16.6 11.3 16.5 11.4 16.5 11.3" fill="#fff"/><polygon points="16.6 11.3 16.5 11.3 16.5 11.4 16.6 11.3" fill="#fff"/><polygon points="16.6 11.3 16.6 11.4 16.5 11.3 16.6 11.3" fill="#fff"/><polygon points="16.4 11.3 16.5 11.4 16.6 11.3 16.4 11.3" fill="#fff"/><polygon points="16.4 11.3 16.5 11.3 16.5 11.4 16.4 11.3" fill="#fff"/><polygon points="16.6 11.4 16.6 11.3 16.5 11.4 16.6 11.4" fill="#fff"/><polygon points="16.6 11.4 16.5 11.4 16.5 11.3 16.6 11.4" fill="#fff"/><polygon points="16.5 11.4 16.6 11.4 16.5 11.3 16.5 11.4" fill="#fff"/><polygon points="16.5 11.4 16.5 11.3 16.6 11.4 16.5 11.4" fill="#fff"/><polygon points="18.2 12.9 18.2 13.1 18.3 13.1 18.2 12.9" fill="#fff"/><polygon points="18.2 12.9 18.3 13.1 18.2 13.1 18.2 12.9" fill="#fff"/><polygon points="18.4 13 18.2 13 18.2 13.1 18.4 13" fill="#fff"/><polygon points="18.4 13 18.3 13.1 18.2 13.1 18.4 13" fill="#fff"/><polygon points="18.1 13 18.2 13.1 18.3 13.1 18.1 13" fill="#fff"/><polygon points="18.1 13 18.3 13 18.3 13.1 18.1 13" fill="#fff"/><polygon points="18.4 13.2 18.3 13.1 18.2 13.1 18.4 13.2" fill="#fff"/><polygon points="18.4 13.2 18.2 13.1 18.3 13.1 18.4 13.2" fill="#fff"/><polygon points="18.1 13.2 18.3 13.1 18.2 13.1 18.1 13.2" fill="#fff"/><polygon points="18.1 13.2 18.2 13.1 18.3 13.1 18.1 13.2" fill="#fff"/><polygon points="18.7 12.5 18.6 12.6 18.7 12.7 18.7 12.5" fill="#fff"/><polygon points="18.7 12.5 18.7 12.6 18.6 12.7 18.7 12.5" fill="#fff"/><polygon points="18.8 12.6 18.7 12.6 18.7 12.7 18.8 12.6" fill="#fff"/><polygon points="18.8 12.6 18.7 12.7 18.6 12.6 18.8 12.6" fill="#fff"/><polygon points="18.5 12.6 18.6 12.7 18.7 12.6 18.5 12.6" fill="#fff"/><polygon points="18.5 12.6 18.7 12.6 18.7 12.7 18.5 12.6" fill="#fff"/><polygon points="18.7 12.8 18.7 12.6 18.6 12.7 18.7 12.8" fill="#fff"/><polygon points="18.7 12.8 18.6 12.7 18.7 12.6 18.7 12.8" fill="#fff"/><polygon points="18.6 12.8 18.7 12.7 18.7 12.6 18.6 12.8" fill="#fff"/><polygon points="18.6 12.8 18.6 12.6 18.7 12.7 18.6 12.8" fill="#fff"/><polygon points="17.9 12.4 17.8 12.5 17.9 12.5 17.9 12.4" fill="#fff"/><polygon points="17.9 12.4 17.9 12.5 17.8 12.5 17.9 12.4" fill="#fff"/><polygon points="18 12.5 17.9 12.5 17.9 12.6 18 12.5" fill="#fff"/><polygon points="18 12.5 17.9 12.6 17.8 12.5 18 12.5" fill="#fff"/><polygon points="17.7 12.5 17.8 12.6 17.9 12.5 17.7 12.5" fill="#fff"/><polygon points="17.7 12.5 17.9 12.5 17.9 12.6 17.7 12.5" fill="#fff"/><polygon points="17.9 12.6 17.9 12.5 17.8 12.5 17.9 12.6" fill="#fff"/><polygon points="17.9 12.6 17.8 12.6 17.9 12.5 17.9 12.6" fill="#fff"/><polygon points="17.8 12.6 17.9 12.6 17.9 12.5 17.8 12.6" fill="#fff"/><polygon points="17.8 12.6 17.8 12.5 17.9 12.5 17.8 12.6" fill="#fff"/><polygon points="14.8 12.2 14.8 12.4 14.9 12.4 14.8 12.2" fill="#fff"/><polygon points="14.8 12.2 14.9 12.4 14.8 12.4 14.8 12.2" fill="#fff"/><polygon points="15 12.3 14.8 12.3 14.8 12.4 15 12.3" fill="#fff"/><polygon points="15 12.3 14.8 12.4 14.8 12.4 15 12.3" fill="#fff"/><polygon points="14.6 12.3 14.8 12.4 14.8 12.4 14.6 12.3" fill="#fff"/><polygon points="14.6 12.3 14.8 12.3 14.8 12.4 14.6 12.3" fill="#fff"/><polygon points="14.9 12.6 14.9 12.4 14.8 12.4 14.9 12.6" fill="#fff"/><polygon points="14.9 12.6 14.8 12.4 14.8 12.3 14.9 12.6" fill="#fff"/><polygon points="14.7 12.6 14.9 12.4 14.8 12.3 14.7 12.6" fill="#fff"/><polygon points="14.7 12.6 14.8 12.4 14.9 12.4 14.7 12.6" fill="#fff"/><polygon points="16.8 13.5 16.8 13.6 16.8 13.6 16.8 13.5" fill="#fff"/><polygon points="16.8 13.5 16.8 13.6 16.8 13.6 16.8 13.5" fill="#fff"/><polygon points="16.9 13.6 16.8 13.6 16.8 13.6 16.9 13.6" fill="#fff"/><polygon points="16.9 13.6 16.8 13.6 16.8 13.6 16.9 13.6" fill="#fff"/><polygon points="16.7 13.6 16.8 13.6 16.8 13.6 16.7 13.6" fill="#fff"/><polygon points="16.7 13.6 16.8 13.6 16.8 13.6 16.7 13.6" fill="#fff"/><polygon points="16.8 13.7 16.8 13.6 16.8 13.6 16.8 13.7" fill="#fff"/><polygon points="16.8 13.7 16.8 13.6 16.8 13.6 16.8 13.7" fill="#fff"/><polygon points="16.7 13.7 16.8 13.6 16.8 13.6 16.7 13.7" fill="#fff"/><polygon points="16.7 13.7 16.8 13.6 16.8 13.6 16.7 13.7" fill="#fff"/></g></g></svg>