<svg xmlns="http://www.w3.org/2000/svg" xmlns:xlink="http://www.w3.org/1999/xlink" viewBox="0 0 33.6 19.6"><defs><clipPath id="a" transform="translate(-200 -484.9)"><rect x="200" y="484.9" width="33.6" height="19.57" fill="none"/></clipPath></defs><title>BTN</title><g clip-path=""><rect width="33.6" height="19.57" fill="#e4b03a"/><polygon points="33.6 0 0 19.6 33.6 19.6 33.6 0" fill="#d03633"/><g clip-path=""><path d="M217.8,491.1c-.1-.1-.2,0-.2.2s.1.3.2.3Z" transform="translate(-200 -484.9)" fill="#fff"/><path d="M217.7,491.6h0c-.1,0-.1-.1-.1-.3v-.2c.1-.1.1-.1.2,0v.5Zm0-.5h-.1v.2c0,.2.1.3.2.2v-.4Z" transform="translate(-200 -484.9)"/><path d="M218,490.7c-.2-.1-.3-.1-.4.1s0,.4.2.3Z" transform="translate(-200 -484.9)" fill="#fff"/><path d="M217.8,491.2h-.1a.4.4,0,0,1-.1-.3c.1-.2.2-.2.4-.1l-.2.4Zm0-.6a.3.3,0,0,0-.1.2.2.2,0,0,0,0,.3h.1l.2-.4Z" transform="translate(-200 -484.9)"/><path d="M218.2,490.3c-.1-.1-.3-.1-.3.1s-.1.3.1.3Z" transform="translate(-200 -484.9)" fill="#fff"/><path d="M218,490.7h-.2v-.3c.1-.2.3-.3.4-.1l-.2.4Zm0-.5v.2a.3.3,0,0,0-.1.2h.2l.2-.4Z" transform="translate(-200 -484.9)"/><path d="M218,492.1c-.2.1-.2.4,0,.6s.3.2.4,0Z" transform="translate(-200 -484.9)" fill="#fff"/><path d="M218.2,492.8h-.3c0-.1-.1-.3,0-.4s.1-.1.1-.2l.4.6c0,.1-.1.1-.2.1Zm-.2-.7c0,.1-.1.1-.1.2a.6.6,0,0,0,.1.4h.4l-.4-.6Z" transform="translate(-200 -484.9)"/><path d="M217.8,491.6c-.2-.1-.3.2-.4.4s-.4.4-.2.8.2-.4.4-.4.4-.1.4-.3Z" transform="translate(-200 -484.9)" fill="#fff"/><path d="M217.2,492.8h0a.6.6,0,0,1,.1-.6.3.3,0,0,0,.1-.2c.1-.3.2-.5.4-.4l.3.5a.7.7,0,0,1-.5.3c-.2,0-.3.1-.4.4Zm.6-1.2c-.2,0-.3.2-.4.4a.4.4,0,0,1-.1.3.4.4,0,0,0-.1.5c.1-.3.2-.4.4-.4s.4-.1.4-.3l-.2-.5Z" transform="translate(-200 -484.9)"/><path d="M218.4,492.7c-.2,0-.2.3-.1.5s.6.2.6,0Z" transform="translate(-200 -484.9)" fill="#fff"/><path d="M218.6,493.4h0l-.3-.2c-.1-.1-.1-.2-.1-.4h.2l.5.5a.1.1,0,0,1-.1.1Zm-.2-.7h-.2c0,.2,0,.3.1.4l.3.2h.2a.1.1,0,0,0,.1-.1l-.5-.5Z" transform="translate(-200 -484.9)"/><path d="M219,494.5c.1-.2-.3-.3-.4-.3s-.4,0-.5-.1,0,.2.2.3.2.2.2.2Z" transform="translate(-200 -484.9)" fill="#fff"/><path d="M218.6,494.6h-.3a.2.2,0,0,1-.2-.2h0c.1.1.4.2.5.1h.4c0,.1.1.1,0,.2s-.3.1-.4.1Zm-.5-.5h0a.2.2,0,0,0,.2.2h.7v-.2h-.4a.4.4,0,0,1-.5-.1Z" transform="translate(-200 -484.9)"/><path d="M218.9,493.2l-.5.2c-.1.2-.5,0-.6.3s.4,0,.4.1.7.1.8-.3Z" transform="translate(-200 -484.9)" fill="#fff"/><path d="M218.5,493.9h-.3c-.1-.1-.2-.2-.4-.1s.2-.2.4-.2.2,0,.2-.1.3-.3.5-.2v.3c0,.3-.3.4-.5.4Zm-.6-.3.3.2h.3a.5.5,0,0,0,.5-.4v-.2h-.2l-.2.2c-.1.2-.2.1-.3.1s-.3,0-.4.2Z" transform="translate(-200 -484.9)"/><path d="M219,493.5a.9.9,0,0,0-.3.5c0,.1.2.4.4.4s.2-.7-.1-.9Z" transform="translate(-200 -484.9)" fill="#fff"/><path d="M219.1,494.4h0c-.2,0-.4-.3-.4-.4a.9.9,0,0,1,.3-.5c.3.2.2.7.1.9Zm-.1-.9a.9.9,0,0,0-.3.5c0,.1.2.4.4.4s.2-.7-.1-.9Z" transform="translate(-200 -484.9)"/><path d="M218.1,494.5c0-.1.1-.1.2-.1s.2.1.2.2Z" transform="translate(-200 -484.9)" fill="#fff"/><path d="M218.5,494.6h-.4c0-.1.1-.1.2-.1h.2Zm-.3-.2h.2c0-.1,0-.1-.1-.2Z" transform="translate(-200 -484.9)"/><path d="M216.9,494.1c0-.1.1-.3.3-.2s.3.3.2.3Z" transform="translate(-200 -484.9)" fill="#fff"/><path d="M217.4,494.3h0l-.5-.2h.4c.1.1.1.1.1.2s0,.1,0,.2Zm-.3-.4a.1.1,0,0,0-.1.1.1.1,0,0,0-.1.1h.5c0-.1,0-.1-.2-.2Z" transform="translate(-200 -484.9)"/><path d="M217.4,494.3c0-.1.1-.2.4-.1a.3.3,0,0,1,.3.3Z" transform="translate(-200 -484.9)" fill="#fff"/><path d="M218.1,494.5l-.7-.2h.4c.3,0,.3.2.3.3Zm-.5-.3h-.2l.7.3c0-.1,0-.3-.3-.3Z" transform="translate(-200 -484.9)"/><path d="M216.9,494.1a.3.3,0,0,0,0-.4c-.3-.1-.2-.3-.3-.4s-.3-.1-.3-.2,0,.2.1.3-.1.4,0,.5Z" transform="translate(-200 -484.9)" fill="#fff"/><path d="M216.9,494.1h0l-.5-.2c-.1,0,0-.1,0-.3v-.2c-.1-.1-.2-.2-.1-.3l.3.2a.3.3,0,0,1,.1.2c0,.1,0,.2.2.2s.1.1.1.2,0,.1-.1.2Zm-.6-1a.4.4,0,0,0,.1.3v.5l.5.2c0-.1.1-.1.1-.2l-.2-.2c-.1,0-.1-.1-.1-.2v-.2c-.2,0-.3-.1-.3-.2Z" transform="translate(-200 -484.9)"/><path d="M214.1,494c-.1-.2-.4-.1-.5,0a.3.3,0,0,0,0,.4Z" transform="translate(-200 -484.9)" fill="#fff"/><path d="M213.6,494.4h0c-.1-.1-.1-.1-.1-.2s0-.2.1-.2a.5.5,0,0,1,.5,0l-.5.4Zm.2-.5c-.1,0-.2,0-.2.1v.2c0,.1.1.1.1.2l.5-.4Z" transform="translate(-200 -484.9)"/><path d="M214.7,493.8c0-.3-.3-.3-.5-.2s-.2.2-.1.4Z" transform="translate(-200 -484.9)" fill="#fff"/><path d="M214.1,494h0v-.2l.2-.3c.2,0,.5,0,.5.3l-.6.2Zm.3-.5h-.2a.3.3,0,0,0-.1.2c-.1,0-.1.1,0,.2l.6-.3-.3-.2Z" transform="translate(-200 -484.9)"/><path d="M215.1,493.7a.4.4,0,0,0-.3-.5c-.2,0-.4,0-.5-.2s.1.2.2.3,0,.3.2.5Z" transform="translate(-200 -484.9)" fill="#fff"/><path d="M214.7,493.8h0a.4.4,0,0,1-.1-.3c0-.1,0-.1-.1-.2s-.2-.2-.2-.3l.4.2h.1l.3.2a.2.2,0,0,1,0,.3Zm-.4-.8q0,.2.3.3v.2a.4.4,0,0,0,.1.3h.4c.1-.1,0-.2,0-.3l-.3-.2h-.1l-.4-.2Z" transform="translate(-200 -484.9)"/><path d="M215.1,493.7c0-.1,0-.3.2-.3s.3.2.2.3Z" transform="translate(-200 -484.9)" fill="#fff"/><path d="M215.6,493.7h-.5v-.2h.5v.2Zm-.3-.3h-.2v.2h.4c.1,0,.1-.1,0-.2Z" transform="translate(-200 -484.9)"/><path d="M215.5,493.7c0-.1.1-.3.3-.2s.3.2.2.3Z" transform="translate(-200 -484.9)" fill="#fff"/><path d="M216,493.8h-.5v-.2a.1.1,0,0,1,.2,0c.1,0,.2,0,.2.1v.2Zm-.3-.3h-.1v.2h.5v-.2c0-.1-.1-.1-.2-.1Z" transform="translate(-200 -484.9)"/><path d="M215.9,493.8a.3.3,0,0,1,.3-.3c.2.1.3.3.2.4Z" transform="translate(-200 -484.9)" fill="#fff"/><path d="M216.4,493.9h-.5c0-.1,0-.1.1-.2h.2l.2.2c.1.1,0,.1,0,.2Zm-.2-.4H216c0,.1-.1.1-.1.2h.5v-.2h-.2Z" transform="translate(-200 -484.9)"/><path d="M212.8,496.2c-.4,0-.5.1-.5.5s.5.5.5-.5Z" transform="translate(-200 -484.9)" fill="#fff"/><path d="M212.5,497h-.2v-.2c0-.4.1-.5.5-.5a1,1,0,0,1-.2.7Zm.3-.8c-.4,0-.5.1-.5.5v.2h.3a1,1,0,0,0,.2-.7Z" transform="translate(-200 -484.9)"/><path d="M212.9,495.7c-.5-.2-.8.7-1.3.5s.6,0,.8.1.9-.1.5-.6Z" transform="translate(-200 -484.9)" fill="#fff"/><path d="M211.8,496.4l-.3-.2h.2l.5-.2c.2-.2.5-.4.7-.3s.2.3.1.4l-.5.2h-.7Zm-.2-.2a.2.2,0,0,0,.2.2h.7l.5-.2c.1-.1,0-.2-.1-.4a1.1,1.1,0,0,0-.7.3c-.2.2-.4.3-.6.2Z" transform="translate(-200 -484.9)"/><path d="M212.6,496.9c-.3-.1-.6.3-.5.5s.6,0,.5-.5Z" transform="translate(-200 -484.9)" fill="#fff"/><path d="M212.2,497.5h0a.1.1,0,0,1-.1-.1c-.1-.1,0-.2.1-.3s.2-.3.4-.2,0,.3-.1.4l-.3.2Zm.3-.6-.3.2a.4.4,0,0,0-.1.3.1.1,0,0,0,.1.1h0l.3-.2c.1-.1.1-.2.1-.4Z" transform="translate(-200 -484.9)"/><path d="M211.3,498.7c.2,0,.4.1.3.4s-.5.8-1,.9-.7.6-1.1.4.4-.5.7-.6-.3.4-.6.4-.5.4-.8.4-.4.6-1.1.6-1.2.6-1.4.3.7-.3,1-.6,1.1-.3,1.3-.8a1.3,1.3,0,0,1-.8.3c-.3,0-.6.5-1,.2s.3-.1.6-.3.5-.1.8-.3.7-.1,1.1-.6H208c0-.3.6-.1,1-.4a2.2,2.2,0,0,1,1.1-.1c-.5,0-.7-.4-1.3-.3s-.5-.4-.8-.2a.4.4,0,0,1,.6-.1c.3.2.4-.1,1,.2s.7-.1,1,.1a.5.5,0,0,0-.4-.2c.1-.2.8-.2,1.1.1Z" transform="translate(-200 -484.9)" fill="#fff"/><path d="M206.5,501.6c-.1,0-.2,0-.2-.1a1.3,1.3,0,0,0,.9-.5h.1a1,1,0,0,1,.8-.4c.2-.1.4-.1.5-.4a1.1,1.1,0,0,1-.7.3h-.5c-.2.2-.4.3-.6.1s.3-.1.5-.3l.4-.2h.5l.5-.3a.6.6,0,0,0,.6-.3h-.9a.3.3,0,0,0-.4,0c0-.2.2-.2.5-.2l.5-.2a1.4,1.4,0,0,1,.9-.1l-.3-.2a1,1,0,0,0-.8-.1h-.3c-.2-.1-.3-.2-.4-.1s.3-.2.5-.1h.3l.7.2h.5a.5.5,0,0,1,.5,0h-.4c0-.2.2-.2.4-.2l.7.2c.2,0,.4.1.3.4a1.3,1.3,0,0,1-1,.9.7.7,0,0,0-.6.3.4.4,0,0,1-.5.1c.2,0,.3-.2.4-.3s.1-.3.3-.3h-.1l-.2.2-.3.2-.4.2a.5.5,0,0,1-.4.2h0c-.2,0-.2.1-.3.2a1,1,0,0,1-.8.4l-.7.2-.5.2Zm2.1-1.5c-.1.3-.3.3-.5.4a1.5,1.5,0,0,0-.8.4h-.1a1.1,1.1,0,0,1-.9.5c0,.1.1.1.2.1l.5-.2.7-.2a1,1,0,0,0,.8-.4c.1-.1.1-.2.3-.2h0a.5.5,0,0,0,.4-.2l.4-.2.3-.2c.1-.2.2-.3.3-.2s-.2.2-.3.3-.2.3-.4.3h.1a.5.5,0,0,0,.4-.2l.6-.2c.4-.1,1-.6,1-.9s-.1-.4-.3-.4l-.7-.2-.4.2h0a.5.5,0,0,1,.4.2.5.5,0,0,0-.5,0h-.5c-.4-.2-.5-.2-.7-.1h-.3c-.2-.1-.5,0-.5.1s.2,0,.4.1h.3a1,1,0,0,1,.8.1.5.5,0,0,0,.4.2h-1l-.5.2c-.3,0-.5,0-.5.2h.4a.3.3,0,0,0,.4,0h.5c-.2.3-.4.3-.6.4a.6.6,0,0,0-.5.2h-.4l-.4.2c-.3.2-.4.3-.6.3h.2l.4-.2.4-.2h0a1.1,1.1,0,0,0,.8-.2Z" transform="translate(-200 -484.9)"/><path d="M211.8,498.3c-.2-.1-.6.1-.8,0s.1.4.3.4l.5-.4Z" transform="translate(-200 -484.9)" fill="#fff"/><path d="M211.3,498.8h0c-.2,0-.3-.3-.3-.4h.3a.4.4,0,0,1,.5,0l-.5.4Zm-.3-.5c0,.1.1.4.3.4l.5-.4H211Z" transform="translate(-200 -484.9)"/><path d="M212.2,497.8c-.4-.2-.5.3-.8.2s.2.3.4.3Z" transform="translate(-200 -484.9)" fill="#fff"/><path d="M211.8,498.3h0a.4.4,0,0,1-.4-.3h.1c.1,0,.2,0,.2-.1a.4.4,0,0,1,.5-.1l-.4.5Zm-.4-.3c.1.1.2.3.4.3l.3-.5h-.4c0,.1-.1.2-.3.1Z" transform="translate(-200 -484.9)"/><path d="M212.4,497.4c-.6-.2-.6.3-.9.2s.5.3.7.2Z" transform="translate(-200 -484.9)" fill="#fff"/><path d="M212,497.9h0a.7.7,0,0,1-.6-.3h.4a.6.6,0,0,1,.6-.1l-.2.4Zm-.6-.3a.8.8,0,0,0,.8.2l.2-.4h-.6c-.1.1-.2.2-.4.1Z" transform="translate(-200 -484.9)"/><path d="M213.1,495.2c-.1-.2-.4-.1-.5.2s.1.5.3.4Z" transform="translate(-200 -484.9)" fill="#fff"/><path d="M212.8,495.9h-.1a.6.6,0,0,1-.1-.4c.1-.3.4-.4.5-.2l-.2.7Zm.1-.8q-.2,0-.3.3a.6.6,0,0,0,.1.4h.2l.2-.6Z" transform="translate(-200 -484.9)"/><path d="M213.5,494.5c-.3,0-.6,0-.5.2a.3.3,0,0,0,.1.5Z" transform="translate(-200 -484.9)" fill="#fff"/><path d="M213.1,495.2h0c-.1-.1-.2-.2-.2-.3s0-.2.1-.2h.5l-.4.7Zm.2-.7H213v.2a.2.2,0,0,0,.2.2l.4-.6Z" transform="translate(-200 -484.9)"/><path d="M213.6,494.4c-.2-.3-.5-.3-.6-.2s-.6.1-.6.3.3,0,.5,0,.2.2.6.1Z" transform="translate(-200 -484.9)" fill="#fff"/><path d="M213.3,494.6H213a.1.1,0,0,0-.1-.1h-.5c0-.1.1-.1.2-.2h.6a.5.5,0,0,1,.4.3v.2Zm-.4-.1h.6v-.2a.5.5,0,0,0-.4-.3H213l-.4.2c-.1,0-.2,0-.2.1s.2,0,.3,0Z" transform="translate(-200 -484.9)"/><path d="M213,498.6h.4a.4.4,0,0,0-.2-.6c-.3-.1-.3.5-.2.6Z" transform="translate(-200 -484.9)" fill="#fff"/><path d="M213.2,498.7H213c0-.1-.1-.4,0-.5s.1-.1.2-.1.2.1.3.3a.4.4,0,0,1-.1.3Zm0-.7c-.1,0-.2,0-.2.1s0,.4.1.5h.3a.2.2,0,0,0,0-.3c0-.2-.1-.3-.2-.3Z" transform="translate(-200 -484.9)"/><path d="M212.8,498.6c.3.1.5-.1.3-.3s-.2.3-.3.3Z" transform="translate(-200 -484.9)" fill="#fff"/><path d="M212.9,498.7h-.1c.1,0,.2-.3.3-.3s.1.1.1.2l-.3.2Zm.2-.4c-.1.1-.2.3-.3.3h.1c.1,0,.2,0,.2-.1s0-.1,0-.2Z" transform="translate(-200 -484.9)"/><path d="M211.5,499.1c0,.2-.3.2-.7.8s-.7.3-.8.7.8-.1,1-.5.8-.4.9-.8,1.2-.5,1.3-1.3a4.5,4.5,0,0,0-1.7,1.1Z" transform="translate(-200 -484.9)" fill="#fff"/><path d="M210,500.6h0c0-.2.1-.2.3-.3s.3-.1.5-.4a1.1,1.1,0,0,1,.6-.6.3.3,0,0,1,.1-.2,5.1,5.1,0,0,1,1.6-1.1h.1a1.3,1.3,0,0,1-.7.9.9.9,0,0,0-.6.4l-.3.4a1.3,1.3,0,0,0-.6.5l-.4.2a.7.7,0,0,0-.6.2Zm3.1-2.6a3.9,3.9,0,0,0-1.5,1.1c-.1,0-.1.1-.2.2a1.1,1.1,0,0,0-.6.6c-.2.3-.4.4-.5.4s-.3.1-.3.3a.7.7,0,0,1,.6-.2c.1-.1.3-.1.4-.3l.6-.4.3-.4a1,1,0,0,1,.5-.4c.4-.2.7-.4.7-.9Z" transform="translate(-200 -484.9)"/><path d="M219.8,491.1c.5.2.5.7.9.9s.6.6,1,.5-.4-.5-.8-.6-.6-.9-.9-1Z" transform="translate(-200 -484.9)" fill="#fff"/><path d="M221.5,492.5l-.3-.2-.5-.3a1,1,0,0,1-.4-.5l-.5-.4h0a1,1,0,0,1,.5.4.8.8,0,0,0,.5.5l.4.3.5.2-.4-.3c-.1-.1-.2-.3-.4-.3a1.2,1.2,0,0,1-.5-.5l-.4-.5.4.5c.2.2.3.4.6.5s.2.1.3.3l.4.3Z" transform="translate(-200 -484.9)"/><path d="M221.8,494c0,.1,0,.4-.2.5s.3,0,.4-.2,0,.8.2.8.2-.4.1-.5.3.3.3.4-.1-.6-.1-.8Z" transform="translate(-200 -484.9)" fill="#fff"/><path d="M222.3,495.1h-.1a.2.2,0,0,1-.2-.2.6.6,0,0,1,0-.6c-.1.2-.3.3-.4.2l.2-.2V494l.7.2c0,.1.1.2.1.3s.2.4,0,.5-.1-.4-.3-.4,0,.1,0,.2a.2.2,0,0,0,0,.3Zm-.3-.8a.6.6,0,0,0,0,.6c.1.1.1.2.2.2a.4.4,0,0,1,.1-.3v-.2c.2,0,.3.3.3.4s.1-.3,0-.5-.1-.2-.1-.3l-.7-.2v.4h-.1c.1,0,.2,0,.3-.2Z" transform="translate(-200 -484.9)"/><path d="M219,496.7c-.2-.3-.3,0-.5-.1a.2.2,0,0,0-.3,0c.2,0,.1.2.6.2s-.4.5-.7.5.5-.2.7-.1.1.1,0,.4.3-.3.3-.5Z" transform="translate(-200 -484.9)" fill="#fff"/><path d="M218.8,497.6h0c.1-.2,0-.3,0-.4h-.3c-.1.1-.2.2-.4,0l.3-.2c0-.1.1-.3.4-.3s-.4,0-.4-.1h-.2c.1-.1.2-.1.4,0h.4v.4c0,.1-.1.5-.3.5Zm0-.5h0c.1.1.1.2,0,.4s.3-.4.3-.5v-.4h-.5c-.1,0-.2-.1-.3,0h.6c-.3.1-.4.2-.4.3s-.1.2-.3.2h.4l.3-.2Z" transform="translate(-200 -484.9)"/><path d="M213.4,499.1c-.1,0-.4-.1-.5,0s-.1.1.1.1.2.2,0,.2-.1.3-.4.3.4.1.6-.1.1.2,0,.4.1-.4.4-.4-.1.3.2.2-.1.3,0,.2-.1.2.1.2-.1-.8-.5-1.1Z" transform="translate(-200 -484.9)" fill="#fff"/><path d="M213.9,500.2h-.2a.2.2,0,0,1-.2-.2h.1c0,.1,0,.2.2.1h-.1v.2h.1c.1,0,.1-.1.1-.3a1.8,1.8,0,0,0-.5-.8c-.1,0-.4-.1-.5,0h.1a.1.1,0,0,1,.1.1H213c-.1,0-.1,0-.1.1s-.1.2-.3.2.4,0,.5-.1.1.1.1.2a.1.1,0,0,1,0,.2v-.2c0-.1-.1-.1-.1-.2s-.4.2-.5.1.2-.1.3-.2,0-.1.1-.1h-.1c.2-.1.4,0,.5,0a1.2,1.2,0,0,1,.5.8v.3Zm-.7-.2h0c.1,0,.1-.1.2-.2s0-.2.2-.2h0c-.2,0-.2.1-.2.2s-.1.2-.2.2Z" transform="translate(-200 -484.9)"/><path d="M224.8,493.3a.7.7,0,1,0-.7-.7.7.7,0,0,0,.7.7Z" transform="translate(-200 -484.9)" fill="#fff"/><path d="M224.8,493.3a.7.7,0,0,1,0-1.4.7.7,0,1,1,0,1.4Zm0-1.4a.7.7,0,1,0,.7.7.7.7,0,0,0-.7-.7Z" transform="translate(-200 -484.9)"/><path d="M221,494.2a.6.6,0,0,1,.8-.1,1.7,1.7,0,0,0,1.4,0c.4-.2.5-.4.7-.3a.5.5,0,0,0,.5.3h.3a1.9,1.9,0,0,0,1.2-.7c.2,0,.2-.3.1-.5s-.1-.6-.6-.4,0,.4.2.5a.3.3,0,0,0-.3.3c0-.2,0-.2-.1-.3a.4.4,0,0,0-.5-.3c.2.1.1.3.2.5h-.2a.9.9,0,0,0-.5-.3h0a.9.9,0,0,1-.1-.5l-.3.5c-.2-.2-.7,0-.9.1a2.4,2.4,0,0,1-1.2-.3,1.9,1.9,0,0,0-.9-.4c-.4-.1-.4-.6-.9-.9a8.4,8.4,0,0,0,1.1,2.7Z" transform="translate(-200 -484.9)" fill="#fff"/><path d="M222.7,494.3l-.9-.2a.6.6,0,0,0-.8.1,8.4,8.4,0,0,1-1.1-2.7l.5.5a.8.8,0,0,0,.4.4,1.9,1.9,0,0,1,.9.4,2.7,2.7,0,0,0,1.2.3h.1a1.1,1.1,0,0,1,.8,0,.9.9,0,0,1,.3-.5.7.7,0,0,0,.1.5h0a.9.9,0,0,1,.5.3l.2-.2a.3.3,0,0,1-.1-.2c0-.1,0-.2-.1-.2h.4a.3.3,0,0,1,.1.2c.1,0,.1.1.1.2s.2-.2.3-.2-.1-.1-.1-.2,0-.3-.1-.3a.1.1,0,0,1,.1-.1c.3,0,.3.2.4.4a.1.1,0,0,0,.1.1.6.6,0,0,1,.1.4h-.2a.7.7,0,0,1-.6.5l-.6.2h-.3a.5.5,0,0,1-.5-.3h-.1l-.5.3h-.1l-.5.2Zm-1.2-.3h.3a1.9,1.9,0,0,0,.9.3l.5-.2h0c.4-.3.5-.4.7-.3l.5.3h.3l.6-.2h0a.6.6,0,0,0,.6-.5h.2a.6.6,0,0,0-.1-.4.1.1,0,0,1-.1-.1c-.1-.2-.2-.4-.5-.3s.1.1.1.3,0,.2.1.2l-.3.2h0a.3.3,0,0,0-.1-.2.3.3,0,0,0-.1-.2h-.4c.1,0,.1.1.1.2v.2l-.2.2-.5-.3h0a.7.7,0,0,1-.1-.5.9.9,0,0,0-.3.5c-.2-.1-.5,0-.7,0h-.2a2.4,2.4,0,0,1-1.2-.3,1.9,1.9,0,0,0-.9-.4c-.2,0-.3-.2-.5-.4a1,1,0,0,0-.4-.5,8.4,8.4,0,0,0,1.1,2.7l.5-.2Z" transform="translate(-200 -484.9)"/><path d="M215.9,498.9a.8.8,0,0,0,.7-.7.7.7,0,1,0-1.4,0,.8.8,0,0,0,.7.7Z" transform="translate(-200 -484.9)" fill="#fff"/><path d="M215.9,498.9a.8.8,0,0,1-.7-.7.7.7,0,1,1,1.4,0,.8.8,0,0,1-.7.7Zm0-1.4a.7.7,0,0,0-.7.7.7.7,0,0,0,.7.6c.3,0,.7-.3.7-.6a.8.8,0,0,0-.7-.7Z" transform="translate(-200 -484.9)"/><path d="M214.2,498.3c.1.2.4.2.5.2s.3.2.4.3h.7l-.4-.2c-.2-.2-.1-.4-.2-.5a.6.6,0,0,0,.1-.4c.1,0,.1-.1.1-.2h.4c.1,0,.4-.1.5.1s-.3-.6-.6-.4H215c.1,0,.1-.2.1-.2l.2-.3c.1,0,.3-.1.4,0a.9.9,0,0,0-.6-.3l-.4.4c-.1.1-.2.4-.1.5s-.2,0-.2.1H214Z" transform="translate(-200 -484.9)" fill="#fff"/><path d="M215.5,498.9h-.6a.2.2,0,0,1-.2-.2c-.1,0-.4,0-.5-.2h0c.1.2.4.2.5.2s.1.2.3.2h.4a.4.4,0,0,1-.1-.3.3.3,0,0,1-.1-.2.6.6,0,0,0,.1-.4c.1,0,.1-.1.1-.2s.4-.1.4-.2h.5a.5.5,0,0,0-.2-.4H215a.1.1,0,0,0,.1-.1h0l.2-.3h.2c.1,0,.1-.1.2,0a.7.7,0,0,0-.6-.3c-.3.1-.3.2-.4.4s-.2.4-.1.5-.2,0-.2.1h.2c-.1-.1,0-.4.1-.5s.2-.4.4-.4a.7.7,0,0,1,.6.3h-.4l-.2.3h1a.5.5,0,0,1,.2.4h-.9c0,.1,0,.2-.1.2a.6.6,0,0,1-.1.4v.2a.4.4,0,0,0,.1.3h.1Z" transform="translate(-200 -484.9)"/><path d="M214.1,497.1c-.1-.1,0-.2,0-.3s0-.4-.2-.4a1.4,1.4,0,0,0,.2.7Z" transform="translate(-200 -484.9)" fill="#fff"/><path d="M214.1,497.1a1.4,1.4,0,0,1-.2-.7c.1,0,.2,0,.2.1s.1.1,0,.3h0c0,.1-.1.2,0,.3Zm-.1-.7a.1.1,0,0,0-.1.1c0,.1.1.4.1.5v-.2h0v-.3a.1.1,0,0,0-.1-.1Z" transform="translate(-200 -484.9)"/><path d="M213.9,496.5s.3.1.3-.1-.1-.4-.3-.3v.4Z" transform="translate(-200 -484.9)" fill="#fff"/><path d="M214,496.5h-.1v-.4h.3v.3c0,.1-.1.1-.2.1Zm.1-.4h-.2v.3h.1c.1,0,.2,0,.2-.2s0-.1-.1-.2Z" transform="translate(-200 -484.9)"/><path d="M213.9,496.1c.1,0,.3.1.4-.1s0-.3-.2-.3a.8.8,0,0,1-.2.4Z" transform="translate(-200 -484.9)" fill="#fff"/><path d="M214.1,496.2h-.2c.1-.1.1-.3.2-.4h.2v.2a.2.2,0,0,1-.2.2Zm0-.4-.2.3h.4v-.2Z" transform="translate(-200 -484.9)"/><path d="M214.1,495.7a.2.2,0,0,0,.4.1.2.2,0,0,0-.1-.4.5.5,0,0,0-.3.3Z" transform="translate(-200 -484.9)" fill="#fff"/><path d="M214.3,495.9h0a.2.2,0,0,1-.2-.2.5.5,0,0,1,.3-.3.2.2,0,0,1,.2.2.4.4,0,0,1-.1.3Zm.1-.5c-.1,0-.2.2-.3.3a.2.2,0,0,0,.2.2h.2c.1,0,.1-.1.1-.2a.2.2,0,0,0-.2-.2Z" transform="translate(-200 -484.9)"/><path d="M214.4,495.4a.4.4,0,0,0,.5.2c.2-.1.1-.4,0-.5l-.5.3Z" transform="translate(-200 -484.9)" fill="#fff"/><path d="M214.7,495.7h0c-.2,0-.3-.3-.3-.3l.5-.3a.4.4,0,0,1,.1.3c0,.1,0,.2-.1.2Zm.2-.6-.5.3s.1.3.3.3h.2c.1,0,.1-.1.1-.2a.4.4,0,0,0-.1-.3Z" transform="translate(-200 -484.9)"/><path d="M214.9,495.1c0,.1,0,.5.4.5s.2-.5.1-.6Z" transform="translate(-200 -484.9)" fill="#fff"/><path d="M215.3,495.6c-.2,0-.3-.1-.3-.2a.4.4,0,0,1-.1-.3h.5c.1.1.2.2.1.4a.2.2,0,0,1-.2.2Zm.1-.5h-.5a.4.4,0,0,0,.1.3c0,.1.1.1.3.1h0c.1,0,.2,0,.2-.1s0-.3-.1-.3Z" transform="translate(-200 -484.9)"/><path d="M215.5,495.1c-.1.1-.2.6.6.5s.3-.6-.6-.5Z" transform="translate(-200 -484.9)" fill="#fff"/><path d="M215.8,495.6h0c-.1,0-.3,0-.3-.1s-.1-.4,0-.4h.1c.5,0,.5.1.6.2a.4.4,0,0,1-.1.3Zm-.2-.5h-.1c-.1,0-.1.2,0,.3l.3.2h.3s.1-.1,0-.3-.1-.2-.5-.2Z" transform="translate(-200 -484.9)"/><path d="M215.9,495.1c-.1.1.1.7.6.6s0-.7-.6-.6Z" transform="translate(-200 -484.9)" fill="#fff"/><path d="M216.4,495.7h0a.5.5,0,0,1-.5-.4c-.1-.1-.1-.2,0-.2h.1c.4,0,.7.2.7.4a.2.2,0,0,1-.2.2Zm-.4-.6h-.1c-.1,0-.1.1,0,.2a.5.5,0,0,0,.5.4h.1c.1-.1.2-.1.2-.2s-.3-.4-.7-.4Z" transform="translate(-200 -484.9)"/><path d="M216.3,495.2c-.1.2,0,.6.6.6s0-.6-.6-.6Z" transform="translate(-200 -484.9)" fill="#fff"/><path d="M216.9,495.9a.9.9,0,0,1-.6-.3c-.1-.2-.1-.3,0-.4s.9.3.9.5-.1.2-.3.2Zm-.6-.7c-.1.1,0,.2,0,.4a.8.8,0,0,0,.6.2c.2,0,.2,0,.2-.1s-.4-.5-.8-.5Z" transform="translate(-200 -484.9)"/><path d="M216.8,495.3c-.1.1-.1.6.6.7s.4-.7-.6-.7Z" transform="translate(-200 -484.9)" fill="#fff"/><path d="M217.4,496h0c.2,0,.3-.1.3-.2s-.1-.2-.2-.3h-.6a.6.6,0,0,1,.6.1c.1.1.2.2.2.3h0c0,.1-.1.2-.3.2Z" transform="translate(-200 -484.9)"/><path d="M217.5,495.6c-.1.1-.2.5.6.5s.2-.5-.6-.5Z" transform="translate(-200 -484.9)" fill="#fff"/><path d="M218.2,496.2h-.1c-.3-.1-.5-.1-.6-.3s0-.3,0-.3.9.2.9.4a.2.2,0,0,1-.2.2Zm-.7-.6s-.1.2,0,.3a.8.8,0,0,0,.6.2h.1c.1,0,.2,0,.2-.1s-.4-.4-.9-.4Z" transform="translate(-200 -484.9)"/><path d="M218.2,495.7c-.1.1,0,.4.2.5s.5-.3.2-.4a.4.4,0,0,0-.4-.1Z" transform="translate(-200 -484.9)" fill="#fff"/><path d="M218.5,496.2h-.1a.2.2,0,0,1-.2-.2.2.2,0,0,1,0-.3s.1-.1.4.1.2.2.2.3Zm-.2-.5h-.1a.2.2,0,0,0,0,.3c0,.1.1.2.3.2h.3c0-.1-.1-.3-.2-.3Z" transform="translate(-200 -484.9)"/><path d="M218.5,495.8c0,.1,0,.5.6.5s.5-.5-.6-.5Z" transform="translate(-200 -484.9)" fill="#fff"/><path d="M219.1,496.3a.7.7,0,0,1-.6-.3v-.2c.6,0,.8.1.8.2a.4.4,0,0,1-.2.3Zm-.6-.5v.2c0,.1.1.2.5.2s.1,0,.1-.2,0-.2-.7-.2Z" transform="translate(-200 -484.9)"/><path d="M214.2,502.6a.8.8,0,0,0,.8-.8.7.7,0,0,0-.8-.8.8.8,0,0,0-.8.8.9.9,0,0,0,.8.8Z" transform="translate(-200 -484.9)" fill="#fff"/><path d="M214.2,502.6a.9.9,0,0,1-.8-.8.8.8,0,0,1,.8-.8.8.8,0,0,1,.9.8.9.9,0,0,1-.9.8Zm0-1.6a.8.8,0,0,0-.8.8.9.9,0,0,0,.8.8.8.8,0,0,0,.8-.8.7.7,0,0,0-.8-.8Z" transform="translate(-200 -484.9)"/><path d="M220.2,490.7c0,.1-.2.3-.2.3s.5,1.5.9,2.4a2.6,2.6,0,0,1-.2,2.4l-.4.6a.6.6,0,0,0-.2.5c.2,0,.4.1.4.2h.3c.2-.1.4-.1.5.1h.4c.1-.1.3-.2.4-.1s.2-.4.3-.3a.4.4,0,0,1,.4-.4.8.8,0,0,1,.8.1c-.4-.1-.4.3-.6.2a.4.4,0,0,1-.3.4c.1,0,.2-.1.3,0s.3-.1.3,0,.3,0,.4.1.3.4.1.7-.2-.3-.2-.3h-.4c0,.1-.3.2-.5,0a.4.4,0,0,1-.4.4c.1.1,0,.4-.2.5a.2.2,0,0,1,.1.4c.3.1.1.3.5.5a.5.5,0,0,1-.7-.3.5.5,0,0,1-.4-.5c-.2-.1-.2-.4.1-.6s-.4-.2-.7-.1-.5,0-.5-.2-.5.1-.5-.1-.4,0-.4-.2-.4-.1-.4-.3-.2-.1-.2-.2-.1-.2,0-.4-.1-.2,0-.4a.2.2,0,0,1,0-.3,12.8,12.8,0,0,1-2.6-.7c-2.2-.6-2.8,1-2.3,1.9s-.1,1.4.1,2.3.3.2.3.4.2.1.2.3h.3c0-.1.3-.2.4,0a.4.4,0,0,1,.4.4.6.6,0,0,1-.1.8c.1-.1,0-.2,0-.3s-.2-.2-.2-.4H215a.8.8,0,0,1,.2.5c0,.1,0,.4-.1.5s-.2.2-.4.2a.8.8,0,0,0,.2-.4c-.1,0-.1-.1-.1-.2l-.6-.2a.8.8,0,0,0-.8.8c0-.2-.2-.3-.2-.5s.1-.7.6-.8.1-.3,0-.5a3.3,3.3,0,0,0-.6-.8,1.2,1.2,0,0,0,.1-1c-.2-.3-.3-.2-.9.4s-2,.6-3,1.3-.6.2-.3-.1a6,6,0,0,1,1.6-.8,4.2,4.2,0,0,0,2.1-2.8c.7-3.6,3.4-2.4,5.1-1.8s1.4-.8.5-1.6a1.9,1.9,0,0,1-.3-2.5c.9-.1,2.4.1,2.1.4Z" transform="translate(-200 -484.9)" fill="#fff"/><path d="M214.9,501.8h-.2a.8.8,0,0,0,.2-.4c-.1,0-.1-.2-.1-.2h-.1l-.5-.2a.8.8,0,0,0-.8.8.3.3,0,0,0-.1-.2.4.4,0,0,1-.1-.3.4.4,0,0,1,0-.5.6.6,0,0,1,.6-.3.1.1,0,0,1,0-.2c0-.1.1-.2,0-.3a3.3,3.3,0,0,0-.6-.8,1.2,1.2,0,0,0,.1-1c-.2-.4-.3-.2-.9.4a3,3,0,0,1-1.7.8,3.5,3.5,0,0,0-1.3.5c-.2.1-.4.2-.4.1a.3.3,0,0,1,.1-.2l1.1-.6.5-.2a3.7,3.7,0,0,0,2-2.8c.4-1.7,1.2-2.5,2.5-2.5a7.7,7.7,0,0,1,2.6.7h.1l.7.2h0a.5.5,0,0,0,.5-.3,2,2,0,0,0-.7-1.5,1.8,1.8,0,0,1-.3-2.5,4.3,4.3,0,0,1,2.2.3h-.1c0,.1-.2.3-.2.4s.1,1,.5,1.5l.4.8a2.6,2.6,0,0,1-.2,2.4c-.1.1-.2.2-.2.3l-.2.3a.6.6,0,0,0-.2.5h.1c.2,0,.3.1.3.2h.3c.2-.1.4-.1.5.1h.5a.2.2,0,0,1,.3-.1v-.2h.3a.4.4,0,0,1,.1-.3h.3a.8.8,0,0,1,.8.1H223c0,.2,0,.3-.1.3h.1c0-.1.3-.1.3,0a.2.2,0,0,1,.4.1.5.5,0,0,1,.2.4.5.5,0,0,1-.1.3c0-.2-.1-.2-.1-.3h-.5c0,.1-.4.2-.5.1a.4.4,0,0,1-.4.3c.1.1,0,.4-.2.5a.2.2,0,0,1,.1.4l.2.2q0,.2.3.3h-.2c-.2,0-.5-.1-.5-.3a.5.5,0,0,1-.4-.5.4.4,0,0,1-.1-.3c0-.1,0-.2.1-.2h-.2c-.1-.1-.2-.2-.4-.1s-.4,0-.5-.1h0c-.1.1-.5.1-.5-.1s-.3,0-.4-.1h0c-.1.1-.3,0-.4-.1v-.2a.2.2,0,0,1-.2-.2c-.1-.1-.1-.2,0-.4s-.1-.2,0-.4a.4.4,0,0,1-.1-.3l-2.5-.6-1-.2a1.5,1.5,0,0,0-1.3.6,1.7,1.7,0,0,0,0,1.4,1.8,1.8,0,0,1,.1,1.4,2.7,2.7,0,0,0,0,.9c.2,0,.3.2.3.4h.1c.1.1.1.1.1.3h.3c0-.2.3-.2.4,0h.3a.4.4,0,0,1,.1.3.8.8,0,0,1,0,.8v-.3h0c0-.1,0-.2-.1-.2h0c.1,0,.1.1.2.2h0v.3a.6.6,0,0,0,0-.7c0-.2,0-.3-.1-.4h-.3c-.1-.2-.4-.1-.4,0h-.3a.4.4,0,0,0-.1-.3h-.1c0-.2-.1-.4-.3-.4a2.7,2.7,0,0,1,0-.9,1.8,1.8,0,0,0-.1-1.4,1.4,1.4,0,0,1,0-1.4,1.5,1.5,0,0,1,1.3-.6h1a7.8,7.8,0,0,0,2.6.6c-.1.2-.1.3,0,.4s-.1.3,0,.4-.1.3,0,.4a.2.2,0,0,0,.2.2c0,.1,0,.2.1.2s.2.1.3.1h.4c0,.2.4.2.5.1h.5c.2-.1.3,0,.4.1h.2c-.1,0-.1.1-.1.2a.4.4,0,0,0,.1.3.5.5,0,0,0,.4.5.5.5,0,0,0,.7.3q-.3-.2-.3-.3h-.2c.1-.2.1-.4-.1-.5s.3-.4.2-.5a.4.4,0,0,0,.4-.4h.2c.2,0,.3,0,.3-.1s.2.1.4,0,0,.1.1.1.1.1.1.3a.5.5,0,0,0,.1-.3c-.1-.2-.1-.3-.2-.4s-.2-.2-.4-.1-.3-.1-.3,0h-.2a.5.5,0,0,0,.2-.4h.6a.6.6,0,0,0-.8,0c-.1-.1-.2,0-.3.1s-.1.1-.1.2h-.3v.2h-.8c-.1-.2-.3-.2-.5-.1h-.3c0-.1-.2-.2-.4-.2a.6.6,0,0,1,.2-.5l.2-.3c0-.1.1-.2.1-.3a2.4,2.4,0,0,0,.3-2.4l-.4-.8a1.7,1.7,0,0,1-.5-1.6s.2-.2.2-.3h.1c-.1-.2-1-.3-1.7-.3h-.5c-.6.8-.5,1.6.4,2.5a1.8,1.8,0,0,1,.6,1.5.5.5,0,0,1-.5.3h0l-.7-.2h-.1a7.7,7.7,0,0,0-2.6-.7c-1.3,0-2.1.8-2.4,2.5a4,4,0,0,1-2.1,2.8l-.5.2-1.1.6a.3.3,0,0,0-.1.2h.4a3.5,3.5,0,0,1,1.3-.5,3.2,3.2,0,0,0,1.7-.9c.6-.5.7-.7.9-.3a1.7,1.7,0,0,1,0,1l.6.8a.4.4,0,0,1-.1.3v.2a.5.5,0,0,0-.5.3.7.7,0,0,0-.1.5c0,.1.1.2.1.3s.1.1.1.2a.8.8,0,0,1,.8-.8l.6.2s0,.2.1.2a.4.4,0,0,1-.2.4h.2l.2-.2c.1-.1.1-.4.1-.5a.8.8,0,0,0-.2-.5h0a.8.8,0,0,1,.2.5c.1.1,0,.4-.1.5l-.2.2Z" transform="translate(-200 -484.9)"/><path d="M223.2,499.6a.9.9,0,0,0,0-1.8.9.9,0,1,0,0,1.8Z" transform="translate(-200 -484.9)" fill="#fff"/><path d="M223.2,499.6a.9.9,0,1,1,0-1.8.9.9,0,1,1,0,1.8Zm0-1.8a.9.9,0,0,0,0,1.8.9.9,0,0,0,0-1.8Z" transform="translate(-200 -484.9)"/><path d="M220.4,496.3a4.1,4.1,0,0,0-.4-3.9,1.6,1.6,0,0,1-.3-1.6h0a1.6,1.6,0,0,0,.3,1.6,4.1,4.1,0,0,1,.4,3.9Z" transform="translate(-200 -484.9)"/><path d="M220.8,495.2h0c.1,0,.2-.1.2-.3s-.1.3-.2.3Z" transform="translate(-200 -484.9)"/><path d="M220.8,494.9h.2c0-.1.1-.1.1-.2s-.1.1-.1.2l-.2.2Z" transform="translate(-200 -484.9)"/><path d="M220.8,494.3h0c0-.1.1-.2.1-.3s.1-.1.1-.2,0,.2-.1.2-.1.2-.1.3Z" transform="translate(-200 -484.9)"/><path d="M220.7,493.7h0v-.2a.1.1,0,0,0,0-.2c.1.1,0,.2,0,.3Z" transform="translate(-200 -484.9)"/><path d="M220.5,493.1h0v0a.1.1,0,0,0-.1.1Z" transform="translate(-200 -484.9)"/><path d="M220.3,492.7h0v0Z" transform="translate(-200 -484.9)"/><path d="M220,492.2h0c.1-.1.1-.1.1-.2s0,.1-.1.2Z" transform="translate(-200 -484.9)"/><path d="M219.9,491.8Z" transform="translate(-200 -484.9)"/><path d="M214.1,501.9v-.2h0c0,.1-.1.1-.1.2Z" transform="translate(-200 -484.9)"/><path d="M214.5,502.1h-.1c0-.1,0-.2.1-.2h-.1a.2.2,0,0,0-.2.2h0a.2.2,0,0,1,.2-.2h.1c-.1,0-.1.1-.1.2Z" transform="translate(-200 -484.9)"/><path d="M215.9,498.4a.4.4,0,0,1-.1-.3.3.3,0,0,1,.1-.2h0c0,.1-.1.1-.1.2a.4.4,0,0,0,.1.3Z" transform="translate(-200 -484.9)"/><path d="M216.2,498.3H216V498h0a.1.1,0,0,0,0,.2h.2v0h-.2a.1.1,0,0,0,.1.1Z" transform="translate(-200 -484.9)"/><path d="M223.2,499.1a1.1,1.1,0,0,1-.1-.5c.1-.1.3-.2.4-.1h0c-.1,0-.3,0-.3.1a.4.4,0,0,0,0,.5.5.5,0,0,1,.2-.4h0a.5.5,0,0,0-.2.4Z" transform="translate(-200 -484.9)"/><path d="M223.6,499.1a.2.2,0,0,1-.2-.2h.1c0,.1,0,.1.1.1a.1.1,0,0,0,.1-.1.3.3,0,0,1-.1.2Z" transform="translate(-200 -484.9)"/><path d="M225,492.6c-.2,0-.4-.1-.4-.2h0l.5.2Z" transform="translate(-200 -484.9)"/><path d="M225.1,492.5h-.2c-.1-.1-.1-.1-.1-.2a.1.1,0,0,0,.1.1h0a.1.1,0,0,1-.1-.1c0,.1.1.1.1.2Z" transform="translate(-200 -484.9)"/><path d="M214.7,498.5h0a.1.1,0,0,1,0-.2h.2c0-.1.1-.1.3.1h-.5v.2Z" transform="translate(-200 -484.9)"/><path d="M215.1,497.1h0Z" transform="translate(-200 -484.9)" fill="none"/><path d="M215.4,497.6h0Z" transform="translate(-200 -484.9)"/><path d="M215.1,497.9h0Z" transform="translate(-200 -484.9)"/><path d="M213.6,501.3a.4.4,0,0,1-.1-.3h0c0,.1.1.2.1.3Z" transform="translate(-200 -484.9)"/><path d="M213.8,501.1c0-.1,0-.3.1-.3h0a.4.4,0,0,0-.1.3Z" transform="translate(-200 -484.9)"/><path d="M214.7,501.1h0c-.1-.1-.1-.1-.1-.2h0c0-.1,0-.2.1-.2s.1-.1.3,0h-.3c-.1,0-.1.1-.1.2h0a.3.3,0,0,0,.1.2Z" transform="translate(-200 -484.9)"/><path d="M213.8,500.5Z" transform="translate(-200 -484.9)"/><path d="M214.9,500.4c0-.1,0-.2.1-.2h0v.2Z" transform="translate(-200 -484.9)"/><path d="M215.3,500.3c0-.1,0-.1.1-.1h0c-.1,0-.1,0-.1.1Z" transform="translate(-200 -484.9)"/><path d="M214.7,497.8a.5.5,0,0,0-.3-.3h0a.3.3,0,0,1,.3.3Z" transform="translate(-200 -484.9)"/><path d="M215.3,496.8h0c-.2,0-.3-.1-.3-.2h0c0,.1.1.2.3.2Z" transform="translate(-200 -484.9)"/><path d="M215.8,497.4c-.1,0-.1-.1-.1-.2h0c0,.1,0,.2.1.2Z" transform="translate(-200 -484.9)"/><path d="M215.1,498.8h.1a.1.1,0,0,0-.1.1Z" transform="translate(-200 -484.9)"/><path d="M215.5,500.7h0l.2-.2h-.2Z" transform="translate(-200 -484.9)"/><path d="M214.8,501.2h0a.2.2,0,0,1,.1-.3l.3.2-.3-.2c0,.1-.1.1-.1.3Z" transform="translate(-200 -484.9)"/><path d="M213.2,501.3h0c0-.1,0-.1.1-.2h0c0,.1-.1.1-.1.2Z" transform="translate(-200 -484.9)"/><path d="M223,496.9h-.2c-.1-.1,0-.1,0-.2h.2Z" transform="translate(-200 -484.9)"/><path d="M222.4,497h0Z" transform="translate(-200 -484.9)" fill="none"/><path d="M223.6,497.7c-.1,0-.1-.2,0-.2s0-.1.1-.1h0c-.1,0-.1,0-.1.1s-.1.2,0,.2Z" transform="translate(-200 -484.9)"/><path d="M222,499.2h0c0-.1.1-.1.2-.1H222Z" transform="translate(-200 -484.9)"/><path d="M221.7,498.1Z" transform="translate(-200 -484.9)"/><path d="M221.6,498.7h0c0-.1.1-.2.1-.3s-.1.2-.1.3Z" transform="translate(-200 -484.9)"/><path d="M222.2,497.6c-.1,0-.1-.2-.1-.3h0v.3Z" transform="translate(-200 -484.9)"/><path d="M223.2,497.4h0Z" transform="translate(-200 -484.9)"/><path d="M223.2,497.7h0Z" transform="translate(-200 -484.9)" fill="none"/><path d="M225,493.3h.1v-.2h0v.2Z" transform="translate(-200 -484.9)"/><path d="M225.7,493.2h0Z" transform="translate(-200 -484.9)"/><path d="M225.3,494Z" transform="translate(-200 -484.9)"/><path d="M225.8,493.6a.1.1,0,0,1-.1-.1.1.1,0,0,0,.2,0h-.1Z" transform="translate(-200 -484.9)"/><path d="M224.4,494.1Z" transform="translate(-200 -484.9)"/><path d="M224.2,493.1h0Z" transform="translate(-200 -484.9)" fill="none"/><path d="M225.2,493.6s0-.2.1-.2h0a.3.3,0,0,1-.1.2Z" transform="translate(-200 -484.9)"/><path d="M224.5,493.9l-.3-.2h0c.1.1.3.2.4.1Z" transform="translate(-200 -484.9)"/><path d="M224.6,493.6c0-.1,0-.2.1-.2h0c-.1,0-.1.1-.1.2Z" transform="translate(-200 -484.9)"/><path d="M218.4,492.7Z" transform="translate(-200 -484.9)"/><path d="M213.2,498.1a.6.6,0,0,0-.2-.5h0c.2.1.2.3.2.5Z" transform="translate(-200 -484.9)"/><path d="M220.3,492.3h-.1c.1,0,.2.1.3,0Z" transform="translate(-200 -484.9)"/><path d="M220.5,492.7c.1,0,.1-.2.1-.3h.1c0,.1,0,.3-.2.3Z" transform="translate(-200 -484.9)"/><path d="M220.7,492.7h-.1c.1,0,.4,0,.4-.2s-.2.2-.3.2Z" transform="translate(-200 -484.9)"/><path d="M220.8,493.1a.3.3,0,0,0,.1-.2v-.2h0v.2a.3.3,0,0,1-.1.2Z" transform="translate(-200 -484.9)"/><path d="M221.1,492.9h.2c.1,0,.1-.1.1-.2s0,.2-.1.2Z" transform="translate(-200 -484.9)"/><path d="M221.7,493.1c-.2,0-.4-.1-.4-.2h0c.1.1.3.2.4.1s.1,0,.1-.1,0,.1-.1.1Z" transform="translate(-200 -484.9)"/><path d="M220.9,493.3h-.1c.2,0,.3,0,.3-.1s.1-.1.1-.3,0,.3-.1.3-.1.1-.2.1Z" transform="translate(-200 -484.9)"/><path d="M222,493.2h.2v.2Z" transform="translate(-200 -484.9)"/><path d="M222.4,493.4h0c-.1,0-.3-.1-.3-.2h.5c.1-.1,0-.1,0-.2s.1.1,0,.2Z" transform="translate(-200 -484.9)"/><path d="M222.7,493.4h.2c.1,0,.1-.1,0-.2s.1.2,0,.3Z" transform="translate(-200 -484.9)"/><path d="M223.2,493.4h.1a.3.3,0,0,0,.1-.2l-.2-.2.2.2c0,.1,0,.2-.1.2Z" transform="translate(-200 -484.9)"/><path d="M223.6,493.3h.1l.2-.2a.1.1,0,0,0-.1-.1c.1,0,.1,0,.1.1a.2.2,0,0,1-.2.2Z" transform="translate(-200 -484.9)"/><path d="M221.3,493.2h.1a.1.1,0,0,0,.1-.1.1.1,0,0,1-.1.1Z" transform="translate(-200 -484.9)"/><path d="M221.7,493.4h-.1c-.1-.1-.2-.1-.2-.3h0l.2.2a.2.2,0,0,0,.3-.1.2.2,0,0,1-.2.2Z" transform="translate(-200 -484.9)"/><path d="M222,493.5a.2.2,0,0,1-.2-.2h0l.3.2.2-.2-.2.2Z" transform="translate(-200 -484.9)"/><path d="M222.4,493.6h0c-.1-.1-.2-.1-.2-.2h0c0,.1.1.1.2.1s.2,0,.2-.1a.2.2,0,0,1-.2.2Z" transform="translate(-200 -484.9)"/><path d="M222.8,493.7l-.3-.2h0c.1.1.2.2.3.1s.3,0,.3-.2a.3.3,0,0,1-.3.3Z" transform="translate(-200 -484.9)"/><path d="M223.2,493.6h.2c0-.1.1-.2.1-.3s0,.2-.1.3Z" transform="translate(-200 -484.9)"/><path d="M223.6,493.6h-.2a.3.3,0,0,0,.4,0q.1,0,0-.3c.1.2.1.3,0,.4Z" transform="translate(-200 -484.9)"/><path d="M223.8,493.8h0c.1,0,.1-.1.1-.2v0c0,.1,0,.2-.1.2Z" transform="translate(-200 -484.9)"/><path d="M221,493.8h0c.1-.1.2-.2.2-.3a.4.4,0,0,0-.1-.3c.1.1.2.2.1.4l-.2.2Z" transform="translate(-200 -484.9)"/><path d="M221.4,493.6h.1l.2-.3c0,.2-.1.2-.2.3Z" transform="translate(-200 -484.9)"/><path d="M221.4,494a.3.3,0,0,0,0-.4h0a.3.3,0,0,1,0,.4Z" transform="translate(-200 -484.9)"/><path d="M221.9,494.1a.2.2,0,0,0,0-.3c0-.1-.2-.1-.4,0h0c.2-.1.4,0,.4.1a.2.2,0,0,1,0,.3Z" transform="translate(-200 -484.9)"/><path d="M221.8,493.7h0a.2.2,0,0,0,.2-.2.2.2,0,0,1-.2.2Z" transform="translate(-200 -484.9)"/><path d="M222.4,494.2h.1a.2.2,0,0,0-.2-.2h0a.2.2,0,0,1,.2.2Z" transform="translate(-200 -484.9)"/><path d="M222.3,493.9c.1-.1.2-.1.2-.2l-.2-.2h0l.2.2c0,.1,0,.1-.2.2Z" transform="translate(-200 -484.9)"/><path d="M223,494.2c.1-.1.1-.1,0-.1s-.4-.2-.5,0h0a.5.5,0,0,1,.5,0c.1.1.1.2,0,.2Z" transform="translate(-200 -484.9)"/><path d="M223.4,494h-.2c-.1,0-.2,0-.3.2h0c0-.1.1-.2.3-.2h.2Z" transform="translate(-200 -484.9)"/><path d="M222.7,494a.5.5,0,0,0,.1-.3h0a.5.5,0,0,1-.1.3Z" transform="translate(-200 -484.9)"/><path d="M223.2,493.8c.1,0,.1-.1.1-.2h0c0,.1,0,.2-.1.2Z" transform="translate(-200 -484.9)"/><path d="M223.6,493.9a.2.2,0,0,0,0-.3h0s.1.2,0,.3Z" transform="translate(-200 -484.9)"/><path d="M219.4,491.6h-.2c0-.1-.1-.2-.1-.4h0c0,.2.1.3.2.3s.2.1.3,0Z" transform="translate(-200 -484.9)"/><path d="M219.4,491.9h-.2c-.1-.1-.1-.2,0-.4h.1a.4.4,0,0,0-.1.3.5.5,0,0,0,.5-.1Z" transform="translate(-200 -484.9)"/><path d="M218.9,491.8h.2a.4.4,0,0,0,0-.5.4.4,0,0,1,0,.5Z" transform="translate(-200 -484.9)"/><path d="M219.6,492.2h-.1c-.1-.1-.1-.1-.1-.3h0c0,.2,0,.2.1.3h.1Z" transform="translate(-200 -484.9)"/><path d="M218.8,492.1h-.1c-.2-.1-.3-.2-.3-.4h0c0,.2.1.3.3.4h.1Z" transform="translate(-200 -484.9)"/><path d="M219.1,492.5H219c-.2-.1-.3-.2-.3-.4h.1c0,.2.1.3.2.3s.4,0,.4-.2a.3.3,0,0,1-.3.3Z" transform="translate(-200 -484.9)"/><path d="M219.6,492.7h0a.5.5,0,0,1-.4-.3h.1c0,.2.2.2.3.2s.3,0,.4-.2a.5.5,0,0,1-.4.3Z" transform="translate(-200 -484.9)"/><path d="M219.2,492.1h-.1q-.2,0-.3-.3h0l.3.3h.1Z" transform="translate(-200 -484.9)"/><path d="M218.1,492H218a.2.2,0,0,1-.2-.2h0a.2.2,0,0,0,.2.2c.1.1.3,0,.4-.1l-.3.2Z" transform="translate(-200 -484.9)"/><path d="M218.2,492.2H218a.2.2,0,0,1,0-.3h0a.2.2,0,0,0,0,.3,1,1,0,0,0,.6-.2c-.2.2-.3.2-.4.2Z" transform="translate(-200 -484.9)"/><path d="M218.5,492.6h-.1c-.1,0-.2-.2-.2-.4h0c0,.2.1.4.2.4s.3,0,.5-.2-.3.2-.4.2Z" transform="translate(-200 -484.9)"/><path d="M219,492.8l-.4-.2h0l.4.2.3-.2-.3.2Z" transform="translate(-200 -484.9)"/><path d="M219.8,493h-.2c-.1-.1-.1-.2-.1-.4h0c0,.2.1.3.1.4h.2l.4-.2a.5.5,0,0,1-.4.2Z" transform="translate(-200 -484.9)"/><path d="M220,493.4h-.1a.5.5,0,0,1-.2-.4h0a.5.5,0,0,0,.2.4h.1Z" transform="translate(-200 -484.9)"/><path d="M220.3,493.8H220a.4.4,0,0,1-.1-.3h0a.4.4,0,0,0,.1.3.7.7,0,0,0,.6.1Z" transform="translate(-200 -484.9)"/><path d="M219.1,493.1H219a.4.4,0,0,1-.1-.3h0a.4.4,0,0,0,.1.3.6.6,0,0,0,.5-.2l-.4.2Z" transform="translate(-200 -484.9)"/><path d="M219.4,493.4h-.1c-.1,0-.2-.2-.2-.3h0c0,.1.1.3.2.3a.6.6,0,0,0,.5-.2l-.4.2Z" transform="translate(-200 -484.9)"/><path d="M219.6,493.8h-.2c-.1-.1-.1-.2-.1-.4h0c0,.2,0,.3.1.4s.4,0,.5-.2l-.3.2Z" transform="translate(-200 -484.9)"/><path d="M218.7,493.1Z" transform="translate(-200 -484.9)"/><path d="M218.9,493.4Z" transform="translate(-200 -484.9)"/><path d="M219.2,493.9h0Z" transform="translate(-200 -484.9)"/><path d="M219.7,494.1l-.3-.2h0l.3.2h0c.2,0,.4-.1.4-.3s-.2.3-.4.3Z" transform="translate(-200 -484.9)"/><path d="M220.5,494.3a.4.4,0,0,1-.4-.3h0a.4.4,0,0,0,.6.3Z" transform="translate(-200 -484.9)"/><path d="M220.4,494.6h-.2a.3.3,0,0,1,0-.4h0a.3.3,0,0,0,0,.4c.1.1.3,0,.5-.1Z" transform="translate(-200 -484.9)"/><path d="M220.7,495h-.3a.4.4,0,0,1-.1-.3h0v.3Z" transform="translate(-200 -484.9)"/><path d="M219.9,494.6c-.1,0-.2,0-.2-.1a.5.5,0,0,1-.2-.4h.1c-.1.2,0,.3.1.4a.4.4,0,0,0,.5,0Z" transform="translate(-200 -484.9)"/><path d="M219.3,494.3h0Z" transform="translate(-200 -484.9)"/><path d="M220,495a.1.1,0,0,1-.1-.1c-.1,0-.2-.2-.2-.4h.1c-.1.2,0,.4.1.4a.2.2,0,0,0,.4-.1l-.3.2Z" transform="translate(-200 -484.9)"/><path d="M219.6,494.7h-.2l-.2-.3h0l.2.3h.2Z" transform="translate(-200 -484.9)"/><path d="M220.6,495.6l-.2-.3c0-.1.1-.2.2-.3h0c-.1.1-.2.2-.2.3l.2.3Z" transform="translate(-200 -484.9)"/><path d="M220.4,495.3c-.2,0-.3-.1-.3-.4h0c0,.3.1.4.3.4Z" transform="translate(-200 -484.9)"/><path d="M219.9,495.3c-.1,0-.2,0-.2-.1s-.1-.2.1-.4h0c-.2.2-.2.3-.1.4s.2.1.4,0Z" transform="translate(-200 -484.9)"/><path d="M220.2,495.6h-.1a.2.2,0,0,1-.1-.3h0c0,.1,0,.3.1.3s.3,0,.4-.1Z" transform="translate(-200 -484.9)"/><path d="M219.6,495.1c-.1,0-.2,0-.2-.1a.6.6,0,0,1-.1-.4h.1a.3.3,0,0,0,0,.4c0,.1.1.1.2.1Z" transform="translate(-200 -484.9)"/><path d="M219.2,494.7H219a.3.3,0,0,1-.1-.2h0c0,.1.1.1.1.2h.2Z" transform="translate(-200 -484.9)"/><path d="M219.2,495.1H219v-.3h.1a.2.2,0,0,0,0,.3c0,.1.2.1.3,0Z" transform="translate(-200 -484.9)"/><path d="M220.5,496h-.2a.2.2,0,0,1,0-.3h0v.3Z" transform="translate(-200 -484.9)"/><path d="M220.2,496.5c-.1-.1-.2-.2-.2-.3a.3.3,0,0,1,.3-.3h0c-.2.1-.2.2-.3.3s.1.2.2.3Z" transform="translate(-200 -484.9)"/><path d="M220.1,496a.2.2,0,0,1-.2-.2c0-.1.1-.2.1-.3h0a.3.3,0,0,0-.1.2c.1.1.1.2.2.2Z" transform="translate(-200 -484.9)"/><path d="M218.8,495.1h-.2a.6.6,0,0,1,.1-.4h0a.3.3,0,0,0,0,.4c0,.1.2.1.3,0Z" transform="translate(-200 -484.9)"/><path d="M219.8,495.7h-.2c-.1-.2,0-.3.1-.4h0c-.1.1-.2.2-.1.4h.2Z" transform="translate(-200 -484.9)"/><path d="M219.5,495.5c-.1,0-.2,0-.2-.1s-.1-.2,0-.4h0c-.1.1-.1.3,0,.3s.1.1.3.1Z" transform="translate(-200 -484.9)"/><path d="M218.5,495.1h-.2c0-.1-.1-.2-.1-.3a.2.2,0,0,1,.2-.2h0c-.1,0-.1.1-.1.2s0,.2,0,.3Z" transform="translate(-200 -484.9)"/><path d="M218.1,495h-.2a.4.4,0,0,1,0-.5h0a.4.4,0,0,0,0,.5h.2Z" transform="translate(-200 -484.9)"/><path d="M219.1,495.9h-.2v-.3c0-.1.2-.2.3-.3h0c-.1,0-.3.1-.3.2a.4.4,0,0,0,.1.3h.2c.1,0,.3-.1.3-.4s-.1.4-.3.4Z" transform="translate(-200 -484.9)"/><path d="M219,495.6l-.3-.2a.4.4,0,0,1,.1-.3h0a.3.3,0,0,0-.1.2l.3.3Z" transform="translate(-200 -484.9)"/><path d="M218.6,495.8c-.1-.2,0-.3.2-.4h0c-.2.1-.3.2-.2.4Z" transform="translate(-200 -484.9)"/><path d="M218.6,495.6c-.2-.1-.2-.2-.2-.5h0c0,.3,0,.4.2.5Z" transform="translate(-200 -484.9)"/><path d="M218.2,495.7c-.1-.1-.1-.1,0-.2s.1-.1.2-.1h0c-.1,0-.2,0-.2.1s-.1.1,0,.2Z" transform="translate(-200 -484.9)"/><path d="M218.2,495.5l-.2-.2a.2.2,0,0,1,0-.3c0,.1-.1.2,0,.3l.2.2Z" transform="translate(-200 -484.9)"/><path d="M217.6,495.6c0-.2.1-.3.4-.3h0c-.3,0-.4.1-.4.3Z" transform="translate(-200 -484.9)"/><path d="M217.7,494.9h-.3v-.3l.2-.2h0c0,.1-.1.1-.1.2a.2.2,0,0,0,0,.3h.2Z" transform="translate(-200 -484.9)"/><path d="M217.3,494.6h-.2a.3.3,0,0,1,0-.4h0a.3.3,0,0,0,0,.4h.2Z" transform="translate(-200 -484.9)"/><path d="M216.9,494.5l-.2-.2a.2.2,0,0,1,0-.3h0a.2.2,0,0,0,0,.3c.1.1.2.2.4.1Z" transform="translate(-200 -484.9)"/><path d="M217.1,495.5a.4.4,0,0,1,.1-.3c.2-.1.3,0,.5.2a.6.6,0,0,0-.5-.2c0,.1-.1.2-.1.3Z" transform="translate(-200 -484.9)"/><path d="M217.4,495.2a.6.6,0,0,1,.1-.4h0c-.1,0-.1.2-.1.3Z" transform="translate(-200 -484.9)"/><path d="M216.5,494.3h-.3v-.4h.1c-.1.2-.1.3,0,.4s.2.1.4.1Z" transform="translate(-200 -484.9)"/><path d="M217.2,495.2a.5.5,0,0,1,0-.6h0a.5.5,0,0,0,0,.6Z" transform="translate(-200 -484.9)"/><path d="M217,495.4c-.2,0-.3-.2-.2-.3s.1-.2.3-.2h0c-.2,0-.3,0-.3.2s0,.3.2.3Z" transform="translate(-200 -484.9)"/><path d="M216.8,494.9c-.1,0-.1-.1-.1-.2s0-.2.1-.3h0a.4.4,0,0,0-.1.3c0,.1,0,.2.1.2Z" transform="translate(-200 -484.9)"/><path d="M216.4,495.3a.3.3,0,0,1,.1-.2.2.2,0,0,1,.3,0h0c-.1-.1-.2,0-.3,0a.3.3,0,0,0-.1.2Z" transform="translate(-200 -484.9)"/><path d="M216,495.2c0-.2.1-.3.2-.3s.3,0,.3.2h0c-.1-.2-.2-.3-.3-.2s-.2.1-.2.3Z" transform="translate(-200 -484.9)"/><path d="M216.3,494.9a.4.4,0,0,1,.4-.2h0a.4.4,0,0,0-.4.2Z" transform="translate(-200 -484.9)"/><path d="M216.4,494.7h-.1c-.1-.1,0-.2,0-.3h0v.3Z" transform="translate(-200 -484.9)"/><path d="M216.1,494.1c-.1,0-.2,0-.2-.1s-.1-.1-.1-.2h.1c-.1.1-.1.1,0,.2s.1.1.3.1Z" transform="translate(-200 -484.9)"/><path d="M216.2,494.4h-.3V494h0v.2h.3Z" transform="translate(-200 -484.9)"/><path d="M216.1,494.9l-.2-.3a.3.3,0,0,1,.1-.2h0a.3.3,0,0,0-.1.2l.2.3Z" transform="translate(-200 -484.9)"/><path d="M215.7,495.1c-.1-.1-.1-.2,0-.4h0a.3.3,0,0,0,0,.4Z" transform="translate(-200 -484.9)"/><path d="M215.7,494.3c-.1,0-.2,0-.2-.1s-.1-.1,0-.2.1-.2.2-.3h0c-.1.1-.2.2-.2.3v.2a.3.3,0,0,0,.4,0Z" transform="translate(-200 -484.9)"/><path d="M215.7,494.7a.2.2,0,0,1-.2-.2.4.4,0,0,1,.1-.3h0c-.1,0-.1.1-.1.2a.2.2,0,0,0,.2.2Z" transform="translate(-200 -484.9)"/><path d="M215.2,494.1h0l-.3-.2v-.2h0v.2l.3.2h.3v0Z" transform="translate(-200 -484.9)"/><path d="M215.4,494.5h-.2a.2.2,0,0,1,0-.3h0a.2.2,0,0,0,0,.3c0,.1.1.1.3.1Z" transform="translate(-200 -484.9)"/><path d="M215.3,495.1c-.1-.1-.1-.2,0-.2h0c-.1,0-.1.1,0,.2Z" transform="translate(-200 -484.9)"/><path d="M215.3,494.9a.4.4,0,0,1-.1-.5h0c-.1.1,0,.3.1.4Z" transform="translate(-200 -484.9)"/><path d="M215,495.1v-.2h0v.2Z" transform="translate(-200 -484.9)"/><path d="M214.7,495.2c-.1-.1-.1-.1,0-.2s.2-.1.3-.1h0c-.1,0-.3,0-.3.1v.2Z" transform="translate(-200 -484.9)"/><path d="M214.5,495.3c-.1,0-.1-.1-.1-.2h0c0,.1,0,.2.1.2Z" transform="translate(-200 -484.9)"/><path d="M214.2,495.5h0l.2-.2h0l-.2.2Z" transform="translate(-200 -484.9)"/><path d="M215,494.9c0-.1-.1-.2,0-.3a.2.2,0,0,1,.2-.2h0a.2.2,0,0,0-.2.2v.3Z" transform="translate(-200 -484.9)"/><path d="M215,494.6a.3.3,0,0,1-.3-.3.5.5,0,0,1,.2-.4h0a.5.5,0,0,0-.2.4l.3.3Z" transform="translate(-200 -484.9)"/><path d="M214.7,495a.3.3,0,0,0-.1-.2l.2-.3h0a.4.4,0,0,0-.1.3v.2Z" transform="translate(-200 -484.9)"/><path d="M214.7,494.2c-.2,0-.3-.1-.3-.2s0-.2.1-.2h0c-.1,0-.1.1-.1.2s.1.2.3.2Z" transform="translate(-200 -484.9)"/><path d="M214.3,494.3h-.1l-.2-.2c0-.1.1-.1.1-.2h.1c-.1.1-.1.1-.1.2v.2h.1Z" transform="translate(-200 -484.9)"/><path d="M214.6,494.7h-.2c-.1-.1,0-.2,0-.3h0v.3h.2Z" transform="translate(-200 -484.9)"/><path d="M214.5,495c-.1,0-.2,0-.3-.2s.1-.2.2-.3h0c-.1.1-.2.2-.1.3a.2.2,0,0,0,.2.2Z" transform="translate(-200 -484.9)"/><path d="M213.9,494.5h0l-.2-.2a.1.1,0,0,1,.1-.1h0a.1.1,0,0,0-.1.1h.4a.2.2,0,0,1-.2.2Z" transform="translate(-200 -484.9)"/><path d="M213.6,494.8c-.1,0-.2,0-.2-.1h0c0,.1.1.1.2.1s.2-.1.3-.4-.2.4-.3.4Z" transform="translate(-200 -484.9)"/><path d="M214.2,494.7c-.1,0-.2-.1-.2-.3h0a.3.3,0,0,0,.3.3Z" transform="translate(-200 -484.9)"/><path d="M214.2,495.4c-.2-.1-.2-.2-.2-.3s.1-.2.3-.3h0c-.2,0-.3.1-.3.2l.2.3Z" transform="translate(-200 -484.9)"/><path d="M213.9,495h-.2v-.2h0v.2h.1Z" transform="translate(-200 -484.9)"/><path d="M214,495.8h-.1a.3.3,0,0,1,.3-.3h0c-.2,0-.3.1-.3.2l.2.2Z" transform="translate(-200 -484.9)"/><path d="M214,496.1c-.2,0-.2-.1-.2-.2a.4.4,0,0,1,.1-.3.4.4,0,0,0-.1.3.2.2,0,0,0,.2.2Z" transform="translate(-200 -484.9)"/><path d="M213.8,496.3h-.1v-.2a.2.2,0,0,1,.2-.2h0a.2.2,0,0,0-.2.2.3.3,0,0,1,.1.2h.1Z" transform="translate(-200 -484.9)"/><path d="M213.8,496.7h-.1q-.1,0,0-.3a.2.2,0,0,0,0,.3h.1Z" transform="translate(-200 -484.9)"/><path d="M213.8,497h-.1c-.1-.1-.1-.2,0-.4h0c-.1.2,0,.3,0,.4h.1Z" transform="translate(-200 -484.9)"/><path d="M213.9,497.2h-.1c-.1,0-.1-.1-.1-.2h0c0,.1,0,.2.1.2s.2.1.3,0Z" transform="translate(-200 -484.9)"/><path d="M213.3,495.1h-.1c-.1-.1-.1-.1,0-.2h0c-.1,0,0,0,0,.1h.2c.1,0,.1-.1.2-.3s-.1.3-.2.3Z" transform="translate(-200 -484.9)"/><path d="M213.2,495.5h-.1a.4.4,0,0,1-.1-.3h0c0,.1,0,.2.1.2a.2.2,0,0,0,.3,0,.4.4,0,0,0,.1-.3.4.4,0,0,1-.1.3Z" transform="translate(-200 -484.9)"/><path d="M213.6,495.3h.2a.4.4,0,0,0,.1-.3.4.4,0,0,1-.1.3Z" transform="translate(-200 -484.9)"/><path d="M213.9,495.6l-.2-.3h0c.1.1.2.2.2.3Z" transform="translate(-200 -484.9)"/><path d="M213.7,495.8l-.2-.2c-.1,0-.1-.1-.1-.2h0c0,.1,0,.2.1.2l.3.2Z" transform="translate(-200 -484.9)"/><path d="M213.6,496.1h-.2c-.1-.2,0-.3,0-.4h0c0,.1-.1.2,0,.3a.2.2,0,0,0,.2.2Z" transform="translate(-200 -484.9)"/><path d="M213.1,495.9H213c-.1,0-.2-.1-.1-.1h0a.1.1,0,0,0,.1.1c.1.1.2.1.4-.1l-.3.2Z" transform="translate(-200 -484.9)"/><path d="M212.9,496.2h0c.1,0,.2-.1.3-.4s-.2.4-.3.4Z" transform="translate(-200 -484.9)"/><path d="M213.3,496.3h0a.2.2,0,0,1-.2-.2h.5l-.3.2Z" transform="translate(-200 -484.9)"/><path d="M213.5,496.6h-.1a.4.4,0,0,1-.1-.3h0a.4.4,0,0,0,.1.3.1.1,0,0,0,.2,0c0,.1,0,.1-.1.1Z" transform="translate(-200 -484.9)"/><path d="M213.2,496.5H213a.4.4,0,0,1-.1-.3h0c0,.1.1.2.2.3h.1Z" transform="translate(-200 -484.9)"/><path d="M213,496.7h-.1c-.1,0-.2-.1-.2-.3h0c0,.2.1.3.2.3s.2.1.3-.1a.2.2,0,0,1-.2.2Z" transform="translate(-200 -484.9)"/><path d="M213.4,496.9h-.1l-.2-.3h0a.2.2,0,0,0,.2.2h.1Z" transform="translate(-200 -484.9)"/><path d="M212.7,496.9h.3c0,.1-.1.1-.2.2Z" transform="translate(-200 -484.9)"/><path d="M213.1,497.1H213c-.1-.1-.2-.1-.2-.2h0c0,.1.1.1.2.1h.3a.2.2,0,0,1-.2.2Z" transform="translate(-200 -484.9)"/><path d="M213.5,497.2h-.1c-.1-.1-.2-.1-.2-.2h0l.2.2h.1Z" transform="translate(-200 -484.9)"/><path d="M214.1,497.6H214a.5.5,0,0,1-.2-.4h.1c-.1.2,0,.3.1.4h.1Z" transform="translate(-200 -484.9)"/><path d="M213.7,497.6h-.2a.4.4,0,0,1-.1-.3h0a.4.4,0,0,0,.1.3c.1,0,.3.1.4,0Z" transform="translate(-200 -484.9)"/><path d="M213.2,497.4h-.1c-.1,0-.2-.1-.1-.3h0c0,.2,0,.3.1.3h.1Z" transform="translate(-200 -484.9)"/><path d="M212.8,497.3c-.1,0-.2,0-.2-.1h0a.3.3,0,0,0,.4,0Z" transform="translate(-200 -484.9)"/><path d="M212.4,497.6h-.1c0,.1.1.1.2.1l.2-.3c0,.1-.1.3-.2.3Z" transform="translate(-200 -484.9)"/><path d="M212.9,497.6h.1l.2-.2c-.1.2-.2.2-.2.2Z" transform="translate(-200 -484.9)"/><path d="M213.3,497.8h0a.2.2,0,0,1-.2-.2h0a.2.2,0,0,0,.2.2q.1,0,.3-.3c-.1.3-.2.3-.3.3Z" transform="translate(-200 -484.9)"/><path d="M214.3,497.9h-.2v-.2h0v.2Z" transform="translate(-200 -484.9)"/><path d="M214,497.8h-.2a.3.3,0,0,1-.1-.2h.1a.1.1,0,0,0,0,.2h.2Z" transform="translate(-200 -484.9)"/><path d="M214.3,498.2h-.2v-.3h0a.4.4,0,0,0,.1.3h.1Z" transform="translate(-200 -484.9)"/><path d="M214.2,498.4h-.1v-.2h.1c-.1,0-.1.1-.1.2h.1Z" transform="translate(-200 -484.9)"/><path d="M214.2,498.7a.2.2,0,0,1-.2-.2c-.1,0,0-.2.1-.2h0c-.1,0-.1.2-.1.2a.2.2,0,0,0,.2.2Z" transform="translate(-200 -484.9)"/><path d="M213.7,498h0c-.1-.1-.2-.1-.2-.3h0c0,.2.1.2.2.2s.2,0,.2-.1a.2.2,0,0,1-.2.2Z" transform="translate(-200 -484.9)"/><path d="M214,498.2h-.2c0-.1-.1-.2,0-.3h0v.3h.2Z" transform="translate(-200 -484.9)"/><path d="M213.9,500h0v-.2h-.1c0-.1.1-.1.1,0v.2Z" transform="translate(-200 -484.9)"/><path d="M214,499.8h0c0-.2-.1-.2-.2-.2h-.1c0-.1.1-.2.1-.1s.2,0,.2.2Z" transform="translate(-200 -484.9)"/><path d="M213.8,499.6h-.1c.1-.1.1-.1,0-.1s0-.1-.1-.1a.1.1,0,0,0-.1.1.1.1,0,0,1,.1-.1h.2Z" transform="translate(-200 -484.9)"/><path d="M213.6,499.4h-.1c0-.1,0-.1-.1-.1h.2Z" transform="translate(-200 -484.9)"/><path d="M213.5,499.2h-.1c0-.1.1,0,.1,0Z" transform="translate(-200 -484.9)"/><path d="M213.7,499.5h0c.1,0,0-.1,0-.1s-.1-.1-.2-.1.2,0,.2.1.1.1,0,.2Z" transform="translate(-200 -484.9)"/><path d="M214.6,500.2a.2.2,0,0,1-.2-.2c-.1-.1-.1-.1,0-.2h0v.2c0,.1.1.1.2.1h0Z" transform="translate(-200 -484.9)"/><path d="M214.3,500.2h-.1a.1.1,0,0,1,0-.2h0c-.1,0-.1.1,0,.2Z" transform="translate(-200 -484.9)"/><path d="M214,500.2h0Z" transform="translate(-200 -484.9)"/><path d="M214.2,499.9h0Z" transform="translate(-200 -484.9)"/><path d="M214.1,498.9h-.2c0-.1,0-.2.1-.2h0c-.1,0-.1.1,0,.2h.1Z" transform="translate(-200 -484.9)"/><path d="M214.1,499.1h-.2v-.3h.1a.4.4,0,0,0-.1.3h.2Z" transform="translate(-200 -484.9)"/><path d="M214.1,499.4H214c-.1-.1-.1-.2,0-.2h0v.2h.1Z" transform="translate(-200 -484.9)"/><path d="M213.7,499.3h0Z" transform="translate(-200 -484.9)"/><path d="M214,498.5h-.2a.1.1,0,0,1,0-.2h0v.2Z" transform="translate(-200 -484.9)"/><path d="M213.9,498.8l-.2-.2c-.1-.1,0-.2.1-.2h0c-.1,0-.1.1-.1.2l.2.2Z" transform="translate(-200 -484.9)"/><path d="M213.9,499.1h-.2c0-.1,0-.2.1-.2h0c-.1,0-.1.1-.1.2h.2Z" transform="translate(-200 -484.9)"/><path d="M213.8,499.2h0Z" transform="translate(-200 -484.9)"/><path d="M213.5,499.1c0-.1.1-.1.2-.1h0s-.2,0-.2.1Z" transform="translate(-200 -484.9)"/><path d="M213.7,499c0-.2-.1-.2-.2-.2h-.1s0-.1.1,0,.2,0,.2.2Z" transform="translate(-200 -484.9)"/><path d="M213.6,498.8a.1.1,0,0,1,.1-.1h0a.1.1,0,0,0-.1.1Z" transform="translate(-200 -484.9)"/><path d="M213.8,498.4c-.2,0-.3-.1-.3-.2a.4.4,0,0,1,.1-.3h0a.4.4,0,0,0-.1.3c0,.1.1.2.3.2Z" transform="translate(-200 -484.9)"/><path d="M213.4,498.6h-.1c0-.1.1-.1.2-.1h0c-.1,0-.1,0-.1.1Z" transform="translate(-200 -484.9)"/><path d="M213.4,498.2Z" transform="translate(-200 -484.9)"/><path d="M212.6,497.9h-.2a.1.1,0,0,1,0-.2h0v.2h.4v0h-.2Z" transform="translate(-200 -484.9)"/><path d="M212.8,498.2h-.1c-.1-.1-.1-.2,0-.2h0c-.1,0-.1.1,0,.2h.1Z" transform="translate(-200 -484.9)"/><path d="M213.2,497.8c-.1-.1-.3,0-.4,0h0a.3.3,0,0,1,.4,0Z" transform="translate(-200 -484.9)"/><path d="M212.3,497.9h0Z" transform="translate(-200 -484.9)"/><path d="M212.5,498.1h-.1c0-.1-.1-.1-.1-.2h.1v.2h.1Z" transform="translate(-200 -484.9)"/><path d="M212.5,498.5c-.1,0-.1,0-.1-.1s-.1-.1,0-.2h.3v.2h0c0-.1,0-.1-.1-.1h-.2c-.1.1-.1.2,0,.2a.1.1,0,0,0,.1.1Z" transform="translate(-200 -484.9)"/><path d="M212.2,498.2h-.1c-.1,0-.1-.1-.1-.2h0c0,.1,0,.2.1.2h.1Z" transform="translate(-200 -484.9)"/><path d="M211.9,498.4h-.1a.1.1,0,0,1,0-.2h.3v-.2a.1.1,0,0,1,0,.2h-.2Z" transform="translate(-200 -484.9)"/><path d="M211.7,498.6c-.1,0-.1,0-.1-.1s-.1-.1,0-.1h0c0,.1,0,.1.1.1h.1c.1-.1.1-.1.1-.2v.2Z" transform="translate(-200 -484.9)"/><path d="M212.2,498.5h0c-.1,0-.1-.1-.1-.2h0v.2h0Z" transform="translate(-200 -484.9)"/><path d="M212.4,498.2h0Z" transform="translate(-200 -484.9)" fill="none"/><path d="M211.5,498.7Z" transform="translate(-200 -484.9)"/><path d="M212.3,498.7h-.1s-.1-.1,0-.1h.1Z" transform="translate(-200 -484.9)"/><path d="M212,498.7Z" transform="translate(-200 -484.9)"/><path d="M212,498.9h0a.1.1,0,0,1-.1-.1h.1c-.1,0,0,.1,0,.1h0Z" transform="translate(-200 -484.9)"/><path d="M214.2,499.6h-.1a.3.3,0,0,1-.1-.2h.1c-.1,0,0,.1,0,.1a.2.2,0,0,0,.3,0Z" transform="translate(-200 -484.9)"/><path d="M214.3,499.8c-.1,0-.1-.1-.1-.2h0c0,.1,0,.2.1.2Z" transform="translate(-200 -484.9)"/><path d="M214,499.8h0c0-.1,0-.1.1-.1h0c-.1,0-.1,0-.1.1Z" transform="translate(-200 -484.9)"/><path d="M213.9,499.6h-.1a.1.1,0,0,1,.1-.1h.1a.1.1,0,0,1-.1.1Z" transform="translate(-200 -484.9)"/><path d="M220,496.8a.1.1,0,0,1-.1-.1.4.4,0,0,1-.1-.3h0a.4.4,0,0,0,.1.3h.1Z" transform="translate(-200 -484.9)"/><path d="M220,497h-.1v-.2h0c0,.1,0,.2.1.2s.1.1.1,0,0,.1-.1.1Z" transform="translate(-200 -484.9)"/><path d="M220.3,497.3l-.2-.2v-.2h.4l-.2.2Z" transform="translate(-200 -484.9)"/><path d="M220.7,497.4h-.2c0-.1-.1-.1-.1-.2h0c0,.1.1.1.1.2h.3c0-.1.1-.1,0-.2s0,.1,0,.2Z" transform="translate(-200 -484.9)"/><path d="M221.1,497.5h.1c.1,0,.1-.1.1-.2s0,.2-.1.2Z" transform="translate(-200 -484.9)"/><path d="M221.5,497.6h-.3c.1.1.3.2.4.1s.1-.1.1-.2,0,.2-.1.2Z" transform="translate(-200 -484.9)"/><path d="M219.7,495.9h0Z" transform="translate(-200 -484.9)"/><path d="M219.1,496.3a.1.1,0,0,1-.1-.1h.2a.4.4,0,0,0,.1-.3h0a.1.1,0,0,1,.1.1l-.2.3Z" transform="translate(-200 -484.9)"/><path d="M219.4,496.2h.2c0-.1.1-.2.1-.3s-.1.2-.1.3Z" transform="translate(-200 -484.9)"/><path d="M219.9,496.3c-.1,0-.2,0-.2-.1h.2Z" transform="translate(-200 -484.9)"/><path d="M219.1,496.7h0l.2-.2c0-.1,0-.2-.1-.2h0a.4.4,0,0,1,.1.3.2.2,0,0,1-.2.2Z" transform="translate(-200 -484.9)"/><path d="M219.4,496.4h.1a.2.2,0,0,0,.2-.2.2.2,0,0,1-.2.2Z" transform="translate(-200 -484.9)"/><path d="M219.8,496.6c-.2,0-.2-.1-.2-.2h0c0,.1.1.1.2.2Z" transform="translate(-200 -484.9)"/><path d="M219.5,496.7h0a.2.2,0,0,0,.2-.2.2.2,0,0,1-.2.2Z" transform="translate(-200 -484.9)"/><path d="M219.8,496.9h-.1a.1.1,0,0,1-.1-.1h0a.1.1,0,0,0,.1.1h.1Z" transform="translate(-200 -484.9)"/><path d="M219.1,497h.1s.1-.2,0-.3,0,.3,0,.3Z" transform="translate(-200 -484.9)"/><path d="M219.2,497.3h.1a.4.4,0,0,0-.1-.3c.1.1.2.2.1.3a.1.1,0,0,1-.1.1Z" transform="translate(-200 -484.9)"/><path d="M219.6,497.5h0a.3.3,0,0,0-.3-.3.3.3,0,0,1,.3.3Z" transform="translate(-200 -484.9)"/><path d="M220,497.7h0c0-.1-.1-.3-.4-.2s.4.1.4.2Z" transform="translate(-200 -484.9)"/><path d="M220.5,497.8h0a.1.1,0,0,0-.1-.1c0-.1-.2-.2-.4-.1s.4-.1.4,0a.3.3,0,0,1,.1.2Z" transform="translate(-200 -484.9)"/><path d="M220.7,498h.1c0-.1.1-.1,0-.2s-.1-.1-.3-.1.3,0,.3.1.1.1,0,.2Z" transform="translate(-200 -484.9)"/><path d="M221,498h0a.1.1,0,0,0,.1-.1h-.3c.3-.1.3,0,.4,0a.2.2,0,0,1-.2.2Z" transform="translate(-200 -484.9)"/><path d="M221.4,498h0c.1,0,0,.1,0,.1Z" transform="translate(-200 -484.9)"/><path d="M219.3,496.9h.2a.3.3,0,0,0,.1-.2.3.3,0,0,1-.1.2Z" transform="translate(-200 -484.9)"/><path d="M219.5,497.2h0a.2.2,0,0,0,0-.3h0a.4.4,0,0,1,.1.3Z" transform="translate(-200 -484.9)"/><path d="M219.6,497.1h0c.1,0,.2,0,.3-.2l-.3.2Z" transform="translate(-200 -484.9)"/><path d="M219.7,497.4c.1-.1.1-.3,0-.3h0c.1,0,.1.2,0,.3Z" transform="translate(-200 -484.9)"/><path d="M219.8,497.2h.1l.2-.2-.2.2Z" transform="translate(-200 -484.9)"/><path d="M220,497.6a.3.3,0,0,0,.1-.2v-.2h0a.4.4,0,0,1,.1.3.3.3,0,0,1-.1.2Z" transform="translate(-200 -484.9)"/><path d="M220.1,497.4Z" transform="translate(-200 -484.9)"/><path d="M220.5,497.7a.2.2,0,0,0-.1-.3h0a.2.2,0,0,1,.1.3Z" transform="translate(-200 -484.9)"/><path d="M220.5,497.6h0c.1,0,.3,0,.3-.2s-.2.2-.3.2Z" transform="translate(-200 -484.9)"/><path d="M220.9,497.8a.4.4,0,0,0-.1-.3h0c.1.1.2.2.1.3Z" transform="translate(-200 -484.9)"/><path d="M220.9,497.7h0a.2.2,0,0,0,.2-.2c0,.1,0,.2-.2.2Z" transform="translate(-200 -484.9)"/><path d="M221.3,497.8a.2.2,0,0,0-.2-.2h0a.2.2,0,0,1,.2.2Z" transform="translate(-200 -484.9)"/><path d="M221.3,497.8h.2l-.2.2Z" transform="translate(-200 -484.9)"/><path d="M221.5,498h-.1a.2.2,0,0,0,.2-.2c.1,0,.1-.1.1-.2h0v.3Z" transform="translate(-200 -484.9)"/><path d="M219.4,491.3h-.3s-.1-.1.1-.3a.2.2,0,0,0,0,.3.3.3,0,0,0,.4,0h0c0,.1-.1.1-.2.1Z" transform="translate(-200 -484.9)"/><path d="M219.5,491l-.4-.2c0-.1,0-.2.2-.3s-.2.2-.2.3a.6.6,0,0,0,.6.1h-.2Z" transform="translate(-200 -484.9)"/><path d="M219.1,491c-.2,0-.3-.2-.2-.3s.1-.4.3-.4h0a.3.3,0,0,0-.3.3c-.1.1,0,.3.2.3Z" transform="translate(-200 -484.9)"/><path d="M218.2,490.8H218v-.2h.1c-.1,0,0,.1,0,.2h.4a.6.6,0,0,0,0-.6.6.6,0,0,1,0,.6Z" transform="translate(-200 -484.9)"/><path d="M218,491.2h-.2V491h0a.3.3,0,0,0,.1.2h.3c.1-.1.2-.2.1-.4s0,.3-.1.4Z" transform="translate(-200 -484.9)"/><path d="M218,491.6h-.2a.1.1,0,0,0,.1.1h.3c.1-.1.1-.2.1-.4s0,.4-.1.4-.1.1-.2.1Z" transform="translate(-200 -484.9)"/><path d="M218.7,491.2l-.4-.2h0c.1,0,.2.2.5.2Z" transform="translate(-200 -484.9)"/><path d="M218.7,490.7h0Z" transform="translate(-200 -484.9)"/><path d="M211.4,498.8h-.1s-.1.1,0,.1,0,.1.1.1a.1.1,0,0,0,.1-.1.1.1,0,0,1-.1.1Z" transform="translate(-200 -484.9)"/><path d="M211.2,498.9h-.1a.1.1,0,0,1,.1-.1h0a.1.1,0,0,0-.1.1Z" transform="translate(-200 -484.9)"/><path d="M211.1,499H211c0,.1,0,.1.1.1a.1.1,0,0,0,.1-.1.1.1,0,0,1-.1.1Z" transform="translate(-200 -484.9)"/><path d="M210.9,499.1h0a.1.1,0,0,1-.1-.1h.1c-.1,0-.1,0-.1.1a.1.1,0,0,0,.1.1h0Z" transform="translate(-200 -484.9)"/><path d="M210.7,499.2h-.1c0-.1,0-.1.1-.1h0c-.1,0-.1,0-.1.1Z" transform="translate(-200 -484.9)"/><path d="M211.7,498.8h0c-.1,0-.1,0-.1-.1h0c0,.1,0,.1.1.1h.2c0,.1-.1.1-.2.1Z" transform="translate(-200 -484.9)"/><path d="M211.8,499h-.1v-.2h0v.2h.1Z" transform="translate(-200 -484.9)"/><path d="M211.5,498.9Z" transform="translate(-200 -484.9)"/><path d="M211.6,499.1h-.1v-.2h0c0,.1.1.1.2.1Z" transform="translate(-200 -484.9)"/><path d="M211.4,499.1a829303603243.1,829303603243.1,0,0,0-.2-.2h.1c.1,0,.1.1.2,0a.1.1,0,0,1-.1.1Z" transform="translate(-200 -484.9)"/><path d="M211.4,499.2h0Z" transform="translate(-200 -484.9)"/><path d="M211.2,499.2h-.1c0-.1-.1-.1-.1-.2h.1c-.1.1,0,.1,0,.1h.1Z" transform="translate(-200 -484.9)"/><path d="M211.1,499.3c-.1,0-.1,0-.1-.1h0a.1.1,0,0,0,.1.1Z" transform="translate(-200 -484.9)"/><path d="M211,499.2h0Z" transform="translate(-200 -484.9)"/><path d="M210.5,499.3h0c0-.1-.1-.1-.1-.2h.1Z" transform="translate(-200 -484.9)"/><path d="M210.3,499.4h0a.3.3,0,0,1-.1-.2h0a.1.1,0,0,0,.1.1c.1.1.1,0,.2-.1s-.1.2-.2.2Z" transform="translate(-200 -484.9)"/><path d="M210.8,499.4h0c0-.1,0-.1.1-.1h0c-.1,0-.1,0-.1.1Z" transform="translate(-200 -484.9)"/><path d="M210.7,499.3h0a.1.1,0,0,1-.1-.1h0a.1.1,0,0,0,.1.1h0Z" transform="translate(-200 -484.9)"/><path d="M210.6,499.4h-.1v-.2h0Z" transform="translate(-200 -484.9)"/><path d="M210.3,499.5h0c-.1.1-.1.1,0,.1s0,.1.1.1Z" transform="translate(-200 -484.9)"/><path d="M210.4,499.3h0Z" transform="translate(-200 -484.9)" fill="none"/><path d="M210.1,499.5a.1.1,0,0,1-.1-.1h0s0,.1.2,0a.1.1,0,0,1-.1.1Z" transform="translate(-200 -484.9)"/><path d="M209.8,499.5h-.1a.1.1,0,0,1,.1-.1h0Z" transform="translate(-200 -484.9)"/><path d="M210,499.6h0a.1.1,0,0,0,.1.1Z" transform="translate(-200 -484.9)"/><path d="M209.8,499.6Z" transform="translate(-200 -484.9)"/><path d="M209.6,499.6h0Z" transform="translate(-200 -484.9)"/><path d="M209.6,499.7h0c-.1,0,0-.1,0-.1h0Z" transform="translate(-200 -484.9)"/><path d="M209.4,499.7h0Z" transform="translate(-200 -484.9)"/><path d="M209.4,499.8h0c-.1,0,0-.1,0-.1h0Z" transform="translate(-200 -484.9)"/><path d="M209.2,499.8Z" transform="translate(-200 -484.9)"/><path d="M209.2,500h0Z" transform="translate(-200 -484.9)"/><path d="M214,500.4h.1v-.2c.1.1.1.1,0,.2Z" transform="translate(-200 -484.9)"/><path d="M214.2,500.3h.1a.1.1,0,0,1,.1-.1.1.1,0,0,1-.1.1Z" transform="translate(-200 -484.9)"/><path d="M219.9,489.1c-.4-.2-1.3-.6-1.5-.2a1.6,1.6,0,0,1,1.4.5Z" transform="translate(-200 -484.9)" fill="#fff"/><path d="M219.8,489.4h0a1.6,1.6,0,0,0-1.4-.5c.2-.3,1,0,1.5.2v.3Zm-1.2-.6a1.9,1.9,0,0,1,1.2.6v-.3l-1.2-.3h-.1Z" transform="translate(-200 -484.9)"/><path d="M220.2,489.1c-.5-.5-.8-.4-1.1-.6s-.9-.2-1,.1.9.1,1.2.1a1.4,1.4,0,0,1,.7.5Z" transform="translate(-200 -484.9)" fill="#fff"/><path d="M220,489.2h0a1.8,1.8,0,0,0-.7-.5H219a1,1,0,0,0-.9,0c0-.2.2-.3.4-.3l.6.2h.3a1.5,1.5,0,0,1,.8.5Zm-1.6-.7h.9a1.3,1.3,0,0,1,.7.5h.2l-.8-.5h-.9a.4.4,0,0,0-.4.2Z" transform="translate(-200 -484.9)"/><path d="M222,489.1c-.2-.6-.8-.5-1-.7a1.7,1.7,0,0,0-1.6-.5c.8,0,1.1.6,1.6.8s.6.5,1,.4Z" transform="translate(-200 -484.9)" fill="#fff"/><path d="M221.8,489.1h0a.9.9,0,0,1-.6-.3H221l-.4-.3a2.2,2.2,0,0,0-1.2-.5c.3-.2,1.2.1,1.6.5h.3c.3.1.6.2.7.5s-.1.1-.2.1Zm-2.3-1.2a1.9,1.9,0,0,1,1.1.5l.4.3h.2c.2.1.4.3.6.3h0c.1,0,.2,0,.2-.1a.8.8,0,0,0-.7-.4l-.3-.2c-.4-.4-1.3-.7-1.6-.5Z" transform="translate(-200 -484.9)"/><path d="M221.1,489c-.5-.5-1.1-1-1.4-.8s.5.3.8.4.1.5.6.4Z" transform="translate(-200 -484.9)" fill="#fff"/><path d="M220.9,489h-.2l-.2-.3-.3-.2-.5-.2h.1c.4,0,.9.5,1.3.9Zm-1.2-.8.5.2.3.2.2.2c.1.2.1.2.4.2s-1.1-1-1.4-.8Z" transform="translate(-200 -484.9)"/><path d="M219,489.9c-.4-.1-1.3-.2-1.7.3s1.7,0,1.7-.3Z" transform="translate(-200 -484.9)" fill="#fff"/><path d="M218,490.3h-.7a1.3,1.3,0,0,1,1-.4h.7c0,.3-.5.4-1,.4Zm.3-.5a1.3,1.3,0,0,0-1,.4h.7c.4,0,1,0,1-.3Z" transform="translate(-200 -484.9)"/><path d="M218.9,490.1c-.4-.2-.8.1-1.2.1s-1.4-.1-1.5.3,1.3,0,1.6-.1a5.5,5.5,0,0,1,1.8.1c-.1-.2-.4-.3-.7-.4Z" transform="translate(-200 -484.9)" fill="#fff"/><path d="M216.2,490.6h0a1,1,0,0,1,.9-.4h1.1c.2,0,.5-.1.7,0h.2l.6.3a6.2,6.2,0,0,0-1.9-.1h-.9l-.7.2Zm2-.3,1.4.2c-.1-.2-.3-.2-.5-.3h-.2c-.2-.1-.5,0-.7,0h-.5c-.9-.1-1.4,0-1.4.3a.8.8,0,0,1,.6-.2h1.3Z" transform="translate(-200 -484.9)"/><path d="M220.3,488.9c-.1-.3-.1-.7.5-.7s-.6-.2-.7.4-1.2-.5-1.3-.1.7-.1,1.3.5Z" transform="translate(-200 -484.9)" fill="#fff"/><path d="M220.1,489h0c-.6-.6-1-.8-1.3-.5s.7-.3,1.3.1a.5.5,0,0,1,.4-.5h.2l-.3.2a.4.4,0,0,0,0,.5Zm-1-.6a1.8,1.8,0,0,1,1,.6h.2a.7.7,0,0,1,.1-.5c0-.1.1-.2.3-.2h-.2a.5.5,0,0,0-.4.5c-.6-.4-1.2-.5-1.3-.1s.1-.1.3-.1Z" transform="translate(-200 -484.9)"/><path d="M219.6,489.4c-.4-.2-.8-.5,0-.7s-.8-.1-.8.5-1.5-.2-1.6.1.4.6.4.4-.4-.1-.2-.3,1.1,0,2,.4,1,.1.2-.4Z" transform="translate(-200 -484.9)" fill="#fff"/><path d="M219.7,489.9h-.4a3.7,3.7,0,0,0-1.6-.5h-.3c-.1.1-.1.1,0,.2h.2c0,.2-.3.1-.4,0s-.1-.2-.1-.4.9-.4,1.7-.1,0-.3.1-.4a.6.6,0,0,1,.7-.1l-.5.2c0,.2.3.4.5.5s.4.3.3.4Zm-2-.6a4.5,4.5,0,0,1,1.7.5h.5c0-.1,0-.2-.3-.4s-.5-.3-.5-.5l.5-.2a.6.6,0,0,0-.7.1c-.1.1-.1.2-.1.4s-1.5-.2-1.6.1-.1.3,0,.3.4.3.4.1h-.3c0-.1,0-.1.1-.2Z" transform="translate(-200 -484.9)"/><path d="M219.3,490c-.2-.5-1-.1-1.2-.6s1.2.4,1.2.6Z" transform="translate(-200 -484.9)" fill="#fff"/><path d="M219.3,490h0c0-.1-.2-.1-.4-.1h-.1c-.3,0-.6,0-.7-.2v-.3c.1.3.3.3.6.3s.5,0,.6.3Zm-.4-.1h.4c-.1-.2-.4-.2-.6-.2s-.5,0-.6-.3v.3c.1.2.4.2.7.2Z" transform="translate(-200 -484.9)"/><path d="M224.5,490.5c.2.1.3,0,.1-.1s.3-.1,0-.2.4,0,.1-.1a.8.8,0,0,0-.2.4Z" transform="translate(-200 -484.9)" fill="#fff"/><path d="M224.6,490.6h0a.1.1,0,0,1-.1-.1.8.8,0,0,1,.2-.4h.1c0,.1,0,.1-.1.1h0c0,.1,0,.1-.1.1Zm.1-.5a.8.8,0,0,0-.2.4h.1a.1.1,0,1,0,0-.2h.1a.1.1,0,0,0,.1-.1Z" transform="translate(-200 -484.9)"/><path d="M224.6,489.6c.4-.4,0-.6.4-1s.1-.5.5-.8l.4-.4c.1.4-.5.4-.5,1s-.2.4-.3,1-.1.5-.5.2Z" transform="translate(-200 -484.9)" fill="#fff"/><path d="M224.9,489.7h-.3a.6.6,0,0,0,.2-.5.6.6,0,0,1,.2-.5c.2-.2.2-.3.2-.4s.1-.3.3-.4.3-.3.3-.4,0,.3-.1.4a.9.9,0,0,0-.3.6c0,.2,0,.3-.1.4a.8.8,0,0,0-.2.6c0,.1-.1.3-.2.3Zm.9-2.3c0,.1-.2.3-.3.4s-.2.2-.2.4l-.3.4a.6.6,0,0,0-.2.5.6.6,0,0,1-.2.5h.3c.1,0,.2-.2.2-.3a.8.8,0,0,1,.2-.6c.1-.1.1-.2.1-.4a.9.9,0,0,1,.3-.6c.1-.1.2-.2.1-.4Z" transform="translate(-200 -484.9)"/><path d="M224.8,489.7c.2-.4.4-.4.5-.6s.7.1,1.1-.2-.6.2-.8.5a.6.6,0,0,1-.8.3Z" transform="translate(-200 -484.9)" fill="#fff"/><path d="M225,489.8h-.2c.1-.3.2-.4.4-.4s.1-.1.1-.2.3-.1.5-.1h.6c0,.2-.2.3-.4.3l-.4.2c-.2.2-.3.4-.6.4Zm.6-.8h-.3c0,.1-.1.1-.1.2s-.3.1-.4.4h.2c.2,0,.4-.2.6-.4l.4-.2c.2,0,.4-.1.4-.3h-.8Z" transform="translate(-200 -484.9)"/><path d="M224.8,489.9c.4-.3.7-.1.9-.3s.9.1,1.5-.1-1,.1-1.4.4-1.6.5-1,0Z" transform="translate(-200 -484.9)" fill="#fff"/><path d="M224.8,490.2h-.2l.2-.2a.7.7,0,0,1,.6-.2h.3a1,1,0,0,1,.9-.1.6.6,0,0,0,.6,0c-.2.4-1,.1-1.4.4l-1,.3Zm1.4-.7h-.8a.7.7,0,0,0-.6.2l-.2.2h.2a1.8,1.8,0,0,0,1-.4h.7c.3,0,.6,0,.7-.2a.6.6,0,0,1-.6,0Z" transform="translate(-200 -484.9)"/><path d="M223.8,492c-.1-.2-.2-.4-.4-.4s-.3-.3-.5-.3-.3-.3-.5-.3-.3.3.2.5,1.1.6,1.2.5Z" transform="translate(-200 -484.9)" fill="#fff"/><path d="M223.7,492h0l-1-.4h-.1c-.4-.2-.4-.4-.4-.4s.1-.1.2-.2h0l.3.2.2.2h.2l.3.2a.4.4,0,0,1,.4.4Zm-1.3-1c-.1,0-.2,0-.2.1s.1.3.4.4h.1l1,.4h0c0-.2-.1-.4-.3-.4s-.2-.1-.3-.2h-.4l-.3-.2Z" transform="translate(-200 -484.9)"/><path d="M223.1,492.1c-.3,0-.3.4-.5.4s.5-.1.7-.3Z" transform="translate(-200 -484.9)" fill="#fff"/><path d="M222.8,492.5h-.2l.2-.2c.1-.1.1-.2.3-.2h.2a.5.5,0,0,1-.5.3Zm.3-.4-.3.2-.2.2h.2c.2,0,.3-.1.5-.3Z" transform="translate(-200 -484.9)"/><path d="M223.3,492.2c-.2.1-.3.5,0,.6s.3-.4.1-.6Z" transform="translate(-200 -484.9)" fill="#fff"/><path d="M223.3,492.8h0l-.2-.2c0-.2,0-.3.2-.4h.2c0,.1-.1.2-.1.3s-.2.2-.1.3Zm0-.6c-.2.1-.2.2-.2.4l.2.2c-.1-.2,0-.2.1-.3s.1-.2,0-.3Z" transform="translate(-200 -484.9)"/><path d="M223.5,492.2c-.2.3.2.3.1.5s.3-.4.1-.6Z" transform="translate(-200 -484.9)" fill="#fff"/><path d="M223.6,492.8h0v-.2a.2.2,0,0,1,0-.3h.2a.6.6,0,0,1,.1.4c0,.1-.1.2-.2.3Zm.1-.7h-.2c-.1.1,0,.2,0,.3s.2.1.1.2a.2.2,0,0,0,.2-.2.6.6,0,0,0-.1-.4Z" transform="translate(-200 -484.9)"/><path d="M221.9,491.5a1.4,1.4,0,0,1,1,.5.8.8,0,0,0,.8.2c.1-.2.1-.6-.4-.4s-.4-.2-.5-.3-.7-.6-.9,0Z" transform="translate(-200 -484.9)" fill="#fff"/><path d="M223.4,492.3a.5.5,0,0,1-.5-.3,1.4,1.4,0,0,0-.9-.5h-.1q.2-.3.3-.3a1.1,1.1,0,0,1,.6.3c0,.1.1.1.2.1s.3,0,.3.2.4-.1.4.1a.2.2,0,0,1,0,.3Zm-1.4-.8a1.4,1.4,0,0,1,.9.5c.1.2.3.2.5.2h.3c0-.1.1-.2,0-.3s-.2-.2-.4-.1-.1-.2-.3-.2-.2,0-.2-.1a1.1,1.1,0,0,0-.6-.3q-.1,0-.3.3Z" transform="translate(-200 -484.9)"/><path d="M223.3,491.8c-.1,0-.1.1,0,.2Z" transform="translate(-200 -484.9)" fill="#fff"/><path d="M223.3,492c-.1,0-.1-.1-.1-.2s.1,0,.1-.1h0c-.1.1-.1.2,0,.2Z" transform="translate(-200 -484.9)"/><path d="M223.5,491.9c.1,0,.1.1,0,.1Z" transform="translate(-200 -484.9)" fill="#fff"/><path d="M223.5,492s.1-.1,0-.1h.1a.1.1,0,0,1-.1.1Z" transform="translate(-200 -484.9)"/><path d="M222.5,491.5c.2.1.2.2.5.2Z" transform="translate(-200 -484.9)" fill="#fff"/><path d="M223,491.7h0Z" transform="translate(-200 -484.9)"/><path d="M222.4,491.1a3.7,3.7,0,0,1,1.5.5,1.9,1.9,0,0,0,1.3.1c.5-.1,1.3-.3,1.3.3s-.1-.6-.7-.6-.3-.6-.5-.4.4.3,0,.5-.2-.5-.5-.4.4.3,0,.5l-.9-.2c-.3-.2-1.9-.8-1.5-.3Z" transform="translate(-200 -484.9)" fill="#fff"/><path d="M226.5,492h0a.4.4,0,0,0-.1-.3h-1.2a1.9,1.9,0,0,1-1.3-.1,3.7,3.7,0,0,0-1.5-.5c-.1-.1-.1-.1-.1-.2h.2a3.4,3.4,0,0,1,1.4.5l.9.2.2-.3a.2.2,0,0,0-.2-.2.4.4,0,0,1,.5.1v.3c.2-.1.2-.2.2-.3a.2.2,0,0,0-.2-.2h0a.2.2,0,0,1,.2.2s.1.2-.2.3a.4.4,0,0,0-.1-.3c-.1-.1-.2-.2-.4-.1a.2.2,0,0,1,.2.2c0,.1,0,.2-.2.3a1.5,1.5,0,0,1-.9-.2,4.1,4.1,0,0,0-1.6-.5c0,.1,0,.1.1.2a3.7,3.7,0,0,1,1.5.5,2.9,2.9,0,0,0,1.3.1h1.2a.4.4,0,0,1,.1.3c0-.1.1-.2,0-.3s-.3-.3-.7-.3,0-.3-.1-.3-.2-.2-.3-.1.2-.1.3.1.1.1.1.3.7.1.7.3a.2.2,0,0,1,0,.3Z" transform="translate(-200 -484.9)"/><path d="M224.1,490.8c-.2.1-.1.3-.4.4s-.6.4-.5.7.6-.5.7-.7.4-.4.2-.4Z" transform="translate(-200 -484.9)" fill="#fff"/><path d="M223.2,491.9h0c-.1-.3.1-.5.5-.7s.2-.1.2-.2l.2-.2h.1a.8.8,0,0,1-.2.4l-.3.2c-.1.1-.4.2-.5.5Zm.9-1.1-.2.2c0,.1,0,.2-.2.2s-.5.4-.5.7a.8.8,0,0,1,.5-.5c.1-.1.2-.1.2-.2l.3-.4Z" transform="translate(-200 -484.9)"/><path d="M224.1,490.8c0,.4-.3.3-.2.8a.8.8,0,0,1,0,.7c.4-.2.2-.7.3-.9a.8.8,0,0,0,.2-.4c-.1.2-.1.6.2.7s.4-.7,0-1.2a.9.9,0,0,1-.5.3Z" transform="translate(-200 -484.9)" fill="#fff"/><path d="M223.9,492.3h0a.9.9,0,0,0,0-.7c0-.3,0-.4.1-.5s.1-.1.1-.3a.9.9,0,0,0,.5-.3.6.6,0,0,1,0,.7c0,.2-.1.3,0,.5s-.3-.4-.2-.7l-.2.4a.5.5,0,0,1-.1.3c0,.2,0,.5-.2.6Zm.7-1.8a.9.9,0,0,1-.5.3c0,.2,0,.3-.1.3a2,2,0,0,0-.1.5,1.5,1.5,0,0,1,.1.7,1.3,1.3,0,0,0,.1-.6c0-.1,0-.3.1-.3s.1-.3.2-.4a.6.6,0,0,0,.2.7.5.5,0,0,1,0-.5.6.6,0,0,0,0-.7Z" transform="translate(-200 -484.9)"/><path d="M223.1,490.4c0,.1.1.3,0,.4a.5.5,0,0,0,.3-.3.2.2,0,0,1,.1.4h.5c-.2-.2-.6-.5-.9-.4Z" transform="translate(-200 -484.9)" fill="#fff"/><path d="M223.5,490.9h0c.1-.1.1-.1.1-.2a.2.2,0,0,0-.2-.2.5.5,0,0,1-.3.3c.1-.1,0-.3,0-.4h.1a1,1,0,0,1,.8.4Zm-.1-.4a.2.2,0,0,1,.2.2c.1.1,0,.1-.1.2h.5a1.8,1.8,0,0,0-.9-.4c0,.1.1.3,0,.4a.5.5,0,0,0,.3-.3Z" transform="translate(-200 -484.9)"/><path d="M219.8,489.7h-.2c-.3-.1-.2-.4.1-.4s.9-.1,1.6-.3h.6a.7.7,0,0,1,.9.1h.2c.2-.1.4.2.5.4l.5.2c.2-.1.4-.1.4,0s.4-.1.5.2-.2.2-.3.8-.4.5-.8.3-1-.5-1.3.1-.4.8-1,.7a.7.7,0,0,0-.7.2c-.2.3-.5,0-.8.1l.6-.2c.4-.1.3-.4.5-.4s-.8-.1-1.5.1.8-.2,1-.4-.9-.4-1.1-.2-.3,1-1.4.9a1.5,1.5,0,0,0-1.2.4c.5-1.2,1.3-.5,1.7-.9l.5-.6c0-.1.1-.1.2-.1s-.4-.8.5-.8Z" transform="translate(-200 -484.9)" fill="#fff"/><path d="M216.9,492.1h0a1.1,1.1,0,0,1,1.2-.8h.5l.5-.6a.1.1,0,0,1,.1-.1c-.3-.1-.5-.3-.4-.4s.4-.4,1-.4h-.2c-.2,0-.2-.1-.2-.2l.3-.2a.8.8,0,0,1,.7-.3h.2a.9.9,0,0,0,.7,0h.6a.6.6,0,0,1,.9.1h.2c.2-.1.4.1.5.4h.1l.4.2c.2-.1.4-.1.4,0s.5-.1.5.2a.1.1,0,0,1,0,.2.7.7,0,0,0-.3.6.4.4,0,0,1-.4.4h-.4c-.6-.4-1-.4-1.2.1s-.5.8-1.1.7a.6.6,0,0,0-.7.2c-.1.2-.3.1-.4.1h-.3c.1-.1.2-.1.2-.2h.3c.2-.1.3-.1.3-.2a.2.2,0,0,1,.2-.2h-1.5l.6-.3h-.3c-.2-.1-.3-.2-.4-.1s-.3.2-.3.4a.9.9,0,0,1-1.1.5,1.5,1.5,0,0,0-1.2.4Zm3.5-3.2c-.2,0-.4.1-.7.4h-.3a.2.2,0,0,0,.2.2h.2c-.5,0-1,.2-1,.4s.1.3.5.4-.2,0-.2.1l-.5.6h-.5a1.4,1.4,0,0,0-1.2.8,1.5,1.5,0,0,1,1.2-.4.9.9,0,0,0,1.1-.5c0-.2.1-.3.3-.4s.2,0,.4,0l.7.2-.4.2a.7.7,0,0,0-.6.2h1.5l-.2.2c0,.1-.1.2-.3.2s-.2,0-.2.1h.4a.9.9,0,0,1,.7-.3c.6.2.8-.1,1-.6s.7-.6,1.3-.2h.4c.2,0,.4-.1.4-.3a.7.7,0,0,1,.3-.6c0-.1.1-.1,0-.2s-.2-.3-.5-.2-.2-.1-.4,0l-.5-.2a.5.5,0,0,0-.5-.4h-.2a.8.8,0,0,0-.9-.1h-.6a.9.9,0,0,1-.7,0Z" transform="translate(-200 -484.9)"/><path d="M224.4,489.5h0c0,.3-.3.3-.3.6s-.1.3-.2.3a.4.4,0,0,1-.1-.5Z" transform="translate(-200 -484.9)" fill="#fff"/><path d="M223.9,490.5h-.1a.3.3,0,0,1,0-.4c0,.1-.1.3,0,.4h.1c.1,0,.1,0,.1-.1a.3.3,0,0,0,.1-.2c0-.2.1-.3.2-.3a.4.4,0,0,0,.1-.3h0a.4.4,0,0,1-.1.3c-.1,0-.2.1-.2.3a.4.4,0,0,1-.1.3Z" transform="translate(-200 -484.9)"/><path d="M220,489.3h0Z" transform="translate(-200 -484.9)" fill="#fff"/><path d="M220,489.3h-.3c.1-.1.2,0,.3,0Z" transform="translate(-200 -484.9)"/><path d="M221.9,488.9c.3.1.4.4.8.4s.6.6,1.3.2h0Z" transform="translate(-200 -484.9)" fill="#fff"/><path d="M223.6,489.7l-.5-.2-.4-.2-.6-.2c0-.1-.1-.1-.2-.2h0a.2.2,0,0,1,.2.2l.6.2.4.2a.7.7,0,0,0,.9,0h-.4Z" transform="translate(-200 -484.9)"/><path d="M222.8,489v0Z" transform="translate(-200 -484.9)" fill="#fff"/><path d="M222.8,489.3c-.1-.1,0-.2,0-.3h0v.3Z" transform="translate(-200 -484.9)"/><path d="M221.6,490.2c-.5,0-.7.2-.7.5a.7.7,0,0,0,.7.5c.4,0,.6-.2.6-.5s-.2-.5-.6-.5Z" transform="translate(-200 -484.9)" fill="#fff"/><path d="M221.6,491.3a.8.8,0,0,1-.7-.6c0-.2.1-.5.7-.5a.6.6,0,0,1,.6.5.6.6,0,0,1-.6.6Zm0-1.1c-.6,0-.7.3-.7.5a.7.7,0,0,0,.7.5c.4,0,.6-.2.6-.5a.6.6,0,0,0-.6-.5Z" transform="translate(-200 -484.9)"/><path d="M221.6,491.2c0-.1-.2-.1-.2-.2s.1-.1.1-.3h.3c.1.1.3.3.4.2Z" transform="translate(-200 -484.9)" fill="#fff"/><path d="M221.6,491.2h-.1c-.1,0-.1,0-.1-.1a.1.1,0,0,1,.1-.1v-.2h.3l.3.2h0c-.1.1-.2-.1-.3-.2h-.3v.2a.1.1,0,1,0,0,.2h.1Z" transform="translate(-200 -484.9)"/><path d="M221.8,490.7a.4.4,0,0,0,0,.5Z" transform="translate(-200 -484.9)" fill="#fff"/><path d="M221.8,491.2a.4.4,0,0,1,0-.5h0a.4.4,0,0,0,0,.5Z" transform="translate(-200 -484.9)"/><path d="M222,490.9s-.1.2,0,.2Z" transform="translate(-200 -484.9)" fill="#fff"/><path d="M222,491.1c-.1,0-.1-.2,0-.2h0s-.1.2,0,.2Z" transform="translate(-200 -484.9)"/><path d="M224,490.5h0a.3.3,0,0,0,.3-.3h0a.3.3,0,0,1-.3.3Z" transform="translate(-200 -484.9)"/><path d="M223,489.5c0-.2.1-.3.2-.3h0c-.1,0-.2.1-.2.3Z" transform="translate(-200 -484.9)"/><path d="M223,489.9a.4.4,0,0,0-.7-.2.3.3,0,0,0,.2.5.9.9,0,0,1,.5-.3Z" transform="translate(-200 -484.9)" fill="#fff"/><path d="M222.5,490.2h0a.2.2,0,0,1-.2-.2c-.1-.1,0-.3,0-.3h.3a.4.4,0,0,1,.4.3.9.9,0,0,0-.5.3Zm.1-.6h-.3s-.1.2,0,.3a.2.2,0,0,0,.2.2.9.9,0,0,1,.5-.3.5.5,0,0,0-.4-.3Z" transform="translate(-200 -484.9)"/><path d="M222.8,489.7c-.1-.2-.4.1-.2.4Z" transform="translate(-200 -484.9)" fill="#fff"/><path d="M222.6,490.1c-.1-.2-.1-.3,0-.4h0c-.1.1-.1.2,0,.4Z" transform="translate(-200 -484.9)"/><path d="M223.5,489.3c-.1-.1-.4,0-.3.2s.1-.2.3-.2Z" transform="translate(-200 -484.9)"/><path d="M222.8,490c0-.1.1-.1.2-.1l-.2-.2c0-.1-.2.1,0,.3Z" transform="translate(-200 -484.9)"/><path d="M221.8,489.9a.4.4,0,0,1,.1-.3h.1a.1.1,0,0,1,.1-.1h-.2a.4.4,0,0,0-.1.3Z" transform="translate(-200 -484.9)"/><path d="M221.6,490.2c-.1-.2,0-.3.1-.3h0c-.1,0-.1.2-.1.3Z" transform="translate(-200 -484.9)"/><path d="M221.4,490.4Z" transform="translate(-200 -484.9)"/><path d="M222.6,490.5a.4.4,0,0,1,.4-.2h.1a.2.2,0,0,1,0-.3h0v.2H223a.4.4,0,0,0-.4.2Z" transform="translate(-200 -484.9)"/><path d="M223.6,490.3c-.2,0-.2-.1-.2-.1a.2.2,0,0,1,.2-.2h0l-.2.2Z" transform="translate(-200 -484.9)"/><path d="M221.6,489.6c-.2-.1-.2-.1-.2-.2h0c0,.1.1.1.2.2Z" transform="translate(-200 -484.9)"/><path d="M221.8,489.3a.1.1,0,0,1-.1-.1h.1Z" transform="translate(-200 -484.9)"/><path d="M221.3,490.7h-.1a.3.3,0,0,1-.1-.2h.1v.2h.1Z" transform="translate(-200 -484.9)"/><path d="M221.2,490.9h0Z" transform="translate(-200 -484.9)" fill="none"/><path d="M220.5,489.3h0c-.2,0-.2-.1-.2-.1h.2Z" transform="translate(-200 -484.9)"/><path d="M220.4,489.8h0c-.1-.1-.2-.2-.2-.3h0a.2.2,0,0,0,.2.2h0Z" transform="translate(-200 -484.9)"/><path d="M220.8,489.6h0c-.2,0-.2-.1-.2-.1s0-.1.1-.1a.1.1,0,0,0-.1.1Z" transform="translate(-200 -484.9)"/><path d="M220.8,489.3h-.1c-.1,0,0,.1.1.1Z" transform="translate(-200 -484.9)"/><path d="M221.1,489.6c-.1-.1-.2-.1-.1-.2h0c0,.1,0,.1.1.2Z" transform="translate(-200 -484.9)"/><path d="M221.3,489.2h0Z" transform="translate(-200 -484.9)"/><path d="M220.7,490h0c-.1,0-.1-.1-.1-.2s.1-.1.3,0h-.2a.1.1,0,0,0,0,.2Z" transform="translate(-200 -484.9)"/><path d="M221.1,490.2c-.1-.1-.1-.1-.1-.2s.2-.1.3-.1H221c0,.1,0,.1.1.2Z" transform="translate(-200 -484.9)"/><path d="M221.3,489.8c-.1,0-.1,0-.1-.1h0a.1.1,0,0,0,.1.1Z" transform="translate(-200 -484.9)"/><path d="M219.2,490.5a.7.7,0,0,1,.6.1c.2.1.8.3,1.1.1s-.6-.4-.9-.3-.7.1-.9-.1.7-.3,1.3,0l.5.2c-.4-.6-1-.2-1.1-.7s1,0,1.3.5Z" transform="translate(-200 -484.9)" fill="#fff"/><path d="M220.5,490.8l-.7-.2a.7.7,0,0,0-.6-.1h.4a.8.8,0,0,1,.8,0l.5.2a.9.9,0,0,0-.7-.4c-.2,0-.4-.1-.4-.3l.5.2a.8.8,0,0,1,.8.3.8.8,0,0,0-.8-.3c-.2,0-.4,0-.5-.2s.2.3.4.3a.9.9,0,0,1,.7.4l-.5-.2a.7.7,0,0,0-.8,0h-.5c.2.2.7.1.9.1s.3,0,.4.1.3.3.5.2Zm-1.1-.3h.4c.2.1.8.3,1.1.1a.4.4,0,0,1-.5-.2h-1Z" transform="translate(-200 -484.9)"/><path d="M223.5,489.3c-.2,0-.3.1-.3.2Z" transform="translate(-200 -484.9)" fill="#fff"/><path d="M223.2,489.6a.3.3,0,0,1,.3-.3h0c-.2.1-.3.1-.3.3Z" transform="translate(-200 -484.9)"/><path d="M219.9,489.9c-.1-.1,0-.2-.1-.2Z" transform="translate(-200 -484.9)" fill="#fff"/><path d="M219.9,489.9h-.1a.1.1,0,0,1,.1.1Z" transform="translate(-200 -484.9)"/></g></g></svg>