<svg xmlns="http://www.w3.org/2000/svg" xmlns:xlink="http://www.w3.org/1999/xlink" viewBox="0 0 33.6 19.6"><defs><clipPath id="a"><rect width="33.6" height="19.58" fill="none"/></clipPath><clipPath id="d"><rect x="9.3" y="10.4" width="0.9" height="1.04" fill="none"/></clipPath></defs><title>ESP</title><g clip-path=""><g clip-path=""><rect width="33.6" height="19.58" fill="#b5002a"/><rect y="4.9" width="33.6" height="9.79" fill="#f4c327"/><g clip-path=""><path d="M6.5,8.7h.7a.1.1,0,0,1,0,0H6.5Z" fill="#9d0025"/><path d="M7.1,8.7h.1a.2.2,0,0,1,0,0H7.1Zm-.3,0h0Z"/><path d="M6.8,8.4h0Z" fill="#c1b020"/><path d="M6.8,8.5H6.8c0-.1.1-.1.1,0Zm0-.2H6.8c0,.1.1.1.1,0Z"/><path d="M6.8,8.4h0Z" fill="#c1b020"/><path d="M6.8,8.5h0Z"/><path d="M6.8,8.3h0Z" fill="#c1b020"/><polygon points="6.8 8.3 6.8 8.3 6.8 8.3 6.8 8.3 6.8 8.3 6.8 8.2 6.8 8.2 6.8 8.2 6.8 8.2 6.8 8.2 6.8 8.2 6.8 8.2 6.9 8.2 6.9 8.2 6.8 8.2 6.8 8.3 6.8 8.3" fill="#c1b020"/><polygon points="6.8 8.3 6.8 8.3 6.8 8.3 6.8 8.3 6.8 8.3 6.8 8.2 6.8 8.2 6.8 8.2 6.8 8.2 6.8 8.2 6.8 8.2 6.8 8.2 6.9 8.2 6.9 8.2 6.8 8.2 6.8 8.3 6.8 8.3 6.8 8.3" fill="none"/><polygon points="6.9 8.3 6.9 8.3 6.8 8.3 6.8 8.3 6.8 8.3 6.8 8.2 6.8 8.2 6.8 8.2 6.8 8.2 6.8 8.2 6.8 8.2 6.8 8.2 6.9 8.2 6.9 8.2 6.8 8.2 6.8 8.3 6.9 8.3" fill="#c1b020"/><polygon points="6.9 8.3 6.9 8.3 6.8 8.3 6.8 8.3 6.8 8.3 6.8 8.2 6.8 8.2 6.8 8.2 6.8 8.2 6.8 8.2 6.8 8.2 6.8 8.2 6.9 8.2 6.9 8.2 6.8 8.2 6.8 8.3 6.9 8.3 6.9 8.3" fill="none"/><path d="M6.8,8.3h0Z"/><path d="M6.8,8.7h0Z" fill="#c1b020"/><path d="M7,8.7H6.6V8.5h0v.2H7v.2Zm-.3-.1-.2-.2h0l.2.2h0Zm.2,0,.2-.2H6.9Z"/><path d="M7,8.6l.2-.2H7Zm-.3,0h0Z"/><path d="M6.5,8.7h0Z" fill="#c1b020"/><path d="M6.6,8.8h0Z"/><path d="M6.8,8.8h0Z" fill="#c1b020"/><path d="M6.8,8.8h0Zm0-.1h0Z"/><path d="M7.1,8.7h0Z" fill="#c1b020"/><path d="M7.1,8.7H6.5s0,0,0,0h.6Z"/><path d="M6.8,8.6h0Z" fill="#c1b020"/><path d="M7.1,8.7h0Zm-.6,0h0Zm.1,0h0Z"/><path d="M6.8,8.7h0Z" fill="#c1b020"/><path d="M7.1,8.7h0Zm0,0h0Z"/><path d="M6.7,8.7h0Z" fill="#fff"/><circle cx="6.7" cy="8.7" fill="none"/><path d="M6.8,8.7h0Z" fill="#9d0025"/><path d="M6.8,8.7h0Z" fill="none"/><path d="M6.6,8.7h0Z" fill="#3d8e6d"/><path d="M6.6,8.7h0Z" fill="none"/><polygon points="6.5 8.7 6.5 8.7 6.6 8.7 6.5 8.8 6.5 8.7" fill="#9d0025"/><polygon points="6.5 8.7 6.5 8.7 6.6 8.7 6.5 8.8 6.5 8.7 6.5 8.7" fill="none"/><path d="M6.9,8.7h0Z" fill="#fff"/><circle cx="6.9" cy="8.7" fill="none"/><path d="M7,8.7H7Z" fill="#3d8e6d"/><path d="M7,8.7H7Z" fill="none"/><polygon points="7.1 8.8 7.1 8.7 7.1 8.7 7.1 8.8 7.1 8.8" fill="#9d0025"/><polygon points="7.1 8.8 7.1 8.7 7.1 8.7 7.1 8.8 7.1 8.8 7.1 8.8" fill="none"/><path d="M6.8,8.8h0Z" fill="#9d0025"/><path d="M6.8,8.8Zm0-.1h0Z"/><path d="M7.1,8.6h0Z" fill="#c1b020"/><circle cx="7.1" cy="8.6" transform="translate(-3.1 13.2) rotate(-74.6)" fill="none"/><path d="M6.9,8.6h0Z" fill="#c1b020"/><ellipse cx="6.9" cy="8.6" transform="translate(-2 15.1) rotate(-87.4)" fill="none"/><path d="M6.7,8.6h0Z" fill="#c1b020"/><ellipse cx="6.7" cy="8.6" transform="translate(-0.4 0.3) rotate(-2.6)" fill="none"/><path d="M6.5,8.6h0Z" fill="#c1b020"/><circle cx="6.5" cy="8.6" transform="translate(-2.2 2.2) rotate(-16.8)" fill="none"/><polygon points="6.8 8.5 6.8 8.5 6.8 8.5 6.8 8.6 6.8 8.5 6.9 8.5 6.8 8.5" fill="#c1b020"/><polygon points="6.8 8.5 6.8 8.5 6.8 8.5 6.8 8.6 6.8 8.5 6.9 8.5 6.8 8.5 6.8 8.5" fill="none"/><polygon points="6.7 8.6 6.8 8.6 6.8 8.6 6.8 8.6 6.8 8.5 6.8 8.5 6.7 8.6" fill="#c1b020"/><polygon points="6.7 8.6 6.8 8.6 6.8 8.6 6.8 8.6 6.8 8.5 6.8 8.5 6.7 8.6 6.7 8.6" fill="none"/><polygon points="6.9 8.6 6.9 8.6 6.8 8.6 6.8 8.6 6.8 8.5 6.9 8.5 6.9 8.6" fill="#c1b020"/><polygon points="6.9 8.6 6.9 8.6 6.8 8.6 6.8 8.6 6.8 8.5 6.9 8.5 6.9 8.6 6.9 8.6" fill="none"/><polygon points="6.6 8.5 6.6 8.5 6.6 8.6 6.6 8.6 6.6 8.6 6.6 8.5 6.6 8.5" fill="#c1b020"/><polygon points="6.6 8.5 6.6 8.5 6.6 8.6 6.6 8.6 6.6 8.6 6.6 8.5 6.6 8.5 6.6 8.5" fill="none"/><polygon points="6.5 8.6 6.6 8.6 6.6 8.6 6.6 8.6 6.6 8.6 6.6 8.6 6.5 8.6" fill="#c1b020"/><polygon points="6.5 8.6 6.6 8.6 6.6 8.6 6.6 8.6 6.6 8.6 6.6 8.6 6.5 8.6 6.5 8.6" fill="none"/><polygon points="6.7 8.6 6.7 8.6 6.6 8.6 6.6 8.6 6.6 8.6 6.7 8.5 6.7 8.6" fill="#c1b020"/><polygon points="6.7 8.6 6.7 8.6 6.6 8.6 6.6 8.6 6.6 8.6 6.7 8.5 6.7 8.6 6.7 8.6" fill="none"/><polygon points="6.5 8.6 6.5 8.6 6.4 8.6 6.4 8.6 6.4 8.6 6.5 8.6 6.5 8.6" fill="#c1b020"/><polygon points="6.5 8.6 6.5 8.6 6.4 8.6 6.4 8.6 6.4 8.6 6.5 8.6 6.5 8.6 6.5 8.6" fill="none"/><path d="M6.6,8.6h0Z" fill="#c1b020"/><circle cx="6.6" cy="8.6" fill="none"/><polygon points="7 8.5 7.1 8.5 7 8.6 7 8.6 7 8.6 7 8.5 7 8.5" fill="#c1b020"/><polygon points="7 8.5 7.1 8.5 7 8.6 7 8.6 7 8.6 7 8.5 7 8.5 7 8.5" fill="none"/><polygon points="7.1 8.6 7.1 8.6 7 8.6 7 8.6 7 8.6 7.1 8.6 7.1 8.6" fill="#c1b020"/><polygon points="7.1 8.6 7.1 8.6 7 8.6 7 8.6 7 8.6 7.1 8.6 7.1 8.6 7.1 8.6" fill="none"/><polygon points="7 8.6 7 8.6 7 8.6 7 8.6 7 8.6 7 8.5 7 8.6" fill="#c1b020"/><polygon points="7 8.6 7 8.6 7 8.6 7 8.6 7 8.6 7 8.5 7 8.6 7 8.6" fill="none"/><polygon points="7.1 8.6 7.1 8.6 7.2 8.6 7.2 8.6 7.2 8.6 7.2 8.6 7.1 8.6" fill="#c1b020"/><polygon points="7.1 8.6 7.1 8.6 7.2 8.6 7.2 8.6 7.2 8.6 7.2 8.6 7.1 8.6 7.1 8.6" fill="none"/><path d="M6.8,8.5h0Z" fill="#c1b020"/><circle cx="6.8" cy="8.6" fill="none"/><path d="M7,8.6H7Z" fill="#c1b020"/><circle cx="7" cy="8.6" fill="none"/><path d="M6.4,8.6h0Z" fill="#c1b020"/><path d="M6.4,8.6h0Z" fill="none"/><path d="M6.4,8.6h0Z" fill="#c1b020"/><ellipse cx="6.4" cy="8.6" transform="translate(-4.3 8.1) rotate(-50.5)" fill="none"/><path d="M7.2,8.6h0Z" fill="#c1b020"/><path d="M7.2,8.6h0Z" fill="none"/><path d="M7.2,8.6h0Z" fill="#c1b020"/><ellipse cx="7.2" cy="8.6" transform="translate(-3.9 7) rotate(-41.6)" fill="none"/><rect x="6.4" y="8.8" width="0.9" height="0.23" fill="#c1b020"/><path d="M7.3,9.1H6.4V8.8h.9v.2Zm0-.2H6.4v.2h.9V8.8Z"/><path d="M6.5,9.2h0Z" fill="#c1b020"/><path d="M7.2,9.2h0Zm-.7,0h0Z"/><path d="M6.5,9.2h0Z" fill="#c1b020"/><path d="M7.1,9.3h0Zm-.6-.1h0Z"/><path d="M6.5,9.1h0Z" fill="#c1b020"/><path d="M7.1,9.1h0Zm-.7-.1h0Z"/><path d="M7.4,12.9h0Z" fill="#3057bb"/><path d="M7.4,13h0Zm-.9-.2h0Z"/><path d="M7.4,13h0Z" fill="#cacaca"/><path d="M7.4,13.1h0Zm-.9-.2h0Z"/><path d="M7.4,13.1h0Z" fill="#3057bb"/><path d="M7.4,13.2h0ZM6.5,13h0Z"/><path d="M7.4,13.3h0Z" fill="#cacaca"/><path d="M7.4,13.3h0Zm-.9-.2h0Z"/><path d="M7.4,13.4h0Z" fill="#3057bb"/><path d="M7.4,13.4h0Zm-.9-.2h0Z"/><path d="M6.5,12.5h0Z" fill="#c1b020"/><path d="M7.3,12.6h0Z"/><path d="M6.5,12.4h0Z" fill="#c1b020"/><path d="M7.1,12.5h0Zm-.6-.1h0Z"/><rect x="6.4" y="12.6" width="0.9" height="0.23" fill="#c1b020"/><path d="M7.3,12.9H6.4v-.2h.9v.2Zm0-.2H6.4v.2h.9v-.2Z"/><path d="M6.3,11.6H6.2c.1,0,.1.1.1.2v-.4Z" fill="#9d0025"/><path d="M6.3,12h0V12Zm0-.4h.1v-.2Z"/><rect x="6.5" y="9.3" width="0.6" height="3.1" fill="#cacaca"/><path d="M7,12.4V9.3H7v3.1Zm-.1,0V9.3H7v3.1Z"/><path d="M7.1,12.4H6.5V9.3h.6v3.1Zm0-3.1H6.5v3.1h.6V9.3Z"/><path d="M7.8,10.5H6.8c-.4.1-.7.2-.6.3h0v-.3c0-.1.3-.3.7-.4h1v.4Z" fill="#9d0025"/><path d="M6.2,10.7h0v-.3h0l.7-.3h1v.4H6.8l-.6.3h0Zm.9-.7H6.8l-.7.3h0v.3h0l.6-.3h.9v-.4H7.1Z"/><path d="M6.5,10.9H6.2l.2-.2h.2v.3Z" fill="#9d0025"/><path d="M6.5,10.9H6.2l.2-.2h.2v.3Zm-.1-.3-.2.2h.3v-.3Z"/><path d="M7.1,10.6h.2l-.2.2v-.3Z" fill="#9d0025"/><path d="M7.1,10.9v-.3h.2c0,.1-.1.2-.2.2Zm0-.3v.3l.2-.2Z"/><path d="M6.1,11.5l.4-.2h.3l.6-.4h0a2.3,2.3,0,0,1,0,.3l-.5.4-.4.2-.3.2v-.3Z" fill="#9d0025"/><path d="M6.2,11.8h0v-.3l.4-.2h.3l.6-.4h0a1.6,1.6,0,0,1,.1.3l-.5.4-.4.2-.3.2h0Zm1.2-1.1-.5.4H6.5l-.4.2v.3l.3-.2.4-.2.5-.3v-.3Z"/><path d="M6.5,10.3H6.3v.2h0Zm0-.1h0Z" fill="#c1b020"/><path d="M6.7,10.1H6.6v.2h.1v-.2Z" fill="#c1b020"/><path d="M7,10.3v-.3h0v0H6.9v.2H7Z" fill="#c1b020"/><path d="M7.4,10.1h0Z" fill="#c1b020"/><path d="M12.6,8.6h0Z" fill="#9d0025"/><path d="M12.9,8.7h0Zm-.7-.1h0Z"/><path d="M12.6,8.4h0Z" fill="#c1b020"/><path d="M12.6,8.5h0Zm0-.2h0Z"/><path d="M12.6,8.4h0Z" fill="#c1b020"/><ellipse cx="12.6" cy="8.4" ry="0.1" fill="none"/><path d="M12.3,8.7h0Z" fill="#c1b020"/><path d="M12.3,8.8h0Z"/><path d="M12.6,8.8h0Z" fill="#c1b020"/><path d="M12.6,8.8h0Zm0-.1h0Z"/><path d="M12.8,8.5h0Z" fill="#fff"/><circle cx="12.9" cy="8.5" fill="none"/><path d="M12.8,8.4h0Zm0,0h0Zm-.1,0h0Zm-.1,0h0Z" fill="none"/><path d="M13,8.6h0Z"/><path d="M12.8,8.5h0Z"/><path d="M13,8.5h0Zm0-.1h0Zm0,0h0Zm-.1,0h0Zm-.1,0h0Z" fill="none"/><path d="M12.9,8.7h0Z" fill="#c1b020"/><path d="M12.9,8.7h0Z"/><path d="M12.4,8.5h0Z" fill="#fff"/><circle cx="12.4" cy="8.5" fill="none"/><path d="M12.4,8.4h0Zm0,0h0Zm.1,0h0Zm.1,0h0Z" fill="none"/><path d="M12.2,8.6h0Z"/><path d="M12.4,8.5h0Z"/><path d="M12.2,8.5h0Zm0-.1h0Zm0,0h0Zm.1,0h0Zm.1,0h0Z" fill="none"/><path d="M12.6,8.6h0Z" fill="#c1b020"/><path d="M12.9,8.7h0Zm-.6,0h0Zm.1,0h0Z"/><path d="M12.6,8.7h0Z" fill="#c1b020"/><path d="M12.9,8.7h0Zm0,0h0Z"/><path d="M12.5,8.7h0Z" fill="#fff"/><circle cx="12.5" cy="8.7" fill="none"/><path d="M12.6,8.7h0Z" fill="#9d0025"/><path d="M12.6,8.7h0Z" fill="none"/><path d="M12.4,8.7h0Z" fill="#3d8e6d"/><path d="M12.4,8.7h0Z" fill="none"/><polygon points="12.3 8.7 12.3 8.7 12.4 8.7 12.3 8.8 12.3 8.7" fill="#9d0025"/><polygon points="12.3 8.7 12.3 8.7 12.4 8.7 12.3 8.8 12.3 8.7 12.3 8.7" fill="none"/><path d="M12.7,8.7h0Z" fill="#fff"/><circle cx="12.7" cy="8.7" fill="none"/><path d="M12.8,8.7h0Z" fill="#3d8e6d"/><path d="M12.8,8.7h0Z" fill="none"/><polygon points="12.9 8.8 12.9 8.7 12.9 8.7 12.9 8.8 12.9 8.8" fill="#9d0025"/><polygon points="12.9 8.8 12.9 8.7 12.9 8.7 12.9 8.8 12.9 8.8 12.9 8.8" fill="none"/><path d="M12.6,8.8h0Z" fill="#9d0025"/><path d="M12.6,8.8Zm0-.1h0Z"/><path d="M12.9,8.6h0Z" fill="#c1b020"/><circle cx="12.9" cy="8.6" transform="translate(0.9 18.5) rotate(-73.2)" fill="none"/><path d="M12.7,8.6h0Z" fill="#c1b020"/><ellipse cx="12.7" cy="8.6" transform="translate(3.6 20.9) rotate(-87.4)" fill="none"/><path d="M12.5,8.6h0Z" fill="#c1b020"/><ellipse cx="12.5" cy="8.6" transform="translate(-0.4 0.6) rotate(-2.6)" fill="none"/><path d="M12.3,8.6h0Z" fill="#c1b020"/><circle cx="12.3" cy="8.6" transform="translate(-2 3.9) rotate(-16.8)" fill="none"/><polygon points="12.6 8.5 12.6 8.5 12.6 8.5 12.6 8.6 12.6 8.5 12.7 8.5 12.6 8.5" fill="#c1b020"/><polygon points="12.6 8.5 12.6 8.5 12.6 8.5 12.6 8.6 12.6 8.5 12.7 8.5 12.6 8.5 12.6 8.5" fill="none"/><polygon points="12.5 8.6 12.6 8.6 12.6 8.6 12.6 8.6 12.6 8.5 12.6 8.5 12.5 8.6" fill="#c1b020"/><polygon points="12.5 8.6 12.6 8.6 12.6 8.6 12.6 8.6 12.6 8.5 12.6 8.5 12.5 8.6 12.5 8.6" fill="none"/><polygon points="12.7 8.6 12.7 8.6 12.6 8.6 12.6 8.6 12.6 8.5 12.7 8.5 12.7 8.6" fill="#c1b020"/><polygon points="12.7 8.6 12.7 8.6 12.6 8.6 12.6 8.6 12.6 8.5 12.7 8.5 12.7 8.6 12.7 8.6" fill="none"/><polygon points="12.4 8.5 12.4 8.5 12.4 8.6 12.4 8.6 12.4 8.6 12.4 8.5 12.4 8.5" fill="#c1b020"/><polygon points="12.4 8.5 12.4 8.5 12.4 8.6 12.4 8.6 12.4 8.6 12.4 8.5 12.4 8.5 12.4 8.5" fill="none"/><polygon points="12.3 8.6 12.4 8.6 12.4 8.6 12.4 8.6 12.4 8.6 12.4 8.6 12.3 8.6" fill="#c1b020"/><polygon points="12.3 8.6 12.4 8.6 12.4 8.6 12.4 8.6 12.4 8.6 12.4 8.6 12.3 8.6 12.3 8.6" fill="none"/><polygon points="12.5 8.6 12.5 8.6 12.4 8.6 12.4 8.6 12.4 8.6 12.5 8.5 12.5 8.6" fill="#c1b020"/><polygon points="12.5 8.6 12.5 8.6 12.4 8.6 12.4 8.6 12.4 8.6 12.5 8.5 12.5 8.6 12.5 8.6" fill="none"/><polygon points="12.3 8.6 12.3 8.6 12.2 8.6 12.2 8.6 12.2 8.6 12.3 8.6 12.3 8.6" fill="#c1b020"/><polygon points="12.3 8.6 12.3 8.6 12.2 8.6 12.2 8.6 12.2 8.6 12.3 8.6 12.3 8.6 12.3 8.6" fill="none"/><path d="M12.4,8.6h0Z" fill="#c1b020"/><circle cx="12.4" cy="8.6" fill="none"/><polygon points="12.8 8.5 12.9 8.5 12.8 8.6 12.8 8.6 12.8 8.6 12.8 8.5 12.8 8.5" fill="#c1b020"/><polygon points="12.8 8.5 12.9 8.5 12.8 8.6 12.8 8.6 12.8 8.6 12.8 8.5 12.8 8.5 12.8 8.5" fill="none"/><polygon points="12.9 8.6 12.9 8.6 12.8 8.6 12.8 8.6 12.8 8.6 12.9 8.6 12.9 8.6" fill="#c1b020"/><polygon points="12.9 8.6 12.9 8.6 12.8 8.6 12.8 8.6 12.8 8.6 12.9 8.6 12.9 8.6 12.9 8.6" fill="none"/><polygon points="12.8 8.6 12.8 8.6 12.8 8.6 12.8 8.6 12.8 8.6 12.8 8.5 12.8 8.6" fill="#c1b020"/><polygon points="12.8 8.6 12.8 8.6 12.8 8.6 12.8 8.6 12.8 8.6 12.8 8.5 12.8 8.6 12.8 8.6" fill="none"/><polygon points="12.9 8.6 12.9 8.6 13 8.6 13 8.6 13 8.6 13 8.6 12.9 8.6" fill="#c1b020"/><polygon points="12.9 8.6 12.9 8.6 13 8.6 13 8.6 13 8.6 13 8.6 12.9 8.6 12.9 8.6" fill="none"/><path d="M12.6,8.5h0Z" fill="#c1b020"/><circle cx="12.6" cy="8.6" fill="none"/><path d="M12.8,8.6h0Z" fill="#c1b020"/><circle cx="12.8" cy="8.6" fill="none"/><path d="M12.6,8.3h0Z" fill="#c1b020"/><polygon points="12.6 8.3 12.6 8.4 12.6 8.4 12.6 8.3 12.6 8.3 12.6 8.3 12.6 8.3 12.6 8.3 12.6 8.3 12.6 8.2 12.6 8.2 12.6 8.3 12.7 8.3 12.7 8.3 12.6 8.3 12.6 8.3 12.6 8.3 12.6 8.3" fill="#c1b020"/><polygon points="12.6 8.3 12.6 8.4 12.6 8.4 12.6 8.3 12.6 8.3 12.6 8.3 12.6 8.3 12.6 8.3 12.6 8.3 12.6 8.2 12.6 8.2 12.6 8.3 12.7 8.3 12.7 8.3 12.6 8.3 12.6 8.3 12.6 8.3 12.6 8.3" fill="none"/><polygon points="12.7 8.3 12.7 8.4 12.6 8.4 12.6 8.3 12.6 8.3 12.6 8.3 12.6 8.3 12.6 8.3 12.6 8.3 12.6 8.2 12.6 8.2 12.6 8.3 12.7 8.3 12.7 8.3 12.6 8.3 12.6 8.3 12.7 8.3" fill="#c1b020"/><path d="M12.6,8.4h0Z"/><path d="M12.2,8.6h0Z" fill="#c1b020"/><path d="M12.2,8.6h0Z" fill="none"/><path d="M12.2,8.6h0Z" fill="#c1b020"/><ellipse cx="12.2" cy="8.6" transform="translate(-2.6 10.8) rotate(-43.7)" fill="none"/><path d="M13,8.6h0Z" fill="#c1b020"/><path d="M13,8.6h0Z" fill="none"/><path d="M13,8.6h0Z" fill="#c1b020"/><ellipse cx="13" cy="8.6" transform="translate(-2.4 10.8) rotate(-41.5)" fill="none"/><rect x="12.2" y="8.8" width="0.9" height="0.23" fill="#c1b020"/><path d="M13.1,9.1h-.9V8.8h.9v.2Zm0-.2h-.9v.2H13V8.8Z"/><path d="M13,9.2h0Z" fill="#c1b020"/><path d="M12.3,9.2h0Z"/><path d="M12.3,9.2h0Z" fill="#c1b020"/><path d="M12.9,9.3h0Zm-.7-.1h0Z"/><path d="M12.3,9.1h0Z" fill="#c1b020"/><path d="M12.9,9.1h0Zm-.7-.1h0Z"/><path d="M12,12.9h0Z" fill="#3057bb"/><path d="M13.2,13h0Zm-.9-.2h0Z"/><path d="M12,13h0Z" fill="#cacaca"/><path d="M13.2,13.1h0Zm-.9-.2h0Z"/><path d="M12,13.1h0Z" fill="#3057bb"/><path d="M13.2,13.2h0Zm-.9-.2h0Z"/><path d="M12,13.3h0Z" fill="#cacaca"/><path d="M13.2,13.3h0Zm-.9-.2h0Z"/><path d="M12,13.4h0Z" fill="#3057bb"/><path d="M13.2,13.4h0Zm-.9-.2h0Z"/><path d="M13,12.5h0Z" fill="#c1b020"/><path d="M13.1,12.6h0Z"/><path d="M12.3,12.4h0Z" fill="#c1b020"/><path d="M12.9,12.5h0Zm-.7-.1h0Z"/><rect x="12.2" y="12.6" width="0.9" height="0.23" fill="#c1b020"/><path d="M13.1,12.9h-.9v-.2h.9v.2Zm0-.2h-.9v.2h.9v-.2Z"/><path d="M13.1,11.6h.1v-.2Z" fill="#9d0025"/><path d="M13.1,12v-.4h0Zm0-.4v.2h.1Z"/><rect x="12.3" y="9.3" width="0.6" height="3.1" fill="#cacaca"/><path d="M12.8,12.4V9.3h0v3.1Zm-.1,0V9.3h0v3.1Z"/><path d="M12.9,12.4h-.6V9.3h.6v3.1Zm0-3.1h-.6v3.1h.6V9.3Z"/><path d="M11.7,10.5h.9c.4.1.7.2.6.3h0v-.3c0-.1-.3-.3-.7-.4h-1v.4Z" fill="#9d0025"/><path d="M13.2,10.7h0l-.6-.3h-.9v-.4h1l.7.3h0v.3Zm-.9-.4h.3l.6.3h0v-.3h0l-.7-.3h-1v.4Z"/><path d="M12.9,10.9h.3l-.2-.2h-.2v.3Z" fill="#9d0025"/><path d="M12.9,10.9v-.3h.1l.2.2h-.3Zm.2-.3h-.2v.3h.3l-.2-.2Z"/><path d="M12.3,10.6h-.2l.2.2v-.3Z" fill="#9d0025"/><path d="M12.3,10.9h0l-.2-.2h.2v.3Zm0-.3h-.2l.2.2v-.3Z"/><path d="M13.3,11.5l-.4-.2h-.3l-.6-.4h0V11l.5.4.4.2.3.2v-.3Z" fill="#9d0025"/><path d="M13.3,11.8h0l-.3-.2-.4-.2L12,11a1.8,1.8,0,0,1,0-.4l.6.4h.3l.4.2v.3Zm-1.2-1V11l.5.4.4.2.3.2v-.3l-.4-.2h-.3l-.6-.4Z"/><path d="M12.1,10.3v-.3h0v0h-.1l.2.2h0Z" fill="#c1b020"/><path d="M12.3,10.1h-.1v.2h.1v-.2Z" fill="#c1b020"/><path d="M12.6,10.1h-.1v.2h.1v-.2Z" fill="#c1b020"/><path d="M12.7,10.4h.1v.2Zm.1-.2h0Z" fill="#c1b020"/><path d="M13.1,10.4h.1v-.3h0l-.2.2h.2Zm-.1-.1h0Z" fill="#c1b020"/><path d="M8.8,7.9h0Zm0-.2h0Z"/><path d="M9.7,7.1h1.6l.3.2h-.1v.2l-.2.2h-.1l-.2.2H11L9.7,8.2l-1.3.2H8.3l-.2-.2H8l-.2-.2V7.7H7.8l.3-.2H9.7Z" fill="#9d0025"/><path d="M11,8.3h0L9.7,8.2l-1.3.2H8.3L8,8l-.2-.2V7.7H7.8l.3-.2h1a2.2,2.2,0,0,1,1.3,0h1l.3.2h-.1v.2l-.3.3-.2.2H11Zm-2.5-1H8.1l-.3.2h.1v.2l.3.3.2.2h.1l1.3-.2h1.4l.3-.2.2-.2V7.7h.1l-.3-.2h-1a2.2,2.2,0,0,0-1.3,0H8.5Z"/><path d="M9.7,8.8,8.5,8.7h2.4l-1.2.2Z" fill="#c1b020"/><path d="M9.7,8.8Zm0-.4h0Z"/><path d="M9.7,8.8h0Z" fill="#9d0025"/><path d="M9.7,8.8v0Z" fill="none"/><path d="M9.7,8.8v0Z" fill="none"/><path d="M9.6,8.8v0Z" fill="none"/><path d="M9.5,8.8v0Z" fill="none"/><path d="M9.5,8.8v0Z" fill="none"/><polygon points="9.4 8.7 9.4 8.5 9.4 8.7 9.4 8.7 9.4 8.7"/><polygon points="9.3 8.7 9.3 8.5 9.3 8.7 9.3 8.7 9.3 8.7"/><path d="M9.1,8.7v0Zm0,0v0Zm0,0v0Z" fill="none"/><path d="M9.1,8.7v0Z" fill="none"/><path d="M9,8.7v0Z" fill="none"/><path d="M9,8.7v0Z" fill="none"/><path d="M8.9,8.7h0Zm0,0H9Z" fill="none"/><path d="M8.9,8.7h0Z" fill="none"/><path d="M8.8,8.7h0Z" fill="none"/><path d="M8.8,8.7h0Z" fill="none"/><path d="M8.7,8.7h0Z" fill="none"/><path d="M8.7,8.6h0Z" fill="none"/><path d="M10,8.7v0Zm-.1,0v0Zm-.1,0v0Z" fill="none"/><path d="M9.7,8.4l-1.2.2s0,0,0-.1H8.4l1.3-.2,1.3.2H11c0,.1,0,.1,0,.1L9.7,8.4Z" fill="#c1b020"/><path d="M10.9,8.6,9.7,8.4l-1.2.2s0,0,0-.1H8.4l1.3-.2,1.3.2H11c0,.1,0,.1,0,.1ZM8.4,8.4h.1c0,.1,0,.1,0,.1l1.2-.2h0l-1.3.2Z"/><path d="M9.7,8.2l-1.3.2h0l1.4-.2,1.4.2h0L9.7,8.2Z" fill="#c1b020"/><path d="M11.1,8.4h0L9.7,8.2l-1.3.2h0l1.4-.2,1.4.2h0ZM9.7,8.1l-1.4.2h0l1.3-.2,1.3.2h0L9.7,8.1Z"/><path d="M9.7,8.8Zm0-.3h0Z"/><path d="M9.3,8.3h0Z" fill="#fff"/><path d="M9.3,8.3h0Z" fill="none"/><path d="M9.7,8.4h0Z" fill="#9d0025"/><path d="M9.8,8.4h0Zm-.3-.1h0Z"/><path d="M9.1,8.4h0Z" fill="#3d8e6d"/><path d="M9,8.4H9Zm0,0h0Z"/><path d="M8.7,8.4h0Z" fill="#fff"/><path d="M8.7,8.4h0Z" fill="none"/><polygon points="8.4 8.5 8.5 8.4 8.6 8.4 8.5 8.5 8.4 8.5" fill="#9d0025"/><polygon points="8.5 8.5 8.4 8.5 8.5 8.4 8.6 8.4 8.5 8.5 8.5 8.5"/><path d="M10.4,8.4h0Z" fill="#3d8e6d"/><path d="M10.5,8.4h0Zm-.2-.1h0Z"/><path d="M10,8.3h0Z" fill="#fff"/><path d="M10,8.3h0Z" fill="none"/><path d="M10.6,8.4h0Z" fill="#fff"/><path d="M10.6,8.4h0Z" fill="none"/><polygon points="11 8.5 11 8.4 10.8 8.4 10.9 8.5 11 8.5" fill="#9d0025"/><polygon points="10.9 8.5 10.8 8.4 11 8.4 11 8.5 10.9 8.5 10.9 8.5"/><path d="M8.6,8.7h0Z"/><path d="M8.8,7.5h.1a.3.3,0,0,1-.1-.3h0c0-.2.2-.3.5-.3h0c-.3,0-.5.2-.5.4h0a.4.4,0,0,0,.1.3Z" fill="#c1b020"/><path d="M8.8,7.5h0a.3.3,0,0,1-.1-.3.5.5,0,0,1,.6-.4h0c-.3,0-.5.1-.5.3a.3.3,0,0,0,.1.3v.2Zm.4-.8c-.3,0-.5.2-.5.4a.4.4,0,0,0,.1.3h.1a.3.3,0,0,1-.2-.2c0-.2.2-.4.5-.4h.3a.1.1,0,0,1,0-.1Z"/><path d="M8.8,7.5a.4.4,0,0,1-.2-.3.4.4,0,0,1,.2-.3v.2h0a.4.4,0,0,0,.1.3Z" fill="#c1b020"/><path d="M8.8,7.5h0a.4.4,0,0,1-.2-.3.4.4,0,0,1,.2-.3v.2a.4.4,0,0,0,.1.3Zm0-.6a.4.4,0,0,0-.2.3.4.4,0,0,0,.2.3h0a.3.3,0,0,1-.1-.3.4.4,0,0,1,.1-.3Z"/><path d="M7.9,7.6V7.2a.7.7,0,0,1,.7-.3h0a.6.6,0,0,0-.6.3h0v.4h0Z" fill="#c1b020"/><path d="M7.8,7.8h0V7.2a.7.7,0,0,1,.7-.3h0a.7.7,0,0,0-.6.3h0v.4Zm.6-.8a.7.7,0,0,0-.6.3h0v.2h0V7.4h0A.7.7,0,0,1,8.4,7h0Z"/><path d="M8,7l-.2.2v.4H7.8V7.4A.5.5,0,0,1,8,7Z" fill="#c1b020"/><path d="M7.8,7.7h0V7.4A.5.5,0,0,1,8,7l-.2.2h0v.2Zm0-.6a.4.4,0,0,0-.1.3v.2h.1V7.2Z"/><path d="M9.7,6.7h.1V7h0a1.2,1.2,0,0,0,0,.3l-.2.2-.2-.2A1.1,1.1,0,0,0,9.6,7h0V6.8Z" fill="#c1b020"/><path d="M9.7,7.6l-.2-.2a1.2,1.2,0,0,0,0-.3h0V6.8a.2.2,0,0,1,.3,0V7h0a1.1,1.1,0,0,0,0,.3l-.2.2Zm0-.9H9.6V7h0a1.1,1.1,0,0,1-.1.3l.2.2.2-.2A.9.9,0,0,1,9.9,7h0V6.8Z"/><path d="M9.7,6.8h.1V7h0a1,1,0,0,0,0,.3H9.6a1.1,1.1,0,0,0,0-.3h0V6.8Z" fill="#c1b020"/><path d="M9.7,7.5H9.6a1.2,1.2,0,0,0,0-.3h0V6.8h.2V7h0a.9.9,0,0,0,0,.3Zm0-.7H9.6V7h0a1,1,0,0,1,0,.3h.3a.9.9,0,0,1,0-.3h0V6.8Z"/><path d="M10.7,7.5h-.1a.3.3,0,0,0,.1-.3h0c0-.2-.2-.3-.5-.3h0c.3,0,.5.2.5.4h0a.4.4,0,0,1-.1.3Z" fill="#c1b020"/><path d="M10.6,7.5h-.1V7.1c0-.2-.2-.3-.5-.3h0c.3,0,.5.2.6.4a.4.4,0,0,1-.1.3h0Zm-.4-.7c.3,0,.5.1.5.3a.3.3,0,0,1-.2.3h.1V7.1c0-.2-.2-.4-.5-.4h0Z"/><path d="M10.7,7.5a.4.4,0,0,0,.2-.3.4.4,0,0,0-.2-.3v.2h0a.4.4,0,0,1-.1.3Z" fill="#c1b020"/><path d="M10.7,7.5h0a.4.4,0,0,0,.1-.3.4.4,0,0,0-.1-.3.4.4,0,0,1,.2.3.4.4,0,0,1-.2.3Zm0-.6v.2a.4.4,0,0,1-.1.3h0a.4.4,0,0,0,.2-.3.4.4,0,0,0-.2-.3Z"/><path d="M11.6,7.6V7.2a.7.7,0,0,0-.7-.3h0a.6.6,0,0,1,.6.3h0v.4h0Z" fill="#c1b020"/><path d="M11.6,7.8V7.4h0A.6.6,0,0,0,11,7h0a.7.7,0,0,1,.7.3v.4h0ZM11,7a.6.6,0,0,1,.6.3h0v.4h0V7.4h0a.7.7,0,0,0-.6-.3h0Z"/><path d="M11.5,7l.2.2v.4h.1V7.4a.5.5,0,0,0-.3-.4Z" fill="#c1b020"/><path d="M11.6,7.7h-.1V7.4h0l-.2-.2h.1a.4.4,0,0,1,.2.3v.3Zm0-.5h0v.4h.1V7.2Z"/><path d="M9.6,7.4h0Z" fill="#fff"/><path d="M9.7,7.5h0Zm0-.1h0Z"/><path d="M9.6,7.2h0Z" fill="#fff"/><path d="M9.7,7.3h0Zm0-.1h0Z"/><path d="M9.7,7.1h0Z" fill="#fff"/><path d="M9.7,7.2h0Z"/><path d="M9.7,7h0Z" fill="#fff"/><path d="M9.7,7h0Z" fill="none"/><path d="M9.7,6.8h0Z" fill="#fff"/><path d="M9.7,6.8h0Z" fill="none"/><path d="M9.7,7.8h0a.2.2,0,0,0,.2.2h.2l.2.2a.2.2,0,0,0,.2-.2h.1l.2.2h.6l-.2.2h-.4l-.2-.2H8.9l-.2.2H8.2l-.2-.2h.6L8.8,8h.1a.2.2,0,0,0,.2.2l.2-.2h.2a.2.2,0,0,0,.2-.2h0Z" fill="#c1b020"/><path d="M11.1,8.3h-.1a.3.3,0,0,1-.4-.1.3.3,0,0,1-.4,0,.3.3,0,0,1-.4,0,.3.3,0,0,1-.4,0,.3.3,0,0,1-.4,0,.3.3,0,0,1-.4.1H8.2l-.2-.2h.4A.2.2,0,0,0,8.8,8h.1a.2.2,0,0,0,.2.2h.2a.2.2,0,0,0,.4,0h.1l.2.2h.2l.2.2.2-.2h0a.2.2,0,0,1-.2.2l-.2-.2h0a.2.2,0,0,1-.4,0H9.7a.2.2,0,0,1-.2.2H9.3l-.2.2a.2.2,0,0,1-.2-.2H8.8a.2.2,0,0,1-.3.1H8.1l.2.2h.3a.3.3,0,0,0,.4-.1.3.3,0,0,0,.4,0,.3.3,0,0,0,.4,0,.3.3,0,0,0,.4,0,.3.3,0,0,0,.4,0,.3.3,0,0,0,.4.1h.3l.2-.2h-.6L10.6,8h0a.2.2,0,0,0,.3.1h.4l-.2.2Z"/><path d="M11,8h0Z" fill="#fff"/><path d="M11,8.1H11A.1.1,0,0,1,11,8Z"/><path d="M10.2,7.9h0Z" fill="#fff"/><path d="M10.1,7.9Z"/><path d="M9.2,7.9h0Z" fill="#fff"/><path d="M9.3,7.9h0Z"/><path d="M8.4,8h0Z" fill="#fff"/><path d="M8.4,8h0Z" fill="none"/><path d="M8.8,7.5h0Z" fill="#c1b020"/><path d="M8.8,7.8h0a.1.1,0,0,1,0-.1h.2s0,0,0,.1H8.8Zm-.1-.2h0Z"/><path d="M8.8,7.9h0Z" fill="#c1b020"/><path d="M8.6,8h0Z"/><path d="M8.9,7.9h0Z" fill="#c1b020"/><path d="M9.1,7.9h0Zm0,0h0Z"/><path d="M8.7,7.8h0Z" fill="#9d0025"/><path d="M8.8,7.9h0Zm0-.2h0Z"/><path d="M9.7,7.4h0Z" fill="#c1b020"/><path d="M9.8,7.7h0Zm0-.2h0Z"/><path d="M9.7,7.8h0Z" fill="#c1b020"/><path d="M9.4,7.9h0Z"/><path d="M9.8,7.8h0Z" fill="#c1b020"/><path d="M10,7.9h0Z"/><path d="M10.7,7.5h0Z" fill="#c1b020"/><path d="M10.7,7.8h0Z"/><path d="M10.7,7.9h0Z" fill="#c1b020"/><path d="M10.8,8h0Zm-.2-.1h0Z"/><path d="M10.5,7.9h0Z" fill="#c1b020"/><path d="M10.3,7.9h0Z"/><path d="M10.5,7.8h0Z" fill="#9d0025"/><path d="M10.6,7.9h0Zm0-.2h0Z"/><path d="M11.5,8h-.1a.1.1,0,0,0,0,.1h.1s0-.1,0-.1Z" fill="#9d0025"/><path d="M11.4,8.1h.1c0,.1,0,.1,0,.1Z"/><path d="M11.3,8.1h.1a.3.3,0,0,0,0,.2h-.1Z" fill="#c1b020"/><path d="M11.3,8.1h.1a.2.2,0,0,1,0-.1h-.1Zm-.1-.2h0Zm.2.1h0a.2.2,0,0,0,0,.1Z"/><path d="M8.1,8.1H8A.3.3,0,0,1,8,8h.2a.1.1,0,0,1,0,0H8.1Z" fill="#c1b020"/><path d="M8.2,8.1H8a.4.4,0,0,0,0-.1h.1Zm.1,0h0Z"/><path d="M8,8h.1s0,.1,0,.1H8S8,8,8,8Z" fill="#9d0025"/><path d="M8.1,8.1h0Z"/><path d="M9.6,7.7h0Z" fill="#9d0025"/><path d="M9.7,7.8h0Zm0-.2h0Z"/><path d="M9.5,6.5l.2-.2.2.2-.2.2-.2-.2Z" fill="#3057bb"/><path d="M9.7,6.7l-.2-.2.2-.2.2.2-.2.2Zm0-.3-.2.2.2.2.2-.2-.2-.2Z"/><path d="M9.7,6.1h0Z" fill="#c1b020"/><path d="M9.9,6.6H9.8V6.3H9.7v.3h0V6.3h.1v.3h.1c0,.1,0,.1,0,.1Z"/><path d="M9.7,13.4a3.3,3.3,0,0,1-1.4-.3.9.9,0,0,1-.5-.8V11h3.9v1.3a.9.9,0,0,1-.5.8,3.3,3.3,0,0,1-1.4.3Z" fill="#cacaca"/><path d="M9.7,13.4a3.4,3.4,0,0,1-1.4-.3.9.9,0,0,1-.5-.8V11h3.9v1.3a.9.9,0,0,1-.5.8,3.3,3.3,0,0,1-1.4.3ZM11.7,11H7.8v1.3a.9.9,0,0,0,.5.8,3.3,3.3,0,0,0,2.9,0,.9.9,0,0,0,.5-.8V11Z"/><rect x="9.7" y="8.8" width="2" height="2.17" fill="#cacaca"/><path d="M11.7,11h-2V8.8h2V11Zm0-2.2H9.7V11h1.9V8.8Z"/><path d="M9.7,12.3a1,1,0,0,1-2,0V11h2v1.3Z" fill="#9d0025"/><path d="M8.2,13h.2V10.9H8.2Z" fill="#c1b020"/><path d="M8.4,13.1H8.2V10.9h.2v2.2Zm0-2.2H8.2V13h.2V10.9Z"/><path d="M7.8,12.2a1,1,0,0,0,.2.6V10.9H7.8Z" fill="#c1b020"/><path d="M8,12.9H8a1,1,0,0,1-.2-.6V10.9H8v1.9H8Zm0-1.9H7.8v1.3a1,1,0,0,0,.2.6V10.9Z"/><path d="M8.6,13.2h.2V10.9H8.6Z" fill="#c0b420"/><path d="M8.7,13.2H8.6V10.9h.2v2.3Zm.1-2.3H8.6v2.3h.2V10.9Z"/><path d="M9.1,13.1h.2V10.9H9.1Z" fill="#c1b020"/><path d="M9.1,13.1V10.9h.2V13H9.1Zm.2-2.2H9.1v2.2h.2V10.9Z"/><rect x="7.8" y="8.8" width="2" height="2.17" fill="#9d0025"/><path d="M9.7,11h-2V8.8h2V11Zm0-2.2H7.8V11H9.7V8.8Z"/><path d="M9.5,12.8a.9.9,0,0,0,.2-.5V10.9H9.5Z" fill="#c1b020"/><path d="M9.5,12.9V10.9h.2v1.4a.9.9,0,0,1-.2.5Zm.2-1.9H9.5v1.9a.9.9,0,0,0,.2-.5V10.9Z"/><path d="M8.7,13.2a1,1,0,0,1-1-.9V11h2v1.3a1,1,0,0,1-1,.9Zm1-2.2H7.8v1.3a1,1,0,0,0,1.9,0V11Z"/><path d="M11.7,11v1.3a1,1,0,0,1-2,0V11Z" fill="#9d0025"/><path d="M10.7,13.2a1,1,0,0,1-1-.9V11h2v1.3a1,1,0,0,1-1,.9Zm1-2.2H9.7v1.3a1,1,0,0,0,1.9,0V11Z"/><path d="M10.1,11.9H10v.2h.1v-.2h0Zm.9,0h-.2l.2.2h-.1l-.2-.2h0v.4h-.1v-.4h0l-.2.2h-.1l.2-.2H11Zm.1,0h.2v.2h.1v-.2h-.3Zm-.3.9h-.1v-.3h.1v.3Zm-.4-.1h-.3a.1.1,0,0,1,0-.1h0v-.2h.1v.2h.1l.2-.2h0l-.2.2a.1.1,0,0,1,0,.1Zm-.2-.2h.1a0,0,0,0,1,0,.1h-.1a0,0,0,0,1,0-.1Zm-.1-.2H9.9v-.2H10Zm.1-.2h0Zm.2.6h0Zm0,.1h0Zm.1-.4h.1v.2Zm-.1,0h.1v.2Zm.7.4h.3a.1.1,0,0,0,0-.1h0v-.2h-.1v.2h-.1l-.2-.2h0l.2.2a.1.1,0,0,0,0,.1Zm.2-.2h-.1a0,0,0,0,0,0,.1h.1a0,0,0,0,0,0-.1Zm.1-.2h.1v-.2h-.1Zm-.1-.2h0Zm-.2.6h0Zm0,.1h0Zm-.1-.4h-.1v.2Zm.1,0h-.1v.2Zm-.8-.3h0Zm.9,0h0Zm-.5.9h0Zm.1-.3h.1v-.2h-.1v.2Zm-.1,0h-.1v-.2h.1v.2Z" fill="#c1b020"/><path d="M9.9,11.9H10v-.2h.1v.2H9.9Zm.5,0h.2l-.2-.2h.1l.2.2h0v-.3h.1v.3h0l.2-.2h0l-.2.2h-.4Zm.9,0h.1v-.2h-.1v.2h0Zm-1.2-.6.2.3h.1l-.2-.3H10v.2h.1v-.2Zm1.3,0v.2h-.1v-.2h0l-.2.3h0l.2-.3h.1Zm-.7,0h0Zm-.7.2H9.9v.2H10v-.2Zm.1,0h.1v.2h-.1v-.2Zm1.2,0h-.1v.2h.1v-.2Zm.1,0h.1v.2h-.1v-.2Zm-1,0h.1v-.2Zm-.1,0h.1v-.2Zm.7,0h-.1v-.2Zm.1,0h-.1v-.2Zm-.8.4h0Zm-.3-.7h0Zm.5,0h0Zm0-.1h0Zm.6.7h0Zm.2-.7h0Zm-.7,0h0Zm.3,0h0Zm0-.1h0Zm-.2.2h-.1v.2h.1v-.2Zm.1,0h.1v.2h-.1v-.2Z" fill="#c1b020"/><path d="M10.7,13h-.5a.1.1,0,0,0,0-.1l.2-.2h0l-.2.2h0l.2-.2h.1l-.2.2a.1.1,0,0,1,0,.1h.4v-.3h.1v.3h0Zm-.3-.1h.3v-.3h-.1v.3h-.2Zm-.2-.1h0Zm.1,0h0Zm-.2-.1H9.9v-.2H10v-.2h.1v.2h.1v.2h0Zm-.1-.5H9.9v.2H10Zm.1.1h.1v-.2h-.1Zm0-.6H10v.2h.1v-.2Zm.7.8h-.1v0h.1v-.3h0v.3Zm.2-.1h0l-.2-.2h0l.2.2Zm-.5,0h0l.2-.2h0l-.2.2Zm.1-.3h0Zm.3,0h0Zm-.3-.1-.2-.2h0l.2.2Zm.2,0h0l.2-.2h0l-.2.2Zm-.1,0h0v-.3h0v.3Zm-.3-.2v-.2h.2l-.2-.3h0l.2.3Zm-.3-.1v-.2H9.9c0-.1.2-.1.2,0h0c0-.1-.2-.1-.2,0H10v.2h.1v-.2h0v.2Z" fill="#c1b020"/><path d="M11,12.9h.2a.1.1,0,0,1,0-.1l-.2-.2h0l.2.2h0v-.2h0v-.2h.1v.2h.1v.2h.1v.2H11Zm.1-.1h0Zm-.1-.1h0Zm0-.4h0l.2.2a.1.1,0,0,0,0,.1h0l-.2-.2Zm.3-.1h.1v-.2h-.1Zm-.1-.2h.1v.2h.1v-.2h0v-.2h-.1v.2h-.1Zm-.8.4h-.1v-.2h-.1Zm.1-.2v.2h.1Zm-.2.1h.1v.2Zm.1-.2h-.1v-.2Zm-.3-.4v-.2h.1v.2Zm0-.2v.2h.1v-.2Zm-.1.2H9.9v-.2H10v.2Zm1-.1h0l.2-.3h0l-.2.3Zm.3-.1h.1v-.2h-.1c0-.1.2-.1.2,0h-.1v.2Zm-.6-.1h0Zm-.1-.2h0Z" fill="#c1b020"/><path d="M10.7,12.6v-.2h.1v.2Zm0-.2v.2h.1v-.2Zm-.1.2h-.1v-.2h.1v.2Zm.3-.2h-.1l.2.2Zm.1-.1-.2-.2h.2Zm0-.3h0Zm0-.1h0Zm-.6.1h0Zm0-.1h0Zm.6-.1h0Zm0-.1h0Zm-.6.1h0Zm0-.1h0Zm-.1-.1h-.1l.2.2Zm.6,0h-.1v-.2H11Zm.1-.2v.2h.1Zm.3.1v-.2h.1v.2Zm0-.2v.2h.1v-.2Zm-.9.2v-.2h.1Zm.4,0H11v.2Zm.1-.2h-.1v-.2Zm.1-.2h0Zm0-.1h0Zm-.6.1h0Zm0-.1h0Zm.6-.1h0Zm0-.1h0Zm-.6.1h0Zm0-.1h0Z" fill="#c1b020"/><path d="M10.7,11.6v-.2h.1v.2Zm0-.2v.2h.1v-.2Zm-.1.2h-.1v-.2h.1v.2Z" fill="#c1b020"/><path d="M10.6,12h0Z" fill="#3d8e6d"/><path d="M10.7,9.3h0Z" fill="#ca3e4b"/><path d="M10.7,9.3h0Zm-.1,0h0Z"/><path d="M11,9.2h-.1v.2h.2c.1,0,.1-.2.1-.3V9.6h0a.3.3,0,0,1,0-.1h0s0,.2,0,.2v.2a.2.2,0,0,1-.1.2h-.1s0,0,0,0h-.2s0,0,0,0h0a.2.2,0,0,1,0,.1h-.2a.2.2,0,0,0,0,.1h-.4s0,0,0,0h.2a.1.1,0,0,1,0,0h0s0-.1,0-.1h-.3s0,0,0,.1h-.1s0,0,0,0h-.1s0,0,0,0h1Z" fill="#de6ba8"/><path d="M11.1,10.7h.1a.7.7,0,0,1,0-.1h.1a.2.2,0,0,0,.1-.2V9.7h0s0-.2,0-.2h0c-.1,0,0,.2,0,.2h0v.2a.2.2,0,0,1-.1.2h-.2Zm-.1-.2h0a.1.1,0,0,1,0,.1Zm-.5,0h0Zm.3,0h0c0-.1,0-.1,0-.1h.1a.2.2,0,0,1,0-.1h-.1a.2.2,0,0,0,0,.1h0Zm-.1-.2h-.1a.1.1,0,0,0,0,0h.1a.2.2,0,0,0,0,.1h0Zm.5-.3h-.2V9.7h.1a.6.6,0,0,1,0-.1h0v.2h.3a.4.4,0,0,0,0-.2V9.6h0a.3.3,0,0,1,0-.1h0a.3.3,0,0,0,0,.1h0v.2a.3.3,0,0,1,0,.2h-.1Zm-.9,0h0Zm0-.5h0Zm1.2-.2h.1s0,.1,0,.1h-.1Z"/><path d="M10.6,9.2h0Z"/><path d="M10.6,9.2h0Z" fill="none"/><path d="M10.8,9.2h0Z"/><path d="M10.8,9.2h0Z" fill="none"/><path d="M11,9.4h0Z" fill="none"/><path d="M10.2,9.2h0Z" fill="#ca3e4b"/><path d="M10.2,9.2h0Z" fill="none"/><path d="M10.1,9.2h0Z" fill="#ca3e4b"/><path d="M10.1,9.2h0Z" fill="none"/><path d="M10,9.4h0Z" fill="#ca3e4b"/><path d="M10,9.4h0Z"/><polygon points="10.6 9.4 10.6 9.3 10.6 9.4 10.6 9.4"/><polygon points="10.6 9.4 10.6 9.3 10.6 9.4 10.6 9.4 10.6 9.4" fill="none"/><polygon points="10.6 9.4 10.7 9.3 10.7 9.4 10.6 9.4"/><polygon points="10.6 9.4 10.7 9.3 10.7 9.4 10.6 9.4 10.6 9.4" fill="none"/><polygon points="10.6 9.2 10.7 9.2 10.6 9.3 10.6 9.2"/><polygon points="10.6 9.2 10.7 9.2 10.6 9.3 10.6 9.2 10.6 9.2" fill="none"/><polygon points="10.7 9.2 10.7 9.3 10.7 9.3 10.7 9.2"/><polygon points="10.7 9.2 10.7 9.3 10.7 9.3 10.7 9.2 10.7 9.2" fill="none"/><path d="M10.6,9.8h-.2s0,0,0-.1h.2Z"/><path d="M10.1,9.8h0Z" fill="#ca3e4b"/><path d="M10.1,9.8h0Z" fill="none"/><path d="M10.1,9.9h0Z" fill="#ca3e4b"/><path d="M10.1,9.9h0Z" fill="none"/><path d="M10.2,10h0Z" fill="#ca3e4b"/><path d="M10.2,10h0Z" fill="none"/><path d="M10.9,10.2h0Z"/><path d="M10.4,10.3h0Z" fill="#ca3e4b"/><path d="M10.4,10.3h0Z" fill="none"/><path d="M10.4,10.4h0Z" fill="#ca3e4b"/><path d="M10.4,10.4h0Z" fill="none"/><path d="M10.4,10.5a0,0,0,0,0,0,0h0Z" fill="#ca3e4b"/><path d="M10.4,10.5a0,0,0,0,0,0,0h0Z" fill="none"/><path d="M10.9,10.5h0a.1.1,0,0,0,0,0Z" fill="#ca3e4b"/><path d="M10.8,10.6h0Z"/><path d="M10.9,10.6h0Z" fill="#ca3e4b"/><path d="M10.9,10.6h0Z" fill="none"/><path d="M11.1,10.7h0Z" fill="#ca3e4b"/><path d="M11.1,10.7h0Z" fill="none"/><path d="M9.8,12.8V13l-.2.2L9.5,13v-.2h.2Z" fill="#f7d591"/><path d="M9.7,13.2,9.5,13a.2.2,0,0,1,.1-.2H9.5l.2.2.2-.2H9.8V13l-.2.2Z"/><path d="M9.7,13.3h0Z" fill="#3d8e6d"/><path d="M9.6,13.3h0Zm-.3-.1h0Z"/><path d="M9.8,13.3h0Z" fill="#3d8e6d"/><path d="M10,13.3h0Zm-.2,0h0Z"/><path d="M9.7,13.1h0Z" fill="#9d0025"/><path d="M9.7,13.2h0v0Zm0-.3h0Z"/><path d="M9.7,13.4h0Z" fill="#3d8e6d"/><path d="M9.7,13.4h0Zm0-.2s0,0,0,.1h0Z"/><path d="M11.7,7.8h0Z" fill="#fff"/><circle cx="11.7" cy="7.8" fill="none"/><path d="M11.7,7.6h0Z" fill="#fff"/><ellipse cx="11.8" cy="7.6" fill="none"/><path d="M11.8,7.5h0Z" fill="#fff"/><circle cx="11.8" cy="7.5" fill="none"/><path d="M11.8,7.4h0Z" fill="#fff"/><circle cx="11.8" cy="7.4" fill="none"/><path d="M11.7,7.3h0Z" fill="#fff"/><circle cx="11.8" cy="7.3" fill="none"/><path d="M11.7,7.2h0Z" fill="#fff"/><circle cx="11.7" cy="7.2" fill="none"/><path d="M11.6,7.1h0Z" fill="#fff"/><circle cx="11.6" cy="7.1" fill="none"/><path d="M11.5,7h0Z" fill="#fff"/><circle cx="11.5" cy="7" fill="none"/><path d="M11.4,6.9h0Z" fill="#fff"/><circle cx="11.4" cy="6.9" fill="none"/><path d="M11.2,6.9h0Z" fill="#fff"/><circle cx="11.3" cy="6.9" fill="none"/><path d="M11.1,6.9h0Z" fill="#fff"/><circle cx="11.1" cy="6.9" fill="none"/><path d="M10.9,6.8h0Z" fill="#fff"/><circle cx="11" cy="6.8" fill="none"/><path d="M10.8,6.9h0Z" fill="#fff"/><circle cx="10.9" cy="6.9" fill="none"/><path d="M10.7,6.9h0Z" fill="#fff"/><circle cx="10.7" cy="6.9" fill="none"/><path d="M10.8,7h0Z" fill="#fff"/><path d="M10.8,7h0Z" fill="none"/><path d="M10.8,7.1h0Z" fill="#fff"/><path d="M10.8,7.1h0Z" fill="none"/><path d="M10.8,7.2h0Z" fill="#fff"/><path d="M10.8,7.2h0Z" fill="none"/><path d="M10.7,7.3h0Z" fill="#fff"/><path d="M10.7,7.3h0Z" fill="none"/><path d="M10.7,7.4h0Z" fill="#fff"/><path d="M10.7,7.4h0Z" fill="none"/><path d="M10.6,6.8h0Z" fill="#fff"/><circle cx="10.6" cy="6.8" fill="none"/><path d="M10.5,6.7h0Z" fill="#fff"/><circle cx="10.5" cy="6.7" fill="none"/><path d="M10.3,6.7h0Z" fill="#fff"/><circle cx="10.4" cy="6.7" fill="none"/><path d="M10.2,6.6h0Z" fill="#fff"/><circle cx="10.3" cy="6.6" fill="none"/><path d="M10.1,6.6h0Z" fill="#fff"/><circle cx="10.1" cy="6.6" fill="none"/><path d="M9.9,6.7h0Z" fill="#fff"/><ellipse cx="10" cy="6.7" fill="none"/><path d="M9.8,6.7h0Z" fill="#fff"/><ellipse cx="9.9" cy="6.7" fill="none"/><path d="M7.7,7.8h0Z" fill="#fff"/><circle cx="7.7" cy="7.8" fill="none"/><path d="M7.6,7.6h0Z" fill="#fff"/><circle cx="7.7" cy="7.6" fill="none"/><path d="M7.6,7.5h0Z" fill="#fff"/><circle cx="7.6" cy="7.5" fill="none"/><path d="M7.6,7.4h0Z" fill="#fff"/><circle cx="7.6" cy="7.4" fill="none"/><path d="M7.6,7.3h0Z" fill="#fff"/><circle cx="7.7" cy="7.3" fill="none"/><path d="M7.7,7.2h0Z" fill="#fff"/><circle cx="7.7" cy="7.2" fill="none"/><path d="M7.8,7.1h0Z" fill="#fff"/><circle cx="7.8" cy="7.1" fill="none"/><path d="M7.9,7h0Z" fill="#fff"/><ellipse cx="7.9" cy="7" fill="none"/><path d="M8,6.9H8Z" fill="#fff"/><circle cx="8" cy="6.9" fill="none"/><path d="M8.1,6.9h0Z" fill="#fff"/><circle cx="8.2" cy="6.9" fill="none"/><path d="M8.3,6.9h0Z" fill="#fff"/><circle cx="8.3" cy="6.9" fill="none"/><path d="M8.4,6.8h0Z" fill="#fff"/><circle cx="8.4" cy="6.8" fill="none"/><path d="M8.5,6.9h0Z" fill="#fff"/><circle cx="8.6" cy="6.9" fill="none"/><path d="M8.7,6.9h0Z" fill="#fff"/><circle cx="8.7" cy="6.9" fill="none"/><path d="M8.6,7h0Z" fill="#fff"/><path d="M8.6,7h0Z" fill="none"/><path d="M8.6,7.1h0Z" fill="#fff"/><path d="M8.6,7.1h0Z" fill="none"/><path d="M8.6,7.2h0Z" fill="#fff"/><path d="M8.6,7.2h0Z" fill="none"/><path d="M8.6,7.3h0Z" fill="#fff"/><path d="M8.6,7.3h0Z" fill="none"/><path d="M8.7,7.4h0Z" fill="#fff"/><path d="M8.7,7.4h0Z" fill="none"/><path d="M8.7,6.8h0Z" fill="#fff"/><circle cx="8.8" cy="6.8" fill="none"/><path d="M8.9,6.7h0Z" fill="#fff"/><circle cx="8.9" cy="6.7" fill="none"/><path d="M9,6.7H9Z" fill="#fff"/><circle cx="9" cy="6.7" fill="none"/><path d="M9.1,6.6h0Z" fill="#fff"/><circle cx="9.2" cy="6.6" fill="none"/><path d="M9.3,6.6h0Z" fill="#fff"/><circle cx="9.3" cy="6.6" fill="none"/><path d="M9.4,6.7h0Z" fill="#fff"/><circle cx="9.4" cy="6.7" fill="none"/><path d="M9.5,6.7h0Z" fill="#fff"/><circle cx="9.6" cy="6.7" fill="none"/><path d="M8.5,9.3H8.3v.3h.1v.6H8.2v.3H9.3v-.3H9.2V9.8h.1V9.5H8.8V9.2H8.7v.3H8.5Zm-.2,1.3h0Zm0-.1h0Zm0-.1h0Zm0-.1h0Zm0-.1h0Zm.1-.1h0Zm0-.1h0Zm0-.1h0Zm0-.1h0Zm0-.1h0Zm0-.1h0Zm0-.1h0Zm-.1-.1h0Zm0-.1h0Zm0-.1h0Zm0-.1h0Zm.1-.1h0Zm.3-.1h0Zm0-.1h0Zm0-.1h0Zm0-.1h0Zm-.1-.1h0Zm-.2.3h0Zm-.1-.1h0Zm0,1.3h0Zm0-.1h0Zm-.1,0h0Zm.1.1h0Zm.1.1h0Zm0-.1h0Zm0-.2h0Zm0-.1h0Zm-.1.2h0Zm-.1,0h0Zm.3-.1h0Zm.1,0h0Zm-.2-.1h0Zm.1,0h0Zm.1,0h0Zm-.1,0h0Zm.1-.2h0Zm0-.1h0Zm-.1-.1h0Zm.1-.1h0Zm-.1,0h0Zm-.1,0h0Zm-.1-.1h0Zm.1,0h0Zm.1,0h0Zm.1-.1h0Zm-.1,0h0Zm-.1,0h0Zm-.1-.1h0Zm.3,0h0Zm-.1-.1h0Zm.6,0h0Zm.1-.1h0Zm0,1.3h0Zm0-.1h0Zm.1,0h0Zm-.1.1h0Zm-.1.1H9Zm0-.1H9Zm0-.2H9Zm0-.1H9Zm.1.2h0Zm.1,0h0ZM9,10.4H9Zm-.1,0h0Zm.2-.1h0Zm-.1,0H9Zm-.1,0h0Zm.1,0h0Zm-.1-.2h0Zm0-.1h0Zm.1-.1h0Zm-.1-.1h0Zm.1,0H9Zm.1,0h0Zm.1-.1h0ZM9,9.7H9Zm-.1,0h0Zm-.1-.1h0Zm.1,0H9Zm.1,0h0Zm.1-.1h0Zm-.3,0h0ZM9,9.4H9Zm-.3.8h0Zm0-.3h0Zm0,.1h0Zm0-.3h0Zm0-.1h0Zm0-.2h0Zm0-.1h0Zm-.3.1h0Zm.3-.2h0Zm.3.2H9Z" fill="#c1b020"/><path d="M8.2,10.7v-.3h.2V9.8H8.3V9.5h.1V9.3h.3V9.2H8.6V9.1h.3v.2H8.8v.3h.1V9.3h.3v.3H9.2v.5h.1v.3Zm.9,0h0Zm.1-.1h0Zm-.1-.1h0Zm-.1-.1h0ZM9,10.3H9Zm.1-.1h0ZM9,10.2H9Zm-.2-.1h0Zm-.5,0h0Zm.4-.1h0Zm-.4,0h0Zm.5-.1h0Zm-.5,0h0Zm.5-.1h0Zm-.5,0h0Zm.7-.1h0Zm.1-.1h0Zm-.1-.1h0Zm.1-.1h0Zm-.8,0h0Zm-.1-.1h0ZM9,9.4H9Zm-.5,0h0Zm.3-.2h0Z"/><path d="M8.9,10.6v-.2s0-.1-.2-.1-.2.1-.2.1v.2Z" fill="#c1b020"/><path d="M9,10.7H8.6v-.2s0-.2.2-.2.2.1.2.2v.2Zm-.2-.3c-.2,0-.2.1-.2.1v.2h.3v-.2s0-.1-.2-.1Z"/><path d="M8.6,10.5h0Z" fill="#c1b020"/><path d="M8.7,10.5h0Z"/><path d="M8.9,10.5h0Z" fill="#c1b020"/><path d="M8.9,10.5h0Z"/><path d="M8.8,10.4h0Z" fill="#c1b020"/><path d="M8.8,10.4h0Z"/><path d="M8.6,10.2V10H8.4v.2Z" fill="#c1b020"/><path d="M8.6,10.2H8.4V10c0-.1.2-.1.2,0v.2Zm-.1-.3H8.4v.2h.2V10Z"/><path d="M8.9,10.2V10h.2v.2Z" fill="#c1b020"/><path d="M9.1,10.2H8.9V10c0-.1.2-.1.2,0v.2ZM9,9.9H8.9v.2h.2V10Z"/><polygon points="9.1 9.7 9.1 9.5 8.9 9.5 9 9.7 9.1 9.7" fill="#c1b020"/><path d="M9.1,9.7H9V9.5h.2v.2Zm0-.2H8.9v.2h.1V9.5Z"/><polygon points="8.7 9.7 8.7 9.5 8.8 9.5 8.8 9.7 8.7 9.7" fill="#c1b020"/><path d="M8.8,9.7H8.7V9.5h.2v.2Zm0-.2H8.7v.2h.1V9.5Z"/><polygon points="8.6 9.7 8.6 9.5 8.4 9.5 8.4 9.7 8.6 9.7" fill="#c1b020"/><path d="M8.6,9.7H8.4V9.5h.2v.2Zm0-.2H8.4v.2h.1V9.5Z"/><path d="M8.9,10.6v-.2H8.6v.2Z" fill="#2f2aec"/><path d="M8.6,10.1V10H8.5v.2Z" fill="#2f2aec"/><path d="M8.9,10.1V10h.2v.2Z" fill="#2f2aec"/><path d="M9.1,11a.6.6,0,1,1,.6.7.7.7,0,0,1-.6-.7Z" fill="#9d0025"/><path d="M9.7,11.7a.7.7,0,1,1,.6-.7.7.7,0,0,1-.6.7Zm0-1.4a.7.7,0,1,0,.6.7.7.7,0,0,0-.6-.7Z"/><g clip-path=""><path d="M9.3,11a.4.4,0,1,1,.4.5.5.5,0,0,1-.4-.5Z" fill="#3057bb"/></g><path d="M9.7,11.5a.5.5,0,1,1,.5-.5.5.5,0,0,1-.5.5Zm0-1a.5.5,0,1,0,.4.5.5.5,0,0,0-.4-.5Z"/><path d="M9.5,10.6h0Z" fill="#c1b020"/><path d="M9.5,11h0s0-.1,0-.1H9.4c0-.1.1-.1.1-.1h0Z"/><rect x="9.4" y="10.9" width="0.2" height="0.04" fill="#c1b020"/><polygon points="9.6 11 9.4 11 9.4 10.9 9.6 10.9 9.6 11 9.6 11"/><path d="M9.9,10.6h0Z" fill="#c1b020"/><path d="M9.9,11h.1c0-.1-.1-.1-.1,0H9.8c0-.1.1-.1.1-.1h0Z"/><rect x="9.8" y="10.9" width="0.2" height="0.04" fill="#c1b020"/><polygon points="10 11 9.8 11 9.8 10.9 10 10.9 10 11 10 11"/><path d="M9.7,11h0Z" fill="#c1b020"/><path d="M9.7,11.4h.1c0-.1-.1-.1-.1,0H9.6c0-.1.1-.1.1-.1h0Z"/><rect x="9.6" y="11.3" width="0.2" height="0.04" fill="#c1b020"/><polygon points="9.8 11.3 9.6 11.3 9.6 11.3 9.8 11.3 9.8 11.3 9.8 11.3"/><path d="M11,9.1h.1s0,0,0,0H11Z" fill="#c1b020"/><path d="M11,9.3h-.2a.1.1,0,0,1,0,0H11Zm0-.1h0Z"/><polygon points="10.9 9.1 10.9 9.1 10.9 9.1 10.9 9.1 10.9 9.1 10.9 9.1"/><circle cx="10.9" cy="9.1" transform="translate(-3.2 11.1) rotate(-47.8)" fill="none"/><polygon points="10.9 9.1 10.9 9.1 10.9 9.1 10.9 9.1 10.9 9.1 11 9.1 11 9.1 11 9.1 10.9 9.1 10.9 9.1"/><polygon points="10.9 9.1 10.9 9.1 10.9 9.1 10.9 9.1 10.9 9.1 11 9.1 11 9.1 11 9.1 10.9 9.1 10.9 9.1" fill="none"/><polygon points="10.9 9.1 10.9 9.1 10.9 9.1 10.9 9.1 10.9 9.1 10.9 9.1 10.9 9.1 10.9 9.1 10.9 9.1 10.9 9.1"/><polygon points="10.9 9.1 10.9 9.1 10.9 9.1 10.9 9.1 10.9 9.1 10.9 9.1 10.9 9.1 10.9 9.1 10.9 9.1 10.9 9.1" fill="none"/><path d="M10.8,9.1h0Z"/><circle cx="10.8" cy="9.1" transform="matrix(0.58, -0.81, 0.81, 0.58, -2.84, 12.6)" fill="none"/><polygon points="11 9.2 11 9.2 11 9.2 11 9.2 11 9.2 11 9.2"/><circle cx="11" cy="9.2" transform="translate(-2.9 12.4) rotate(-53.1)" fill="none"/><polygon points="11 9.2 11 9.2 11 9.2 11 9.2 11 9.2 11 9.2 11 9.2 11 9.2 11 9.2 11 9.2"/><polygon points="11 9.2 11 9.2 11 9.2 11 9.2 11 9.2 11 9.2 11 9.2 11 9.2 11 9.2 11 9.2" fill="none"/><polygon points="11 9.2 11 9.2 11 9.2 11 9.2 11 9.2 11 9.2"/><circle cx="11" cy="9.2" transform="translate(-3.2 11.2) rotate(-47.8)" fill="none"/><polygon points="10.9 9 10.9 9 10.9 9 10.9 9 10.9 9 10.9 9 10.9 9" fill="#c1b020"/><polygon points="10.9 9 10.9 9 10.9 9 10.9 9 10.9 9 10.9 9 10.9 9 10.9 9" fill="none"/><polygon points="10.9 9 10.9 9 10.9 9 10.9 9 10.9 9 10.9 9 10.9 9" fill="#c1b020"/><polygon points="10.9 9 10.9 9 10.9 9 10.9 9 10.9 9 10.9 9 10.9 9 10.9 9" fill="none"/><polygon points="10.9 9 10.9 9.1 10.9 9 10.9 9 10.9 9 10.9 9 10.9 9" fill="#c1b020"/><polygon points="10.9 9 10.9 9.1 10.9 9 10.9 9 10.9 9 10.9 9 10.9 9 10.9 9" fill="none"/><path d="M10.9,9h0Z" fill="#c1b020"/><circle cx="10.9" cy="9" transform="translate(-2.5 13.6) rotate(-58.3)" fill="none"/><path d="M10.8,9h0s0,0,0,0Z" fill="#c1b020"/><path d="M10.8,9h0s0,0,0,0Z" fill="none"/><polygon points="10.9 9 10.8 9 10.8 9 10.8 9 10.8 9 10.8 9 10.9 9" fill="#c1b020"/><polygon points="10.9 9 10.8 9 10.8 9 10.8 9 10.8 9 10.8 9 10.9 9 10.9 9" fill="none"/><path d="M10.8,9h0Z" fill="#c1b020"/><circle cx="10.8" cy="9" transform="translate(-1 16.6) rotate(-72.6)" fill="none"/><polygon points="11 9 11 9 11 9.1 11 9.1 11 9.1 11 9.1 11 9" fill="#c1b020"/><polygon points="11 9 11 9 11 9.1 11 9.1 11 9.1 11 9.1 11 9 11 9" fill="none"/><polygon points="11 9 11 9.1 11 9.1 11 9.1 11 9.1 11 9 11 9" fill="#c1b020"/><polygon points="11 9 11 9.1 11 9.1 11 9.1 11 9.1 11 9 11 9 11 9" fill="none"/><polygon points="11 9.1 11 9.1 11 9.1 11 9.1 11 9.1 11 9.1 11 9.1" fill="#c1b020"/><polygon points="11 9.1 11 9.1 11 9.1 11 9.1 11 9.1 11 9.1 11 9.1 11 9.1" fill="none"/><path d="M11,9.1h0a0,0,0,0,1,0,0Z" fill="#c1b020"/><circle cx="11" cy="9.1" transform="translate(-2.8 12.7) rotate(-54.2)" fill="none"/><polygon points="11.1 9.1 11.1 9.1 11.1 9.1 11.1 9.1 11.1 9.1 11.1 9.1 11.1 9.1" fill="#c1b020"/><polygon points="11.1 9.1 11.1 9.1 11.1 9.1 11.1 9.1 11.1 9.1 11.1 9.1 11.1 9.1 11.1 9.1" fill="none"/><polygon points="11.1 9.2 11.1 9.2 11.1 9.1 11.1 9.1 11.1 9.1 11.1 9.2 11.1 9.2" fill="#c1b020"/><polygon points="11.1 9.2 11.1 9.2 11.1 9.1 11.1 9.1 11.1 9.1 11.1 9.2 11.1 9.2 11.1 9.2" fill="none"/><polygon points="11 9.1 11 9.1 11.1 9.1 11.1 9.1 11.1 9.1 11.1 9.1 11 9.1" fill="#c1b020"/><polygon points="11 9.1 11 9.1 11.1 9.1 11.1 9.1 11.1 9.1 11.1 9.1 11 9.1 11 9.1" fill="none"/><path d="M11.1,9.2h0a0,0,0,0,0,0,0Z" fill="#c1b020"/><circle cx="11.1" cy="9.1" transform="translate(-3.2 11) rotate(-46.9)" fill="none"/><path d="M11.1,9.2h0Z" fill="#c1b020"/><path d="M11.1,9.2h0Z" fill="none"/><polygon points="11.1 9.2 11.1 9.2 11.1 9.2 11.1 9.2 11.1 9.2 11.1 9.2 11.1 9.2" fill="#c1b020"/><polygon points="11.1 9.2 11.1 9.2 11.1 9.2 11.1 9.2 11.1 9.2 11.1 9.2 11.1 9.2 11.1 9.2" fill="none"/><path d="M11.1,9.2h0Z" fill="#c1b020"/><circle cx="11.1" cy="9.2" transform="translate(-3.3 8.2) rotate(-35.6)" fill="none"/><polygon points="12.7 8.3 12.7 8.4 12.6 8.4 12.6 8.3 12.6 8.3 12.6 8.3 12.6 8.3 12.6 8.3 12.6 8.3 12.6 8.2 12.6 8.2 12.6 8.3 12.7 8.3 12.7 8.3 12.6 8.3 12.6 8.3 12.7 8.3 12.7 8.3" fill="none"/></g></g></g></svg>