<svg xmlns="http://www.w3.org/2000/svg" xmlns:xlink="http://www.w3.org/1999/xlink" viewBox="0 0 33.6 19.6"><defs><clipPath id="a"><rect width="33.6" height="19.58" fill="none"/></clipPath></defs><title>HRV</title><g clip-path=""><rect y="6.5" width="33.6" height="6.53" fill="#fff"/><rect y="13.1" width="33.6" height="6.53" fill="#1e2788"/><rect width="33.6" height="6.52" fill="#cb0028"/><g clip-path=""><path d="M12.9,6.4a11.6,11.6,0,0,1,3.8-.7,11.5,11.5,0,0,1,3.9.7l1-2L21,3.3l-1.2.5-.9-.9-1.1.7-1-.8-1,.8-1.1-.7-.8,1-1.2-.5-.7,1.2Z" fill="#fff"/><path d="M20.7,6.5h0a11.5,11.5,0,0,0-3.9-.7,11.7,11.7,0,0,0-3.9.7l-1-2,.7-1.2,1.3.5.8-1,1.2.6.9-.8,1.1.8,1.1-.7.9.9,1.2-.5.7,1.2-1,2ZM12.6,3.3l-.6,1.2,1,1.9a10.9,10.9,0,0,1,3.8-.7,11.7,11.7,0,0,1,3.9.7l1-1.9-.7-1.2-1.2.5-.9-.9-1.1.7-1.1-.8-.9.8-1.2-.7-.8,1-1.3-.5Z" fill="#cb0028"/><path d="M19.2,5.9l.6-2,1.2-.5.6,1.1-.9,1.9-1.5-.4Z" fill="#3a7aa1"/><path d="M20.6,6.3h0l-1.5-.4.6-2,1.2-.5.6,1.1-.9,1.9Zm.3-2.9-1.2.5-.6,2,1.5.4.9-1.8-.6-1.1Z" fill="#4c73d5"/><path d="M16,5.7l-.2-2,1-.8,1,.8-.2,2Z" fill="#3a7aa1"/><path d="M17.6,5.7H16l-.2-2.1,1-.8,1,.8-.2,2.1Zm-.8-2.8-.9.8.2,2h1.6l.2-2-1-.8Z" fill="#4c73d5"/><path d="M12.9,6.3l-.9-1.9.6-1,1.2.5.5,1.9-1.5.4Z" fill="#3a7aa1"/><path d="M12.9,6.3,12,4.5l.6-1,1.2.5.5,1.9-1.5.4Zm-.3-2.9-.6,1,.9,1.9,1.4-.4L13.9,4l-1.2-.5Z" fill="#4c73d5"/><path d="M12.7,5.4h.7a1,1,0,0,0,.4-.4.5.5,0,0,1-.3.6.7.7,0,0,1-.9-.2Z" fill="#fff"/><path d="M13.3,5.7a.6.6,0,0,1-.5-.3h.7a1,1,0,0,0,.4-.4h0a.8.8,0,0,1-.4.4h-.7a.7.7,0,0,0,.9.2.5.5,0,0,0,.3-.5.5.5,0,0,1-.3.5Z" fill="#fff"/><polygon points="17 3.9 17 4 17 4.1 16.9 4.1 16.9 4.2 16.9 4.2 16.9 4.2 16.9 4.3 16.9 4.3 16.9 4.3 17 4.4 17 4.4 17.1 4.4 17.1 4.5 17.2 4.5 17.2 4.5 17.4 4.5 17.4 4.4 17.4 4.4 17.5 4.4 17.5 4.3 17.6 4.3 17.6 4.2 17.6 4.2 17.6 4.2 17.6 4.1 17.6 4.1 17.5 4 17.5 3.9 17.4 3.9 17.4 3.8 17.5 3.8 17.5 3.7 17.4 3.7 17.4 3.8 17.3 3.8 17.3 3.8 17.4 3.8 17.3 3.8 17.3 3.8 17.2 3.7 17.1 3.8 17.1 3.8 17.1 3.8 17.1 3.8 17 3.8 17 3.8 17 3.8 17 3.9 17 3.9" fill="#fbfc2b"/><path d="M17.2,4.5h0Zm0,0h-.3s0,0,0,.1h.3Z" fill="#c2a21f"/><path d="M17.5,4.3h0Z" fill="none"/><path d="M17.6,4.2h0Z" fill="none"/><path d="M16.9,4.2h0Z" fill="#c2a21f"/><path d="M17.1,4.5H17a.5.5,0,0,1,0,.1h0v.2h.1Zm.2,0h0s0-.1,0-.1h.1V4h-.1Zm.1-.3h0Zm0-.3h0v.2h0Z" fill="#c2a21f"/><path d="M17.2,4.3h0Z" fill="#613f21"/><path d="M17.2,4.3h0Z" fill="#c2a21f"/><path d="M17.4,4h0Z" fill="#c2a21f"/><path d="M17.2,4.2h0Zm.1-.1h0Z" fill="#c2a21f"/><path d="M17.1,4.1h0Z" fill="#613f21"/><path d="M17.3,4.1h0Z" fill="#613f21"/><path d="M17.1,4h0Z" fill="#c2a21f"/><polygon points="17.1 3.8 17 3.8 17 3.8 17 3.8 17.1 3.8 17.1 3.8" fill="#c2a21f"/><polygon points="17.1 3.9 17 3.9 16.9 3.7 17.1 3.8 17.1 3.9 17.1 3.9" fill="#c2a21f"/><polygon points="17.4 3.8 17.5 3.7 17.4 3.7 17.4 3.8 17.3 3.8 17.4 3.8" fill="#c2a21f"/><polygon points="17.4 3.8 17.5 3.7 17.4 3.7 17.4 3.8 17.3 3.8 17.4 3.8" fill="none"/><polygon points="17.3 3.8 17.1 3.8 17.1 3.8 17.2 3.8 17.2 3.8 17.2 3.8 17.2 3.8 17.3 3.8 17.3 3.8" fill="#c2a21f"/><polygon points="17.1 3.8 17.1 3.8 17.2 3.8 17.2 3.8 17.2 3.8 17.2 3.8 17.3 3.8 17.3 3.8 17.3 3.8 17.1 3.8 17.1 3.8" fill="#c2a21f"/><polygon points="17.3 3.8 17.2 3.8 17.2 3.7 17.3 3.8" fill="#c2a21f"/><polygon points="17.3 3.8 17.2 3.8 17.2 3.7 17.3 3.8" fill="none"/><polygon points="17.2 3.7 17.2 3.8 17.1 3.8 17.2 3.7" fill="#c2a21f"/><polygon points="17.2 3.7 17.2 3.8 17.1 3.8 17.2 3.7" fill="none"/><polygon points="16.9 4.3 16.9 4.2 16.9 4.2 16.9 4.2 16.9 4.3" fill="#c2a21f"/><polygon points="16.9 4.3 16.9 4.2 16.9 4.2 16.9 4.2 16.9 4.3" fill="none"/><polygon points="16.9 4.3 17 4.2 16.9 4.3 16.9 4.3" fill="#c2a21f"/><polygon points="17 4.3 16.9 4.3 17 4.2 16.9 4.3 16.9 4.3 16.9 4.3 17 4.2 17 4.3 17 4.3" fill="#c2a21f"/><polygon points="16.1 4 16.1 4 16.1 4.1 16 4.1 16 4.2 16 4.2 16 4.3 16 4.3 16 4.3 16.1 4.3 16.1 4.4 16.1 4.4 16.2 4.5 16.2 4.5 16.3 4.5 16.3 4.5 16.5 4.5 16.5 4.5 16.5 4.4 16.6 4.4 16.6 4.3 16.7 4.3 16.7 4.2 16.7 4.2 16.7 4.2 16.7 4.2 16.7 4.1 16.6 4 16.6 3.9 16.5 3.9 16.5 3.9 16.6 3.8 16.6 3.8 16.5 3.8 16.5 3.8 16.5 3.8 16.5 3.8 16.5 3.9 16.4 3.9 16.4 3.8 16.3 3.7 16.3 3.8 16.2 3.9 16.2 3.9 16.2 3.8 16.1 3.8 16.1 3.8 16.1 3.8 16.1 3.9 16.1 4" fill="#fbfc2b"/><path d="M16.3,4.5h0Zm0,0h0a.2.2,0,0,1,0,0H16s0,0,0,.1h.3Z" fill="#c2a21f"/><path d="M16.6,4.3h0Z" fill="none"/><path d="M16.7,4.2h0Z" fill="none"/><path d="M16,4.2h0Z" fill="#c2a21f"/><path d="M16.2,4.5h-.1v.2h.1Zm.2,0h.1V4h-.1Zm.1-.6h0v.2h0Z" fill="#c2a21f"/><path d="M16.3,4.3h0Z" fill="#613f21"/><path d="M16.3,4.4h0Z" fill="#c2a21f"/><path d="M16.5,4.1h0Z" fill="#c2a21f"/><path d="M16.3,4.2h0Zm.1-.1h0Z" fill="#c2a21f"/><path d="M16.3,4.1h0Z" fill="#613f21"/><path d="M16.4,4.1h0Z" fill="#613f21"/><path d="M16.2,4h0Z" fill="#c2a21f"/><polygon points="16.2 3.9 16.2 3.9 16.1 3.8 16.1 3.8 16.2 3.8 16.2 3.9" fill="#c2a21f"/><polygon points="16.2 3.9 16.2 3.9 16 3.8 16.2 3.8 16.2 3.9 16.2 3.9" fill="#c2a21f"/><polygon points="16.5 3.8 16.6 3.8 16.5 3.8 16.5 3.8 16.5 3.8 16.5 3.8" fill="#c2a21f"/><polygon points="16.5 3.8 16.6 3.8 16.5 3.8 16.5 3.8 16.5 3.8 16.5 3.8" fill="none"/><polygon points="16.4 3.9 16.3 3.9 16.3 3.8 16.3 3.8 16.3 3.8 16.3 3.8 16.4 3.8 16.4 3.8 16.4 3.9" fill="#c2a21f"/><polygon points="16.2 3.9 16.2 3.8 16.3 3.8 16.3 3.8 16.3 3.8 16.3 3.8 16.4 3.8 16.4 3.9 16.4 3.9 16.2 3.9 16.2 3.9" fill="#c2a21f"/><polygon points="16.4 3.8 16.4 3.8 16.3 3.8 16.4 3.8" fill="#c2a21f"/><polygon points="16.4 3.8 16.4 3.8 16.3 3.8 16.4 3.8" fill="none"/><polygon points="16.3 3.8 16.3 3.8 16.3 3.8 16.3 3.8" fill="#c2a21f"/><polygon points="16.3 3.8 16.3 3.8 16.3 3.8 16.3 3.8" fill="none"/><polygon points="16 4.3 16 4.2 16 4.2 16 4.3 16 4.3" fill="#c2a21f"/><polygon points="16 4.3 16 4.2 16 4.2 16 4.3 16 4.3" fill="none"/><polygon points="16.1 4.3 16.1 4.3 16 4.3 16.1 4.3" fill="#c2a21f"/><polygon points="16.1 4.4 16 4.3 16.1 4.3 16 4.3 16.1 4.3 16 4.3 16.1 4.3 16.1 4.4 16.1 4.4" fill="#c2a21f"/><path d="M17.6,5.7l.2-2.1L18.9,3l.8.9-.6,2-1.5-.2Z" fill="#1e2788"/><path d="M19.1,5.9h0l-1.5-.2.2-2.1L18.9,3l.9.9-.6,2ZM18.9,3l-1.1.6-.2,2,1.5.2.6-2L18.9,3Z" fill="#160080"/><path d="M16.6,4.7h0Z" fill="#fbfc2b"/><path d="M16.8,5.3h0Zm0,0h-.3s0,0,0,.1h.3Z" fill="#c2a21f"/><path d="M17.1,5.1h0Z" fill="none"/><path d="M17.1,5h0Z" fill="none"/><polygon points="16.5 5 16.5 5 16.6 5 16.6 5.1 16.6 5.2 16.6 5.2 16.6 5.1 16.7 5.1 16.7 5.2 16.7 5.2 16.7 5.3 16.7 5.3 16.8 5.2 16.8 5.2 16.8 5.3 16.8 5.2 16.9 5.2 16.9 5.3 17 5.3 16.9 5.2 16.9 5.2 17 5.1 17 5.2 17 5.2 17 5.1 17 5 17.1 4.9 17.1 4.9 17.1 4.9 17.1 4.8 17 4.7 17 4.7 17 4.7 16.9 4.7 17 4.8 17 4.8 17 4.8 17 5 17 5 16.9 5 16.9 5.1 16.9 5.1 16.9 5.2 16.8 5.2 16.8 5.1 16.8 5.1 16.7 5.1 16.7 5 16.7 5 16.7 5 16.6 5 16.6 4.9 16.6 4.9 16.6 4.8 16.6 4.8 16.6 4.8 16.6 4.8 16.6 4.8 16.6 4.7 16.6 4.7 16.5 4.8 16.5 4.8 16.5 4.9 16.4 4.9 16.5 5" fill="#c2a21f"/><path d="M16.7,5.3h-.1a.2.2,0,0,1,0,.1h0v.2h.1Zm.2,0H17A.2.2,0,0,1,17,5h0V4.8h-.1Zm.1-.6h0V5h0Z" fill="#c2a21f"/><path d="M16.8,5.1h0Z" fill="#613f21"/><path d="M16.7,5.1h0Z" fill="#c2a21f"/><path d="M17,4.8h0Z" fill="#c2a21f"/><path d="M16.7,5h0Zm.1-.1h0Z" fill="#c2a21f"/><path d="M16.7,4.9h0Z" fill="#613f21"/><path d="M16.9,4.9h0Z" fill="#613f21"/><path d="M16.6,4.8h0Z" fill="#c2a21f"/><polygon points="16.7 4.6 16.6 4.6 16.6 4.6 16.6 4.6 16.6 4.6 16.7 4.6" fill="#c2a21f"/><polygon points="16.7 4.6 16.6 4.6 16.5 4.5 16.6 4.6 16.7 4.6 16.7 4.6" fill="#c2a21f"/><polygon points="16.9 4.6 17 4.5 17 4.5 17 4.6 16.9 4.6 16.9 4.6" fill="#c2a21f"/><polygon points="16.9 4.6 17 4.5 17 4.5 17 4.6 16.9 4.6 16.9 4.6" fill="none"/><polygon points="16.9 4.6 16.7 4.6 16.7 4.6 16.8 4.6 16.8 4.6 16.8 4.6 16.8 4.6 16.9 4.6 16.9 4.6" fill="#c2a21f"/><polygon points="16.7 4.6 16.7 4.6 16.8 4.6 16.7 4.6 16.8 4.6 16.8 4.6 16.9 4.6 16.9 4.6 16.9 4.6 16.7 4.6 16.7 4.6" fill="#c2a21f"/><polygon points="16.9 4.6 16.8 4.6 16.8 4.5 16.9 4.6" fill="#c2a21f"/><polygon points="16.9 4.6 16.8 4.6 16.8 4.5 16.9 4.6" fill="none"/><polygon points="16.8 4.5 16.8 4.6 16.7 4.6 16.8 4.5" fill="#c2a21f"/><polygon points="16.8 4.5 16.8 4.6 16.7 4.6 16.8 4.5" fill="none"/><polygon points="16.5 5.1 16.5 5 16.5 5 16.4 5 16.5 5.1" fill="#c2a21f"/><polygon points="16.5 5.1 16.5 5 16.5 5 16.4 5 16.5 5.1" fill="none"/><polygon points="16.5 5.1 16.6 5 16.5 5.1 16.5 5.1" fill="#c2a21f"/><polygon points="16.5 5.1 16.5 5.1 16.5 5 16.5 5.1 16.5 5.1 16.5 5.1 16.5 5 16.5 5.1 16.5 5.1" fill="#c2a21f"/><path d="M17.9,5.3h0Z" fill="#cb0028"/><path d="M17.8,5.4h0Z" fill="#d30028"/><path d="M18.1,5.5h0Z" fill="#cb0028"/><path d="M18.2,5.6h0Z" fill="#d30028"/><path d="M18.6,5.3h0Z" fill="#cb0028"/><path d="M18.6,5.4h0Z" fill="#d30028"/><path d="M18.9,5.4h0Z" fill="#cb0028"/><path d="M18.9,5.5h0Z" fill="#d30028"/><path d="M18.1,4.1h0Z" fill="#cb0028"/><path d="M18.9,4.3h0Z" fill="#ba0019"/><path d="M18.2,4h0Z" fill="#82373b"/><path d="M18.2,4h0Z" fill="none"/><path d="M18.4,4.2h0Z" fill="#82373b"/><path d="M18.4,4.2h0Z" fill="none"/><path d="M18.4,4h0a.3.3,0,0,1,0-.1h0Z" fill="#82373b"/><path d="M18.4,4h0a.3.3,0,0,1,0-.1h0Z" fill="none"/><polygon points="18.6 4 18.6 4.1 18.6 4 18.6 4" fill="#82373b"/><polygon points="18.6 4 18.6 4.1 18.6 4 18.6 4" fill="none"/><path d="M18.5,4.2a.2.2,0,0,0,0,0h0Z" fill="#82373b"/><path d="M18.5,4.2a.2.2,0,0,0,0,0h0Z" fill="none"/><path d="M18.7,4.2h0Z" fill="#82373b"/><path d="M18.7,4.2h0Z" fill="none"/><path d="M18.7,4.1h0Z" fill="#82373b"/><path d="M18.7,4.1h0Z" fill="none"/><polygon points="18.9 4.1 18.9 4.1 18.9 4.1 18.9 4.1 18.9 4.1 18.9 4.1" fill="#82373b"/><polygon points="18.9 4.1 18.9 4.1 18.9 4.1 18.9 4.1 18.9 4.1" fill="none"/><path d="M18.8,4.2h0Z" fill="#82373b"/><path d="M18.9,4.3h0Z" fill="#83353b"/><polygon points="19 4.2 19 4.3 19 4.3 19 4.2 19 4.2" fill="#82373b"/><polygon points="19 4.2 19 4.3 19 4.3 19 4.2 19 4.2" fill="none"/><path d="M18.1,4.1H18s0,.1,0,.1h0A.2.2,0,0,0,18,5h0V5.1h.2V5.1H19a.3.3,0,0,1,0,.1h.2a.2.2,0,0,1,0-.1h0s0-.1,0-.1h-.8V4.4h0Z" fill="#fbfc2b"/><path d="M18.3,5.5h-.1V5.2H18V5.1h.1a0,0,0,0,1,0,.1h0Zm.8,0h0a.4.4,0,0,0,0-.1h0a.3.3,0,0,1,0,.2h.3s0-.1,0-.1h-.8V4.4h-.2l.2.2h.2l-.2.2h.9s0,.1,0,.1h0s0,0,0,.1H19Zm-.4-.2h.1v.2ZM18,5.1h0a.2.2,0,0,1,0-.1h0A.2.2,0,0,0,18,5h0Zm0-.3s0,0,0,0h0Zm.1-.2h0Z" fill="#e8d629"/><path d="M18.1,4.3h0Z" fill="#624e0f"/><path d="M18.1,4.3h0Z" fill="#624e0f"/><path d="M18.1,4.8h0Z" fill="#c2a21f"/><path d="M18.1,4.8h0Z" fill="none"/><path d="M18.4,4.8h0Z" fill="#c2a21f"/><path d="M18.4,4.8h0Z" fill="none"/><path d="M18.6,4.8h0Z" fill="#c2a21f"/><path d="M18.6,4.8h0Z" fill="none"/><path d="M18.5,5h0Z" fill="#c2a21f"/><path d="M18.5,5h.1s0,.1,0,.1Z" fill="#c2a21f"/><path d="M18.7,5h0a.3.3,0,0,1,0,.2Z" fill="#c2a21f"/><path d="M18.7,5h0a.2.2,0,0,1,0,.2Z" fill="#c2a21f"/><path d="M18.8,4.7h0Z" fill="#c2a21f"/><path d="M18.8,4.7h0Z" fill="none"/><path d="M18.9,4.8h0Z" fill="#c2a21f"/><path d="M18.9,4.8h0Z" fill="none"/><path d="M19,4.7h0Z" fill="#c2a21f"/><path d="M19.1,4.9h0Z" fill="#c2a21f"/><path d="M19.5,4.6l.9.2.8.3-.5.9L20,5.8l-.8-.2Z" fill="#fff"/><path d="M20.8,6.1h0l-.7-.2H20l-.5-.2h-.2l.3-1,.9.2.8.3-.5.9ZM19.5,4.6l-.3,1h.2l.5.2h.1l.6.2.5-.9-.8-.3-.9-.2Z" fill="#fff"/><path d="M19.5,4.8l.8.2.8.3-.3.5-.8-.3-.8-.2Z" fill="#cb0028"/><path d="M20.9,5.9h0l-.8-.3-.8-.2.2-.6.9.2.8.3L20.3,5l-.8-.2v.6l.8.2.8.3.3-.5h0l-.3.5Z" fill="#d30028"/><path d="M19.5,5.1h1.1a.1.1,0,0,0,0-.1H19.5Z"/><path d="M20.7,5.7h0a.1.1,0,0,0,0-.1h0c0,.1,0,.1,0,.1H19.5s0,.1,0,.1h1.1v.2Zm-.3-.2h0Zm0-.1h0Zm-.8-.1h0Z"/><path d="M20.1,5.4h0Z" fill="#fff"/><path d="M20.3,5.4Z"/><path d="M14.4,5.9l-.5-1.9.8-1,1.1.6L16,5.7l-1.6.2Z" fill="#1e2788"/><path d="M14.4,5.9h0l-.5-1.9.8-1,1.1.6L16,5.7l-1.6.2ZM14.7,3l-.8,1,.5,1.9L16,5.7l-.2-2L14.7,3Z" fill="#160080"/><polygon points="12.5 4.3 12.7 4.4 12.7 4.7 12.9 4.6 13.1 4.7 13.2 4.5 13.4 4.4 13.2 4.2 13.2 4 13 4.1 12.8 3.9 12.8 4.2 12.5 4.3" fill="#fbfc2b"/><path d="M13.1,4.7l-.2-.2h-.2V4.4h.1V3.9h.4v.2l.2.2h-.2v.2Zm-.2-.2h.2V4.5h0V4h-.4v.2h0v.3Z" fill="#f4c627"/><path d="M12.5,4.3H13l.2.4h-.2V4.3l-.3.3V4.4Z" fill="#f4c427"/><polygon points="12.8 4.2 13 4.3 12.8 3.9 12.8 4.2" fill="#f4c627"/><path d="M13,4.1v.2l.3-.3Z" fill="#f4c627"/><polygon points="20.3 3.9 20.4 4.2 20.2 4.3 20.4 4.4 20.5 4.7 20.7 4.5 20.9 4.6 20.8 4.3 21 4.2 20.8 4.1 20.7 3.9 20.6 4 20.3 3.9" fill="#fbfc2b"/><path d="M20.5,4.7V4.4h-.3l.2-.2V3.9h.4v.2H21l-.2.2v.2h-.2l-.2.2Zm-.2-.7v.2l-.2.2h.3v.2l.2-.2h.2V4.3l.2-.2h-.2V3.9l-.2.2Z" fill="#f4c627"/><path d="M20.3,3.9l.5.6h-.2V4.4l.2-.2h-.4l.2-.2Z" fill="#f4c627"/><polygon points="20.6 4 20.6 4.3 20.8 3.9 20.6 4" fill="#f4c627"/><path d="M20.8,4.1l-.2.2h.2Z" fill="#f4c627"/><path d="M13.9,3.9l.9-.3h1v.5h-.9l-.9.2Z" fill="#cb0028"/><path d="M14,4.4V4l.9-.3h1v.5h-.9l-.9.2Zm1.8-.8h-1l-.9.3v.4l.9-.2h.9V3.6Z" fill="#d30028"/><path d="M14.1,4.8v.5l.8-.2h.8V4.6H15l-.9.2Z" fill="#cb0028"/><path d="M14.3,5.4h0V4.8l.9-.2h.9v.5h-.8l-.8.2Zm1.3-.8H15l-.9.2v.5l.8-.2h.8V4.6Z" fill="#d30028"/><path d="M12.8,6.5h7.9v5.1a4,4,0,0,1-7.9,0Z" fill="#fff"/><path d="M16.8,15a4.1,4.1,0,0,1-4-3.5v-5h7.9v5.1A4.1,4.1,0,0,1,16.9,15Zm3.9-8.5H12.8v5a4,4,0,0,0,7.9,0V6.5Z" fill="#cb0028"/><path d="M13,6.7h7.6v4.9a3.8,3.8,0,0,1-3.7,3.3A3.9,3.9,0,0,1,13,11.5Z" fill="#cb0028"/><path d="M16.8,14.8A3.9,3.9,0,0,1,13,11.5V6.7h7.6v4.9a3.9,3.9,0,0,1-3.7,3.3Zm3.8-8.2H13v4.8a3.8,3.8,0,0,0,7.5,0V6.7Z" fill="#cb0028"/><rect x="14.5" y="6.7" width="1.5" height="1.62" fill="#fff"/><path d="M19,11.6v1.6h.8a3.7,3.7,0,0,0,.6-1.6Z" fill="#fff"/><path d="M19.9,13.2H19V11.6h1.5a3.6,3.6,0,0,1-.6,1.6ZM19,11.6v1.6h.8a3.6,3.6,0,0,0,.6-1.6H19Z" fill="#fff"/><path d="M17.5,13.2v1.5A3.9,3.9,0,0,0,19,14v-.9Z" fill="#fff"/><path d="M17.5,14.7V13.2H19V14a3.9,3.9,0,0,1-1.5.7ZM19,13.2H17.5v1.5A4,4,0,0,0,19,14v-.9Z" fill="#fff"/><path d="M14.5,13.2V14a4.3,4.3,0,0,0,1.5.7V13.2Z" fill="#fff"/><path d="M16,14.7h0a4.3,4.3,0,0,1-1.5-.7v-.9H16v1.5Zm0-1.5H14.5V14a4.3,4.3,0,0,0,1.5.7V13.2Z" fill="#fff"/><path d="M13,11.6a3.2,3.2,0,0,0,.6,1.6h.9V11.6Z" fill="#fff"/><path d="M14.5,13.2h-.9a3.2,3.2,0,0,1-.6-1.6h1.5v1.6Zm0-1.6H13a3.2,3.2,0,0,0,.6,1.6h.9V11.6Z" fill="#fff"/><rect x="13" y="8.3" width="1.5" height="1.62" fill="#fff"/><rect x="16" y="8.3" width="1.5" height="1.62" fill="#fff"/><rect x="17.5" y="6.7" width="1.5" height="1.62" fill="#fff"/><rect x="19" y="8.3" width="1.5" height="1.62" fill="#fff"/><rect x="14.5" y="9.9" width="1.5" height="1.62" fill="#fff"/><rect x="17.5" y="9.9" width="1.5" height="1.62" fill="#fff"/><rect x="16" y="11.6" width="1.5" height="1.62" fill="#fff"/><path d="M18.3,4.8h-.1v.2Z" fill="#c2a21f"/><path d="M18.3,4.8h-.1v.2Z" fill="#c2a21f"/></g></g></svg>