<svg xmlns="http://www.w3.org/2000/svg" xmlns:xlink="http://www.w3.org/1999/xlink" viewBox="0 0 33.6 19.6"><defs><clipPath id="a" transform="translate(-564.8 -446.8)"><rect x="564.8" y="446.8" width="33.6" height="19.58" fill="none"/></clipPath></defs><title>IRQ</title><g clip-path=""><rect width="33.6" height="6.53" fill="#bd1032"/><rect y="6.5" width="33.6" height="6.52" fill="#fff"/><rect y="13.1" width="33.6" height="6.53" fill="#050505"/><g clip-path=""><path d="M584.4,455.4h0c.2.1.3,0,.4-.1h.3c.1,0,.2-.2.2-.2h0a.2.2,0,0,1-.1.3h-.4c-.1.1-.2.1-.4,0" transform="translate(-564.8 -446.8)" fill="#439b4c"/><path d="M584.8,455v-.3h0c.1,0,.1.1.1.2s0,.2-.1.1" transform="translate(-564.8 -446.8)" fill="#439b4c"/><path d="M580,454.9a.5.5,0,0,0,.3.3h-.2l-1.5,1.5h1.7c0-.4.3-.4.6-.6s.4.2.5.5V458h-4.8a.7.7,0,0,1-.9.5,1,1,0,0,0,.5-.4c.1-.4-.2-.7-.3-1l.5-.3c-.2.6.4.5.9.5s0-.4-.1-.4l.4-.3v.7h3.3c0-.2.1-.5-.1-.5s0,.4-.1.4h-2.6v-.4l.9-.8,1-1" transform="translate(-564.8 -446.8)" fill="#439b4c"/><path d="M586.4,454.9l.5.2v2.2l.4-.2c0,.3.2.6.2.9h-1Z" transform="translate(-564.8 -446.8)" fill="#439b4c"/><path d="M585,455.9l.4-.3v1.6h.2v-1.8c.1-.2.4-.3.4-.4v3h-2.4c0-.6,0-1.3.7-1.2v-.2h-.1l.5-.5v1.1h.3v-1.3m-.9,1.3c0,.1.2.1.2,0h-.2" transform="translate(-564.8 -446.8)" fill="#439b4c"/><path d="M577.2,458.2a.1.1,0,0,1,.1.1c0,.1,0,.2-.1.2a.2.2,0,0,1-.2-.2h.2" transform="translate(-564.8 -446.8)" fill="#439b4c"/><path d="M581.7,454.9l.5.2v2.2l.4-.2c0,.3.2.6.2.9h-1Z" transform="translate(-564.8 -446.8)" fill="#439b4c"/></g></g></svg>