<svg xmlns="http://www.w3.org/2000/svg" xmlns:xlink="http://www.w3.org/1999/xlink" viewBox="0 0 33.6 19.6"><defs><clipPath id="a"><rect width="33.6" height="19.58" fill="none"/></clipPath></defs><title>LIE</title><g clip-path=""><rect width="33.6" height="19.58" fill="#1c2a7d"/><g clip-path=""><path d="M7.1,4V6H4.9a3.1,3.1,0,0,1-.5-1.5.9.9,0,0,1,.9-.9A8,8,0,0,1,7.1,4Z" fill="#f6d849"/><path d="M4.7,4.1v0Z" fill="#f6d849"/><path d="M4.7,5.3h0V4.1h.1V5.3Z"/><path d="M4.9,4V4Z" fill="#f6d849"/><path d="M4.9,5.6h0V4h.1V5.5Z"/><path d="M5,3.9v0Z" fill="#f6d849"/><path d="M5,5.8H5V3.9h.1V5.7Z"/><path d="M5.2,3.8v0Z" fill="#f6d849"/><path d="M5.2,5.3h0V3.8h.1V5.3Z"/><path d="M5.4,3.8v0Z" fill="#f6d849"/><path d="M5.4,5.3h0V3.8h0V5.3Z"/><path d="M5.5,3.8v0Z" fill="#f6d849"/><path d="M5.5,5.3h0V3.8h0V5.3Z"/><path d="M5.7,3.8v0Z" fill="#f6d849"/><path d="M5.7,5.3h0V3.8h0V5.3Z"/><path d="M5.9,3.8v0Z" fill="#f6d849"/><path d="M5.9,5.4h0V3.8h.1V5.3Z"/><path d="M6,3.8v0Z" fill="#f6d849"/><path d="M6,5.4H6V3.8h.1V5.3Z"/><path d="M6.2,3.9v0Z" fill="#f6d849"/><path d="M6.2,5.5h0V3.9h.1V5.4Z"/><path d="M6.4,3.9v0Z" fill="#f6d849"/><path d="M6.4,5.7h0V3.9h0V5.7Z"/><path d="M6.5,3.9v0Z" fill="#f6d849"/><path d="M6.5,5.5h0V3.9h0V5.5Z"/><path d="M6.7,3.9v0Z" fill="#f6d849"/><path d="M6.7,5.5h0V3.9h0V5.5Z"/><path d="M5.8,3.8c.4.1,1.1.4,1,.9s-.5.4-1.1.3H5.3c-.1.1-.4.3-.5.1H4.6v.9H7.2V4Z"/><path d="M7.2,6.3H4.6v-1h.3c.2.2.4,0,.5-.1H6.4c.1,0,.3-.1.4-.4a.5.5,0,0,0-.1-.3,1.6,1.6,0,0,0-.9-.5H7.2V6.2ZM4.8,5.3H4.6v.9H7.2V4H6a1.5,1.5,0,0,1,.7.5.5.5,0,0,1,.1.4c-.1.3-.2.5-.4.5H5.3L5,5.4Z"/><path d="M7.1,3.7l-.2.2-.2-.2h0l.2-.2.2.2Z" fill="#f6d849"/><path d="M6.9,3.9a.2.2,0,1,1,0-.4.2.2,0,0,1,0,.4Zm0-.3h0Z"/><path d="M6.7,3.6l-.2.2-.2-.2h0l.2-.2.2.2Z" fill="#f6d849"/><path d="M6.6,3.8a.2.2,0,1,1,0-.4.2.2,0,0,1,.2.2H6.6Zm0-.3H6.4a.1.1,0,0,0,.2.1H6.6Z"/><path d="M6.4,3.5l-.2.2L6,3.5H6l.2-.2.2.2Z" fill="#f6d849"/><path d="M6.2,3.7h0a.2.2,0,0,1,0-.4.2.2,0,0,1,0,.4Zm0-.3h0Z"/><path d="M6,3.4l-.2.2-.2-.2h0l.2-.2.2.2Z" fill="#f6d849"/><path d="M5.8,3.6A.2.2,0,1,1,6,3.4a.2.2,0,0,1-.2.2Zm0-.3h0Z"/><path d="M5.6,3.4l-.2.2-.2-.2h0l.2-.2.2.2Z" fill="#f6d849"/><path d="M5.5,3.6a.2.2,0,1,1,0-.4.2.2,0,0,1,0,.4Zm0-.3h0Z"/><path d="M5.3,3.4l-.2.2L5,3.4H5l.2-.2.2.2Z" fill="#f6d849"/><path d="M5.1,3.6a.2.2,0,0,1-.2-.2H5a.2.2,0,0,1,.3.1.2.2,0,0,1-.2.2Zm0-.3h0Z"/><path d="M4.9,3.5l-.2.2-.2-.2h0l.2-.2.2.2Z" fill="#f6d849"/><path d="M4.8,3.7a.2.2,0,0,1-.2-.2.2.2,0,0,1,.3-.1H5a.2.2,0,0,1-.2.2Zm0-.3h0Z"/><path d="M4.6,3.8l-.2.2-.2-.2h0l.2-.2.2.2Z" fill="#f6d849"/><path d="M4.5,3.9a.2.2,0,1,1,.2-.2.2.2,0,0,1-.2.2Zm0-.3h0Z"/><path d="M4.4,4.1l-.2.2-.2-.2h0l.2-.2.2.2Z" fill="#f6d849"/><path d="M4.3,4.2a.2.2,0,0,1-.2-.2h.1a.2.2,0,0,1,.3.1.2.2,0,0,1-.2.2Zm0-.3h0Z"/><path d="M4.3,4.4l-.2.2L4,4.4H4l.2-.2.2.2Z" fill="#f6d849"/><path d="M4.2,4.6a.2.2,0,1,1,0-.4.2.2,0,0,1,0,.4Zm0-.3h0Z"/><path d="M4.3,4.8l-.2.2L4,4.8H4l.2-.2.2.2Z" fill="#f6d849"/><path d="M4.2,5a.2.2,0,1,1,0-.4.2.2,0,0,1,0,.4Zm0-.3h0Z"/><path d="M4.4,5.1l-.2.2-.2-.2h0L4.2,5l.2.2Z" fill="#f6d849"/><path d="M4.2,5.3a.2.2,0,0,1,0-.4.2.2,0,0,1,0,.4Zm0-.3h0Z"/><path d="M7,3.9v.2a9.2,9.2,0,0,0-1.5-.3c-.5,0-.9.2-.9.7a2.7,2.7,0,0,0,.5,1.4H4.8a3.1,3.1,0,0,1-.5-1.5,1,1,0,0,1,1-.9A7.5,7.5,0,0,1,7,3.9Z" fill="#f6d849"/><path d="M4.8,6.1h0a3.1,3.1,0,0,1-.5-1.5,1,1,0,0,1,1-1l1.3.2H7v.2H6.5l-1-.2c-.3,0-.8.1-.8.7a2.7,2.7,0,0,0,.5,1.4l-.3.2Zm.6-2.4a.9.9,0,0,0-1,.9A3,3,0,0,0,4.8,6h.3a2.4,2.4,0,0,1-.5-1.4c0-.5.3-.7.9-.7l1,.2H7V3.9H6.6L5.4,3.6Z"/><path d="M7.4,4V6H9.6A3.1,3.1,0,0,0,10,4.5a.9.9,0,0,0-.9-.9A8,8,0,0,0,7.4,4Z" fill="#f6d849"/><path d="M9.8,4.1v0Z" fill="#f6d849"/><path d="M9.8,5.3h0V4.1h0V5.3Z"/><path d="M9.6,4V4Z" fill="#f6d849"/><path d="M9.6,5.6h0V4h.1V5.5Z"/><path d="M9.4,3.9v0Z" fill="#f6d849"/><path d="M9.4,5.8h0V3.9h.1V5.7Z"/><path d="M9.3,3.8v0Z" fill="#f6d849"/><path d="M9.3,5.3h0V3.8h.1V5.3Z"/><path d="M9.1,3.8v0Z" fill="#f6d849"/><path d="M9.1,5.3h0V3.8h0V5.3Z"/><path d="M8.9,3.8v0Z" fill="#f6d849"/><path d="M8.9,5.3h0V3.8H9V5.3Z"/><path d="M8.8,3.8v0Z" fill="#f6d849"/><path d="M8.8,5.3h0V3.8h0V5.3Z"/><path d="M8.6,3.8v0Z" fill="#f6d849"/><path d="M8.6,5.4h0V3.8h.1V5.3Z"/><path d="M8.4,3.8v0Z" fill="#f6d849"/><path d="M8.4,5.4h0V3.8h.1V5.3Z"/><path d="M8.3,3.9v0Z" fill="#f6d849"/><path d="M8.3,5.5h0V3.9h.1V5.4Z"/><path d="M8.1,3.9v0Z" fill="#f6d849"/><path d="M8.1,5.7h0V3.9h0V5.7Z"/><path d="M7.9,3.9v0Z" fill="#f6d849"/><path d="M7.9,5.5h0V3.9H8V5.5Z"/><path d="M7.8,3.9v0Z" fill="#f6d849"/><path d="M7.8,5.5h0V3.9h.1V5.5Z"/><path d="M8.7,3.8c-.4.1-1.1.4-1,.9s.5.4,1.1.3h.4c.1.1.4.3.5.1h.2v.9H7.3V4Z"/><path d="M9.9,6.3H7.3V4l1.5-.2h0a1.6,1.6,0,0,0-.9.5.5.5,0,0,0-.1.3c.1.4.2.4.4.4H9.2c.1.1.3.3.5.1h.3v1ZM8.5,3.9H7.3V6.2H9.9V5.3H9.5l-.4-.2H8.1c-.2,0-.4-.1-.4-.5a.5.5,0,0,1,.1-.4,1.5,1.5,0,0,1,.7-.5Z"/><path d="M7.4,3.7l.2.2.2-.2h0l-.2-.2-.2.2Z" fill="#f6d849"/><path d="M7.5,3.9a.2.2,0,1,1,.2-.2.2.2,0,0,1-.2.2Zm0-.3h0Z"/><path d="M7.7,3.6l.2.2.2-.2h0l-.2-.2-.2.2Z" fill="#f6d849"/><path d="M7.9,3.8a.2.2,0,1,1,.2-.2.2.2,0,0,1-.2.2Zm0-.3h0Z"/><path d="M8.1,3.5l.2.2.2-.2h0l-.2-.2-.2.2Z" fill="#f6d849"/><path d="M8.3,3.7a.2.2,0,0,1,0-.4.2.2,0,0,1,.2.2H8.3Zm0-.3h0Z"/><path d="M8.5,3.4l.2.2.2-.2h0l-.2-.2-.2.2Z" fill="#f6d849"/><path d="M8.6,3.6a.2.2,0,0,1-.2-.2.2.2,0,0,1,.3-.1h.1a.2.2,0,0,1-.2.2Zm0-.3h0Z"/><path d="M8.8,3.4l.2.2.2-.2h0L9,3.3l-.2.2Z" fill="#f6d849"/><path d="M9,3.6H8.8A.2.2,0,0,1,9,3.2a.2.2,0,0,1,0,.4Zm0-.3H8.9a.1.1,0,0,0,.2-.1Z"/><path d="M9.2,3.4l.2.2.2-.2h0l-.2-.2-.2.2Z" fill="#f6d849"/><path d="M9.4,3.6a.2.2,0,1,1,.2-.2.2.2,0,0,1-.2.2Zm0-.3h0Z"/><path d="M9.6,3.5l.2.2.2-.2h0l-.2-.2-.2.2Z" fill="#f6d849"/><path d="M9.7,3.7a.2.2,0,0,1,0-.4.2.2,0,0,1,0,.4Zm0-.3h0Z"/><path d="M9.8,3.8l.2.2.2-.2h0L10,3.6l-.2.2Z" fill="#f6d849"/><path d="M10,3.9a.2.2,0,0,1,0-.4.2.2,0,1,1,0,.4Zm0-.3h0Z"/><path d="M10.1,4.1l.2.2.2-.2h0l-.2-.2-.2.2Z" fill="#f6d849"/><path d="M10.2,4.2a.2.2,0,0,1,0-.4.2.2,0,0,1,0,.4Zm0-.3h0Z"/><path d="M10.1,4.4l.2.2.2-.2h0l-.2-.2-.2.2Z" fill="#f6d849"/><path d="M10.3,4.6a.2.2,0,1,1,.2-.2.2.2,0,0,1-.2.2Zm0-.3h0Z"/><path d="M10.1,4.8l.2.2.2-.2h0l-.2-.2-.2.2Z" fill="#f6d849"/><path d="M10.3,5a.2.2,0,1,1,.2-.2.2.2,0,0,1-.2.2Zm0-.3h0Z"/><path d="M10.1,5.1l.2.2.2-.2h0L10.2,5l-.2.2Z" fill="#f6d849"/><path d="M10.2,5.3a.2.2,0,1,1,.2-.2.2.2,0,0,1-.2.2Zm0-.3h0Z"/><path d="M7.5,3.9v.2A9.2,9.2,0,0,1,9,3.8c.5,0,.9.2.9.7a2.7,2.7,0,0,1-.5,1.4h.3a3.1,3.1,0,0,0,.5-1.5,1,1,0,0,0-1-.9,7.5,7.5,0,0,0-1.6.3Z" fill="#f6d849"/><path d="M9.7,6.1H9.4a3.1,3.1,0,0,0,.5-1.4c0-.6-.5-.7-.8-.7L8,4H7.5V3.9h.4l1.3-.2a1,1,0,0,1,1,1A3.1,3.1,0,0,1,9.7,6ZM9,3.8c.6,0,.9.3.9.7a2.7,2.7,0,0,1-.5,1.4h.3a3,3,0,0,0,.5-1.5.9.9,0,0,0-1-.9l-1.3.2H7.5v.2H8l1-.2Z"/><rect y="9.8" width="33.6" height="9.79" fill="#bc0030"/><path d="M7.2,1.7,7.1,2l.2.3L7.4,2Zm0,.8-.2.3.2.3.2-.3Z" fill="#f6d849"/><path d="M7.2,3.2h0l-.2-.3.2-.3h0l.2.3-.2.3Zm0-.6v0Zm0-.2h0l-.2-.3.2-.3h0l.2.3-.2.3Zm0-.6v0Z"/><path d="M6.6,2.4l.3.2.3-.2-.3-.2Zm.7,0,.3.2.3-.2-.3-.2Z" fill="#f6d849"/><path d="M7.6,2.6h0l-.3-.2h0l.3-.2.3.2h0l-.3.2Zm-.2-.2h0Zm-.4.2h0l-.3-.2h0l.3-.2.3.2h0l-.3.2Zm-.2-.2h0Z"/><path d="M7.4,2.5h0Z" fill="#f6d849"/><path d="M7.2,2.6l-.2-.2.2-.2v.3Zm0-.3H7.1c0,.1.2.1.2,0Z"/><path d="M7.6,3.3a.3.3,0,1,1-.3-.3.3.3,0,0,1,.3.3Z" fill="#f6d849"/><path d="M7.2,3.6a.4.4,0,1,1,.4-.4.4.4,0,0,1-.4.4Zm0-.7a.3.3,0,1,0,.3.3.3.3,0,0,0-.3-.3Z"/><path d="M7.6,3.4h0Zm0-.2H7.3V2.9h.1v.2h.2Zm-.7,0h.3v.2Z"/><path d="M6.9,3.8a4,4,0,0,1-.3,1.5h.4a10,10,0,0,0,.2-1.4Zm.7,0H7.4a9.4,9.4,0,0,0,.2,1.4h.4a4,4,0,0,1-.3-1.5Z" fill="#f6d849"/><path d="M6.6,5.4h0a3.9,3.9,0,0,0,.3-1.5h.3a1.4,1.4,0,0,1,0,.3A6.9,6.9,0,0,1,7,5.2l-.4.2Zm.3-1.5a3.6,3.6,0,0,1-.3,1.5h.3a7.5,7.5,0,0,0,.1-1V3.9Zm1,1.5H7.5a5.8,5.8,0,0,1-.2-1.1V3.9h.2a4.5,4.5,0,0,0,.3,1.5h0ZM7.6,3.8H7.4a.8.8,0,0,1,0,.3,7.1,7.1,0,0,0,.2,1.1h.3a4.1,4.1,0,0,1-.3-1.5Z"/><path d="M7.2,5a.7.7,0,0,0-.7.7c-.1-.2-.5-.8-.9-.7a.7.7,0,0,0-.4.8.7.7,0,0,0-1.2-.3c.4.3.5,1.2.9,1.6H9.7c.3-.4.5-1.3.9-1.6a.7.7,0,0,0-1.2.3.7.7,0,0,0-.4-.8c-.4-.1-.8.5-.9.7A.7.7,0,0,0,7.2,5Z" fill="#f6d849"/><path d="M9.7,7.2H4.8a2.8,2.8,0,0,1-.4-.8,2.3,2.3,0,0,0-.5-.9l.6-.2a.7.7,0,0,1,.7.4.7.7,0,0,1,.4-.7c.4-.1.8.4.9.6A.7.7,0,0,1,7.2,5a.7.7,0,0,1,.8.7c.1-.2.5-.7.9-.6a.7.7,0,0,1,.4.7.7.7,0,0,1,.7-.4l.6.2a2.9,2.9,0,0,0-.5.9,3,3,0,0,1-.4.7ZM4.4,5.3l-.5.2a2,2,0,0,1,.5.9,2.9,2.9,0,0,0,.4.7H9.7l.4-.7a2.4,2.4,0,0,1,.5-.9L10,5.3a.7.7,0,0,0-.7.5h0a.7.7,0,0,0-.4-.7c-.4-.1-.8.4-.9.7H8a.6.6,0,0,0-.7-.7.6.6,0,0,0-.7.7h0c-.1-.1-.5-.7-.9-.7a.7.7,0,0,0-.4.7h0a.7.7,0,0,0-.7-.5Z"/><path d="M9.7,7.1c0,.2-1.1.4-2.4.4s-2.5-.2-2.5-.4,1.1-.3,2.5-.3,2.4.1,2.4.3Z"/><path d="M7.2,7.6c-1.3,0-2.5-.2-2.5-.4s1.9-.3,2.5-.3,2.5,0,2.5.3-1.2.4-2.5.4Zm0-.7c-1.6,0-2.4.1-2.4.3a4.9,4.9,0,0,0,2.4.4,4.8,4.8,0,0,0,2.4-.4c0-.1-.8-.3-2.4-.3Z"/><path d="M7.4,3.7h0Z" fill="#f6d849"/><path d="M7.2,3.9H7.1a.1.1,0,0,1,.2.1Zm0-.2h0Z"/><path d="M7.4,4h0Z" fill="#f6d849"/><path d="M7.2,4.1h0Zm0-.2H7.1c0,.1.2.1.2,0Z"/><path d="M7.4,4.2h0Z" fill="#f6d849"/><path d="M7.2,4.4h0l-.2-.2.2-.2.2.2-.2.2Zm0-.3H7.1c0,.1.2.1.2,0Z"/><path d="M7.4,4.5v.2l-.2-.2h0l.2-.2v.2Z" fill="#f6d849"/><path d="M7.2,4.7h0l-.2-.2.2-.2.2.2-.2.2Zm0-.3h0Z"/><path d="M7.4,4.9,7.2,5l-.2-.2h0l.2-.2.2.2Z" fill="#f6d849"/><path d="M7.2,5.1a.2.2,0,1,1,.2-.2.2.2,0,0,1-.2.2Zm0-.3h0Z"/><path d="M7.2,5.2h0Zm.1,0h0Zm-.2,0h0a.6.6,0,0,0,0-.1h0Zm.4,0h0a.6.6,0,0,0,0,.1h0Zm-.5.1h0Zm.6,0h0Zm-1.9,0h0Zm3.2,0h0Zm-3.1,0h0Zm3,0h0Zm-2.8,0h0Zm2.6,0h0Zm-3,0h0ZM9,5.3H9Zm-2.2.1h0Zm.9,0h0Zm-.5,0h0v.2H6.9s-.1,0,0,.1a1.2,1.2,0,0,1,.3.7h.1a1.2,1.2,0,0,1,.3-.7c.1-.1,0-.1,0-.1H7.3V5.5ZM6.1,5.4h0Zm2.3,0h0Zm-3,0s0,0,0,.1h0Zm3.7,0h0s0-.1,0-.1Zm-4.7.1s0,0,0,.1h0Zm5.7,0h0s0-.1,0-.1Zm-5.6,0h0Zm5.4,0h0Zm-5.7,0s0,0,0,0h0Zm6,0h0s0,0,0,0Zm-3.6,0h0Zm1.1,0h0ZM5.7,5.5h0v.3H5.6s-.1,0,0,0a1,1,0,0,1,.4.6H6a1.2,1.2,0,0,1,0-.7c0-.1,0-.1,0,0H5.9V5.6h0Zm3.1,0h0v.3H8.5c0-.1-.1,0,0,0a1.3,1.3,0,0,1,0,.7h0a1.1,1.1,0,0,1,.4-.6H8.7V5.6h0Zm-4.1.1h0Zm5.1,0h0ZM5.3,5.6s0,.1,0,.1h0Zm3.8,0h0s0-.1,0-.1Zm-4.3.1h0Zm4.8,0h0Zm-4.3,0s0,0,0,.1h0Zm3.9,0h0Zm-4.6.1s0,0,0,0v.2H4.5c-.1,0-.1,0,0,0l.5.5H5A.8.8,0,0,1,5,6.2V6H4.8l-.2-.2Zm5.3,0h0l-.2.2H9.5v.2a.8.8,0,0,1-.1.4h.1l.5-.5s0-.1,0,0H9.8V5.9s0,0,0,0Z"/><path d="M4.9,6.9v0Zm.1,0v0Zm.1,0v0Zm.1,0v0Zm.2,0v0Zm.2,0v0Zm.2-.1v0Zm.2,0v0Zm.2,0v0Zm.2,0v0Zm.2,0v0Zm.2,0v0Zm.2,0v0Zm.2,0v0Zm2.6.2v0Zm-.1,0v0Zm-.1,0v0Zm-.1,0v0ZM9,6.8v0Zm-.2,0v0Zm-.2-.1v0Zm-.2,0v0Zm-.2,0v0Zm-.2,0v0ZM8,6.8v0Zm-.2,0v0Zm-.2,0v0Zm-.2,0v0Zm-.2,0v0Z" fill="#ed00fd"/><path d="M9.5,7.2h0V6.9h0v.2ZM5,7.2h0V6.9h0v.2H5Zm4.4,0h0V6.9h0v.2Zm-4.3,0h0V6.9h0v.2h0Zm.1,0h0V6.9h0v.2h0Zm4.1,0h0V6.9h0v.2Zm-.1,0h0V6.8h0v.2Zm-3.8,0h0V6.9h0v.2h0Zm3.5,0h0V6.8h.1V7Zm-3.1,0h0V6.8h0V7h0ZM9,7.1H9V6.8H9V7Zm-3.5,0h0V6.8h.1V7h0Zm3,0h0V6.8h.1V7ZM6,7H6V6.8H6V7H6ZM8.6,7h0V6.8h0V7ZM5.8,7h0V6.8h0V7h0ZM8.3,7h0V6.8h.1V7ZM6.2,7h0V6.8h0V7h0ZM8,7H8V6.8H8V7Zm.2,0h0V6.7h.1V7ZM6.3,7h0V6.8h.1V7Zm.2,0h0V6.8h.1V7ZM7.8,7h0V6.7h.1V7ZM6.6,7h0V6.7h.1v.2Zm.6,0h0V6.7h.1v.2Zm.4,0h0V6.7h0v.2ZM6.8,7h0V6.7h0v.2Zm.7,0h0V6.7h0v.2ZM7,7H7V6.7H7v.2H7Z"/></g></g></svg>