<svg xmlns="http://www.w3.org/2000/svg" xmlns:xlink="http://www.w3.org/1999/xlink" viewBox="0 0 33.6 19.6"><defs><clipPath id="a"><rect width="33.6" height="19.58" fill="none"/></clipPath><clipPath id="c"><path d="M15.3,10.5c0,.1,0,.2.1.2s.2-.1.2-.2,0-.2-.1-.2h0l-.2.2" fill="none"/></clipPath><radialGradient id="d" cx="-438.11" cy="557.7" r="0.03" gradientTransform="matrix(5.54, 2.34, -2.29, 5.57, 3721.44, -2070.27)" gradientUnits="userSpaceOnUse"><stop offset="0" stop-color="#fff"/><stop offset="1" stop-color="#df5072"/></radialGradient><clipPath id="f"><path d="M13.9,9.6c-.1,0-.1.2,0,.3h.3c.1,0,.1-.2,0-.3L14,9.6h-.1" fill="none"/></clipPath><radialGradient id="g" cx="-362.02" cy="608.27" r="0.03" gradientTransform="matrix(0, -5.97, 5.54, -0.02, -3356.97, -2141.92)" xlink:href="#d"/><clipPath id="i"><path d="M19,10.8c-.1.1-.1.2-.1.2h.3c.1-.1.1-.2.1-.2H19" fill="none"/></clipPath><radialGradient id="j" cx="-523.27" cy="587.45" r="0.03" gradientTransform="matrix(2, 2.38, -4.62, 3.99, 3779.1, -1087.31)" xlink:href="#d"/></defs><title>MEX</title><g clip-path=""><rect width="33.6" height="19.58" fill="#fff"/><rect width="11.2" height="19.58" fill="#2c6949"/><rect x="22.4" width="11.2" height="19.58" fill="#bc0030"/><g clip-path=""><path d="M15,7.6h-.3c-.1,0-.1-.4-.1-.4s-.1-.1-.1-.2l.3-.3h0s0,.1,0,.1h0s0,.1.1.1h.2Z" fill="#a5ab72"/><path d="M14.2,8.4a.2.2,0,0,1,.1.2c0,.1-.1.2-.1.4s0,.2.3.4h.1c0,.1.1.5.3.5s.3-.2.3-.2V9.7h-.3V9.3c-.1-.2-.3-.2-.3-.4s.1-.2.1-.4-.3-.3-.3-.3h-.1v.2Z" fill="#a5ab72"/><path d="M14.9,7c.1,0,0-.3,0-.3h0" fill="#e4a532"/><path d="M15.1,9.3h0s-.2-.1-.1-.5.6-.6.6-.7.2-.2-.3-.6h.1l-.3.2h-.2v.2a.7.7,0,0,0,0,.3.5.5,0,0,0,.4.5" fill="#a5ab72"/><path d="M14.8,9.5h0Z" fill="#767334"/><path d="M14.6,9.5h0Z" fill="#767334"/><path d="M14.7,9.3h0Z" fill="#767334"/><path d="M14.7,9.9h0Z" fill="#767334"/><path d="M14.9,9.7h0" fill="#767334"/><path d="M14.7,10h0Z" fill="#767334"/><path d="M14.9,9.9h0Z" fill="#767334"/><path d="M14.8,10h0Z" fill="#767334"/><path d="M14.7,9h0Z" fill="#767334"/><path d="M14.8,9.2h0Z" fill="#767334"/><path d="M14.5,7s0,.1,0,.1h.2l-.2.2" fill="#c3c6a4"/><path d="M14.8,6.8h0" fill="#232832"/><path d="M14.7,6.8h.2s0,0,0,0h-.2" fill="#a5ab72"/><path d="M14.9,8.9h0a.2.2,0,0,1,0-.1h0Z" fill="#767334"/><path d="M14.7,8.8s0-.1,0-.1V8.5h0Z" fill="#767334"/><path d="M14.9,8.8h0" fill="#767334"/><path d="M14.7,8.5h0" fill="#767334"/><path d="M15,8.6h0Z" fill="#767334"/><path d="M14.9,8.2H15v.2h-.1Z" fill="#767334"/><polygon points="15.1 8.5 15.2 8.4 15 8.3 15 8.5 15.1 8.5" fill="#767334"/><path d="M15.1,8.2V8h0Z" fill="#767334"/><path d="M15.3,8h0Z" fill="#767334"/><path d="M15.3,8.2h0Z" fill="#767334"/><polygon points="14.8 7.6 15 7.6 15 7.5 14.9 7.5 14.9 7.5 14.8 7.5 14.8 7.6" fill="#767334"/><path d="M15.2,8.4h0Z" fill="#767334"/><path d="M15.5,8h0Z" fill="#767334"/><path d="M15.3,7.9h0Z" fill="#767334"/><path d="M15.5,7.8h0Z" fill="#767334"/><path d="M14.2,8.8h0m0-.3h0m.2.2h0Zm-.3-.3h0a.2.2,0,0,1,0-.1h0m0-.1h0a.3.3,0,0,1,0-.1m.4-1h.1a.2.2,0,0,0,0,.2h0m.1.1h0m-.4,1.1h0M15.4,8h-.2s0,.1,0,.1h-.1a.6.6,0,0,0,0,.2H15a.5.5,0,0,0,0,.2h-.2v.2h-.2v.2h.6V8.1h.1m-.6.8h0m0-.2h-.1c0-.1-.1-.1-.1-.2h.2m.1-.1h-.1a.9.9,0,0,1,0-.2H15m0-.2a.6.6,0,0,1,0-.2h0m.3-.1h-.2a1.2,1.2,0,0,1,0-.2h.1m0-.2h0m-.4,1h0M14.3,9h0m.7,1h-.1V9.7h-.2V9.5h0v.2H15m-.4-.2h0m.1.2h.2a.3.3,0,0,1,0,.1h-.2m-.1-.5h-.1V9.4Zm-.2-.3h0m.2.1h0m-.2,0h0m.3-2.3h0" fill="#fff"/><polygon points="15 7.3 14.8 7.4 14.9 7.5 15 7.3" fill="#767334"/><path d="M14.8,7.3h0Z" fill="#767334"/><path d="M14.8,7.6h0" fill="#767334"/><path d="M15.2,10h-.5V9.5l-.2-.2a.4.4,0,0,1-.1-.3h0V8.6h0V9h0a.4.4,0,0,0,.2.3l.2.2v.3h.6Z" fill="#767334"/><path d="M15.1,9.7h-.2V9.4l-.2-.2L14.5,9h0V8.6h0l-.2-.2h0v.2h0V9h0l.2.2.2.2v.2h.2Z" fill="#767334"/><path d="M15.5,9.3h.1v.2h0Z" fill="#a5ab72"/><path d="M14,8.4h0Z" fill="#eec747"/><path d="M14,8.4h0v.2h0V8.2H14Z" fill="#907c35"/><path d="M14.1,8.4H14s0-.1,0-.1h.2v.2" fill="#eec747"/><path d="M14.1,8.4h0Z" fill="#907c35"/><path d="M14.2,8.4h-.1c-.1,0,0-.1,0-.1h.1" fill="#eec747"/><path d="M14.2,8.4h0Z" fill="#907c35"/><path d="M15.4,9.3H15s-.2.1-.1.5a.3.3,0,0,0,.2.2h.3Z" fill="#a46f32"/><path d="M15.3,7.7h0c-.1.2-.2.3-.4.4l-.2.2a.6.6,0,0,0-.1.3h0a.6.6,0,0,0,.2.5h0a.5.5,0,0,1-.2-.5h0a.6.6,0,0,1,.1-.3l.3-.3.3-.3h-.1Z" fill="#7c6c31"/><path d="M15.6,9.4h0Z" fill="#fff"/><path d="M15.8,9.4h-.5L15.1,9h.7Z" fill="#f2c948"/><path d="M15.8,9.4h-.3v.2h.2V9.5Z" fill="#a46f32"/><polygon points="15.8 9.3 15.8 9.4 15.8 9.4 15.8 9.4 15.8 9.3" fill="#f2c948"/><path d="M15.7,7.8h-.5l.3.3h.2Z" fill="#f2c948"/><path d="M15.5,7.9a.4.4,0,0,1,0,.2h0" fill="#a46f32"/><path d="M15.7,9.6h0Z" fill="#7c6c31"/><path d="M15.8,9.5h0Z" fill="#6b5c2b"/><polygon points="15.8 9.5 15.9 9.6 15.9 9.6 15.9 9.6 15.8 9.6 15.8 9.7 15.8 9.7 15.8 9.5" fill="#42441f"/><polygon points="18.7 12.3 18.7 12.6 18.8 12.5 18.7 12.3 18.7 12.3" fill="#f2c949"/><polygon points="18.7 12.3 18.6 12.3 18.7 12.6 18.8 12.5 18.7 12.3 18.6 12.3 18.6 12.3 18.7 12.3 18.7 12.3 18.7 12.3 18.8 12.5 18.7 12.6 18.7 12.3 18.7 12.3 18.7 12.3 18.7 12.3" fill="#a28b38"/><path d="M18.7,12.3h0" fill="#f2c949"/><path d="M18.7,12.3h0Z" fill="#a28b38"/><path d="M18.7,12.3h0Z" fill="#a28b38"/><path d="M18.7,12.3h0Z" fill="#a28b38"/><polygon points="18.9 12.7 18.8 12.5 18.7 12.6 18.9 12.7 18.9 12.7" fill="#f2c949"/><polygon points="18.9 12.7 18.9 12.7 18.8 12.5 18.7 12.6 18.9 12.7 18.9 12.7 18.9 12.7 18.9 12.7 18.9 12.7 18.9 12.7 18.7 12.6 18.8 12.5 18.9 12.7 18.9 12.7 18.9 12.7 18.9 12.7" fill="#a28b38"/><path d="M18.9,12.8a.1.1,0,0,1,0-.1H19a.1.1,0,0,1,0,.1h-.1" fill="#f2c949"/><path d="M18.9,12.8h0Z" fill="#a28b38"/><path d="M18.9,12.7h0Z" fill="#a28b38"/><path d="M19.1,12.7h0Z" fill="#a28b38"/><polygon points="20.3 10.2 20.4 10.4 20.5 10.3 20.3 10.2 20.3 10.2" fill="#f2c949"/><polygon points="20.3 10.2 20.3 10.2 20.4 10.4 20.5 10.3 20.3 10.2 20.2 10.2 20.3 10.2 20.3 10.2 20.3 10.2 20.3 10.2 20.4 10.3 20.4 10.4 20.3 10.2 20.3 10.2 20.3 10.2 20.3 10.2" fill="#a28b38"/><path d="M20.3,10.2h0" fill="#f2c949"/><path d="M20.3,10.2h0Z" fill="#a28b38"/><path d="M20.3,10.2h0Z" fill="#a28b38"/><path d="M20.3,10.2h0Z" fill="#a28b38"/><polygon points="20.7 10.3 20.5 10.4 20.5 10.3 20.7 10.3 20.7 10.3" fill="#f2c949"/><polygon points="20.7 10.3 20.7 10.3 20.5 10.4 20.5 10.3 20.7 10.3 20.7 10.3 20.7 10.3 20.7 10.3 20.7 10.3 20.7 10.3 20.7 10.3 20.5 10.3 20.4 10.4 20.7 10.3 20.7 10.3 20.7 10.3" fill="#a28b38"/><path d="M20.8,10.3h0" fill="#f2c949"/><path d="M20.8,10.3h0Z" fill="#a28b38"/><path d="M20.8,10.3h0Z" fill="#a28b38"/><path d="M20.7,10.3h0Z" fill="#a28b38"/><polygon points="19.8 11.7 19.7 11.4 19.7 11.4 19.9 11.6 19.8 11.7" fill="#f2c949"/><polygon points="19.8 11.7 19.8 11.7 19.7 11.4 19.7 11.4 19.9 11.6 19.8 11.7 19.8 11.7 19.8 11.7 19.8 11.7 19.8 11.7 19.9 11.6 19.7 11.4 19.6 11.4 19.8 11.7 19.8 11.7 19.8 11.7" fill="#a28b38"/><path d="M19.6,11.3h0" fill="#f2c949"/><path d="M19.7,11.4h0Z" fill="#a28b38"/><path d="M19.8,11.5h0Z" fill="#a28b38"/><path d="M19.7,11.4h-.1s-.1-.1,0-.1h.1" fill="#a28b38"/><polygon points="19.8 11.7 20 11.7 20 11.7 19.9 11.6 19.8 11.7" fill="#f2c949"/><polygon points="19.8 11.7 19.8 11.7 20 11.7 20.1 11.7 19.9 11.6 19.8 11.7 19.8 11.7 19.8 11.7 19.8 11.7 19.9 11.6 20 11.7 20 11.7 19.8 11.7 19.8 11.7 19.8 11.7 19.8 11.7" fill="#a28b38"/><path d="M20.2,11.7h0" fill="#f2c949"/><path d="M20.2,11.7h0Z" fill="#a28b38"/><path d="M20,11.7h0Z" fill="#a28b38"/><path d="M20.2,11.7h0Z" fill="#a28b38"/><path d="M21,9.7c0,.2-.2.3-.3.4l-.2.2h0c0,.1,0,.2,0,.2h.3l-.2.2c0,.1-.1.4-.3.5h-.5a.4.4,0,0,1-.2.4H18.5l-.6.2-.4-.3h.1l.3-.2h.7l.2-.2h.1v-.2h0l.2-.2v-.3h0a.2.2,0,0,1,0,.2h.5v-.7l.2-.2h.2v-.3h0V9.4h.1v.3l.2-.5v.3h.1a.5.5,0,0,1,.1.3m-3.5,3.4-.2-.2h.2Z" fill="#99a069"/><path d="M18.6,12.7l.2-.2h.5l.3-.3h.1l-.2.2-.3.2h-.7m.6-.7-.3.4.3-.3.3-.2h.2s-.1-.1-.5.3m-.4.4H19l.3-.3a.3.3,0,0,0,.1-.3.2.2,0,0,1,0,.1l-.4.4v.3m-.1.6h-.2l-.6.2-.4-.2h-.1c.2.1.3.3.5.2l.6-.2h.2m-1.3-.1h.4l.4-.3h-.3l-.2.2h-.2m0,.3h0m.1-.2h.2c.3,0,.4-.2.6-.3h.3s0,0,0,0h-.2l-.7.2h-.2m2.9-2.1-.3.5H20l-.2.2H20l.3-.2.3-.5h-.1m-.5.6H20v-.8h-.1L20,11a1.3,1.3,0,0,0-.1.4m-.1.1s0,0,0-.2a1.8,1.8,0,0,1,0-.5l.3-.4H20a.4.4,0,0,0-.2.3v.3c0,.1,0,.2,0,.2m.6-1.1V10l.2-.2a2.5,2.5,0,0,0,0-.4h-.1a2.5,2.5,0,0,1,0,.3l-.2.3a1.7,1.7,0,0,1,0-.3V9.5a2.1,2.1,0,0,0,0-.4v.2a1.2,1.2,0,0,0-.1.4,2.3,2.3,0,0,0,0,.3.3.3,0,0,1,0,.2h-.1Zm-.2-1.1a.3.3,0,0,1,.1.2.7.7,0,0,0,0,.3v.4a1,1,0,0,0,0-.3h-.1c0-.1,0-.2,0-.3V9.4" fill="#707837"/><path d="M14.9,12.3h0" fill="#f2c949"/><path d="M14.9,12.3h0Z" fill="#a28b38"/><polygon points="14.9 12.4 15 12.6 14.9 12.6 14.9 12.4 14.9 12.4" fill="#f2c949"/><polygon points="14.9 12.4 14.9 12.4 15 12.6 14.9 12.6 14.9 12.4 14.9 12.4 14.9 12.4 14.9 12.4 14.9 12.4 14.9 12.4 14.9 12.4 14.9 12.6 15 12.6 14.9 12.4 14.9 12.4 14.9 12.4" fill="#a28b38"/><path d="M15,12.3h0" fill="#f2c949"/><path d="M15,12.3h0Z" fill="#a28b38"/><path d="M15,12.3h0Z" fill="#a28b38"/><path d="M14.9,12.4h0Z" fill="#a28b38"/><path d="M14.6,12.7h0" fill="#f2c949"/><path d="M14.6,12.7h0Z" fill="#a28b38"/><polygon points="14.7 12.7 14.9 12.7 14.9 12.6 14.7 12.6 14.7 12.7" fill="#f2c949"/><polygon points="14.7 12.7 14.7 12.7 14.9 12.7 14.9 12.6 14.7 12.6 14.7 12.7 14.7 12.7 14.7 12.7 14.7 12.7 14.7 12.6 14.9 12.6 14.9 12.7 14.7 12.7 14.7 12.7 14.7 12.7 14.7 12.7" fill="#a28b38"/><path d="M14.7,12.6c0,.1,0,.2,0,.1s-.1-.1-.1-.1-.1-.1,0-.1h.1" fill="#f2c949"/><path d="M14.7,12.6h0Z" fill="#a28b38"/><path d="M14.7,12.6h0Z" fill="#a28b38"/><path d="M14.7,12.7h0Z" fill="#a28b38"/><path d="M14.4,12.7h0Z" fill="#a28b38"/><path d="M13.9,11.2h0" fill="#f2c949"/><path d="M13.9,11.3h0Z" fill="#a28b38"/><polygon points="13.9 11.4 13.9 11.7 13.8 11.6 13.8 11.4 13.9 11.4" fill="#f2c949"/><polygon points="13.9 11.4 13.9 11.4 13.9 11.7 13.8 11.6 13.8 11.4 13.9 11.4 13.9 11.4 13.9 11.4 13.9 11.4 13.9 11.4 13.8 11.4 13.8 11.6 13.9 11.7 13.9 11.4 13.9 11.4 13.9 11.4" fill="#a28b38"/><path d="M14,11.4h0" fill="#f2c949"/><path d="M14,11.4h0Z" fill="#a28b38"/><path d="M14,11.3h0Z" fill="#a28b38"/><path d="M13.9,11.5h0Z" fill="#a28b38"/><path d="M13.5,11.6h0" fill="#f2c949"/><path d="M13.5,11.6h0Z" fill="#a28b38"/><polygon points="13.6 11.6 13.8 11.6 13.9 11.7 13.6 11.7 13.6 11.6" fill="#f2c949"/><polygon points="13.6 11.6 13.6 11.7 13.8 11.6 13.8 11.7 13.6 11.7 13.6 11.6 13.6 11.6 13.6 11.7 13.6 11.6 13.6 11.6 13.6 11.7 13.9 11.7 13.8 11.6 13.6 11.6 13.6 11.6 13.6 11.6" fill="#a28b38"/><path d="M13.5,11.5h0s0-.1,0-.1h0" fill="#f2c949"/><path d="M13.5,11.5h0Z" fill="#a28b38"/><path d="M13.6,11.6h0Z" fill="#a28b38"/><path d="M13.6,11.7h0Z" fill="#a28b38"/><path d="M13.5,11.7h0Z" fill="#a28b38"/><path d="M13.4,10.1h-.1s0-.1,0-.1h.1s0,.1,0,.1" fill="#f2c949"/><path d="M13.4,10.1h0Z" fill="#a28b38"/><polygon points="13.1 10.4 13.3 10.2 13.2 10.2 13.1 10.4 13.1 10.4" fill="#f2c949"/><polygon points="13.1 10.4 13.2 10.4 13.3 10.2 13.2 10.2 13.1 10.4 13.1 10.5 13.2 10.4 13.1 10.4 13.2 10.4 13.1 10.4 13.2 10.2 13.2 10.2 13.1 10.4 13.1 10.4 13.2 10.4 13.1 10.4" fill="#a28b38"/><path d="M13.2,10.2h.1s0,.1,0,.1h-.1" fill="#f2c949"/><path d="M13.2,10.2h0Z" fill="#a28b38"/><path d="M13.4,10.1h0Z" fill="#a28b38"/><path d="M13.2,10.2a.1.1,0,0,1,0,0h0Z" fill="#a28b38"/><path d="M12.8,10.2h0" fill="#f2c949"/><path d="M12.8,10.2h0Z" fill="#a28b38"/><polygon points="12.9 10.3 13.1 10.4 13.1 10.5 12.9 10.3 12.9 10.3" fill="#f2c949"/><polygon points="12.9 10.3 12.9 10.3 13.1 10.4 13.1 10.5 12.9 10.3 12.9 10.3 12.9 10.3 12.9 10.3 12.9 10.3 12.9 10.3 12.9 10.3 13.1 10.5 13.1 10.4 12.9 10.3 12.9 10.3 12.9 10.3" fill="#a28b38"/><path d="M12.9,10.3h-.1s0-.1,0-.1h.2a.1.1,0,0,1,0,.1" fill="#f2c949"/><path d="M12.9,10.3h0Z" fill="#a28b38"/><path d="M12.9,10.3h0Z" fill="#a28b38"/><path d="M12.9,10.3h0Z" fill="#a28b38"/><path d="M12.8,10.2h0Z" fill="#a28b38"/><path d="M16.1,13.1h.2l.4-.2s0,.1,0,.1h-.5Z" fill="#99a069"/><path d="M16.4,12.8h-.5l-.3-.2v.2h0l-.3-.2v.2h-.2c.1,0-.1.1-.1.2h.4c.1.1-.1.1-.1.2h.2l.2-.2c0,.1-.1.1-.1.2h.2L16,13h.4m-1.4,0h-.5v-.3h-.1v.2h-.1v-.3h-.1v-.2h0a.4.4,0,0,0,0,.1h-.2v-.2h-.1v-.3h0v.2h-.1v-.2h-.2a.7.7,0,0,0,0-.2.5.5,0,0,1-.1-.2h0c0-.1.2-.2.2-.2s-.2.1-.2,0,.2-.1.2-.3h-.2V9.3c0-.1,0-.1,0-.1H13v.2h-.2v.3h.4s-.2-.1-.2,0a.2.2,0,0,0,.1.2h.4l.2.2.2.2h-.1s.3.2.2.2h-.2c0,.1.1.2.1.2h0l.2.2h.2c0,.1-.1.1,0,.1H15" fill="#99a069"/><path d="M16.2,13.1h0m.4-.2h0ZM14,11.8s0,0,0,0h-.1l-.3-.2h.1l.2.2h0m1.9,1.3h.1s0,.1,0,.1-.1-.2-.3-.2h-.1s.1.2.1.2l-.3-.2h-.1s.1,0,.1.1h.3s0,0,0,.1h.2m-1.1-.7h0c0-.1,0-.2,0-.2h-.1s0-.2,0-.3h-.2s0,.2-.1.2,0-.2,0-.3h-.1s0,.2,0,.2H14s0,.1,0,.1h.2a1,1,0,0,0,0-.1h0V12h.2v-.2a1,1,0,0,0,0-.2h0v.2h.3m-1.6-1.9v-.2a.7.7,0,0,0-.1-.3h-.1a.2.2,0,0,1,0-.1H13l.2-.2s0-.1,0-.1h-.3c0,.1,0,.1,0,.2h-.1c-.1,0-.1.1-.1.1s.1.2.1.2-.1-.1-.2,0,.2.2.2.2H13a.7.7,0,0,1,.1.3,1,1,0,0,1,0,.1m.6.9a.2.2,0,0,1,0-.2c0-.1.1-.3.1-.3h-.1s0-.2,0-.3h-.1v.2s0-.1,0-.2h-.3s.1.2.1.2h.1a.3.3,0,0,1,0,.1h.2v.2h.2" fill="#707837"/><path d="M16.5,13.5h-.1l.3-.3v-.3h.2v.4h.1l.3.2h-.2l-.2-.2h-.1l-.2.2Z" fill="#fff"/><path d="M16.7,12.7h0a2.5,2.5,0,0,1,0,.3l-.3.2h-.3l.2-.3.2-.2a2.2,2.2,0,0,0,0-.3h.1" fill="#2c694a"/><path d="M17.1,13.5h0" fill="#2c694a"/><path d="M16.9,12.7H17a1.7,1.7,0,0,1,0,.3v.2l-.2.2h-.2l.2-.2.2-.3a1.4,1.4,0,0,0,0-.3" fill="#bb1033"/><path d="M17.4,13.4h-.1v.2" fill="#bb1033"/><path d="M18.1,12.2h-.2l.4-.2H15.9c-.2,0-.3-.3-.3-.3h-.1s0,.1,0,.2l-.7-.3h0l.4.3H15s.6,0,.6.2H16l.3.2h1l.5-.3h.3Z" fill="#60c0d9"/><path d="M18.1,12.2H15.8v-.2h-.2l-.4-.2h-.3v.2H15l-.3-.2h0l.3.2h.5v.2h2.4Z" fill="#3771a3"/><path d="M15,11.9h0" fill="#fff"/><path d="M15,11.9h0Z" fill="#3771a3"/><path d="M15.7,11.4h0" fill="#fff"/><path d="M15.7,11.4h0Z" fill="#3771a3"/><path d="M18.3,12.2h0" fill="#fff"/><path d="M18.3,12.2h0Z" fill="#3771a3"/><path d="M14.4,11.2c0,.1.1.2.2.3h.2a.2.2,0,0,0,0-.1h-.4" fill="#eec747"/><path d="M14.7,11.3h0" fill="#fff"/><path d="M15.6,12.3c0,.1,0,.1-.1.1h-.3v-.2h.2" fill="#eec747"/><path d="M15.5,12.3h0" fill="#fff"/><path d="M18.3,11.9h.2s.1-.1.1-.2h-.3a.1.1,0,0,0,0,.1" fill="#eec747"/><path d="M18.3,11.8h0" fill="#fff"/><path d="M16.9,11.6h-.4l.2.5.2.3h.3v-.5Z" fill="#eca757"/><path d="M16.9,11.6h-.4l.2.5h0l.2.3h.3v-.5h0l-.2-.2h0l.2.2v.5h-.3l-.2-.3-.2-.5h.4Z" fill="#883129"/><path d="M16.3,11.7h.2l.2.2v.4l.2.3h-.3l-.3-.5Z" fill="#eca757"/><path d="M16.3,11.7h.2l.2.2v.4l.2.3h-.3l-.3-.5v-.3h0V12h0l.3.5H17a0,0,0,0,0,0,0h0v-.7h-.3Z" fill="#883129"/><path d="M16.2,11.6h.1l.2.3v.3l.2.3h-.7v-.7Z" fill="#eca757"/><path d="M16.2,11.6h.1l.2.3v.3l.2.3h-.7v-.5h0v.2h0v.5h.7l-.2-.2v-.5h-.2Z" fill="#883129"/><path d="M17.4,11.7h-.6v.9h.3v-.4h-.1Z" fill="#eca757"/><path d="M17.4,11.7h-.6v.8h.4v-.4h0v.4h-.3v-.6h.5Z" fill="#883129"/><path d="M16.1,11.7h0v.2H16a.2.2,0,0,0-.1.2v.2h0" fill="#eca757"/><path d="M16.1,11.7h0V12h.1" fill="#883129"/><path d="M17.5,11.7h.1s0,0,0,.1a.3.3,0,0,1-.1.2.1.1,0,0,1,.1.1.1.1,0,0,1-.1.1h0" fill="#eca757"/><path d="M17.4,11.7h.1a.3.3,0,0,0,.1-.2h-.1" fill="#883129"/><path d="M16.2,12.3h0Z" fill="#883129"/><path d="M17.3,11.7h0c0,.1,0,.1,0,.1h-.4Z" fill="#883129"/><path d="M18.2,11.6h0" fill="#272425"/><path d="M18.7,11.5h0Z" fill="#272425"/><path d="M18.9,11.5h0" fill="#272425"/><path d="M19.2,11.3h0" fill="#272425"/><path d="M18.7,10.7h-.1s0,.1,0,.1h.1" fill="#272425"/><path d="M18.5,10.9h-.1s0,.1,0,.1h.1" fill="#272425"/><path d="M18,11.2l-.2.2.6.2a1,1,0,0,0,.6-.3.5.5,0,0,0,0-.3l-.3-.2-.3.2c-.1.1-.1.2-.3.2H18" fill="#93bcbc"/><path d="M18,11.2h0l-.2.2h0v-.2Z" fill="#26554f"/><path d="M17.9,11.3h.5l.3-.3H19v.2H17.9Z" fill="#3c8386"/><path d="M18.5,11.1h0" fill="#26554f"/><path d="M18.6,11.2h0" fill="#26554f"/><path d="M18.6,11.4h0" fill="#26554f"/><path d="M18.4,11.3h0" fill="#26554f"/><path d="M18.1,11.4h0" fill="#26554f"/><path d="M18.6,11.2h0" fill="#93bcbc"/><path d="M18.6,11.4h0" fill="#93bcbc"/><path d="M18.4,11.3h0" fill="#93bcbc"/><path d="M18.5,11.1h0" fill="#93bcbc"/><path d="M18.1,11.3h0" fill="#93bcbc"/><path d="M18.2,11.3h0" fill="#272425"/><path d="M18.5,11.2h0" fill="#272425"/><path d="M18.5,11.3h0" fill="#272425"/><path d="M18.6,11h0" fill="#272425"/><path d="M18.8,11.1h-.1s0,0,0,0h.1" fill="#272425"/><path d="M18.7,11.3h0" fill="#272425"/><path d="M19,11.2a.1.1,0,0,1-.1.2,1.1,1.1,0,0,1-.6.2l-.5-.2H19Z" fill="#26554f"/><path d="M14.4,9.9h0a.3.3,0,0,0,0-.1" fill="#272425"/><path d="M14.8,10.2h0" fill="#272425"/><path d="M13.9,10.3h0" fill="#272425"/><path d="M14.1,10.6h0" fill="#272425"/><path d="M14.4,10.8h0" fill="#272425"/><path d="M14.8,10.6a.6.6,0,0,0-.2-.5c-.3-.2-.4-.2-.5-.1a.4.4,0,0,0,.1.6.8.8,0,0,0,.6.2Z" fill="#93bcbc"/><path d="M14.8,10.6h0a.6.6,0,0,0-.2-.5l-.3-.2h-.2a.3.3,0,0,0-.1.2.5.5,0,0,0,.2.4l.5.2h0l-.5-.2a.5.5,0,0,1-.2-.4V10h.2l.3.2a.6.6,0,0,1,.2.5h0Z" fill="#26554f"/><path d="M14,10.3s0-.2.1-.2a.4.4,0,0,1,.5.2.7.7,0,0,1,.1.5h-.6Z" fill="#3c8386"/><path d="M14.8,10.7h-.1a.8.8,0,0,1-.6-.5h.8Z" fill="#26554f"/><path d="M14.6,10.6h0" fill="#26554f"/><path d="M14.6,10.4h0" fill="#26554f"/><path d="M14.4,10.6h0" fill="#26554f"/><path d="M14.4,10.3h0" fill="#26554f"/><path d="M14.2,10.4h0" fill="#26554f"/><path d="M14.2,10.2h0" fill="#26554f"/><path d="M14.4,10.2h0" fill="#26554f"/><path d="M14.2,10.2h0" fill="#93bcbc"/><path d="M14.2,10.4h0" fill="#93bcbc"/><path d="M14.4,10.2h0" fill="#93bcbc"/><path d="M14.4,10.4h0" fill="#93bcbc"/><path d="M14.6,10.3h0" fill="#93bcbc"/><path d="M14.4,10.6h0" fill="#93bcbc"/><path d="M14.6,10.6h0" fill="#93bcbc"/><path d="M14.6,10.2h0s0,.1,0,.1h0a.3.3,0,0,1,0-.1" fill="#272425"/><path d="M14.4,10.1h0" fill="#272425"/><path d="M14.3,10.1h0" fill="#272425"/><path d="M14.2,10.1h0" fill="#272425"/><path d="M14.3,10.3h0" fill="#272425"/><path d="M14.2,10.3h0" fill="#272425"/><path d="M14.6,10.5h0" fill="#272425"/><path d="M14.5,10.5h0" fill="#272425"/><path d="M14.3,10.5h0" fill="#272425"/><path d="M14.3,9.9h-.2a.9.9,0,0,0,0,.2h.2Z" fill="#26554f"/><path d="M14.8,10.6s0,0,0-.2l-.2-.3h.2Z" fill="#26554f"/><path d="M15,10.4h0" fill="#272425"/><path d="M14.7,11h0" fill="#272425"/><path d="M15.2,11.2h0" fill="#272425"/><path d="M15.1,11.2h.1s0,0,0,0h-.1" fill="#272425"/><path d="M15.8,10.8a1,1,0,0,0-.7-.4.4.4,0,0,0-.4.4c0,.1.1.3.6.3s.5-.2.5-.2,0-.1,0-.1" fill="#93bcbc"/><path d="M15.8,10.8h0l-.2-.2-.5-.2h-.4c0,.1.1.3.6.3h0c-.4,0-.5-.2-.6-.3h0v-.2h.3l.5.2h.2Z" fill="#26554f"/><path d="M15.5,10.6l.2.2c0,.1.1.1,0,.1l-.5-.3h-.4a.2.2,0,0,0,.1.3h.6Z" fill="#3c8386"/><path d="M15.2,10.6h0" fill="#26554f"/><path d="M14.9,10.7h0" fill="#26554f"/><path d="M15.2,10.9h0" fill="#26554f"/><path d="M15,10.9h0" fill="#93bcbc"/><path d="M15.3,11h0" fill="#26554f"/><path d="M15.5,10.9h0" fill="#26554f"/><path d="M15.2,10.6h0" fill="#93bcbc"/><path d="M15,10.7h0" fill="#93bcbc"/><path d="M15.1,10.9h0" fill="#93bcbc"/><path d="M15.3,10.9h0" fill="#93bcbc"/><path d="M15.6,10.9h0" fill="#93bcbc"/><path d="M15.4,11h0" fill="#93bcbc"/><path d="M15.4,10.9h0" fill="#272425"/><path d="M15.3,11h0" fill="#272425"/><path d="M15.2,10.8h.1s0,0,0,0h-.1" fill="#272425"/><path d="M15.1,10.9h0" fill="#272425"/><path d="M15,10.9h0" fill="#272425"/><path d="M14.9,11h0" fill="#272425"/><path d="M14.9,10.7h0" fill="#272425"/><path d="M15,10.5h.1s0,0,0,.1H15" fill="#272425"/><path d="M15.7,11h-.4a.7.7,0,0,1-.6-.3h1Z" fill="#26554f"/><path d="M15.8,10.8h-.1l-.3-.2h.4Z" fill="#26554f"/><path d="M15.8,10.6h0" fill="#272425"/><path d="M16,10.5h.1s0,.1,0,.1H16" fill="#272425"/><path d="M16.1,10.5h.1s0,0,0,.1h-.1" fill="#272425"/><path d="M16.4,10.6h.1a.2.2,0,0,1,0,.1h0a.1.1,0,0,0,0,0h0" fill="#272425"/><path d="M16.5,10.6h0" fill="#272425"/><path d="M15.9,11.4h0" fill="#272425"/><path d="M16.2,11.5h0" fill="#272425"/><path d="M16.5,11.5h0" fill="#272425"/><path d="M16.6,11.5h0s0-.1,0-.1h0" fill="#272425"/><path d="M15.7,11c0-.1.2-.4.4-.4h1.1l-.2.3h-.1l-.3.2H16a.4.4,0,0,1-.3-.3" fill="#93bcbc"/><path d="M15.7,11h0v-.2h1.3l-.2.3h-.1l-.2.2h-.8V11h0v.2h.9l.3-.2H17l.2-.3H16l-.2.2V11Z" fill="#26554f"/><path d="M17,11h-.1l-.8-.3c-.2,0-.4.1-.4.3s0,.2.1.2H17Z" fill="#3c8386"/><path d="M16.1,10.9h0" fill="#26554f"/><path d="M16.1,10.8h0" fill="#26554f"/><path d="M16.5,10.9h0" fill="#26554f"/><path d="M16.5,11.1h0" fill="#26554f"/><path d="M16.4,11.2h0" fill="#26554f"/><path d="M16.1,11.2h0" fill="#26554f"/><path d="M16.1,10.9h0" fill="#93bcbc"/><path d="M16.2,10.8h0" fill="#93bcbc"/><path d="M16.6,10.9h0" fill="#93bcbc"/><path d="M16.4,11h0" fill="#26554f"/><path d="M16.2,11.2h0" fill="#93bcbc"/><path d="M16.4,11h0" fill="#93bcbc"/><path d="M16.7,11.1h0" fill="#93bcbc"/><path d="M16.5,11.2h0" fill="#93bcbc"/><path d="M16.5,11h0" fill="#272425"/><path d="M16.4,10.8h0" fill="#272425"/><path d="M16.2,10.9h0" fill="#272425"/><path d="M16.2,11h0" fill="#272425"/><path d="M16.1,10.7h.1a0,0,0,0,1,0,.1h-.1" fill="#272425"/><path d="M15.9,10.8H16s0,0,0,0h-.1" fill="#272425"/><path d="M15.9,10.9h0" fill="#272425"/><path d="M16.3,11.2h0" fill="#272425"/><path d="M16,11.2h0" fill="#272425"/><path d="M16.9,11.1l-.2.2H16l-.2-.2h1.2Z" fill="#26554f"/><path d="M16.8,10.8h-.6a.4.4,0,0,0-.3.2h.9Z" fill="#26554f"/><path d="M17.1,10.9h0Z" fill="#26554f"/><path d="M16.8,11.9h.4v-.2h-.1l-.2.2a.6.6,0,0,0-.1.3c0,.2,0,.4,0,.4" fill="#3c8386"/><path d="M16.8,11.9h.4v-.2h-.4v.2c0,.1,0,.1,0,.2v.2h0v-.4h.4v.2h-.4Z" fill="#26554f"/><path d="M16.9,11.8c.1,0,0-.1.1-.2l.2-.2h.4s0,0,0,0h.4s0,0,0,0H18s0-.1,0-.1h-.9s0,.2,0,.1H17v.6" fill="#93bcbc"/><path d="M17.1,11.5h0" fill="#93bcbc"/><path d="M17.4,11.3h0Z" fill="#93bcbc"/><path d="M17.7,11.3h0" fill="#93bcbc"/><path d="M16.9,11.4h0" fill="#93bcbc"/><path d="M17.2,11.6h0" fill="#26554f"/><path d="M17.9,11.2h-.1s0-.1,0-.1h.1" fill="#26554f"/><path d="M17.2,11.3h0" fill="#26554f"/><path d="M17.4,11.3h0" fill="#26554f"/><path d="M17.6,11.1h0" fill="#26554f"/><path d="M16.9,11.9h.3s0-.2.1-.3h.4a.3.3,0,0,0,.3-.2c0-.1-.1-.1-.2-.2h-.7s0,.1,0,.1H18a.4.4,0,0,1-.4.3h-.4c-.1.1-.1.3-.1.3h-.4Z" fill="#26554f"/><path d="M17,11.4h0a.2.2,0,0,1,0-.1h0" fill="#272425"/><path d="M17.2,11.3s0,0,0-.1h0" fill="#272425"/><path d="M17.1,11.6h0" fill="#272425"/><path d="M17.2,11.5h0" fill="#272425"/><path d="M17.5,11.2h0s0,.1,0,.1h.1" fill="#272425"/><path d="M17.5,11.3h0" fill="#272425"/><path d="M17.5,11.1h0" fill="#272425"/><path d="M17.9,11.1h0" fill="#272425"/><path d="M17.8,11.3h0" fill="#272425"/><polygon points="15.5 10.1 15.4 10.3 15.5 10.3 15.5 10.1 15.5 10.1" fill="#f2c949"/></g><g clip-path=""><polygon points="15.1 10.7 15.5 10.9 15.7 10.3 15.3 10.2 15.1 10.7" fill=""/></g><g clip-path=""><polygon points="15.5 10.1 15.5 10.1 15.4 10.3 15.5 10.3 15.5 10.1 15.5 10.1 15.5 10.1 15.5 10.1 15.5 10.1 15.5 10.1 15.5 10.3 15.4 10.3 15.5 10.1 15.5 10.1 15.5 10.1 15.5 10.1" fill="#a28b38"/><path d="M15.5,10h0" fill="#f2c949"/><path d="M15.5,10h0Z" fill="#a28b38"/><path d="M15.6,10h0Z" fill="#a28b38"/><path d="M15.5,10.2h0Z" fill="#a28b38"/><polygon points="19.4 10.6 19.2 10.8 19.3 10.8 19.4 10.6 19.4 10.6" fill="#f2c949"/><polygon points="19.4 10.6 19.4 10.6 19.2 10.8 19.3 10.8 19.4 10.6 19.4 10.6 19.4 10.6 19.4 10.6 19.4 10.6 19.4 10.6 19.3 10.8 19.2 10.8 19.4 10.6 19.4 10.6 19.4 10.6 19.4 10.6" fill="#a28b38"/><path d="M19.5,10.5h-.1a.1.1,0,0,0,0,.1h.1a.1.1,0,0,0,0-.1" fill="#f2c949"/><path d="M19.5,10.5h0Z" fill="#a28b38"/><path d="M19.5,10.5h0Z" fill="#a28b38"/><path d="M19.4,10.6h0Z" fill="#a28b38"/><polygon points="13.8 9.4 13.9 9.6 13.9 9.6 13.8 9.4 13.8 9.4" fill="#f2c949"/><polygon points="13.8 9.4 13.8 9.4 13.9 9.6 14 9.6 13.8 9.4 13.8 9.4 13.8 9.4 13.8 9.4 13.8 9.4 13.8 9.4 13.9 9.6 13.9 9.6 13.8 9.4 13.8 9.4 13.8 9.4 13.8 9.4" fill="#a28b38"/><path d="M13.7,9.3a.1.1,0,0,0,0,.1h.1a.1.1,0,0,0,0-.1h-.1" fill="#f2c949"/><path d="M14.2,9.8c.1.1,0,.2,0,.3h-.3c-.1-.1,0-.3,0-.3h.3" fill="#df5072"/></g><g clip-path=""><rect x="13.8" y="9.6" width="0.5" height="0.52" transform="translate(-0.8 1.3) rotate(-5.3)" fill=""/></g><g clip-path=""><path d="M13.7,9.3h0Z" fill="#a28b38"/><path d="M13.8,9.2s0,0,0,0a.1.1,0,0,0,0,.1h0Z" fill="#a28b38"/><path d="M13.8,9.4h0Z" fill="#a28b38"/><path d="M13.8,9.8h0a.3.3,0,0,1,0,.1h0" fill="#d6153e"/><path d="M13.8,9.6h0s0,.1,0,.1" fill="#d6153e"/><path d="M14.1,9.6a.1.1,0,0,0,0-.1h0" fill="#d6153e"/><path d="M13.9,9.7s0,.1,0,.1h0" fill="#f0e32a"/><path d="M13.9,9.6h0" fill="#f0e32a"/><path d="M14,9.5s0,0,0,0h0" fill="#f0e32a"/><path d="M15.3,10.3h0s0,0,0,0" fill="#d6153e"/><path d="M15.4,10.2h0" fill="#d6153e"/><path d="M15.6,10.4h0" fill="#d6153e"/><path d="M15.4,10.3h0" fill="#f0e32a"/><path d="M15.4,10.2h0" fill="#f0e32a"/><path d="M15.6,10.3h0" fill="#f0e32a"/><path d="M19.1,10.7h.1s0,0,0,0h-.1" fill="#d6153e"/><path d="M19.2,10.7h0" fill="#d6153e"/><path d="M19.2,10.9h.1s0-.1,0-.1h-.1a.1.1,0,0,0,0,.1h0" fill="#d6153e"/><path d="M19.2,10.7h-.1s0-.1,0-.1h.1" fill="#f0e32a"/><path d="M19.2,10.7h0s0,0,0,0h0" fill="#f0e32a"/><path d="M19.3,10.8h0" fill="#f0e32a"/><polygon points="16.2 7.2 16.3 7.3 16.1 7.4 16 7.4 16 7.4 16 7.3 15.9 7.2 15.8 7.2 15.9 7.2 16 7.1 16.1 7.1 16.2 7.1 16.2 7.2" fill="#854729"/><path d="M16.7,6.1s-.4-.1-.4.2v.2h.4a.3.3,0,0,1,.1.3h0v.7h.2V7.2l-.2-.8Z" fill="#a06c32"/><path d="M16.7,6.1h-.3a.2.2,0,0,0-.1.2h.5v.2h0v.7l.3-.2V7.2l-.2-.8-.6-.3h0l.6.3.2.8v.4h-.2V7h0V6.6h-.5a.2.2,0,0,1,.1-.2h.3Z" fill="#4a2d1d"/><path d="M17.1,7.6l.2-.2V7.3h.2s.1-.1,0-.2h0V6.9h0V6.7h-.7c.1,0,0-.1,0-.1h.3l.4.3.2.2v.9l-.3.2h-.1" fill="#4a2d1d"/><path d="M16.7,6.2h-.2a.2.2,0,0,0,0,.2h.3" fill="#c8a369"/><path d="M17.1,7.7H17v.4l.4.6h.3l.2.2h.1l.3.4s0-.1,0-.1V8.9h.4V8.9h.3V8.8H19v.6h.1V8.8h.1v.6h.1V8.8h.1v.8h0l.2-1.5h0l-.2-.3V7.7l-.2-.4L19,6.9l-.3-.2h-.3l-.2-.2H16.7a.2.2,0,0,0,0,.1h.1l.3.2h.2v.9Z" fill="#844629"/><path d="M17.5,8.6h.2c.1-.1,0-.3,0-.3h.1a.3.3,0,0,1,0,.2v.2h-.1Z" fill="#a06c32"/><path d="M19.7,10V9.1c0-.1,0-.2,0-.2h-.1a.6.6,0,0,0,0-.2l-.2-.4h.6a2.5,2.5,0,0,1,.1.4,1,1,0,0,1-.1.4,3.5,3.5,0,0,0-.1.6h-.1Z" fill="#4a2d1d"/><path d="M19.7,9.3h.1a2,2,0,0,0,0-.7h-.2v.2h.1a1.5,1.5,0,0,1,.1.3c0,.2,0,.3,0,.3" fill="#844629"/><path d="M19.4,9.6a3.2,3.2,0,0,0,0-.5.6.6,0,0,0,0-.3V8.2h.1V9.6Z" fill="#4a2d1d"/><path d="M19.5,8.3h0Z" fill="#4a2d1d"/><path d="M19.1,9.5a.6.6,0,0,0,0-.2V8.9l-.2-.3V8.3h-.1V8h.3v.5h.1v1h0Z" fill="#4a2d1d"/><path d="M18.9,9.3a.9.9,0,0,0,0-.3V8.8l-.2-.3-.2-.3V8.1h.2v.2h.2V9h0v.2h-.1Z" fill="#4a2d1d"/><path d="M18.7,9.3h-.1a.1.1,0,0,0,0-.1V9h-.1l-.2-.2-.2-.2H18V8.2h.2v.3h.3v.2h0Z" fill="#4a2d1d"/><path d="M18.4,9.3V9.1c0-.1,0-.1,0-.1l-.2-.2-.2-.2H18l.2.3h.1v.2h.1Z" fill="#4a2d1d"/><path d="M19.2,8.1s.2.2.2,0a.5.5,0,0,0-.1-.2l-.2-.3-.3-.4h-.1l.3.4a.7.7,0,0,1,.1.5Z" fill="#4a2d1d"/><path d="M18.3,6.9l.5.6c.2.3.3.5.2.5h-.2l-.3-.4-.3-.3V6.9Z" fill="#4a2d1d"/><path d="M18.1,7.5l.3.3.2.2h.1s0-.1,0-.1h.1l-.6-.6Z" fill="#4a2d1d"/><path d="M18.1,7.5l.2.2.2.2v.2l-.3-.2v.2h-.1V7.9H18V7.5Z" fill="#4a2d1d"/><path d="M17.3,8.2s.1.1.2,0a.3.3,0,0,0,0-.3s.2.3.3,0V7.7h0v.2a.2.2,0,0,0,.1-.2.6.6,0,0,0-.1-.3h.1s.2,0,.2-.1-.2-.2-.2-.2h.1l-.2-.2h.4c0-.1,0-.1,0-.1h-.5v.3h0v.6h-.4Z" fill="#4a2d1d"/><path d="M18.3,8.7V8.6H18l.2.2Z" fill="#a06c32"/><path d="M18.6,8.8V8.6l-.2-.2h0v.2h.3" fill="#a06c32"/><path d="M18.8,8.8V8.5l-.2-.2v.5Z" fill="#a06c32"/><path d="M19,8.7a1.1,1.1,0,0,0,0-.4h-.2v.4Z" fill="#a06c32"/><path d="M19.2,8.1h.1v.5h0l-.2-.3V8.1Z" fill="#a06c32"/><path d="M17.8,8.5H18V8.3H18s-.1-.2-.1-.2v.2a.3.3,0,0,1,0,.2c-.1.2-.2.1-.2.1" fill="#c8a369"/><path d="M18.1,8.3h.2V8.1h.1V7.9h0V8a.3.3,0,0,1,.1.3c0,.1-.3,0-.2,0" fill="#c8a369"/><path d="M18.8,8s0-.1,0-.1h0Z" fill="#c8a369"/><path d="M18.3,8.1h.3L18.4,8h.1s0,.1,0,.1h.1s0-.2,0-.2h.3s0,.1,0,.2h-.2s0,.1,0,.1h-.3Z" fill="#c8a369"/><path d="M15,7.6h-.3c-.1,0-.1-.1-.1-.4s0,0,0,0h0V7l.3-.3h0a.1.1,0,0,0,0,.1h.3v.3Zm.1-.3h-.3a.1.1,0,0,1,0-.1h0s0,0,0,0h0l-.3.3v.2h0c0,.1,0,.4.1.4H15V7.3h0Z" fill="#767334"/><path d="M18.9,8h.3s-.1-.4-.1-.4.2.4.1.5h-.3Z" fill="#c8a369"/><path d="M19.6,8.6h0" fill="#c8a369"/><path d="M19.4,7.8h0Z" fill="#c8a369"/><path d="M19.3,7.6h0Z" fill="#c8a369"/><path d="M19.5,8.4h0Z" fill="#c8a369"/><path d="M19.1,7.2h0Z" fill="#c8a369"/><path d="M18.7,6.9h.2a.4.4,0,0,1,0,.2h-.2Z" fill="#c8a369"/><path d="M18.5,6.8h0Z" fill="#c8a369"/><path d="M18.2,6.7h.1l.2-.2h.1a.1.1,0,0,1,0,.1h-.4Z" fill="#c8a369"/><path d="M18.2,6.4h-.1v.2a.8.8,0,0,1,0,.2h0" fill="#c8a369"/><path d="M17.9,6.3l-.3-.2.3.2v.2h0Z" fill="#c8a369"/><path d="M17.6,6.2,17,6c-.2,0-.3,0-.2.1h.5l.3.2a.3.3,0,0,1,0,.2h-.1" fill="#c8a369"/><path d="M17.1,7.7a.4.4,0,0,0,.3-.4,1.7,1.7,0,0,0-.1-.7h.1a1.3,1.3,0,0,1,.1.6.4.4,0,0,1-.2.4h-.2Z" fill="#c8a369"/><path d="M17.3,8.3h.1c.1,0,.2-.1.2-.2V8a.3.3,0,0,1,0-.1h.2V7.7a.1.1,0,0,1,0-.1h.2a.1.1,0,0,1,0,0h.2a.1.1,0,0,1,0,0h-.7Z" fill="#c8a369"/><path d="M18,7.2s.2.1.2-.1L18,6.8h.3c0-.1,0-.1,0-.1h.1v.3s0,.1-.1.1H18" fill="#c8a369"/><path d="M18.2,8.7H18v.2Z" fill="#c8a369"/><path d="M18.5,8.7V8.6h-.1s0,.2,0,.2l.2.2Z" fill="#c8a369"/><path d="M18.8,8.7V8.3s0,.1,0,.1v.2h.2Z" fill="#c8a369"/><path d="M19,8.6a1.9,1.9,0,0,0,0-.2V8.2a1.5,1.5,0,0,0,0,.2Z" fill="#c8a369"/><path d="M19.4,8.7V8.7Z" fill="#c8a369"/><path d="M19.8,8.3h0Z" fill="#c8a369"/><path d="M18.3,8.4a.4.4,0,0,0,.1.2l.2.2v.6h0s0,0,0-.1a1.2,1.2,0,0,0-.1-.4l-.3-.3h.1Z" fill="#252525"/><path d="M18.6,9.2V9l-.2-.2h-.1L18,8.5h0l.2.3v.3h.1V8.8h.1l.2.2v.4h0V9.2" fill="#252525"/><path d="M18.3,8.1h.2a.8.8,0,0,0,.1.4l.2.2a1.4,1.4,0,0,0,.1.4.9.9,0,0,1,.1.4V8.8h0v.5h0V8.4h-.2" fill="#252525"/><path d="M18.7,8.1h.2a.7.7,0,0,0,.1.4l.2.2v.8a3.7,3.7,0,0,1,0,.5c-.1-.1,0-.3,0-.4a1.4,1.4,0,0,1-.1-.4c-.1-.3,0-.3-.1-.4h0c0,.1,0,.3.1.4l.2.4s0-.3,0-.5a2.3,2.3,0,0,0-.1-.4l-.2-.2V8.2h-.2" fill="#252525"/><path d="M18.9,8h.3a1,1,0,0,0,.1.4v.2s0,.6,0,.7,0,.8,0,.8,0-.4,0-.5V9.5c0-.1,0-.4-.1-.6v0c0,.1,0,.5.1.6v.2c0,.1,0-.8,0-.8a2.2,2.2,0,0,1-.2-.5V8.2H19V8" fill="#252525"/><path d="M19.3,8.1h.5a1.2,1.2,0,0,1,.1.5,1.7,1.7,0,0,1-.1.5c0,.3,0,.8-.1.9h0s0,.1,0,.1-.1-.1-.1-.1a2.3,2.3,0,0,0,0-.3,2.1,2.1,0,0,0-.1-.3c0-.2,0-.7,0-.8V8.7h.1c0,.1,0,.7.1.8s0,0,0-.1a3.8,3.8,0,0,0,0-.5,1.5,1.5,0,0,0-.1-.6h.1a1.3,1.3,0,0,1,.1.4,5.8,5.8,0,0,0,0,.9s0-.3.1-.6a1.8,1.8,0,0,0,.1-.5,1,1,0,0,0-.1-.5h-.3l-.2-.2" fill="#252525"/><path d="M17.4,8.4h.1l.2-.2h.2a.5.5,0,0,0,0-.2h.1V7.7h.2c0-.1,0-.2-.1-.2h.2V6.9h.6l.3.3h0l.2.2h0l.2.3L19,7.3l-.2-.2.2.4.2.3a2.5,2.5,0,0,0-.5-.7l-.3-.3a.4.4,0,0,0,0,.2l.4.4.4.5-.4-.5-.4-.3h-.1l.3.2h0l.2.2h0v.2l-.4-.4-.3-.2H18l.3.3.2.2-.2-.2-.2-.2a.1.1,0,0,0,0,.1l.2.3L18,7.8h-.1l.4.4L17.9,8v.3L17.9,8h-.2l.2.3-.3-.3h0v0h-.3Z" fill="#252525"/><path d="M19.8,8.3h0c-.1-.1-.3-.6-.5-.9a3,3,0,0,0-.7-.7,2.4,2.4,0,0,1,.7.7c.3.4.4.8.5.9h0Z" fill="#252525"/><path d="M17.2,8.1h.2l.2-.2h0V7.6h0s0-.2,0-.2h0a.3.3,0,0,0,0-.2h-.2V6.3h.3a.1.1,0,0,0,0-.1h0a.2.2,0,0,1,0,.1h.2s0-.1,0-.1h.3a.2.2,0,0,0,0-.1h0c0,.1,0,.1,0,.1h-.1l-.4-.2.2.2h-.2L18,7h-.2v.2h-.1a.2.2,0,0,1,0,.1h-.6" fill="#252525"/><path d="M18.6,6.6h-.3a2.6,2.6,0,0,0-1.2-.4H17a2.6,2.6,0,0,1,1.3.4h.4Z" fill="#252525"/><path d="M17.3,6.7h0V6.5l-.4-.2.4.2.2.2" fill="#252525"/><path d="M17.3,7.2h0" fill="#c8a369"/><path d="M17.3,6.9h0" fill="#c8a369"/><path d="M17.2,6.7h0" fill="#c8a369"/><path d="M17.1,6.6h0" fill="#c8a369"/><path d="M16.8,6.4h0" fill="#c8a369"/><path d="M16,9.7h-.1Z" fill="#eec747"/><path d="M16,9.7h-.1V9.7h0v.2H16Z" fill="#907c35"/><path d="M16,9.6V9.4c-.1,0,0,.1,0,.1h0s0,.1,0,.1H16" fill="#eec747"/><path d="M16,9.6h0Z" fill="#907c35"/><path d="M15.9,9.8h.1" fill="#eec747"/><path d="M15.9,9.8h0Z" fill="#907c35"/><path d="M15.9,9.7V9.6h-.1" fill="#eec747"/><path d="M15.9,9.7h0Z" fill="#907c35"/><path d="M15.8,9.8h0Z" fill="#eec747"/><path d="M15.8,9.8h0Z" fill="#907c35"/><path d="M15.9,9.7h0" fill="#eec747"/><path d="M15.9,9.7h0Z" fill="#907c35"/><path d="M15.8,9.8l-.2.2c-.1,0,0-.3,0-.3h.2" fill="#eec747"/><path d="M15.8,9.8h-.2v.2h.2Z" fill="#907c35"/><path d="M15.6,9.7h0s0-.1,0-.1" fill="#eec747"/><path d="M15.6,9.7h0Z" fill="#907c35"/><path d="M15.2,9.9h0Z" fill="#252725"/><path d="M15.2,9.9h0Z" fill="#4b433c"/><path d="M15.2,9.9h0Z" fill="#252725"/><path d="M15.2,9.9h0Z" fill="#4b433c"/><path d="M15.2,9.9h0Z" fill="#4b433c"/><path d="M15.3,9.8h0Z" fill="#252725"/><path d="M15.3,9.8h.2V9.7h-.1Z" fill="#4b433c"/><path d="M15.3,9.8h0Z" fill="#4b433c"/><path d="M15.2,9.9h0Z" fill="#4b433c"/><path d="M15.6,9.6v.2h-.1" fill="#eec747"/><path d="M15.6,9.6h0Z" fill="#907c35"/><path d="M15.2,9.7h-.1a.2.2,0,0,0,0,.1h.1Z" fill="#eec747"/><path d="M15.2,9.7h0Z" fill="#907c35"/><path d="M15.1,9.7h0Z" fill="#eec747"/><path d="M15.1,9.7h0Z" fill="#907c35"/><path d="M15.2,9.8h0" fill="#eec747"/><path d="M15.2,9.8h0Z" fill="#907c35"/><path d="M15.2,9.5h0Z" fill="#eec747"/><path d="M15.2,9.5h0V9.5h0v.2h0Z" fill="#907c35"/><path d="M15.2,9.6h0Z" fill="#eec747"/><path d="M15.2,9.6h0Z" fill="#907c35"/><path d="M15.3,9.8h0" fill="#eec747"/><path d="M15.3,9.8h0Z" fill="#907c35"/><path d="M15.4,9.4h-.2s0,.1,0,.1h.2Z" fill="#eec747"/><path d="M15.4,9.4h0V9.4h0v.2h0Z" fill="#907c35"/><path d="M15.3,9.7h.1c.1,0,0,.1,0,.1h-.1" fill="#eec747"/><path d="M15.3,9.7h0Z" fill="#907c35"/><path d="M15.5,9.7h-.2s0-.1,0-.1h.1Z" fill="#eec747"/><path d="M15.5,9.7h0Z" fill="#907c35"/><path d="M15.4,9.6s-.1,0,0,.1h0" fill="#eec747"/><path d="M15.4,9.6h0Z" fill="#907c35"/><path d="M15.5,9.4h0" fill="#252725"/><path d="M15.5,9.4h-.2s0,.1,0,.1a.2.2,0,0,1,0-.1h.2" fill="#4b433c"/><polygon points="17.7 10 17.7 9.7 16.9 10 17.2 10.3 17.7 10" fill="#252525"/><path d="M16.2,9.5h0Z" fill="#c8a369"/><polygon points="16.3 9.8 16 9.8 16.1 9.7 16.1 9.7 16.1 9.7 16.2 9.6 16.2 9.6 16.3 9.7 16.3 9.7 16.3 9.8 16.4 9.8 16.4 9.9 16.3 9.8" fill="#c8a369"/><polygon points="16.4 9.8 16.4 9.8 16.4 9.8 16.4 9.7 16.4 9.4 16.2 9.2 16.2 9.3 16.3 9.6 16.3 9.7 16.4 9.8" fill="#c8a369"/><path d="M16.2,9.3s0,0,0,.1a1.3,1.3,0,0,0,.1.4h-.1a1.1,1.1,0,0,1-.1-.4c0-.2,0,0,0,0" fill="#a06c32"/><path d="M16.4,9.5h-.1a.6.6,0,0,0,0,.1h0s0,.1,0,.1V9.5Z" fill="#a06c32"/><path d="M16.4,10h0Z" fill="#a06c32"/><path d="M16,9.9h0" fill="#a06c32"/><path d="M16,9.9h0Z" fill="#c8a369"/><polygon points="16.5 9.5 16.5 9.7 16.5 9.8 16.5 9.7 16.5 9.5 16.5 9.5" fill="#a06c32"/><path d="M16.2,9.5h-.1V9.3h.1a.3.3,0,0,0,0,.1h0" fill="#4a2d1d"/><path d="M15.8,9.9h0Z" fill="#c8a369"/><path d="M16.5,9.5v.2h-.1c0-.1,0-.1,0-.1h0V9.4h.1" fill="#844629"/><path d="M16,9.9h0Z" fill="#a06c32"/><path d="M16.2,9.5,16,9.2A.5.5,0,0,1,16,9l.2.2a.2.2,0,0,0,0,.1v.3" fill="#844629"/><path d="M16.1,10.2a.1.1,0,0,1,0-.1l.4-.2V10l-.3.2Z" fill="#a06c32"/><path d="M16.2,10.1h0" fill="#844629"/><path d="M16.6,10.1h0Z" fill="#844629"/><path d="M16.6,10.1s-.1,0-.1-.3a1.1,1.1,0,0,1,0-.3h.1v.5Z" fill="#a06c32"/><path d="M16.6,9.7v.2a.5.5,0,0,0,0,.2h.1V9.7Z" fill="#844629"/><path d="M16.7,9.9s0,.3-.1.3h0c.1,0,0-.3,0-.3Z" fill="#252525"/><path d="M16.6,10.1h0" fill="#252525"/><path d="M16.3,9.7h.1V9.6Z" fill="#a06c32"/><path d="M16.2,10.1s0-.1,0-.1h0Z" fill="#844629"/><path d="M16.2,10.1h0" fill="#252525"/><path d="M16.2,9.6h-.2a.1.1,0,0,1,0-.1h.1" fill="#a06c32"/><path d="M16,9.4h0" fill="#844629"/><path d="M16.2,9.5h0" fill="#844629"/><polygon points="17.5 8.8 17.9 9.4 17.1 9.6 16.7 9.6 16.5 9.5 16.6 9.3 17.5 8.8" fill="#252525"/><path d="M17.2,10.6h0Z" fill="#eec747"/><path d="M17.2,10.6h0Z" fill="#907c35"/><path d="M17.1,10.6h0Z" fill="#eec747"/><path d="M17.1,10.6h0Z" fill="#907c35"/><path d="M17.8,10.6h-.2v.3h.2Z" fill="#eec747"/><path d="M17.8,10.6h-.2v.3h0v-.3h.2Z" fill="#907c35"/><path d="M17.1,10.6h-.2s0,.1,0,.2h.1l.3-.2h-.3" fill="#eec747"/><path d="M17.1,10.6h0l.3-.2h-.3Z" fill="#907c35"/><path d="M16.8,10.9s0-.1,0-.1H17s0-.1,0-.1h0s-.2,0-.2.1a.1.1,0,0,0,.1.1" fill="#252725"/><path d="M17.3,10.7h0Z" fill="#eec747"/><path d="M17.3,10.7h0Z" fill="#907c35"/><path d="M17.9,10.7h0Z" fill="#eec747"/><path d="M17.9,10.7h0Z" fill="#907c35"/><path d="M17.4,10.6h0Z" fill="#eec747"/><path d="M17.4,10.6h0Z" fill="#907c35"/><path d="M17.9,10.7h0Z" fill="#eec747"/><path d="M17.9,10.7h0Z" fill="#907c35"/><path d="M17.7,10.8h.4s0-.1,0-.1h-.8a.1.1,0,0,0,0-.1h.2" fill="#eec747"/><path d="M17.7,10.8h0" fill="#907c35"/><path d="M17.6,10.3v.2s0,.1,0,.2h-.2a.6.6,0,0,1,0-.2Z" fill="#eec747"/><path d="M17.6,10.3h0v.2h-.2l.2-.2h0l-.2.2h.2v-.2h0Z" fill="#907c35"/><path d="M17.1,11.2s-.1-.1,0-.1h.1s0,0,0-.1h-.1a.2.2,0,0,0-.1.2h.1" fill="#252725"/><path d="M18.1,11.1s.2.1.2-.1a.2.2,0,0,0-.1-.2h0c0,.1-.1.1-.1.1" fill="#252725"/><path d="M17.5,10.8h.2" fill="#eec747"/><path d="M17.5,10.8h0" fill="#907c35"/><path d="M17.1,11.2A.2.2,0,0,1,17,11h0a.2.2,0,0,0,.1.2" fill="#4b433c"/><path d="M16.8,10.9s-.1,0-.1-.1.2-.1.2-.1-.2,0-.2.1h.1" fill="#4b433c"/><path d="M18.1,11.1h.2a.2.2,0,0,0,0-.2h0a.2.2,0,0,1,0,.2h-.2" fill="#4b433c"/><polygon points="18.9 10.5 18.8 10.6 18.5 10.5 18 10 17.8 9.8 17.8 9.5 18.9 10.5" fill="#4a2d1d"/><path d="M19.2,10.3l-.6-.5-.8-.6v.3l.9.8h.5Z" fill="#4a2d1d"/><path d="M17.8,9.6l.6.5.5.4h0l-1.1-.9Z" fill="#774026"/><polygon points="18.4 10.6 18.3 10.6 17.6 9.9 17.7 9.7 17.8 9.8 18.6 10.5 18.4 10.6" fill="#4a2d1d"/><path d="M19.2,10.3s-.1.2-.3.2a9.5,9.5,0,0,1-1.2-1h0a8.3,8.3,0,0,0,1.2.9c.2,0,.3-.1.3-.1h-.1" fill="#252525"/><path d="M17.7,9.8l.5.6.4.3c.1,0,0-.1,0-.1L18,10l-.2-.2h-.1" fill="#774026"/><path d="M17.7,9.8l.9.8h0a5.2,5.2,0,0,1-.9-.8Z" fill="#252525"/><polygon points="18.3 10.5 18.2 10.6 18.1 10.6 18 10.5 17.8 10.2 17.7 10.1 17.7 9.9 18.3 10.5" fill="#4a2d1d"/><path d="M18.6,10.5h-.3l-.6-.5h0l.7.7h.2Z" fill="#252525"/><path d="M18.3,10.5H18l-.3-.4h0l.4.5h.1Z" fill="#252525"/><path d="M17.9,9.5l.4.3h.1l.2.2h.3l.2.2-.3-.2h0s0-.1,0-.1l-.2-.2h0s0-.1,0-.1l-.2-.2h-.1l-.4-.4" fill="#a57132"/><path d="M17.3,10.4s0,.1-.1.1l-.2-.2v-.2l.2.2Z" fill="#4a2d1d"/><path d="M17.8,10.3a.3.3,0,0,0,0-.1h-.2v.2h.2Z" fill="#4a2d1d"/><path d="M17.7,10.5s0-.2,0-.2v-.3h-.2v.2l.2.2" fill="#4a2d1d"/><path d="M17.6,10h.1v.2h.1s0-.1,0-.1h-.1v-.2a.5.5,0,0,1,0-.1v.2h0V10h.1a2.4,2.4,0,0,0,0-.3l-.4.5Z" fill="#252525"/><path d="M17.6,10a.6.6,0,0,0,0,.3v.2a.4.4,0,0,1,0,.2V10h.1Z" fill="#252525"/><path d="M17.5,10.6s0-.1,0-.1h0v-.3h-.2v.2l.2.3.2.2" fill="#4a2d1d"/><path d="M17,10.1h0v.2h.1v-.3H17" fill="#252525"/><path d="M17.4,10.3v-.2h.1" fill="#252525"/><path d="M17.2,10.2h.1v.2h-.2Z" fill="#583c24"/><path d="M17.4,10.1h0" fill="#252525"/><path d="M17.4,10.1v.3a.6.6,0,0,1,0,.2h0v-.3h0" fill="#252525"/><path d="M17.5,10V9.6h0V9.2h-.2a.5.5,0,0,1,0,.1h0l.3.5Z" fill="#4a2d1d"/><path d="M17,10.2H17s0-.1,0-.2l-.4-.5.4.6" fill="#804428"/><path d="M17.2,10s0,.2,0,.2-.5-.5-.5-.6l-.2-.2h.3l.5.5h0" fill="#804428"/><path d="M17.2,10h-.1l-.4-.5h0l.5.5h0l-.5-.5h0l.2.3.2.2h.1Z" fill="#583c24"/><path d="M17,10.2h-.1l-.3-.4h-.1l.2.3.3.3" fill="#252525"/><path d="M17.4,10.1s0-.1,0-.2l-.2-.5h-.3v.2h0l.2.3Z" fill="#4a2d1d"/><path d="M17.6,9.8h.1V9h-.1v.3l.2.4h.1Z" fill="#4a2d1d"/><path d="M17.2,9.9,17,9.7V9.6h-.2s0,.1.2.3l.3.2" fill="#252525"/><path d="M17.5,10c.1,0,.1-.3,0-.5l-.2-.3v.4c0,.1,0,.2,0,.2V9.6h-.1s.2.5.1.5l-.3-.5h0s.2.6.4.6" fill="#804428"/><path d="M17.7,8.8v.6s0,.4,0,.4h-.1V8.9h.2Z" fill="#4a2d1d"/><path d="M17.4,10.1s0-.1,0-.1h-.1V9.8h-.1l-.2-.3h0s.3.6.5.6" fill="#804428"/><path d="M17.3,9.8a.3.3,0,0,0,0-.2V9.4H17v.2l.2.3" fill="#252525"/><path d="M17.4,9.7V9.2a.7.7,0,0,1,0,.1c0,.1,0,.1,0,.1h.1v.3" fill="#252525"/><path d="M17.6,9.4a1.9,1.9,0,0,0,0-.3V8.9h.1V8.8h-.1s0,0,0,.1h0v.4" fill="#252525"/><path d="M17.8,9.4a1.2,1.2,0,0,0,0-.5V8.7h0v.6" fill="#252525"/><path d="M17.5,9.5V9h-.1v.2h.1v.2" fill="#252525"/><path d="M17.7,9.9c.1,0,0-.3,0-.4L17.5,9v.4s.1.4.1.4h0" fill="#854729"/><path d="M17.7,9.7s0-.3,0-.4v0c0,.2.1.5,0,.5h0" fill="#854729"/><path d="M17.2,10.1s0,.1,0,.1L17,10h.2s0-.1,0-.2h0" fill="#32281e"/><path d="M17.5,8.7h.1V8.5h0c0,.1,0,.2-.1.3h-.1Z" fill="#c8a369"/><path d="M17.4,8.4v.3c0,.1,0,.2,0,.2h0V8.4" fill="#844629"/><polygon points="15.9 8.6 16.5 9.4 17.2 8.6 16.8 8.1 15.9 8.6" fill="#242626"/><polygon points="16.6 8.1 16.6 8.2 16.7 8.4 16.8 8.5 16.9 8.6 17 8.5 17 8.4 17 8.4 17.1 8.4 17.2 8.4 17.3 8.2 17.2 8.1 17.2 8.1 17.1 7.8 17 7.9 17 8 16.9 7.9 16.8 8 16.7 8 16.6 8.1" fill="#4a2d1d"/><path d="M16.9,8.6h0a1.4,1.4,0,0,0,0-.3V8a1.1,1.1,0,0,1,.1.4c0,.2,0,.2,0,.3h0" fill="#583a20"/><path d="M17,8.3h.1s0-.2,0-.3V8h0v.2c0,.1.1.3,0,.3H17Z" fill="#583a20"/><path d="M16.7,8.4h0Z" fill="#844629"/><path d="M16.9,9.5h-.2l-.4-.4V8.9h1.1v.2a.7.7,0,0,1,0,.3h-.1s.1.3,0,.3h-.2s0,.3,0,.3h-.3s.1.2,0,.3" fill="#c8a369"/><path d="M16.8,9.2h.1a.4.4,0,0,1,0,.2V9.1h.2" fill="#844629"/><path d="M17.4,8.5s.1.4.1.4l-.2-.2L17,8.5h.4Z" fill="#844629"/><path d="M16.7,9.3h-.1l-.2-.2h-.1l.3.3a.6.6,0,0,1,0,.2" fill="#844629"/><path d="M17.1,9.3l-.3-.2-.2-.3h0l.4.6" fill="#844629"/><path d="M17.2,9.1H17a.2.2,0,0,1,0-.1l.2.3" fill="#844629"/><path d="M17.3,9.1,17,8.9h0l.2.4h0" fill="#844629"/><path d="M16.7,9.5h-.1a1.1,1.1,0,0,1-.5-.4l-.2-.3H16l.5.6Z" fill="#a06c32"/><path d="M16.7,9.5h-.1l-.4-.3L16,8.8h0l.3.5Z" fill="#844629"/><path d="M17,9.2l-.2-.2-.2-.3h.2v.2h0v.2h-.1v.2" fill="#4a2d1d"/><path d="M16.8,9.2s0,.1,0,.1h-.1V9.1s0,.1,0,.1L16.5,9V8.8a.7.7,0,0,0,0-.1h0l.2.2h.1v.2Z" fill="#4a2d1d"/><path d="M16.1,8.9l.3.4.3.2L16.3,9Z" fill="#4a2d1d"/><path d="M17.2,9l-.2-.2V8.4l.2.2v.2h-.1V9" fill="#4a2d1d"/><path d="M17.4,8.9h-.1V8.2h.2a.5.5,0,0,1,0,.2,1.4,1.4,0,0,1,0,.3" fill="#4a2d1d"/><path d="M16.2,9.3,16,9h0a.9.9,0,0,0,.2.4l.3.2s0,.1,0,.2l-.3-.3" fill="#4a2d1d"/><path d="M16.4,9.5l-.3-.3-.2-.3H16l.2.4.3.4" fill="#252525"/><path d="M16.7,9.5l-.3-.3-.2-.2h.1v.2l.3.3" fill="#252525"/><path d="M16.7,9.1l-.2-.2V8.7l.2.2h0a.2.2,0,0,0,0,.1h0" fill="#252525"/><path d="M16.7,8.5a.5.5,0,0,1,0,.2h.1s-.1-.1,0-.1H17V8.7h-.2" fill="#252525"/><path d="M17.1,8.8V8.3s0,.1,0,.1v.2h.2" fill="#252525"/><path d="M17,8.3h.2c0-.1,0-.2,0-.2h.1s0-.1,0-.1l.2.3V8.2a.3.3,0,0,0,0,.2v.4H17Z" fill="#252525"/><path d="M16.6,8.9v0" fill="#1d1d1d"/><path d="M17.3,8.9h0" fill="#844629"/><path d="M16,8.1H16v.6l.2.2V8.6h.2V8.7l-.2-.5H16Z" fill="#c8a369"/><path d="M16.5,8.5v.2c0,.1,0,.1,0,.1V8.7a1.7,1.7,0,0,0,0-.3c0-.2,0-.3,0-.3h-.1v.5Z" fill="#a06c32"/><path d="M16.1,8.4v.2a.7.7,0,0,1,0-.3c0-.2,0-.2,0-.2Z" fill="#a06c32"/><path d="M15.9,8a.9.9,0,0,0-.2.4c0,.1,0,.1.1.2v.3h0s0-.9,0-.9" fill="#453c31"/><path d="M15.9,8.1a.8.8,0,0,0-.1.3v.2a1.1,1.1,0,0,1,0,.3h.1V8.1h-.1Z" fill="#a06c32"/><path d="M16.6,8.4h0Z" fill="#d1ab6e"/><path d="M15.9,8.1a1,1,0,0,0-.1.4,1.1,1.1,0,0,0,.1.4h0s0-.5,0-.5h0Z" fill="#c8a369"/><path d="M16.1,8.1a.3.3,0,0,1,0,.1h-.1a.2.2,0,0,0,0,.1h.2a.6.6,0,0,1,0-.2h-.1" fill="#844629"/><path d="M16.6,8.6h0Z" fill="#d1ab6e"/><path d="M16,8.6h0V8.6h0s0-.1,0-.1h-.1V8.1H16s0,0-.1.2,0,.2,0,.2" fill="#844629"/><path d="M16.5,8.2a.6.6,0,0,1,0,.1h-.1a.4.4,0,0,0,0,.1h.1s0-.1,0-.1h.1a1.4,1.4,0,0,1,0-.2h0a.1.1,0,0,0,0-.1h-.2" fill="#844629"/><path d="M17,8V8h0v.2h-.1a.2.2,0,0,0,0,.1h0v.3h-.1a1.4,1.4,0,0,1-.1-.4h.1v0H17" fill="#242626"/><path d="M16.6,7.9h0" fill="#242626"/><path d="M16,8.1h.1l.2-.2h0l-.2.2H16" fill="#242626"/><path d="M16,7.9h-.1a.1.1,0,0,1,0-.1H16" fill="#242626"/><path d="M17.1,7.8v.2h-.1" fill="#242626"/><path d="M15.8,8H16a.3.3,0,0,0,0,.1h.3a.3.3,0,0,0,0,.1h.3V7.6h-.8Z" fill="#d1ab6e"/><path d="M16.5,7.7a.5.5,0,0,1,0,.2v.2l.2-.2a.7.7,0,0,0,0-.3Z" fill="#844629"/><path d="M16.6,7.6s0,0,0,.1v.2h.5V7.5h-.2Z" fill="#844629"/><path d="M16.9,7.4v.4a1,1,0,0,0,0-.2h0" fill="#a06c32"/><path d="M17.1,7.8a.6.6,0,0,1,0,.1V7.5h0Z" fill="#4a2d1d"/><path d="M16.7,8a.4.4,0,0,0,.2-.3.9.9,0,0,0-.1-.3,1.1,1.1,0,0,1-.1.3v.2h.1a.2.2,0,0,1,0,.1h0" fill="#4a2d1d"/><path d="M16.6,7.6h-.1a.1.1,0,0,0,0-.1h.1" fill="#4a2d1d"/><path d="M17,7.3v.2a1.3,1.3,0,0,1,0,.3V7.6h-.1a.2.2,0,0,0,0-.1H17" fill="#242626"/><path d="M16.7,7.8V7.6a.3.3,0,0,0,0-.2h-.1a.5.5,0,0,1,0,.2v.2h.1s0,0,0,.1v.2" fill="#242626"/><path d="M15.8,8V7.6h.2a.3.3,0,0,0,0,.2h.1V8a.5.5,0,0,0,0-.2h-.1c0-.1,0-.1,0-.1H16V7.7h-.1V8h0" fill="#844629"/><path d="M17.1,7.2h0Z" fill="#7f4f28"/><path d="M16,7.4h0s.1-.3.1-.3h0Z" fill="#a67032"/><path d="M16.7,7.3s0,.3-.1.3-.1-.2-.1-.2,0,.2-.1.2-.1-.2-.1-.2v.2H16a.6.6,0,0,0,.1-.2h.6Z" fill="#d1ab6e"/><path d="M16.3,6.9v.2h.1a.2.2,0,0,0,0,.2.2.2,0,0,1,0-.1h0s0,.3.1.3V7.3h.2c.1,0,.1-.1.1-.2V7l-.3-.2h-.2" fill="#a67032"/><path d="M16.8,6.9h0c0,.1,0,.3,0,.3h-.1s0-.2,0-.2h.1Z" fill="#844629"/><path d="M16.8,6.8v.4h-.1s0-.1-.1-.2l-.2-.2h.1Z" fill="#4a2d1d"/><path d="M16.7,6.7l.2.2v.2h0V6.9h0v.2h-.1V7h0" fill="#242626"/><path d="M16.4,6.9h0" fill="#844629"/><path d="M16.4,7.1a.5.5,0,0,1,0,.2v.2s0-.1,0-.2h.1Z" fill="#a67032"/><path d="M16.3,7.2h-.1s0,0,0,.1v.2h.3a.9.9,0,0,0,0-.1h-.1a.2.2,0,0,1,0,.1" fill="#844629"/><path d="M16.7,6.6a.1.1,0,0,1,0,.1h0" fill="#d1ab6e"/><path d="M16.7,6.6h0" fill="#a06c32"/><path d="M16.1,6.6h0" fill="#4a2d1d"/><path d="M16.5,6.8s.1.1.1.1h-.1Z" fill="#d1ab6e"/><path d="M16.4,6.9s.1.2.1.2l-.3-.2v.2h-.2l.2-.2h.3Z" fill="#d1ab6e"/><path d="M16.3,6.7h0Z" fill="#a06c32"/><path d="M16.1,6.6h0Z" fill="#4a2d1d"/><path d="M16.5,6.9h0Z" fill="#a06c32"/><path d="M16.3,7h-.1a.1.1,0,0,0,0-.1h0s0-.1,0-.1Z" fill="#a06c32"/><path d="M16.1,6.7h0" fill="#4a2d1d"/><path d="M16.5,7.1s0,0,0,0h-.3s0,0,0,0h.3" fill="#a06c32"/><path d="M16.5,7.1l-.3-.2h.3" fill="#4a2d1d"/><path d="M16.2,7a.2.2,0,0,1,.1.2c0,.2-.1.1-.1.1h0" fill="#d1ab6e"/><path d="M15.5,6.6h0v.2l-.2.2h.1l.2-.3V6.7h0Z" fill="#664121"/><path d="M16.1,6.4a.4.4,0,0,1,0,.3c0,.2-.2.3-.2.3l-.3.2h.3V6.4h.2" fill="#d1ab6e"/><path d="M16.1,7.2s0,0,0,.1h0Z" fill="#854729"/><path d="M16,7.2h0Z" fill="#a06c32"/><path d="M15.5,7h.3a.4.4,0,0,0,.2-.3.6.6,0,0,0,0-.2.3.3,0,0,1,0,.4l-.2.2h.2a.2.2,0,0,1,0,.1h-.5" fill="#854729"/><path d="M15.9,6.6h0Z" fill="#a06c32"/><path d="M15.9,6.4s.1.2,0,.3l-.3.2.3-.2a.5.5,0,0,0,.1-.2Z" fill="#854729"/><path d="M15.6,7h0" fill="#242626"/><path d="M15.8,6.7a.3.3,0,0,0,.1-.2c0-.2-.1-.1-.1-.1s0,0,0,.2v.2" fill="#242626"/><path d="M15.9,6.7H16a.3.3,0,0,0,0-.1h-.1" fill="#242626"/><path d="M15.9,7.2h0" fill="#242626"/><path d="M15.7,7.1h0" fill="#242626"/><path d="M15.5,6.9a.1.1,0,0,1,0,.2h-.2" fill="#fff"/><path d="M15.5,6.9a.1.1,0,0,1,0,.2h-.1" fill="#e06a2a"/><path d="M15.5,7h0"/><path d="M15.5,7h0" fill="#d2d1c8"/><path d="M15.6,6.8V6.6a.5.5,0,0,0,0-.2h.1a.7.7,0,0,0,.1-.3.3.3,0,0,1,0,.2.3.3,0,0,1-.2.2l-.2.2v.2h.2Z" fill="#a06c32"/><path d="M15.5,6.9V6.7h0s0,0,.1.1,0,.1-.1.2" fill="#854729"/><path d="M15.7,6.7V6.6h0c0,.1,0,.1,0,.2" fill="#4a2d1d"/><path d="M15.3,7.2h0V6.8s.1-.2,0-.2a.3.3,0,0,1,0,.2l-.2.2h0" fill="#a06c32"/><path d="M16,7.4h0a.1.1,0,0,0,0-.1h0" fill="#664322"/><path d="M16,7.4h.2s0,.1-.2.1" fill="#664322"/><path d="M15.5,7.4h0Z" fill="#b37f36"/><path d="M15.9,7.3h-.8a.4.4,0,0,0-.2.2c0,.1.2.4.3.2s-.1-.1-.1-.2h.6c.1.1-.3.1-.3.1h0l.4-.2" fill="#efc745"/><path d="M15.9,7.3h-.9v.2h0v.2h0V7.5h0V7.3h.9Z" fill="#844629"/><path d="M15.2,7.7s-.2,0-.1-.2a.3.3,0,0,1,.2-.2h.2s-.3.1-.3.3,0,.1,0,.1" fill="#f9f2d7"/><path d="M15.9,7.3h0" fill="#f8e9ae"/><path d="M15.5,7.4h0Z" fill="#4e392a"/><path d="M15.2,7.8h-.2V7.5a.2.2,0,0,1,.1-.2h.2Z" fill="#efc745"/><path d="M15.2,7.2h0" fill="#81512a"/><path d="M15.5,7.3h0Z" fill="#efc745"/><path d="M15.2,7.6h0a.3.3,0,0,1-.2-.2h.2" fill="#844629"/><polygon points="15.8 9.3 15.8 9.4 15.8 9.4 15.8 9.3 15.8 9.3" fill="#f2c948"/><polygon points="15.6 7.5 15.5 7.5 15.5 7.5 15.6 7.6 15.6 7.5" fill="#f2c948"/><path d="M15.8,9.5h0Z" fill="#7c6c31"/><path d="M15.8,9.3h0Z" fill="#7c6c31"/><path d="M15.8,9.2h0Z" fill="#7c6c31"/><path d="M15.7,9.1Z" fill="#7c6c31"/><path d="M15.6,9h-.1V9.1h0Z" fill="#7c6c31"/><path d="M15.5,9h0Z" fill="#7c6c31"/><path d="M15.4,9h0a.9.9,0,0,0,0-.2Z" fill="#7c6c31"/><path d="M15.3,9h0Z" fill="#7c6c31"/><path d="M15.3,9h0V9.1h0Z" fill="#7c6c31"/><path d="M15.2,9h0Z" fill="#7c6c31"/><path d="M15.1,9h0Z" fill="#7c6c31"/><path d="M15.1,8.9h0Z" fill="#7c6c31"/><path d="M15,8.9h0Z" fill="#7c6c31"/><path d="M15,8.9h0Z" fill="#7c6c31"/><path d="M15,8.8h0Z" fill="#7c6c31"/><path d="M15,8.8h0Z" fill="#7c6c31"/><path d="M15,8.6h0Z" fill="#7c6c31"/><path d="M15.5,8h0Z" fill="#7c6c31"/><path d="M15.5,7.9h0Z" fill="#7c6c31"/><path d="M15.5,7.8h0Z" fill="#7c6c31"/><path d="M15.5,7.8h0Z" fill="#7c6c31"/><path d="M15.4,7.7h0Z" fill="#7c6c31"/><path d="M15.4,7.6h0Z" fill="#7c6c31"/><path d="M15.3,7.6h0Z" fill="#7c6c31"/><path d="M15.4,7.4h.1v.2h0V8l-.4.3-.2.2v.2h0v.2h.7a.5.5,0,0,1,.1.3v.2h0a1.4,1.4,0,0,0,0-.3.5.5,0,0,0-.1-.3H15V8.7h0V8.5l.4-.3a.7.7,0,0,0,.3-.4h0V7.5h-.1Z" fill="#767334"/><path d="M15.4,7.4h0" fill="#efc745"/><path d="M15.5,7.4h0Z" fill="#844629"/><path d="M15.8,9.7h0Z" fill="#907c35"/><polygon points="15.3 7.6 15.3 7.5 15.3 7.5 15.3 7.6 15.3 7.6" fill="#a5ab72"/><polygon points="15.4 7.6 15.4 7.6 15.3 7.6 15.4 7.6 15.4 7.6" fill="#a5ab72"/><polygon points="15.4 7.7 15.4 7.7 15.4 7.7 15.4 7.7 15.4 7.7" fill="#767334"/><polygon points="15.5 7.8 15.5 7.8 15.5 7.8 15.5 7.8 15.5 7.8" fill="#767334"/><polygon points="15.5 7.8 15.5 7.8 15.5 7.8 15.5 7.8 15.5 7.8" fill="#767334"/><polygon points="15.5 7.9 15.5 7.9 15.5 7.9 15.5 7.9 15.5 7.9" fill="#767334"/><polygon points="15.5 8 15.5 8 15.5 7.9 15.5 8 15.5 8" fill="#767334"/><path d="M14.9,8.7h0Z" fill="#767334"/><path d="M14.9,8.8h0" fill="#fff"/><polygon points="14.9 8.9 14.9 8.9 14.9 8.9 14.9 8.9 14.9 8.9" fill="#767334"/><rect x="14.9" y="8.9" height="0.02" transform="translate(-1.5 3.1) rotate(-11.3)" fill="#fff"/><polygon points="14.9 9 14.9 9 14.9 9 14.9 9 14.9 9" fill="#fff"/><polygon points="14.9 9.1 14.9 9.1 14.9 9.1 14.9 9.1 14.9 9.1" fill="#fff"/><polygon points="15 9.2 15 9.2 15 9.2 15 9.2 15 9.2" fill="#a5ab72"/><path d="M15.1,9.3h0Z" fill="#a5ab72"/><path d="M15.6,9.3h0" fill="#a5ab72"/><path d="M15.6,9.3h0Z" fill="#fff"/><path d="M15.6,9.4h0" fill="#a5ab72"/><path d="M15.6,9.4h0Z" fill="#a5ab72"/><polygon points="15.6 9.5 15.6 9.5 15.6 9.5 15.6 9.5 15.6 9.5" fill="#fff"/><path d="M14.8,6.8s0,0,0,0h0Z" fill="#fff"/></g><g clip-path=""><polygon points="18.6 10.9 19 11.4 19.4 11 19.1 10.5 18.6 10.9" fill=""/></g></g></svg>