<svg xmlns="http://www.w3.org/2000/svg" xmlns:xlink="http://www.w3.org/1999/xlink" viewBox="0 0 33.6 19.6"><defs><clipPath id="a"><rect width="33.6" height="19.58" fill="none"/></clipPath></defs><title>MLT</title><g clip-path=""><rect x="16.8" width="16.8" height="19.58" fill="#bd0034"/><rect width="16.8" height="19.58" fill="#fff"/><g clip-path=""><path d="M3.9,3h0Z" fill="#efecec"/><path d="M1.4,2.7V4.1H2.8a.5.5,0,0,0,.5.5V6.1H4.8V4.6a.5.5,0,0,0,.5-.5H6.7V2.7H5.2a.5.5,0,0,0-.5-.5V.8H3.3V2.2a.5.5,0,0,0-.5.5Z" fill="#d30038"/><path d="M1.4,2.8V4.1H2.9a.5.5,0,0,0,.5.5V6H4.7V4.6a.5.5,0,0,0,.5-.5H6.6V2.8H5.2a.5.5,0,0,0-.5-.5V.8H3.4V2.3a.5.5,0,0,0-.5.5Z" fill="#bd0034"/><path d="M1.5,2.8V4.1H2.9a.5.5,0,0,0,.5.5V6H4.7V4.5a.5.5,0,0,0,.5-.5H6.6V2.8H5.1a.5.5,0,0,0-.5-.5V.9H3.4V2.3a.5.5,0,0,0-.5.5Z" fill="#91857c"/><path d="M1.5,2.9V4H3a.5.5,0,0,0,.5.5V5.9H4.6V4.5A.5.5,0,0,0,5.1,4H6.5V2.9H5.1a.5.5,0,0,0-.5-.5V.9H3.5V2.4a.5.5,0,0,0-.5.5Z" fill="#cacaca"/><path d="M3.5,2.3c.1.1,0,.3-.2.5s-.4.2-.5.2,0-.3.2-.5.4-.2.5-.2Z" fill="#cecece"/><path d="M3.4,2.4a.3.3,0,0,1-.1.4H3A.3.3,0,0,1,3,2.4Z" fill="#91857c"/><polygon points="2.9 2.6 3 2.6 3.1 2.6 3.1 2.5 3.1 2.5 3.2 2.7 2.9 2.6" fill="#cecece"/><polygon points="3.2 2.4 3.2 2.4 3.4 2.6 3.4 2.6 3.2 2.4" fill="#cecece"/><path d="M5.2,2.9c-.1.1-.3,0-.5-.2s-.2-.4-.2-.5.3,0,.5.2.2.4.2.5Z" fill="#cecece"/><path d="M5.1,2.8H4.8a.3.3,0,0,1,0-.4h.4a.3.3,0,0,1,.1.4Z" fill="#91857c"/><polygon points="4.9 2.3 4.9 2.4 4.8 2.5 5 2.4 5 2.5 4.7 2.6 4.9 2.3" fill="#cecece"/><polygon points="5.1 2.5 5.1 2.6 4.9 2.8 4.9 2.7 5.1 2.5" fill="#cecece"/><path d="M4.6,4.6c-.1-.1,0-.3.2-.5s.4-.2.5-.2,0,.3-.2.5-.4.2-.5.2Z" fill="#cecece"/><path d="M4.7,4.5a.3.3,0,0,1,0-.4h.4a.3.3,0,0,1-.1.4Z" fill="#91857c"/><polygon points="5.1 4.2 5.1 4.3 5 4.2 5 4.3 5 4.4 4.9 4.1 5.1 4.2" fill="#cecece"/><polygon points="4.9 4.5 4.9 4.5 4.7 4.3 4.7 4.2 4.9 4.5" fill="#cecece"/><path d="M2.9,4c.1-.1.3,0,.5.2s.2.4.2.5-.3,0-.5-.2-.2-.4-.2-.5Z" fill="#cecece"/><path d="M3,4.1h.4a.3.3,0,0,1,.1.4H3A.3.3,0,0,1,3,4.1Z" fill="#91857c"/><polygon points="3.2 4.5 3.2 4.5 3.3 4.3 3.1 4.4 3.1 4.4 3.4 4.2 3.2 4.5" fill="#cecece"/><polygon points="3 4.3 3 4.3 3.2 4.1 3.2 4.1 3 4.3" fill="#cecece"/><path d="M4,4.4a1,1,0,1,1,0-2,1,1,0,0,1,.7,1.7,1,1,0,0,1-.7.3Zm0-2a1,1,0,1,0,.7.3A1,1,0,0,0,4,2.4Z" fill="#91857c"/><path d="M4,4.2a.8.8,0,1,1,.8-.8.8.8,0,0,1-.8.8ZM4,2.7a.8.8,0,1,0,.8.8A.8.8,0,0,0,4,2.7Z" fill="#91857c"/><path d="M3.7,4.2h0Z"/><path d="M4.5,4.2h0Z"/><path d="M4,4.2H3.9c-.1,0-.1.1,0,.1h.2c.1,0,.1-.1,0-.1H4Z"/><path d="M4.6,3.6h0Z" fill="#91857c"/><path d="M4.6,3.6h0Z" fill="none"/><path d="M4.5,3.6h0Z" fill="#91857c"/><path d="M4.5,3.6h0Z" fill="none"/><polygon points="3.6 4 4.5 4 4.5 4 4.4 3.9 4.3 3.8 4.2 3.8 4.1 3.8 4 3.9 3.8 3.9 3.8 3.9 3.7 3.9 3.5 3.9 3.8 4 3.6 4 3.6 4" fill="#91857c"/><path d="M4.5,4h0ZM3.6,4h0Z"/><path d="M4.1,3.8c-.1-.1-.1.1-.2.1h.5s0,.1,0,.1H4.1Z" fill="#91857c"/><path d="M4.3,3.9h.2s0,0,0,0H4.3Zm-.3,0h0Zm.6-.3h0Z"/><path d="M3.9,3.6s0,.1,0,.1H4s0-.1,0-.1-.1,0-.1.1Z" fill="#91857c"/><path d="M4.3,3.8H4s0,.1,0,.1h.2Zm-.1,0H4s0-.1,0-.1h.2Z"/><path d="M3.7,3.5H3.5s0,.1,0,.2H3.4s0,0,0,0h.2Z" fill="#91857c"/><path d="M3.5,3.9h0s0,0,0,0H3.5Zm-.1-.1h0s0,0,0-.1h0Z"/><path d="M3.9,2.9H3.5c-.1,0-.1.1-.1.1s-.1.1-.1.1h0c.1.1.2-.1.2-.1h.2Z" fill="#91857c"/><path d="M3.5,3.3H3.4a0,0,0,0,1,0,0h.1s0,0,0-.1h.5v.2H3.5Zm-.1-.1h.5V2.9H3.5a.1.1,0,0,0,0,.1H3.4Z"/><path d="M4.1,2.9h0Z" fill="#91857c"/><path d="M4,3H3.9c0-.1.2-.1.2,0Zm0-.2H3.9c0,.1.2.1.2,0Z"/><path d="M3.8,3.7l-.2-.2c.1-.2.4-.1.4-.3a.5.5,0,0,1,.1-.3h.1a.1.1,0,0,1,0,0h0v.2H3.8s0-.1,0-.1Z" fill="#91857c"/><path d="M4.1,3.9h0Zm0-.1h0Zm-.2,0a.1.1,0,0,1,0,0h0l-.2-.2c0-.1.1-.2.2-.2h.2a.5.5,0,0,1,.1-.3h0a.5.5,0,0,0-.1.3H3.9l-.2.2.2.2a.1.1,0,0,1,0,.1ZM4,3.6H4Zm.6,0h0Zm-.2-.2H4.3V3h.1s0,0,0-.1H4.2v.2h.1Z"/><path d="M3.6,3.2h0Z" fill="#91857c"/><path d="M3.9,3.5H3.8l-.2-.2h.3Zm-.3-.2h0l.2.2h0l-.3-.2Z"/><path d="M4.5,3.5H4.4s0-.2.1-.2Z" fill="#91857c"/><path d="M4.4,3.7h0V3.5a.6.6,0,0,0-.1.2Z"/><path d="M3.8,3.1a.1.1,0,0,0,0,.1h.3v.2h0V3.3H4s0,0,0,0H3.7c-.1,0-.1.1-.1.1h.2Z" fill="#91857c"/><path d="M4.3,3.6H4.2V3.3H3.7c-.1,0-.1.1-.1.1h0s0-.1.1-.1h.4v.3h.1v.2h.1Zm-.3-.2H3.8a.1.1,0,0,1,0-.1H3.7c0-.1,0-.1,0-.1h.1a.1.1,0,0,0,0,.1h.3Z"/><path d="M3.7,2.9h0Z" fill="#91857c"/><path d="M3.9,2.9h0Z"/><path d="M3.9,2.9h.2v.2H3.9Z" fill="#91857c"/><path d="M4.1,3.2h0Z"/><path d="M4,3H4Z" fill="#91857c"/><path d="M4,3H4Z" fill="none"/><path d="M4.2,2.9H4.1a.1.1,0,0,1,0-.1V2.9Z" fill="#91857c"/><path d="M4,3.2h0a.1.1,0,0,0,0,.1H4Zm.1-.4H4.1a.1.1,0,0,1,0-.1h.1Z"/><path d="M4.3,3l-.3.2S4,3,4,3H4s0,.1,0,.1L4.3,3Z" fill="#91857c"/><path d="M4.1,3.2H4s0-.1,0-.1H4s0,.1,0,.1h0L4.3,3l-.3.2Zm0,0h0L4.3,3h0l-.3.2Z"/><path d="M4.4,3.8H4.1c.2-.1.4.1.4.1Z" fill="#91857c"/><path d="M4.4,3.8H4.1c.2-.1.4.1.4.1l-.3-.2h.2Z"/><path d="M4.5,3.8h0Z" fill="#91857c"/><path d="M4.6,3.9h0Z"/><path d="M4.1,3.8h0Z" fill="#91857c"/><path d="M4.1,3.9h0Z"/><path d="M3.1,3.7h.1s0,0,0,0H3.1Zm0-.3h0Zm0,0h0Zm.3-.3H3.3a0,0,0,0,0,0,0h.1Zm-.1.1h0a.1.1,0,0,0,0,0h0Zm.4-.6h0Zm.3,0H3.8V2.5h.1Zm0,0h0Zm.3,0h0Zm.2.1H4.3s0,0,0,0h.1Zm.2.1h0v.2h0Zm0,0h0Zm.2,0h0V3h0V2.8h0Zm.2.4H4.8a0,0,0,0,0,0,0H5Zm-.1.3h0Zm.1-.1h0Zm0,.4H5Z"/></g></g></svg>