<svg xmlns="http://www.w3.org/2000/svg" xmlns:xlink="http://www.w3.org/1999/xlink" viewBox="0 0 37.1 25.6"><defs><clipPath id="a" transform="translate(-563.2 -444.4)"><rect x="564.9" y="447.4" width="33.6" height="19.58" fill="none"/></clipPath></defs><title>NAM</title><g clip-path=""><polygon points="1.8 3 1.8 22.6 35.3 3 1.8 3" fill="#1f357e"/><polygon points="35.3 3 1.8 22.6 35.3 22.6 35.3 3" fill="#3d9546"/><g clip-path=""><polygon points="3.5 25.6 0 19.6 33.6 0 37.1 6 3.5 25.6 3.5 25.6" fill="#fff"/><polygon points="3.1 24.9 0.4 20.3 34 0.8 36.6 5.3 3.1 24.9 3.1 24.9" fill="#c0003b"/></g><polygon points="11.7 10 10.2 9.8 10.5 11.2 9.3 10.3 8.8 11.7 8.3 10.3 7.2 11.2 7.5 9.8 6 10 6.9 8.9 5.6 8.4 6.9 7.9 6 6.8 7.5 7 7.2 5.6 8.3 6.5 8.8 5.1 9.3 6.5 10.5 5.6 10.2 7 11.7 6.8 10.7 7.9 12.1 8.4 10.7 8.9 11.7 10" fill="#f5cd28"/><g clip-path=""><path d="M574,452.8a2,2,0,0,1-4,0,2,2,0,1,1,4,0" transform="translate(-563.2 -444.4)" fill="#1f357e"/><path d="M573.6,452.8a1.6,1.6,0,1,1-1.6-1.6,1.6,1.6,0,0,1,1.6,1.6" transform="translate(-563.2 -444.4)" fill="#f5cd28"/></g></g></svg>