<svg xmlns="http://www.w3.org/2000/svg" xmlns:xlink="http://www.w3.org/1999/xlink" viewBox="0 0 33.6 19.6"><defs><clipPath id="a"><rect width="33.6" height="19.58" fill="none"/></clipPath></defs><title>NZL</title><g clip-path=""><polygon points="16.8 0 16.8 0.6 16.8 0.8 16.8 0.9 13.1 2.8 16.8 2.8 16.8 3.4 16.8 4.2 16.8 5 16.8 5.6 13.1 5.6 16.8 7.5 16.8 7.8 16.8 8.4 16.8 8.4 15.6 8.4 15.2 8.4 15 8.4 9.8 5.8 9.8 8.4 9.2 8.4 8.4 8.4 7.6 8.4 7 8.4 7 5.8 1.8 8.4 1.1 8.4 0 8.4 0 19.6 33.6 19.6 33.6 0 16.8 0" fill="#1a237b"/><polygon points="0 5.6 0 7.5 3.7 5.6 0 5.6" fill="#1a237b"/><polygon points="9.8 0 9.8 2.6 14.9 0 9.8 0" fill="#1a237b"/><polygon points="7 0 1.9 0 7 2.6 7 0" fill="#1a237b"/><polygon points="0 2.8 3.7 2.8 0 0.9 0 2.8" fill="#1a237b"/><polygon points="16.8 0 11.2 2.8 9.9 2.8 15.5 0 14.9 0 9.8 2.6 9.8 0 9.2 0 9.2 2.8 9.2 3.2 9.2 3.4 10.1 3.4 11.3 3.4 11.7 3.4 11.9 3.4 16.8 3.4 16.8 2.8 13.1 2.8 16.8 0.9 16.8 0.8 16.8 0.6 16.8 0 16.8 0" fill="#fff"/><polygon points="7 0 7 2.6 1.9 0 0 0 5.6 2.8 4.3 2.8 0 0.6 0 0.9 3.7 2.8 0 2.8 0 3.4 4.8 3.4 5.5 3.4 6.7 3.4 7.6 3.4 7.6 3.2 7.6 2.9 7.6 2.8 7.6 0 7 0" fill="#fff"/><polygon points="11.3 5 10.1 5 9.2 5 9.2 5.2 9.2 5.5 9.2 5.6 9.2 8.4 9.8 8.4 9.8 5.8 15 8.4 15.2 8.4 15.6 8.4 16.8 8.4 16.8 8.4 11.2 5.6 12.4 5.6 16.8 7.8 16.8 7.5 13.1 5.6 16.8 5.6 16.8 5 11.9 5 11.3 5" fill="#fff"/><polygon points="6.7 5 5.5 5 5 5 4.8 5 0 5 0 5.6 3.7 5.6 0 7.5 0 8.4 5.6 5.6 6.8 5.6 1.1 8.4 1.8 8.4 7 5.8 7 8.4 7.6 8.4 7.6 5.6 7.6 5.2 7.6 5 6.7 5" fill="#fff"/><polygon points="5.6 5.6 0 8.4 0 8.4 1.1 8.4 6.8 5.6 5.6 5.6" fill="#bd0034"/><polygon points="0 0.6 4.3 2.8 5.6 2.8 0 0 0 0.6" fill="#bd0034"/><polygon points="16.8 0 15.5 0 9.9 2.8 11.2 2.8 16.8 0" fill="#bd0034"/><polygon points="11.2 5.6 16.8 8.4 16.8 7.8 12.4 5.6 11.2 5.6" fill="#bd0034"/><polygon points="7.6 0 7.6 2.8 7.6 2.9 7.6 3.2 7.6 3.4 6.7 3.4 5.5 3.4 4.8 3.4 0 3.4 0 5 4.8 5 5 5 5.5 5 6.7 5 7.6 5 7.6 5.2 7.6 5.6 7.6 8.4 8.4 8.4 9.2 8.4 9.2 5.6 9.2 5.5 9.2 5.2 9.2 5 10.1 5 11.3 5 11.9 5 16.8 5 16.8 4.2 16.8 3.4 11.9 3.4 11.7 3.4 11.3 3.4 10.1 3.4 9.2 3.4 9.2 3.2 9.2 2.8 9.2 0 7.6 0" fill="#bd0034"/><polygon points="23.3 5.7 24.2 5.7 24.5 4.8 24.8 5.7 25.7 5.7 24.9 6.3 25.2 7.1 24.5 6.6 23.8 7.1 24 6.3 23.3 5.7" fill="#fff"/><polygon points="23.7 5.8 24.3 5.8 24.5 5.3 24.7 5.8 25.3 5.8 24.8 6.2 25 6.8 24.5 6.4 24 6.8 24.2 6.2 23.7 5.8" fill="#bd0034"/><polygon points="19.6 9.4 20.6 9.4 20.8 8.5 21.1 9.4 22 9.4 21.3 9.9 21.6 10.8 20.8 10.3 20.1 10.8 20.4 9.9 19.6 9.4" fill="#fff"/><polygon points="20.1 9.5 20.7 9.5 20.8 8.9 21 9.5 21.6 9.5 21.1 9.9 21.3 10.4 20.8 10.1 20.4 10.4 20.5 9.9 20.1 9.5" fill="#bd0034"/><polygon points="26.6 8.5 27.4 8.5 27.6 7.7 27.9 8.5 28.7 8.5 28 8.9 28.3 9.7 27.6 9.2 27 9.7 27.2 8.9 26.6 8.5" fill="#fff"/><polygon points="26.9 8.6 27.5 8.6 27.6 8.1 27.8 8.6 28.3 8.6 27.9 8.9 28.1 9.4 27.6 9.1 27.2 9.4 27.4 8.9 26.9 8.6" fill="#bd0034"/><polygon points="23.2 15.1 24.2 15.1 24.5 14.2 24.8 15.1 25.8 15.1 25 15.7 25.3 16.7 24.5 16.1 23.7 16.7 24 15.7 23.2 15.1" fill="#fff"/><polygon points="23.6 15.3 24.3 15.3 24.5 14.7 24.7 15.3 25.4 15.3 24.8 15.7 25 16.3 24.5 15.9 23.9 16.3 24.2 15.7 23.6 15.3" fill="#bd0034"/></g></svg>