<svg xmlns="http://www.w3.org/2000/svg" xmlns:xlink="http://www.w3.org/1999/xlink" viewBox="0 0 33.6 19.6"><defs><clipPath id="a" transform="translate(-564.9 -447.7)"><rect x="564.9" y="447.7" width="33.6" height="19.58" fill="none"/></clipPath></defs><title>OMN</title><g clip-path=""><rect width="33.6" height="19.58" fill="#e8333c"/><rect x="9.8" y="13.1" width="23.8" height="6.53" fill="#3d9546"/><rect x="9.8" width="23.8" height="6.53" fill="#fff"/><g clip-path=""><path d="M571.4,451h1a.1.1,0,0,1,.1.1v.5h-1.2v-.5a.1.1,0,0,1,.1-.1Z" transform="translate(-564.9 -447.7)" fill="#fff"/><path d="M572.4,451.7h-1.1v-.5a.1.1,0,0,1,.1-.1h1a.1.1,0,0,1,.1.1v.5Zm-1-.6h-.1v.5h1.2v-.5h-1.1Z" transform="translate(-564.9 -447.7)" fill="#dc1f34"/><path d="M571.4,451.1h1.1v.4h-1.2v-.4Z" transform="translate(-564.9 -447.7)" fill="#fff"/><path d="M572.4,451.7h-1.1v-.4h1.2v.4Zm-1-.6h-.1v.4h1.2v-.4h-1.1Z" transform="translate(-564.9 -447.7)" fill="#dc1f34"/><polygon points="7 3.6 7 3.6 7 3.6 7.1 3.6 7.1 3.6 7.2 3.6 7.1 3.7 7.1 3.7 7.2 3.7 7.2 3.7 7.2 3.7 7.1 3.8 7.2 3.8 7.1 3.8 7.1 3.8 7 3.8 7 3.9 7 3.9 7 3.8 6.9 3.8 6.9 3.8 6.8 3.8 6.9 3.8 6.8 3.8 6.8 3.8 6.8 3.7 6.8 3.7 6.9 3.7 6.8 3.6 6.9 3.6 6.9 3.6 7 3.6 7 3.6" fill="#fff"/><polygon points="7 3.9 7 3.8 6.9 3.8 6.9 3.8 6.8 3.8 6.9 3.8 6.8 3.8 6.8 3.7 6.8 3.7 6.9 3.6 6.8 3.6 6.9 3.6 6.9 3.6 6.9 3.6 6.9 3.6 6.9 3.6 6.8 3.6 6.9 3.6 6.8 3.7 6.8 3.7 6.8 3.8 6.8 3.7 6.9 3.8 6.8 3.8 6.9 3.8 6.9 3.8 7 3.8 7 3.9 7 3.9 7 3.8 7.1 3.8 7.1 3.8 7.2 3.8 7.1 3.8 7.1 3.7 7.2 3.7 7.2 3.7 7.1 3.7 7.1 3.7 7.2 3.6 7.1 3.6 7.1 3.6 7 3.6 7 3.6 7.1 3.6 7.1 3.6 7.2 3.6 7.1 3.7 7.2 3.7 7.2 3.7 7.2 3.8 7.2 3.8 7.1 3.8 7.1 3.8 7 3.8 7.1 3.9 7 3.9 7 3.9" fill="#dc1f34"/><path d="M571.9,451.3h0Z" transform="translate(-564.9 -447.7)" fill="#fff"/><path d="M571.9,451.4h0Zm0-.1h0Z" transform="translate(-564.9 -447.7)" fill="#dc1f34"/><path d="M571.5,451.1h0Z" transform="translate(-564.9 -447.7)" fill="#fff"/><path d="M571.5,451.1h0Z" transform="translate(-564.9 -447.7)" fill="none"/><path d="M571.5,451.1h0Z" transform="translate(-564.9 -447.7)" fill="#fff"/><path d="M571.5,451.1h0Z" transform="translate(-564.9 -447.7)" fill="none"/><path d="M571.6,451.1h0Z" transform="translate(-564.9 -447.7)" fill="#fff"/><path d="M571.6,451.1h0Z" transform="translate(-564.9 -447.7)" fill="none"/><path d="M571.7,451.1h0Z" transform="translate(-564.9 -447.7)" fill="#fff"/><path d="M571.7,451.1h0Z" transform="translate(-564.9 -447.7)" fill="none"/><path d="M571.7,451.1h0Z" transform="translate(-564.9 -447.7)" fill="#fff"/><path d="M571.7,451.1h0Z" transform="translate(-564.9 -447.7)" fill="none"/><path d="M571.8,451.1h0Z" transform="translate(-564.9 -447.7)" fill="#fff"/><path d="M571.8,451.1h0Z" transform="translate(-564.9 -447.7)" fill="none"/><path d="M571.8,451.1h0Z" transform="translate(-564.9 -447.7)" fill="#fff"/><path d="M571.8,451.1h0Z" transform="translate(-564.9 -447.7)" fill="none"/><path d="M571.9,451.1h0Z" transform="translate(-564.9 -447.7)" fill="#fff"/><path d="M571.9,451.1h0Z" transform="translate(-564.9 -447.7)" fill="none"/><path d="M572,451.1h0Z" transform="translate(-564.9 -447.7)" fill="#fff"/><path d="M572,451.1h0Z" transform="translate(-564.9 -447.7)" fill="none"/><path d="M572,451.1h0Z" transform="translate(-564.9 -447.7)" fill="#fff"/><path d="M572,451.1h0Z" transform="translate(-564.9 -447.7)" fill="none"/><path d="M572.1,451.1h0Z" transform="translate(-564.9 -447.7)" fill="#fff"/><path d="M572.1,451.1h0Z" transform="translate(-564.9 -447.7)" fill="none"/><path d="M572.2,451.1h0Z" transform="translate(-564.9 -447.7)" fill="#fff"/><path d="M572.2,451.1h0Z" transform="translate(-564.9 -447.7)" fill="none"/><path d="M571.9,451.1h0Z" transform="translate(-564.9 -447.7)" fill="#fff"/><path d="M571.9,451.1h0Z" transform="translate(-564.9 -447.7)" fill="none"/><path d="M572.2,451.1h0Z" transform="translate(-564.9 -447.7)" fill="#fff"/><path d="M572.2,451.1h0Z" transform="translate(-564.9 -447.7)" fill="none"/><path d="M572.3,451.1h0Z" transform="translate(-564.9 -447.7)" fill="#fff"/><path d="M572.3,451.1h0Z" transform="translate(-564.9 -447.7)" fill="none"/><path d="M572.4,451.1h0Z" transform="translate(-564.9 -447.7)" fill="#fff"/><path d="M572.4,451.1h0Z" transform="translate(-564.9 -447.7)" fill="none"/><path d="M572.4,451.1h0Z" transform="translate(-564.9 -447.7)" fill="#fff"/><path d="M572.4,451.1h0Z" transform="translate(-564.9 -447.7)" fill="none"/><path d="M572.3,451.1h0Z" transform="translate(-564.9 -447.7)" fill="#fff"/><path d="M572.3,451.1h0Z" transform="translate(-564.9 -447.7)" fill="none"/><path d="M572.3,451.1h0Z" transform="translate(-564.9 -447.7)" fill="#fff"/><path d="M572.3,451.1h0Z" transform="translate(-564.9 -447.7)" fill="none"/><path d="M572.2,451.1h0Z" transform="translate(-564.9 -447.7)" fill="#fff"/><path d="M572.2,451.1h0Z" transform="translate(-564.9 -447.7)" fill="none"/><path d="M572.1,451.1h0Z" transform="translate(-564.9 -447.7)" fill="#fff"/><path d="M572.1,451.1h0Z" transform="translate(-564.9 -447.7)" fill="none"/><path d="M572.1,451.1h0Z" transform="translate(-564.9 -447.7)" fill="#fff"/><path d="M572.1,451.1h0Z" transform="translate(-564.9 -447.7)" fill="none"/><path d="M572,451.1h0Z" transform="translate(-564.9 -447.7)" fill="#fff"/><path d="M572,451.1h0Z" transform="translate(-564.9 -447.7)" fill="none"/><path d="M571.9,451.1h0Z" transform="translate(-564.9 -447.7)" fill="#fff"/><path d="M571.9,451.1h0Z" transform="translate(-564.9 -447.7)" fill="none"/><path d="M571.9,451.1h0Z" transform="translate(-564.9 -447.7)" fill="#fff"/><path d="M571.9,451.1h0Z" transform="translate(-564.9 -447.7)" fill="none"/><path d="M571.8,451.1h0Z" transform="translate(-564.9 -447.7)" fill="#fff"/><path d="M571.8,451.1h0Z" transform="translate(-564.9 -447.7)" fill="none"/><path d="M571.8,451.1h0Z" transform="translate(-564.9 -447.7)" fill="#fff"/><path d="M571.8,451.1h0Z" transform="translate(-564.9 -447.7)" fill="none"/><path d="M571.7,451.1h0Z" transform="translate(-564.9 -447.7)" fill="#fff"/><path d="M571.7,451.1h0Z" transform="translate(-564.9 -447.7)" fill="none"/><path d="M571.6,451.1h0Z" transform="translate(-564.9 -447.7)" fill="#fff"/><path d="M571.6,451.1h0Z" transform="translate(-564.9 -447.7)" fill="none"/><path d="M571.9,451.1h0Z" transform="translate(-564.9 -447.7)" fill="#fff"/><path d="M571.9,451.1h0Z" transform="translate(-564.9 -447.7)" fill="none"/><path d="M571.6,451.1h0Z" transform="translate(-564.9 -447.7)" fill="#fff"/><path d="M571.6,451.1h0Z" transform="translate(-564.9 -447.7)" fill="none"/><path d="M571.5,451.1h0Z" transform="translate(-564.9 -447.7)" fill="#fff"/><path d="M571.5,451.1h0Z" transform="translate(-564.9 -447.7)" fill="none"/><path d="M571.4,451.1h0Z" transform="translate(-564.9 -447.7)" fill="#fff"/><path d="M571.4,451.1h0Z" transform="translate(-564.9 -447.7)" fill="none"/><path d="M571.4,451.1h0Z" transform="translate(-564.9 -447.7)" fill="#fff"/><path d="M571.4,451.1h0Z" transform="translate(-564.9 -447.7)" fill="none"/><path d="M571.5,451.6h0Z" transform="translate(-564.9 -447.7)" fill="#fff"/><path d="M571.5,451.6h0Z" transform="translate(-564.9 -447.7)" fill="none"/><path d="M571.5,451.6h0Z" transform="translate(-564.9 -447.7)" fill="#fff"/><path d="M571.5,451.6h0Z" transform="translate(-564.9 -447.7)" fill="none"/><path d="M571.6,451.6h0Z" transform="translate(-564.9 -447.7)" fill="#fff"/><path d="M571.6,451.6h0Z" transform="translate(-564.9 -447.7)" fill="none"/><path d="M571.7,451.6h0Z" transform="translate(-564.9 -447.7)" fill="#fff"/><path d="M571.7,451.6h0Z" transform="translate(-564.9 -447.7)" fill="none"/><path d="M571.7,451.6h0Z" transform="translate(-564.9 -447.7)" fill="#fff"/><path d="M571.7,451.6h0Z" transform="translate(-564.9 -447.7)" fill="none"/><path d="M571.8,451.6h0Z" transform="translate(-564.9 -447.7)" fill="#fff"/><path d="M571.8,451.6h0Z" transform="translate(-564.9 -447.7)" fill="none"/><path d="M571.8,451.6h0Z" transform="translate(-564.9 -447.7)" fill="#fff"/><path d="M571.8,451.6h0Z" transform="translate(-564.9 -447.7)" fill="none"/><path d="M571.9,451.6h0Z" transform="translate(-564.9 -447.7)" fill="#fff"/><path d="M571.9,451.6h0Z" transform="translate(-564.9 -447.7)" fill="none"/><path d="M572,451.6h0Z" transform="translate(-564.9 -447.7)" fill="#fff"/><path d="M572,451.6h0Z" transform="translate(-564.9 -447.7)" fill="none"/><path d="M572,451.6h0Z" transform="translate(-564.9 -447.7)" fill="#fff"/><path d="M572,451.6h0Z" transform="translate(-564.9 -447.7)" fill="none"/><path d="M572.1,451.6h0Z" transform="translate(-564.9 -447.7)" fill="#fff"/><path d="M572.1,451.6h0Z" transform="translate(-564.9 -447.7)" fill="none"/><path d="M572.2,451.6h0Z" transform="translate(-564.9 -447.7)" fill="#fff"/><path d="M572.2,451.6h0Z" transform="translate(-564.9 -447.7)" fill="none"/><path d="M571.9,451.6h0Z" transform="translate(-564.9 -447.7)" fill="#fff"/><path d="M571.9,451.6h0Z" transform="translate(-564.9 -447.7)" fill="none"/><path d="M572.2,451.6h0Z" transform="translate(-564.9 -447.7)" fill="#fff"/><path d="M572.2,451.6h0Z" transform="translate(-564.9 -447.7)" fill="none"/><path d="M572.3,451.6h0Z" transform="translate(-564.9 -447.7)" fill="#fff"/><path d="M572.3,451.6h0Z" transform="translate(-564.9 -447.7)" fill="none"/><path d="M572.4,451.6h0Z" transform="translate(-564.9 -447.7)" fill="#fff"/><path d="M572.4,451.6h0Z" transform="translate(-564.9 -447.7)" fill="none"/><path d="M572.4,451.6h0Z" transform="translate(-564.9 -447.7)" fill="#fff"/><path d="M572.4,451.6h0Z" transform="translate(-564.9 -447.7)" fill="none"/><path d="M572.3,451.6h0Z" transform="translate(-564.9 -447.7)" fill="#fff"/><path d="M572.3,451.6h0Z" transform="translate(-564.9 -447.7)" fill="none"/><path d="M572.3,451.6h0Z" transform="translate(-564.9 -447.7)" fill="#fff"/><path d="M572.3,451.6h0Z" transform="translate(-564.9 -447.7)" fill="none"/><path d="M572.2,451.6h0Z" transform="translate(-564.9 -447.7)" fill="#fff"/><path d="M572.2,451.6h0Z" transform="translate(-564.9 -447.7)" fill="none"/><path d="M572.1,451.6h0Z" transform="translate(-564.9 -447.7)" fill="#fff"/><path d="M572.1,451.6h0Z" transform="translate(-564.9 -447.7)" fill="none"/><path d="M572.1,451.6h0Z" transform="translate(-564.9 -447.7)" fill="#fff"/><path d="M572.1,451.6h0Z" transform="translate(-564.9 -447.7)" fill="none"/><path d="M572,451.6h0Z" transform="translate(-564.9 -447.7)" fill="#fff"/><path d="M572,451.6h0Z" transform="translate(-564.9 -447.7)" fill="none"/><path d="M571.9,451.6h0Z" transform="translate(-564.9 -447.7)" fill="#fff"/><path d="M571.9,451.6h0Z" transform="translate(-564.9 -447.7)" fill="none"/><path d="M571.9,451.6h0Z" transform="translate(-564.9 -447.7)" fill="#fff"/><path d="M571.9,451.6h0Z" transform="translate(-564.9 -447.7)" fill="none"/><path d="M571.8,451.6h0Z" transform="translate(-564.9 -447.7)" fill="#fff"/><path d="M571.8,451.6h0Z" transform="translate(-564.9 -447.7)" fill="none"/><path d="M571.8,451.6h0Z" transform="translate(-564.9 -447.7)" fill="#fff"/><path d="M571.8,451.6h0Z" transform="translate(-564.9 -447.7)" fill="none"/><path d="M571.7,451.6h0Z" transform="translate(-564.9 -447.7)" fill="#fff"/><path d="M571.7,451.6h0Z" transform="translate(-564.9 -447.7)" fill="none"/><path d="M571.6,451.6h0Z" transform="translate(-564.9 -447.7)" fill="#fff"/><path d="M571.6,451.6h0Z" transform="translate(-564.9 -447.7)" fill="none"/><path d="M571.9,451.6h0Z" transform="translate(-564.9 -447.7)" fill="#fff"/><path d="M571.9,451.6h0Z" transform="translate(-564.9 -447.7)" fill="none"/><path d="M571.6,451.6h0Z" transform="translate(-564.9 -447.7)" fill="#fff"/><path d="M571.6,451.6h0Z" transform="translate(-564.9 -447.7)" fill="none"/><path d="M571.5,451.6h0Z" transform="translate(-564.9 -447.7)" fill="#fff"/><path d="M571.5,451.6h0Z" transform="translate(-564.9 -447.7)" fill="none"/><path d="M571.4,451.6h0Z" transform="translate(-564.9 -447.7)" fill="#fff"/><path d="M571.4,451.6h0Z" transform="translate(-564.9 -447.7)" fill="none"/><path d="M571.4,451.6h0Z" transform="translate(-564.9 -447.7)" fill="#fff"/><path d="M571.4,451.6h0Z" transform="translate(-564.9 -447.7)" fill="none"/><path d="M567.1,451h1.2v.5H567v-.5Z" transform="translate(-564.9 -447.7)" fill="#fff"/><path d="M568.2,451.7H567v-.5h1.3v.5Zm-1.1-.7H567v.5h1.3v-.5h-1.2Z" transform="translate(-564.9 -447.7)" fill="#dc1f34"/><path d="M567.2,451h1.1v.5h-1.2v-.5a.1.1,0,0,1,.1-.1Z" transform="translate(-564.9 -447.7)" fill="#fff"/><path d="M568.2,451.7H567v-.5h1.3v.5Zm-1-.6h-.1v.5h1.1v-.5h-1Z" transform="translate(-564.9 -447.7)" fill="#dc1f34"/><polygon points="2.7 3.6 2.8 3.6 2.8 3.6 2.9 3.6 2.9 3.6 2.9 3.6 2.9 3.6 2.9 3.7 3 3.7 3 3.7 2.9 3.7 2.9 3.7 2.9 3.8 2.9 3.8 2.9 3.8 2.8 3.8 2.8 3.8 2.7 3.8 2.7 3.8 2.7 3.8 2.6 3.8 2.6 3.8 2.6 3.7 2.6 3.7 2.5 3.7 2.5 3.7 2.6 3.7 2.6 3.6 2.6 3.6 2.6 3.6 2.7 3.6 2.7 3.6 2.7 3.6" fill="#fff"/><polygon points="2.7 3.8 2.7 3.8 2.7 3.8 2.6 3.8 2.6 3.8 2.6 3.7 2.6 3.7 2.5 3.7 2.5 3.7 2.6 3.7 2.6 3.6 2.6 3.6 2.6 3.6 2.7 3.6 2.7 3.6 2.7 3.6 2.6 3.6 2.6 3.6 2.6 3.6 2.6 3.7 2.5 3.7 2.6 3.7 2.6 3.7 2.6 3.7 2.6 3.8 2.6 3.8 2.7 3.8 2.7 3.8 2.7 3.8 2.8 3.8 2.8 3.8 2.9 3.8 2.9 3.8 2.9 3.8 2.9 3.7 2.9 3.7 3 3.7 3 3.7 2.9 3.7 2.9 3.6 2.9 3.6 2.9 3.6 2.9 3.6 2.7 3.6 2.8 3.5 2.9 3.6 2.9 3.6 2.9 3.6 2.9 3.6 3 3.7 3 3.7 2.9 3.7 2.9 3.8 2.9 3.8 2.9 3.8 2.8 3.8 2.8 3.8 2.7 3.8 2.7 3.8" fill="#dc1f34"/><path d="M567.6,451.3h0Z" transform="translate(-564.9 -447.7)" fill="#fff"/><path d="M567.6,451.4Zm0-.1h0Z" transform="translate(-564.9 -447.7)" fill="#dc1f34"/><path d="M567.2,451.1h0Z" transform="translate(-564.9 -447.7)" fill="#fff"/><path d="M567.2,451.1h0Z" transform="translate(-564.9 -447.7)" fill="none"/><path d="M567.3,451.1h0Z" transform="translate(-564.9 -447.7)" fill="#fff"/><path d="M567.3,451.1h0Z" transform="translate(-564.9 -447.7)" fill="none"/><path d="M567.3,451.1h0Z" transform="translate(-564.9 -447.7)" fill="#fff"/><path d="M567.3,451.1h0Z" transform="translate(-564.9 -447.7)" fill="none"/><path d="M567.4,451.1h0Z" transform="translate(-564.9 -447.7)" fill="#fff"/><path d="M567.4,451.1h0Z" transform="translate(-564.9 -447.7)" fill="none"/><path d="M567.5,451.1h0Z" transform="translate(-564.9 -447.7)" fill="#fff"/><path d="M567.5,451.1h0Z" transform="translate(-564.9 -447.7)" fill="none"/><path d="M567.5,451.1h0Z" transform="translate(-564.9 -447.7)" fill="#fff"/><path d="M567.5,451.1h0Z" transform="translate(-564.9 -447.7)" fill="none"/><path d="M567.6,451.1h0Z" transform="translate(-564.9 -447.7)" fill="#fff"/><path d="M567.6,451.1h0Z" transform="translate(-564.9 -447.7)" fill="none"/><path d="M567.7,451.1h0Z" transform="translate(-564.9 -447.7)" fill="#fff"/><path d="M567.7,451.1h0Z" transform="translate(-564.9 -447.7)" fill="none"/><path d="M567.7,451.1h0Z" transform="translate(-564.9 -447.7)" fill="#fff"/><path d="M567.7,451.1h0Z" transform="translate(-564.9 -447.7)" fill="none"/><path d="M567.8,451.1h0Z" transform="translate(-564.9 -447.7)" fill="#fff"/><path d="M567.8,451.1h0Z" transform="translate(-564.9 -447.7)" fill="none"/><path d="M567.9,451.1h0Z" transform="translate(-564.9 -447.7)" fill="#fff"/><path d="M567.9,451.1h0Z" transform="translate(-564.9 -447.7)" fill="none"/><path d="M567.9,451.1h0Z" transform="translate(-564.9 -447.7)" fill="#fff"/><path d="M567.9,451.1h0Z" transform="translate(-564.9 -447.7)" fill="none"/><path d="M567.7,451.1h0Z" transform="translate(-564.9 -447.7)" fill="#fff"/><path d="M567.7,451.1h0Z" transform="translate(-564.9 -447.7)" fill="none"/><path d="M568,451.1h0Z" transform="translate(-564.9 -447.7)" fill="#fff"/><path d="M568,451.1h0Z" transform="translate(-564.9 -447.7)" fill="none"/><path d="M568.1,451.1h0Z" transform="translate(-564.9 -447.7)" fill="#fff"/><path d="M568.1,451.1h0Z" transform="translate(-564.9 -447.7)" fill="none"/><path d="M568.1,451.1h0Z" transform="translate(-564.9 -447.7)" fill="#fff"/><path d="M568.1,451.1h0Z" transform="translate(-564.9 -447.7)" fill="none"/><path d="M568.2,451.1h0Z" transform="translate(-564.9 -447.7)" fill="#fff"/><path d="M568.2,451.1h0Z" transform="translate(-564.9 -447.7)" fill="none"/><path d="M568.1,451.1h0Z" transform="translate(-564.9 -447.7)" fill="#fff"/><path d="M568.1,451.1h0Z" transform="translate(-564.9 -447.7)" fill="none"/><path d="M568,451.1h0Z" transform="translate(-564.9 -447.7)" fill="#fff"/><path d="M568,451.1h0Z" transform="translate(-564.9 -447.7)" fill="none"/><path d="M568,451.1h0Z" transform="translate(-564.9 -447.7)" fill="#fff"/><path d="M568,451.1h0Z" transform="translate(-564.9 -447.7)" fill="none"/><path d="M567.9,451.1h0Z" transform="translate(-564.9 -447.7)" fill="#fff"/><path d="M567.9,451.1h0Z" transform="translate(-564.9 -447.7)" fill="none"/><path d="M567.8,451.1h0Z" transform="translate(-564.9 -447.7)" fill="#fff"/><path d="M567.8,451.1h0Z" transform="translate(-564.9 -447.7)" fill="none"/><path d="M567.8,451.1h0Z" transform="translate(-564.9 -447.7)" fill="#fff"/><path d="M567.8,451.1h0Z" transform="translate(-564.9 -447.7)" fill="none"/><path d="M567.7,451.1h0Z" transform="translate(-564.9 -447.7)" fill="#fff"/><path d="M567.7,451.1h0Z" transform="translate(-564.9 -447.7)" fill="none"/><path d="M567.6,451.1h0Z" transform="translate(-564.9 -447.7)" fill="#fff"/><path d="M567.6,451.1h0Z" transform="translate(-564.9 -447.7)" fill="none"/><path d="M567.6,451.1h0Z" transform="translate(-564.9 -447.7)" fill="#fff"/><path d="M567.6,451.1h0Z" transform="translate(-564.9 -447.7)" fill="none"/><path d="M567.5,451.1h0Z" transform="translate(-564.9 -447.7)" fill="#fff"/><path d="M567.5,451.1h0Z" transform="translate(-564.9 -447.7)" fill="none"/><path d="M567.4,451.1h0Z" transform="translate(-564.9 -447.7)" fill="#fff"/><path d="M567.4,451.1h0Z" transform="translate(-564.9 -447.7)" fill="none"/><path d="M567.4,451.1h0Z" transform="translate(-564.9 -447.7)" fill="#fff"/><path d="M567.4,451.1h0Z" transform="translate(-564.9 -447.7)" fill="none"/><path d="M567.6,451.1h0Z" transform="translate(-564.9 -447.7)" fill="#fff"/><path d="M567.6,451.1h0Z" transform="translate(-564.9 -447.7)" fill="none"/><path d="M567.3,451.1h0Z" transform="translate(-564.9 -447.7)" fill="#fff"/><path d="M567.3,451.1h0Z" transform="translate(-564.9 -447.7)" fill="none"/><path d="M567.3,451.1h0Z" transform="translate(-564.9 -447.7)" fill="#fff"/><path d="M567.3,451.1h0Z" transform="translate(-564.9 -447.7)" fill="none"/><path d="M567.2,451.1h0Z" transform="translate(-564.9 -447.7)" fill="#fff"/><path d="M567.2,451.1h0Z" transform="translate(-564.9 -447.7)" fill="none"/><path d="M567.1,451.1h0Z" transform="translate(-564.9 -447.7)" fill="#fff"/><path d="M567.1,451.1h0Z" transform="translate(-564.9 -447.7)" fill="none"/><path d="M567.2,451.6h0Z" transform="translate(-564.9 -447.7)" fill="#fff"/><path d="M567.2,451.6h0Z" transform="translate(-564.9 -447.7)" fill="none"/><path d="M567.3,451.6h0Z" transform="translate(-564.9 -447.7)" fill="#fff"/><path d="M567.3,451.6h0Z" transform="translate(-564.9 -447.7)" fill="none"/><path d="M567.3,451.6Z" transform="translate(-564.9 -447.7)" fill="#fff"/><path d="M567.3,451.6Z" transform="translate(-564.9 -447.7)" fill="none"/><path d="M567.4,451.6h0Z" transform="translate(-564.9 -447.7)" fill="#fff"/><path d="M567.4,451.6h0Z" transform="translate(-564.9 -447.7)" fill="none"/><path d="M567.5,451.6h0Z" transform="translate(-564.9 -447.7)" fill="#fff"/><path d="M567.5,451.6h0Z" transform="translate(-564.9 -447.7)" fill="none"/><path d="M567.5,451.6h0Z" transform="translate(-564.9 -447.7)" fill="#fff"/><path d="M567.5,451.6h0Z" transform="translate(-564.9 -447.7)" fill="none"/><path d="M567.6,451.6h0Z" transform="translate(-564.9 -447.7)" fill="#fff"/><path d="M567.6,451.6h0Z" transform="translate(-564.9 -447.7)" fill="none"/><path d="M567.7,451.6h0Z" transform="translate(-564.9 -447.7)" fill="#fff"/><path d="M567.7,451.6h0Z" transform="translate(-564.9 -447.7)" fill="none"/><path d="M567.7,451.6h0Z" transform="translate(-564.9 -447.7)" fill="#fff"/><path d="M567.7,451.6h0Z" transform="translate(-564.9 -447.7)" fill="none"/><path d="M567.8,451.6h0Z" transform="translate(-564.9 -447.7)" fill="#fff"/><path d="M567.8,451.6h0Z" transform="translate(-564.9 -447.7)" fill="none"/><path d="M567.9,451.6h0Z" transform="translate(-564.9 -447.7)" fill="#fff"/><path d="M567.9,451.6h0Z" transform="translate(-564.9 -447.7)" fill="none"/><path d="M567.9,451.6h0Z" transform="translate(-564.9 -447.7)" fill="#fff"/><path d="M567.9,451.6h0Z" transform="translate(-564.9 -447.7)" fill="none"/><path d="M567.7,451.6h0Z" transform="translate(-564.9 -447.7)" fill="#fff"/><path d="M567.7,451.6h0Z" transform="translate(-564.9 -447.7)" fill="none"/><path d="M568,451.6h0Z" transform="translate(-564.9 -447.7)" fill="#fff"/><path d="M568,451.6h0Z" transform="translate(-564.9 -447.7)" fill="none"/><path d="M568.1,451.6h0Z" transform="translate(-564.9 -447.7)" fill="#fff"/><path d="M568.1,451.6h0Z" transform="translate(-564.9 -447.7)" fill="none"/><path d="M568.1,451.6h0Z" transform="translate(-564.9 -447.7)" fill="#fff"/><path d="M568.1,451.6h0Z" transform="translate(-564.9 -447.7)" fill="none"/><path d="M568.2,451.6h0Z" transform="translate(-564.9 -447.7)" fill="#fff"/><path d="M568.2,451.6h0Z" transform="translate(-564.9 -447.7)" fill="none"/><path d="M568.1,451.6h0Z" transform="translate(-564.9 -447.7)" fill="#fff"/><path d="M568.1,451.6h0Z" transform="translate(-564.9 -447.7)" fill="none"/><path d="M568,451.6h0Z" transform="translate(-564.9 -447.7)" fill="#fff"/><path d="M568,451.6h0Z" transform="translate(-564.9 -447.7)" fill="none"/><path d="M568,451.6h0Z" transform="translate(-564.9 -447.7)" fill="#fff"/><path d="M568,451.6h0Z" transform="translate(-564.9 -447.7)" fill="none"/><path d="M567.9,451.6h0Z" transform="translate(-564.9 -447.7)" fill="#fff"/><path d="M567.9,451.6h0Z" transform="translate(-564.9 -447.7)" fill="none"/><path d="M567.8,451.6h0Z" transform="translate(-564.9 -447.7)" fill="#fff"/><path d="M567.8,451.6h0Z" transform="translate(-564.9 -447.7)" fill="none"/><path d="M567.8,451.6h0Z" transform="translate(-564.9 -447.7)" fill="#fff"/><path d="M567.8,451.6h0Z" transform="translate(-564.9 -447.7)" fill="none"/><path d="M567.7,451.6h0Z" transform="translate(-564.9 -447.7)" fill="#fff"/><path d="M567.7,451.6h0Z" transform="translate(-564.9 -447.7)" fill="none"/><path d="M567.6,451.6h0Z" transform="translate(-564.9 -447.7)" fill="#fff"/><path d="M567.6,451.6h0Z" transform="translate(-564.9 -447.7)" fill="none"/><path d="M567.6,451.6h0Z" transform="translate(-564.9 -447.7)" fill="#fff"/><path d="M567.6,451.6h0Z" transform="translate(-564.9 -447.7)" fill="none"/><path d="M567.5,451.6h0Z" transform="translate(-564.9 -447.7)" fill="#fff"/><path d="M567.5,451.6h0Z" transform="translate(-564.9 -447.7)" fill="none"/><path d="M567.4,451.6h0Z" transform="translate(-564.9 -447.7)" fill="#fff"/><path d="M567.4,451.6h0Z" transform="translate(-564.9 -447.7)" fill="none"/><path d="M567.4,451.6h0Z" transform="translate(-564.9 -447.7)" fill="#fff"/><path d="M567.4,451.6h0Z" transform="translate(-564.9 -447.7)" fill="none"/><path d="M567.6,451.6h0Z" transform="translate(-564.9 -447.7)" fill="#fff"/><path d="M567.6,451.6h0Z" transform="translate(-564.9 -447.7)" fill="none"/><path d="M567.3,451.6h0Z" transform="translate(-564.9 -447.7)" fill="#fff"/><path d="M567.3,451.6h0Z" transform="translate(-564.9 -447.7)" fill="none"/><path d="M567.3,451.6Z" transform="translate(-564.9 -447.7)" fill="#fff"/><path d="M567.3,451.6Z" transform="translate(-564.9 -447.7)" fill="none"/><path d="M567.2,451.6h0Z" transform="translate(-564.9 -447.7)" fill="#fff"/><path d="M567.2,451.6h0Z" transform="translate(-564.9 -447.7)" fill="none"/><path d="M567.1,451.6h0Z" transform="translate(-564.9 -447.7)" fill="#fff"/><path d="M567.1,451.6h0Z" transform="translate(-564.9 -447.7)" fill="none"/><path d="M569,452.5c-1.6,1.5-2.2,1.7-1.9,1.8s1.3-.6,2.4-1.7,1.7-2,1.3-2.1-.1.3-1.8,2Z" transform="translate(-564.9 -447.7)" fill="#fff"/><path d="M567.2,454.3H567c0-.1.1-.2.4-.4l1.6-1.4a10.9,10.9,0,0,0,1.5-1.8c.1-.2.2-.3.3-.2s.1,0,.1.1-.5,1.1-1.4,2a6,6,0,0,1-2.3,1.7Zm3.6-3.8-.3.3c-.2.2-.6.8-1.5,1.7l-1.6,1.4c-.3.2-.4.3-.4.4h.2a6,6,0,0,0,2.3-1.7c.9-.9,1.5-1.7,1.4-2s0-.1-.1-.1Z" transform="translate(-564.9 -447.7)" fill="#dc1f34"/><path d="M567.7,453.6h.5c-.5.5-1.1.7-1.2.6s.3-.3.7-.7Z" transform="translate(-564.9 -447.7)" fill="#fff"/><path d="M567.1,454.4h-.2c0-.1.1-.1.3-.3l.5-.4h.5a2.4,2.4,0,0,1-1.1.7Zm.6-.8c-.2.2-.4.3-.5.5s-.3.1-.3.2h.1c.1.1.7-.1,1.2-.6Z" transform="translate(-564.9 -447.7)" fill="#dc1f34"/><path d="M567.7,453.6l.4.2c-.5.4-1,.6-1.1.5s.3-.2.7-.7Z" transform="translate(-564.9 -447.7)" fill="#fff"/><path d="M567.1,454.3H567c0-.1,0-.1.2-.2l.5-.5.4.2a1.5,1.5,0,0,1-1,.5Zm.6-.7-.5.5c-.1.1-.2.1-.2.2h.1a1.5,1.5,0,0,0,1-.5l-.4-.2Z" transform="translate(-564.9 -447.7)" fill="#dc1f34"/><path d="M569.2,452.6h0c0,.1,0,.1.1.1h-.1Z" transform="translate(-564.9 -447.7)" fill="#dc1f34"/><path d="M569,452.7Z" transform="translate(-564.9 -447.7)" fill="#dc1f34"/><path d="M568.8,453.1h0Z" transform="translate(-564.9 -447.7)" fill="#dc1f34"/><path d="M568.6,453.2h.1a.1.1,0,0,0,.1.1h-.2Z" transform="translate(-564.9 -447.7)" fill="#dc1f34"/><polygon points="3.5 5.8 3.5 5.8 3.5 5.7 3.6 5.7 3.6 5.7 3.6 5.6 3.6 5.6 3.6 5.6 3.6 5.6 3.6 5.6 3.6 5.6 3.6 5.6 3.5 5.6 3.6 5.7 3.6 5.7 3.6 5.7 3.7 5.6 3.7 5.7 3.6 5.7 3.6 5.7 3.6 5.7 3.5 5.8 3.5 5.8" fill="#dc1f34"/><path d="M568.1,453.7h0Z" transform="translate(-564.9 -447.7)" fill="#dc1f34"/><path d="M567.2,454.2Zm.5-.2h.1a.1.1,0,0,1,.1.1h-.2Z" transform="translate(-564.9 -447.7)" fill="#dc1f34"/><path d="M570.8,451.1c.7-1.2,1.2-2.2,1-2.3s-.8.9-1.5,2.1Z" transform="translate(-564.9 -447.7)" fill="#fff"/><path d="M570.8,451.1l-.5-.2a9.1,9.1,0,0,1,1.5-2.1h.1a8,8,0,0,1-1.1,2.3Zm1-2.3a9.1,9.1,0,0,0-1.5,2.1l.5.2a6.7,6.7,0,0,0,1-2.3Z" transform="translate(-564.9 -447.7)" fill="#dc1f34"/><path d="M570.8,451.1a11.3,11.3,0,0,0,1-2.2c-.1-.1-.7.8-1.4,2Z" transform="translate(-564.9 -447.7)" fill="#fff"/><path d="M570.8,451.1h-.1a9.8,9.8,0,0,0,1.1-2.2c-.1-.1-.7.7-1.4,2,.6-1.1,1.3-2.1,1.4-2a12.8,12.8,0,0,1-1,2.2Z" transform="translate(-564.9 -447.7)" fill="#dc1f34"/><path d="M570.6,450.5c0,.1-.1.2-.2.4l.4.2c0-.2.1-.3.2-.5Z" transform="translate(-564.9 -447.7)" fill="#fff"/><path d="M570.8,451.1l-.4-.2v-.2c0-.1.1-.2.1-.3l.4.2-.2.3v.2Zm-.2-.6v.4l.4.2v-.2l.2-.3Z" transform="translate(-564.9 -447.7)" fill="#dc1f34"/><path d="M570.7,450.5l-.3.4h.3a.5.5,0,0,0,.2-.4Z" transform="translate(-564.9 -447.7)" fill="#fff"/><path d="M570.7,451h-.3v-.2l.2-.2h.2a.4.4,0,0,1-.1.3Zm0-.5-.2.2v.2h.4v-.3Z" transform="translate(-564.9 -447.7)" fill="#dc1f34"/><polygon points="6 3 5.8 2.9 5.6 3.2 5.8 3.3 6 3" fill="#fff"/><path d="M570.7,451h-.2l.2-.3h.2l-.2.4Zm0-.4-.2.3h.2l.2-.2Z" transform="translate(-564.9 -447.7)" fill="#dc1f34"/><path d="M570.9,450.7l-.4.2Z" transform="translate(-564.9 -447.7)" fill="#fff"/><polygon points="5.6 3.2 6 3 6 3 5.6 3.2 5.6 3.2" fill="#dc1f34"/><path d="M570.7,450.9v0Z" transform="translate(-564.9 -447.7)" fill="#fff"/><polygon points="5.8 3.3 5.8 2.9 5.8 3.3 5.8 3.3 5.8 3.3" fill="#dc1f34"/><path d="M571.7,449.2h0Z" transform="translate(-564.9 -447.7)" fill="#fff"/><polygon points="6.8 1.6 6.6 1.5 6.8 1.6 6.8 1.6 6.8 1.6" fill="#dc1f34"/><path d="M571.7,449c-.1,0-.1,0-.1.1h.1Z" transform="translate(-564.9 -447.7)" fill="#db001e"/><path d="M571.7,449c-.1,0-.1,0-.1.1h.1Z" transform="translate(-564.9 -447.7)" fill="none"/><path d="M570.5,452.4c1.6,1.6,2.3,1.8,1.9,1.9s-1.3-.7-2.3-1.7-1.7-2-1.4-2.1.2.3,1.8,1.9Z" transform="translate(-564.9 -447.7)" fill="#fff"/><path d="M572.4,454.3a5.7,5.7,0,0,1-2.3-1.7c-1-1-1.6-1.8-1.5-2.1h.1l.4.3a9.2,9.2,0,0,0,1.4,1.7,11.4,11.4,0,0,0,1.6,1.4l.4.4h-.1Zm-3.6-3.9h-.2a6.2,6.2,0,0,0,1.5,2.1c1.1,1.1,2.1,1.8,2.3,1.7a.1.1,0,0,0,.1-.1l-.4-.3-1.6-1.5a8.2,8.2,0,0,1-1.5-1.7c-.1-.2-.1-.3-.2-.3Z" transform="translate(-564.9 -447.7)" fill="#dc1f34"/><path d="M571.8,453.6h-.5c.5.5,1.1.7,1.3.6s-.3-.3-.8-.7Z" transform="translate(-564.9 -447.7)" fill="#fff"/><path d="M572.5,454.3a1.9,1.9,0,0,1-1.2-.6l.5-.2.6.5c.1.1.2.2.2.3h-.1Zm-.7-.7h-.5a1.9,1.9,0,0,0,1.2.6h.1q0-.2-.3-.3l-.5-.4Z" transform="translate(-564.9 -447.7)" fill="#dc1f34"/><path d="M571.8,453.6h-.4a1.9,1.9,0,0,0,1.1.6c.2-.1-.2-.2-.7-.7Z" transform="translate(-564.9 -447.7)" fill="#fff"/><path d="M572.4,454.3a2.2,2.2,0,0,1-1-.6h.4l.6.5h0Zm-.6-.7h-.4a1.9,1.9,0,0,0,1.1.6c0-.1,0-.1-.1-.2l-.6-.5Z" transform="translate(-564.9 -447.7)" fill="#dc1f34"/><path d="M570.4,452.6h0Z" transform="translate(-564.9 -447.7)" fill="#dc1f34"/><path d="M570.6,452.7h0Z" transform="translate(-564.9 -447.7)" fill="#dc1f34"/><path d="M570.8,453h0Z" transform="translate(-564.9 -447.7)" fill="#dc1f34"/><path d="M571,453.2h0a.1.1,0,0,1-.1-.1h0c.1,0,.1,0,.1.1h0Z" transform="translate(-564.9 -447.7)" fill="#dc1f34"/><polygon points="6.3 5.7 6.2 5.7 6.2 5.7 6.2 5.6 6.2 5.6 6.1 5.6 6.2 5.6 6.2 5.6 6.2 5.6 6.2 5.6 6.2 5.6 6.2 5.6 6.2 5.7 6.3 5.7 6.3 5.7 6.4 5.7 6.4 5.7 6.4 5.7 6.4 5.7 6.3 5.7 6.3 5.7" fill="#dc1f34"/><path d="M571.5,453.6Z" transform="translate(-564.9 -447.7)" fill="#dc1f34"/><path d="M572.3,454.2h-.5c0,.1,0,.1-.1.1h.5c.1.1.1.1,0,.1h.1Z" transform="translate(-564.9 -447.7)" fill="#dc1f34"/><path d="M568.7,451.1a7.8,7.8,0,0,1-1-2.3c.1-.1.8.8,1.5,2Z" transform="translate(-564.9 -447.7)" fill="#fff"/><path d="M568.7,451.1h0a7.6,7.6,0,0,1-1-2.3h0c.2,0,.8.9,1.5,2l-.5.3Zm-1-2.3a6.5,6.5,0,0,0,1,2.2l.5-.2c-.7-1.1-1.3-2-1.5-2Z" transform="translate(-564.9 -447.7)" fill="#dc1f34"/><path d="M568.8,451a6.5,6.5,0,0,1-1.1-2.2,7.3,7.3,0,0,1,1.4,2.1Z" transform="translate(-564.9 -447.7)" fill="#fff"/><path d="M568.8,451a10.3,10.3,0,0,1-1.1-2.1h.1a7.6,7.6,0,0,0,1,2.1Zm.4-.1a6.8,6.8,0,0,0-1.4-2,8,8,0,0,1,1.4,2Z" transform="translate(-564.9 -447.7)" fill="#dc1f34"/><path d="M568.9,450.4c.1.2.2.3.2.5h-.3l-.3-.4Z" transform="translate(-564.9 -447.7)" fill="#fff"/><path d="M568.8,451h-.1l-.2-.3.4-.2.2.3v.2Zm.1-.6-.4.2.2.3h.4v-.2c-.1-.1-.2-.2-.2-.3Z" transform="translate(-564.9 -447.7)" fill="#dc1f34"/><path d="M568.9,450.5c0,.1.1.2.2.4h-.3c-.1-.2-.1-.3-.2-.4Z" transform="translate(-564.9 -447.7)" fill="#fff"/><path d="M568.8,451h-.1v-.3h.3c0,.1.1.1.1.2v.2Zm.1-.5h-.3v.4h.3v-.2c0-.1-.1-.1-.1-.2Z" transform="translate(-564.9 -447.7)" fill="#dc1f34"/><polygon points="3.8 3 4 2.9 4.1 3.2 3.9 3.3 3.8 3" fill="#fff"/><path d="M568.8,450.9v-.3h.1l.2.3Zm0-.4h-.1v.3h.2l-.2-.3Z" transform="translate(-564.9 -447.7)" fill="#dc1f34"/><path d="M568.7,450.6l.3.2Z" transform="translate(-564.9 -447.7)" fill="#fff"/><polygon points="4.1 3.2 3.8 3 3.8 3 4.1 3.2 4.1 3.2" fill="#dc1f34"/><path d="M568.8,450.9v0Z" transform="translate(-564.9 -447.7)" fill="#fff"/><path d="M568.8,450.9v0Z" transform="translate(-564.9 -447.7)" fill="none"/><path d="M567.8,449.2h0Z" transform="translate(-564.9 -447.7)" fill="#fff"/><path d="M567.8,449.2h0Z" transform="translate(-564.9 -447.7)" fill="none"/><path d="M567.9,449h0c0,.1,0,.1-.1.1h.1Z" transform="translate(-564.9 -447.7)" fill="#db001e"/><path d="M567.8,449.1h.1c0,.1,0,.1-.1.1Z" transform="translate(-564.9 -447.7)" fill="#dc1f34"/><path d="M569.3,450.4c0,1,0,1.4-.1,1.5s-2,0-2,.3,1.6.5,2.1.5,1-.2,1-.8v-1.5Z" transform="translate(-564.9 -447.7)" fill="#fff"/><path d="M569.3,452.8c-.5,0-2.1-.3-2.1-.6s.9-.3,1.5-.3h.5c.1-.1.1-.4.1-1.3v-.2h1v1.5c0,.6-.4.9-1,.9Zm1-2.4h-1v.2c0,.9,0,1.2-.1,1.3h-.5c-.5,0-1.5.1-1.5.3s1.6.5,2.1.5,1-.3,1-.8v-1.5Z" transform="translate(-564.9 -447.7)" fill="#dc1f34"/><path d="M569.3,450.7v.2h1v-.2a1.7,1.7,0,0,1-1,0Z" transform="translate(-564.9 -447.7)" fill="#fff"/><path d="M569.8,450.9h-.5v-.2a1.7,1.7,0,0,0,1,0v.2Zm-.5-.2v.2h1v-.2a1.7,1.7,0,0,1-1,0Z" transform="translate(-564.9 -447.7)" fill="#dc1f34"/><path d="M569.3,450.4v.2h1v-.2a1.7,1.7,0,0,1-1,0Z" transform="translate(-564.9 -447.7)" fill="#fff"/><path d="M569.8,450.6h-.5v-.2a1.7,1.7,0,0,0,1,0v.2Zm-.5-.2v.2h1v-.2a1.7,1.7,0,0,1-1,0Z" transform="translate(-564.9 -447.7)" fill="#dc1f34"/><path d="M569.3,450.6h0a1.7,1.7,0,0,0,1,0h-1Z" transform="translate(-564.9 -447.7)" fill="#fff"/><path d="M569.8,450.8h0Zm-.5-.2h0a1.7,1.7,0,0,0,1,0h-1Z" transform="translate(-564.9 -447.7)" fill="#dc1f34"/><path d="M569.3,450.9h0a1.7,1.7,0,0,0,1,0h-1Z" transform="translate(-564.9 -447.7)" fill="#fff"/><path d="M569.8,451.1h0Zm-.5-.2h0a3.3,3.3,0,0,0,1,0h-1Z" transform="translate(-564.9 -447.7)" fill="#dc1f34"/><path d="M569.3,450.6h0Z" transform="translate(-564.9 -447.7)" fill="#fff"/><path d="M569.3,450.6h0Z" transform="translate(-564.9 -447.7)" fill="none"/><path d="M569.5,450.6h0Z" transform="translate(-564.9 -447.7)" fill="#fff"/><path d="M569.5,450.6h0Z" transform="translate(-564.9 -447.7)" fill="none"/><path d="M569.7,450.7Z" transform="translate(-564.9 -447.7)" fill="#fff"/><path d="M569.7,450.7Z" transform="translate(-564.9 -447.7)" fill="none"/><path d="M569.9,450.7Z" transform="translate(-564.9 -447.7)" fill="#fff"/><path d="M569.9,450.7Z" transform="translate(-564.9 -447.7)" fill="none"/><path d="M570,450.6h0Z" transform="translate(-564.9 -447.7)" fill="#fff"/><path d="M570,450.6h0Z" transform="translate(-564.9 -447.7)" fill="none"/><path d="M570.2,450.6h0Z" transform="translate(-564.9 -447.7)" fill="#fff"/><path d="M570.2,450.6h0Z" transform="translate(-564.9 -447.7)" fill="none"/><path d="M569.3,451.2l1,.7Z" transform="translate(-564.9 -447.7)" fill="#fff"/><polygon points="5.4 4.3 4.4 3.5 4.4 3.5 5.4 4.3 5.4 4.3" fill="#dc1f34"/><path d="M569.4,451.2l.9.7Z" transform="translate(-564.9 -447.7)" fill="#fff"/><polygon points="5.4 4.2 4.5 3.5 4.5 3.5 5.4 4.2 5.4 4.2" fill="#dc1f34"/><path d="M569.5,451.2l.8.6Z" transform="translate(-564.9 -447.7)" fill="#fff"/><polygon points="5.4 4.1 4.6 3.5 4.6 3.5 5.4 4.1 5.4 4.1" fill="#dc1f34"/><path d="M569.6,451.2l.7.5Z" transform="translate(-564.9 -447.7)" fill="#fff"/><polygon points="5.4 4 4.7 3.5 4.7 3.5 5.4 4 5.4 4" fill="#dc1f34"/><path d="M569.7,451.2l.6.4Z" transform="translate(-564.9 -447.7)" fill="#fff"/><polygon points="5.4 3.9 4.8 3.5 4.8 3.5 5.4 3.9 5.4 3.9" fill="#dc1f34"/><path d="M569.8,451.2l.5.3Z" transform="translate(-564.9 -447.7)" fill="#fff"/><polygon points="5.4 3.8 4.9 3.5 4.9 3.5 5.4 3.8 5.4 3.8" fill="#dc1f34"/><path d="M569.9,451.2l.4.2Z" transform="translate(-564.9 -447.7)" fill="#fff"/><polygon points="5.4 3.7 5 3.5 5 3.5 5.4 3.7 5.4 3.7" fill="#dc1f34"/><path d="M570,451.2l.3.2Z" transform="translate(-564.9 -447.7)" fill="#fff"/><path d="M570,451.2l.3.2Z" transform="translate(-564.9 -447.7)" fill="none"/><path d="M570.1,451.2h0Z" transform="translate(-564.9 -447.7)" fill="#fff"/><path d="M570.1,451.2h0Z" transform="translate(-564.9 -447.7)" fill="none"/><path d="M570.2,451.2h0Z" transform="translate(-564.9 -447.7)" fill="#fff"/><path d="M570.2,451.2h0Z" transform="translate(-564.9 -447.7)" fill="none"/><path d="M569.3,451.2l1,.8Z" transform="translate(-564.9 -447.7)" fill="#fff"/><polygon points="5.4 4.4 4.4 3.6 4.4 3.6 5.4 4.4 5.4 4.4" fill="#dc1f34"/><path d="M570.3,451.2l-1.1.8Z" transform="translate(-564.9 -447.7)" fill="#fff"/><polygon points="4.3 4.4 5.4 3.5 5.4 3.5 4.3 4.4 4.3 4.4" fill="#dc1f34"/><path d="M570.2,451.2l-1,.7Z" transform="translate(-564.9 -447.7)" fill="#fff"/><polygon points="4.4 4.3 5.3 3.5 5.3 3.5 4.4 4.3 4.4 4.3" fill="#dc1f34"/><path d="M570,451.2l-.7.6Z" transform="translate(-564.9 -447.7)" fill="#fff"/><polygon points="4.4 4.1 5.2 3.5 5.2 3.5 4.4 4.1 4.4 4.1" fill="#dc1f34"/><path d="M569.9,451.2l-.6.5Z" transform="translate(-564.9 -447.7)" fill="#fff"/><polygon points="4.4 4 5.1 3.5 5.1 3.5 4.4 4 4.4 4" fill="#dc1f34"/><path d="M569.8,451.2l-.5.4Z" transform="translate(-564.9 -447.7)" fill="#fff"/><polygon points="4.4 3.9 5 3.5 5 3.5 4.4 3.9 4.4 3.9" fill="#dc1f34"/><path d="M569.7,451.2l-.4.3Z" transform="translate(-564.9 -447.7)" fill="#fff"/><polygon points="4.4 3.8 4.9 3.5 4.9 3.5 4.4 3.8 4.4 3.8" fill="#dc1f34"/><path d="M569.6,451.2l-.3.2Z" transform="translate(-564.9 -447.7)" fill="#fff"/><polygon points="4.4 3.8 4.8 3.5 4.8 3.5 4.4 3.8 4.4 3.8" fill="#dc1f34"/><path d="M569.5,451.2l-.2.2Z" transform="translate(-564.9 -447.7)" fill="#fff"/><path d="M569.5,451.2l-.2.2Z" transform="translate(-564.9 -447.7)" fill="none"/><path d="M569.5,451.2h0Z" transform="translate(-564.9 -447.7)" fill="#fff"/><path d="M569.5,451.2h0Z" transform="translate(-564.9 -447.7)" fill="none"/><path d="M569.4,451.2h0Z" transform="translate(-564.9 -447.7)" fill="#fff"/><path d="M569.4,451.2h0Z" transform="translate(-564.9 -447.7)" fill="none"/><path d="M570.3,451.2l-1.1.9Z" transform="translate(-564.9 -447.7)" fill="#fff"/><polygon points="4.3 4.5 5.4 3.6 5.4 3.6 4.3 4.5 4.3 4.5" fill="#dc1f34"/><path d="M570.3,451.3l-1.1.9Z" transform="translate(-564.9 -447.7)" fill="#fff"/><polygon points="4.3 4.5 5.4 3.7 5.4 3.7 4.3 4.5 4.3 4.5" fill="#dc1f34"/><path d="M570.3,451.4l-1.1.9Z" transform="translate(-564.9 -447.7)" fill="#fff"/><polygon points="4.3 4.6 5.4 3.7 5.4 3.8 4.3 4.6 4.3 4.6" fill="#dc1f34"/><path d="M570.3,451.5l-1.1.9Z" transform="translate(-564.9 -447.7)" fill="#fff"/><polygon points="4.3 4.7 5.4 3.8 5.4 3.8 4.3 4.7 4.3 4.7" fill="#dc1f34"/><path d="M570.3,451.6l-1.1.9Z" transform="translate(-564.9 -447.7)" fill="#fff"/><polygon points="4.3 4.8 5.4 3.9 5.4 3.9 4.3 4.8 4.3 4.8" fill="#dc1f34"/><path d="M570.3,451.7l-1.1.8Z" transform="translate(-564.9 -447.7)" fill="#fff"/><polygon points="4.3 4.9 5.4 4 5.4 4 4.3 4.9 4.3 4.9" fill="#dc1f34"/><path d="M570.3,451.8l-1.1.8Z" transform="translate(-564.9 -447.7)" fill="#fff"/><polygon points="4.3 5 5.4 4.1 5.4 4.1 4.3 5 4.3 5" fill="#dc1f34"/><path d="M570.3,451.9l-1.1.8Z" transform="translate(-564.9 -447.7)" fill="#fff"/><polygon points="4.3 5.1 5.4 4.2 5.4 4.2 4.3 5.1 4.3 5.1" fill="#dc1f34"/><path d="M570.3,451.9l-1,.8Z" transform="translate(-564.9 -447.7)" fill="#fff"/><polygon points="4.4 5.1 5.4 4.3 5.4 4.3 4.4 5.1 4.4 5.1" fill="#dc1f34"/><path d="M570.3,452l-.9.7Z" transform="translate(-564.9 -447.7)" fill="#fff"/><polygon points="4.5 5.1 5.4 4.4 5.4 4.4 4.5 5.1 4.5 5.1" fill="#dc1f34"/><path d="M570.2,452.1l-.7.6Z" transform="translate(-564.9 -447.7)" fill="#fff"/><polygon points="4.6 5.1 5.3 4.5 5.4 4.5 4.6 5.1 4.6 5.1" fill="#dc1f34"/><path d="M570.2,452.3l-.6.4Z" transform="translate(-564.9 -447.7)" fill="#fff"/><polygon points="4.7 5.1 5.3 4.6 5.3 4.6 4.7 5.1 4.7 5.1" fill="#dc1f34"/><path d="M570.1,452.4l-.3.2Z" transform="translate(-564.9 -447.7)" fill="#fff"/><path d="M570.1,452.4l-.3.2Z" transform="translate(-564.9 -447.7)" fill="none"/><path d="M569.3,451.3l.9.8Z" transform="translate(-564.9 -447.7)" fill="#fff"/><polygon points="5.4 4.4 4.4 3.7 4.4 3.7 5.4 4.4 5.4 4.4" fill="#dc1f34"/><path d="M569.3,451.4l.9.8Z" transform="translate(-564.9 -447.7)" fill="#fff"/><polygon points="5.4 4.5 4.4 3.8 4.4 3.7 5.4 4.5 5.4 4.5" fill="#dc1f34"/><path d="M569.3,451.5l.9.7Z" transform="translate(-564.9 -447.7)" fill="#fff"/><polygon points="5.3 4.6 4.4 3.8 4.4 3.8 5.3 4.6 5.3 4.6" fill="#dc1f34"/><path d="M569.3,451.6l.9.7Z" transform="translate(-564.9 -447.7)" fill="#fff"/><polygon points="5.3 4.6 4.4 3.9 4.4 3.9 5.3 4.6 5.3 4.6" fill="#dc1f34"/><path d="M569.3,451.7l.9.7Z" transform="translate(-564.9 -447.7)" fill="#fff"/><polygon points="5.3 4.7 4.4 4 4.4 4 5.3 4.7 5.3 4.7" fill="#dc1f34"/><path d="M569.3,451.7l.8.7Z" transform="translate(-564.9 -447.7)" fill="#fff"/><polygon points="5.3 4.8 4.4 4.1 4.4 4.1 5.3 4.8 5.3 4.8" fill="#dc1f34"/><path d="M569.3,451.8l.8.7Z" transform="translate(-564.9 -447.7)" fill="#fff"/><polygon points="5.2 4.8 4.4 4.2 4.4 4.2 5.2 4.8 5.2 4.8" fill="#dc1f34"/><path d="M569.2,451.9l.8.6Z" transform="translate(-564.9 -447.7)" fill="#fff"/><polygon points="5.2 4.8 4.3 4.2 4.4 4.2 5.2 4.8 5.2 4.8" fill="#dc1f34"/><path d="M569.2,451.9l.8.6Z" transform="translate(-564.9 -447.7)" fill="#fff"/><polygon points="5.1 4.9 4.3 4.3 4.3 4.3 5.1 4.9 5.1 4.9" fill="#dc1f34"/><path d="M569.2,452l.7.6Z" transform="translate(-564.9 -447.7)" fill="#fff"/><polygon points="5.1 4.9 4.3 4.4 4.3 4.4 5.1 4.9 5.1 4.9" fill="#dc1f34"/><path d="M569.2,452.1l.6.5Z" transform="translate(-564.9 -447.7)" fill="#fff"/><polygon points="5 5 4.3 4.5 4.3 4.4 5 5 5 5" fill="#dc1f34"/><path d="M569.3,451v.2h1V451a1.7,1.7,0,0,1-1,0Z" transform="translate(-564.9 -447.7)" fill="#fff"/><path d="M569.8,451.2h-.5V451a3.3,3.3,0,0,0,1,0v.2Zm-.5-.2v.2h1V451a1.7,1.7,0,0,1-1,0Z" transform="translate(-564.9 -447.7)" fill="#dc1f34"/><path d="M569.2,452.2l.6.5Z" transform="translate(-564.9 -447.7)" fill="#fff"/><polygon points="4.9 5 4.3 4.5 4.3 4.5 4.9 5 4.9 5" fill="#dc1f34"/><path d="M569.2,452.3l.5.4Z" transform="translate(-564.9 -447.7)" fill="#fff"/><polygon points="4.8 5 4.3 4.6 4.3 4.6 4.8 5 4.8 5" fill="#dc1f34"/><path d="M569.2,452.4l.4.3Z" transform="translate(-564.9 -447.7)" fill="#fff"/><polygon points="4.8 5 4.3 4.7 4.3 4.7 4.8 5 4.8 5" fill="#dc1f34"/><path d="M569.2,452.5l.3.2Z" transform="translate(-564.9 -447.7)" fill="#fff"/><polygon points="4.6 5 4.3 4.8 4.3 4.8 4.6 5 4.6 5" fill="#dc1f34"/><path d="M569.2,452.5l.3.2Z" transform="translate(-564.9 -447.7)" fill="#fff"/><path d="M569.2,452.5l.3.2Z" transform="translate(-564.9 -447.7)" fill="none"/><path d="M569.2,452.6h0Z" transform="translate(-564.9 -447.7)" fill="#fff"/><path d="M569.2,452.6h0Z" transform="translate(-564.9 -447.7)" fill="none"/><path d="M569.3,451.1h0Z" transform="translate(-564.9 -447.7)" fill="#fff"/><path d="M569.3,451.1h0Z" transform="translate(-564.9 -447.7)" fill="none"/><path d="M569.5,451.1h0Z" transform="translate(-564.9 -447.7)" fill="#fff"/><path d="M569.5,451.1h0Z" transform="translate(-564.9 -447.7)" fill="none"/><path d="M569.7,451.1Z" transform="translate(-564.9 -447.7)" fill="#fff"/><path d="M569.7,451.1Z" transform="translate(-564.9 -447.7)" fill="none"/><path d="M569.9,451.1Z" transform="translate(-564.9 -447.7)" fill="#fff"/><path d="M569.9,451.1Z" transform="translate(-564.9 -447.7)" fill="none"/><path d="M570,451.1h0Z" transform="translate(-564.9 -447.7)" fill="#fff"/><path d="M570,451.1h0Z" transform="translate(-564.9 -447.7)" fill="none"/><path d="M570.2,451.1h0Z" transform="translate(-564.9 -447.7)" fill="#fff"/><path d="M570.2,451.1h0Z" transform="translate(-564.9 -447.7)" fill="none"/><path d="M567.9,452.5l1.2-.6Z" transform="translate(-564.9 -447.7)" fill="#fff"/><polygon points="3 4.9 3 4.8 4.2 4.2 3 4.9 3 4.9" fill="#dc1f34"/><path d="M567.8,452.5l1.1-.6Z" transform="translate(-564.9 -447.7)" fill="#fff"/><polygon points="3 4.8 3 4.8 4.1 4.2 3 4.8 3 4.8" fill="#dc1f34"/><path d="M567.8,452.4l1-.5Z" transform="translate(-564.9 -447.7)" fill="#fff"/><polygon points="2.9 4.8 2.9 4.8 3.9 4.2 2.9 4.8 2.9 4.8" fill="#dc1f34"/><path d="M567.8,452.4l.8-.5Z" transform="translate(-564.9 -447.7)" fill="#fff"/><polygon points="2.9 4.7 2.9 4.7 3.8 4.2 2.9 4.7 2.9 4.7" fill="#dc1f34"/><path d="M567.7,452.3l.8-.4Z" transform="translate(-564.9 -447.7)" fill="#fff"/><polygon points="2.8 4.7 2.8 4.6 3.6 4.2 2.8 4.7 2.8 4.7" fill="#dc1f34"/><path d="M567.7,452.2l.6-.3Z" transform="translate(-564.9 -447.7)" fill="#fff"/><polygon points="2.9 4.6 2.9 4.6 3.4 4.3 2.9 4.6 2.9 4.6" fill="#dc1f34"/><path d="M567.7,452.2l.4-.3Z" transform="translate(-564.9 -447.7)" fill="#fff"/><polygon points="2.8 4.5 2.8 4.5 3.2 4.3 2.8 4.5 2.8 4.5" fill="#dc1f34"/><path d="M567.7,452.1l.3-.2Z" transform="translate(-564.9 -447.7)" fill="#fff"/><path d="M567.7,452.1l.3-.2Z" transform="translate(-564.9 -447.7)" fill="none"/><path d="M568,452.5l1.1-.5Z" transform="translate(-564.9 -447.7)" fill="#fff"/><polygon points="3.1 4.9 3.1 4.9 4.2 4.3 3.1 4.9 3.1 4.9" fill="#dc1f34"/><path d="M568.1,452.6l1-.6Z" transform="translate(-564.9 -447.7)" fill="#fff"/><polygon points="3.2 4.9 3.2 4.9 4.2 4.4 3.2 4.9 3.2 4.9" fill="#dc1f34"/><path d="M568.2,452.6l1-.5Z" transform="translate(-564.9 -447.7)" fill="#fff"/><polygon points="3.3 4.9 3.3 4.9 4.3 4.4 3.3 4.9 3.3 4.9" fill="#dc1f34"/><path d="M568.3,452.6l.8-.4Z" transform="translate(-564.9 -447.7)" fill="#fff"/><polygon points="3.4 5 3.4 5 4.2 4.5 3.4 5 3.4 5" fill="#dc1f34"/><path d="M568.4,452.6l.7-.3Z" transform="translate(-564.9 -447.7)" fill="#fff"/><polygon points="3.5 5 3.5 5 4.2 4.6 3.5 5 3.5 5" fill="#dc1f34"/><path d="M568.5,452.7l.6-.4Z" transform="translate(-564.9 -447.7)" fill="#fff"/><polygon points="3.6 5 3.6 5 4.2 4.7 3.6 5 3.6 5" fill="#dc1f34"/><path d="M568.6,452.7l.5-.3Z" transform="translate(-564.9 -447.7)" fill="#fff"/><polygon points="3.7 5 3.7 5 4.2 4.8 3.7 5 3.7 5" fill="#dc1f34"/><path d="M568.7,452.7l.4-.2Z" transform="translate(-564.9 -447.7)" fill="#fff"/><polygon points="3.9 5 3.9 5 4.2 4.8 3.9 5 3.9 5" fill="#dc1f34"/><path d="M568.9,452.7h0Z" transform="translate(-564.9 -447.7)" fill="#fff"/><path d="M568.9,452.7h0Z" transform="translate(-564.9 -447.7)" fill="none"/><path d="M569,452.7h0Z" transform="translate(-564.9 -447.7)" fill="#fff"/><path d="M569,452.7h0Z" transform="translate(-564.9 -447.7)" fill="none"/><path d="M569.2,451.9h-.1a1.1,1.1,0,0,0,0,.8h.1v-.8Z" transform="translate(-564.9 -447.7)" fill="#fff"/><path d="M569.2,452.8h-.1a1.4,1.4,0,0,1,0-.9h.1v.8Zm0-.9h-.1a1.1,1.1,0,0,0,0,.8h.1v-.8Z" transform="translate(-564.9 -447.7)" fill="#dc1f34"/><path d="M567.3,452.3l.4-.3Z" transform="translate(-564.9 -447.7)" fill="#fff"/><polygon points="2.4 4.6 2.4 4.6 2.8 4.3 2.4 4.6 2.4 4.6" fill="#dc1f34"/><path d="M567.3,452.1l.4.3Z" transform="translate(-564.9 -447.7)" fill="#fff"/><polygon points="2.8 4.8 2.4 4.4 2.4 4.4 2.8 4.8 2.8 4.8" fill="#dc1f34"/><path d="M567.9,451.9h-.2v.5h.2v-.6Z" transform="translate(-564.9 -447.7)" fill="#fff"/><path d="M567.9,452.6h-.2V452h.2v.6Zm0-.7h-.2v.5h.2a.6.6,0,0,1,0-.6Z" transform="translate(-564.9 -447.7)" fill="#dc1f34"/><path d="M570.3,450.5v-.2c-.2.1-.3,0-.3-.1h-.5a.2.2,0,0,1-.2.2h1Z" transform="translate(-564.9 -447.7)" fill="#fff"/><path d="M570.3,450.5h-1c.1-.1.2-.1.2-.2h.8v.2Zm-.3-.3h-.5a.2.2,0,0,1-.2.2h1v-.2h-.2a.1.1,0,0,1-.1-.1Z" transform="translate(-564.9 -447.7)" fill="#dc1f34"/><rect x="4.7" y="2.3" width="0.4" height="0.17" fill="#fff"/><path d="M570,450.2h-.4V450h.4v.2Zm0-.2h-.4v.2h.4V450Z" transform="translate(-564.9 -447.7)" fill="#dc1f34"/><rect x="4.7" y="2.2" width="0.3" height="0.17" fill="#fff"/><path d="M570,450h-.4v-.2h.3v.2Zm-.1-.2h-.3v.2h.3v-.2Z" transform="translate(-564.9 -447.7)" fill="#dc1f34"/><rect x="4.7" y="2" width="0.3" height="0.17" fill="#fff"/><path d="M570,449.8h-.1v.2Zm-.1-.1h0Z" transform="translate(-564.9 -447.7)" fill="#dc1f34"/><rect x="4.8" y="1.8" width="0.3" height="0.23" fill="#fff"/><path d="M569.9,449.7h-.3v-.3h.3v.3Zm0-.3h-.3v.3h.3v-.3Z" transform="translate(-564.9 -447.7)" fill="#dc1f34"/><rect x="4.7" y="1.6" width="0.3" height="0.21" fill="#fff"/><path d="M569.9,449.4h-.3v-.2h.3v.2Zm0-.2h-.3v.2h.3v-.2Z" transform="translate(-564.9 -447.7)" fill="#dc1f34"/><path d="M569.8,448.8c.2,0,.4.1.4.2s-.2.3-.4.3-.4-.1-.4-.3.2-.2.4-.2Z" transform="translate(-564.9 -447.7)" fill="#fff"/><path d="M569.8,449.3c-.2,0-.4-.1-.4-.3s.2-.2.4-.2.4.1.4.2-.2.3-.4.3Zm0-.5c-.2,0-.4.1-.4.2s.2.3.4.3.4-.1.4-.3-.2-.2-.4-.2Z" transform="translate(-564.9 -447.7)" fill="#dc1f34"/><path d="M570,449a.3.3,0,0,0,.1.2h-.3c-.1,0-.3,0-.3-.1a.3.3,0,0,0,.1-.2.1.1,0,0,0-.1-.1h.6a.1.1,0,0,0-.1.1Z" transform="translate(-564.9 -447.7)" fill="#fff"/><path d="M569.8,449.3h-.3a.3.3,0,0,0,.1-.2h-.1c.1-.2.4-.2.6-.1v.2a.3.3,0,0,0,.1.2Zm-.3-.4a.1.1,0,0,1,.1.1.3.3,0,0,1-.1.2h.6a.3.3,0,0,1,0-.4Z" transform="translate(-564.9 -447.7)" fill="#dc1f34"/><path d="M569.9,449a1,1,0,0,0,.1.3h-.4a1,1,0,0,0,.1-.3.3.3,0,0,0-.1-.2h.4a.3.3,0,0,0-.1.2Z" transform="translate(-564.9 -447.7)" fill="#fff"/><path d="M569.7,449.3h-.1c0-.1.1-.2.1-.3a.3.3,0,0,0-.1-.2h.4a.3.3,0,0,0,0,.4c0,.1-.1.1-.2.1Zm-.1-.5a.3.3,0,0,1,.1.2,1,1,0,0,1-.1.3h.2c.1,0,.2,0,.2-.1h0a.3.3,0,0,1,0-.4h-.4Z" transform="translate(-564.9 -447.7)" fill="#dc1f34"/><path d="M569.4,449a.1.1,0,0,1,.1.1h-.2c0-.1,0-.1.1-.1Z" transform="translate(-564.9 -447.7)" fill="#fff"/><path d="M569.4,449.1h-.1c0-.2.2-.2.2,0Zm0-.1c-.1,0-.1,0-.1.1h.2a.1.1,0,0,0-.1-.1Z" transform="translate(-564.9 -447.7)" fill="#dc1f34"/><path d="M570.2,449a.1.1,0,0,1,.1.1h-.2c0-.1,0-.1.1-.1Z" transform="translate(-564.9 -447.7)" fill="#fff"/><path d="M570.2,449.1h-.1c0-.2.2-.2.2,0Zm0-.1c-.1,0-.1,0-.1.1h.2a.1.1,0,0,0-.1-.1Z" transform="translate(-564.9 -447.7)" fill="#dc1f34"/><path d="M569.8,449a.1.1,0,0,1,.1.1h-.2c0-.1,0-.1.1-.1Z" transform="translate(-564.9 -447.7)" fill="#fff"/><path d="M569.8,449.1h-.1c0-.2.2-.2.2,0Zm0-.1c-.1,0-.1,0-.1.1h.2a.1.1,0,0,0-.1-.1Z" transform="translate(-564.9 -447.7)" fill="#dc1f34"/><path d="M569.8,448.7a.1.1,0,0,1,.1.1h-.2c0-.1,0-.1.1-.1Z" transform="translate(-564.9 -447.7)" fill="#fff"/><path d="M569.8,448.9h-.1c0-.1.2-.1.2,0Zm0-.2c-.1,0-.1,0-.1.1h.2a.1.1,0,0,0-.1-.1Z" transform="translate(-564.9 -447.7)" fill="#dc1f34"/><path d="M569.5,450.3h.1c0,.1,0,.1-.1.1s-.1,0-.1-.1Z" transform="translate(-564.9 -447.7)" fill="#fff"/><path d="M569.5,450.5c-.1,0-.1,0-.1-.1h.2c0,.1,0,.1-.1.1Zm0-.2h-.1c0,.1.2.1.2,0Z" transform="translate(-564.9 -447.7)" fill="#dc1f34"/><path d="M570.1,450.3h.1a.1.1,0,0,1-.1.1c-.1,0-.2,0-.2-.1Z" transform="translate(-564.9 -447.7)" fill="#fff"/><path d="M570.1,450.5c-.1,0-.2,0-.2-.1h.3a.1.1,0,0,1-.1.1Zm0-.2H570c0,.1.1.1.1,0Z" transform="translate(-564.9 -447.7)" fill="#dc1f34"/><polygon points="4.7 2.5 5.1 2.5 4.9 2.8 4.7 2.5" fill="#fff"/><path d="M569.8,450.4l-.3-.2h.5l-.2.2Zm.2-.2h-.5l.3.2.2-.2Z" transform="translate(-564.9 -447.7)" fill="#dc1f34"/><path d="M569.8,450.3h.1a.1.1,0,0,1-.1.1h0Z" transform="translate(-564.9 -447.7)" fill="#fff"/><path d="M569.8,450.5h.1a.1.1,0,0,1-.1.1Zm0-.2h-.2c0,.1.3.1.3,0Z" transform="translate(-564.9 -447.7)" fill="#dc1f34"/><path d="M569.3,451.2h.6a.1.1,0,0,1,.1.1h-.7Z" transform="translate(-564.9 -447.7)" fill="#fff"/><path d="M569.9,451.4h0a.1.1,0,0,1,.1.1h-.1Zm-.6-.1h0Z" transform="translate(-564.9 -447.7)" fill="#dc1f34"/><path d="M570.2,451.1c-.1,0-.1.1-.1.2h0c0,.1,0,.1.1.1s.2,0,.2-.1h0a.2.2,0,0,0-.2-.2Zm0,.1a.1.1,0,0,0-.1.1h.1a.1.1,0,0,0,.1-.1h0c0-.1,0-.1-.1-.1Z" transform="translate(-564.9 -447.7)" fill="#fff"/><path d="M570.2,451.5c-.1,0-.2,0-.2-.1h0a.2.2,0,1,1,.4,0h0c0,.1-.1.1-.2.1Zm0-.4c-.1,0-.1.1-.1.2h0c0,.1,0,.1.1.1s.2,0,.2-.1h0a.2.2,0,0,0-.2-.2Zm0,.4h-.1a.1.1,0,0,1,.1-.1c.1,0,.1,0,.1.1h0a.1.1,0,0,1-.1.1Zm0-.3a.1.1,0,0,0-.1.1h0c0,.1.2.1.2,0h0c0-.1,0-.1-.1-.1Z" transform="translate(-564.9 -447.7)" fill="#dc1f34"/><path d="M569.4,451.1h-.1v.2a.1.1,0,0,0,.1.1h.1v-.2Zm0,0h-.2v.2a.2.2,0,0,0,.2.2c.1,0,.1-.1.1-.2v-.2Z" transform="translate(-564.9 -447.7)" fill="#fff"/><path d="M569.4,451.6a.2.2,0,0,1-.2-.2v-.2h.3v.2c0,.1,0,.2-.1.2Zm0-.5h-.2v.2a.2.2,0,0,0,.2.2c.1,0,.1-.1.1-.2v-.2Zm0,.4c-.1,0-.1,0-.1-.1v-.2h.2v.2a.1.1,0,0,1-.1.1Zm0-.4h-.1v.2c0,.1.2.1.2,0v-.2Z" transform="translate(-564.9 -447.7)" fill="#dc1f34"/><path d="M569.1,451.2a.1.1,0,0,0-.1.1h0v.2c.1,0,.1-.1.1-.2h0c0-.1,0-.1-.1-.1Zm0-.1c-.1,0-.1.1-.1.2h0a.1.1,0,0,0,.1.1h.2a.2.2,0,0,0-.2-.2Z" transform="translate(-564.9 -447.7)" fill="#fff"/><path d="M569.1,451.5c-.1,0-.2,0-.2-.1h0a.2.2,0,0,1,.4,0h0c0,.1-.1.1-.2.1Zm0-.4c-.1,0-.1.1-.1.2h0a.1.1,0,0,0,.1.1h.2a.2.2,0,0,0-.2-.2Zm0,.4v-.2c0-.2.2-.1.2,0s0,.2-.1.2Zm0-.3a.1.1,0,0,0-.1.1c0,.2.2.2.2,0s0-.1-.1-.1Z" transform="translate(-564.9 -447.7)" fill="#dc1f34"/><path d="M568.7,451.1h-.2v.2c0,.1.1.1.2.1s.2,0,.2-.1v-.2Zm0-.1-.3.2v.2c0,.1.2.2.3.2s.3-.1.3-.2v-.2c0-.1-.1-.2-.3-.2Z" transform="translate(-564.9 -447.7)" fill="#fff"/><path d="M568.7,451.6c-.1,0-.3-.1-.3-.2v-.2l.3-.2c.2,0,.3.1.3.2v.2c0,.1-.1.2-.3.2Zm0-.5h-.3v.2c0,.1.2.2.3.2s.3-.1.3-.2v-.2Zm0,.4c-.1,0-.2,0-.2-.1v-.2h.4v.2c0,.1-.1.1-.2.1Zm0-.4h-.1v.2c0,.1,0,.1.1.1s.2,0,.2-.1v-.2Z" transform="translate(-564.9 -447.7)" fill="#dc1f34"/><path d="M570.8,451.1c-.1,0-.1.1-.1.2h0c0,.1,0,.2.1.2a.2.2,0,0,0,.2-.2h0a.2.2,0,0,0-.2-.2Zm0,0h-.3v.3h.6v-.3Z" transform="translate(-564.9 -447.7)" fill="#fff"/><path d="M570.8,451.6c-.1,0-.3,0-.3-.1v-.3h.6v.3c0,.1-.1.1-.3.1Zm0-.5h-.3v.3h.6v-.3Zm0,.5a.2.2,0,0,1-.2-.2h0a.2.2,0,0,1,.4,0h0a.2.2,0,0,1-.2.2Zm0-.5c-.1,0-.1.1-.1.2h0c0,.1,0,.1.1.1s.2,0,.2-.1h0a.2.2,0,0,0-.2-.2Z" transform="translate(-564.9 -447.7)" fill="#dc1f34"/><path d="M570.3,451.2h.3a.1.1,0,0,1,.1.1h-.4Z" transform="translate(-564.9 -447.7)" fill="#fff"/><path d="M570.6,451.4h0Zm-.3-.1h0Z" transform="translate(-564.9 -447.7)" fill="#dc1f34"/><path d="M569.9,451.2h0Z" transform="translate(-564.9 -447.7)" fill="#fff"/><path d="M570.1,451.5h0c.1,0,.1,0,.1.1h0a.1.1,0,0,1-.1.1Zm-.2-.3v.2h0Z" transform="translate(-564.9 -447.7)" fill="#dc1f34"/><path d="M568.9,451.2h0Z" transform="translate(-564.9 -447.7)" fill="#fff"/><path d="M569.1,451.5h-.2a.1.1,0,0,1-.1-.1h0c0-.1,0-.1.1-.1h.2Zm-.2-.3v.2h0Z" transform="translate(-564.9 -447.7)" fill="#dc1f34"/><path d="M568.2,451.2h.4v.2h-.4a.1.1,0,0,1-.1-.1v-.2Z" transform="translate(-564.9 -447.7)" fill="#fff"/><path d="M568.6,451.5h-.4c-.1,0-.1,0-.1-.1v-.2h.5v.2Zm-.4-.3h0v.2h.4v-.2h-.4Z" transform="translate(-564.9 -447.7)" fill="#dc1f34"/><path d="M571,451.2h.4v.2H571v-.2Z" transform="translate(-564.9 -447.7)" fill="#fff"/><path d="M571.4,451.5h-.5v-.2a.1.1,0,0,1,.1-.1h.4v.2Zm-.4-.3h0v.2h.4v-.2H571Z" transform="translate(-564.9 -447.7)" fill="#dc1f34"/></g></g></svg>