<svg xmlns="http://www.w3.org/2000/svg" viewBox="0 0 29.1 19.4"><title>PAN</title><rect width="29.1" height="19.42" fill="#fff"/><path d="M561.5,451l-.7,2.3,1.1.4Z" transform="translate(-554.3 -448.6)" fill="#005293"/><path d="M561.5,451l.8,2.3-1.2.4Z" transform="translate(-554.3 -448.6)" fill="#005293"/><path d="M563.8,452.7h-2.4v1.2Z" transform="translate(-554.3 -448.6)" fill="#005293"/><path d="M563.8,452.7l-1.9,1.4-.7-1Z" transform="translate(-554.3 -448.6)" fill="#005293"/><path d="M563,455.4l-.8-2.3-1.1.4Z" transform="translate(-554.3 -448.6)" fill="#005293"/><path d="M563,455.4l-2-1.4.7-1Z" transform="translate(-554.3 -448.6)" fill="#005293"/><path d="M560.1,455.4l2-1.4-.7-1Z" transform="translate(-554.3 -448.6)" fill="#005293"/><path d="M560.1,455.4l.8-2.3,1.1.4Z" transform="translate(-554.3 -448.6)" fill="#005293"/><path d="M559.2,452.7l2,1.4.7-1Z" transform="translate(-554.3 -448.6)" fill="#005293"/><path d="M559.2,452.7h2.5v1.2Z" transform="translate(-554.3 -448.6)" fill="#005293"/><rect y="9.7" width="14.6" height="9.71" fill="#005293"/><rect x="14.6" width="14.6" height="9.71" fill="#d21034"/><path d="M576.1,460.7l-.8,2.3,1.2.4Z" transform="translate(-554.3 -448.6)" fill="#d21034"/><path d="M576.1,460.7l.7,2.3-1.1.4Z" transform="translate(-554.3 -448.6)" fill="#d21034"/><path d="M578.4,462.4H576v1.2Z" transform="translate(-554.3 -448.6)" fill="#d21034"/><path d="M578.4,462.4l-2,1.4-.7-1Z" transform="translate(-554.3 -448.6)" fill="#d21034"/><path d="M577.5,465.1l-.7-2.3-1.2.4Z" transform="translate(-554.3 -448.6)" fill="#d21034"/><path d="M577.5,465.1l-1.9-1.4.7-1Z" transform="translate(-554.3 -448.6)" fill="#d21034"/><path d="M574.7,465.1l1.9-1.4-.7-1Z" transform="translate(-554.3 -448.6)" fill="#d21034"/><path d="M574.7,465.1l.7-2.3,1.2.4Z" transform="translate(-554.3 -448.6)" fill="#d21034"/><path d="M573.8,462.4l1.9,1.4.8-1Z" transform="translate(-554.3 -448.6)" fill="#d21034"/><path d="M573.8,462.4h2.4v1.2Z" transform="translate(-554.3 -448.6)" fill="#d21034"/></svg>