<svg xmlns="http://www.w3.org/2000/svg" viewBox="0 0 29 19.3"><title>PER</title><path d="M554.2,467.5V448.1h9.6v19.4Z" transform="translate(-554.2 -448.1)" fill="#ce1126"/><path d="M554.2,467.5V448.1h9.6v19.4Z" transform="translate(-554.2 -448.1)" fill="none"/><path d="M573.5,467.5V448.1h9.7v19.4Z" transform="translate(-554.2 -448.1)" fill="#ce1126"/><path d="M573.5,467.5V448.1h9.7v19.4Z" transform="translate(-554.2 -448.1)" fill="none"/><path d="M563.8,467.5V448.1h9.7v19.4Z" transform="translate(-554.2 -448.1)" fill="#fff"/><path d="M563.8,467.5V448.1h9.7v19.4Z" transform="translate(-554.2 -448.1)" fill="none"/><path d="M569.1,455.6h-.2c-.1,0-.1-.1,0-.1h.2c.1.1.1.1,0,.1Z" transform="translate(-554.2 -448.1)" fill="#22772d"/><path d="M569,455.6h-.1a.1.1,0,0,1-.1-.1h.2Zm-.1-.1h-.1a.1.1,0,0,0,.1.1h0Z" transform="translate(-554.2 -448.1)"/><path d="M568,455.4h.3c.1.1,0,.1,0,.1Z" transform="translate(-554.2 -448.1)" fill="#22772d"/><path d="M568.2,455.5h0Zm-.2-.1Z" transform="translate(-554.2 -448.1)"/><path d="M568.7,454.1c-.1,0-.1.1,0,.1S568.8,454.1,568.7,454.1Z" transform="translate(-554.2 -448.1)" fill="#22772d"/><path d="M568.7,454.2Zm0-.1h0Z" transform="translate(-554.2 -448.1)"/><path d="M568.9,454.2h0Z" transform="translate(-554.2 -448.1)" fill="#22772d"/><path d="M568.8,454.3Zm.1-.1h0Z" transform="translate(-554.2 -448.1)"/><path d="M568.6,454.1h0Z" transform="translate(-554.2 -448.1)" fill="#22772d"/><path d="M568.5,454.2Zm.1-.1Z" transform="translate(-554.2 -448.1)"/><path d="M568.7,454.1h-.1c0,.1.1,0,.1,0Z" transform="translate(-554.2 -448.1)" fill="#22772d"/><path d="M568.6,454.3h.1A.1.1,0,0,1,568.6,454.3Zm.1-.2h-.1c0,.1.1,0,.1,0h0Z" transform="translate(-554.2 -448.1)"/><path d="M568.7,454.1s-.1-.1-.1,0h.1Z" transform="translate(-554.2 -448.1)" fill="#22772d"/><path d="M568.7,454.2h-.1c0-.1.1,0,.1,0h0Zm-.1-.1Z" transform="translate(-554.2 -448.1)"/><path d="M568.9,454.1h0Z" transform="translate(-554.2 -448.1)" fill="#22772d"/><path d="M568.8,454.2h0Zm-.1-.1Z" transform="translate(-554.2 -448.1)"/><path d="M568.3,454.2a.2.2,0,0,1,.2-.2c.1,0,.1.1,0,.1Z" transform="translate(-554.2 -448.1)" fill="#22772d"/><path d="M568.3,454.2h0a.2.2,0,0,1,.2-.2h-.2Zm0,0h.2c.1,0,.1,0,.1-.1h-.1a.2.2,0,0,0-.2.2Z" transform="translate(-554.2 -448.1)"/><path d="M568.1,454.3c0-.1.1-.2.1-.3a.1.1,0,0,1,.1.1c0,.1-.1.1-.1.2Z" transform="translate(-554.2 -448.1)" fill="#22772d"/><path d="M568.1,454.3h0c0-.1.1-.2.1-.3h.1c0,.1-.1.1-.1.2Zm0,0h0l.2-.2h-.1c0,.1-.1.2-.1.3Z" transform="translate(-554.2 -448.1)"/><path d="M567.9,454.4a.4.4,0,0,1,.1-.3h.1a.2.2,0,0,1-.2.2Z" transform="translate(-554.2 -448.1)" fill="#22772d"/><path d="M567.9,454.5h0c0-.1.1-.1.1-.2h-.1Zm0-.1h0a.2.2,0,0,0,.2-.2H568c0,.1-.1.1-.1.2Z" transform="translate(-554.2 -448.1)"/><path d="M568.1,454.3h.2c.1,0,.1,0,0,.1h-.2c-.1,0-.1-.1,0-.1Z" transform="translate(-554.2 -448.1)" fill="#22772d"/><path d="M568.2,454.4h0Zm-.1-.1h0Z" transform="translate(-554.2 -448.1)"/><path d="M568.3,454.2h.3c.1,0,0,0,0,.1h-.2c-.1,0-.1,0-.1-.1Z" transform="translate(-554.2 -448.1)" fill="#22772d"/><path d="M568.4,454.3h.2c.1,0,0,0,0,.1h-.2Zm.1-.1h0Z" transform="translate(-554.2 -448.1)"/><path d="M568.2,454.2h.3c.1,0,0,.1,0,.1h-.3c-.1,0-.1,0,0-.1Z" transform="translate(-554.2 -448.1)" fill="#22772d"/><path d="M568.2,454.3Zm0-.1Z" transform="translate(-554.2 -448.1)"/><path d="M567.9,454.5h.3c.1,0,0,.1,0,.1s-.2.1-.3,0Z" transform="translate(-554.2 -448.1)" fill="#22772d"/><path d="M568,454.6h0Zm-.1-.1h0c.1.1.2,0,.3,0h-.3Z" transform="translate(-554.2 -448.1)"/><path d="M567.8,454.5l.3-.3a.1.1,0,0,1,.1.1l-.3.2Z" transform="translate(-554.2 -448.1)" fill="#22772d"/><path d="M567.9,454.5h-.1l.3-.3h.1l-.3.2Zm-.1,0h.3Z" transform="translate(-554.2 -448.1)"/><path d="M567.7,454.7a.4.4,0,0,1,.1-.3h.1a.4.4,0,0,1-.1.3Z" transform="translate(-554.2 -448.1)" fill="#22772d"/><path d="M567.7,454.7h0a.4.4,0,0,1,.1-.3h.1a.4.4,0,0,1-.1.3Zm0,0h.1a.4.4,0,0,0,.1-.3h-.1a.4.4,0,0,0-.1.3Z" transform="translate(-554.2 -448.1)"/><path d="M567.8,454.8a.4.4,0,0,1,.1.3h-.1c0-.1-.1-.2,0-.3Z" transform="translate(-554.2 -448.1)" fill="#22772d"/><path d="M567.8,455.1h0c0-.1-.1-.2,0-.3h0a.4.4,0,0,1,.1.3Zm0-.3h0c-.1.1,0,.2,0,.3h.1a.4.4,0,0,0-.1-.3Z" transform="translate(-554.2 -448.1)"/><path d="M567.7,454.8l.2-.3c.1,0,.1,0,.1.1l-.2.2Z" transform="translate(-554.2 -448.1)" fill="#22772d"/><path d="M567.8,454.8h-.1l.2-.3h.1l-.2.2Zm-.1,0h.1l.2-.2h-.1l-.2.3Z" transform="translate(-554.2 -448.1)"/><path d="M567.7,454.8c0-.1.1-.2.1-.3s.1,0,.1,0a.4.4,0,0,1-.1.3Z" transform="translate(-554.2 -448.1)" fill="#22772d"/><path d="M567.8,454.8h-.1c0-.1.1-.2.1-.3a.1.1,0,0,1,.1-.1h0v.2Zm.1-.4a.1.1,0,0,0-.1.1c0,.1-.1.2-.1.3h.1v-.2h0Z" transform="translate(-554.2 -448.1)"/><path d="M567.7,454.6c0,.1.1.2,0,.3h0c-.1,0-.1-.1-.1-.2Z" transform="translate(-554.2 -448.1)" fill="#22772d"/><path d="M567.7,455h0c-.1,0-.1-.2-.1-.2h.1c0,.1.1.2,0,.3Zm-.1-.4h0s0,.2.1.2h0c.1-.1,0-.2,0-.3Z" transform="translate(-554.2 -448.1)"/><path d="M567.6,454.8c.1.1.2.2.2.3h-.1c-.1,0-.1-.1-.1-.2Z" transform="translate(-554.2 -448.1)" fill="#22772d"/><path d="M567.8,455.2h-.1c-.1,0-.1-.1-.1-.2h0c.1.1.2.2.2.3Zm-.2-.4h0c0,.1,0,.2.1.2h.1c0-.1-.1-.2-.2-.3Z" transform="translate(-554.2 -448.1)"/><path d="M568,455.2v.2c0,.1-.1,0-.1,0s-.1-.1-.1-.2Z" transform="translate(-554.2 -448.1)" fill="#22772d"/><path d="M568.1,455.5a.1.1,0,0,1-.1-.1h0c-.1,0-.1-.1-.1-.2h.2Zm-.2-.4h0c0,.1,0,.2.1.2h0a.1.1,0,0,0,.1.1h-.2Z" transform="translate(-554.2 -448.1)"/><path d="M567.6,455.1h.3c0,.1,0,.1-.1.1h-.2C567.5,455.1,567.6,455.1,567.6,455.1Z" transform="translate(-554.2 -448.1)" fill="#22772d"/><path d="M567.9,455.3h0Zm-.1,0Z" transform="translate(-554.2 -448.1)"/><path d="M568,454.7c0,.1-.1.2-.1.3s-.1,0-.1-.1v-.2Z" transform="translate(-554.2 -448.1)" fill="#22772d"/><path d="M567.8,455h0v-.2h.1a.4.4,0,0,1-.1.3Zm.2-.3h-.1v.2h.1c0-.1.1-.2.1-.3Z" transform="translate(-554.2 -448.1)"/><path d="M567.9,455.3c-.1-.1-.1-.3,0-.3h0c.1,0,.1.1,0,.2Z" transform="translate(-554.2 -448.1)" fill="#22772d"/><path d="M567.9,455.3h0a.2.2,0,0,1,0-.3h0a.1.1,0,0,1,.1.1h-.1Zm0,0h.1a.1.1,0,0,0-.1-.1h0a.2.2,0,0,0,0,.3Z" transform="translate(-554.2 -448.1)"/><path d="M567.8,454.7a.2.2,0,0,1,0,.3c0,.1,0,0-.1,0a.4.4,0,0,1,.1-.3Z" transform="translate(-554.2 -448.1)" fill="#22772d"/><path d="M567.8,455h-.1a.4.4,0,0,1,.1-.3h0a.2.2,0,0,1,0,.3Zm0-.3h0a.4.4,0,0,0-.1.3h.1a.2.2,0,0,0,0-.3Z" transform="translate(-554.2 -448.1)"/><path d="M567.8,455.3a.4.4,0,0,1-.1-.3.1.1,0,0,1,.1-.1c0,.1.1.2.1.3a.1.1,0,0,1-.1.1Z" transform="translate(-554.2 -448.1)" fill="#22772d"/><path d="M567.8,455.3h0c0-.1,0-.1-.1-.2h.1c0,.1.1.2.1.3h-.1Zm0,0h.1c0-.1-.1-.2-.1-.3h-.1c0,.1.1.2.1.3Z" transform="translate(-554.2 -448.1)"/><path d="M567.7,455.3h.4c0,.1,0,0-.1.1h-.3Z" transform="translate(-554.2 -448.1)" fill="#22772d"/><path d="M568,455.5h0Zm-.3-.2Z" transform="translate(-554.2 -448.1)"/><path d="M568.1,455.3l.3.2h-.3Z" transform="translate(-554.2 -448.1)" fill="#22772d"/><path d="M568.4,455.5h-.3l.3.2Zm0,0h0l-.3-.2h.3Z" transform="translate(-554.2 -448.1)"/><path d="M568,455.5h.3c.1.1,0,.1,0,.1s-.2.1-.3,0Z" transform="translate(-554.2 -448.1)" fill="#22772d"/><path d="M568.1,455.6h0Zm.1-.2c-.1,0-.2,0-.2.1h0c.1.1.2,0,.3,0h-.1Z" transform="translate(-554.2 -448.1)"/><path d="M568.1,455.2v.2a.1.1,0,0,1-.1.1c0-.1-.1-.2-.1-.3Z" transform="translate(-554.2 -448.1)" fill="#22772d"/><path d="M568.2,455.5h-.1a.4.4,0,0,1-.1-.3h.1v.2Zm-.2-.4h0a.4.4,0,0,0,.1.3h.1v-.2H568Z" transform="translate(-554.2 -448.1)"/><path d="M568.1,455.6l.3-.2c.1,0,.1.1,0,.1s-.1.1-.2.1Z" transform="translate(-554.2 -448.1)" fill="#22772d"/><path d="M568.2,455.6h-.1l.3-.2h0c.1,0,.1,0,.1.1h-.1c0,.1-.1.1-.2.1Zm-.1,0h.1c.1,0,.2,0,.2-.1h.1c0-.1,0-.1-.1-.1h0l-.3.2Z" transform="translate(-554.2 -448.1)"/><path d="M568.4,455.5h-.3c-.1,0,0-.1,0-.1h.3c.1.1.1.1,0,.1Z" transform="translate(-554.2 -448.1)" fill="#22772d"/><path d="M568.3,455.5h.1a.1.1,0,0,1,.1.1h-.2Zm0-.1h0Z" transform="translate(-554.2 -448.1)"/><path d="M568.9,454.1h.2c.1.1,0,.1,0,.1Z" transform="translate(-554.2 -448.1)" fill="#22772d"/><path d="M569,454.2h0Zm-.1-.1h0Z" transform="translate(-554.2 -448.1)"/><path d="M569.2,454.1a.3.3,0,0,1,.1.2h-.2c-.1-.2,0-.1.1-.1Z" transform="translate(-554.2 -448.1)" fill="#22772d"/><path d="M569.3,454.3h-.1a.3.3,0,0,1,.1.2Zm-.2-.2h.2a.3.3,0,0,0-.1-.2h-.1Z" transform="translate(-554.2 -448.1)"/><path d="M569.1,454.3h0Z" transform="translate(-554.2 -448.1)" fill="#22772d"/><path d="M569.2,454.4Zm-.1-.1Z" transform="translate(-554.2 -448.1)"/><path d="M568.9,454.2h.2c.1,0,0,0,0,.1h-.2c-.1,0-.1,0,0-.1Z" transform="translate(-554.2 -448.1)" fill="#22772d"/><path d="M569,454.3h0Zm-.1-.1a.1.1,0,0,1-.1.1h.1Z" transform="translate(-554.2 -448.1)"/><path d="M568.9,454.2h0Z" transform="translate(-554.2 -448.1)" fill="#22772d"/><path d="M569.1,454.3h0Zm-.2-.1Z" transform="translate(-554.2 -448.1)"/><path d="M569.4,454.1c0,.1.1.1.1.2s0,.1,0,0h-.2c-.1-.1,0-.1.1-.1Z" transform="translate(-554.2 -448.1)" fill="#22772d"/><path d="M569.5,454.4h-.1c0,.1.1.1.1.2s.1.1,0,.1Zm-.2-.3h.2c.1,0,.1-.1,0-.1s-.1-.1-.1-.2h-.1Z" transform="translate(-554.2 -448.1)"/><path d="M569.3,454.2h-.1c-.1-.1,0-.1.1-.1Z" transform="translate(-554.2 -448.1)" fill="#22772d"/><path d="M569.5,454.4h0Zm-.3-.2Z" transform="translate(-554.2 -448.1)"/><path d="M569.5,454.4l.2.2h-.3c0-.1,0-.1.1-.1Z" transform="translate(-554.2 -448.1)" fill="#22772d"/><path d="M569.7,454.7h-.2l.2.2Zm-.3-.3h.3l-.2-.2h-.1Z" transform="translate(-554.2 -448.1)"/><path d="M569.3,454.3h.2c0,.1-.1.1-.2,0s-.1,0,0-.1Z" transform="translate(-554.2 -448.1)" fill="#22772d"/><path d="M569.4,454.5h.1C569.5,454.5,569.5,454.5,569.4,454.5Zm-.1-.2h0c.1.1.2.1.2,0h-.2Z" transform="translate(-554.2 -448.1)"/><path d="M569.6,454.3c.1,0,.1.1.1.2s0,.1-.1,0v-.2c0-.1.1-.1.1,0Z" transform="translate(-554.2 -448.1)" fill="#22772d"/><path d="M569.7,454.6a.1.1,0,0,0-.1-.1v-.2h0c.1,0,.1,0,.1.1h0c.1,0,.1.1.1.2Zm-.1-.4h0c-.1,0-.1,0-.1.1v.2a.1.1,0,0,1,.1.1h0c0-.1,0-.2-.1-.2h0Z" transform="translate(-554.2 -448.1)"/><path d="M569.6,454.4a.3.3,0,0,1,.1.2h0a.2.2,0,0,1-.2-.2Z" transform="translate(-554.2 -448.1)" fill="#22772d"/><path d="M569.7,454.6h0c-.1-.1-.2-.1-.2-.2h.1a.3.3,0,0,1,.1.2Zm-.2-.3h0c0,.1.1.1.2.2h0a.3.3,0,0,0-.1-.2h-.1Z" transform="translate(-554.2 -448.1)"/><path d="M569.7,454.7v.2c0,.1,0,.1-.1,0v-.2Z" transform="translate(-554.2 -448.1)" fill="#22772d"/><path d="M569.7,455h-.1v-.2h.1v.2Zm-.1-.4h0v.2h.1v-.2h-.1Z" transform="translate(-554.2 -448.1)"/><path d="M569.8,454.5a.1.1,0,0,1,0,.2c0,.1,0,.1-.1,0v-.2c0-.2.1-.1.1,0Z" transform="translate(-554.2 -448.1)" fill="#22772d"/><path d="M569.8,454.8a.1.1,0,0,0-.1-.1v-.2h0c.1,0,.1,0,.1.1h0v.2Zm-.1-.4h0v.2a.1.1,0,0,1,.1.1h0a.1.1,0,0,0,0-.2h0C569.8,454.4,569.8,454.4,569.7,454.4Z" transform="translate(-554.2 -448.1)"/><path d="M569.9,454.7a.4.4,0,0,1-.1.3.1.1,0,0,1-.1-.1.3.3,0,0,0,.1-.2Z" transform="translate(-554.2 -448.1)" fill="#22772d"/><path d="M569.8,455h0c-.1,0-.1,0-.1-.1a.3.3,0,0,0,.1-.2h.1a.4.4,0,0,1-.1.3Zm.1-.4h-.1a.3.3,0,0,1-.1.2c0,.1,0,.1.1.1h0a.4.4,0,0,0,.1-.3h0Z" transform="translate(-554.2 -448.1)"/><path d="M569.8,454.7v.3h-.1v-.3c0-.2,0-.1.1,0Z" transform="translate(-554.2 -448.1)" fill="#22772d"/><path d="M569.8,455h-.1v-.3h.1v.3Zm-.1-.4h0v.3h.1v-.3h-.1Z" transform="translate(-554.2 -448.1)"/><path d="M569.9,455c0,.1,0,.1-.1.2s-.1,0-.1,0,.1-.2.1-.3.1,0,.1.1Z" transform="translate(-554.2 -448.1)" fill="#22772d"/><path d="M569.7,455.2h0c0-.1.1-.2.1-.3h.1c0,.1-.1.1-.1.2Zm.2-.3h-.1c0,.1-.1.2-.1.3h.1c0-.1.1-.1.1-.2h0Z" transform="translate(-554.2 -448.1)"/><path d="M569.7,455v.2c-.1.1-.1.1-.1,0V455c0-.2,0-.1.1,0Z" transform="translate(-554.2 -448.1)" fill="#22772d"/><path d="M569.6,455.3h0V455h.1v.2a.1.1,0,0,1-.1.1Zm0-.4h0v.2h0a.1.1,0,0,0,.1-.1V455h-.1Z" transform="translate(-554.2 -448.1)"/><path d="M569.8,455c0,.1,0,.1-.1.2s-.1.1-.1,0V455c.1-.2.1-.1.1,0Z" transform="translate(-554.2 -448.1)" fill="#22772d"/><path d="M569.7,455.3h0a.1.1,0,0,1-.1-.1V455c0-.1,0-.1.1-.1h0c0,.1,0,.2-.1.2Zm.1-.4c-.1,0-.1,0-.1.1v.2h.1c.1,0,.1-.1.1-.2h0Z" transform="translate(-554.2 -448.1)"/><path d="M569.9,455.2h-.2c-.1,0-.1,0,0-.1h.1c.1-.1.1,0,.1.1Z" transform="translate(-554.2 -448.1)" fill="#22772d"/><path d="M569.7,455.3h0Zm.2-.2h0Z" transform="translate(-554.2 -448.1)"/><path d="M569.7,455.4c-.1.1-.1.1-.2,0h.2Z" transform="translate(-554.2 -448.1)" fill="#22772d"/><path d="M569.6,455.5h0Zm0-.2h-.1c.1.1.1.1.2,0h-.1Z" transform="translate(-554.2 -448.1)"/><path d="M569.7,455.4h-.2a.1.1,0,0,1-.1-.1h.3c.1-.1.1,0,0,.1Z" transform="translate(-554.2 -448.1)" fill="#22772d"/><path d="M569.4,455.5h0Zm.3-.2Z" transform="translate(-554.2 -448.1)"/><path d="M569.6,455.3h-.3l.2-.2c.1-.1.1,0,.1.1Z" transform="translate(-554.2 -448.1)" fill="#22772d"/><path d="M569.3,455.4h.3v.2h-.3Zm.3-.3h-.1l-.2.2h.3v-.2Z" transform="translate(-554.2 -448.1)"/><path d="M569.6,455.3h-.2c-.1.1-.1,0,0,0l.2-.2c.1,0,.1,0,0,.1Z" transform="translate(-554.2 -448.1)" fill="#22772d"/><path d="M569.4,455.4h0l.2-.2h.1a.1.1,0,0,1-.1.1h-.2Zm.3-.2h-.1l-.2.2h.2a.1.1,0,0,0,.1-.1Z" transform="translate(-554.2 -448.1)"/><path d="M569.3,455.4c0,.1-.1.1-.2.1s-.1,0,0-.1h.2c.2,0,.1.1,0,.1Z" transform="translate(-554.2 -448.1)" fill="#22772d"/><path d="M569.1,455.5h.2c0,.1-.1.1-.2.1Zm.3-.2h-.3c.1,0,.2,0,.2-.1h.1Z" transform="translate(-554.2 -448.1)"/><path d="M569.5,455.5a.2.2,0,0,1-.3,0c-.1,0,0,0,0-.1h.3c.2.1.1.1,0,.1Z" transform="translate(-554.2 -448.1)" fill="#22772d"/><path d="M569.4,455.6h.1a.1.1,0,0,1,.1.1h-.2Zm0-.2h-.2a.2.2,0,0,0,.3,0h.1a.1.1,0,0,0-.1-.1Z" transform="translate(-554.2 -448.1)"/><path d="M569.4,455.6h-.3c-.1-.1,0-.1,0-.1h.3c.2,0,.1.1,0,.1Z" transform="translate(-554.2 -448.1)" fill="#22772d"/><path d="M569.3,455.6h.2c0,.1,0,.1-.1.1h-.1Zm0-.1h.1a.1.1,0,0,0,.1-.1h-.2Z" transform="translate(-554.2 -448.1)"/><path d="M569.2,455.5c0,.1-.1.1-.3.1s0-.1,0-.1h.3C569.4,455.4,569.3,455.5,569.2,455.5Z" transform="translate(-554.2 -448.1)" fill="#22772d"/><path d="M569,455.6h.3c0,.1,0,.1-.1.1h0C569.2,455.6,569.1,455.6,569,455.6Zm.2-.2h0c.1,0,.1,0,.1-.1Z" transform="translate(-554.2 -448.1)"/><path d="M569.7,461.4h-.1c.1-.2.1-.4,0-.3s0-.1.1-.1.1.2,0,.5Z" transform="translate(-554.2 -448.1)" fill="#ce1126"/><path d="M569.7,461.4h-.1v-.2h0c0-.1-.1-.1-.1,0h0c0-.1,0-.1.1-.1h0s.1,0,0,.1v.3Zm-.1-.1h.1v-.2c.1-.1,0-.1,0-.1h-.1a.1.1,0,0,1,.1.1A.8.8,0,0,1,569.6,461.3Z" transform="translate(-554.2 -448.1)"/><path d="M569.7,461.4h.1c0-.2.1-.4,0-.4s0-.1-.1-.1a.4.4,0,0,1,0,.5Z" transform="translate(-554.2 -448.1)" fill="#ce1126"/><path d="M569.8,461.4h-.1a1,1,0,0,0,.1-.4c0-.1,0-.1-.1-.1h0c.1,0,.1,0,.1.1h0c.1,0,.1.1,0,.4Zm-.1,0h.1c.1-.3.1-.4,0-.4s0-.1-.1-.1.1,0,.1.1A1,1,0,0,1,569.7,461.4Z" transform="translate(-554.2 -448.1)"/><path d="M569.7,461.4h0c.1-.3.1-.5,0-.5h0a.4.4,0,0,1,0,.5Z" transform="translate(-554.2 -448.1)" fill="#fff"/><path d="M569.7,461.4h0v-.3c.1-.1,0-.1,0-.1h0c.1,0,.1,0,.1.1a1,1,0,0,1-.1.4Zm0,0h0a1,1,0,0,0,.1-.4c0-.1,0-.1-.1-.1h0s.1,0,0,.1Z" transform="translate(-554.2 -448.1)"/><path d="M567.8,461.4h.1c-.2-.3,0-.4.1-.4h-.1c-.1,0-.2.2-.1.4Z" transform="translate(-554.2 -448.1)" fill="#ce1126"/><path d="M567.8,461.4h0c-.1-.2,0-.3,0-.3a.1.1,0,0,1,.1-.1h.1c-.1,0-.1,0-.1.1h-.1a.3.3,0,0,0,.1.2h-.1Zm.1-.4a.1.1,0,0,0-.1.1s-.1.1,0,.3h.1a.3.3,0,0,1-.1-.2h.1c0-.1,0-.1.1-.1Z" transform="translate(-554.2 -448.1)"/><path d="M567.8,461c-.1,0-.1.2,0,.4h0c-.1-.2,0-.4.1-.4Z" transform="translate(-554.2 -448.1)" fill="#fff"/><path d="M567.8,461.4h0a.4.4,0,0,1-.1-.3h.2a.1.1,0,0,0-.1.1s-.1.1,0,.3Zm0-.4h-.1a.4.4,0,0,0,.1.3h0c-.1-.2,0-.3,0-.3a.1.1,0,0,1,.1-.1Z" transform="translate(-554.2 -448.1)"/><path d="M567.8,461.4h0c-.2-.2-.1-.3,0-.4h0c-.1,0-.1.2,0,.4Z" transform="translate(-554.2 -448.1)" fill="#ce1126"/><path d="M567.8,461.4h0c-.1-.1-.1-.1-.1-.2s0-.2.1-.2h-.1a.4.4,0,0,0,.1.3Zm0-.4c-.1,0-.1.1-.1.2s0,.1.1.2h0a.4.4,0,0,1-.1-.3Z" transform="translate(-554.2 -448.1)"/><path d="M568.8,460.4c.2-.4.8-.5,1.2-.5a.9.9,0,0,0,.9-.8c0-.6-.4-1-.4-1.3a1.7,1.7,0,0,1,.6-1.1,1.7,1.7,0,0,1-.6-1,1.5,1.5,0,0,1-1.7,0,1.5,1.5,0,0,1-1.7,0c-.2.4-.3.8-.6,1a1.5,1.5,0,0,1,.5,1.1,8.6,8.6,0,0,0-.3,1.3.8.8,0,0,0,.8.8c.4,0,1.1.1,1.3.5Z" transform="translate(-554.2 -448.1)" fill="#fff200"/><path d="M568.8,460.4h0c-.1-.2-.4-.3-.6-.4h-1l-.3-.2c-.2-.1-.2-.3-.2-.5a1.9,1.9,0,0,1,.2-.8,1.1,1.1,0,0,0,.1-.5.7.7,0,0,0-.1-.5l-.4-.6h0l.3-.4.3-.6h0a1.7,1.7,0,0,0,1.7,0h0a1.7,1.7,0,0,0,1.7,0h0c.1.2.1.4.2.6s.3.3.4.4h0a2.1,2.1,0,0,0-.4.6.8.8,0,0,0-.2.5l.2.5a1.9,1.9,0,0,1,.2.8.8.8,0,0,1-.2.5l-.3.2h-1.1c-.1.1-.4.2-.5.4Zm-2.3-3.7.4.6a.7.7,0,0,1,.1.5,1.1,1.1,0,0,1-.1.5,1.9,1.9,0,0,0-.2.8c0,.2,0,.4.2.5l.3.2h1c.2.1.5.2.6.4s.4-.3.5-.4h1.1l.3-.2a.8.8,0,0,0,.2-.5,1.9,1.9,0,0,0-.2-.8l-.2-.5a.8.8,0,0,1,.2-.5,2.1,2.1,0,0,1,.4-.6c-.1-.1-.3-.2-.4-.4s-.1-.4-.2-.6a1.7,1.7,0,0,1-1.7,0,1.7,1.7,0,0,1-1.7,0l-.3.6Z" transform="translate(-554.2 -448.1)"/><path d="M570.4,457.8c0,.2.1.3.1.5a1.9,1.9,0,0,1,.3.8.5.5,0,0,1-.2.4l-.6.2-.7.2a.6.6,0,0,1-1,0l-.8-.2-.5-.2a.5.5,0,0,1-.2-.4,1.9,1.9,0,0,1,.2-.8c.1-.2.2-.3.2-.5Z" transform="translate(-554.2 -448.1)" fill="#ce1126"/><path d="M568.8,460.2h0a.9.9,0,0,0-.5-.3l-.8-.2h0l-.5-.2a.5.5,0,0,1-.2-.4,1.9,1.9,0,0,1,.2-.8c.1-.2.2-.3.2-.5h3.2c0,.2.1.3.1.5a1.9,1.9,0,0,1,.3.8.5.5,0,0,1-.2.4l-.6.2h0l-.7.2a.9.9,0,0,0-.5.3Zm-1.3-.5.8.2a.6.6,0,0,0,1,0l.7-.2h0l.6-.2a.5.5,0,0,0,.2-.4,1.9,1.9,0,0,0-.3-.8c0-.2-.1-.3-.1-.5h-3.2c0,.2-.1.3-.2.5a1.9,1.9,0,0,0-.2.8.5.5,0,0,0,.2.4l.5.2Z" transform="translate(-554.2 -448.1)"/><path d="M567.2,457.6c0-.1-.1-.2-.2-.4l-.3-.5a2.2,2.2,0,0,0,.5-.8l.9.2.6-.2v1.7Z" transform="translate(-554.2 -448.1)" fill="#99bfe5"/><path d="M568.7,457.6h-1.5c0-.1-.1-.2-.2-.4l-.3-.5h0l.3-.4c.1-.1.1-.3.2-.4h0l.9.2.6-.2h0Zm-1.5,0h1.5v-1.7l-.6.2-.9-.2c-.1.1-.1.3-.2.4l-.3.4.3.5C567.1,457.4,567.2,457.5,567.2,457.6Z" transform="translate(-554.2 -448.1)"/><path d="M570.4,457.6c0-.1.1-.2.1-.4l.4-.5a1.4,1.4,0,0,1-.5-.8l-.9.2-.6-.2v1.7Z" transform="translate(-554.2 -448.1)" fill="#fff"/><path d="M570.4,457.6h-1.5v-1.7h0l.6.2.9-.2h0a.8.8,0,0,0,.2.4l.3.4h0l-.4.5c0,.2-.1.3-.1.4Zm-1.5,0h1.5c0-.1.1-.2.1-.4l.4-.5-.3-.4a.8.8,0,0,1-.2-.4l-.9.2-.6-.2Z" transform="translate(-554.2 -448.1)"/><path d="M569.8,460.7l.6-.2a.1.1,0,0,1,.1-.1h.1c.1.1.1.1,0,.1h-.3l-.6.2Z" transform="translate(-554.2 -448.1)" fill="#22772d"/><path d="M569.8,460.8h0l.6-.2h0a.1.1,0,0,1,.1-.1h.1s.1.1,0,.1h-.3Zm-.1,0h.1l.5-.2h.2a.1.1,0,0,0-.1.1h0l-.6.2Z" transform="translate(-554.2 -448.1)"/><path d="M570,460.7Zm.5-.1h0Z" transform="translate(-554.2 -448.1)"/><path d="M569.1,460.8h.7l-.7.2Z" transform="translate(-554.2 -448.1)" fill="#fff"/><path d="M569.2,460.8h.6l-.3.2Zm-.1,0h0Z" transform="translate(-554.2 -448.1)"/><path d="M570.2,461.3l-1.3-.6v.2h0l1.3.5c.1.1.2-.1,0-.1Z" transform="translate(-554.2 -448.1)" fill="#22772d"/><path d="M570.3,461.4h-.1l-1-.4h-.3v-.2h0l.7.3.6.3h.1Zm-1.4-.5h.3l1,.4h0l-.6-.3-.7-.3v.2Z" transform="translate(-554.2 -448.1)"/><path d="M568.6,460.8l-1.4.6c-.2.1-.1.2,0,.2l1.4-.7h0Z" transform="translate(-554.2 -448.1)" fill="#22772d"/><path d="M567.1,461.6h.1l1.4-.6h0l-1.4.7Zm.1-.2h0Zm0,0h0l1.4-.7h0l-1.4.6Zm3,0Z" transform="translate(-554.2 -448.1)"/><path d="M568.7,460.9c-.1.3-.4.4-.6.2s-.3-.2-.3-.1h0c.1-.1.2.1.2.1s.5.3.7-.2Z" transform="translate(-554.2 -448.1)" fill="#ce1126"/><path d="M568.3,461.3l-.3-.2h0c0-.1-.1-.2-.2-.1h0c0-.1,0-.1.1-.1s.1.1.2.2h.2c.2,0,.3-.1.4-.3h0l-.3.4Zm-.5-.3c.1,0,.2,0,.2.1h0l.4.2.3-.4h0c-.1.2-.2.3-.4.3h-.2c-.1-.1-.2-.1-.2-.2s-.1,0-.1.1Z" transform="translate(-554.2 -448.1)"/><path d="M565.8,456.9a8.8,8.8,0,0,0,.5-1l-.2.3.4-.9-.5.7a8.9,8.9,0,0,1,.5-1l-.3.3.2-.3-.5.8a2.3,2.3,0,0,0,.1-.7,4.5,4.5,0,0,0-.2.8v-.6c0,.3-.1.8-.1,1s-.1-.4-.1-.6v.5c0-.1-.1-.2,0-.3a1.8,1.8,0,0,0-.1.6c-.1-.2-.1-.4-.2-.5s0,.8.2,1.6a3.7,3.7,0,0,1-.5-1.1,3,3,0,0,0,.5,1.6,6.4,6.4,0,0,1-.6-1.1l.6,1.5-.7-.9.6,1.1-.4-.5a5.6,5.6,0,0,0,.9,1.3l-1.1-1,.9,1.1-.6-.5,1.1,1-1-.7,1.3,1.1-.9-.4a2.7,2.7,0,0,0,1,.6h-.5a4.6,4.6,0,0,0,2,.3l-.2-.2c-.5.2-1,.2-1.3-1a4.3,4.3,0,0,1-.1.5c0-.3-.1-.8-.1-1s-.1.5-.1.7v-1.1a3.7,3.7,0,0,0-.2.9,8.6,8.6,0,0,1,.1-1.6c-.1.5-.2.8-.3,1.2a3.9,3.9,0,0,1,.2-1.6c-.1.4-.3,1-.3,1.1a5.4,5.4,0,0,1,.4-1.5,1.6,1.6,0,0,0-.4.7,2.8,2.8,0,0,1,.4-1.1c-.3.3-.4.5-.4.6v-.2c0,.1-.1.2-.1.3s.4-.9.5-1.2l-.4.5Z" transform="translate(-554.2 -448.1)" fill="#22772d"/><path d="M567.6,460.9h-.5l-1-.3h.5l-.5-.2-.5-.4h0l.7.3c.1,0,.2,0,.2.1a5.3,5.3,0,0,1-1.3-1.1h0a1.8,1.8,0,0,0,.8.6h.1a8.8,8.8,0,0,0-1-1h0l.6.5h0l-.9-1.1h0q.2,0,.3.3l.8.7-.4-.5-.5-.8h0l.4.5-.6-1.1h0l.7.9-.6-1.5h0a6.4,6.4,0,0,0,.6,1.1,2.4,2.4,0,0,1-.3-.7,2.9,2.9,0,0,1-.2-.9h0a3.7,3.7,0,0,0,.5,1.1,5.7,5.7,0,0,1-.1-1.2.6.6,0,0,0-.1-.4h0c.1.1.1.3.2.5h0a1.1,1.1,0,0,1,.1-.5h0c-.1,0,0,.1,0,.2h0v-.4h0v.3a.3.3,0,0,0,.1.2c0-.2.1-.7.1-.9h0v.6a3.1,3.1,0,0,1,.2-.8h0a2.3,2.3,0,0,1-.1.7l.5-.8h0l-.2.3h0l.3-.3h0l-.2.4-.3.6.3-.5.2-.2h0l-.4.9.2-.3h0a8.8,8.8,0,0,1-.5,1l.4-.5h0a4.8,4.8,0,0,0-.5,1.2c0-.1.1-.2.1-.3h0l.4-.6h0c-.1.1-.1.2-.2.5a1.1,1.1,0,0,0-.2.5,2.1,2.1,0,0,1,.4-.6h0a2.4,2.4,0,0,0-.3.7,2.5,2.5,0,0,0-.1.8.6.6,0,0,1,.1-.4,6.4,6.4,0,0,1,.2-.7h0a5.7,5.7,0,0,0-.2,1.6c.1-.4.2-.7.3-1.2h0v.2c0,.2-.1.5-.1.7v.7a2.9,2.9,0,0,1,.2-.9h0v1.1c0-.2.1-.5.1-.7h0c0,.2.1.7.1,1s.1-.4.1-.5h0c.1.3.1.6.3.7a.3.3,0,0,0,.3.3h.7l.2.2h-.5Zm-1.5-.3,1,.3h1l-.2-.2h-.7a.3.3,0,0,1-.3-.3c-.2-.1-.2-.4-.3-.6v.4h0c0-.3-.1-.8-.1-1s-.1.5-.1.7h0v-1.1a3.7,3.7,0,0,0-.2.9h0V459c0-.2.1-.5.1-.7v-.2c-.1.5-.2.8-.3,1.2h0a6.3,6.3,0,0,1,.2-1.6,6.4,6.4,0,0,0-.2.7.8.8,0,0,0-.1.4h0a2.5,2.5,0,0,1,.1-.8,2.4,2.4,0,0,1,.3-.7,1.6,1.6,0,0,0-.4.7h0a1.1,1.1,0,0,1,.2-.6.8.8,0,0,1,.2-.5,1.5,1.5,0,0,0-.4.6h0c0,.1-.1.2-.1.3h0a4.8,4.8,0,0,1,.5-1.2l-.4.5h0a8.8,8.8,0,0,0,.5-1h0l-.2.3h0l.4-.9-.2.2-.3.5h0l.3-.6.2-.4-.3.3h0v-.2c-.2.2-.3.6-.4.7h0a2.3,2.3,0,0,0,.1-.7,4.5,4.5,0,0,0-.2.8h0v-.6c0,.3-.1.8-.1,1h0c0-.1-.1-.2-.1-.3v.1h0v-.2a1.1,1.1,0,0,0-.1.5h0c-.1-.2-.1-.4-.2-.5a.6.6,0,0,1,.1.4,5.7,5.7,0,0,0,.1,1.2h0a4.7,4.7,0,0,1-.5-1,3.1,3.1,0,0,0,.2.8,2.4,2.4,0,0,0,.3.7h0a6.4,6.4,0,0,1-.6-1.1l.6,1.5h0l-.7-.8.6,1h0l-.4-.4.5.7.4.5h0l-.8-.7q-.1-.3-.3-.3l.9,1.1h0c-.2-.2-.4-.3-.5-.5a4.5,4.5,0,0,0,1,1H566l-.8-.5a5.3,5.3,0,0,0,1.4,1h-.1c0-.1-.1-.1-.2-.1l-.7-.2,1,.5h-.5Z" transform="translate(-554.2 -448.1)"/><path d="M568.1,461.1c.2.2.4.1.5-.2h0c-.1.2-.3.3-.4.1h-.3s.1,0,.2.2Z" transform="translate(-554.2 -448.1)" fill="#ce1126"/><path d="M568.3,461.2h-.2l-.2-.2h.3a.1.1,0,0,0,.1.1h0l.3-.2h0a.3.3,0,0,1-.3.3Zm-.2-.1h.2a.3.3,0,0,0,.3-.3h0l-.3.2a.1.1,0,0,1-.1-.1h-.3C568,460.9,568,461,568.1,461.1Z" transform="translate(-554.2 -448.1)"/><path d="M568.1,461.1c.2.2.5.1.6-.2h-.1c-.1.3-.3.4-.5.2s-.2-.2-.3-.2h0c0-.1.2,0,.3.1Z" transform="translate(-554.2 -448.1)" fill="#fff"/><path d="M568.3,461.2h-.2l-.3-.2h0c.1,0,.2,0,.3.2h.2a.3.3,0,0,0,.3-.3h.1c-.1.2-.2.3-.4.3Zm-.2-.1h.2c.2,0,.3-.1.4-.3h-.1a.3.3,0,0,1-.3.3h-.2c-.1-.2-.2-.2-.3-.2h.1c0,.1.1.1.2.2Z" transform="translate(-554.2 -448.1)"/><path d="M569.3,461c.2-.1.3-.2.4-.1s-.2,0-.4.1-.3.1-.5-.1h0c.2.3.3.3.5.1Z" transform="translate(-554.2 -448.1)" fill="#ce1126"/><path d="M569.1,461.1H569c-.1,0-.1,0-.2-.2h.1a.3.3,0,0,0,.1.2h.1Zm-.3-.2c.1.2.2.2.2.2h0l-.2-.2Z" transform="translate(-554.2 -448.1)"/><path d="M569.8,460.9l-.5.2c-.2.1-.4.2-.5-.2h0c.1.4.4.4.6.2s.3-.2.4-.1Z" transform="translate(-554.2 -448.1)" fill="#ce1126"/><path d="M569.1,461.2H569c-.1,0-.2-.1-.2-.3h0c0,.2.1.3.2.3h.3l.3-.2h.2c-.1-.1-.2-.1-.2,0h-.5Zm-.3-.3c0,.2.1.3.2.3h.6c0-.1.1-.1.2,0h-.2l-.3.2h-.4a.3.3,0,0,1-.1-.2Z" transform="translate(-554.2 -448.1)"/><path d="M569.3,461c-.2.2-.4.2-.5-.1h0c.1.4.3.3.5.2l.5-.2h-.1c-.1-.1-.2,0-.4.1Z" transform="translate(-554.2 -448.1)" fill="#fff"/><path d="M569.1,461.2h-.2a.3.3,0,0,1-.1-.2h0c.1.2.2.2.2.2s.2,0,.3-.1h.3l-.3.2h-.2Zm-.3-.3c0,.2.1.3.2.3h.3l.3-.2H569c-.1,0-.1,0-.2-.2Z" transform="translate(-554.2 -448.1)"/><path d="M569.9,460.7h-.1l-.7.2h.3c.2-.1.5-.1.5-.2Z" transform="translate(-554.2 -448.1)" fill="#ce1126"/><path d="M569.4,460.9h.5c0,.1-.1.1-.2.1h-.3Zm-.4-.1h.7c.1,0,.2,0,.2-.1h-.1l-.3.2H569Z" transform="translate(-554.2 -448.1)"/><path d="M568.9,460.8h.9c-.2-.1-.7.1-.9.2Z" transform="translate(-554.2 -448.1)" fill="#ce1126"/><path d="M568.9,460.8h0l.5-.2c.2-.1.3-.1.4,0h-.9Zm0,0h.9c-.1-.1-.2-.1-.4,0l-.5.2Z" transform="translate(-554.2 -448.1)"/><path d="M569.8,460.5a.1.1,0,0,1,.1-.1h-.1l-.6.2h-.3c.2-.1.7-.4.9-.2Z" transform="translate(-554.2 -448.1)" fill="#ce1126"/><path d="M568.9,460.7h.3l.6-.2h.1c-.1,0-.1,0-.1.1h0c-.1-.1-.4,0-.6.1Zm0-.1h.3c.2-.1.5-.2.6-.1h0c0-.1,0-.1.1-.1h-.2l-.5.2Z" transform="translate(-554.2 -448.1)"/><path d="M568.9,460.7h0c.2-.1.7-.3.9-.2h0c-.2-.2-.7.1-.9.2Z" transform="translate(-554.2 -448.1)" fill="#fff"/><path d="M568.9,460.8h.3c.2-.1.5-.2.6-.1h0c-.1-.1-.2-.1-.4,0l-.5.2Zm0-.1h0l.5-.2c.2-.1.3-.1.4,0h0c-.1-.1-.4,0-.6.1Z" transform="translate(-554.2 -448.1)"/><path d="M568.5,460.7c-.2.2-.9.1-.8,0h0c0,.2.6.1.9,0h0a.1.1,0,0,0-.1-.1Z" transform="translate(-554.2 -448.1)" fill="#ce1126"/><path d="M568,460.9h.5a.1.1,0,0,1,.1.1H568Zm-.3-.2h.9a.1.1,0,0,0-.1-.1h-.8Z" transform="translate(-554.2 -448.1)"/><path d="M567.7,460.7c-.1.1.6.2.8,0Z" transform="translate(-554.2 -448.1)" fill="#fff"/><path d="M568.1,460.8Zm-.3-.1h0Z" transform="translate(-554.2 -448.1)"/><path d="M568,460.4l.6.2h0a.9.9,0,0,0-.9-.3c-.1.1-.1.1,0,.2Z" transform="translate(-554.2 -448.1)" fill="#ce1126"/><path d="M568.6,460.6h0l-.6-.2h.1a.5.5,0,0,1,.5.3Zm-.6-.2.6.2h0a.5.5,0,0,0-.5-.3H568Z" transform="translate(-554.2 -448.1)"/><path d="M568.6,460.7h0c-.3-.2-.7-.3-.9-.1h0a1,1,0,0,1,.9.1Z" transform="translate(-554.2 -448.1)" fill="#fff"/><path d="M568.6,460.7h0l-.5-.2h0l.5.2h0Zm-.6-.2h.1l.5.2h0l-.5-.2H568Z" transform="translate(-554.2 -448.1)"/><path d="M568.2,460.6h0l.4.2h0a1,1,0,0,0-.9-.1v.2c0-.2.2-.2.5-.2Z" transform="translate(-554.2 -448.1)" fill="#ce1126"/><path d="M568.6,460.8h0l-.4-.2h-.5v-.2h.4l.5.2h0Zm-.4-.2h0l.4.2h0l-.5-.2h.1Z" transform="translate(-554.2 -448.1)"/><path d="M568.8,460.9h.1v-.3h-.1v.3Z" transform="translate(-554.2 -448.1)" fill="#ce1126"/><path d="M568.8,460.9h0v-.2h.1v.2h-.1Zm0-.3v.3h.1v-.2h-.1Z" transform="translate(-554.2 -448.1)"/><path d="M568.8,460.9h0v-.3h0c-.1.1-.1.3,0,.3Z" transform="translate(-554.2 -448.1)" fill="#fff"/><path d="M568.8,461h-.1c0-.1,0-.1.1-.2h0v.2h0Zm0-.1h0v-.2h0c-.1.1-.1.1-.1.2Z" transform="translate(-554.2 -448.1)"/><path d="M568.8,460.9h0a.2.2,0,0,0,0,.3Z" transform="translate(-554.2 -448.1)" fill="#ce1126"/><path d="M568.8,460.9h0c-.1.1-.1.1-.1.2Zm-.1,0h0c0-.1,0-.1.1-.2h-.1Z" transform="translate(-554.2 -448.1)"/><path d="M571.5,460.5a1.1,1.1,0,0,1-.8-.1.1.1,0,0,1-.1.1h.4a.8.8,0,0,0,.7,0Z" transform="translate(-554.2 -448.1)" fill="#22772d"/><path d="M571.3,460.7h-.7a.1.1,0,0,0,.1-.1h.4c.2.1.3.1.4,0h-.2Zm-.7-.2h.1A.1.1,0,0,1,570.6,460.5Z" transform="translate(-554.2 -448.1)"/><path d="M571.3,460.3l.3-.3c.1-.2,0-.1,0-.1h-.3c-.2,0-.5.3-.7.6h0l.7-.2Z" transform="translate(-554.2 -448.1)" fill="#22772d"/><path d="M570.6,460.5h0c.3-.4.5-.6.7-.6h.3l-.3.3h-.7Zm0,0h.7l.3-.3h-.3C571.1,459.9,570.9,460.1,570.6,460.5Z" transform="translate(-554.2 -448.1)"/><path d="M571.3,459.9v-.2l-.2.2a.1.1,0,0,1-.1.1Z" transform="translate(-554.2 -448.1)" fill="#22772d"/><path d="M571,460h0a.1.1,0,0,0,.1-.1h0l.2-.2h0v.2H571Zm.1-.1a.1.1,0,0,1-.1.1h.3v-.2Z" transform="translate(-554.2 -448.1)"/><path d="M571,460a.5.5,0,0,0,.1-.3,1.6,1.6,0,0,0-.5.7l.4-.4Z" transform="translate(-554.2 -448.1)" fill="#22772d"/><path d="M570.6,460.4h0c.1-.4.3-.5.4-.7h.1a.5.5,0,0,1-.1.3h0Zm.5-.7H571c-.1.2-.3.3-.4.7l.4-.4A.5.5,0,0,0,571.1,459.7Z" transform="translate(-554.2 -448.1)"/><path d="M571.5,460.1h.1a.3.3,0,0,1,.1-.2Z" transform="translate(-554.2 -448.1)" fill="#22772d"/><path d="M571.6,460.3h.1c-.1,0-.1,0-.1.1Zm-.2-.1h0Z" transform="translate(-554.2 -448.1)"/><path d="M571.4,460.2a.1.1,0,0,0-.1.1h-.6a.8.8,0,0,0,1.1-.1Z" transform="translate(-554.2 -448.1)" fill="#22772d"/><path d="M571.2,460.6h.1a.1.1,0,0,1,.1-.1h.4l-.5.3Zm-.5-.2h.6l.5-.3h-.4a.1.1,0,0,0-.1.1h-.6Z" transform="translate(-554.2 -448.1)"/><path d="M571.9,459.1h0c0-.2-.1-.2-.3-.3v-.2h-.2c0,.1.1.2.2.4s.3,0,.4.2Z" transform="translate(-554.2 -448.1)" fill="#22772d"/><path d="M571.9,459.1h0l-.3-.2h-.1c-.1-.2-.2-.3-.2-.4h.2v.2h.1a.2.2,0,0,1,.2.2Zm0,0h0a.2.2,0,0,0-.2-.2h-.1v-.2h-.2c0,.1.1.2.2.4h.2C571.7,459,571.8,459,571.9,459.1Z" transform="translate(-554.2 -448.1)"/><path d="M572.3,458.2l-.2.2v.2h.2v-.3Z" transform="translate(-554.2 -448.1)" fill="#22772d"/><path d="M572.1,458.6h0v-.2h0l.2-.2h0v.2h-.2Zm0-.2v.2h.2v-.2h0C572.3,458.3,572.2,458.3,572.1,458.4Z" transform="translate(-554.2 -448.1)"/><path d="M571.9,458.4l-.2-.3v.3a.3.3,0,0,1,.1.2c0-.1,0-.1.1-.2Z" transform="translate(-554.2 -448.1)" fill="#22772d"/><path d="M571.8,458.6c0-.1-.1-.1-.1-.2h0v-.3h0c0,.1.1.1.1.2h.1c-.1.1-.1.1-.1.2Zm-.1-.2a.3.3,0,0,1,.1.2c0-.1,0-.1.1-.2h-.1c0-.1-.1-.1-.1-.2Z" transform="translate(-554.2 -448.1)"/><path d="M572.1,458.7h0a.4.4,0,0,0-.1.3h0v.2h0l.5-.4c.2-.4.1-.5.2-.6a1,1,0,0,0-.5.4Z" transform="translate(-554.2 -448.1)" fill="#22772d"/><path d="M571.9,459.3h0v-.2h0a.4.4,0,0,1,.1-.3h0l.4-.4h0a1.1,1.1,0,0,1-.1.5c-.1.1-.2.1-.2.2Zm.2-.6h0a.4.4,0,0,0-.1.3h0v.2h0l.3-.2c0-.1.1-.1.2-.2a1.1,1.1,0,0,0,.1-.5h0Z" transform="translate(-554.2 -448.1)"/><path d="M571.9,458.9a.4.4,0,0,0-.1-.3c-.1-.2-.2-.4-.4-.4s0,.4.2.6.3.1.3.3v-.2Z" transform="translate(-554.2 -448.1)" fill="#22772d"/><path d="M571.9,459.1a.2.2,0,0,0-.2-.2h-.1l-.2-.4v-.2h.2c.1.1.2.2.2.3h0a.4.4,0,0,1,.1.3h0v.2Zm-.5-.9v.2l.2.4h.1a.2.2,0,0,1,.2.2v-.2h0a.4.4,0,0,0-.1-.3c0-.1-.1-.2-.2-.3Z" transform="translate(-554.2 -448.1)"/><path d="M572.5,458.6v.3l-.5.4h0l.3-.2a.6.6,0,0,0,.4-.6Z" transform="translate(-554.2 -448.1)" fill="#22772d"/><path d="M571.9,459.3h0l.3-.2c0-.1.1-.1.2-.2v-.3h.1c0,.2-.1.3-.2.5h-.2Zm0,0h0l.3-.2h.2c.1-.2.2-.3.2-.5h-.1v.3c-.1.1-.2.1-.2.2l-.3.2Z" transform="translate(-554.2 -448.1)"/><path d="M571.9,459.1a.1.1,0,0,0-.1-.1c0,.1,0,.1.1.2Z" transform="translate(-554.2 -448.1)" fill="#22772d"/><path d="M571.9,459.2h0c-.1-.1-.1-.1-.1-.2h.1Zm-.1-.2c0,.1,0,.1.1.2h-.1Z" transform="translate(-554.2 -448.1)"/><path d="M572,458.1a.8.8,0,0,0-.1.8c.1.2-.1.6-.1.7s-.1.1-.2.3h0a.4.4,0,0,0,.2-.3.4.4,0,0,0,.1-.3v-.2a.8.8,0,0,1,.1-.3.8.8,0,0,0,0-.7s-.1-.1-.1,0Z" transform="translate(-554.2 -448.1)" fill="#22772d"/><path d="M571.6,459.9h0a.3.3,0,0,0,.1-.2h.1c0-.1.1-.2.1-.3v-.7a.8.8,0,0,1,.2-.5h.1a.8.8,0,0,1,0,.7.8.8,0,0,0-.1.3v.2a.5.5,0,0,1-.1.3h0C571.7,459.8,571.7,459.9,571.6,459.9Zm0,0h0c.1,0,.1-.1.2-.2h0a.5.5,0,0,0,.1-.3v-.2a.8.8,0,0,1,.1-.3.8.8,0,0,0,0-.7H572c-.1.2-.2.3-.2.5v.7c0,.1-.1.2-.1.3h-.1a.3.3,0,0,1-.1.2Z" transform="translate(-554.2 -448.1)"/><path d="M572.5,456.6c-.1.3-.4.4-.4.7a.5.5,0,0,0,0,.4h.2a1,1,0,0,0,.2-1Z" transform="translate(-554.2 -448.1)" fill="#22772d"/><path d="M572.1,457.7h0s-.1-.1,0-.4a.5.5,0,0,1,.2-.4l.2-.3h0a.6.6,0,0,1,0,.6.5.5,0,0,1-.2.4h-.2Zm.4-1.1-.2.3a.5.5,0,0,0-.2.4c-.1.3,0,.4,0,.4h.2a.5.5,0,0,0,.2-.4A.6.6,0,0,0,572.5,456.6Z" transform="translate(-554.2 -448.1)"/><path d="M571.8,457.5c0-.1-.1-.2-.2-.4h-.2c.1.4.3.4.4.5h0Z" transform="translate(-554.2 -448.1)" fill="#22772d"/><path d="M572,457.6h-.2l-.2-.2c-.1,0-.2-.2-.2-.3h.2c.1.2.2.3.2.4h.1c0,.1,0,.1.1.1Zm-.6-.5c0,.1.1.3.2.3l.2.2h0c0-.1-.1-.2-.2-.4Z" transform="translate(-554.2 -448.1)"/><path d="M571.8,457l-.4-.2.4.7.2.2a.5.5,0,0,0-.2-.7Z" transform="translate(-554.2 -448.1)" fill="#22772d"/><path d="M572,457.7l-.2-.2-.2-.2a1.7,1.7,0,0,0-.2-.5h0l.4.2h0c.1.1.2.2.2.3s0,.3,0,.4Zm-.6-.9.4.7.2.2c0-.1.1-.2,0-.4s-.1-.2-.2-.3h0Z" transform="translate(-554.2 -448.1)"/><path d="M572.1,457.7a.5.5,0,0,1,0-.4c0-.1,0-.2.1-.2s-.1-.4-.2-.5a.9.9,0,0,0-.1.5c.2.1.2.4.1.6v.4h.1v-.4Z" transform="translate(-554.2 -448.1)" fill="#22772d"/><path d="M572.1,458.1H572v-.4c.1-.2.1-.5-.1-.6h0a1.1,1.1,0,0,1,.1-.5h0c.1.1.1.3.2.5h0c-.1.1-.1.1-.1.2s0,.4,0,.4h0v.4Zm-.1,0h.1v-.4h0s-.1-.1,0-.4,0-.1.1-.2-.1-.4-.2-.5a1.1,1.1,0,0,0-.1.5c.2.1.2.4.1.6v.4Z" transform="translate(-554.2 -448.1)"/><path d="M571.3,455.4v-.2h-.2c.1.1.1.1.1.2Z" transform="translate(-554.2 -448.1)" fill="#22772d"/><path d="M571.3,455.4h-.1v-.2h.2v.2Zm-.1-.1h.1v-.2h-.2c0,.1.1.1.1.2Z" transform="translate(-554.2 -448.1)"/><path d="M570.9,455.4h-.1c0,.1.1.2.1.3h.1c0-.1,0-.1-.1-.2Z" transform="translate(-554.2 -448.1)" fill="#22772d"/><path d="M571,455.6h-.1c0-.1-.1-.2-.1-.3h.1c.1.1.1.1.1.2Zm-.1,0h.1c0-.1,0-.1-.1-.2h-.1C570.8,455.4,570.9,455.5,570.9,455.6Z" transform="translate(-554.2 -448.1)"/><path d="M571.6,456.1h.1a1.3,1.3,0,0,0-.1-.9l-.3-.2v.3a.9.9,0,0,1,.3.7Z" transform="translate(-554.2 -448.1)" fill="#22772d"/><path d="M571.7,456.2h-.1a.9.9,0,0,0-.3-.7h0v-.3h.3c0,.1.1.2.1.4v.5Zm-.1-.1h.1v-.5c0-.2-.1-.3-.1-.4h-.3v.3a.9.9,0,0,1,.3.7Z" transform="translate(-554.2 -448.1)"/><path d="M571.1,455.8a.3.3,0,0,0-.1-.2h-.2c.1.2.1.4.3.5l.5.2Z" transform="translate(-554.2 -448.1)" fill="#22772d"/><path d="M571.6,456.2h-.5c-.1-.1-.2-.2-.2-.3s-.1-.1-.1-.2h0c0,.1.1.1.2.1h0c0,.1.1.1.1.2h0l.3.2.2.2Zm-.8-.7c0,.1.1.1.1.2l.2.3h.5l-.2-.2-.3-.2h0c0-.1-.1-.1-.1-.2h0C570.9,455.6,570.8,455.6,570.8,455.5Z" transform="translate(-554.2 -448.1)"/><path d="M571.6,456.1a1,1,0,0,0-.5-.8l-.3-.2c.2.3.1.4.3.7l.5.4.3.6h0a1.6,1.6,0,0,0-.3-.6Z" transform="translate(-554.2 -448.1)" fill="#22772d"/><path d="M571.9,456.8h0l-.3-.6-.2-.2-.3-.2c-.1-.2-.1-.3-.2-.4a.4.4,0,0,0-.1-.3h0l.3.2q.1,0,.3.3a.8.8,0,0,1,.2.5h0l.2.3c0,.1.1.2.1.3h0Zm-1.1-1.7a.4.4,0,0,1,.1.3c.1.1.1.2.2.4l.3.2.2.2.3.6h0c0-.1-.1-.2-.1-.3l-.2-.3h0a.8.8,0,0,0-.2-.5q-.1-.3-.3-.3Z" transform="translate(-554.2 -448.1)"/><path d="M571.7,459.6h.1a.1.1,0,0,1-.1-.1h0Z" transform="translate(-554.2 -448.1)" fill="#22772d"/><path d="M571.7,459.6h0a.1.1,0,0,0,.1.1h-.1Zm0-.1h.1a.1.1,0,0,1-.1-.1Z" transform="translate(-554.2 -448.1)"/><path d="M571.9,459.5h-.1a.1.1,0,0,0,.1-.1Z" transform="translate(-554.2 -448.1)" fill="#22772d"/><path d="M571.8,459.6h.1a.1.1,0,0,0,.1-.1h-.2Zm.1-.1h.1a.1.1,0,0,1-.1.1Z" transform="translate(-554.2 -448.1)"/><path d="M572,459.4s-.1.1,0,.1S572.1,459.4,572,459.4Z" transform="translate(-554.2 -448.1)" fill="#ce1126"/><path d="M572,459.5h0c-.1,0,0,0,0-.1h0Zm0-.1h0c0,.1-.1.1,0,.1h0Z" transform="translate(-554.2 -448.1)"/><path d="M571.7,459.4s-.1.1,0,.1.1-.1,0-.1Z" transform="translate(-554.2 -448.1)" fill="#ce1126"/><path d="M571.7,459.5h.1A.1.1,0,0,1,571.7,459.5Zm0-.1h0a.1.1,0,0,0,.1-.1Z" transform="translate(-554.2 -448.1)"/><path d="M571.7,459.5c-.1,0-.1.1,0,.1Z" transform="translate(-554.2 -448.1)" fill="#ce1126"/><path d="M571.7,459.6h0Zm0-.1h0Z" transform="translate(-554.2 -448.1)"/><path d="M572.1,457.9h0Z" transform="translate(-554.2 -448.1)" fill="#22772d"/><path d="M572.1,458Zm0-.1h0Z" transform="translate(-554.2 -448.1)"/><path d="M572,457.9h0a.1.1,0,0,0-.1-.1h.1Z" transform="translate(-554.2 -448.1)" fill="#22772d"/><path d="M572,458h0a.1.1,0,0,0-.1-.1h.1Zm-.1-.2h0a.1.1,0,0,1,.1.1h-.1Z" transform="translate(-554.2 -448.1)"/><path d="M571.9,457.8c.1,0,.1.1,0,.1Z" transform="translate(-554.2 -448.1)" fill="#ce1126"/><path d="M571.9,457.9h0Zm0-.1Z" transform="translate(-554.2 -448.1)"/><path d="M572.2,457.8c.1,0,.1.1,0,.1s-.1-.1,0-.1Z" transform="translate(-554.2 -448.1)" fill="#ce1126"/><path d="M572.2,457.9h0Zm0-.1Z" transform="translate(-554.2 -448.1)"/><path d="M571.8,456.4h0Z" transform="translate(-554.2 -448.1)" fill="#22772d"/><path d="M571.8,456.5Zm0-.1h0Z" transform="translate(-554.2 -448.1)"/><path d="M571.8,456.6h-.1c-.1,0-.1-.1,0-.1Z" transform="translate(-554.2 -448.1)" fill="#22772d"/><path d="M571.8,456.6h-.1a.1.1,0,0,1-.1-.1h.2Zm-.1-.1h-.1a.1.1,0,0,0,.1.1h0Z" transform="translate(-554.2 -448.1)"/><path d="M571.6,456.5c.1,0,.1.1,0,.1Z" transform="translate(-554.2 -448.1)" fill="#ce1126"/><path d="M571.6,456.6Zm0-.1Z" transform="translate(-554.2 -448.1)"/><path d="M571.9,456.3Z" transform="translate(-554.2 -448.1)" fill="#ce1126"/><path d="M571.9,456.3Zm0,0Z" transform="translate(-554.2 -448.1)"/><path d="M572,456.3h0c-.1,0-.1-.1,0-.1Z" transform="translate(-554.2 -448.1)" fill="#ce1126"/><path d="M572,456.4h0Zm0-.1h0Z" transform="translate(-554.2 -448.1)"/><path d="M567.1,460.8h0Zm-.3-.2h-.1a.1.1,0,0,1,.1.1Zm-.2-.1c0-.1-.1-.2-.1-.3h0a.4.4,0,0,1,.1.3Zm-.1-.2-.3-.2h0l.3.2Zm-.1-.1a.4.4,0,0,1-.1-.3h0a.4.4,0,0,0,.1.3Zm-.2-.2c0-.1-.1-.1-.1-.2l-.4-.2h0l.4.2c0,.1.1.1.1.2Zm-.4-.8c-.2-.2-.4-.4-.4-.5h0c0,.1.2.3.4.5Zm-.1-.9h0c0-.1,0-.3.1-.3h0C565.7,458,565.7,458.2,565.7,458.3Zm0,0-.2-.2h0l.2.2Zm-.1-.3a.6.6,0,0,1,.1-.4h0a.6.6,0,0,0-.1.4Zm0-.1a.4.4,0,0,1-.1-.3h0a.4.4,0,0,0,.1.3Zm0-.1h0l.2-.3h0Zm0-.3h0a1.1,1.1,0,0,1,.2-.6h0A1.1,1.1,0,0,0,565.6,457.5Zm0-.2a2.5,2.5,0,0,1-.1-.8h0a2.5,2.5,0,0,0,.1.8Zm0-.2v-.9h0v.9Zm.1-.2s-.1-.5,0-.6h0c-.1.1,0,.6,0,.6Zm0-.2h0c.1-.1.1-.2.2-.2l.2-.3h0l-.2.3C565.8,456.5,565.8,456.6,565.7,456.7Zm.1-.2h0v-.6h0v.6Zm0-.1h0c.1-.1.1-.1.1-.2a.3.3,0,0,0,.1-.2h0a.3.3,0,0,1-.1.2C565.9,456.3,565.9,456.3,565.8,456.4Zm0-.2h0a.8.8,0,0,0,.1-.4h0A.8.8,0,0,1,565.8,456.2Zm.2-.4h0c.1-.2.2-.3.2-.4h0C566.2,455.5,566.1,455.6,566,455.8Z" transform="translate(-554.2 -448.1)"/><path d="M568.4,458.1c.2-.1.4.1.4.3l.2.4q-.2,0-.3-.3c-.1-.2-.2-.4-.3-.4Z" transform="translate(-554.2 -448.1)" fill="#fff200"/><path d="M568.9,458.8h0l-.2-.3c-.1-.2-.2-.4-.3-.4h.1l.2.2v.2l.2.4h-.1Zm-.5-.7c.1,0,.2.2.3.4l.2.3h.1l-.2-.4v-.2l-.2-.2Z" transform="translate(-554.2 -448.1)"/><path d="M568.7,458.2c.1-.1.2.1.3.3a1,1,0,0,0,.1.3c-.1.1-.2.1-.2-.1s-.1-.4-.2-.5Z" transform="translate(-554.2 -448.1)" fill="#fff200"/><path d="M569,458.8h0c-.1,0-.1,0-.1-.1s-.1-.4-.2-.5h.1c.1,0,.1.1.2.3h0a1,1,0,0,0,.1.3H569Zm-.3-.6c.1.1.1.3.2.5s0,.1.1.1h.1a1,1,0,0,1-.1-.3h0c-.1-.2-.1-.3-.2-.3Z" transform="translate(-554.2 -448.1)"/><path d="M568.9,458.3c.1-.1.2.1.2.2s.1.3.1.4-.1,0-.2-.2a.6.6,0,0,0-.1-.4Z" transform="translate(-554.2 -448.1)" fill="#fff200"/><path d="M569.2,458.9h-.1v-.6h.1a.1.1,0,0,1,.1.1c0,.2.1.3.1.4Zm-.3-.6a.6.6,0,0,1,.1.4v.2h.1c0-.1-.1-.2-.1-.4a.1.1,0,0,0-.1-.1Z" transform="translate(-554.2 -448.1)"/><path d="M569,458.3c.1,0,.2.1.2.3s0,.3.1.3-.2,0-.2-.2-.1-.3-.1-.4Z" transform="translate(-554.2 -448.1)" fill="#fff200"/><path d="M569.3,458.9h-.1a.1.1,0,0,1-.1-.1c0-.2-.1-.3-.1-.4h.1a.4.4,0,0,1,.1.3h0c0,.1,0,.3.1.3Zm-.3-.6c0,.1.1.2.1.4a.1.1,0,0,0,.1.1h.1c-.1,0-.1-.2-.1-.3h0a.4.4,0,0,0-.1-.3Z" transform="translate(-554.2 -448.1)"/><path d="M569.2,458.4a.3.3,0,0,1,.1.2c0,.1.1.3.1.4a.2.2,0,0,1-.2-.2v-.4Z" transform="translate(-554.2 -448.1)" fill="#fff200"/><path d="M569.4,459h-.1a.3.3,0,0,0-.1-.2v-.4h0c.1,0,.1.1.1.2h0c0,.1.1.3.1.4Zm-.2-.6v.4a.3.3,0,0,1,.1.2h.1c0-.1-.1-.3-.1-.4h0c0-.1,0-.2-.1-.2Z" transform="translate(-554.2 -448.1)"/><path d="M569.3,458.5c.1,0,.1.1.1.2s.1.2.1.3-.1,0-.2-.2Z" transform="translate(-554.2 -448.1)" fill="#fff200"/><path d="M569.5,459h-.1a.3.3,0,0,0-.1-.2v-.2h0c.1,0,.1.1.1.2s.1.2.1.3Zm-.2-.5h0v.2c.1.1.1.2.2.2h0a.4.4,0,0,1-.1-.3C569.4,458.6,569.4,458.5,569.3,458.5Z" transform="translate(-554.2 -448.1)"/><path d="M569.4,458.6c.1,0,.1.1.1.2v.2a.2.2,0,0,1-.2-.2v-.2Z" transform="translate(-554.2 -448.1)" fill="#fff200"/><path d="M569.6,459h-.1v-.4h0c.1,0,.1.1.1.2v.2Zm-.2-.4v.4h.1v-.2c0-.1,0-.2-.1-.2Z" transform="translate(-554.2 -448.1)"/><path d="M569.5,458.7c.1,0,.1,0,.1.1v.2c-.1.1-.2,0-.2-.1v-.2Z" transform="translate(-554.2 -448.1)" fill="#fff200"/><path d="M569.7,459h-.1a.1.1,0,0,1-.1-.1v-.2h.1v.2Zm-.2-.3v.2a.1.1,0,0,0,.1.1h.1v-.2h-.1Z" transform="translate(-554.2 -448.1)"/><path d="M569.6,458.8h.2c0,.1-.1.1-.1,0A.3.3,0,0,0,569.6,458.8Z" transform="translate(-554.2 -448.1)" fill="#fff200"/><path d="M569.7,459.1h0a.3.3,0,0,0-.1-.2h.2C569.8,459.1,569.8,459.1,569.7,459.1Zm-.1-.3h0a.3.3,0,0,1,.1.2h0c.1,0,.1,0,.1-.1h-.2Z" transform="translate(-554.2 -448.1)"/><path d="M569.7,458.9h.2c0,.1-.1.1-.1,0a.1.1,0,0,1-.1-.1Z" transform="translate(-554.2 -448.1)" fill="#fff200"/><path d="M569.8,459h0a.1.1,0,0,1-.1-.1h.1Zm-.1-.1a.1.1,0,0,0,.1.1h-.1Z" transform="translate(-554.2 -448.1)"/><path d="M569.8,458.9h.2c0,.1,0,.1-.1.1Z" transform="translate(-554.2 -448.1)" fill="#fff200"/><path d="M570,459h0Zm-.2-.1Z" transform="translate(-554.2 -448.1)"/><path d="M569.9,458.8h.2s-.1.1-.1,0Z" transform="translate(-554.2 -448.1)" fill="#fff200"/><path d="M570,459h0Zm-.1-.2h0Z" transform="translate(-554.2 -448.1)"/><path d="M569.9,458.8h0Z" transform="translate(-554.2 -448.1)" fill="#fff200"/><path d="M570.1,458.9h0Zm-.2-.1h0Z" transform="translate(-554.2 -448.1)"/><path d="M570,458.8c0-.1,0-.1.1-.1s0,.1.1.1H570Z" transform="translate(-554.2 -448.1)" fill="#fff200"/><path d="M570.1,458.8h0c0,.1,0,.1.1.1h-.1Zm-.1,0h.2c-.1,0-.1,0-.1-.1H570Z" transform="translate(-554.2 -448.1)"/><path d="M570,458.7h.1c.1,0,.1.1,0,.1Z" transform="translate(-554.2 -448.1)" fill="#fff200"/><path d="M570.1,458.8h0a.1.1,0,0,0-.1-.1h.2c0,.1,0,.1-.1.1Zm-.1-.1a.1.1,0,0,1,.1.1h0a.1.1,0,0,0,.1-.1H570Z" transform="translate(-554.2 -448.1)"/><path d="M570,458.7h.1c.1,0,.1.1,0,.1Z" transform="translate(-554.2 -448.1)" fill="#fff200"/><path d="M570.1,458.7Zm-.1,0h0Z" transform="translate(-554.2 -448.1)"/><path d="M570,458.6h0a.1.1,0,0,0,.1-.1H570Z" transform="translate(-554.2 -448.1)" fill="#fff200"/><path d="M570,458.6h0a.1.1,0,0,0,.1-.1H570Zm0,0h.1a.1.1,0,0,1-.1.1Z" transform="translate(-554.2 -448.1)"/><path d="M570,458.6h0c.1,0,.1,0,.1.1Z" transform="translate(-554.2 -448.1)" fill="#fff200"/><path d="M570,458.6Zm0,0Z" transform="translate(-554.2 -448.1)"/><path d="M570,458.5h0s.1.1,0,.1Z" transform="translate(-554.2 -448.1)" fill="#fff200"/><path d="M570,458.5h0c0,.1.1.1,0,.1Zm0,0h0c.1,0,0,0,0-.1h0Z" transform="translate(-554.2 -448.1)"/><path d="M570,458.5h-.1c.1,0,0-.1,0-.1s.1,0,.1.1Z" transform="translate(-554.2 -448.1)" fill="#fff200"/><path d="M569.9,458.5Zm0-.1h0Z" transform="translate(-554.2 -448.1)"/><path d="M569.9,458.5h.1c0,.1,0,.1-.1.1Z" transform="translate(-554.2 -448.1)" fill="#fff200"/><path d="M569.9,458.5Zm0-.1h0Z" transform="translate(-554.2 -448.1)"/><path d="M569.9,458.5h0c-.1,0,0,0-.1-.1h.1Z" transform="translate(-554.2 -448.1)" fill="#fff200"/><path d="M569.9,458.5Zm-.1-.1h0Z" transform="translate(-554.2 -448.1)"/><path d="M569.8,458.5s0-.1.1,0h0a.1.1,0,0,1-.1-.1Z" transform="translate(-554.2 -448.1)" fill="#fff200"/><path d="M569.9,458.6h0a.1.1,0,0,1-.1-.1h0a.1.1,0,0,1,.1.1Zm-.1-.1h0a.1.1,0,0,0,.1.1h0a.1.1,0,0,0-.1-.1Z" transform="translate(-554.2 -448.1)"/><path d="M569.8,458.6h0a.1.1,0,0,1,.1.1Z" transform="translate(-554.2 -448.1)" fill="#fff200"/><path d="M569.9,458.6h-.1c.1,0,.1,0,.1.1Zm-.1,0h.1c0-.1,0-.1-.1-.1h0Z" transform="translate(-554.2 -448.1)"/><path d="M569.8,458.6h0c0-.1.1-.1.1,0Z" transform="translate(-554.2 -448.1)" fill="#fff200"/><path d="M569.9,458.6h0Zm-.1,0Z" transform="translate(-554.2 -448.1)"/><path d="M569.8,458.7h0Z" transform="translate(-554.2 -448.1)" fill="#fff200"/><path d="M569.8,458.7Zm0-.1Z" transform="translate(-554.2 -448.1)"/><path d="M569.8,458.7Z" transform="translate(-554.2 -448.1)" fill="#fff200"/><path d="M569.8,458.7Zm0-.1Z" transform="translate(-554.2 -448.1)"/><path d="M569.8,458.7Z" transform="translate(-554.2 -448.1)" fill="#fff200"/><path d="M569.8,458.7Zm0,0Z" transform="translate(-554.2 -448.1)"/><path d="M568.2,458.1c0-.1.2-.1.3,0s.2.5.4.6a.1.1,0,0,1-.1.1c-.1-.1-.3-.6-.6-.7Z" transform="translate(-554.2 -448.1)" fill="#fff200"/><path d="M568.8,458.8h-.1l-.2-.3-.3-.3h.3c.2.2.2.3.2.4s.1.2.2.2h0c0,.1,0,.1-.1.1Zm-.6-.7.3.3.2.3h.1c.1,0,.1,0,.1-.1s-.1-.1-.2-.2,0-.2-.2-.4h-.3Z" transform="translate(-554.2 -448.1)"/><path d="M567.9,458.2c0-.2.3-.1.6.1s.4.6.2.6-.6-.6-.8-.7Z" transform="translate(-554.2 -448.1)" fill="#fff200"/><path d="M568.7,458.9h0a.9.9,0,0,0-.3-.5l-.5-.2h.1c.1-.1.3,0,.5.2s.2.2.2.3a.3.3,0,0,1,.1.2Zm0,0h.1a.3.3,0,0,0-.1-.2c0-.1-.1-.2-.2-.3s-.4-.3-.5-.2h-.1l.5.2A.9.9,0,0,1,568.7,458.9Z" transform="translate(-554.2 -448.1)"/><path d="M567.7,458.3c0-.2.4-.2.7,0s.4.5.3.6S567.7,458.5,567.7,458.3Z" transform="translate(-554.2 -448.1)" fill="#fff200"/><path d="M568.7,458.9h0l-.6-.3-.4-.3h.7c.1.1.2.2.2.3s.1.1.1.2Zm-1-.6.4.3.6.3h0c0-.1,0-.2-.1-.2s-.1-.2-.2-.3h-.7Z" transform="translate(-554.2 -448.1)"/><path d="M567.5,458.6c0-.4.5-.4.8-.2s.5.6.3.6l-1.1-.4Z" transform="translate(-554.2 -448.1)" fill="#fff200"/><path d="M568.6,459h0l-.9-.3h-.2a.4.4,0,0,1,.1-.3h.7l.3.3v.2c0,.1,0,.1-.1.1Zm-1.1-.4h.2l.9.3a.1.1,0,0,0,.1-.1v-.2l-.3-.3h-.7A.4.4,0,0,0,567.5,458.6Z" transform="translate(-554.2 -448.1)"/><path d="M567.9,458.4c-.4,0-.5.1-.5.4a.5.5,0,0,0,.5.4c.4,0,.7,0,.7-.2a.7.7,0,0,0-.7-.6Z" transform="translate(-554.2 -448.1)" fill="#fff200"/><path d="M568.1,459.2h-.6c0-.1,0-.1-.1-.2h0v-.2h.6l.4.2c.1,0,.1.1.2.2v.2a.1.1,0,0,1-.1.1h-.4Zm-.2-.8h-.5v.2h0c.1.1.1.1.1.2h1a.1.1,0,0,0,.1-.1v-.2c-.1-.1-.1-.2-.2-.2l-.5-.2Z" transform="translate(-554.2 -448.1)"/><path d="M567.9,458.5c.6,0,.9.7.1.7S567.3,458.5,567.9,458.5Z" transform="translate(-554.2 -448.1)" fill="#ccbe00"/><path d="M568.1,459.2H568l-.4-.2a.4.4,0,0,1-.1-.3h.7l.3.2v.2Zm-.2-.7h-.4a.4.4,0,0,0,.1.3l.4.2.5-.2v-.2l-.3-.2Z" transform="translate(-554.2 -448.1)"/><path d="M567.8,458.8c-.2,0-.3.1-.1.3h.7c.1,0,0-.1,0-.2Z" transform="translate(-554.2 -448.1)" fill="#fff200"/><path d="M568.1,459.2h-.4c-.1-.1-.2-.1-.1-.2h.8v.2h-.3Zm-.3-.4h-.2c-.1.1,0,.1.1.2h.7v-.2h-.6Z" transform="translate(-554.2 -448.1)"/><path d="M567.9,458.6c-.1,0-.1.2,0,.2s.2-.2,0-.2Z" transform="translate(-554.2 -448.1)" fill="#fff200"/><path d="M567.9,458.8h0c-.1,0-.1,0-.1-.1h.2C568,458.8,568,458.8,567.9,458.8Zm0-.2h-.1a.1.1,0,0,0,.1.1h0c.1,0,.1,0,.1-.1h-.1Z" transform="translate(-554.2 -448.1)"/><path d="M568.1,458.8c-.1.1-.1.3.1.2S568.3,458.8,568.1,458.8Z" transform="translate(-554.2 -448.1)" fill="#fff200"/><path d="M568.2,459.1a.1.1,0,0,1-.1-.1v-.2h.1c.1,0,.1,0,.1.1h-.1Zm0-.3h-.1v.2h.2c0-.1,0-.1-.1-.1Z" transform="translate(-554.2 -448.1)"/><path d="M568.1,458.7c-.1,0-.1.2,0,.2S568.2,458.7,568.1,458.7Z" transform="translate(-554.2 -448.1)" fill="#fff200"/><path d="M568.1,458.9h0c.1,0,.1,0,.1.1h-.1Zm0-.2h.1C568.2,458.7,568.2,458.7,568.1,458.7Z" transform="translate(-554.2 -448.1)"/><path d="M568.3,458.7c-.1,0-.2.1,0,.1S568.4,458.7,568.3,458.7Z" transform="translate(-554.2 -448.1)" fill="#fff200"/><path d="M568.3,458.9h0c.1,0,.1,0,.1.1Zm0-.2a.1.1,0,0,0-.1.1h.2C568.4,458.7,568.4,458.7,568.3,458.7Z" transform="translate(-554.2 -448.1)"/><path d="M568,458.6c-.1,0-.1.1,0,.1s.1-.1,0-.1Z" transform="translate(-554.2 -448.1)" fill="#fff200"/><path d="M568,458.7Zm0-.1h0Z" transform="translate(-554.2 -448.1)"/><path d="M567.9,458.5c-.1,0-.1.2,0,.2S568,458.5,567.9,458.5Z" transform="translate(-554.2 -448.1)" fill="#fff200"/><path d="M567.9,458.7h-.1a.1.1,0,0,1,.1-.1h0Zm0-.1h0Z" transform="translate(-554.2 -448.1)"/><path d="M567.8,458.6c-.1,0-.1.2,0,.2S567.9,458.6,567.8,458.6Z" transform="translate(-554.2 -448.1)" fill="#fff200"/><path d="M567.8,458.8h0Zm0-.2h0Z" transform="translate(-554.2 -448.1)"/><path d="M567.7,458.9c.1.1.2-.1,0-.2s-.2.1,0,.2" transform="translate(-554.2 -448.1)" fill="#fff200"/><path d="M567.7,458.9h0a.1.1,0,0,0-.1.1h0a.1.1,0,0,1,.1-.1h0Z" transform="translate(-554.2 -448.1)"/><path d="M567.8,458.7c-.1,0-.1.2,0,.2S568,458.7,567.8,458.7Z" transform="translate(-554.2 -448.1)" fill="#fff200"/><path d="M567.8,458.9h0c.1,0,.1,0,.1.1h-.1Zm0-.2h.1C567.9,458.7,567.9,458.7,567.8,458.7Z" transform="translate(-554.2 -448.1)"/><path d="M567.6,458.7s-.1.1,0,.1.1-.1,0-.1Z" transform="translate(-554.2 -448.1)" fill="#fff200"/><path d="M567.6,458.8Zm0-.1h.1c0-.1,0-.1-.1-.1Z" transform="translate(-554.2 -448.1)"/><path d="M569.1,459.4c-.2,0-.2.1-.1.1s.2-.1.1-.1Z" transform="translate(-554.2 -448.1)" fill="#fff200"/><path d="M569,459.5h-.1a.1.1,0,0,1,.1-.1h.1C569.1,459.5,569.1,459.5,569,459.5Zm.1-.1H569a.1.1,0,0,0-.1.1h.1c.1,0,.1,0,.1-.1Z" transform="translate(-554.2 -448.1)"/><path d="M569.1,459.4c-.1,0-.1.1,0,.1s.1-.1,0-.1Z" transform="translate(-554.2 -448.1)" fill="#fff200"/><path d="M569.1,459.5Zm0-.1h.1c0-.1,0-.1-.1-.1Z" transform="translate(-554.2 -448.1)"/><path d="M568.9,459.2c-.1,0-.1.2,0,.2s.1-.2,0-.2Z" transform="translate(-554.2 -448.1)" fill="#fff200"/><path d="M568.9,459.4h0a.1.1,0,0,1,.1.1h-.1Zm0-.2h.1a.1.1,0,0,0-.1-.1Z" transform="translate(-554.2 -448.1)"/><path d="M569,459.3c-.1,0-.1.1,0,.1S569.1,459.3,569,459.3Z" transform="translate(-554.2 -448.1)" fill="#fff200"/><path d="M569,459.4Zm0-.1Z" transform="translate(-554.2 -448.1)"/><path d="M568.6,459.3c-.1,0-.1.1,0,.2s.2-.2,0-.2Z" transform="translate(-554.2 -448.1)" fill="#fff200"/><path d="M568.6,459.5h0a.1.1,0,0,0-.1-.1h.2A.1.1,0,0,1,568.6,459.5Zm0-.2h0a.1.1,0,0,0,.1-.1h-.1Z" transform="translate(-554.2 -448.1)"/><path d="M568.7,459.2c-.1,0-.1.2,0,.2S568.8,459.2,568.7,459.2Z" transform="translate(-554.2 -448.1)" fill="#fff200"/><path d="M568.7,459.4h-.1a.1.1,0,0,0,.1-.1h0a.1.1,0,0,1,.1.1h-.1Zm0-.2h.1A.1.1,0,0,0,568.7,459.2Z" transform="translate(-554.2 -448.1)"/><path d="M568.8,459.4c-.1,0-.1.2,0,.2S568.9,459.4,568.8,459.4Z" transform="translate(-554.2 -448.1)" fill="#fff200"/><path d="M568.8,459.6h-.1c0-.1,0-.1.1-.1h0Zm0-.2c-.1,0-.1,0-.1.1h.1Z" transform="translate(-554.2 -448.1)"/><path d="M568.9,459.3c-.1,0-.1.2,0,.2s.2-.2,0-.2Z" transform="translate(-554.2 -448.1)" fill="#fff200"/><path d="M568.9,459.5h-.1a.3.3,0,0,1,.1-.2h.1C569,459.5,569,459.5,568.9,459.5Zm0-.2a.3.3,0,0,0-.1.2h.1c.1,0,.1,0,.1-.1h-.1Z" transform="translate(-554.2 -448.1)"/><path d="M568.7,459.3c-.1,0-.1.2.1.2S568.9,459.3,568.7,459.3Z" transform="translate(-554.2 -448.1)" fill="#fff200"/><path d="M568.7,459.5h.2c-.1,0-.1,0-.1.1Zm.1-.2h-.1a.1.1,0,0,0,.1.1c0-.1,0-.1.1-.1Z" transform="translate(-554.2 -448.1)"/><path d="M568.9,459.1c-.2,0-.2.2-.1.2s.2-.1.1-.2Z" transform="translate(-554.2 -448.1)" fill="#fff200"/><path d="M568.8,459.3h0c-.1,0-.1,0-.1-.1h.1Zm0-.2h-.1a.1.1,0,0,0,.1.1h0Z" transform="translate(-554.2 -448.1)"/><path d="M568.8,459.1c-.1,0-.2.1-.1.1S568.9,459.1,568.8,459.1Z" transform="translate(-554.2 -448.1)" fill="#fff200"/><path d="M568.8,459.3h0Zm-.1-.2h0c.1.1.1.1.1,0h-.1Z" transform="translate(-554.2 -448.1)"/><path d="M568.3,459.2c-.1,0-.2.2,0,.2S568.4,459.3,568.3,459.2Z" transform="translate(-554.2 -448.1)" fill="#fff200"/><path d="M568.3,459.4h-.1a.1.1,0,0,1,.1-.1h0a.1.1,0,0,0,.1.1h-.1Zm0-.2a.1.1,0,0,0-.1.1h.2a.1.1,0,0,1-.1-.1Z" transform="translate(-554.2 -448.1)"/><path d="M568.3,459.4c-.1,0-.2.1-.1.1S568.4,459.4,568.3,459.4Z" transform="translate(-554.2 -448.1)" fill="#fff200"/><path d="M568.3,459.6a.1.1,0,0,0-.1-.1h.1Zm-.1-.2h0c.1.1.1,0,.1,0h-.1Z" transform="translate(-554.2 -448.1)"/><path d="M568.6,459.3c-.2,0-.3.2-.1.2s.2-.1.1-.2Z" transform="translate(-554.2 -448.1)" fill="#fff200"/><path d="M568.5,459.5h-.1v-.2h.2v.2h-.1Zm0-.2h-.1v.2h.2v-.2h-.1Z" transform="translate(-554.2 -448.1)"/><path d="M568.5,459.2c-.1-.1-.1.1,0,.1S568.7,459.2,568.5,459.2Z" transform="translate(-554.2 -448.1)" fill="#fff200"/><path d="M568.6,459.4h-.1c.1,0,.1,0,.1.1h0Zm-.1-.2h-.1a.1.1,0,0,0,.1.1h.1c0-.1,0-.1-.1-.1Z" transform="translate(-554.2 -448.1)"/><path d="M568.6,459.1c-.1,0-.1.2,0,.2s.2-.1,0-.2Z" transform="translate(-554.2 -448.1)" fill="#fff200"/><path d="M568.6,459.3h0a.1.1,0,0,1-.1-.1h.1Zm0-.2h-.1a.1.1,0,0,0,.1.1h0Z" transform="translate(-554.2 -448.1)"/><path d="M568.6,459.4c-.1,0-.1.1,0,.2s.1-.1,0-.2Z" transform="translate(-554.2 -448.1)" fill="#fff200"/><path d="M568.6,459.6h0a.1.1,0,0,0-.1-.1.1.1,0,0,1,.1-.1h0a.1.1,0,0,1,.1.1Zm0-.2h0a.1.1,0,0,0-.1.1.1.1,0,0,1,.1.1h.1a.1.1,0,0,0-.1-.1Z" transform="translate(-554.2 -448.1)"/><path d="M568.5,459.3h-.1C568.6,459.4,568.6,459.3,568.5,459.3Z" transform="translate(-554.2 -448.1)" fill="#fff200"/><path d="M568.4,459.4Zm.1-.1h0Z" transform="translate(-554.2 -448.1)"/><path d="M568.4,459.2c-.1,0-.2.1,0,.1s.1-.1,0-.1Z" transform="translate(-554.2 -448.1)" fill="#fff200"/><path d="M568.4,459.3h0c.1,0,.1,0,.1.1Zm0-.1h.1c0-.1,0-.1-.1-.1Z" transform="translate(-554.2 -448.1)"/><path d="M568.1,459.3c-.1-.1-.2.1,0,.2S568.3,459.3,568.1,459.3Z" transform="translate(-554.2 -448.1)" fill="#fff200"/><path d="M568.1,459.5h0a.1.1,0,0,1-.1-.1h.1Zm0-.2H568a.1.1,0,0,0,.1.1h0Z" transform="translate(-554.2 -448.1)"/><path d="M568.2,459.4c-.1,0-.2,0-.1.1S568.3,459.4,568.2,459.4Z" transform="translate(-554.2 -448.1)" fill="#fff200"/><path d="M568.2,459.5h.1a.1.1,0,0,1-.1.1Zm0-.1h0s.1-.1,0-.1Z" transform="translate(-554.2 -448.1)"/><path d="M568.2,459.1c-.1,0-.1.2,0,.2S568.3,459.2,568.2,459.1Z" transform="translate(-554.2 -448.1)" fill="#fff200"/><path d="M568.2,459.3Zm0-.2h-.1c0,.1,0,.1.1.1h0a.1.1,0,0,0,.1-.1Z" transform="translate(-554.2 -448.1)"/><path d="M568.3,459.1c-.1,0-.1.2,0,.2S568.4,459.1,568.3,459.1Z" transform="translate(-554.2 -448.1)" fill="#fff200"/><path d="M568.3,459.3h0a.1.1,0,0,1-.1-.1h.1Zm0-.2h-.1a.1.1,0,0,0,.1.1h0Z" transform="translate(-554.2 -448.1)"/><path d="M568.4,459.4c-.1,0-.1.1,0,.1S568.5,459.4,568.4,459.4Z" transform="translate(-554.2 -448.1)" fill="#fff200"/><path d="M568.4,459.5h0a.1.1,0,0,1,.1.1Zm0-.1h.1a.1.1,0,0,0-.1-.1Z" transform="translate(-554.2 -448.1)"/><path d="M568,459.2c-.1,0-.2.1,0,.2s.2-.2,0-.2Z" transform="translate(-554.2 -448.1)" fill="#fff200"/><path d="M568,459.4h0c.1,0,.1,0,.1.1H568Zm0-.2h.1c0-.1,0-.1-.1-.1Z" transform="translate(-554.2 -448.1)"/><path d="M568,459.1c-.1,0-.2.2-.1.2S568.1,459.1,568,459.1Z" transform="translate(-554.2 -448.1)" fill="#fff200"/><path d="M567.9,459.3h0c-.1,0,0-.1,0-.1h0Zm.1-.2h-.1s-.1.1,0,.1h.1Z" transform="translate(-554.2 -448.1)"/><path d="M568,459c-.1,0-.2.1,0,.2S568.2,459,568,459Z" transform="translate(-554.2 -448.1)" fill="#fff200"/><path d="M568,459.2h.1c.1,0,.1.1,0,.1Zm0-.2h.1c.1,0,.1-.1,0-.1Z" transform="translate(-554.2 -448.1)"/><path d="M567.8,459.3c-.1,0-.1.1.1.1s.1-.2-.1-.1Z" transform="translate(-554.2 -448.1)" fill="#fff200"/><path d="M567.8,459.4h0c.1,0,.1,0,.1.1h-.1Zm0-.1h.1C567.9,459.2,567.9,459.2,567.8,459.3Z" transform="translate(-554.2 -448.1)"/><path d="M567.8,459.1c-.1,0-.2.1,0,.2s.1-.2,0-.2Z" transform="translate(-554.2 -448.1)" fill="#fff200"/><path d="M567.8,459.3Zm0-.2h0Z" transform="translate(-554.2 -448.1)"/><path d="M567.9,459c-.1,0-.1.1-.1.2s.2-.2.1-.2Z" transform="translate(-554.2 -448.1)" fill="#fff200"/><path d="M567.9,459.2h0Zm0-.2h0Z" transform="translate(-554.2 -448.1)"/><path d="M568,459.1h.1C568.2,459.1,568.2,459,568,459.1Z" transform="translate(-554.2 -448.1)" fill="#fff200"/><path d="M568.1,459.2h0Zm-.1-.1h.1c0-.1,0-.1-.1,0Z" transform="translate(-554.2 -448.1)"/><path d="M568.4,458.9c-.2-.1-.2.1-.1.1s.2-.1.1-.1Z" transform="translate(-554.2 -448.1)" fill="#fff200"/><path d="M568.4,459h-.2c0-.1,0-.1.1-.1h.1s.1,0,0,.1Zm-.1-.2h0c-.1,0-.1,0-.1.1h.2c.1-.1,0-.1,0-.1h-.1Z" transform="translate(-554.2 -448.1)"/><path d="M568.3,459c-.1,0-.2.2,0,.2S568.4,459,568.3,459Z" transform="translate(-554.2 -448.1)" fill="#fff200"/><path d="M568.3,459.2h-.1a.1.1,0,0,1,.1-.1h0a.1.1,0,0,0,.1.1h-.1Zm0-.2a.1.1,0,0,0-.1.1h.2a.1.1,0,0,1-.1-.1Z" transform="translate(-554.2 -448.1)"/><path d="M568.4,459.2c.2,0,.2-.2,0-.2s-.1.2,0,.2Z" transform="translate(-554.2 -448.1)" fill="#fff200"/><path d="M568.4,459.2h-.1a.1.1,0,0,1,.2,0h-.1Zm0-.2a.1.1,0,0,0-.1.1h.2a.1.1,0,0,0-.1-.1Z" transform="translate(-554.2 -448.1)"/><path d="M567.8,459.2c-.2,0-.2.2,0,.2S567.9,459.2,567.8,459.2Z" transform="translate(-554.2 -448.1)" fill="#fff200"/><path d="M567.8,459.4h0a.1.1,0,0,1,.1.1h-.1Zm0-.2c-.1,0-.1,0-.1.1h.2a.1.1,0,0,0-.1-.1Z" transform="translate(-554.2 -448.1)"/><path d="M568.2,459.2c-.2,0-.2.1,0,.1S568.3,459.2,568.2,459.2Z" transform="translate(-554.2 -448.1)" fill="#fff200"/><path d="M568.2,459.3Zm0-.1c-.1,0-.1,0-.1.1h.1Z" transform="translate(-554.2 -448.1)"/><path d="M567.6,458.9c-.1,0-.1.2,0,.2s.1-.1,0-.2Z" transform="translate(-554.2 -448.1)" fill="#fff200"/><path d="M567.6,459.1h0a.1.1,0,0,1-.1-.1h.1a.1.1,0,0,1,.1.1h-.1Zm0-.2h-.1a.1.1,0,0,0,.1.1h0Z" transform="translate(-554.2 -448.1)"/><path d="M567.5,459c-.1,0-.2.1-.1.2S567.6,459.1,567.5,459Z" transform="translate(-554.2 -448.1)" fill="#fff200"/><path d="M567.5,459.2h0c.1,0,.1.1.1.2Zm0-.2h.1c0-.1,0-.2-.1-.2Z" transform="translate(-554.2 -448.1)"/><path d="M567.6,459.1c-.1,0-.1.2,0,.2s.1-.1,0-.2Z" transform="translate(-554.2 -448.1)" fill="#fff200"/><path d="M567.6,459.3h0a.1.1,0,0,1-.1-.1h.1Zm0-.2h-.1a.1.1,0,0,0,.1.1h0Z" transform="translate(-554.2 -448.1)"/><path d="M567.4,458.9c-.1-.1-.2.1,0,.1S567.6,458.9,567.4,458.9Z" transform="translate(-554.2 -448.1)" fill="#fff200"/><path d="M567.5,459h-.1c-.1,0-.1,0-.1-.1h.2s.1.1,0,.1Zm-.1-.2h-.1c0,.1,0,.1.1.1h.1c.1-.1,0-.1-.1-.1h0Z" transform="translate(-554.2 -448.1)"/><path d="M567.6,458.8c-.1-.1-.2.1-.1.2S567.7,458.8,567.6,458.8Z" transform="translate(-554.2 -448.1)" fill="#fff200"/><path d="M567.6,459h-.1v-.2h.1Zm0-.2h-.1v.2h.1Z" transform="translate(-554.2 -448.1)"/><path d="M567.8,458.8c-.1,0-.2.2-.1.2s.2-.1.1-.2Z" transform="translate(-554.2 -448.1)" fill="#fff200"/><path d="M567.8,459h-.1s-.1-.1,0-.1h.2a.1.1,0,0,1-.1.1Zm0-.2h-.1c-.1,0,0,.1,0,.1s.1.1.1,0a.1.1,0,0,0,.1-.1h-.1Z" transform="translate(-554.2 -448.1)"/><path d="M567.7,459c0-.1-.2.1-.1.2S567.8,459.1,567.7,459Z" transform="translate(-554.2 -448.1)" fill="#fff200"/><path d="M567.7,459.2h-.1a.1.1,0,0,1,.1-.1h0a.1.1,0,0,1,.1.1Zm0-.2h0a.1.1,0,0,0-.1.1h.2a.1.1,0,0,0-.1-.1Z" transform="translate(-554.2 -448.1)"/><path d="M567.8,458.8c-.1,0-.2.2-.1.2S567.9,458.9,567.8,458.8Z" transform="translate(-554.2 -448.1)" fill="#fff200"/><path d="M567.7,459h-.1a.1.1,0,0,1,.1-.1h0Zm0-.2h0c-.1,0-.1.1,0,.1h0Z" transform="translate(-554.2 -448.1)"/><path d="M568,458.8c-.1,0-.2.2,0,.2s.1-.1,0-.2Z" transform="translate(-554.2 -448.1)" fill="#fff200"/><path d="M568,459.1h0Zm0-.3h0c0,.1.1.1.1,0H568Z" transform="translate(-554.2 -448.1)"/><path d="M567.7,458.6c-.1,0-.1.1,0,.1s.1-.1,0-.1Z" transform="translate(-554.2 -448.1)" fill="#fff200"/><path d="M567.7,458.7Zm0-.1Z" transform="translate(-554.2 -448.1)"/><path d="M567.7,458.9" transform="translate(-554.2 -448.1)" fill="#fff200"/><path d="M567.7,458.9" transform="translate(-554.2 -448.1)" fill="none" stroke="#000" stroke-width="0.05"/><path d="M571.3,460.6h-.2c0-.1,0-.1-.1-.1a.1.1,0,0,1,.1.1h0a.1.1,0,0,0-.1-.1h0c.1,0,.1,0,.1.1h.2Zm-.1-.1h0Zm-.6-.1h.5c.1-.1.1-.1.1-.2h0v.2h0c-.1,0-.2,0-.2.1s.1,0,.1,0h0a.1.1,0,0,0-.2,0Zm.2-.1Zm0-.1h.1c0-.1,0-.2.1-.2h0c-.1,0-.1.1-.1.2h-.1Zm.2,0Zm.4,0Zm-.3-.2h.1a.1.1,0,0,0-.1.1Zm.9-.8h0V459h0v-.2h0v.2h0c0-.1.1-.1.1-.2h0v-.2h0v.2h0c0,.1-.1.1-.1.2a.1.1,0,0,1,.1-.1h-.1Zm.1-.1Zm-.1-.1h0v-.2h0a.1.1,0,0,1-.1-.1h.1v-.2h0v-.1h0v.1h0v.2h0Zm-.1,0c0-.1-.1-.1-.1-.2h0l-.2-.2h0v-.2h0v.2h0v.2h.2c0,.1.1.1.1.2Zm.3,0Zm-.3,0h0Zm.5-.2h0s.1-.1.1,0h-.1Zm-.3-.2h0a.3.3,0,0,0,.1-.2h0A.3.3,0,0,1,572.1,458.6Zm-.3,0h0v-.2h0v.2Zm.3-.9h0v-.2h0v.2h0a.3.3,0,0,0,.1-.2h0v-.2h0v.2h0l.2-.2h-.1a.1.1,0,0,0,.1-.1h0a.4.4,0,0,1,.1-.3h0a.4.4,0,0,0-.1.3.1.1,0,0,1,.1-.1h0a.1.1,0,0,0-.1.1.3.3,0,0,0-.1.2h-.1a.4.4,0,0,1-.1.3h.2c-.1,0-.1,0-.1.1h-.1Zm-.1-.1h0a.3.3,0,0,0-.1-.2h-.1l-.2-.2h0l.2.2c0-.1-.1-.1-.1-.2h0a.3.3,0,0,0,.1.2h.1v.2h0Zm-.2-.1h0Zm0-.1h0Zm.3,0c-.1-.1-.1-.1-.1-.2h0V457c0-.1,0-.1-.1-.1h0c.1,0,.1,0,.1.1v-.2h0v.2h0v.2h0a.3.3,0,0,0,.1-.2h0a.3.3,0,0,1-.1.2h0c0,.1,0,.1.1.2Zm-.4-1.2-.2-.3h0l-.2-.2h0a.2.2,0,0,0-.2-.2H571a.1.1,0,0,1,.1.1h0c0-.1,0-.1-.1-.2h0c.1.1.1.1.1.2v-.2h0v.2a.2.2,0,0,1,.2.2h0l.2.2h0l.2.3Zm-.4-.2Zm.3,0h0v-.2h0c0-.1-.1-.1-.1-.2h0a.1.1,0,0,0-.1-.1h0a.1.1,0,0,1,.1.1h0c0-.1-.1-.1-.1-.2h0c0,.1.1.1.1.2h0c0,.1.1.1.1.2h0v.2h0Zm-.3-.1h0Zm-.1,0h-.1a.1.1,0,0,0-.1-.1h0a.1.1,0,0,1,.1.1Zm-.2-.3h-.1c0,.1,0,.1.1.1Zm.3-.2Z" transform="translate(-554.2 -448.1)"/><path d="M568.4,456.4h.2c-.1,0-.2,0-.2-.1h-.2a4.3,4.3,0,0,1-.1.5h-.4c-.1,0-.4-.1-.5.3h.1c.1.1.1.2,0,.2h0a.3.3,0,0,0,.1.2h0v-.2h.1v.2h.1a.3.3,0,0,0,.1-.2h.4v.2h.2a.9.9,0,0,0,.1-.5c0-.2-.1-.3,0-.4Z" transform="translate(-554.2 -448.1)" fill="#ae6219"/><path d="M567.6,457.6h-.1v-.2h-.1v.2h0a.3.3,0,0,1-.1-.2h-.1a.3.3,0,0,1,.1-.2h.8v-.5h.2c0,.1.1.1.2.1h-.2a.2.2,0,0,0,0,.3h0v.3a.3.3,0,0,0-.1.2h-.2v-.2h-.4c0,.1,0,.1-.1.2h0Zm-.1,0h.1c.1-.1.1-.1.1-.2h.4v.2h.1v-.2h0v.2h.1c0-.1.1-.2.1-.3v-.2h0a.2.2,0,0,1,0-.3h.2c-.1,0-.2,0-.2-.1h-.2a4.3,4.3,0,0,1-.1.5h-.4c-.1,0-.4-.1-.5.3h.2c0,.1,0,.1.1.1h0v.2Zm-.1,0h0v-.2h.1c-.1,0-.1,0-.1-.1h-.1c.1.1,0,.1,0,.1h0a.3.3,0,0,0,.1.2Z" transform="translate(-554.2 -448.1)"/><path d="M568.4,456.3Z" transform="translate(-554.2 -448.1)" fill="#231f20"/><path d="M568.4,456.3Zm0,0Z" transform="translate(-554.2 -448.1)"/><path d="M568.3,456.2Z" transform="translate(-554.2 -448.1)"/><path d="M569.6,457.3v.3h.2c-.1,0-.1-.2,0-.3s-.2-.1-.2,0Z" transform="translate(-554.2 -448.1)" fill="#ae6119"/><path d="M569.8,457.6h-.2v-.2h.1a.1.1,0,0,0,.1.1h0c-.1.1-.1.3,0,.3Zm-.2,0h.2c-.1,0-.1-.2,0-.3a.1.1,0,0,1-.1-.1h-.1v.2Z" transform="translate(-554.2 -448.1)"/><path d="M569.6,456.3a.1.1,0,0,0-.2,0c-.1,0-.1.1-.1.2s-.1,0-.1.1-.1,0-.1.1-.1,0-.1.1h.2c-.1,0-.1,0-.1.1h.1c-.1.1,0,.1,0,.1h.1a.1.1,0,0,0,.2,0,.1.1,0,0,0,.1.1h.6c.1,0,.1,0,.1-.1h0c.1-.1.1-.2,0-.2s.1,0,0-.1,0-.1,0-.1h-.1c.1-.1.1-.1,0-.1s0-.1-.1-.1H570c0-.1-.2-.1-.2-.1s-.2,0-.2.1Z" transform="translate(-554.2 -448.1)" fill="#22772d"/><path d="M569.9,457.3h-.3a.1.1,0,0,1-.1-.1c0,.1-.1.1-.1,0h-.3s.1-.1.1,0h.2c.1-.1.1-.1.2,0a.1.1,0,0,1,.1-.1h.2c.1,0,.1,0,.1.1h.1c.1,0,.1,0,.1.1s.1,0,0,.1h.1c0,.1,0,.1-.1.1h-.3Zm-.1,0h.4c.1,0,.1,0,.1-.1h-.1c.1-.1,0-.1,0-.1s0-.1-.1-.1H570c0-.1,0-.1-.1-.1h-.2a.1.1,0,0,0-.1.1h0c-.1-.1-.1-.1-.2,0h-.2c0-.1-.1,0-.1,0h.3c0,.1.1.1.1,0h0a.1.1,0,0,0,.1.1h.2Z" transform="translate(-554.2 -448.1)"/><path d="M569.9,457.3Zm-.2,0h0Zm.4,0Zm-.3-.1Zm.2,0Zm-.5,0Zm.4,0Zm-.4,0h0Zm.3-.1Zm.2,0Zm.2,0Zm-.6,0h.1c-.1,0-.1,0-.1-.1h0c0,.1,0,.1.1.1Zm.1,0Zm-.3,0h-.1c.1.1.1.1.1,0h0Zm.1-.1Zm-.3,0Zm.4,0h0s.1-.1,0-.1h0c.1,0,0,.1,0,.1h0Zm.3,0Zm-.5,0h-.2c.1,0,.1-.1.1,0Zm.4,0Zm.4,0h0Zm-.6,0a.1.1,0,0,0-.1-.1h0a.1.1,0,0,1,.1.1Zm.5-.1h0Zm-.7,0h0Zm.4,0Zm-.6,0Zm.3,0h0Zm.8-.1Zm-.9,0h0c-.1-.1-.1,0-.1,0h0s0-.1.1,0Zm.5,0Zm0,0h0a.1.1,0,0,1-.1.1h0a.1.1,0,0,0,.1-.1h0c.1-.1.1-.1,0-.1h0a.1.1,0,0,1,.1.1Zm.2-.1Zm.2,0h0Zm-1.1,0h0Zm.2,0h0Zm.3,0h0Zm.3-.1h0Zm.1,0Zm-.8,0h0Zm.3,0h.1c.1-.1.1,0,.1,0h0s0-.1-.1,0h-.1Zm-.1-.1h0Zm.5,0h0Zm-.4,0h0Zm-.2,0h0Zm.4,0h.1a.1.1,0,0,1-.1.1Zm.2-.1Zm-.3,0Zm-.2,0Zm.2-.1h0a.1.1,0,0,0,.1-.1h0A.1.1,0,0,1,569.7,456.3Z" transform="translate(-554.2 -448.1)"/><path d="M568.7,455.6h-.3c-.1.1-.2.2-.3.1h.3l.3-.2Z" transform="translate(-554.2 -448.1)" fill="#ce1126"/><path d="M568.2,455.9h-.1c.1.1.2,0,.3-.1h.3l-.3.2Zm-.1,0h.3l.3-.2h-.3l-.3.2Z" transform="translate(-554.2 -448.1)"/><path d="M568.4,455.7h.3c-.1,0-.1,0-.1-.1s-.1.1-.2.2h-.3c.1.1.2,0,.3-.1Z" transform="translate(-554.2 -448.1)" fill="#fff"/><path d="M568.2,455.9h.2c.1-.1.2-.1.2-.2h0c0,.1,0,.1.1.1h-.3Zm-.1-.1c.1.1.2,0,.3-.1h.3c-.1,0-.1,0-.1-.1s-.1.1-.2.2h0c0,.1-.1.1-.2.1Z" transform="translate(-554.2 -448.1)"/><path d="M568.4,455.7c.1-.1.2-.1.2-.2h0l-.2.2h0Z" transform="translate(-554.2 -448.1)" fill="#ce1126"/><path d="M568.2,455.8h.2l.2-.2h0c0,.1-.1.1-.2.2h0C568.4,455.8,568.3,455.8,568.2,455.8Zm-.1,0h.3c.1-.1.2-.1.2-.2h0l-.2.2h-.3Z" transform="translate(-554.2 -448.1)"/><path d="M568.6,455.6h0c-.1,0-.1,0-.1-.1s-.1-.2,0-.2-.1,0-.1.1a.4.4,0,0,0,.2.3Z" transform="translate(-554.2 -448.1)" fill="#ce1126"/><path d="M568.6,455.6h0l-.2-.2h0c0-.1,0-.1.1-.1h0a.1.1,0,0,0,.1.1h0Zm-.1-.4c-.1,0-.1,0-.1.1h0l.2.2h0a.1.1,0,0,1-.1-.1h-.1A.1.1,0,0,1,568.5,455.2Z" transform="translate(-554.2 -448.1)"/><path d="M568.7,455.6h-.1a.4.4,0,0,1-.2-.3h-.1c0,.1.1.3.4.3Z" transform="translate(-554.2 -448.1)" fill="#fff"/><path d="M568.6,455.6a.1.1,0,0,1-.1-.1h-.1v-.2h.1l.2.2Zm-.2-.3h-.1v.2h.1c0,.1.1.1.2.1h-.1l-.2-.2Z" transform="translate(-554.2 -448.1)"/><path d="M568.7,455.6c-.3,0-.4-.2-.4-.3v.2h.4Z" transform="translate(-554.2 -448.1)" fill="#ce1126"/><path d="M568.6,455.6h-.3v-.2h0v.2h.1c0,.1.1.1.2.1h-.1Zm-.3-.3v.2h.4c-.1,0-.2,0-.2-.1h-.1Z" transform="translate(-554.2 -448.1)"/><path d="M569.3,455.9l-.3-.2h0l.4.2Z" transform="translate(-554.2 -448.1)" fill="#ce1126"/><path d="M569.3,455.9l-.3-.2h0l.3.2Zm-.5-.3h.2l.3.2h0l-.3-.2Z" transform="translate(-554.2 -448.1)"/><path d="M569.1,455.7l-.3-.2h.2l.3.2h0c-.1,0-.2,0-.2-.1Z" transform="translate(-554.2 -448.1)" fill="#fff"/><path d="M569.3,455.9h-.5l.3.2h.2Zm-.5-.3h.2l.3.2h-.2l-.3-.2Z" transform="translate(-554.2 -448.1)"/><path d="M568.8,455.5l.3.2c0,.1.1.1.2.1h-.2l-.3-.2Z" transform="translate(-554.2 -448.1)" fill="#ce1126"/><path d="M569.3,455.8h-.2l-.3-.2h0l.3.2h.2Zm-.5-.3.3.2h0l-.3-.2Z" transform="translate(-554.2 -448.1)"/><path d="M569.1,455.2h-.2c.1-.1.2-.1.2,0s0,.2-.3.2h0c.2,0,.4-.2.3-.3Z" transform="translate(-554.2 -448.1)" fill="#ce1126"/><path d="M568.8,455.5h0c.1,0,.3,0,.3-.2h0a.1.1,0,1,0-.2,0h0c0-.1.1-.1.2-.1h0C569.1,455.4,569,455.5,568.8,455.5Zm0,0h0c.2,0,.3-.1.3-.2H569a.1.1,0,0,1,.1.1h0C569.1,455.4,569,455.5,568.8,455.5Z" transform="translate(-554.2 -448.1)"/><path d="M569.1,455.3l-.3.2h0c.3,0,.3-.2.3-.2s-.1-.1-.2,0h0c.1-.1.1-.1.2,0Z" transform="translate(-554.2 -448.1)" fill="#fff"/><path d="M568.8,455.5h0c.2,0,.2-.1.3-.2h0c-.1-.1-.1-.1-.2,0h0a.1.1,0,1,1,.2,0h0c0,.1-.1.2-.3.2Zm0,0h0c.1,0,.3,0,.3-.2h0a.1.1,0,0,0-.1-.1h.1C569,455.4,569,455.5,568.8,455.5Z" transform="translate(-554.2 -448.1)"/><path d="M568.8,455.5l.3-.2c-.1-.1-.1-.1-.2,0s.1,0,.1,0,0,.2-.2.2Z" transform="translate(-554.2 -448.1)" fill="#ce1126"/><path d="M568.8,455.5h.2c-.1,0-.1,0-.1.1h0c.1-.1.1-.1.2,0h0C569,455.4,569,455.5,568.8,455.5Zm0,0h0c.2,0,.2-.1.3-.2h-.3Z" transform="translate(-554.2 -448.1)"/><path d="M568.8,455.5Z" transform="translate(-554.2 -448.1)" fill="#fff"/><path d="M568.8,455.5Zm0,0Z" transform="translate(-554.2 -448.1)"/><path d="M568.8,455.5Z" transform="translate(-554.2 -448.1)" fill="#fff"/><path d="M568.8,455.5Zm0,0Zm0,0Z" transform="translate(-554.2 -448.1)"/><path d="M568.8,455.5Z" transform="translate(-554.2 -448.1)" fill="#fff"/><polygon points="14.6 7.4 14.6 7.4 14.6 7.4 14.6 7.4 14.6 7.4 14.6 7.4 14.6 7.4"/><path d="M569,455.3c-.1-.1-.2.1-.2.2h0c.1-.1.2-.3.2-.2Z" transform="translate(-554.2 -448.1)" fill="#ce1126"/><path d="M568.8,455.5h0a.2.2,0,0,1,.2-.2h-.1c0,.1-.1.1-.1.2Zm0,0h0a.2.2,0,0,1,.2-.2h0A.2.2,0,0,0,568.8,455.5Z" transform="translate(-554.2 -448.1)"/><path d="M568.8,455.5Z" transform="translate(-554.2 -448.1)" fill="#fff"/><polygon points="14.6 7.4 14.6 7.4 14.6 7.4 14.6 7.4 14.6 7.4"/><path d="M568.8,455.5Z" transform="translate(-554.2 -448.1)" fill="#fff"/><polygon points="14.6 7.4 14.6 7.4 14.6 7.4 14.6 7.4 14.6 7.4 14.6 7.4 14.6 7.4 14.6 7.4 14.6 7.4"/><path d="M568.8,455.5Z" transform="translate(-554.2 -448.1)" fill="#fff"/><polygon points="14.6 7.4 14.6 7.4 14.6 7.4 14.6 7.4 14.6 7.3 14.6 7.3 14.6 7.4 14.6 7.4 14.6 7.4"/><path d="M568.8,455.5Z" transform="translate(-554.2 -448.1)" fill="#fff"/><polygon points="14.6 7.4 14.6 7.4 14.6 7.4 14.6 7.4 14.6 7.4 14.6 7.4 14.6 7.4 14.6 7.4 14.6 7.4 14.6 7.4 14.6 7.4"/><path d="M568.8,455.5Z" transform="translate(-554.2 -448.1)" fill="#fff"/><polygon points="14.6 7.3 14.6 7.3 14.6 7.3 14.6 7.3 14.6 7.3 14.6 7.3 14.6 7.3"/><path d="M568.8,455.5Z" transform="translate(-554.2 -448.1)" fill="#fff"/><polygon points="14.6 7.3 14.6 7.3 14.6 7.3 14.6 7.3 14.6 7.3 14.6 7.3 14.6 7.3 14.6 7.3 14.6 7.3 14.6 7.3 14.6 7.3 14.6 7.3 14.6 7.3"/><path d="M568.8,455.5Z" transform="translate(-554.2 -448.1)" fill="#fff"/><polygon points="14.6 7.4 14.6 7.4 14.6 7.4 14.6 7.4 14.6 7.3 14.6 7.3 14.6 7.3 14.6 7.3 14.6 7.3 14.6 7.3 14.6 7.3 14.6 7.3 14.6 7.3 14.6 7.4"/><path d="M568.8,455.5h0c0-.1.1-.3.2-.2h0c-.1,0-.2.2-.2.3Z" transform="translate(-554.2 -448.1)" fill="#fff"/><path d="M568.8,455.5h0c0-.1.1-.3.2-.3h0a.2.2,0,0,0-.2.2Zm.2-.3c-.1.1-.2.2-.2.3h0a.2.2,0,0,1,.2-.2h0Z" transform="translate(-554.2 -448.1)"/><path d="M568.8,455.5c0-.1.1-.3.2-.3a.1.1,0,0,0-.1.1h-.1Z" transform="translate(-554.2 -448.1)" fill="#ce1126"/><path d="M568.8,455.5h.1a.1.1,0,0,1,.1-.1h0c-.1.1-.2.2-.2.3Zm0-.1h0c0-.1.1-.2.2-.3s-.1,0-.1.1Z" transform="translate(-554.2 -448.1)"/><path d="M568.7,455.5c0-.1,0-.2-.1-.2h0a.1.1,0,0,1,.1.1Z" transform="translate(-554.2 -448.1)" fill="#ce1126"/><path d="M568.7,455.5h0a.1.1,0,0,0-.1-.1h0c.1,0,.1.1.1.2Zm-.2-.1h.1a.1.1,0,0,1,.1.1h0c0-.1,0-.2-.1-.2h-.1Z" transform="translate(-554.2 -448.1)"/><path d="M568.7,455.5Z" transform="translate(-554.2 -448.1)" fill="#fff"/><path d="M568.7,455.5Z" transform="translate(-554.2 -448.1)"/><path d="M568.6,455.3c.1,0,.1.1.1.2h0c0-.1,0-.2-.1-.2h0Z" transform="translate(-554.2 -448.1)" fill="#fff"/><path d="M568.7,455.5h0c0-.1,0-.2-.1-.2h.1Zm0,0h-.1C568.7,455.3,568.7,455.4,568.7,455.5Z" transform="translate(-554.2 -448.1)"/><path d="M568.6,455.3c.1,0,.1.1.1.2h.1c-.1-.2-.1-.3-.3-.3a.1.1,0,0,0-.1.1Z" transform="translate(-554.2 -448.1)" fill="#ce1126"/><path d="M568.7,455.5h0a.3.3,0,0,1,.1.2h-.1Zm0,0h.1v-.2h0Z" transform="translate(-554.2 -448.1)"/><path d="M568.7,455.5h-.1a.1.1,0,0,0,.1.1h0c.1,0,0-.1,0-.1Z" transform="translate(-554.2 -448.1)" fill="#ce1126"/><path d="M568.7,455.6h0a.1.1,0,0,1-.1-.1h.1Zm0-.1h-.1a.1.1,0,0,0,.1.1h0Z" transform="translate(-554.2 -448.1)"/><path d="M568.8,455.5Z" transform="translate(-554.2 -448.1)" fill="#ce1126"/><path d="M568.8,455.6Zm0,0Z" transform="translate(-554.2 -448.1)"/><path d="M568.8,455.6h-.1s.1.1,0,.1Z" transform="translate(-554.2 -448.1)" fill="#fff"/><path d="M568.7,455.6Zm0-.1Zm.1.1Z" transform="translate(-554.2 -448.1)"/><path d="M568.2,455.6h.1a.1.1,0,0,1-.1.1Zm1-.1Zm-.3,0Zm-.8,0Zm1.4,0h0Zm-1.3,0h0Zm-.1-.1h0a.1.1,0,0,0-.1-.1h0a.1.1,0,0,1,.1.1Zm0,0h0Zm1.1,0Zm.2,0Zm.1,0Zm-.1-.1h0a.1.1,0,0,0,.1-.1h0A.1.1,0,0,1,569.4,455.3Zm-1.6,0h0Zm0,0v-.2h0v.2Zm1.9,0h0a.1.1,0,0,1,.1-.1h0A.1.1,0,0,0,569.7,455.3Zm-.1-.1h0Zm.1,0Zm-1.8,0h0Zm-.2-.1h0Zm2.1,0h0a.1.1,0,0,0,.1-.1h0a.1.1,0,0,1-.1.1Zm-2-.1h0a.1.1,0,0,1,.1-.1v-.2h0v.2A.1.1,0,0,0,567.8,455Zm1.9,0c0-.1,0-.1-.1-.2h0a.1.1,0,0,0,.1.1v.2Zm-1.9-.1h0Zm-.1,0h0c0-.1-.1-.1-.1-.2h0c0,.1.1.1.1.2Zm2,0h0Zm.1,0h0v-.2h0Zm0-.2h0v-.2h-.2a.1.1,0,0,0-.1-.1h0a.1.1,0,0,1,.1.1h.2v.2Zm-2,0h0a.1.1,0,0,1,.1-.1h0a.1.1,0,0,0-.1.1Zm0-.2Zm.2,0Zm-.1,0h0c0-.1.1-.1.2-.2h0C568,454.4,567.9,454.4,567.9,454.5Zm1.7-.1Zm-.1,0h0Zm-1.3-.1Zm1.2,0Zm-1.4,0h0c0-.1,0-.1.1-.1h0c-.1,0-.1,0-.1.1Zm1.1,0Zm.4,0a.1.1,0,0,1-.1-.1h0a.1.1,0,0,0,.1.1Zm-.6,0Zm-.7,0h0a.1.1,0,0,1,.1-.1h0A.1.1,0,0,0,568.2,454.3Zm-.1-.1Zm.3,0Zm.8,0h0Zm0,0Zm-.2-.1Z" transform="translate(-554.2 -448.1)"/></svg>