<svg xmlns="http://www.w3.org/2000/svg" xmlns:xlink="http://www.w3.org/1999/xlink" viewBox="0 0 33.6 19.6"><defs><clipPath id="a"><rect width="33.6" height="19.58" fill="none"/></clipPath></defs><title>PRT</title><g clip-path=""><rect x="11.7" width="21.8" height="19.58" fill="#ea0020"/><rect width="11.7" height="19.58" fill="#2a680b"/><g clip-path=""><path d="M15.6,12.8c-1.5,0-8.3-4.3-8.3-5l.4-.6c.7,1,7.6,5.1,8.3,4.9l-.4.6Z" fill="#fcff2c"/><path d="M7.6,7.2c-.1.4,1.8,1.5,4.1,2.9A15.7,15.7,0,0,0,16,12.2h-.1A22.8,22.8,0,0,1,11.7,10a19,19,0,0,1-4-2.8H7.6Zm8,5.7h-.2a17.8,17.8,0,0,1-4.2-2.1c-2.3-1.4-4.2-2.6-4-3h.1c-.2.6,3.8,2.8,4,3,2.3,1.4,4.2,2.2,4.4,2Z" fill="#fcff2c"/><path d="M15.5,12.9h-.1a17.8,17.8,0,0,1-4.2-2.1c-2.6-1.6-3.9-2.5-4-2.9a.1.1,0,0,1,0-.1h0c.1.4,1.4,1.3,4,2.9a17.7,17.7,0,0,0,4.2,2.1h.1a14.8,14.8,0,0,1-4.3-2.1h-.2C8.6,9.1,7.3,8.2,7.3,7.8s.7.9,3.9,2.8h.2a14.8,14.8,0,0,0,4.3,2.1h0Zm.5-.7a18.5,18.5,0,0,1-4.4-2.1C9.1,8.6,7.4,7.5,7.5,7.2h0c-.1.4,2.1,1.7,4,2.9A18.5,18.5,0,0,0,16,12.2h-.1A23.4,23.4,0,0,1,11.7,10c-1.8-1.1-3.7-2.3-4-2.8h0c.3.5,2.3,1.8,4,2.8a23,23,0,0,0,4.2,2.1h.2s0,0,0,.1Z"/><path d="M11.7,8.3a13.9,13.9,0,0,0,4.4-.6l-.2-.4a12.3,12.3,0,0,1-4.1.6c-2,0-3.4-.2-4.1-.7l-.2.4a10.7,10.7,0,0,0,4.3.7Z" fill="#fcff2c"/><path d="M16.2,7.7l-1.7.5-2.7.2L9.2,8.2a7.5,7.5,0,0,1-1.8-.5h.1l1.8.5,2.6.2L14.4,8a4.3,4.3,0,0,0,1.7-.5ZM16,7.3a5.3,5.3,0,0,1-1.7.4l-2.6.2L9.3,7.8a6.7,6.7,0,0,1-1.7-.4h.1a5.8,5.8,0,0,0,1.7.4l2.5.2,2.5-.2a4.5,4.5,0,0,0,1.6-.5Z" fill="#fcff2c"/><path d="M11.7,8.3,9.2,8.2a7.6,7.6,0,0,1-1.8-.5h0L9.2,8l2.5.2L14.4,8a4.4,4.4,0,0,0,1.7-.5h.1a5.5,5.5,0,0,1-1.7.5l-2.7.2ZM7.4,7.6h0a9,9,0,0,0,1.8.5l2.5.2h0l2.7-.2,1.7-.5h-.1a3.8,3.8,0,0,1-1.7.5l-2.7.2L9.2,8.1,7.4,7.6Zm4.3.3L9.3,7.8a6.7,6.7,0,0,1-1.6-.4h0a5.7,5.7,0,0,0,1.7.4l2.4.2,2.6-.2a4.5,4.5,0,0,0,1.6-.4H16a4.5,4.5,0,0,1-1.7.5l-2.6.2ZM7.6,7.2h0a6.6,6.6,0,0,0,1.6.4l2.4.2h0l2.6-.2A5.1,5.1,0,0,0,16,7.3h-.1a3.9,3.9,0,0,1-1.6.5l-2.5.2L9.3,7.7a5.7,5.7,0,0,1-1.7-.4Z"/><path d="M6.9,10.1a12.7,12.7,0,0,0,4.8.8,13.7,13.7,0,0,0,4.9-.7V9.6c-.3.4-2.7.8-4.9.8a11.8,11.8,0,0,1-4.8-.8v.4Z" fill="#fcff2c"/><path d="M16.6,10h0a5.3,5.3,0,0,1-1.9.5l-3,.2-2.8-.2a7.1,7.1,0,0,1-2-.5h0a7.4,7.4,0,0,0,2.1.6l2.8.2,3-.2a6.2,6.2,0,0,0,1.9-.6Zm0-.4h0a5.3,5.3,0,0,1-1.9.5l-3,.2-2.8-.2a7.1,7.1,0,0,1-2-.5h0a7.3,7.3,0,0,0,2,.6l2.8.2,3-.2a6.1,6.1,0,0,0,1.9-.6Z" fill="#fcff2c"/><path d="M11.7,10.9l-2.8-.2a7.1,7.1,0,0,1-2-.6h0a8.1,8.1,0,0,0,2.1.6l2.8.2,3-.2a6.2,6.2,0,0,0,1.9-.6h0a5.1,5.1,0,0,1-1.9.6l-3,.2ZM6.8,10h0a7.6,7.6,0,0,0,2,.5l2.8.2,3-.2a5.5,5.5,0,0,0,1.9-.5h0a5.6,5.6,0,0,1-1.9.6l-3,.2-2.8-.2A7.1,7.1,0,0,1,6.8,10Zm4.9.5-2.8-.2a7.1,7.1,0,0,1-2-.6h0a8,8,0,0,0,2.1.6l2.8.2,3-.2a6.2,6.2,0,0,0,1.9-.6h0a5.1,5.1,0,0,1-1.9.6l-3,.2ZM6.8,9.6h0a7.5,7.5,0,0,0,2,.5l2.8.2,3-.2a5.4,5.4,0,0,0,1.9-.5h0a5.5,5.5,0,0,1-1.9.6l-3,.2-2.8-.2a7.1,7.1,0,0,1-2.1-.6Z"/><path d="M11.7,12.7a16.8,16.8,0,0,1-4.3-.7l.3.4a11.4,11.4,0,0,0,4,.7,10.2,10.2,0,0,0,4-.6l.3-.4a15.1,15.1,0,0,1-4.3.7Z" fill="#fcff2c"/><path d="M15.8,12.4v.2l-1.5.4-2.5.2a11.8,11.8,0,0,1-4.1-.7h0a13.1,13.1,0,0,0,4,.7l2.4-.2,1.6-.4Zm.2-.4h0v.2l-1.9.4-2.3.2a16,16,0,0,1-4.3-.6H7.4a18.2,18.2,0,0,0,4.4.6l2.3-.2,1.9-.4h.1Z" fill="#fcff2c"/><path d="M11.7,13.2h0a11.7,11.7,0,0,1-4.1-.7h.1a12.9,12.9,0,0,0,4,.7h0l2.4-.2,1.6-.4h.1v.2l-1.5.4-2.5.2Zm-4.1-.8h.1a12,12,0,0,0,4.1.7l2.5-.2,1.5-.4h.1l-1.6.4-2.4.2h0a13.2,13.2,0,0,1-4.1-.7Zm4.2.4h0a16.1,16.1,0,0,1-4.3-.6H7.4a19.4,19.4,0,0,0,4.4.6l2.1-.2h.2l1.9-.4h0l-1.9.4h-.2l-2.1.2a18.3,18.3,0,0,1-4.4-.6h.1a16.3,16.3,0,0,0,4.3.6l2-.2h.3l1.9-.4v0l-1.9.4h-.3l-2,.2Z"/><path d="M11.7,5.4A4.4,4.4,0,1,1,7.4,9.8a4.4,4.4,0,0,1,4.3-4.4Zm0-.4A4.8,4.8,0,1,1,7,9.8,4.8,4.8,0,0,1,11.7,5Z" fill="#fcff2c"/><path d="M11.7,4.9A4.8,4.8,0,1,1,6.9,9.8a4.9,4.9,0,0,1,4.8-4.8Zm0,.1A4.7,4.7,0,1,1,7,9.8a4.8,4.8,0,0,1,4.7-4.7Z" fill="#fcff2c"/><path d="M11.7,14.7a4.9,4.9,0,1,1,4.9-4.9,4.9,4.9,0,0,1-4.9,4.9Zm0-9.7a4.8,4.8,0,1,0,4.8,4.8A4.8,4.8,0,0,0,11.7,5Zm0,9.6a4.8,4.8,0,1,1,4.7-4.8,4.8,4.8,0,0,1-4.7,4.8Zm0-9.5a4.7,4.7,0,1,0,4.7,4.7,4.7,4.7,0,0,0-4.7-4.7Z"/><path d="M11.7,5.4A4.4,4.4,0,1,1,7.3,9.8a4.5,4.5,0,0,1,4.4-4.4Zm0,.1A4.3,4.3,0,1,1,7.4,9.8a4.3,4.3,0,0,1,4.3-4.3Z" fill="#fcff2c"/><path d="M11.7,14.2a4.5,4.5,0,1,1,4.4-4.5,4.5,4.5,0,0,1-4.4,4.5Zm0-8.9a4.4,4.4,0,1,0,4.4,4.4,4.4,4.4,0,0,0-4.4-4.4Zm0,8.8a4.3,4.3,0,1,1,4.3-4.3,4.4,4.4,0,0,1-4.3,4.3Zm0-8.7a4.3,4.3,0,1,0,4.3,4.3,4.3,4.3,0,0,0-4.3-4.3Z"/><rect x="11.5" y="4.9" width="0.4" height="9.75" fill="#fcff2c"/><path d="M11.6,4.9h0Z" fill="none"/><path d="M11.6,14.7h0Z" fill="none"/><path d="M11.9,4.9H12v9.9h-.1V4.9Zm-.4,0h.1v9.9h-.1V4.9Z" fill="#fcff2c"/><path d="M12,14.7h-.1V4.9H12v9.9h0Zm0-9.9h-.1v9.8H12V4.9Zm-.4,9.9h-.1V4.9h.1v9.9h0Zm0-9.9h-.1v9.8h.1V4.9Z"/><path d="M6.9,9.6c.6-.6,2.8-.9,4.8-.9s4.3.4,4.9.9V10c-.4-.4-2.3-.9-4.9-.9s-4.5.5-4.8.9V9.6Z" fill="#fcff2c"/><path d="M6.9,10V9.6h0V10Z"/><path d="M16.6,10V9.6h0V10Z"/><path d="M11.7,9a17,17,0,0,1,3.1.3,3.6,3.6,0,0,1,1.8.7h0a3.9,3.9,0,0,0-1.8-.7,16.5,16.5,0,0,0-3.1-.3,17.4,17.4,0,0,0-3.2.3c-.7.1-1.6.4-1.7.7h0c.1-.2.7-.5,1.7-.7A17.3,17.3,0,0,1,11.7,9Zm0-.4a16.9,16.9,0,0,1,3.1.3,3.7,3.7,0,0,1,1.8.7h0A3.9,3.9,0,0,0,14.9,9a16.5,16.5,0,0,0-3.1-.3A17.4,17.4,0,0,0,8.6,9c-.7.1-1.6.4-1.7.7h0a3.2,3.2,0,0,1,1.7-.7,17.4,17.4,0,0,1,3.2-.3Z" fill="#fcff2c"/><path d="M6.8,10.1h0c.1-.2.8-.5,1.7-.7L11.7,9l3.1.3a3.6,3.6,0,0,1,1.8.7h0a4.3,4.3,0,0,0-1.8-.7l-3.1-.3-3.2.3c-.8.2-1.6.4-1.7.7Zm4.9-1,3.1.3a4,4,0,0,1,1.8.7h0a3.7,3.7,0,0,0-1.8-.7l-3.1-.3a17.5,17.5,0,0,0-3.2.3c-1,.2-1.6.5-1.7.6h0a4,4,0,0,1,1.7-.6l3.2-.3Zm-4.9.6h0c.1-.2.8-.5,1.7-.7l3.2-.3,3.1.3a3.6,3.6,0,0,1,1.8.7h0A4.3,4.3,0,0,0,14.8,9l-3.1-.3L8.6,9c-.8.1-1.6.4-1.7.7Zm4.9-1,3.1.3a4,4,0,0,1,1.8.7h0a3.7,3.7,0,0,0-1.8-.7l-3.1-.3-3.2.3a3.2,3.2,0,0,0-1.7.6h0A3.9,3.9,0,0,1,8.6,9l3.2-.3Z"/><path d="M11.7,6.5a10.4,10.4,0,0,1,4.1.6l.3.5a10.5,10.5,0,0,0-4.4-.6,11,11,0,0,0-4.3.7l.3-.5a11,11,0,0,1,4-.6Z" fill="#fcff2c"/><path d="M15.9,7.2l.2.3Z" fill="none"/><path d="M11.7,6.9l2.8.2,1.5.5h.1l-1.6-.5L11.7,7l-2.8.2a5,5,0,0,0-1.5.5h.1l1.4-.4,2.9-.2Zm0-.4,2.7.2,1.4.5v.2a3.7,3.7,0,0,0-1.6-.5l-2.7-.2L9,6.8l-1.4.4V7L9,6.7l2.7-.2Z" fill="#fcff2c"/><path d="M16.2,7.7h0l-1.6-.5L11.8,7h-.2l-2.7.2a5,5,0,0,0-1.5.5V7.5l1.4-.4,2.9-.2h.1l2.8.2,1.5.5h.1Zm-4.4-.8h-.1l-2.9.2-1.4.4H7.4a4,4,0,0,1,1.5-.5L11.6,7h.2l2.7.2,1.6.5h0l-1.5-.4-2.7-.2Zm4.2.4h0a3.8,3.8,0,0,0-1.6-.5l-2.7-.2L9,6.8l-1.3.4V7L9,6.7l2.7-.2h.1l2.6.2,1.4.5v.2h0Zm-4.2-.8,2.7.2a4.5,4.5,0,0,1,1.5.5h-.1l-1.4-.5-2.6-.2h-.1L9,6.7l-1.2.4H7.7L9,6.8l2.7-.2Z"/><path d="M14.1,11.8a12.4,12.4,0,0,0-2.4-.2c-3,0-4,.6-4.1.8l-.2-.4a8.1,8.1,0,0,1,4.3-.8l2.6.2-.2.4Z" fill="#fcff2c"/><path d="M7.5,12.1v0Z" fill="none"/><path d="M11.7,11.6l2.4.2h-.1l-2.4-.2a11.5,11.5,0,0,0-3.2.4c-.3.1-.8.3-.9.4H7.6c0-.1.3-.3.9-.5a11.7,11.7,0,0,1,3.2-.4Zm0-.4,2.6.2h-.1l-2.6-.2a12.3,12.3,0,0,0-3.4.4c-.3.1-.9.3-1,.5H7.4c0-.2.5-.4,1-.5a12.4,12.4,0,0,1,3.4-.4Z" fill="#fcff2c"/><path d="M7.6,12.5H7.6c0-.1.3-.3.9-.5a11.5,11.5,0,0,1,3.2-.4l2.5.2h0l-2.3-.2h-.2a11.2,11.2,0,0,0-3.1.4c-.3.1-.8.3-.9.4h0Zm4.1-.9a11.4,11.4,0,0,0-3.2.4c-.6.2-.9.4-.9.4h0c.1-.2.7-.4.9-.4a11.4,11.4,0,0,1,3.1-.4h.2l2.3.2h0l-2.4-.2Zm-4.3.6H7.4c0-.2.8-.5,1-.5a12.2,12.2,0,0,1,3.4-.4l2.6.2h-.1l-2.6-.2a12,12,0,0,0-3.4.4c-.4.1-.9.3-1,.5h0Zm4.3-1a12.1,12.1,0,0,0-3.4.4c-.6.2-1,.4-1,.5h0c.1-.2.9-.4,1-.5a12.1,12.1,0,0,1,3.4-.4l2.6.2h0l-2.6-.2Z"/><path d="M10.9,11.4h0Zm0,0h0Zm.1,0h0Zm.1,0h0Zm0,0h0Zm.1,0h0Zm0,0h0Zm.1,0h0Zm.1,0h0Zm0,0h0Zm.1,0h0Zm.1,0h0Zm0,0h0Zm0,0h0Zm.1,0h0Zm0,0h0Zm.1,0h0Zm0-.1h0Zm0,.1h0Zm0,0h0Zm.1-.1h0Zm0,.1h0Zm0,0h0Zm.1,0h0Zm0,0h0Zm.1,0h0Zm0,0h0Zm.1,0h0Zm0,0h0Zm.1,0h0Zm.1,0h0Zm0,0h0Zm.1,0h0Zm.1,0h0Zm0-.1h0Zm.1,0h0Zm0,0h0Zm.1,0h0Zm0,.1h0Zm.1,0h0Zm.1,0h0Zm0,0h0Zm.1,0h0Zm0,0h0Zm.1.1h.1a0,0,0,0,1,0,0h-.1Zm0-.1h0a0,0,0,0,0,0,0h0Zm0,0h0Zm0,0h0Zm0,0h0Zm.1,0h0Zm0,.1h0Zm.1,0h0Zm0,0h0Z"/><path d="M13,11.5h0a0,0,0,0,0,0,0h0Zm0,0h0Zm0,0h.1a0,0,0,0,1,0,0H13a0,0,0,0,1,0,0Zm0,0s0,0,0,0h0a0,0,0,0,0,0,0h0Zm.1,0h0Zm0,0h0a.1.1,0,0,0,0,0h0Zm.1,0h0Zm0,0h0Zm.2,0h0Zm0,0h.1a0,0,0,0,1,0,0h-.1Zm0,0a0,0,0,0,0,0,0h0Zm0,0h0Zm.1,0h0Zm0,0h0s0,0,0,0h0Zm.1,0h0Zm0,0h0s0,0,0,0h0Zm.1,0h0Zm0,0h0Zm0,0h0Zm.1,0h.1a0,0,0,0,1,0,0h-.1a0,0,0,0,1,0,0Zm0,0a0,0,0,0,0,0,0h0s0,0,0,0h0Z"/><path d="M14.1,11.9h0l.3-.5h0l-.3.5Z" fill="#ea0020"/><path d="M7.7,7.1c1.5,0,8.4,4.2,8.4,5l-.4.7c-.2-.9-7.2-5-8.3-4.9l.4-.7Z" fill="#fcff2c"/><path d="M15.7,12.7l.3-.6h0l-.4.6Z"/><path d="M7.3,7.7l.3-.6h0l-.3.6Z"/><path d="M7.3,7.7c.3-.2,2.3.7,4.4,2s4.1,2.7,4,3h-.1s0,0,0-.1S14,11.3,11.7,9.8s-4.3-2.2-4.5-2Zm8.8,4.4c.2-.3-1.7-1.8-4-3.1S7.9,6.8,7.6,7h.1a15,15,0,0,1,4.3,2c1,.6,4,2.5,4,3.1h.1Z" fill="#fcff2c"/><path d="M15.6,12.9h0s0,0,0-.1a15.6,15.6,0,0,0-3.9-2.9,15.4,15.4,0,0,0-4.3-2h0a15.4,15.4,0,0,1,4.3,2c1.9,1.2,3.9,2.5,4,2.9h-.1ZM7.3,7.8a15.4,15.4,0,0,1,4.3,2c2.3,1.4,3.8,2.6,3.9,2.9h.1c-.1-.4-2.1-1.8-4-2.9a15.5,15.5,0,0,0-4.3-2h0ZM16,12.2h0c0-.6-3.1-2.6-4-3.1a15.1,15.1,0,0,0-4.2-2h0a15,15,0,0,1,4.3,2c.6.4,4,2.5,4,3.1h0c.2-.3-1.6-1.7-4-3.1S7.9,6.8,7.6,7.1h.2c.7,0,2.7,1.1,4.3,2s4.2,2.8,4,3.2H16Z"/><path d="M8.8,10.3a2.9,2.9,0,0,0,2.9,2.9,2.9,2.9,0,0,0,2.9-2.9h0V6.5H8.8v3.9Z" fill="#fff"/><path d="M11.7,13.2a2.9,2.9,0,0,1-2.9-2.9V6.4h5.8v3.9a2.9,2.9,0,0,1-2.9,2.9Zm2.9-6.8H8.8v3.9a2.9,2.9,0,0,0,2.9,2.9,2.9,2.9,0,0,0,2.9-2.9V6.5Z"/><path d="M8.9,10.3h0a2.8,2.8,0,0,0,.8,2,2.8,2.8,0,0,0,3.9,0,2.8,2.8,0,0,0,.8-2h0V6.6H8.9v3.8Zm4.4-2.6v2.6h0v.2a1.6,1.6,0,0,1-.5,1,1.7,1.7,0,0,1-2.8-1.2V7.7Z" fill="#ea0020"/><path d="M11.7,13.1a2.8,2.8,0,0,1-2.8-2.8V6.6h5.6v3.8a2.8,2.8,0,0,1-2.8,2.8Zm2.8-6.5H8.9v3.7a2.8,2.8,0,0,0,5.5,0V6.6ZM11.7,12a1.7,1.7,0,0,1-1.7-1.7V7.7h3.3v2.9a1.6,1.6,0,0,1-.5,1,1.7,1.7,0,0,1-1.2.5ZM10.1,7.7v2.6a1.6,1.6,0,0,0,2.8,1.2,1.6,1.6,0,0,0,.5-1V7.7Z"/><path d="M11.4,9.9h0a.4.4,0,0,0,.1.3H12a.4.4,0,0,0,.1-.3V9.4h-.7v.5Z" fill="#1a0095"/><path d="M12,9.5h0Z" fill="#fff"/><path d="M11.7,9.7h0Z" fill="#fff"/><path d="M12,9.9h0Z" fill="#fff"/><path d="M11.6,9.9h0Z" fill="#fff"/><path d="M11.6,9.5h0Z" fill="#fff"/><path d="M11.4,11.2h0a.4.4,0,0,0,.1.3H12a.4.4,0,0,0,.1-.3v-.5h-.7v.5Z" fill="#1a0095"/><path d="M11.9,10.8h0Z" fill="#fff"/><path d="M11.7,11h0Z" fill="#fff"/><path d="M11.9,11.2h0Z" fill="#fff"/><path d="M11.6,11.2h0Z" fill="#fff"/><path d="M11.6,10.8h0Z" fill="#fff"/><path d="M10.4,9.9h0a.4.4,0,0,0,.1.3H11a.4.4,0,0,0,.1-.3V9.4h-.7v.5Z" fill="#1a0095"/><path d="M10.9,9.5h0Z" fill="#fff"/><path d="M10.7,9.7h0Z" fill="#fff"/><path d="M10.9,9.9h0Z" fill="#fff"/><path d="M10.5,9.9h0Z" fill="#fff"/><path d="M10.5,9.5h0Z" fill="#fff"/><path d="M12.4,9.9h0a.4.4,0,0,0,.1.3H13a.4.4,0,0,0,.1-.3V9.4h-.7v.5Z" fill="#1a0095"/><path d="M13,9.5h0Z" fill="#fff"/><path d="M12.8,9.7h0Z" fill="#fff"/><path d="M13,9.9h0Z" fill="#fff"/><path d="M12.6,9.9h0Z" fill="#fff"/><path d="M12.6,9.5h0Z" fill="#fff"/><path d="M11.4,8.6h0a.4.4,0,0,0,.1.3H12a.4.4,0,0,0,.1-.3V8.1h-.7v.5Z" fill="#1a0095"/><path d="M12,8.2h0Z" fill="#fff"/><path d="M11.7,8.4h0Z" fill="#fff"/><path d="M12,8.6h0Z" fill="#fff"/><path d="M11.6,8.6h0Z" fill="#fff"/><path d="M11.6,8.2h0Z" fill="#fff"/><path d="M9.3,7.6a.3.3,0,0,1,.2-.3.3.3,0,0,1,.2.3Z" fill="#fcff2c"/><path d="M9.1,7.2v.3h.2c0-.3.2-.3.2-.3a.3.3,0,0,1,.2.3h.2V7.2Z" fill="#fcff2c"/><path d="M9.9,7.6H9.7a.3.3,0,0,0-.2-.3.3.3,0,0,0-.2.3H9.1V7.2h.7v.3Zm-.4-.3H9.1v.3h.2a.3.3,0,0,1,.2-.3Zm0,0a.3.3,0,0,1,.2.3h.2V7.2Z"/><path d="M9.1,7.5h0Z" fill="#fcff2c"/><path d="M9.9,7.6h0Zm-.8-.1h0Z"/><path d="M9.4,7.5a.2.2,0,0,1,.1-.2.2.2,0,0,1,.1.2Z" fill="#fcff2c"/><path d="M9.6,7.6H9.4a.2.2,0,0,1,.1-.2.2.2,0,0,1,.1.2Zm-.1-.2a.2.2,0,0,0-.1.2h.2a.2.2,0,0,0-.1-.2Z"/><path d="M9.1,7.1h0Z" fill="#fcff2c"/><path d="M9.9,7.2h0Zm-.8-.1h0Z"/><path d="M9.1,7.2h0Z" fill="#fcff2c"/><path d="M9.9,7.3h0Zm-.8-.1h0Z"/><path d="M9.4,6.7h0Z" fill="#fcff2c"/><path d="M9.6,6.8h0Zm-.2-.1h0Z"/><polygon points="9.6 6.8 9.6 7.1 9.4 7.1 9.4 6.8 9.6 6.8 9.6 6.8" fill="#fcff2c"/><path d="M9.6,7.1H9.4V6.8h.2v.3Zm0-.3H9.4v.3h.2V6.8Z"/><path d="M9.6,6.8h0Z" fill="#fcff2c"/><path d="M9.9,6.9h0Zm-.2-.1h0Z"/><polygon points="9.9 6.9 9.9 7.1 9.7 7.1 9.7 6.9 9.9 6.9" fill="#fcff2c"/><path d="M9.9,7.1H9.7V6.9h.2v.2Zm0-.2H9.7v.2h.2V6.9Z"/><path d="M9.1,6.8h0Z" fill="#fcff2c"/><path d="M9.3,6.9h0Zm-.2-.1h0Z"/><polygon points="9.3 6.9 9.3 7.1 9.1 7.1 9.1 6.9 9.3 6.9" fill="#fcff2c"/><path d="M9.4,7.1H9.1V6.9h.2v.2Zm0-.2H9.1v.2h.2V6.9Z"/><path d="M9.5,6.9h0Z"/><path d="M9.7,7h0Z"/><path d="M9.2,7h0Z"/><path d="M11.6,6.7h0Z" fill="#fcff2c"/><path d="M11.8,6.8h0Zm-.2-.1h0Z"/><polygon points="11.8 6.8 11.8 7.1 11.6 7.1 11.6 6.8 11.8 6.8 11.8 6.8" fill="#fcff2c"/><path d="M11.9,7.1h-.2V6.8h.2v.3Zm0-.3h-.2v.3h.2V6.8Z"/><path d="M11.9,6.8h0Z" fill="#fcff2c"/><path d="M12.1,6.9h0Zm-.2-.1h0Z"/><polygon points="12.1 6.9 12.1 7.1 11.9 7.1 11.9 6.9 12.1 6.9" fill="#fcff2c"/><path d="M11.9,7.1V6.9h.2v.2Zm.2-.2h0V6.9Z"/><path d="M11.3,6.8h0Z" fill="#fcff2c"/><path d="M11.6,6.9h0Zm-.2-.1h0Z"/><polygon points="11.6 6.9 11.6 7.1 11.4 7.1 11.4 6.9 11.6 6.9" fill="#fcff2c"/><path d="M11.6,7.1h-.2V6.9h.2v.2Zm0-.2h-.2v.2h.2V6.9Z"/><path d="M11.5,7.6a.3.3,0,0,1,.2-.3.3.3,0,0,1,.2.3Z" fill="#fcff2c"/><path d="M11.4,7.2v.3h.2a.3.3,0,0,1,.2-.3.3.3,0,0,1,.2.3h.2V7.2Z" fill="#fcff2c"/><path d="M12.2,7.6h-.2a.3.3,0,0,0-.2-.3.3.3,0,0,0-.2.3h-.2V7.2h.7v.3Zm-.4-.3h-.3v.3h.2a.3.3,0,0,1,.2-.3Zm0,0a.3.3,0,0,1,.2.3h.2V7.2Z"/><path d="M11.3,7.5h0Z" fill="#fcff2c"/><path d="M12.2,7.6h0Zm-.8-.1h0Z"/><path d="M11.6,7.5a.2.2,0,0,1,.1-.2.2.2,0,0,1,.1.2Z" fill="#fcff2c"/><path d="M11.9,7.6h-.2a.2.2,0,0,1,.1-.2.2.2,0,0,1,.1.2Zm-.1-.2a.2.2,0,0,0-.1.2h.2a.2.2,0,0,0-.1-.2Z"/><path d="M11.3,7.1h0Z" fill="#fcff2c"/><path d="M12.1,7.2h0Zm-.8-.1h0Z"/><path d="M11.4,7.2h0Z" fill="#fcff2c"/><path d="M12.1,7.3h0Zm-.8-.1h0Z"/><path d="M11.7,6.9h0Z"/><path d="M12,7h0Z"/><path d="M11.5,7h0Z"/><path d="M13.8,6.7h0Z" fill="#fcff2c"/><path d="M14.1,6.8h0Zm-.2-.1h0Z"/><polygon points="14 6.8 14.1 7.1 13.8 7.1 13.9 6.8 14 6.8" fill="#fcff2c"/><path d="M14.1,7.1h-.2V6.8H14v.3Zm0-.3h-.2v.3H14V6.8Z"/><path d="M14.1,6.8h0Z" fill="#fcff2c"/><path d="M14.3,6.9h0Zm-.2-.1h0Z"/><polygon points="14.3 6.9 14.3 7.1 14.1 7.1 14.1 6.9 14.3 6.9" fill="#fcff2c"/><path d="M14.3,7.1h-.2V6.9h.2v.2Zm0-.2h-.2v.2h.2V6.9Z"/><path d="M13.6,6.8h0Z" fill="#fcff2c"/><path d="M13.8,6.9h0Zm-.2-.1h0Z"/><polygon points="13.8 6.9 13.8 7.1 13.6 7.1 13.6 6.9 13.8 6.9" fill="#fcff2c"/><path d="M13.8,7.1h-.2V6.9h.2v.2Zm0-.2h-.2v.2h.2V6.9Z"/><path d="M13.7,7.6a.3.3,0,0,1,.2-.3.3.3,0,0,1,.2.3Z" fill="#fcff2c"/><path d="M13.6,7.2v.3h.2a.3.3,0,0,1,.2-.3.3.3,0,0,1,.2.3h.2V7.2Z" fill="#fcff2c"/><path d="M14.4,7.6h-.2a.3.3,0,0,0-.2-.3.3.3,0,0,0-.2.3h-.2V7.2h.7v.3Zm-.4-.3h-.3v.3h.2a.3.3,0,0,1,.2-.3Zm0,0a.3.3,0,0,1,.2.3h.2V7.2Z"/><path d="M13.5,7.5h0Z" fill="#fcff2c"/><path d="M14.4,7.6h0Zm-.8-.1h0Z"/><path d="M13.8,7.5a.2.2,0,0,1,.1-.2.2.2,0,0,1,.1.2Z" fill="#fcff2c"/><path d="M14.1,7.6h-.2c0-.2.1-.2.1-.2a.2.2,0,0,1,.1.2Zm-.1-.2a.2.2,0,0,0-.1.2h.2a.2.2,0,0,0-.1-.2Z"/><path d="M13.6,7.1h0Z" fill="#fcff2c"/><path d="M14.3,7.2h0Zm-.8-.1h0Z"/><path d="M13.6,7.2h0Z" fill="#fcff2c"/><path d="M14.3,7.3h0Zm-.8-.1h0Z"/><path d="M13.9,6.9h0Z"/><path d="M14.2,7h0Z"/><path d="M13.7,7h0Z"/><path d="M9.4,8.9h0Z" fill="#fcff2c"/><path d="M9.6,9.1h0Zm-.2-.1h0Z"/><polygon points="9.6 9 9.6 9.4 9.4 9.4 9.4 9 9.6 9 9.6 9" fill="#fcff2c"/><path d="M9.6,9.4H9.4V9h.2v.3Zm0-.3H9.4v.3h.2V9Z"/><path d="M9.6,9.1h0Z" fill="#fcff2c"/><path d="M9.9,9.2h0Zm-.2-.1h0Z"/><polygon points="9.9 9.2 9.9 9.4 9.7 9.4 9.7 9.2 9.9 9.2" fill="#fcff2c"/><path d="M9.9,9.4H9.7V9.2h.2v.2Zm0-.2H9.7v.2h.2V9.2Z"/><path d="M9.1,9.1h0Z" fill="#fcff2c"/><path d="M9.4,9.2h0Zm-.2-.1h0Z"/><polygon points="9.3 9.2 9.3 9.4 9.1 9.4 9.1 9.2 9.3 9.2" fill="#fcff2c"/><path d="M9.4,9.4H9.1V9.2h.2v.2Zm0-.2H9.1v.2h.2V9.2Z"/><path d="M9.3,9.8a.3.3,0,0,1,.2-.3.3.3,0,0,1,.2.3Z" fill="#fcff2c"/><path d="M9.1,9.5v.3h.2a.3.3,0,0,1,.2-.3.3.3,0,0,1,.2.3h.2V9.5Z" fill="#fcff2c"/><path d="M9.9,9.8H9.7a.3.3,0,0,0-.2-.3.3.3,0,0,0-.2.3H9.1V9.5h.7v.3Zm-.4-.3H9.1v.3h.2a.3.3,0,0,1,.2-.3Zm0,0a.3.3,0,0,1,.2.3h.2V9.5Z"/><path d="M9.1,9.8h0Z" fill="#fcff2c"/><path d="M9.9,9.9h0Zm-.8-.1h0Z"/><path d="M9.4,9.8a.2.2,0,0,1,.1-.2.2.2,0,0,1,.1.2Z" fill="#fcff2c"/><path d="M9.6,9.8H9.4c0-.2.1-.2.1-.2a.2.2,0,0,1,.1.2Zm-.1-.2a.2.2,0,0,0-.1.2h.2a.2.2,0,0,0-.1-.2Z"/><path d="M9.1,9.4h0Z" fill="#fcff2c"/><path d="M9.9,9.4h0Zm-.8-.1h0Z"/><path d="M9.1,9.4h0Z" fill="#fcff2c"/><path d="M9.9,9.5h0Zm-.8-.1h0Z"/><path d="M9.5,9.1h0Z"/><path d="M9.7,9.3h0Z"/><path d="M9.2,9.3h0Z"/><path d="M13.7,11.3h.1l-.2-.2a0,0,0,0,1,0,0h.1Z" fill="#fcff2c"/><path d="M13.8,11.6h0l-.2-.2h.2Zm-.1-.3h-.1l.2.2h-.1Z"/><polygon points="13.8 11.6 13.5 11.8 13.4 11.6 13.6 11.4 13.8 11.6" fill="#fcff2c"/><path d="M13.5,11.8l-.2-.2.2-.2h.1l-.2.3Zm.1-.4-.2.2h.1l.2-.2Z"/><path d="M13.8,11.6h-.1a0,0,0,0,1,0,0Z" fill="#fcff2c"/><path d="M13.9,11.9h0l-.2-.2h.2Zm-.1-.3h0l.2.2h-.1Z"/><polygon points="13.8 11.9 13.7 12 13.6 11.8 13.7 11.7 13.8 11.9 13.8 11.9" fill="#fcff2c"/><path d="M13.7,12l-.2-.2h.3V12Zm0-.3h0Z"/><path d="M13.4,11.2h.1v-.2a0,0,0,0,1,0,0Z" fill="#fcff2c"/><path d="M13.5,11.5h0v-.2h.2Zm-.1-.3h-.1l.2.2h-.1Z"/><polygon points="13.5 11.5 13.4 11.6 13.2 11.5 13.3 11.3 13.5 11.5" fill="#fcff2c"/><path d="M13.4,11.6l-.2-.2h.3v.2Zm0-.3h0Z"/><path d="M13,11.9a.3.3,0,0,1,.4-.1.3.3,0,0,1-.1.4l-.3-.3Z" fill="#fcff2c"/><path d="M13.1,11.6l-.2.2H13a.3.3,0,0,1,.4-.1.3.3,0,0,1-.1.4h.1l.2-.2-.5-.5Z" fill="#fcff2c"/><path d="M13.4,12.3l-.2-.2a.3.3,0,0,0,.1-.4h-.5l.2-.2.5.5-.2.3Zm-.1-.5h0a.3.3,0,0,1-.1.3h.1l.2-.2-.2-.2Zm-.3-.3-.2.2h.5l-.2-.2Z"/><path d="M12.9,11.7l.6.6a0,0,0,0,1,0,0h-.1l-.6-.6a0,0,0,0,1,0,0Z" fill="#fcff2c"/><path d="M13.4,12.4h0l-.6-.6a0,0,0,0,1,0-.1h0l.6.6a0,0,0,0,1,0,.1Zm-.6-.6.6.6h0l-.6-.6h0Z"/><path d="M13.1,12h.2a.2.2,0,0,1-.1.2l-.2-.2Z" fill="#fcff2c"/><path d="M13.2,12.1l-.2-.2c.1-.2.2-.1.2-.1a.2.2,0,0,1-.1.2Zm0-.2h0a.2.2,0,0,0,.1-.2Z"/><path d="M13.2,11.4l.6.6a0,0,0,0,1,0,0h0l-.6-.6a0,0,0,0,1,0,0h0Z" fill="#fcff2c"/><path d="M13.7,12.1h0l-.6-.6a0,0,0,0,1,0-.1h.1l.6.6a0,0,0,0,1,0,.1Zm-.5-.6h0l.6.6h0l-.6-.6Z"/><path d="M13.1,11.5l.5.5a0,0,0,0,1,0,0h0l-.5-.5a0,0,0,0,1,0,0Z" fill="#fcff2c"/><path d="M13.7,12.1h0l-.5-.5a0,0,0,0,1,0-.1h.1l.5.5a0,0,0,0,1,0,.1Zm-.5-.6h0l.5.6h0l-.5-.6Z"/><path d="M13.6,11.5h0Z"/><path d="M13.7,11.8h0Z"/><path d="M13.3,11.4h0Z"/><path d="M13.8,8.9h0Z" fill="#fcff2c"/><path d="M14.1,9.1h0Zm-.2-.1h0Z"/><polygon points="14 9.1 14.1 9.4 13.8 9.4 13.9 9 14 9.1" fill="#fcff2c"/><path d="M14.1,9.4h-.2V9H14v.3Zm0-.3h-.2v.3H14V9.1Z"/><path d="M14.1,9.1h0Z" fill="#fcff2c"/><path d="M14.3,9.2h0Zm-.2-.1h0Z"/><polygon points="14.3 9.2 14.3 9.4 14.1 9.4 14.1 9.2 14.3 9.2" fill="#fcff2c"/><path d="M14.3,9.4h-.2V9.2h.2v.2Zm0-.2h-.2v.2h.2V9.2Z"/><path d="M13.6,9.1h0Z" fill="#fcff2c"/><path d="M13.8,9.2h0Zm-.2-.1h0Z"/><polygon points="13.8 9.2 13.8 9.4 13.6 9.4 13.6 9.2 13.8 9.2" fill="#fcff2c"/><path d="M13.6,9.4V9.2h.2v.2Zm.2-.2h0V9.2Z"/><path d="M13.7,9.8a.3.3,0,0,1,.2-.3.3.3,0,0,1,.2.3Z" fill="#fcff2c"/><path d="M13.6,9.5v.3h.2a.3.3,0,0,1,.2-.3.3.3,0,0,1,.2.3h.2V9.5Z" fill="#fcff2c"/><path d="M14.4,9.8h-.2a.3.3,0,0,0-.2-.3.3.3,0,0,0-.2.3h-.2V9.5h.7v.3Zm-.4-.3h-.3v.3h.2a.3.3,0,0,1,.2-.3Zm0,0a.3.3,0,0,1,.2.3h.2V9.5Z"/><path d="M13.5,9.8h0Z" fill="#fcff2c"/><path d="M14.4,9.9h0Zm-.8-.1h0Z"/><path d="M13.8,9.8a.2.2,0,0,1,.1-.2.2.2,0,0,1,.1.2Z" fill="#fcff2c"/><path d="M14.1,9.8h-.2a.2.2,0,0,1,.1-.2.2.2,0,0,1,.1.2Zm-.1-.2a.2.2,0,0,0-.1.2H14a.2.2,0,0,0-.1-.2Z"/><path d="M13.6,9.4h0Z" fill="#fcff2c"/><path d="M14.3,9.4h0Zm-.8-.1h0Z"/><path d="M13.6,9.4h0Z" fill="#fcff2c"/><path d="M14.3,9.5h0Zm-.8-.1h0Z"/><path d="M13.9,9.1h0Z"/><path d="M14.2,9.3h0Z"/><path d="M13.7,9.3h0Z"/><path d="M9.6,11.5h.3a0,0,0,0,1,0,0l-.2.2H9.6Z" fill="#fcff2c"/><path d="M9.7,11.6h.2l-.2.2Zm-.1-.1h.1l.2-.2H9.6Z"/><polygon points="9.8 11.4 10.1 11.6 9.9 11.8 9.7 11.6 9.8 11.4" fill="#fcff2c"/><path d="M9.9,11.8l-.2-.2h.1l.2.2-.2.2Zm-.1-.4H9.7l.2.2h.1l-.2-.2Z"/><path d="M9.9,11.4h.3a0,0,0,0,1,0,0l-.2.2H9.9Z" fill="#fcff2c"/><path d="M10,11.5h.2l-.2.2Zm-.1-.1h0Z"/><polygon points="10.1 11.3 10.3 11.5 10.1 11.6 10 11.5 10.1 11.3" fill="#fcff2c"/><path d="M10.1,11.6H10v-.2h.1l-.2.2Zm0-.3h0Z"/><path d="M9.5,11.8h.3a0,0,0,0,1,0,0l-.2.2H9.5Z" fill="#fcff2c"/><path d="M9.6,11.9h.2l-.2.2Zm-.1-.1h0Z"/><polygon points="9.8 11.7 9.9 11.8 9.7 12 9.6 11.8 9.8 11.7" fill="#fcff2c"/><path d="M9.7,12H9.6v-.2h.1l-.2.2Zm0-.3h0Z"/><path d="M10.2,12.2a.3.3,0,0,1-.1-.4.3.3,0,0,1,.4.1l-.3.3Z" fill="#fcff2c"/><path d="M9.8,12.1l.2.2h.1a.3.3,0,0,1-.1-.4.3.3,0,0,1,.4.1h.1l-.2-.2-.5.5Z" fill="#fcff2c"/><path d="M10,12.3l-.2-.3.5-.5.3.2v.2h-.4a.3.3,0,0,0,.1.3l-.2.2Zm.1-.5-.2.2.2.2h.1a.3.3,0,0,1-.1-.3Zm.1-.1h.4l-.2-.2-.2.2Z"/><path d="M10,12.3l.6-.6h.1a0,0,0,0,1,0,.1l-.6.6h0a0,0,0,0,1,0,0Z" fill="#fcff2c"/><path d="M10.1,12.4h0a.1.1,0,0,1,0-.1l.6-.6h.1a.1.1,0,0,1,0,.1l-.6.6Zm.6-.7-.6.6h0l.6-.6h0Z"/><path d="M10.2,12.1a.2.2,0,0,1-.1-.2h.2l-.2.2Z" fill="#fcff2c"/><path d="M10.2,12.1h0a.2.2,0,0,1-.1-.2h.2l-.2.2Zm-.1-.2a.2.2,0,0,0,.1.2l.2-.2Z"/><path d="M9.7,12l.6-.6h0a0,0,0,0,1,0,0l-.6.6h0a0,0,0,0,1,0,0Z" fill="#fcff2c"/><path d="M9.7,12.1h0l.6-.6h.1a0,0,0,0,1,0,.1l-.6.6Zm0,0h0l.6-.6h0l-.6.6h0Z"/><path d="M9.8,12l.5-.5h0a0,0,0,0,1,0,0l-.5.5h0s0,0,0,0Z" fill="#fcff2c"/><path d="M9.8,12.1h0a0,0,0,0,1,0-.1l.5-.5h.1a0,0,0,0,1,0,.1l-.6.5Zm0,0h0l.5-.5h0l-.5.5h0Z"/><path d="M9.8,11.6h0Z"/><path d="M10.1,11.5h0Z"/><path d="M9.7,11.8h0Z"/></g></g></svg>