<svg xmlns="http://www.w3.org/2000/svg" xmlns:xlink="http://www.w3.org/1999/xlink" viewBox="0 0 33.6 19.6"><defs><clipPath id="a"><rect width="33.6" height="19.58" fill="none"/></clipPath><clipPath id="c"><path d="M15.5,7.5h0" fill="none"/></clipPath></defs><title>SMR</title><g clip-path=""><rect y="9.8" width="33.6" height="9.79" fill="#3e7fcd"/><rect width="33.6" height="9.79" fill="#fff"/><g clip-path=""><path d="M17,5.2h0Z" fill="#376fb8"/><path d="M16.8,5.3h-.2a.2.2,0,0,0,.3.1Z"/><path d="M16.8,5h0Z" fill="#376fb8"/><path d="M17,5.1h0a.2.2,0,0,0-.3,0c0-.2.3-.2.3,0Z"/><polygon points="16.8 4.9 16.8 5 16.8 5 16.7 5 16.8 5 16.8 4.9 16.7 4.9 16.6 4.9 16.6 4.8 16.7 4.8 16.8 4.8 16.8 4.7 16.7 4.7 16.8 4.7 16.8 4.7 16.8 4.8 16.9 4.8 16.9 4.8 16.9 4.9 16.9 4.9 16.8 4.9" fill="#e1c025"/><polygon points="16.8 5 16.7 5 16.8 4.9 16.7 4.9 16.8 4.9 16.8 5 16.8 5 16.8 5 16.8 4.9 16.9 4.9 16.9 4.8 16.9 4.9 16.8 4.9 16.8 5 16.8 5 16.8 5"/><rect x="16.7" y="5.3" width="0.2" height="0.12" fill="#c1b020"/><path d="M16.9,5.4h0Zm0-.1h0Z"/><path d="M16.8,5h0Z" fill="#e1c025"/><path d="M16.8,5h0Z" fill="none"/><path d="M17,5.1h0Z" fill="#e1c025"/><path d="M16.8,5.2Zm-.2,0h0Z"/><path d="M18.8,6.4h0l-.2-.2a.2.2,0,0,0,0-.1c0-.2-.3-.4-.7-.4s-1-.4-1.1-.3h1.9a.1.1,0,0,1,0,.1h0Z" fill="#e1c025"/><path d="M18.8,6.5l-.2-.2a.2.2,0,0,0,0-.1c0-.2-.3-.4-.7-.4h.7a.1.1,0,0,1,0,.1h0l.2.2h0Zm-1.9-1h1c.3,0,.6.2.7.4a.2.2,0,0,1,0,.1l.2.2h0l-.2-.2H16.9Z"/><path d="M18.8,6.4l-.2-.2h0a.1.1,0,0,0,0-.1H17.2l.9.2a.8.8,0,0,1,.8.6.5.5,0,0,1,0,.2Z" fill="#e1c025"/><path d="M18.8,6.4l-.2-.2H18c.4,0,.8.3.8.6a.5.5,0,0,1,0,.2Zm-1.7-1h1.5a.1.1,0,0,1,0,.1h0l.2.2a.6.6,0,0,0,0-.2c0-.3-.4-.6-.8-.6h-.9Z"/><path d="M14.7,6.4h0l.2-.2a.2.2,0,0,1,0-.1c0-.2.3-.4.7-.4s1-.4,1.1-.3H14.9Z" fill="#e1c025"/><path d="M14.8,6.5h0l.2-.2h.7c-.4,0-.6.2-.7.4a.2.2,0,0,0,0,.1l-.2.3Zm1.8-1.1H14.9a.2.2,0,0,0,0,.1h0l-.2.2h0l.2-.2h0c0-.2.3-.4.7-.4h.9Z"/><path d="M14.7,6.4l.2-.2h1.5l-.9.2c-.4,0-.8.3-.8.6a.4.4,0,0,0,0,.2Z" fill="#e1c025"/><path d="M14.7,6.4h0a.5.5,0,0,1,0-.2c0-.3.4-.6.8-.6h-.6a.2.2,0,0,0,0,.1h0l-.2.2Zm1.7-1h-.9c-.3,0-.7.3-.8.6a.5.5,0,0,0,0,.2l.2-.2h1.5Z"/><path d="M16.8,7.3l-1.4.2s0-.1-.1-.2h-.1l1.6-.2,1.6.2h-.1c0,.1-.1.2,0,.2l-1.4-.2Z" fill="#e1c025"/><path d="M18.2,7.5a6.1,6.1,0,0,0-2.9,0s0,0-.1-.2h-.1l1.6-.2,1.6.2h-.1c0,.1-.1.2,0,.2Zm-3-.4h.1c.1.2.1.2,0,.2l1.4-.2,1.4.2a.5.5,0,0,1,0-.2h.1a7.2,7.2,0,0,0-3.2,0Z"/><path d="M16.8,6.9l-1.6.2h0l1.6-.2,1.6.2h0l-1.6-.2Z" fill="#e1c025"/><path d="M18.4,7.1h0l-1.6-.2-1.6.2h0l1.6-.2,1.6.2h0a0,0,0,0,1,0,0Zm-1.6-.2,1.6.2h0l-1.6-.2L15.2,7h0l1.6-.2Z"/><path d="M16.8,6.5h0a.2.2,0,0,0,.2.2h.2l.2.2a.2.2,0,0,0,.2-.2h.1a.2.2,0,0,0,.2.2h.6l-.2.2H18l-.3-.2H15.8l-.3.2h-.5l-.2-.2h.6a.2.2,0,0,0,.2-.2h.1a.2.2,0,0,0,.2.2l.2-.2h.2a.2.2,0,0,0,.2-.2h0Z" fill="#e1c025"/><path d="M18.3,7h-.2a.3.3,0,0,1-.4-.1.3.3,0,0,1-.5,0,.3.3,0,0,1-.5-.1.3.3,0,0,1-.5.1.3.3,0,0,1-.5,0,.3.3,0,0,1-.4.1h-.3l-.2-.2h.6a.2.2,0,0,0,.2-.2h.1a.2.2,0,0,0,.2.2l.2-.2h0a.2.2,0,0,0,.4,0h.1a.2.2,0,0,0,.2.2h.2a.2.2,0,0,0,.4,0h0a.2.2,0,0,1-.2.2l-.2-.2h0a.2.2,0,0,1-.4,0h-.1a.2.2,0,0,1-.2.2h-.2a.5.5,0,0,1,0,.1.2.2,0,0,1-.2.2.2.2,0,0,1-.2-.2h-.1a.2.2,0,0,1-.2.2h-.6l.2.2h.3a.3.3,0,0,0,.4-.1.3.3,0,0,0,.5,0,.3.3,0,0,0,.5-.1.3.3,0,0,0,.5,0,.3.3,0,0,0,.5,0,.3.3,0,0,0,.4.1h.3l.2-.2h-.3V6.8H18a.2.2,0,0,1-.2-.2h0a.2.2,0,0,0,.2.2h.6l-.2.2Z"/><path d="M15.3,6.7h0Z" fill="#e1e2e3"/><path d="M15.4,6.8h-.1c0-.1.2-.1.2,0Zm0-.2h0Z"/><path d="M18.1,6.7h0Z" fill="#e1e2e3"/><path d="M18.2,6.8h-.1c0-.1.2-.1.2,0Zm0-.2h0Z"/><path d="M16.2,6.5h0Z" fill="#e1e2e3"/><path d="M16.3,6.6h-.1c0-.1.2-.1.2,0Zm0-.2h0Z"/><path d="M17.2,6.5h0Z" fill="#e1e2e3"/><path d="M17.3,6.6h-.1c0-.1.2-.1.2,0Zm0-.2h0Z"/><path d="M15,6.8h.1a.1.1,0,0,0,0-.1h-.4v.2H15Z" fill="#e1c025" fill-rule="evenodd"/><path d="M15.1,6.9h-.3V6.3h0v.2h.3Zm.1-.1h0ZM15,6.5h0a.1.1,0,0,0,0-.1h0a.1.1,0,0,1,0,.1Z"/><path d="M14.9,6.7h0Zm0-.1h0Zm0-.1h0Zm0,0h0Zm-.1,0h0Z" fill="none"/><path d="M14.9,6.8c.1,0,.1-.1,0-.2h0Z" fill="#e1c025"/><path d="M14.9,6.8h0a.1.1,0,0,0,0-.1h-.1a.1.1,0,0,0,0,.1h.2a.1.1,0,0,1,0,.1h0Z"/><path d="M14.8,6.7c0-.1,0-.1,0-.1h.1c0,.1,0,.1,0,.1Z" fill="#e1e2e3"/><path d="M14.9,6.8h0a.1.1,0,0,1,0,.1h0Zm-.1-.2s0,.1,0,.1h.1a.1.1,0,0,0,0-.1Z"/><path d="M18.6,6.8h-.1a.1.1,0,0,1,0-.1h.4v.2h-.2Z" fill="#e1c025" fill-rule="evenodd"/><path d="M18.5,6.9h.3V6.3h0v.2h-.3Zm-.1-.1h0Zm.1-.2h0a.1.1,0,0,1,0-.1h0Z"/><path d="M18.6,6.7h0Zm0-.1h0Zm0-.1h0Zm0,0h0Zm.1,0h0Z" fill="none"/><path d="M18.6,6.8c-.1,0-.1-.1,0-.2h0Z" fill="#e1c025"/><path d="M18.6,6.8h0a.2.2,0,0,1,0-.1h0Zm.1-.2h-.1a.1.1,0,0,0,0,.1h.1Z"/><path d="M18.8,6.7c0-.1,0-.1,0-.1h-.1c0,.1,0,.1,0,.1Z" fill="#e1e2e3"/><path d="M18.7,6.8h0a.1.1,0,0,1,0-.1h0Zm.1-.2h0Z"/><path d="M16.8,7.8l-1.4-.2h0l1.4-.2,1.4.2h0l-1.4.2Z" fill="#e1c025"/><path d="M16.8,7.8h0l-1.4-.2h0l1.4-.2,1.4.2h0l-1.4.2Zm0-.5-1.4.2h0l1.4.2,1.4-.2h0l-1.4-.2Z"/></g><g clip-path=""><path d="M16.8,7.7h0l-1.3-.2,1.3-.2h1.3l-1.3.2Zm0-.3H15.5a6.4,6.4,0,0,0,2.6,0Z"/><path d="M16.8,7.2h0Z" fill="#e1c025"/><path d="M16.8,7.2h0Zm0-.2h0Z"/><path d="M16.8,7.2h0Z" fill="#d90031"/><path d="M16.8,7.2h0Zm0-.2h0Z"/><path d="M18.3,7.2H18l.2.2h.1a.2.2,0,0,0,0,0Z" fill="#e1c025"/><path d="M18.2,7.4,18,7.2h.2Zm-.1-.2H18l.2.2h-.1Z"/><path d="M18.3,7.2h0Z" fill="#d90031"/><path d="M18.2,7.4h0Zm-.1-.1h0Z"/><path d="M15.3,7.2h.3l-.2.2h-.1Z" fill="#e1c025"/><path d="M15.3,7.4h0l.2-.2h0l-.2.2Z"/><path d="M15.3,7.2h0Z" fill="#d90031"/><path d="M15.3,7.4h0Z"/><path d="M16.3,7.1h0Z" fill="#e1e2e3"/><path d="M16.4,7.2h0Z"/><path d="M15.6,7.2h0Z" fill="#e1e2e3"/><path d="M15.6,7.3h0Z"/><path d="M17.1,7.1h0Z" fill="#e1e2e3"/><path d="M17.2,7.2h0Z"/><path d="M17.9,7.2h0Z" fill="#e1e2e3"/><path d="M17.9,7.3h0Z"/><polygon points="16 7 16.3 7.1 16 7.3 15.8 7.2 16 7" fill="#e1c025" fill-rule="evenodd"/><path d="M16,7.3h-.3L16,7h.3l-.2.2ZM16,7l-.2.2H16l.2-.2Z"/><polygon points="16 7.1 16.2 7.1 16 7.2 15.8 7.2 16 7.1" fill="#3b8f4e" fill-rule="evenodd"/><path d="M16,7.2h0Zm0-.2h0Z"/><polygon points="17.6 7 17.3 7.1 17.5 7.3 17.8 7.2 17.6 7" fill="#e1c025" fill-rule="evenodd"/><path d="M17.5,7.3l-.2-.2h.3l.2.2Zm0-.3h-.3l.2.2h.3L17.6,7Z"/><polygon points="17.6 7.1 17.4 7.1 17.5 7.2 17.7 7.2 17.6 7.1" fill="#3b8f4e" fill-rule="evenodd"/><path d="M17.5,7.2h0Zm0-.2h0Z"/><path d="M16.6,5.3h0Z" fill="#e1e2e3"/><path d="M16.5,5.4h0Zm0-.1h0Z"/><path d="M16.4,5.4h0Z" fill="#e1e2e3"/><path d="M16.3,5.4Zm0-.1h0Z"/><path d="M16.1,5.4h0Z" fill="#e1e2e3"/><path d="M16.1,5.5H16c0-.1.2-.1.2,0h-.1Zm0-.2h0Z"/><path d="M15.9,5.5h0Z" fill="#e1e2e3"/><path d="M15.8,5.6Zm0-.2h0Z"/><path d="M15.6,5.5h0Z" fill="#e1e2e3"/><path d="M15.5,5.6Zm0-.2h-.1c0,.1.2.1.2,0Z"/><path d="M15.2,5.6h0Z" fill="#e1e2e3"/><path d="M15.1,5.7h0Zm0-.2H15c0,.1.2.1.2,0Z"/><path d="M15,5.8h0Z" fill="#e1e2e3"/><path d="M14.9,5.9Zm0-.2h0Z"/><path d="M14.9,6.1h0Z" fill="#e1e2e3"/><path d="M14.7,6.3h-.1a.1.1,0,0,1,.2-.1h-.1Zm0-.2h0Z"/><path d="M16.6,5.3h0Z" fill="#e1e2e3"/><path d="M16.7,5.4Zm0-.1h0Z"/><path d="M17,5.3h0Z" fill="#e1e2e3"/><path d="M17.1,5.4Zm0-.1h0Z"/><path d="M17.2,5.4h0Z" fill="#e1e2e3"/><path d="M17.3,5.4Zm0-.1h0Z"/><path d="M17.4,5.4h0Z" fill="#e1e2e3"/><path d="M17.5,5.5Zm0-.2h0Z"/><path d="M17.7,5.5h0Z" fill="#e1e2e3"/><path d="M17.8,5.6Zm0-.2h0Z"/><path d="M18,5.5h0Z" fill="#e1e2e3"/><path d="M18.1,5.6h0Zm0-.2h0Z"/><path d="M18.3,5.6h0Z" fill="#e1e2e3"/><path d="M18.4,5.7h0Zm0-.2h-.1c0,.1.2.1.2,0Z"/><path d="M18.6,5.8h0Z" fill="#e1e2e3"/><path d="M18.7,5.9Zm0-.2h0Z"/><path d="M18.7,6.1h0Z" fill="#e1e2e3"/><path d="M18.8,6.3Zm0-.2h0Z"/><path d="M16.9,5.3h0Z" fill="#e1e2e3"/><path d="M16.9,5.4h0Zm0-.1h0Z"/><path d="M16.7,5.4h-.1v.2h0a.7.7,0,0,1-.1.3l.2.2.2-.2a.7.7,0,0,1-.1-.3h0V5.5h-.1v.3h-.2V5.5h0Z" fill="#e1c025"/><path d="M16.8,6.1l-.2-.2V5.5h.1v.3h.2V5.5h0v.3h-.2V5.5h-.1v.2a.8.8,0,0,1-.1.3l.2.2.2-.2a.7.7,0,0,1-.1-.3V5.5h0v.2a.8.8,0,0,0,.1.3l-.2.2Z"/><path d="M16.7,5.4h0v.3h.2V5.5h-.2Z" fill="#e1c025"/><path d="M16.8,6h-.1V5.5h.2v.3h-.1Zm0-.6h-.1v.3h.2V5.5h-.1Z"/><path d="M16.7,5.3h0Z" fill="#e1e2e3"/><path d="M16.8,5.4h0Zm0-.1h0Z"/><path d="M16.8,5.4h0Z" fill="#e1e2e3"/><path d="M16.8,5.5h0Zm0-.1h0Z"/><path d="M16.9,5.5h0Z" fill="#e1e2e3"/><path d="M16.8,5.6h0Zm0-.2h0Z"/><path d="M16.9,5.6h0Z" fill="#e1e2e3"/><path d="M16.8,5.7h-.1c0-.1.2-.1.2,0Zm0-.2h-.1c0,.1.2.1.2,0Z"/><path d="M16.9,5.8h0Z" fill="#e1e2e3"/><path d="M16.8,5.9Zm0-.2h-.1c0,.1.2.1.2,0Z"/><path d="M16.8,5.9h-.2a.2.2,0,0,0,0,.1H17a.1.1,0,0,0,0-.1h-.2Z" fill="#e1c025" fill-rule="evenodd"/><path d="M17,6.6h-.4a.1.1,0,0,1,0-.1H17a.1.1,0,0,0,0-.1h0Zm-.5-.1h0Zm.6,0h0s0-.1,0-.1h0Zm-.6,0a.1.1,0,0,1,0-.1h0Zm.1-.4H17A.1.1,0,0,1,17,6h-.5Z"/><path d="M16.7,6.5h0Zm-.1-.1h0Zm.1-.2s0-.1,0-.1Zm-.1.1h0Zm0-.1h0Zm.1-.1h0Zm.1.3h0Zm.1-.1h0Zm0-.1h0Zm0-.1h0Zm-.1-.1h0Z" fill="none"/><path d="M16.7,6.3h0Z" fill="#e1c025"/><path d="M16.8,6.5h0Zm0-.3h0Z"/><path d="M16.7,6.3h0Z" fill="#e1e2e3"/><path d="M16.8,6.4h-.1a.1.1,0,1,1,.2,0Zm0-.2h-.1a.1.1,0,1,0,.1,0Z"/><path d="M15.7,6.6h0Z" fill="#e1e2e3"/><path d="M15.8,6.7h-.1c0-.1.2-.1.2,0Zm0-.2h0Z"/><path d="M17.9,6.6h0Z" fill="#e1e2e3"/><path d="M17.8,6.7h-.1c0-.1.2-.1.2,0Zm0-.2h0Z"/><path d="M16.8,13.9c1.9-1.5,4-4.6,1.6-6.3a1.6,1.6,0,0,0-1.2.1c-.1-.1-.2-.1-.4.1a.3.3,0,0,0-.4-.1,1.4,1.4,0,0,0-1.2-.1c-2.1,1.3-.8,4.5,1.5,6.3Z" fill="#e1c025" fill-rule="evenodd"/><path d="M16.8,13.9h0a5.9,5.9,0,0,1-2.6-4.5,2.3,2.3,0,0,1,1.1-1.9,1.4,1.4,0,0,1,1.2.1h.7a1.7,1.7,0,0,1,1.2-.1,2.3,2.3,0,0,1,1.1,1.9c.1,1.6-1.3,3.4-2.7,4.4ZM15.7,7.6h-.5a2.2,2.2,0,0,0-1,1.8,5.9,5.9,0,0,0,2.6,4.4c1.4-1.1,2.7-2.8,2.7-4.4a2.2,2.2,0,0,0-1.1-1.8h-.5l-.7.2h0c-.1-.1-.2-.1-.3.1h-.4l-.7-.2Z" fill="#796d14"/><path d="M20.4,10.4l.2-.3a.5.5,0,0,0,.2-.3c.2-.1.2-.3.2-.3a.3.3,0,0,0,.1-.3s.1-.3,0-.4-.2-.3-.3-.1-.2.2-.1.3-.2.3-.1.5-.1.3-.1.3.1.5.1.5Z" fill="#6fd66c" fill-rule="evenodd"/><path d="M20.4,10.5s-.1,0-.1-.3,0-.2,0-.3a.3.3,0,0,1,0-.3h.1a.5.5,0,0,1,0-.4h.1a.3.3,0,0,1,0-.2h.2c.1-.1.2-.2.3-.1v.2c.1.1.1.3,0,.4a.3.3,0,0,1-.1.3.2.2,0,0,1-.2.3.6.6,0,0,1-.3.3l-.2.3Zm0-.8h-.1c0,.1,0,.2,0,.2h0s0,.3.1.4l.2-.3a.4.4,0,0,0,.2-.3h0a.2.2,0,0,0,.1-.2h0a.2.2,0,0,0,0-.2h0c0-.2,0-.3,0-.3h0c0-.1,0-.2,0-.2h-.3a.3.3,0,0,0,0,.2h-.1a.5.5,0,0,0,0,.4h0Z" fill="#539d51"/><path d="M18.7,13.1h.1l.2.2c0,.2.2.1.3,0s.2.2.4.1a.4.4,0,0,0,.5-.1c.1.1.2,0,.3-.1h.2c.2,0,.1-.2-.1-.3s.3-.4.1-.4h-.3c0-.1-.2-.1-.3,0s-.3-.1-.4,0-.3-.1-.5,0l-.6.6Z" fill="#6fd66c" fill-rule="evenodd"/><path d="M19.9,13.6h-.6c-.2.1-.3.1-.4-.1l-.2-.2h-.1l.6-.6c.2-.1.4-.1.5,0h.4c.1-.1.3-.1.4,0h.4c0,.1-.1.3-.2.4a.3.3,0,0,1,.2.3h-.4c-.1.2-.2.2-.3.1Zm-.2-.1a.4.4,0,0,0,.5,0h.1c.1.1.2.1.2-.1h.3l-.2-.2h0c.1-.1.2-.2.2-.3H19.7c-.1-.1-.2-.1-.4,0l-.6.5h.1v.2H19c0,.1.2.1.3,0h.1c.1.1.2.1.3.1Z" fill="#539d51"/><path d="M18.7,12.7c0-.1-.1-.4.1-.4s0-.5.3-.5,0-.4.3-.5.2-.7.4-.2.1.4-.1.3,0,.3-.2.3a.3.3,0,0,1,0,.4l-.7.5Z" fill="#6fd66c" fill-rule="evenodd"/><path d="M18.7,12.8h0a.7.7,0,0,0,0-.2c0-.1,0-.2.1-.3a.6.6,0,0,1,.1-.4H19c0-.2.1-.4.3-.4s.1-.4.3-.4l.2.2a.4.4,0,0,1,0,.3h-.1a.3.3,0,0,1-.1.3h-.1a.3.3,0,0,1-.1.4l-.7.6Zm.3-.9h-.2a.5.5,0,0,0-.1.4h0c-.1,0-.1.1,0,.2h0l.6-.5a.3.3,0,0,0,0-.3,0,0,0,0,1,0,0h.2a.3.3,0,0,0,0-.2h.1a.3.3,0,0,0,0-.3V11c-.1,0-.2.2-.2.4h0c-.2,0-.2.1-.2.3H19Z" fill="#539d51"/><path d="M19.9,11.8h.2c.2-.2.3-.2.4,0s.4,0,.4.1.2.2.2.3-.1.5-.2.1-.7-.2-1.4-.1l.4-.4Z" fill="#6fd66c" fill-rule="evenodd"/><path d="M21,12.5l-.2-.2c-.4-.2-.7-.2-1.3-.1h0l.4-.4h.2c.2-.2.3-.2.5-.1h.6a.3.3,0,0,1,0,.2.4.4,0,0,1,0,.3Zm-.7-.4.6.2H21a.4.4,0,0,0,0-.3.2.2,0,0,0,0-.2H19.9l-.3.3Z" fill="#539d51"/><path d="M20,11.6s.6-.2.6-.4.2-.2.2-.2.4-.4.4-.4.3-.2.3-.5,0-.4-.3-.2-.3.1-.4.3-.3.1-.3.3l-.3.3-.2.5v.3Z" fill="#6fd66c" fill-rule="evenodd"/><path d="M20,11.6h0v-.3l.2-.5.3-.3c0-.1.1-.3.3-.3h.1c.1-.2.2-.3.4-.3h.3c0,.1,0,.1,0,.3a.5.5,0,0,1-.2.4h-.1s0,.2-.4.4a.3.3,0,0,1-.2.2h0c-.1.1-.4.2-.6.3Zm.2-.8-.2.5v.2l.5-.3h0l.2-.2h0c.3-.1.3-.3.3-.3h.1c.1-.1.2-.2.2-.3s0-.2,0-.3h-.3c-.2,0-.2.1-.3.3h-.1c-.1-.1-.2.1-.2.3l-.3.3Z" fill="#539d51"/><path d="M20,11a.4.4,0,0,1-.2-.4c-.1-.1-.2-.2-.1-.4V10a.2.2,0,0,1-.1-.3.3.3,0,0,1,0-.4c0-.3.2-.2.3,0s.2.2.1.3.2.2.1.3a.2.2,0,0,1,.1.3c.2.1.1.3.1.4L20,11Z" fill="#6fd66c" fill-rule="evenodd"/><path d="M20,11.1h0a.5.5,0,0,1-.2-.5c-.1-.1-.2-.2-.1-.4V10h-.1a.3.3,0,0,1,0-.2.4.4,0,0,1,0-.4h0c.1-.1.3.1.3.1h0a.4.4,0,0,1,.1.2h0v.2h.1a.2.2,0,0,1,0,.2.4.4,0,0,1,.1.3h0l-.3.5h0Zm-.3-1.9h0a.3.3,0,0,0,0,.4,0,0,0,0,1,0,0,.2.2,0,0,0-.1.2h.1v.3c-.1.1,0,.2.1.3h0a.4.4,0,0,0,.2.3l.3-.4h0a.3.3,0,0,0-.1-.3H20V9.3Z" fill="#539d51"/><path d="M20.3,9.9s-.3-.3-.2-.4-.1-.2,0-.3a.3.3,0,0,1,0-.4.3.3,0,0,1,.1-.4c0-.2.1-.2.2-.3s.2-.2.3,0a.4.4,0,0,1,.1.4c.1.1.1.2,0,.3l-.4,1.1Z" fill="#6fd66c" fill-rule="evenodd"/><path d="M20.3,9.9h0s-.2-.3-.2-.4h0a.4.4,0,0,1,0-.2.3.3,0,0,1,0-.4.3.3,0,0,1,.1-.4c-.1-.2.1-.2.2-.3s.3-.3.4,0a.4.4,0,0,1,.1.4h.1v.2l-.4,1h0ZM20.4,8v.2c-.2.1-.2.1-.2.3s-.1.3-.1.4a0,0,0,0,1,0,0,.3.3,0,0,0,0,.4h0a.3.3,0,0,0,0,.2h0l.2.2.3-1h0a.3.3,0,0,0,0-.3V8Z" fill="#539d51"/><path d="M20.2,8.2,20,8c.1-.1.1-.3-.1-.4s-.5-.5-.6,0-.2-.3-.3-.1-.4-.1-.2.1-.1.2.2.3-.1.3.2.3,0,.2.2.2.1.3.2.2,0,.2.1.2l.2.2.2.2V8.2Z" fill="#6fd66c" fill-rule="evenodd"/><path d="M20.1,9.4h0l-.2-.2-.2-.2h-.2a.2.2,0,0,1,0-.1h-.2a.2.2,0,0,1,0-.1H19a.3.3,0,0,1-.1-.2l-.2-.2a.2.2,0,0,1,0-.2.2.2,0,0,1,0-.2h.3c.1-.1.2,0,.3.1s.2-.2.2-.2a.5.5,0,0,1,.4.3c.1.1.1.3.1.4l.2.2V9.4h0Zm-.5-.8h.1c0,.1,0,.1,0,.1h.1l.3.4v-1h0L20,8h0s.1-.3,0-.4a.5.5,0,0,0-.3-.3c-.1,0-.2.2-.2.3h-.1l-.2-.2h-.3s0,.1,0,.2a.3.3,0,0,0,0,.1l.2.2h0a.2.2,0,0,0,0,.2h.2a0,0,0,0,1,0,0,.1.1,0,0,0,0,.1h.2s0,0,0,0a.1.1,0,0,0,0,.1h.1Z" fill="#539d51"/><path d="M20.1,13.2H18.6a0,0,0,0,1,0-.1h1.4Zm-1.4-.2h0a6.2,6.2,0,0,1,.7-1.5h.1a5.3,5.3,0,0,0-.6,1.5Zm.2-.1h0l1.5-.2h0l-1.5.2ZM20,11.5h0a8,8,0,0,1,1.2-1.4h.1a0,0,0,0,1,0,.1A7.9,7.9,0,0,0,20,11.5Zm.4-1.2h0a0,0,0,0,1,0,0A10.3,10.3,0,0,0,20.8,9h.1a9.5,9.5,0,0,1-.5,1.3Zm-.1-.3h0a4.2,4.2,0,0,0,.1-1.3h.1a4,4,0,0,1-.1,1.4ZM20,9.1h0V8.7l-.7-.8a0,0,0,0,1,0-.1h.1l.6.7a6.1,6.1,0,0,1-.1-.8h.1a6.8,6.8,0,0,0,.2.9l.2.3H20Z" fill="#539d51"/><path d="M16.8,13.7c-1.4-1.4-2.8-4-1.4-5.3s.6,0,1-.2a.3.3,0,0,0,.4.1.3.3,0,0,0,.4-.1c.4.2.9.4,1,.1,1.4,1.4,0,4-1.4,5.3Z" fill="#3e7fcd" fill-rule="evenodd"/><path d="M16.8,13.7h0a6.3,6.3,0,0,1-2-3.9,1.9,1.9,0,0,1,.6-1.4h0c.2.1.5,0,.9-.1h.1a.3.3,0,0,0,.4.1h.4c.4.3.9.3,1,.1h.1a2,2,0,0,1,.6,1.5,6.2,6.2,0,0,1-2,3.8ZM15.4,8.4a1.8,1.8,0,0,0-.6,1.3,6.2,6.2,0,0,0,2,3.9,6.1,6.1,0,0,0,2-3.8,1.9,1.9,0,0,0-.5-1.4h-.3l-.8-.2h-.4c-.1.1-.3.1-.4-.1h0c-.4.2-.7.3-.9.1Z" fill="#796d14"/><path d="M15.7,10.9h-.2v.2l-.2.2a7.8,7.8,0,0,0,1.2,1.8l.2-.2a2.1,2.1,0,0,0,.3-.7l-.2-.5-.2-.4-.2-.2h-.2l-.2-.2Z" fill="#348110" fill-rule="evenodd"/><path d="M16.3,13.2h0a7.8,7.8,0,0,1-1.2-1.8l.2-.2V11h.4l.2.2h.2l.2.2.2.4.2.5a2.1,2.1,0,0,1-.3.7l-.2.2Zm-.5-2.3h-.4v.2l-.2.2a7.9,7.9,0,0,0,1.2,1.8V13a2.1,2.1,0,0,0,.3-.7l-.2-.5-.2-.4-.2-.2h-.2l-.2-.2Z"/><path d="M16,12.7h0v-.3h0v.2Zm.7-.2v-.2h-.3v-.2H16l-.2-.4h0l.2.4h.1v.2h.3v.2Zm-1-.3v-.2h0v.2Zm.9-.3h-.3v-.2h0v.2h.3Zm-1.1,0h.1l.2-.4h.2a2.8,2.8,0,0,1,0-.4h0a2.9,2.9,0,0,0,0,.4h-.2l-.2.4Zm-.2-.3h.1v-.3h0v.3Z"/><path d="M16.2,14.9c.3-.4,2.1-1.3,3.8-3.3a27.4,27.4,0,0,1-4.3,3.3Z" fill="#a2871a" fill-rule="evenodd"/><path d="M16.2,15h-.5L17,14a15.9,15.9,0,0,0,3-2.4H20a16.9,16.9,0,0,1-2.9,2.5l-.9.7Zm-.4-.1h.3l.9-.7,1.6-1.2L17,14l-1.2.8Z" fill="#7b6714"/><path d="M18,10.9h-.2v.2l-.2.3a.6.6,0,0,1-.1.3.6.6,0,0,0-.1.3c0,.1-.2.2-.2.2a2.1,2.1,0,0,0,.4.7,7,7,0,0,0,1.1-1.8h-.1l-.2-.2Z" fill="#348110" fill-rule="evenodd"/><path d="M17.4,13h0a2.2,2.2,0,0,1-.4-.7s.2-.1.2-.2a.6.6,0,0,1,.1-.3v-.3c0-.1.2-.3.2-.3V11h.4l.4.3A6.9,6.9,0,0,1,17.4,13Zm.7-2.1h-.4v.2l-.2.3a.6.6,0,0,1-.1.3.6.6,0,0,0-.1.3c0,.1-.2.2-.2.2a2.3,2.3,0,0,0,.4.7,7,7,0,0,0,1.1-1.8l-.4-.2Z"/><path d="M17.2,12.9h.2s0-.2,0-.3.1-.1.1-.1v-.2h0s0-.2.1-.2h.1v-.3h0v.3h-.1c-.1.1-.1.2-.1.2h0v.2s-.1,0-.1.1,0,.3,0,.3h-.2Zm-.1-.2v-.2h-.1V12h.2c.1,0,0-.3,0-.3h0s.1.2,0,.3h-.2v.4h.1v.2Zm.7-.2v-.4h0v.4Zm-.2-.4h.3l.2-.4h.2a2.8,2.8,0,0,1,0-.4h0a3,3,0,0,0,0,.4H18l-.2.4h-.3Zm.7-.3-.2-.3h0l.2.3Zm.2-.3h0Z"/><path d="M18.7,12.9h0Z" fill="#914822" fill-rule="evenodd"/><path d="M18.5,13l-.2-.2.2-.2.2.2-.2.2Zm0-.3h0Z" fill="#613219"/><path d="M16.8,11h-.2v.2l-.2.3a.6.6,0,0,1-.1.3.6.6,0,0,0-.1.3c0,.1-.2.2-.2.2s.1.3.2.4l.7.9a5.6,5.6,0,0,0,1.1-1.2l-.2-.5-.2-.4v-.2h-.2l-.2-.2Z" fill="#348110" fill-rule="evenodd"/><path d="M16.7,13.6h0l-.7-.9h-.1l-.2-.3h0s.2-.1.2-.2a.6.6,0,0,1,.1-.3v-.3l.2-.3v-.2h.4l.2.2h.2l.2.2.2.4.2.5a4.5,4.5,0,0,1-.9,1.1l-.2.2Zm.2-2.6h-.4v.2l-.2.3a.6.6,0,0,1-.1.3.6.6,0,0,0-.1.3c0,.1-.2.2-.2.2h0l.2.3H16l.7.9.2-.2a4.5,4.5,0,0,0,.9-1l-.2-.5-.2-.4-.2-.2h-.2l-.2-.2Z"/><path d="M16.3,13.2h0l.2-.2h.1v-.6h0v.4h-.1l-.2.2Zm.5,0h.1v-.2h0v-.3h0v.2h0V13Zm-.7-.3h.1a2.2,2.2,0,0,1,0-.3c0-.1.1-.1.1-.1v-.2h0s0-.2.1-.2h.1v-.3h0v.3h-.1c-.1.1-.1.2-.1.2h0v.2s-.1,0-.1.1,0,.3,0,.3Zm-.1-.2h0v-.4h.2c.1,0,0-.2,0-.3h0s.1.2,0,.3h-.2v.4h0Zm1.8-.1v-.2h-.3V12h-.1l-.2-.4h0l.2.4h.1v.2h.3v.2Zm-1.4-.4h.3l.2-.4H17a2.6,2.6,0,0,1,0-.4h0a2.9,2.9,0,0,0,0,.4h-.2l-.2.4h-.3Zm1.3-.2h-.3v-.2h0v.2h.3Z"/><path d="M19.9,11.5l-.2.2v-.3l.2.2Z" fill="#914822" fill-rule="evenodd"/><path d="M19.8,11.7l-.2-.2.2-.2.2.2-.2.2Zm0-.3h0Z" fill="#613219"/><path d="M20.4,10.4h0Z" fill="#914822" fill-rule="evenodd"/><path d="M20.2,10.5l-.2-.2.2-.2.2.2-.2.2Zm0-.3h0Z" fill="#613219"/><path d="M20,8.9h0Z" fill="#914822" fill-rule="evenodd"/><path d="M19.8,9l-.2-.2.2-.2.2.2-.2.2Zm0-.3h0Z" fill="#613219"/><path d="M15.4,11.2v-.6h0V9.7H16v.2h-.2v.6H16v.2h-.1v.6Z" fill="#fff" fill-rule="evenodd"/><path d="M15.9,11.2h-.6v-.6h0v-.2h.1V9.7H16v.2h-.2v.6H16v.2h-.1v.6Zm-.6-1.6h.1v.7h-.1v.6h.5v-.6H16v-.2h-.1V9.7h0V9.4h0V9H16V8.6h-.6Z" fill="#a6a6a6"/><path d="M17.7,11.2v-.6h0V9.7h.6v.2h-.2v.6h.2v.2h-.1v.6Z" fill="#fff" fill-rule="evenodd"/><path d="M18.2,11.2h-.6v-.6h-.1v-.2h.1V9.7h.6v.2h-.2v.6h.1v.2h-.1v.6Zm-.6-1.6h.1v.7h-.1v.6h.5v-.6h.1v-.2h-.1V9.7h0V9.4h0V9.1h.2s0-.1,0-.1V8.6h-.6Z" fill="#a6a6a6"/><path d="M16.5,11.2v-.6h0V9.8h.6v.2H17v.6h.2v.2h-.1v.6Z" fill="#fff" fill-rule="evenodd"/><path d="M17.1,11.2h-.6v-.6h0v-.2h.1V9.8h.6v.2H17v.2h0v.6h.1v.2h-.1v.6Zm-.6-1.6h.1v.7h-.1v.6H17v-.6h.1v-.2H17V9.8h0V9.5h0V9.1h.2V8.6h-.6Z" fill="#a6a6a6"/><polygon points="15.5 11.2 15.5 10.7 15.8 10.7 15.8 11.2 15.5 11.2" fill-rule="evenodd"/><polygon points="16.7 11.2 16.7 10.7 16.9 10.7 16.9 11.2 16.7 11.2" fill-rule="evenodd"/><polygon points="17.8 11.2 17.8 10.8 18 10.7 18 11.2 17.8 11.2" fill-rule="evenodd"/><rect x="15.6" y="9.8" width="0.1" height="0.24"/><rect x="16.7" y="9.8" width="0.2" height="0.23"/><rect x="17.8" y="9.8" width="0.2" height="0.23"/><path d="M16.9,8.9h-.1v.2Zm-1.1,0-.2-.2h0l.2.2Zm2.3,0h0Z" fill="#a5a5a5"/><path d="M15.5,8.2c.4-.1-.1-.4-.2,0s-.2.1-.5.1-.2,3.4,2,5.5c-3.9-3.5-2.3-6.1-1.2-6s.3.8-.1.4Z" fill="#ad761b" fill-rule="evenodd"/><path d="M17.4,8.4a.5.5,0,0,1-.1-.4h.1a.5.5,0,0,0,.1.4Zm-.6-.1V7.8h.1v.4Zm-.4,0h-.1a.5.5,0,0,0,.1-.3h0V7.7h.1a.9.9,0,0,0,0,.5Zm.8,0h0c0-.1.1-.3,0-.4h.1c.1.1.1.3,0,.4Zm-.2-.1h0Zm-.3,0h0ZM16,7.8h-.1c0-.1-.2-.2-.3-.2h0s.4.1.4.3Zm1.2,0,.2-.2h.1l-.2.2Zm-1,0L16,7.6h0l.3.2Zm1.3,0h-.1l.4-.2h-.4Z" fill="#796d14"/><path d="M17.2,8.1h-.8l-.5.2h-.4a1.8,1.8,0,0,0-.6,1.2A3.3,3.3,0,0,0,15,11a7.7,7.7,0,0,0,1.8,2.7h.1A7.2,7.2,0,0,0,18.6,11a2.5,2.5,0,0,0-.3-2.7h-.4l-.6-.2Zm0,.1.6.2h.4a2.4,2.4,0,0,1,.3,2.6,7.1,7.1,0,0,1-1.7,2.6A7.6,7.6,0,0,1,15,11a3.3,3.3,0,0,1-.2-1.4,1.7,1.7,0,0,1,.5-1.1h.4l.5-.2h.9Z" fill="#796d14" fill-rule="evenodd"/><path d="M18.1,8.2c-.4-.1.1-.4.2,0s.2.1.5.1.2,3.4-2,5.5c3.9-3.5,2.3-6.1,1.2-6s-.3.8.1.4Z" fill="#ad761b" fill-rule="evenodd"/><path d="M14.9,13a2.1,2.1,0,0,0-2.3-.4l.8.3Z" fill="#2b6a0c" fill-rule="evenodd"/><path d="M14.9,13.1H13.4l-.5-.2h-.4a2.2,2.2,0,0,1,2.4.4h0Zm-2.2-.4H13l.5.2h1.4a2.1,2.1,0,0,0-2.1-.4Z" fill="#1c4404"/><path d="M14.7,13h0a2.8,2.8,0,0,0-1.3-.3h0a2.9,2.9,0,0,1,1.4.3h0Z" fill="#43a514"/><path d="M14.9,13.1l-.9.4-1-.3h-.4c1.2-.6,1.6-.5,2.4-.1Z" fill="#2b6a0c" fill-rule="evenodd"/><path d="M14,13.5h0l-.8-.2h-.7c1.2-.6,1.7-.5,2.4-.1h0l-.5.2-.4.2Zm-1.2-.4h.4l.8.2h.3l.5-.2c-.6-.4-1-.5-2,0Z" fill="#1c4404"/><path d="M14.1,12.2h-.6a1.4,1.4,0,0,1-.7-.5.7.7,0,0,0-.5-.2,1.6,1.6,0,0,1,1.8.6Z" fill="#2b6a0c" fill-rule="evenodd"/><path d="M13.5,12.3h0a1.4,1.4,0,0,1-.8-.5h-.5a1.7,1.7,0,0,1,1.9.6h-.6Zm-.9-.7h.2a1.4,1.4,0,0,0,.7.5H14a1.5,1.5,0,0,0-1.5-.6Z" fill="#1c4404"/><path d="M13.6,11.4a1.7,1.7,0,0,1-1.4-1.2l.2.2c.9.2,1,.4,1.2,1Z" fill="#2b6a0c" fill-rule="evenodd"/><path d="M13.6,11.4h0a1.7,1.7,0,0,1-1.4-1.2h.2c.9.2,1,.4,1.2,1h0a0,0,0,0,1,0,0Zm-1.3-1.1a1.7,1.7,0,0,0,1.3,1c-.2-.5-.3-.7-1.2-.9h-.1Z" fill="#1c4404"/><path d="M14.5,12.4a1.4,1.4,0,0,0-.1-1.2,2.3,2.3,0,0,1-.4-.7c0,.7-.2,1.3.5,1.9Z" fill="#2b6a0c" fill-rule="evenodd"/><path d="M14.5,12.4h0a1.7,1.7,0,0,1-.5-1.7v-.2H14a2,2,0,0,0,.3.6,1.5,1.5,0,0,1,.1,1.2h0ZM14,10.6h0a1.7,1.7,0,0,0,.5,1.6,1.3,1.3,0,0,0-.1-1.1l-.3-.6Z" fill="#1c4404"/><path d="M13.6,10.9A2.6,2.6,0,0,0,14,9.1l-.2.4c-.6.4-.3,1-.3,1.4Z" fill="#2b6a0c" fill-rule="evenodd"/><path d="M13.6,11h0v-.2a1,1,0,0,1,.3-1.3V9.1h.1a2.6,2.6,0,0,1-.4,1.9ZM14,9.3v.3c-.5.3-.4.8-.3,1.2h0A2.3,2.3,0,0,0,14,9.3Z" fill="#1c4404"/><path d="M13.3,7.9a2.8,2.8,0,0,1,.3,2l-.2-.4c-.6-.4-.2-1.1-.1-1.5Z" fill="#2b6a0c" fill-rule="evenodd"/><path d="M13.5,9.9h0V9.5c-.5-.3-.3-.9-.2-1.3V7.9h.1a2.7,2.7,0,0,1,.3,1.9h0Zm-.1-.5v.3A2.6,2.6,0,0,0,13.3,8v.2c-.1.4-.3.9.2,1.2Z" fill="#1c4404"/><path d="M13.6,8.9c1-.5.6-1.2.8-1.7a1.9,1.9,0,0,0-.8,1.7Z" fill="#2b6a0c" fill-rule="evenodd"/><path d="M13.6,8.9h0a2,2,0,0,1,.8-1.7h.1a1.5,1.5,0,0,0-.1.5,1.2,1.2,0,0,1-.7,1.3Zm.7-1.6a1.9,1.9,0,0,0-.7,1.5,1.1,1.1,0,0,0,.6-1.2,2,2,0,0,1,0-.4Z" fill="#1c4404"/><path d="M13.4,9.5h0V8.6h.1v.9h0Zm.3-.8h0a5.5,5.5,0,0,1,.4-1h0l-.4,1Z" fill="#43a514"/><path d="M13.5,10.7c-.6,0-1.2-.8-1.3-1.4l.2.2a1.9,1.9,0,0,1,1.1,1.3Z" fill="#2b6a0c" fill-rule="evenodd"/><path d="M13.5,10.7h0c-.6,0-1.2-.8-1.3-1.5h.1l.2.2a1.8,1.8,0,0,1,1.1,1.1v.2h0ZM12.2,9.3a2,2,0,0,0,1.2,1.3h0a1.7,1.7,0,0,0-1-1.1h-.1Z" fill="#1c4404"/><path d="M13.3,10.1a2.5,2.5,0,0,1-.4-1.8l.2.4c.6.4.3,1,.3,1.4Z" fill="#2b6a0c" fill-rule="evenodd"/><path d="M13.3,10.2h0a2.6,2.6,0,0,1-.4-1.9h.1v.4c.5.4.4.9.3,1.3v.2h0Zm-.4-1.7a2.4,2.4,0,0,0,.4,1.5h0c.1-.4.2-.9-.3-1.2h0V8.5Z" fill="#1c4404"/><path d="M13.7,9c1-.5.7-1,1-1.5s-1,.9-1,1.5Z" fill="#2b6a0c" fill-rule="evenodd"/><path d="M13.7,9.1h0c0-.6.4-1,1-1.5h.1a1.5,1.5,0,0,0-.2.5,1.3,1.3,0,0,1-.9,1Zm.9-1.4A1.8,1.8,0,0,0,13.7,9a1.2,1.2,0,0,0,.8-1V7.7Z" fill="#1c4404"/><path d="M13.7,9h0a0,0,0,0,1,0-.1,2.8,2.8,0,0,0,.6-.8h.1a2.8,2.8,0,0,1-.6.8Z" fill="#43a514"/><path d="M17.4,14.9h.5c-1.7-1.6-4.8-2.3-4.4-5.3-.5,3.2,2.6,3.5,3.9,5.3Z" fill="#a2871a" fill-rule="evenodd"/><path d="M18,15h-.6a7.1,7.1,0,0,0-1.7-1.5c-1.2-.8-2.4-1.6-2.3-3.6h0V9.6h.1v.3c-.1,1.9,1.3,2.8,2.7,3.7a10.9,10.9,0,0,1,1.7,1.3Zm-4.2-3.3a5.5,5.5,0,0,0,1.9,1.8,6.7,6.7,0,0,1,1.7,1.5h.4l-1.6-1.2a7,7,0,0,1-2.3-2Z" fill="#7b6714"/><path d="M13.7,9l-.2.2L13.4,9l.2-.2.2.2Z" fill="#914822" fill-rule="evenodd"/><path d="M13.6,9.2a.2.2,0,0,1,0-.4.2.2,0,0,1,0,.4Zm0-.3V9h.3V8.8Z" fill="#613219"/><path d="M13.7,9.9V10l-.2-.2.2-.2v.2Z" fill="#914822" fill-rule="evenodd"/><path d="M13.5,10.1a.2.2,0,0,1,0-.4l.2.2-.2.2Zm0-.3h0Z" fill="#613219"/><path d="M13.8,11.2h0Z" fill="#914822" fill-rule="evenodd"/><path d="M13.7,11.3l-.2-.2.2-.2.2.2-.2.2Zm0-.3h0Z" fill="#613219"/><path d="M15,12.6h0Z" fill="#914822" fill-rule="evenodd"/><path d="M14.8,12.8l-.2-.2.2-.2.2.2-.2.2Zm0-.3h0Z" fill="#613219"/><path d="M15.1,13h0Z" fill="#914822" fill-rule="evenodd"/><path d="M15,13.2l-.2-.2.2-.2.2.2-.2.2Zm0-.3h0Z" fill="#613219"/><path d="M15.7,14.3l-.2-.2H15v.3Z" fill="#fff" fill-rule="evenodd"/><path d="M15,14.3V14h.5l.2.2Zm0-.3v.3h.7l-.2-.2Z"/><path d="M11.9,13.9c.3.1.8,0,.9.2s-.6.5-.5.7.5.1.7,0v-.5c-.1-.2-.3-.3-.3-.7a2.8,2.8,0,0,1,1.3-.1c.1.1,0,.2,0,.3s-.3.4-.3.5.6,0,1,0,.7.1.8-.1-.5,0-.7-.1L15,14c-.1-.1-.3-.1-.3-.3s.6-.3.7-.4h1.4c.3,0,.4.5.1.6s-1.4-.2-1.8,0l-.4-.3h-.4l-.2.3c-.3-.1-.6.1-.9,0H11.9l.3-.3-.3-.2Z" fill="#fff" fill-rule="evenodd"/><path d="M12.7,15l-.3-.2c-.1-.1.1-.2.2-.3h-.7l.4-.3-.3-.2h.3c.2,0,.5,0,.6.2s0,.2,0,.2h.3a.5.5,0,0,1-.2-.5l.9-.2h.4a.3.3,0,0,1,0,.2h.4c.1-.3.4-.4.6-.4h1.6a.3.3,0,0,1,.3.3.3.3,0,0,1-.2.4H14v-.2h-.8v.5l-.4.2Zm.5-.7h-.6c-.1.1-.3.2-.2.3s.5.1.7,0v-.4Zm1.1-.3h-.1l-.2.3h.2Zm-2.4,0,.3.2-.3.3h.8c.1-.1.1-.2.1-.2s-.3-.1-.6-.1Zm1.3.4h1v-.2a.4.4,0,0,1,0-.1.3.3,0,0,0,0-.2H12.9a.5.5,0,0,0,.2.4h.1Zm2.3-.2h1.3a.3.3,0,0,0,.2-.4.3.3,0,0,0-.2-.2H15.2c-.2,0-.5.1-.6.4h.8Z"/><path d="M11.9,13.8h0Z" fill="#fff" fill-rule="evenodd"/><path d="M11.7,14l-.2-.2.2-.2.2.2-.2.2Zm0-.3h0Z"/><path d="M11.8,14.5h0Z" fill="#fff" fill-rule="evenodd"/><path d="M11.7,14.7l-.2-.2.2-.2.2.2-.2.2Zm0-.3h0Z"/><path d="M17.9,14.3,18,14h.5v.3Z" fill="#fff" fill-rule="evenodd"/><path d="M18.6,14.3h-.7L18,14h.5v.4Zm0-.3H18l-.2.2h.7V14Z"/><path d="M21.7,13.9c-.3.1-.8,0-.9.2s.6.5.5.7-.5.1-.7,0v-.5c.1-.2.3-.3.3-.7a2.7,2.7,0,0,0-1.3-.1c-.1.1,0,.2,0,.3s.2.4.2.5-.6,0-1,0-.7.1-.8-.1.5,0,.7-.1l.2-.2c.1-.1.3-.1.3-.3s-.6-.3-.7-.4H16.8c-.3,0-.4.5-.1.6s1.4-.2,1.8,0l.4-.3h.4l.2.3c.3-.1.6.1.9,0h1.3l-.3-.3.3-.2Z" fill="#fff" fill-rule="evenodd"/><path d="M20.9,15h-.4v-.5h-.8v.2a.8.8,0,0,1-.6.1H17.7c0-.1.2-.1.3-.1H16.7a.4.4,0,0,1-.2-.4.3.3,0,0,1,.3-.3h1.6c.2,0,.5.1.6.4h.4a.3.3,0,0,1,0-.2h1.3a.5.5,0,0,1-.1.5h.3c-.1-.1-.1-.2,0-.2s.3-.2.6-.2h.3l-.3.3.3.3H21c.1.1.3.3.2.3l-.3.2Zm-.5-.7h0v.4c.2.1.5.2.7,0s-.1-.2-.2-.3h-.6Zm-1.8.1h.9l-.2-.3v-.2h-.7Zm2.6-.1h.4l-.3-.3.3-.3h-.3c-.2,0-.5,0-.6.1s0,.1.1.2h.4Zm-1.5-.1h.8a.5.5,0,0,0,.1-.5H19.3a.3.3,0,0,0,0,.2h0v.3Zm-2.9-.7a.3.3,0,0,0-.2.2.3.3,0,0,0,.2.4h.7a2.3,2.3,0,0,1,1.1,0h.4c-.1-.3-.4-.3-.6-.3H16.8Z"/><path d="M21.7,13.8h0Z" fill="#fff" fill-rule="evenodd"/><path d="M21.8,14l-.2-.2.2-.2.2.2-.2.2Zm0-.3h0Z"/><path d="M21.7,14.5h0Z" fill="#fff" fill-rule="evenodd"/><path d="M21.9,14.7l-.2-.2.2-.2.2.2-.2.2Zm0-.3h0Z"/><path d="M16.8,13.5h-.2l-.2.6h.6c-.2,0-.1-.6-.1-.6Z" fill="#fff" fill-rule="evenodd"/><polygon points="15.5 13.9 15.5 13.5 15.6 13.5 15.6 13.9 15.8 13.9 15.8 13.9 15.5 13.9"/><rect x="15.8" y="13.5" width="0.1" height="0.41"/><path d="M16.1,14H16v-.4h.1Zm0-.4h0Zm0,.2h0Z"/><polygon points="16.5 13.6 16.5 13.7 16.6 13.7 16.6 13.8 16.5 13.8 16.5 13.9 16.6 13.9 16.6 14 16.4 14 16.4 13.6 16.6 13.6 16.6 13.6 16.5 13.6"/><path d="M17,14v-.2h0V14h-.1v-.4h.2V14Zm-.2-.4h0Z"/><polygon points="17.3 13.6 17.3 14 17.2 14 17.2 13.6 17.1 13.6 17.1 13.6 17.4 13.6 17.4 13.6 17.3 13.6"/><path d="M17.7,13.9h-.3l.2-.4h0l.2.4Zm-.1-.3v.2h.1Z"/><path d="M17.8,13.9h0Z"/><path d="M14.1,13.1h0Zm.4-.9h0a3.6,3.6,0,0,0-.2-.7v-.3h.1v.3a3.6,3.6,0,0,1,.2.7h0Zm-.4-.1-1-.4a0,0,0,0,1,0-.1h.1l1,.4h0Zm-.6-.9h0l-.3-.2-.7-.4h0l.7.5.3.2h0Zm.2-.5h0c0-.7.1-.9.3-1H14a0,0,0,0,1,0,.1c-.1.1-.2.3-.3,1Zm-.3-.2-.8-.9a0,0,0,0,1,0-.1h.1l.8.9Zm0-.7h0s0-.6-.2-.8A0,0,0,0,1,13,9h.1c.3.2.3.8.3.8Z" fill="#43a514"/></g></g></svg>