<svg xmlns="http://www.w3.org/2000/svg" xmlns:xlink="http://www.w3.org/1999/xlink" viewBox="0 0 33.6 19.6"><defs><clipPath id="a"><rect width="33.6" height="19.58" fill="none"/></clipPath></defs><title>SRB</title><g clip-path=""><rect width="33.6" height="6.53" fill="#c90031"/><path d="M0,19.6H33.6V13.1H0Zm0-6.5v0Z" fill="#fff"/><rect y="6.5" width="33.6" height="6.53" fill="#313d83"/><g clip-path=""><path d="M10.8,3.6h0l-.2-.2h-.1l-.2.2H8.3v.2h4.1V5.5H10.8Z"/><path d="M10.7,4.7h0c.1,0,.1-.1.1-.1h0V3.8h.7l.3.2h.1a.7.7,0,0,1-.2.4c-.1.1-.1.1,0,.2h0a.1.1,0,0,0,0-.1h-1a.1.1,0,0,1,0-.1h.3a.3.3,0,0,0,0-.2h-.2Z" fill="#c90031"/><path d="M10.2,4.7h-.1c-.1,0-.1-.1-.1-.1h0V3.8H9.5L9.2,4H9.1a.8.8,0,0,0,.2.4c.1.1.1.1,0,.2h0a.1.1,0,0,1,0-.1H10a.3.3,0,0,1,0-.2h.2Z" fill="#c90031"/><path d="M10.6,3.2h0v.2h.2V3.2Zm-.2.2V3.2l-.2.2h.2Zm-.2.2h.3l.2-.2h-.5Z" fill="#f8e72d"/><path d="M10.5,3.5Z" fill="#f8e72d"/><path d="M10.5,3h0v.3h-.1V3.1h.1Z" fill="#f7de31"/><path d="M10.5,3.8Z" fill="#fff"/><path d="M10.5,4h0Z" fill="#272425"/><path d="M10.5,4Z" fill="#fff"/><path d="M10.5,4.2h0Z" fill="#272425"/><path d="M10.5,4.2Z" fill="#fff"/><path d="M10.5,4.4h0Zm-.1,0h0Z" fill="#272425"/><path d="M10.5,4.4Z" fill="#fff"/><path d="M10.5,4.6h0Z" fill="#272425"/><path d="M7.9,4.7Z" fill="#fff"/><path d="M7.9,5h0Zm0-.2h0Z" fill="#272425"/><path d="M7.9,4.5Z" fill="#fff"/><path d="M7.8,4.7h0Zm0-.2h0Z" fill="#272425"/><path d="M7.8,4.4h0Z" fill="#fff"/><path d="M8,4.5Zm0-.2h0Z" fill="#272425"/><path d="M8.1,4.1Z" fill="#fff"/><path d="M8.1,4.3h0Zm0-.2h0Z" fill="#272425"/><path d="M8.3,4Z" fill="#fff"/><path d="M8.3,4.2h0Zm0,0h0Z" fill="#272425"/><path d="M8.5,3.9Z" fill="#fff"/><path d="M8.5,4.1h0Zm-.1,0h0Z" fill="#272425"/><path d="M8,5H8Z" fill="#fff"/><path d="M8.1,5.2h0Zm0-.2H8Z" fill="#272425"/><path d="M9.4,3.5Z" fill="#fff"/><path d="M9.4,3.7h0Z" fill="#272425"/><path d="M9,4.7H9a.5.5,0,0,1,0-.1H9Z" fill="#fff"/><path d="M9,4.9H9a.4.4,0,0,1,0-.1H9a.3.3,0,0,0,0,.1Z" fill="#272425"/><path d="M8.9,4.5Z" fill="#fff"/><path d="M8.9,4.7h0Zm0-.2h0Z" fill="#272425"/><path d="M8.8,4.3Z" fill="#fff"/><path d="M8.8,4.5h0Zm0-.2h0Z" fill="#272425"/><path d="M8.8,4.1Z" fill="#fff"/><path d="M8.7,4.3h0Zm.1-.2h0Z" fill="#272425"/><path d="M8.8,3.8Z" fill="#fff"/><path d="M8.8,4.1h0Zm0-.2h0Z" fill="#272425"/><path d="M9,3.7Z" fill="#fff"/><path d="M9,3.9H9Zm0-.2H9Z" fill="#272425"/><path d="M9.1,3.5Z" fill="#fff"/><path d="M9.1,3.8h0Zm0,0h0Z" fill="#272425"/><path d="M9.6,3.5Z" fill="#fff"/><path d="M9.6,3.7h0Zm0-.2h0Z" fill="#272425"/><path d="M9.8,3.5Z" fill="#fff"/><path d="M9.8,3.7h0Zm0-.2h0Z" fill="#272425"/><path d="M10.1,3.5Z" fill="#fff"/><path d="M10.1,3.7h0Zm0-.2h0Z" fill="#272425"/><path d="M13,4.7Z" fill="#fff"/><path d="M13,5h0Z" fill="#272425"/><path d="M13,4.5Z" fill="#fff"/><path d="M13.1,4.7h0Z" fill="#272425"/><path d="M13.1,4.4h0a.1.1,0,0,1,0,.1Z" fill="#fff"/><path d="M13,4.5Z" fill="#272425"/><path d="M12.8,4.1Z" fill="#fff"/><path d="M12.8,4.3h0Z" fill="#272425"/><path d="M12.6,4Z" fill="#fff"/><path d="M12.6,4.2h0Z" fill="#272425"/><path d="M12.4,3.9Z" fill="#fff"/><path d="M12.4,4.1h0Z" fill="#272425"/><path d="M13,5h0Z" fill="#fff"/><path d="M12.8,5.2h0Zm-.1-.1h0Z" fill="#272425"/><path d="M11.6,3.5Z" fill="#fff"/><path d="M11.6,3.7h0Z" fill="#272425"/><path d="M12,4.7h0a.3.3,0,0,0,0-.1h0Z" fill="#fff"/><path d="M12,4.9Z" fill="#272425"/><path d="M12.1,4.5Z" fill="#fff"/><path d="M12.1,4.7h0ZM12,4.6h0Z" fill="#272425"/><path d="M12.1,4.3Z" fill="#fff"/><path d="M12.2,4.5h0Z" fill="#272425"/><path d="M12.2,4.1Z" fill="#fff"/><path d="M12.2,4.3h0Z" fill="#272425"/><path d="M12.1,3.8Z" fill="#fff"/><path d="M12.1,4.1h0Zm0-.2h0Z" fill="#272425"/><path d="M12,3.7Z" fill="#fff"/><path d="M12,3.9h0Z" fill="#272425"/><path d="M11.8,3.5Z" fill="#fff"/><path d="M11.8,3.8h0Z" fill="#272425"/><path d="M11.3,3.5Z" fill="#fff"/><path d="M11.3,3.7h0Zm0-.2h0Z" fill="#272425"/><path d="M11.1,3.5Z" fill="#fff"/><path d="M11.1,3.7h0Zm0-.2h0Z" fill="#272425"/><path d="M10.9,3.5Z" fill="#fff"/><path d="M10.9,3.7h0Zm0-.2h0Z" fill="#272425"/><path d="M10.4,4.6h-.2v.7h-.1s0,0,0-.1h0V3.8H9.8a1.2,1.2,0,0,0-.7.1h0L9,4.1H9a.2.2,0,0,0,0,.1H9a1,1,0,0,0,.2.4H9.1V4.5h0a.5.5,0,0,1,0-.3l.2-.2a1.3,1.3,0,0,1,.8-.1H9.3c.1-.1.1-.1,0-.2a.8.8,0,0,1-.2-.4h.1l.3-.2h.7v.6h0c0,.1.1.1.1.1h.2Z" fill="#f8e72d"/><path d="M8.1,4.3a.1.1,0,0,1,0,.1h.1a.1.1,0,0,1,0,.1h.3s0-.1,0-.1l-.2-.2a.3.3,0,0,1-.1-.3h.1l.4-.2h0a.8.8,0,0,0,.1.6h.1a.1.1,0,0,1,0-.1H8.7v.3H8.7a.8.8,0,0,1-.1-.7H8.1a.4.4,0,0,0,.1.3h0A.5.5,0,0,1,8,4.6V4.3l.2-.2H8.1Zm.6,0h0Z" fill="#f8e72d"/><path d="M10.5,4.6h.2v.7h.1a.1.1,0,0,0,0-.1h0V3.8h.3a1.2,1.2,0,0,1,.7.1h0l.2.2h0a.2.2,0,0,1,0,.1h0l-.2.4h.1V4.5h0a.5.5,0,0,0,0-.3l-.2-.2a1.3,1.3,0,0,0-.8-.1h.6c-.1-.1-.1-.1,0-.2a.8.8,0,0,0,.2-.4h-.1l-.3-.2h-.7v.3a1,1,0,0,0,0,.3h0c0,.1-.1.1-.1.1h-.2Z" fill="#f8e72d"/><path d="M12.9,4.3h-.1a.1.1,0,0,0,0,.1h-.3s0-.1,0-.1l.2-.2a.3.3,0,0,0,.1-.3h-.1l-.4-.2h0a.8.8,0,0,1-.1.6h-.1a.1.1,0,0,0,0-.1h.1v.3h.1a.8.8,0,0,0,.1-.7h.5a.4.4,0,0,1-.1.3h-.2a0,0,0,0,0,0,0h.2a.5.5,0,0,0,.2-.4V4.3l-.2-.2h.1a.2.2,0,0,0,0,.1h.1Zm-.6,0h0Z" fill="#f8e72d"/><path d="M10.2,3.7h0v.7h0s0,0,0,0h.1V3.8h-.1Z" fill="#fff"/><path d="M10.2,4.6h0V3.8h0v.7h0s0,0,0,0h0Zm0,0a.2.2,0,0,1,0-.1V3.8h0v.7h0Z" fill="#272425"/><path d="M10.2,3.8H9.9a1.3,1.3,0,0,0-.8.1l-.2.2a.6.6,0,0,0,0,.3H9v.2h0A1,1,0,0,1,9,4.2H9l.2-.2h0a1.2,1.2,0,0,1,.7-.1h.3Z" fill="#fff"/><path d="M9.2,4.8H9.1V4.4h0a.6.6,0,0,1,0-.3l.2-.2h0l-.2.2a.5.5,0,0,0,0,.3H9v.2h.1Zm0-.1H9.1L9,4.2a.5.5,0,0,1,0-.1H9l.2-.2h0L9,4.1H9l.2.4h.1Z" fill="#272425"/><path d="M8.8,5H8.7a.8.8,0,0,1-.1-.7H8.1a.4.4,0,0,0,.1.3h0A.5.5,0,0,1,8,4.6V4.4h.5v.3h0Z" fill="#fff"/><path d="M8.3,5.1H8.2A.5.5,0,0,1,8,4.6V4.4h.5v.3h0V4.6H8.1v.2a.5.5,0,0,0,.2.4h.1Zm0-.1H8.2a.4.4,0,0,1-.1-.3h0a.4.4,0,0,0,.1.3h.1ZM8.8,5H8.7a.8.8,0,0,1-.1-.5.8.8,0,0,0,.1.5h.1Z" fill="#272425"/><path d="M10.8,3.7a.2.2,0,0,1,0,0h0v.7h0s0,0,0,0h-.1V3.8h.1Z" fill="#fff"/><path d="M10.8,4.6h0s0,0,0,0h0V3.8h0v.7h0s0,0,0,0h0Zm0,0h0a.1.1,0,0,0,0-.1V3.8h0v.7h0Z" fill="#272425"/><path d="M10.8,3.8H11a1.3,1.3,0,0,1,.8.1l.2.2a.6.6,0,0,1,0,.3h0v.2h-.1l.2-.4h0l-.2-.2h0a1.2,1.2,0,0,0-.7-.1h-.3Z" fill="#fff"/><path d="M11.7,4.8h.1V4.4h0a.5.5,0,0,0,0-.3l-.2-.2h0l.2.2h0a.5.5,0,0,1,0,.1l-.2.4h0l.2-.4a.2.2,0,0,0,0-.1h0l-.2-.2h.1l.2.2a.5.5,0,0,1,0,.3h0v.2h-.1Z" fill="#272425"/><path d="M12.1,5h.1a.8.8,0,0,0,.1-.7h.5a.4.4,0,0,1-.1.3h-.2a0,0,0,0,0,0,0h.2a.5.5,0,0,0,.2-.4V4.4h-.5v.3h0Z" fill="#fff"/><path d="M12.6,5.1h.1a.4.4,0,0,0,.1-.3h0a.4.4,0,0,1-.1.3h0a.5.5,0,0,0,.2-.4V4.4h0v.2a.5.5,0,0,1-.2.4h-.1ZM12.1,5h.1a.8.8,0,0,0,.1-.7h0a.8.8,0,0,1-.1.7h-.1Zm-.1-.1h0V4.6h0v.3Z" fill="#272425"/><path d="M8.3,5.2h.3a.1.1,0,0,1,0,.1h.5a.2.2,0,0,0,0-.1h0a.1.1,0,0,1,0,.1H8.6a.8.8,0,0,1-.1-.6l-.3.2H8.2a.3.3,0,0,0,.1.3l.2.2s0,.1,0,.1H8.3Z" fill="#c90031"/><path d="M12.6,5.2h-.3a.1.1,0,0,0,0,.1h-.5a.2.2,0,0,1,0-.1h0a.1.1,0,0,0,0,.1h.5a.8.8,0,0,0,.1-.6l.3.2h.1a.3.3,0,0,1-.1.3l-.2.2s0,.1,0,.1h.1Z" fill="#c90031"/><path d="M8.8,5.7h0Z" fill="#c90031"/><path d="M9.2,5.6h0Z" fill="#c90031"/><path d="M9.6,5.6h0Z" fill="#c90031"/><path d="M12.1,5.7h0Z" fill="#c90031"/><path d="M11.7,5.6h0Z" fill="#c90031"/><path d="M11.3,5.6h0Z" fill="#c90031"/><path d="M10.5,5.3h0l.3.2h-.7l.3-.2h0Z" fill="#c90031"/><path d="M8.7,5.9h0Z" fill="#f8e72d"/><path d="M10.2,6.1h0Z" fill="#f8e72d"/><path d="M9.9,5.8h0Z"/><path d="M9,5.9H9Z"/><path d="M11.1,5.8h0Z"/><path d="M11.9,5.9h0Z"/><path d="M8.8,6.1Z" fill="#313d83"/><path d="M12.1,6.1Z" fill="#313d83"/><path d="M9.5,6h0Z"/><path d="M9.4,6h0Z" fill="#c90031"/><polygon points="10.5 6 10.5 6 10.2 5.8 10.5 5.7 10.5 5.7 10.5 5.7 10.8 5.8 10.5 6 10.5 6"/><path d="M10.2,5.8l.3.2.3-.2-.3-.2Zm.5,0h0Z" fill="#f7de31"/><polygon points="10.5 5.9 10.6 5.8 10.5 5.7 10.3 5.8 10.5 5.9" fill="#313d83"/><path d="M11.4,6h0Z"/><path d="M11.5,6h0Z" fill="#c90031"/><path d="M10.3,5.5h0Z" fill="#f8e72d"/><path d="M8.3,5.3h0v.2h1.6l.3-.2h.1l.3.2h1.6V5.5h-.3a.2.2,0,0,0,0,.1H10.6a.1.1,0,0,1,0-.1h.3a.3.3,0,0,0,0-.1H10a.3.3,0,0,0,0,.1h.2a0,0,0,0,1,0,0h.2a.1.1,0,0,1,0,.1H8.5s0,0,0,0h.1a.1.1,0,0,0,0-.1H8.3Z" fill="#f8e72d"/><path d="M8.2,5.3h0Z" fill="#313d83"/><path d="M8.7,5.2Z" fill="#f7de31"/><path d="M9.8,5Z" fill="#f7de31"/><path d="M12.7,5.3h0Z" fill="#313d83"/><path d="M12.2,5.2Z" fill="#f7de31"/><path d="M11.1,5Z" fill="#f7de31"/><path d="M11.7,5Z"/><path d="M11.7,5Z" fill="#313d83"/><path d="M10.4,5.1h0Z"/><path d="M10.5,4.9Z" fill="#313d83"/><path d="M9.2,5Z"/><path d="M9.2,5Z" fill="#313d83"/><path d="M6.9,11.9V6.5H14v5.4a3.5,3.5,0,0,1-3.5,3.5h0a3.5,3.5,0,0,1-3.5-3.5Z" fill="#fff"/><path d="M10.5,15.4a3.5,3.5,0,0,1-3.5-3.5v0a3.5,3.5,0,0,0,7,0v0a3.5,3.5,0,0,1-3.5,3.5ZM14,6.5h0Z" fill="#272425"/><path d="M7,6.5v5.4H7a3.5,3.5,0,0,0,3.5,3.5h0A3.5,3.5,0,0,0,14,11.9V6.5Z" fill="#c90031"/><path d="M10.5,15.4a3.5,3.5,0,0,1-3.5-3.5V6.5H14v5.4a3.5,3.5,0,0,1-3.5,3.5ZM14,6.5H7v5.4a3.5,3.5,0,0,0,7,0V6.5Z" fill="#fff"/><path d="M8.8,7.6h0Zm4.3,4.8h.4v-.2h0c0-.1,0-.1,0-.2a.3.3,0,0,0,0-.2h0v-.4h0a.2.2,0,0,0,0-.1h.1v-.4h0v-.3h0V8.5h0V8h0V7.5h0V7.2l-.3-.2h-.4v.4h0V8h0v.2a.6.6,0,0,1-.1.3h-.1l-.2.2c-.2.1-.3.2-.3.3h-.5V7.8h.4s0,0,0,0h.7a.2.2,0,0,0,0-.2H11v.2h0v.4s0,0,0,0h0v.2h0v.2h-.1V8.4h0V7.9h0V7.5h0V7.2H8.6a.3.3,0,0,0,0,.2h.7s0,0,0,0h.4v.3c0,.1,0,.1,0,.1H9.1s-.1-.2-.3-.3l-.2-.2H8.5a.6.6,0,0,1-.1-.3V8.1h0a.8.8,0,0,1-.1-.3h0V7.2a.1.1,0,0,0,0-.1H8l-.3.2v.3h0v.3h0v.3h0V9.7h0c0,.1,0,.2,0,.3h0a.2.2,0,0,0,0,.1h0v.4h.1a.2.2,0,0,0,0,.1h0v.4h0a1,1,0,0,1,0,.1h0a.3.3,0,0,0,0,.2v.2h0v.2h.5V12H8v-.4a.1.1,0,0,0,0-.1h.2v-.3c0,.1,0,.3.1.3h.1v-.2h.1v-.2H9v-.2h0v.8H8.6v.2h.1v.2h0l-.4.5H8a0,0,0,0,0,0,0H7.4a.1.1,0,0,0,0,.1h0a.1.1,0,0,0,0,.1h.3a.1.1,0,0,0,0,.1H8v-.2h.4l.5-.4h.7l.3.2v.2h0V13H9.5c0,.1,0,.1,0,.1h.1V14H9.3c-.1.2-.1.3-.1.3h.2c0,.2,0,.2,0,.3h.2c0,.1,0,.2,0,.2l.2-.2c0,.2,0,.2.1.2l.2-.2h.6l.2.2s.1-.1.1-.2l.2.2s0-.1,0-.2h.2s0-.1,0-.2h.2s0-.1-.1-.3h-.1v-.2h.1s0-.1,0-.1h-.2v-.2h0v-.2l.3-.2H12l.5.4h.4v.2h.2s0,0,0-.1h.3a.1.1,0,0,0,0-.1h0a.1.1,0,0,0,0-.1h-.6a0,0,0,0,0,0,0h-.2l-.4-.5h0V12h.2a0,0,0,0,0,0,0h0v-.2h-.5v-.7h0v.2h0V11h.1V11h.1s.1-.2.1-.3v.3h.2v.4h0v.3h.1Zm-1-4.8h0Z"/><path d="M10.5,15.1h-.3v-.2h0v.2c-.1,0-.1-.1-.1-.2l-.2.2c-.1,0-.1-.1-.1-.3l-.2.2c-.1,0-.1-.1,0-.3l-.2.2c-.1,0-.1-.1,0-.3h.1v-.2H9.5s0-.1,0-.1h.2v-.4l-.3-.2H9.4c0,.1,0,.1,0,.1H9.1v.2H8.9l-.5.4H8.1v.2H7.9a.2.2,0,0,0,0,.1H7.7a.2.2,0,0,1,0-.1H7.4a.1.1,0,0,1,0-.1h0a.1.1,0,0,1,0-.1h.7l.5-.5s0-.1,0-.2h0v.2h.2v.2l-.4.5H7.5a.2.2,0,0,0,0,0h0a.1.1,0,0,0,0,.1h.5s0,.1,0,.1H7.8a.1.1,0,0,0,0,0h0a.2.2,0,0,1,0,.1.1.1,0,0,0,0,.1h.1a.1.1,0,0,1,0-.1H8v-.2h.4l.5-.5h.7l.4.2h0l-.2.3V13H9.6V14H9.3c-.1.2-.1.3-.1.3h.2c0,.2,0,.3,0,.3h.2c0,.2,0,.2.1.2l.2-.2c0,.2.1.2.1.2h0v-.2h.2V15h.6s0,0,0-.2h.2s0,0,0-.2h.2s0-.1,0-.2h.2s0-.1-.1-.3h-.1v-.2h-.1v-.2l-.2-.3.3-.2H12l.5.4h.4v.2h.1a.2.2,0,0,1,0,.1h.1a.2.2,0,0,0,0-.1h0a.1.1,0,0,0,0,0h-.4l-.5-.5a.3.3,0,0,0,0-.2h0v.2l.4.5h.7a.1.1,0,0,1,0,.1h0a.1.1,0,0,1,0,.1h-.3s0,0,0,.1a.2.2,0,0,1,0,.1h-.3v-.2h-.4l-.5-.4h-.1v-.2h-.5l-.3.2.2.2V13h.2s0,.1,0,.1h-.1l.2.2h.1c.1.2.1.3.1.3h-.3c.1.1.1.2.1.2h-.2c0,.1,0,.2,0,.2l-.2-.2c0,.2,0,.2,0,.2h-.2v.2h-.1a.2.2,0,0,1,0,.1h-.1Zm3-2.4H13V12h-.1v-.4a.2.2,0,0,1,0-.1h-.2v-.3c0,.2,0,.3,0,.3H12v-.2h0v-.2h0v.7h.7s0,.1,0,.1h-.1v-.2h-.5v-.8h.1v.2h0V11h.1V11h.1s.1-.2.1-.3l.2.3h.2v.4h0v.3h.4a.3.3,0,0,0,.1-.2h0a.2.2,0,0,0,0-.2h0v-.4h0a.2.2,0,0,0,0-.1h.1s0,0,0-.1h0v-.4h0c0-.1,0-.2,0-.3h0V8.5h0V8h0V7.5h0V7.3l-.3-.2h-.3v.4h0V8h0v.2a.6.6,0,0,1-.1.3h-.1l-.2.2c-.2.1-.3.2-.3.2h-.6V7.8h0v.2h.5c0-.1,0-.2.3-.3l.2-.2h.1a.5.5,0,0,0,.1-.3V8.1h0a.7.7,0,0,0,.1-.3.6.6,0,0,0,0-.1V7.2a.2.2,0,0,1,0-.1h.4l.3.2v.3h0v.3h0v.3h0V9.7h0v.3h0v.4h-.1a.2.2,0,0,1,0,.1h0v.4h-.1c.1,0,0,.1,0,.1h0v.2Zm-5.9,0H7.4v-.2h0a.3.3,0,0,1,0-.2h0v-.4H7.2v-.4h0v-.2h0c0-.1,0-.2,0-.3h0V8.5h0V8h0V7.5h0V7.2L8,7.1h.4a.2.2,0,0,1,0,.1v.4h0V8h0v.2a.5.5,0,0,0,.1.3h0l.3.2c.3.1.3.2.3.3h.5s0-.1,0-.1h.1s0-.1,0-.1V7.9H8.6a.3.3,0,0,1,0-.2h1.6v.3h0v.3h0v.2h0V8.4h0V8a.1.1,0,0,1,0,0h0V7.5h.1V7.2h1.4a.2.2,0,0,1,0,.2h-.8s0-.1.1-.2h.7a.2.2,0,0,0,0-.2H11v.2h-.1v.4h0v.2h0v.2h-.1V8.4h0V8h.1V7.5h0V7.2H8.6a.2.2,0,0,0,0,.2h.7v.2h.3v.3h0a.2.2,0,0,1,0,.1H9.1a.4.4,0,0,0-.3-.3l-.2-.2H8.5a.6.6,0,0,1-.1-.3V8.1h0V7.8h0V7.2a.2.2,0,0,0,0-.1H8l-.3.2v.2h0v.4h0v.3h0s0,0,0,0V9.7h0v.3h0c0,.1,0,.1,0,.2h0v.4h.1a.2.2,0,0,0,0,.1h0v.4h0v.2h0v.2h0Zm4.2-5.1h0Zm-4,5h.2V12H8v-.4a.1.1,0,0,0,0-.1h.2v-.3c0,.1.1.3.1.3h.1v-.2h.1v-.2H9v-.2h0v.7H9.1v-.7h0a.5.5,0,0,1,0,.2H9v.2H8.6c-.1,0-.1-.2-.1-.3v.3H8.2s0,0,0,.1v.4H8v.3H7.8a.1.1,0,0,1,0,.1H7.7ZM9,7.6H9Z"/><path d="M11.1,13.8a1.1,1.1,0,0,0,0-.3v-.2h-.2v.3h0l.2.2v-.2Z" fill="#fff"/><path d="M11,14l-.2-.2h0v-.3H11v.2a.9.9,0,0,1,0,.3V14Zm-.2-.9h0v.3c0,.1,0,.1,0,.1l.2.2h0v-.2a1.1,1.1,0,0,0,0-.3v-.2h-.2Z" fill="#272425"/><path d="M10.4,13.3h.2a.7.7,0,0,0,0-.5h0v-.2h-.2a.9.9,0,0,0-.1.5v.2Z" fill="#fff"/><path d="M10.5,13.5h-.1v-.2a.9.9,0,0,1,.1-.5h.3a.8.8,0,0,1,0,.5Zm-.1-.9h0a.9.9,0,0,0-.1.5v.2h.2a.8.8,0,0,0,0-.5h-.2Z" fill="#272425"/><path d="M9.8,12.8h0l.2-.3h0v.2H9.7v-.3Z" fill="#fff"/><path d="M9.7,13.2h.2v-.2h0v.2H9.7Zm-.1-.1h0v-.3l.2-.3h0l-.2.3V13Z" fill="#272425"/><path d="M9.9,13.1c0,.1,0,.1,0,.1h.2v-.4h-.1v.2h0a.6.6,0,0,0-.1.3Z" fill="#fff"/><path d="M9.9,13.2h0s0-.1,0-.2a.6.6,0,0,1,.1-.3h0v-.2h.1v.4H9.9Zm.2-.7v.2h0a.6.6,0,0,0-.1.3c0,.1,0,.1,0,.1h.2v-.4h-.1Z" fill="#272425"/><path d="M10.1,13.2h.2a1,1,0,0,1,0-.3h0v.2h0V13a.6.6,0,0,0,0,.1Z" fill="#fff"/><path d="M10.2,13.3h-.1a.6.6,0,0,1,0-.1v-.4h.1v.2a.9.9,0,0,0,0,.3h-.1Zm.1-.7h0V13h.2a1,1,0,0,1,0-.3h0Z" fill="#272425"/><path d="M11.1,12.8h0V13H11v-.2H11v-.2H11l.2.3Z" fill="#fff"/><path d="M11.2,13.2H11v-.2h-.1v-.2H11l.2.3V13h0a.2.2,0,0,0,0-.1h0v-.2l-.2-.3h-.1v.2H11v.2h.2Z" fill="#272425"/><path d="M11,13.1v-.4h-.2v.2h0v.2H11Z" fill="#fff"/><path d="M11,13.2h-.2v-.2h0v-.2h.2v.6Zm-.2-.7h-.1v.2h0v.2H11v-.4Z" fill="#272425"/><path d="M10.8,13.2h0v-.2h0v-.2h0a.9.9,0,0,1,0,.3h.2Z" fill="#fff"/><path d="M10.8,13.3h-.1a.9.9,0,0,0,0-.3h.1V13a.6.6,0,0,1,0,.1h-.1Zm-.1-.7h0a.9.9,0,0,1,0,.3h.2a.6.6,0,0,0,0-.1v-.4Z" fill="#272425"/><path d="M9.9,13.2H9.7v.5h.3v-.4Z" fill="#fff"/><path d="M9.5,13.8h0v-.5h.2v.4H9.5Zm.4-.7H9.7v.5h.3v-.4H9.9Z" fill="#272425"/><path d="M9.8,13.8V14h.2v-.3H9.9a1.2,1.2,0,0,0-.1.5Z" fill="#fff"/><path d="M9.9,14h0v-.2a1.1,1.1,0,0,1,.1-.5h0a1.2,1.2,0,0,0-.1.5V14h.2v-.3h0v.3c0,.1,0,.1,0,.1H9.9Z" fill="#272425"/><path d="M10.1,14h.1v-.6h-.1v-.2h-.2v.2a1.2,1.2,0,0,0,0,.3Z" fill="#fff"/><path d="M10.2,14.1h-.1a1.4,1.4,0,0,1,0-.3v-.2h.2v.2h0a.7.7,0,0,1,0,.2v.4Zm.1-.9h-.1v.2a1.5,1.5,0,0,0,0,.3h.1v-.6h-.1v-.2Z" fill="#272425"/><path d="M10.8,13.9h0a1.9,1.9,0,0,0,0-.3h0v-.2h-.1v.2h-.1v.6Z" fill="#fff"/><path d="M10.7,14.1h0v-.6h.1v-.2h0v.2h-.1v.6h.1a1.9,1.9,0,0,0,0-.3h0v0h0a1.4,1.4,0,0,1,0,.3h0v.2Z" fill="#272425"/><path d="M11.4,13.6h-.3v-.4h.3v.2Z" fill="#fff"/><path d="M11.4,13.8h-.3v-.4h0v.4h.3v-.2H11a.4.4,0,0,1,0,.1h.3v.2c0,.1,0,.1,0,.1Z" fill="#272425"/><path d="M10.4,14.1h.2v-.2h-.1v.2h0Z" fill="#fff"/><path d="M10.5,14.2h-.1v-.2h.1v.2h-.1Zm0-.7h0v.2h.2v-.2Z" fill="#272425"/><path d="M9.3,14.4c0,.1,0,.1,0,.1h.2l.2-.4v-.2H9.6V14H9.4v.2Z" fill="#fff"/><path d="M9.3,14.5h0s0-.1,0-.2v-.2h.1v-.2h.2v.2l-.2.4Zm.5-.9H9.6v.6c0,.1,0,.1,0,.1h.2l.2-.4v-.2Z" fill="#272425"/><path d="M9.5,14.4c0,.2-.1.2,0,.2l.2-.2h0V14H9.8l-.2.5v.2Z" fill="#fff"/><path d="M9.5,14.6h0s0-.1,0-.3h0l.3-.5h.1v.5h0l-.2.2Zm.3-.9-.2.5h0c0,.2-.1.2,0,.2h0l.2-.2h0V14H9.8Z" fill="#272425"/><path d="M9.7,14.5c0,.2,0,.2,0,.3l.2-.2a2.2,2.2,0,0,1,.1-.5v-.3h0l-.2.2H9.9v.4Z" fill="#fff"/><path d="M9.7,14.7h0s0-.1,0-.3h0V14h.1l.2-.2v.3a2.2,2.2,0,0,0-.1.5l-.2.2Zm.3-.9-.2.2h0l-.2.4h0c0,.2,0,.2,0,.3h0l.2-.2a2.1,2.1,0,0,1,.1-.5v-.3Z" fill="#272425"/><path d="M9.9,14.6c0,.2,0,.2.1.2l.2-.2a1.8,1.8,0,0,1,0-.4v-.2h-.1v-.2h0l-.2.6v.2Z" fill="#fff"/><path d="M10,14.8h0s-.1-.1,0-.2v-.2l.2-.6V14h.1v.2a2,2,0,0,0,0,.3l-.2.2Zm.1-1-.2.6v.2c0,.2,0,.2,0,.2h0l.2-.2a2,2,0,0,1,0-.3v-.2h-.1v-.2Z" fill="#272425"/><path d="M10.3,14h.1a1.1,1.1,0,0,1-.2.5h-.2a2,2,0,0,1,.1-.5Z" fill="#fff"/><path d="M10.2,14.8h-.1a2.2,2.2,0,0,1,.1-.5h0a1.9,1.9,0,0,0-.1.5h.2a1.2,1.2,0,0,0,.2-.5h0a1.2,1.2,0,0,1-.1.5Z" fill="#272425"/><path d="M10.5,15h0v-.2h-.1v-.3h0V15h.2Z" fill="#fff"/><path d="M10.5,15.1h-.1v-.6h0v.3h.1V15Zm0-.8h0V15h.2v-.2h-.1v-.3Z" fill="#272425"/><path d="M10.8,14.5a2.2,2.2,0,0,0-.1-.5h-.3a1.1,1.1,0,0,0,.2.5h.1a.9.9,0,0,0,0-.2Z" fill="#fff"/><path d="M10.7,14.8h-.1a1.2,1.2,0,0,1-.2-.5h0a1.2,1.2,0,0,0,.2.5h.1a.9.9,0,0,0,0-.2,2.4,2.4,0,0,0,0-.3v.5h-.1Z" fill="#272425"/><path d="M11,14.6v-.6h-.1v.2h0v.2a1.9,1.9,0,0,1,0,.4l.2.2c.1,0,0-.2,0-.2Z" fill="#fff"/><path d="M10.9,14.8l-.2-.2a1.8,1.8,0,0,0,0-.3v-.2h.1v-.2h0v.7c0,.1,0,.2-.1.2Zm-.1-1h0v.3a2.6,2.6,0,0,1,0,.4l.2.2h0s.1-.1,0-.2v-.8Z" fill="#272425"/><path d="M11.2,14.4V14h0l-.2-.2v.3a2.1,2.1,0,0,1,.1.5l.2.2s0-.1,0-.2v-.2Z" fill="#fff"/><path d="M11.2,14.7l-.2-.2a2.4,2.4,0,0,0-.1-.5v0a2.1,2.1,0,0,1,.1.5l.2.2h0s0-.1,0-.2V14h0v.6c0,.1,0,.2,0,.2Z" fill="#272425"/><path d="M11.4,14.3V14l-.2-.3h0v.4h.2s0-.1,0-.2v-.2Z" fill="#fff"/><path d="M11.4,14.6h-.2V14h0l.2.3v.4c0,.1,0,.2,0,.2Zm-.3-.9a.1.1,0,0,1,0,.1h-.1v.5h.2s0-.1,0-.2V14l-.2-.3Z" fill="#272425"/><path d="M11.6,14.2h0v-.2h-.4l.2.3v.3h.2s0-.1-.1-.3Z" fill="#fff"/><path d="M11.6,14.5h-.2V14l-.2-.3h.4v.2c.1.2.1.2.1.3Zm-.5-.9h0l.2.3v.3h.2s0-.1-.1-.3v-.2h-.4Z" fill="#272425"/><path d="M9.1,11.3h0Z" fill="#fff"/><path d="M8.6,11.7h0Z" fill="#272425"/><path d="M9.1,11.5H8.9l-.2.2v.2h0a0,0,0,0,0,0,0h.6Z" fill="#fff"/><path d="M8.6,12h0v-.2l.2-.2h0l-.2.2v.2h0Z" fill="#272425"/><path d="M8.8,11.9H8.7v.2h.1Z" fill="#fff"/><path d="M8.7,12.2H8.6V12h0v.2H9v.2h0a.1.1,0,0,0,0,0H8.7Z" fill="#272425"/><path d="M9.1,11.5H8.8s0,.1,0,.1h.4Z" fill="#fff"/><path d="M8.8,11.9h0s0,0,0-.1h0Zm.3-.4H8.9v.2s0,.1,0,.1h.4Z" fill="#272425"/><path d="M9,11.8H8.9a.2.2,0,0,0,0,.1h.2a.3.3,0,0,1,.1-.3H9Z" fill="#fff"/><path d="M9,12.4H8.9a.3.3,0,0,1,0-.1H9v.2a.2.2,0,0,0,0,.1h.1c.1.1.1.2.2,0h0a.3.3,0,0,1,0-.2.3.3,0,0,0,0,.2H9Z" fill="#272425"/><path d="M9.4,12.1h0l-.2-.3H9.1v.5h.2Z" fill="#fff"/><path d="M9.3,12.4H9.2v-.5h0V12l.2.3h.2l-.2-.3h0l.2.3H9.3Z" fill="#272425"/><path d="M9.5,12.3h.1l-.2-.2h.1Z" fill="#fff"/><path d="M9.5,12.3h.1l-.2-.2h0l.2.2Z" fill="#272425"/><path d="M8.6,12.7H8.4l.5-.5H7.6a.1.1,0,0,0,0,0H7.5s0,0,0,0h.2s0-.1,0-.1h0a.1.1,0,0,0,0,0h.1s0,0,0,0h.8Zm-.5,0h0Zm.1-.1h0Zm.1-.1h0Zm.1-.1h0Zm.1-.1h0Zm.1-.1h0Z" fill="#f8e72d"/><path d="M8.5,12.3h.2c.1-.1.1-.1,0-.1H8.5Z" fill="#f8e72d"/><path d="M8.5,12.4h0Z" fill="#f8e72d"/><path d="M8.3,12.6h0Z" fill="#f8e72d"/><path d="M8.2,12.7Z" fill="#f8e72d"/><path d="M8.1,12.8h0Z" fill="#f8e72d"/><path d="M8.6,12.2h0Z" fill="#f8e72d"/><path d="M8.4,12.5h0Z" fill="#f8e72d"/><path d="M8.4,12.9h0Z"/><path d="M8,13.1H7.8s0,0,0-.1H8Z"/><path d="M7.7,13.1H7.6s0,0,0,.1h.1Z"/><path d="M7.7,12.8h0a.1.1,0,0,0,0,0h0Z"/><path d="M8.7,12.7h0Z" fill="#f8e72d"/><path d="M7.6,12.7H7.5a.1.1,0,0,0,0,.1h.2Z" fill="#f8e72d"/><path d="M7.5,13.2H7.5a.1.1,0,0,0,0,.1h.1Z" fill="#f8e72d"/><path d="M7.7,13.5h0a.2.2,0,0,0,0,.1h.1a.2.2,0,0,1,0-.1H7.7Z" fill="#f8e72d"/><path d="M7.8,8.3h0C7.9,8.3,8,8,8,8H8v.2h0v.2h0v.3h0v.2a1.4,1.4,0,0,1-.1.4H7.4a2.7,2.7,0,0,1,0-.4h0V8.6h0v.6H7.4a1.2,1.2,0,0,1-.2.4H7.1V8.5h.2V8.1h.1v.3h.1Z" fill="#fff"/><path d="M7.1,9.9h0V8.5h.2V8.1h0v.2H7.4V9.7h.1l.2-.4h0a1.3,1.3,0,0,1-.2.4Zm.3-.2h.1a1.3,1.3,0,0,0,.1-.4V8.9h0v.2a1.4,1.4,0,0,1-.1.4H7.5Zm0,0h0a2.2,2.2,0,0,1,0-.4V8.6h0v.6a2.7,2.7,0,0,0,0,.4Zm-.1-.4h0V8.6h.1s0,0,0,0H7.5v.6h0Zm.3-.5h0V8.4h0v0h0v.3Zm0-.5h0V7.9h0V8h.1v.3h0Zm.1,0h0L8,8H8c0,.1-.1.3-.2.4Z" fill="#272425"/><path d="M7.9,9H8V8.7H7.9c-.1,0,0-.1-.1-.1V8.3H7.8v.2h0v.2h.1Z" fill="#fff"/><path d="M7.8,9.3h0V9.1h0V8.5h0v.2h0v.2h0ZM8,9H8V8.7H8v.2H8Zm-.1-.3H7.9a.5.5,0,0,1,0-.2h0v.2h.1Z" fill="#272425"/><path d="M8.8,9.4h.1v.2h0Z" fill="#fff"/><path d="M8.6,9.6h0Zm.1-.2h0V9.2h0v.2Z" fill="#272425"/><path d="M8.2,8.9h.1s0,0,0,0H8.2Z" fill="#fff"/><path d="M8.2,9.5h0v.2h0Zm.1-.3h0Z" fill="#272425"/><path d="M7.9,9.2H8v.2h0Z" fill="#fff"/><path d="M8,9.4h.1v.2H8Zm.1-.3h0ZM8,9H8V8.7H8v.2Z" fill="#272425"/><path d="M8.4,9h0v.2h0Z" fill="#fff"/><path d="M8.4,9.6H8.4V9h0v.2h.1Z" fill="#272425"/><path d="M8.9,9.3h.2V9.2h0S9,9,8.8,8.9l-.2-.2H8.5a.6.6,0,0,1-.1-.3V8.1h0V7.8h0V7.2H8l-.3.2v.2h0v.3h0v.3h.1l.2-.2h.1V7.8h0v.3h.1c.1,0,.2-.3.2-.4H8a2.5,2.5,0,0,0-.1.5H8a.3.3,0,0,0,0,.1h.9Z" fill="#fff"/><path d="M9.1,9.4h0v0Zm-.2-.2h0Zm.2-.1c0-.1-.1-.2-.3-.3l-.2-.2h0a.6.6,0,0,1-.2-.3V8.1h0V7.8h0V8h0v.2a.6.6,0,0,0,.1.3h.1l.2.2c.2.1.3.2.3.2ZM8.3,9h0a.3.3,0,0,0,0,.2h0Zm-.2-.2h0ZM8,8.7H8a.4.4,0,0,0,0,.1Zm-.1-.1h0Zm0,0h0A2.4,2.4,0,0,1,8,8a.1.1,0,0,0,0-.1H8a2.4,2.4,0,0,0-.1.6Zm-.6-.1h0V8h0V7.5h0V7.3L8,7.1h.4a.4.4,0,0,1,0,.1v0H8l-.3.2v.2h0v.4h0v.3h.1l.2-.2h.1V7.8h0V8H7.6l-.2.2H7.3Zm.4-.2h0V7.8h0v.3h.1c.1,0,.2-.3.2-.4H8c0,.1-.1.3-.2.4Z" fill="#272425"/><path d="M8.8,9.2h0v.2h0v.2h0Z" fill="#fff"/><path d="M8.8,9.7h0V9.5h.1ZM9,9.4H8.8v.2h0V9.2H9Z" fill="#272425"/><path d="M9,9.4h.1V9.5H9Z" fill="#fff"/><path d="M9,9.8h.1v.2H9ZM9,9.7h.1V9.5H9Z" fill="#272425"/><path d="M7.6,10h.1V9.7a.2.2,0,0,0,0-.1h0V9.2H7.7v.2h0a1.8,1.8,0,0,0,0,.3h0Z" fill="#fff"/><path d="M7.7,10.1H7.6a1.8,1.8,0,0,1,0-.3h0V9.2h.1a2,2,0,0,0,0,.3h0a1.6,1.6,0,0,1,0-.3H7.7v.2h0a1.7,1.7,0,0,0,0,.3h.1V9.7a.3.3,0,0,0,0-.1h0v.4Z" fill="#272425"/><path d="M7.9,9.2h0a1.4,1.4,0,0,0,0,.3h0v.2H8V9.8h0V9.3H8V9.2Z" fill="#fff"/><path d="M7.9,10.1H7.8V9.6h0a1.7,1.7,0,0,1,0-.3h0a1.6,1.6,0,0,0,0,.3h0v.2H8V9.8H8s0,0,0,.1v.2H7.9Zm.2-.5h0V9.5h0v.2ZM8,9.4H8V9.2h0v.2Z" fill="#272425"/><path d="M8.1,9.3v.3h0v.2h.2V9.8h0V9.4H8.2s-.1-.1-.1-.2Z" fill="#fff"/><path d="M8.1,10.1H8V9.7h0v.2h.2V9.8h0v0h0s0,0,0,.1V10H8.1Zm0-.5h0V9.5h0c-.1,0-.1-.1-.1-.2v.3Z" fill="#272425"/><path d="M8.3,9.3h0v.3h0v.2h.2V9.8H8.4V9.3Z" fill="#fff"/><path d="M8.3,10.1H8.2V9.8h0a1.4,1.4,0,0,1,0-.3h0v.3h0v.2h.2V9.8h0V10H8.3Zm.2-.4h0V9.6h0Zm-.1-.2h0V9.3h0v.2Z" fill="#272425"/><path d="M8.5,9.7h.1V9.4h0v.2h.1v.2h0V10H8.5Z" fill="#fff"/><path d="M8.5,10.2h0V10h.2V9.8h0V10H8.5Zm0-.4h0V9.4h0v.2h0Zm.2,0h0Z" fill="#272425"/><path d="M8.7,9.5h0v.2h.1V9.9h0a.7.7,0,0,1,0-.2H8.8V9.5Z" fill="#fff"/><path d="M8.7,10.2h0V9.5h0a1.1,1.1,0,0,0,0,.2h.1V9.9h0a.1.1,0,0,1,0,.1v.2H8.7Zm.1-.5h0V9.5h0v.2Z" fill="#272425"/><path d="M9,9.8h.1V10H8.9V9.9h0a.9.9,0,0,1,0-.2H9Z" fill="#fff"/><path d="M9,10.3H8.9V9.9h0V9.6h0a1.1,1.1,0,0,0,0,.2h0V10h.3V9.7h0V10H9Z" fill="#272425"/><path d="M8.8,10.8h.1v-.2H9v-.2h0V10H8.9v.3h0a.1.1,0,0,1,0,0h0Z" fill="#fff"/><path d="M8.9,11.1h0v-.3h.2v.4h0V10H8.9v.3h0v-.2H9v-.2h0v.2H9V11Z" fill="#272425"/><path d="M8.5,10.8h0c0,.1,0,.3.1.3h.1v-.3h0v-.3H8.6v.4h0a.1.1,0,0,1,0,.1h0Z" fill="#fff"/><path d="M8.6,11.2h0s-.1-.2-.1-.3h0c0,.1,0,.3.1.3h.1v-.3h0V11H8.6Zm-.1-.4h.1v-.4h0v.4h0a.2.2,0,0,1,0,.1Zm.3-.2h0v-.4h0v.3Z" fill="#272425"/><path d="M8.7,10.1H8.5v.6h0a.6.6,0,0,1,0,.1v.4h.1v-.4h0c0-.1,0-.1,0-.1h0v-.3h0Z" fill="#fff"/><path d="M8.2,11.5h0v-.4a.2.2,0,0,0,0-.1v-.7h0v.6h0v.4h.1v-.4c0-.1,0-.1,0-.1h0a.1.1,0,0,1,0,.1v.4H8.2Zm.3-.8h0v-.5h0v.5Z" fill="#272425"/><path d="M8.1,10.9a.3.3,0,0,0,0-.2h.2V10h0v.6h0a.2.2,0,0,1,0,.1h0v.4h0a.1.1,0,0,1,0,.1v.4H8v.3H7.8V12h0v-.2a.3.3,0,0,0,0-.1H8v-.5Z" fill="#fff"/><path d="M7.9,12.4h0v-.7a.3.3,0,0,0,0-.1H8v-.3h0v-.2a.4.4,0,0,0,0-.2h.1v-.4h.1V10h0v.6h0v-.6H8.2v.2h0v.2h0a.5.5,0,0,1,0,.2v.2h0v.3H8v.7h.1V12H8v-.2h.1a.1.1,0,0,0,0-.1h0a.2.2,0,0,1,0,.1H8.1v.2H8v.3H7.9Zm.3-.9h0v-.6h0a.2.2,0,0,1,0,.1v.6Z" fill="#272425"/><path d="M7.9,11.9h0v-.2c0-.1,0-.1,0-.2H8v-.5c0-.1,0-.2,0-.2h.1v-.2h0v.2H8V9.9H8a3,3,0,0,1,0,.5v.2h0a3.5,3.5,0,0,1,0,.4h0a.4.4,0,0,1,0,.2h0v.6h.1V12Z" fill="#fff"/><path d="M7.7,12.5h0v-.3h.1a.4.4,0,0,0,0-.2h0a3.5,3.5,0,0,0,0-.4v-.2a.1.1,0,0,0,0-.1H8v-.2A3.4,3.4,0,0,0,8,10H8v.2H8V9.9H8a4.5,4.5,0,0,1,0,.5v.2h0v.2a2.8,2.8,0,0,1,0,.4H7.8v.3h.1v-.7a.2.2,0,0,0,0-.2H8a.3.3,0,0,1,0,.2v.7H7.7Zm.3-1H8v-.5c0-.1,0-.2,0-.2h0a.3.3,0,0,1,0,.2v.5Zm.1-.7h0v-.5h0v.3h0Zm-.1-.6h0V10h0v.2Z" fill="#272425"/><path d="M7.7,12.4h0v-.6c0-.1,0-.2,0-.2h.1v-.6a.1.1,0,0,0,0-.1H8v-.2A3.1,3.1,0,0,0,8,10H7.8V9.9H7.6v.6a.5.5,0,0,1,0,.1h0c0,.2,0,.4,0,.5h0a.2.2,0,0,1,0,.1h0v.2h0v.2h.1Z" fill="#fff"/><path d="M7.6,12.5h0v-.6h0c0-.1,0-.3,0-.5h0v-.5h0V9.9h0v.7a.3.3,0,0,1,0,.1h0c0,.2,0,.4,0,.5h0a1.1,1.1,0,0,1,0,.1h0v.6h.1v-.6c0-.1,0-.2,0-.2h0s0,.1,0,.2v.6H7.6Zm.3-1.1h0v-.6h0v.6Zm.1-.7H8v-.4a1.2,1.2,0,0,1,0,.2v.3Zm-.3-.7h0Z" fill="#272425"/><path d="M7.4,11.9h0v.2h0v.2h.1v-.2h0v-.2h0c0-.1,0-.1,0-.1h0s0-.1,0-.1h0c0-.2,0-.4,0-.5h0a.3.3,0,0,0,0-.1v-.6h0V9.5H7.4a2.4,2.4,0,0,1,0-.4H7.4a1.3,1.3,0,0,1-.2.4h0c0,.1,0,.2,0,.3h.1a.3.3,0,0,0-.1.2h0v.4h.1a.2.2,0,0,0,0,.1h0v.3Zm0-2.2h0v.2a2.3,2.3,0,0,0,0,.4v1.2a2.7,2.7,0,0,1,0,.7h0a2.7,2.7,0,0,0,0-.7,7.6,7.6,0,0,0-.1-.8,3.1,3.1,0,0,1,0-.4,1.9,1.9,0,0,1,0-.4V9.7h0Z" fill="#fff"/><path d="M7.5,12.6h0v-.5h0v.5h.1v-.8h0c0-.1,0-.1,0-.1h0a.3.3,0,0,1,0,.1h0v.6h0v.2h0Zm0-.5h0a2.9,2.9,0,0,0,0-.6c0-.3-.1-.5-.1-.8v-.4a1.9,1.9,0,0,1,0-.4v0a2.4,2.4,0,0,0,0,.4,2.9,2.9,0,0,0,0,.4v.8a3.1,3.1,0,0,1,0,.5,4.2,4.2,0,0,0,0-.5V10.2a2.2,2.2,0,0,1,0-.4V9.6h0v.2a1.9,1.9,0,0,0,0,.4,3,3,0,0,0,0,.4v.8a2.8,2.8,0,0,1,0,.7ZM7.4,12h0v-.3h0a.2.2,0,0,1,0-.1h0a.2.2,0,0,0,0,.1h0v.3h0Zm.3-.5h0c0-.2,0-.4,0-.5h0v.5h0Zm-.4-.3h0v-.4h0a.3.3,0,0,1,0-.2.4.4,0,0,0,0,.2h0v.4h0Zm.4-.5h0V9.5h0a1.9,1.9,0,0,0,0,.3v1a.1.1,0,0,1,0,.1Zm-.5-.3h0v-.3h0a1.1,1.1,0,0,0,.2-.4V9.3c0,.1,0,.3,0,.4h0a2.6,2.6,0,0,1,0-.4v.2a1.4,1.4,0,0,1-.2.4h0c0,.1,0,.2,0,.3h0Z" fill="#272425"/><path d="M8.6,13.9H8.4a.2.2,0,0,0,0,.1h0a.3.3,0,0,1-.2-.2h.4a.6.6,0,0,1,.1-.3h.2a.6.6,0,0,1,.1.3h.4a.3.3,0,0,1-.2.2h0a.2.2,0,0,0,0-.1H8.6Z"/><path d="M8.8,14.2h0Z" fill="#f8e72d"/><path d="M8.7,13.9h.2a1.6,1.6,0,0,0,.1-.4h0a.6.6,0,0,0-.1-.3H8.7a.6.6,0,0,0-.1.3h0a1.6,1.6,0,0,0,.1.4h0Zm.1-.7a1.2,1.2,0,0,1,0,.4,1.4,1.4,0,0,1,0,.3h0a1.4,1.4,0,0,0,0-.3,1.3,1.3,0,0,0,0-.4Z" fill="#f8e72d"/><path d="M8.2,13.7a.3.3,0,0,0,.1.2.2.2,0,0,1,0-.1h.3a1,1,0,0,1,0-.3H8.2Zm.1-.1h0a.2.2,0,0,0,0,.1h0Zm.1-.1Z" fill="#f8e72d"/><path d="M9.1,13.9a.3.3,0,0,0,.1-.2H8.9a1.2,1.2,0,0,1,0,.3h.3a.2.2,0,0,1,0,.1Zm0-.4h0Z" fill="#f8e72d"/><path d="M8.6,14.1h0Z" fill="#f8e72d"/><path d="M8.8,13.9h0Z" fill="#f8e72d"/><path d="M8.7,14.3h0Z" fill="#f8e72d"/><path d="M11.8,11.3h0Z" fill="#fff"/><path d="M12.3,11.7h0Zm-.3-.2h0Z" fill="#272425"/><path d="M11.8,11.5h.3l.2.2v.2h-.6Z" fill="#fff"/><path d="M12.4,12h-.3l.2.2v.2h0Zm-.2-.2h.2v-.2l-.2-.2h.1Z" fill="#272425"/><path d="M12.2,11.9h.1v.2h-.2a.1.1,0,0,0,0,0h.1Z" fill="#fff"/><path d="M12.3,12.2h.1V12H12v.2h.2v.2Z" fill="#272425"/><path d="M11.8,11.5h.4s0,.1,0,.1h-.4Z" fill="#fff"/><path d="M12.1,11.9H12v.2s0,.1,0,.1Zm-.4-.2h.4s0,0,0-.1h-.4Z" fill="#272425"/><path d="M11.9,11.8h.2a.3.3,0,0,1,0,.1h-.2a.3.3,0,0,0-.1-.3h.1Z" fill="#fff"/><path d="M11.9,12.4h-.1c.1.2.1.1.2,0h.1a.3.3,0,0,0,0-.1h-.2a.3.3,0,0,1,0,.3h0a.3.3,0,0,0-.1-.3H12v.2a.3.3,0,0,1,0,.1h-.2Z" fill="#272425"/><path d="M11.5,12.1h0l.2-.3h.1v.5h-.2Z" fill="#fff"/><path d="M11.6,12.4h-.1l.2-.3h0l-.2.3h.2v-.5h0a.3.3,0,0,1,.1.2v.3h-.1Z" fill="#272425"/><path d="M11.4,12.3h-.1l.2-.2h-.1Z" fill="#fff"/><path d="M11.4,12.3h-.1l.2-.2h-.1Zm.1-.2-.2.2h.2Z" fill="#272425"/><path d="M12.3,12.7h.2l-.5-.5h1.3a.1.1,0,0,1,0,0h-.1s0-.1,0-.1h0a.1.1,0,0,1,0,0h-.9Zm.5,0h0Zm-.1-.1h0Zm-.1-.1h0Zm-.1-.1h0Zm-.1-.1h0Zm-.1-.1h0Z" fill="#f8e72d"/><path d="M12.4,12.3h-.2c-.1-.1-.1-.1,0-.1h.2Z" fill="#f8e72d"/><path d="M12.5,12.4h0Z" fill="#f8e72d"/><path d="M12.6,12.6h0Z" fill="#f8e72d"/><path d="M12.7,12.7Z" fill="#f8e72d"/><path d="M12.8,12.8h0Z" fill="#f8e72d"/><path d="M12.3,12.2h0Z" fill="#f8e72d"/><path d="M12.5,12.5h0Z" fill="#f8e72d"/><path d="M12.5,12.9h0Z"/><path d="M13,13.1h.1s0,.1,0,.1h0s0,0,0-.1H13Z"/><path d="M13.2,13.1h.1s0,0,0,.1h-.1Z"/><path d="M13.2,12.8h0a.1.1,0,0,1,0,0h0Z"/><path d="M12.3,12.7h0s0,0,0,0h0Z" fill="#f8e72d"/><path d="M13.3,12.7h0Z" fill="#f8e72d"/><path d="M13.4,13.2h.1a.1.1,0,0,1,0,.1h-.1Z" fill="#f8e72d"/><path d="M13.2,13.5h0Z" fill="#f8e72d"/><path d="M13.2,8.3h0c-.1,0-.2-.3-.2-.4h0v.2h0v.2h0v.3h0v.2a1.2,1.2,0,0,0,.1.4h.1a2.4,2.4,0,0,0,0-.4h0V8.6h0v.6h.1a1.3,1.3,0,0,0,.2.4h.1V8.5h-.2V8.1h-.1v.3h-.1Z" fill="#fff"/><path d="M13.8,9.9h0l-.2-.4h0l.2.4h.1v0h0Zm-.3-.2h-.1a1.2,1.2,0,0,1-.1-.4V8.9h0v.2a1.4,1.4,0,0,0,.1.4h.1Zm0,0h0a2,2,0,0,0,0-.4V8.6h0v.6a2.7,2.7,0,0,1,0,.4h0Zm.1-.4h0V8.6h0v.6Zm-.3-.5h0V8.4h0V7.9h0v.4h0v.3Zm.4-.3h-.2V8.1h0v.2h.2Zm-.4-.2h0V7.9h0v.3h0ZM13,8.2v0Z" fill="#272425"/><path d="M13,9h0V8.7H13c.1,0,.1-.1.1-.1V8.3h.1v.2h0v.2H13Z" fill="#fff"/><path d="M13.1,9.3h0V9.1h0a.3.3,0,0,1,0,.1h0v.2ZM13,9h0V8.7h0a.4.4,0,0,0,0-.1h0a.3.3,0,0,1,0,.1h0v.2Zm.2-.1h0V8.5h-.1v.2c0,.1,0,.1-.1.1h.1V8.3h.1v.2Z" fill="#272425"/><path d="M12.2,9.4h-.1v.2h0Z" fill="#fff"/><path d="M12.3,9.6h.1a.1.1,0,0,0,0,.1h-.1Zm-.1-.2h0V9.2h0v.2Z" fill="#272425"/><path d="M12.7,8.9h0Z" fill="#fff"/><path d="M12.7,9.5h0Zm-.1-.3h0v.2h0Zm.2-.1h0Z" fill="#272425"/><path d="M13,9.2h-.2a0,0,0,0,1,0,0h.1v.2h0Z" fill="#fff"/><path d="M12.9,9.4h0Zm-.2-.3h0Zm.2-.1h0V8.7h0v.2Z" fill="#272425"/><path d="M12.5,9h0v.2h0Z" fill="#fff"/><path d="M12.5,9.6h0Zm-.2-.4h0Z" fill="#272425"/><path d="M12,9.3h-.2V9.2h0c0-.1.1-.2.3-.2l.2-.2h.1a.6.6,0,0,0,.1-.3V8.1h0V7.8a.7.7,0,0,0,0-.1h0V7.2a.2.2,0,0,1,0-.1h.3l.3.2v.2h0v.3h0v.3h-.1l-.2-.2h-.1V7.8h0v.3h-.1c-.1,0-.2-.3-.2-.4h0a2.6,2.6,0,0,1,.1.5h-.1a.5.5,0,0,1,0,.1H12Z" fill="#fff"/><path d="M11.8,9.4V9.2c0-.1.1-.2.3-.3l.2-.2h0a.6.6,0,0,0,.2-.3V8.1h0V7.8h0V7.2h.3l.3.2v.2h0v.3h0v.3h-.1l-.2-.2h0l.2.2h.1V8h0V7.5h0V7.3l-.3-.2h-.3v.4a.9.9,0,0,1,0,.1V8h0v.2a.6.6,0,0,1-.1.3h-.1l-.2.2c-.2.1-.3.2-.3.2v.3h0Zm.1-.1h0Zm.7-.4h0Zm.1-.1h0Zm.1-.1h0Zm.1-.1h0a.5.5,0,0,0,0-.1h0Zm.1-.1h0a2.1,2.1,0,0,0-.1-.6.1.1,0,0,1,0-.1h0a2.8,2.8,0,0,1,.1.6v.2Zm.1-.3c-.1,0-.2-.3-.2-.4h0c0,.1.1.3.2.4h0Zm.1,0h0V7.5h.1v.3h0Zm.1-.3h0V7.9h0V8h0Z" fill="#272425"/><path d="M12.1,9.2h0v.2h0v.2H12s0,0,0,0h.2Z" fill="#fff"/><path d="M12.1,9.7h.1V9.2h0v.2h0v.2ZM12,9.5h0Z" fill="#272425"/><path d="M11.9,9.4h-.1V9.5h.1Z" fill="#fff"/><path d="M11.9,9.8h-.1V9.5h0v.3h.1Z" fill="#272425"/><path d="M13.3,10h-.1V9.7a.1.1,0,0,1,0-.1h0a2,2,0,0,0,0-.3h.1a.8.8,0,0,0,0-.2v.4h0a1.8,1.8,0,0,1,0,.3h0Z" fill="#fff"/><path d="M13.2,10.1h0V9.7s0-.1,0-.1h0a1.5,1.5,0,0,0,0-.3h.1a.9.9,0,0,0,0-.2v.4h0a1.6,1.6,0,0,1,0,.3h-.1Zm-.1-.5h0V10h.1a1.5,1.5,0,0,0,0-.3h0V9a.8.8,0,0,1,0,.2H13v.3h0Z" fill="#272425"/><path d="M13,9.2h0a1.5,1.5,0,0,1,0,.3h0v.2h-.2V9.8h0V9.3H13V9.2Z" fill="#fff"/><path d="M13,10.1h-.1V9.8h0s0,0,0,.1v.2h.2V9.6h0v.2H13Zm-.2-.5h0V9.3h.1V9.2h0v.2h-.1Zm.2,0h0a1.6,1.6,0,0,0,0-.3h0a1.5,1.5,0,0,1,0,.3Z" fill="#272425"/><path d="M12.8,9.3v.3h0v.2h-.2V9.8h0V9.4h.1V9.3Z" fill="#fff"/><path d="M12.8,10.1h-.1V9.8s0-.1,0-.1h0V10h.2V9.7h0v.2h-.1Zm-.2-.4h0V9.4h.1V9.3h0v.2h-.1v.2Zm.2-.1h0Z" fill="#272425"/><path d="M12.6,9.3h0v.3h0v.2h-.2V9.8h.1V9.3Z" fill="#fff"/><path d="M12.6,10.1h-.1V9.8h0V10h.2V9.8h0v.2h-.1Zm-.2-.4h.1V9.3h0v.2h-.1Zm.2,0h0a1.4,1.4,0,0,0,0-.3h0v.3Z" fill="#272425"/><path d="M12.5,9.7h-.1V9.4h0v.2h-.1v.2h0V10h.2Z" fill="#fff"/><path d="M12.4,10.2h-.1V9.8h0V10h.1V10h-.1Zm-.2-.4h0V9.5h.1v0h0v0h-.1v.2h0Z" fill="#272425"/><path d="M12.2,9.5h0a1,1,0,0,1,0,.2h-.1V9.9h0V9.6h.1V9.5Z" fill="#fff"/><path d="M12.2,10.2h-.1V9.9h0a.1.1,0,0,0,0,.1v.2h.1ZM12,9.8V9.6h.1V9.5h0v.2H12Zm.2,0V9.5h0v.2Z" fill="#272425"/><path d="M11.9,9.8h-.1V10h.3V9.9h0a.9.9,0,0,0,0-.2h-.1Z" fill="#fff"/><path d="M12,10.3h-.2V9.7h0V10h.3V9.9h0V10H12Z" fill="#272425"/><path d="M12.1,10.8H12v-.2h0v-.2h0V10H12v.3h.1Z" fill="#fff"/><path d="M12,11.1h0v-.2h0v-.2h0v.2h0V11h0Zm.1-.4h0v-.3h0v.3h0Zm-.3-.1h0V10h0v.5Z" fill="#272425"/><path d="M12.4,10.8h0c0,.1,0,.3-.1.3h-.1v-.3h0v-.3h.3v.4h0a.1.1,0,0,0,0,.1h0Z" fill="#fff"/><path d="M12.3,11.2h-.1v-.3h0V11h.1s.1-.2.1-.3h0a.2.2,0,0,1,0-.1h0c0,.2,0,.3-.1.4Zm.1-.5h0v-.5h0v.5h0Zm-.3-.1h0v-.3h0v.3h0Z" fill="#272425"/><path d="M12.3,10.1h.2v.6h0a.2.2,0,0,0,0,.1v.4h-.1v-.4h0c0-.1,0-.1,0-.1h0v-.3h0Z" fill="#fff"/><path d="M12.7,11.5h-.1v-.4c0-.1,0-.1,0-.1a.2.2,0,0,0,0,.1v.4h.1v-.4h0v.4h0Zm-.3-.8h0v-.6h0v.6h0Zm.1-.2v-.2h0v.2Zm-.1-.4h0Z" fill="#272425"/><path d="M12.8,10.9a.3.3,0,0,1,0-.2h-.2V10h0v.6h0a.2.2,0,0,0,0,.1h0v.4h0a.1.1,0,0,0,0,.1v.4h0v.3h.1V12h0v-.2h-.1v-.5Z" fill="#fff"/><path d="M13.1,12.4H13V12h0v-.2h-.1a.1.1,0,0,1,0-.1h0a.2.2,0,0,0,0,.1h.1v.2h0v.3h.1v-.7h0v.7h0Zm-.2-.9h0v-.5a.5.5,0,0,1,0-.2v.7Zm-.1,0h0v-.6a.2.2,0,0,1,0-.1h0v.6Zm0-.7h-.1v-.3h.1Zm-.2,0v-.7h0v.6h0Zm0-.6h0Z" fill="#272425"/><path d="M13,11.9h0v-.2a.3.3,0,0,1,0-.2h0v-.5c0-.1,0-.2,0-.2h-.1v-.2h0v.2h0V9.9h0a3.7,3.7,0,0,0,0,.5v.2h0a2.8,2.8,0,0,0,0,.4h0a.3.3,0,0,0,0,.2h0v.6h-.1V12Z" fill="#fff"/><path d="M13.2,12.5h-.1v-.7c0-.1,0-.1,0-.2h0v-.5a.3.3,0,0,1,0-.2.5.5,0,0,0,0,.2v.5h0a.3.3,0,0,0,0,.2v.7h.1v-.3h-.1a.3.3,0,0,1,0-.2h0a3.2,3.2,0,0,1,0-.4v-.2a.4.4,0,0,1,0-.1h0v.6h0a.3.3,0,0,0,0,.2h.1v.3h0Zm-.4-1.7h0v-.2h0V10h0v.2h0V9.9h0a3.5,3.5,0,0,0,0,.5v.2h0v-.2a4.6,4.6,0,0,1,0-.5h0v.2h0V10h0v.2h0v.2h0Z" fill="#272425"/><path d="M13.3,12.4h0v-.6c0-.1,0-.2,0-.2H13v-.6c0-.1,0-.1,0-.1h0v-.2a3.3,3.3,0,0,1,0-.5h.1V9.9h.2v.6a.3.3,0,0,0,0,.1h0v.5h0s0,.1,0,.1h0a.2.2,0,0,0,0,.1h0v.2h0v.2h-.1Z" fill="#fff"/><path d="M13.3,12.5h-.1v-.6c0-.1,0-.1,0-.2a.3.3,0,0,0,0,.2v.6h.1Zm0-.1h0v-.6h0v.6h0Zm-.1-.9h0V11h0c0,.2,0,.4,0,.5Zm-.1,0H13v-.6a.1.1,0,0,1,0-.1h0a.1.1,0,0,0,0,.1v.6h0Zm.1-.8a.2.2,0,0,1,0-.1v-.5h0v.5a.3.3,0,0,0,0,.1Zm-.2,0v-.2a3.1,3.1,0,0,1,0-.5h.1V9.9H13a1.9,1.9,0,0,0,0,.4v.3Z" fill="#272425"/><path d="M13.6,11.9h0a.5.5,0,0,0,0,.1h0v.2h0v.2h-.1v-.2h0v-.2h0c0-.1,0-.1,0-.1h0c0-.2,0-.4,0-.5h0a.3.3,0,0,1,0-.1v-.6h0V9.5h.2a2.4,2.4,0,0,0,0-.4h.1a1.3,1.3,0,0,0,.2.4h0v.3h-.1a.3.3,0,0,1,0,.2h0v.4h-.1a.2.2,0,0,1,0,.1h0v.3Zm0-2.2h0v.2a1.6,1.6,0,0,1,0,.4,3,3,0,0,1,0,.4v.8a2.7,2.7,0,0,0,0,.7h0a2.6,2.6,0,0,1,0-.7V10.2a2.3,2.3,0,0,0,0-.4V9.7h0Z" fill="#fff"/><path d="M13.4,12.6h0v-.8h0a.2.2,0,0,1,0-.1.3.3,0,0,0,0,.1h0v.8h.1v-.5h0a.1.1,0,0,0,0-.1h0v.5Zm0-.5h0a3.1,3.1,0,0,1,0-.6c0-.3.1-.5.1-.8v-.4a2,2,0,0,0,0-.4V9.6h0v.2a1.7,1.7,0,0,1,0,.4v.4a7.6,7.6,0,0,0-.1.8,2.8,2.8,0,0,0,0,.5,3.1,3.1,0,0,1,0-.5c0-.3.1-.5.1-.8a3,3,0,0,0,.1-.4,1.9,1.9,0,0,0,0-.4V9.6h0v.2a2.4,2.4,0,0,1,0,.4v.4c0,.2-.1.5-.1.8a2.6,2.6,0,0,0,0,.7Zm.1-.1h0v-.3h0a.2.2,0,0,0,0-.1h0a.2.2,0,0,1,0,.1h0v.3h0Zm-.3-.5h0v-.6h0v.5h0Zm.4-.2h0v-.4h0a.3.3,0,0,0,0-.2h0a.3.3,0,0,1,0,.2h0v.4h0Zm-.4-.5h0v-.5h0a2,2,0,0,0,0-.4,1.4,1.4,0,0,0,0-.3h0v.3a2,2,0,0,1,0,.4h0v.5Zm.5-.3h0v-.2h0c0,.1,0,.2,0,.3h0Zm-.1-.7V9.4h0v.4Zm-.2-.1h0a2.9,2.9,0,0,0,0-.4h0a2.7,2.7,0,0,1,0,.3h0Z" fill="#272425"/><path d="M12.3,13.9h.3a.2.2,0,0,1,0,.1h0a.3.3,0,0,0,.2-.2h-.4a.7.7,0,0,0-.1-.3h-.2a.6.6,0,0,0-.1.3h-.4a.3.3,0,0,0,.2.2h0a.2.2,0,0,1,0-.1h.5Z"/><path d="M12.1,14.2h0Z" fill="#f8e72d"/><path d="M12.3,13.9h-.2a1.4,1.4,0,0,1,0-.4h0a.6.6,0,0,1,.1-.3h.2a.6.6,0,0,1,.1.3h0a1.3,1.3,0,0,1-.1.4h0Zm-.1-.7a1.2,1.2,0,0,0,0,.4,1.4,1.4,0,0,0,0,.3h0a1.4,1.4,0,0,1,0-.3,1.2,1.2,0,0,1,0-.4Z" fill="#f8e72d"/><path d="M12.7,13.7a.3.3,0,0,1-.1.2.2.2,0,0,0,0-.1h-.3a1.5,1.5,0,0,0,0-.3h.4Zm-.1-.1h0a.2.2,0,0,0,0-.1h0Zm-.1-.1Z" fill="#f8e72d"/><path d="M11.8,13.9a.3.3,0,0,1-.1-.2H12a1.6,1.6,0,0,0,0,.3h-.3a.2.2,0,0,0,0,.1Zm0-.4h0Z" fill="#f8e72d"/><path d="M12.3,14.1h0Z" fill="#f8e72d"/><path d="M12.1,13.9h0Z" fill="#f8e72d"/><path d="M12.2,14.3h0Z" fill="#f8e72d"/><path d="M9.1,9.2v2.1h0a1.3,1.3,0,0,0,1.3,1.3h0a1.3,1.3,0,0,0,1.3-1.3h0V9.2Z" fill="#c90031"/><path d="M9.6,10.2H9.4a.1.1,0,0,1,0-.1H10v.3c0,.1,0,.1-.1.2H9.4a.1.1,0,0,1,0-.1h.2Z"/><path d="M9.6,9.7H10v.3c0,.1,0,.1-.1.1H9.6Z" fill="#fff"/><path d="M9.6,10.3H9.4a.1.1,0,0,1,0-.1h.4c.1,0,.1-.1.1-.1V9.7H9.4a.1.1,0,0,0,0,.1h0a.1.1,0,0,1,0-.1H10v.3c0,.1,0,.1-.1.1H9.6Z" fill="#272425"/><path d="M9.7,9.9h.2V10H9.7Z"/><path d="M9.7,9.9h.2V9.8H9.7a.3.3,0,0,1,0,.1Z" fill="#fff"/><path d="M9.7,10.1h0a.3.3,0,0,0,0-.1h0a.3.3,0,0,1,0,.1h.1V9.8h0V10H9.7Z" fill="#272425"/><path d="M9.1,10.6h1.1V9.2h.4v1.4h1.1V11H10.7v1.6h-.4V11H9.1Z" fill="#fff"/><path d="M10.5,12.6h-.2V11H9.1v-.4h1.1V9.2h.4v1.4h1.1V11H10.7v1.6ZM10.3,11v1.6h.4V11h1.1v-.4H10.7V9.2h-.4v1.4H9.1V11Z" fill="#272425"/><path d="M9.6,11.9H9.4a.1.1,0,0,1,0-.1H10v.3c0,.1,0,.1-.1.2H9.4a.1.1,0,0,1,0-.1h.2Z"/><path d="M9.6,11.5H10v.3c0,.1,0,.1-.1.1H9.6Z" fill="#fff"/><path d="M9.6,12H9.4a.1.1,0,0,1,0-.1h.4c.1,0,.1-.1.1-.1v-.3H9.4a.1.1,0,0,0,0,.1h0a.1.1,0,0,1,0-.1H10v.3c0,.1,0,.1-.1.1H9.6Z" fill="#272425"/><path d="M9.7,11.7h.2v.2H9.7Z"/><path d="M9.7,11.7h.2v-.2H9.7a.3.3,0,0,1,0,.1Z" fill="#fff"/><path d="M9.7,11.9h0a.3.3,0,0,0,0-.1h0a.4.4,0,0,1,0,.1h.1v-.2h0v.2H9.7Z" fill="#272425"/><path d="M11.3,11.9h.2a.1.1,0,0,0,0-.1H11v.3c0,.1,0,.1.1.2h.4a.1.1,0,0,0,0-.1h-.2Z"/><path d="M11.3,11.5H11v.3c0,.1,0,.1.1.1h.2Z" fill="#fff"/><path d="M11.3,12h-.2c-.1,0-.1-.1-.1-.1v-.3h.5a.1.1,0,0,1,0,.1h0a.1.1,0,0,1,0,.1h-.1Zm0-.7H11v.3c0,.1,0,.1.1.1h.4a.1.1,0,0,0,0-.1h0a.1.1,0,0,0,0-.1h-.1Z" fill="#272425"/><path d="M11.2,11.7h-.2v.2h.2Z"/><path d="M11.2,11.7h-.2v-.2h.1a.5.5,0,0,0,0,.1Z" fill="#fff"/><path d="M11.2,11.9h-.1v-.2h.1a.6.6,0,0,0,0,.2h0a.6.6,0,0,1,0-.1h-.1v.2h.1Z" fill="#272425"/><path d="M11.3,10.2h.2a.1.1,0,0,0,0-.1H11v.3c0,.1,0,.1.1.2h.4a.1.1,0,0,0,0-.1h-.2Z"/><path d="M11.3,9.7H11v.3c0,.1,0,.1.1.1h.2Z" fill="#fff"/><path d="M11.3,10.3h-.2c-.1,0-.1-.1-.1-.1V9.7h.5a.1.1,0,0,1,0,.1h0a.1.1,0,0,1,0,.1h-.1Zm0-.7H11v.3c0,.1,0,.1.1.1h.4a.1.1,0,0,0,0-.1h0a.1.1,0,0,0,0-.1h-.1Z" fill="#272425"/><path d="M11.2,9.9h-.2V10h.2Z"/><path d="M11.2,9.9h-.2V9.8h.1a.5.5,0,0,0,0,.1Z" fill="#fff"/><path d="M11.2,10.1h-.1V9.8h.1a.6.6,0,0,0,0,.2h0a.6.6,0,0,1,0-.1h-.1V10h.1Z" fill="#272425"/><path d="M9.2,7.5h0Z" fill="#f8e72d"/><path d="M9.4,7.5h.1s0,0,0,0h.6v.4H10A.1.1,0,0,1,10,8H9.9a.4.4,0,0,1,0,.2H9.9s0,.2-.1.2h0V7.8H9.7V7.8H9.4Z" fill="#fff"/><path d="M9.8,8.2h0a.1.1,0,0,1,0-.1v0h0s.1-.1.1-.2h0v.2Zm-.2,0h0V7.8h0v.2a.4.4,0,0,1,0,.2h.1V7.9H9.6Zm.3-.1h0a.5.5,0,0,0,0-.2h0v.2ZM10,8h0s0,0,0-.1h0A.1.1,0,0,1,10,8Zm.2-.1h0Zm0,0h0Zm0,0h0Zm0,0V7.5h0v.4Zm-.1-.4h0Zm-.9-.2h0Zm.6-.2h0Z" fill="#272425"/><path d="M9.1,7.4H8.6a.2.2,0,0,0,0,.2h.5Z" fill="#f8e72d"/><path d="M9,7.3H8.9a0,0,0,0,0,0,0H9Z"/><path d="M9.3,7.2h0Z" fill="#fff"/><path d="M9.3,7.3h0Z" fill="#272425"/><path d="M9.8,8.1h0Z" fill="#fff"/><path d="M9.7,8.3h0V8.2h0Z" fill="#272425"/><path d="M9.8,8.1h0Z" fill="#fff"/><path d="M9.7,8.4h0a.2.2,0,0,1,0-.1h0Z" fill="#272425"/><path d="M9.9,8.1h0Z" fill="#fff"/><path d="M9.9,8.4h0Zm.1-.1h0Z" fill="#272425"/><path d="M9.9,7.9h0a.2.2,0,0,1,0,.1h0Z" fill="#fff"/><path d="M10,8.4h0Zm0-.1h0Z" fill="#272425"/><path d="M10.1,8.3h0Z" fill="#fff"/><path d="M10.1,8.4h0Z" fill="#272425"/><path d="M10.1,7.9h0a0,0,0,0,0,0,0h0Z" fill="#fff"/><path d="M10.2,8.3Zm0-.1h0Z" fill="#272425"/><path d="M10.3,8.3h0Z" fill="#fff"/><path d="M10.4,8.6h0v.2Z" fill="#272425"/><path d="M10.2,7.9h.2V8h-.1Z" fill="#fff"/><path d="M10.4,8.3h-.1V7.9h0v.2h.1Z" fill="#272425"/><path d="M10.2,8.3h0Z" fill="#fff"/><path d="M10.3,8.6Zm0-.1h0Z" fill="#272425"/><path d="M10.1,8.4h0Z" fill="#fff"/><path d="M10.2,8.6h0Z" fill="#272425"/><path d="M9.9,8.3h0Z" fill="#fff"/><path d="M10,8.6h0Z" fill="#272425"/><path d="M9.8,8.3Z" fill="#fff"/><path d="M9.9,8.6H9.8V8.3h0Z" fill="#272425"/><path d="M9.7,8.4h0Z" fill="#fff"/><path d="M9.7,8.6h0Z" fill="#272425"/><path d="M9.7,8.3h0Z" fill="#fff"/><path d="M9.6,8.6h0Z" fill="#272425"/><path d="M9.7,8.5h0Z" fill="#fff"/><path d="M9.5,8.9h0Z" fill="#272425"/><path d="M9.8,8.6h0Z" fill="#fff"/><path d="M9.6,8.9h0Z" fill="#272425"/><path d="M9.9,8.6h0Z" fill="#fff"/><path d="M9.9,8.9h0Zm.1-.1h0Z" fill="#272425"/><path d="M10,8.6h0Z" fill="#fff"/><path d="M10,8.9Zm.1-.1h0Z" fill="#272425"/><path d="M10.1,8.7h0Z" fill="#fff"/><path d="M10.2,8.9h0Z" fill="#272425"/><path d="M10.3,8.6h-.1v.2h.1V8.6h0Z" fill="#fff"/><path d="M10.3,8.9h0V8.7h0v.2h.1V8.6h0v.2h0Z" fill="#272425"/><path d="M10.3,8.6h0v.2h0a.3.3,0,0,0,0-.1h-.2Z" fill="#fff"/><path d="M10.4,8.9h0a.2.2,0,0,0,0-.1h0a.3.3,0,0,1,0,.1Zm0,0V8.6h0v.2Z" fill="#272425"/><path d="M9.5,8.9h0Z" fill="#fff"/><path d="M9.2,9.2h0Zm.3-.3h0Z" fill="#272425"/><path d="M9.6,8.8h0Z" fill="#fff"/><path d="M9.5,9.2h0Zm0,0h.1V9h0Z" fill="#272425"/><path d="M9.9,9H9.7a.5.5,0,0,0,0,.1h.2Z" fill="#fff"/><path d="M9.8,9.2H9.7a.6.6,0,0,1,0-.1h0a.7.7,0,0,0,0,.1h.1Z" fill="#272425"/><path d="M10,8.9H10V9H10Z" fill="#fff"/><path d="M10,9.2h0V9H10Zm0-.4h0v.2h0Z" fill="#272425"/><path d="M10.2,8.9h0Z" fill="#fff"/><path d="M10.2,9.2h0Zm-.1-.4h0Z" fill="#272425"/><path d="M10.4,8.9h0Z" fill="#fff"/><path d="M10.3,9.2h0Z" fill="#272425"/><path d="M9.6,9.1h0Z" fill="#fff"/><path d="M9.8,9.2h0Zm-.5,0h0Zm.3,0h0Z" fill="#272425"/><path d="M10,9.2h0Z" fill="#fff"/><path d="M10,9.2h0ZM9.9,9h0Z" fill="#272425"/><path d="M10.5,9.2h0Z" fill="#fff"/><path d="M10.9,9.2h0Zm-.8-.1h0Z" fill="#272425"/><path d="M11.7,7.5h0Z" fill="#f8e72d"/><path d="M11.5,7.5H11s0,0,0,0h-.2v.4h.3a.1.1,0,0,0,0,.1H11a.5.5,0,0,0,0,.2h.1s0,.2.1.2h0a.1.1,0,0,0,0-.1h0V7.8h.1V7.8h.3Z" fill="#fff"/><path d="M11.1,8.2h0v0h0V7.8h0v.2h0Zm.2,0h0V7.8h0v.3h0ZM10.8,8h0Zm-.1-.1h0Zm0,0h0Zm0,0h0Zm0-.1h.1V7.5h0v.2Zm.7-.1h0Zm-.6-.2h0Zm0,0h0Zm.7-.3h0Zm-.5,0h0Z" fill="#272425"/><path d="M11.8,7.4h.5a.3.3,0,0,1,0,.2h-.5Z" fill="#f8e72d"/><path d="M11.9,7.3h0Z"/><path d="M11.6,7.2h0Z" fill="#fff"/><path d="M11.7,7.3h-.1a.1.1,0,0,0,0,.1h0Z" fill="#272425"/><path d="M11.2,8.1h0Z" fill="#fff"/><path d="M11.3,8.3h0Z" fill="#272425"/><path d="M11.1,8.1h0Z" fill="#fff"/><path d="M11.2,8.4h0a.2.2,0,0,0,0-.1h0Z" fill="#272425"/><path d="M11.1,8.1h0Z" fill="#fff"/><path d="M11,8.4h0v.2h0Z" fill="#272425"/><path d="M11,7.9h0a.2.2,0,0,0,0,.1h0Z" fill="#fff"/><path d="M10.9,8.4H11a.3.3,0,0,0,0,.2h-.1ZM11,8h0A.4.4,0,0,1,11,8Z" fill="#272425"/><path d="M10.8,8.3h0Z" fill="#fff"/><path d="M10.8,8.4h0Z" fill="#272425"/><path d="M10.8,7.9h0Z" fill="#fff"/><path d="M10.7,8.3h0V7.9h0v.2h0c0,.1,0,.1,0,.1h.1a.1.1,0,0,0,0,.1h-.1Z" fill="#272425"/><path d="M10.7,8.3h0Z" fill="#fff"/><path d="M10.5,8.6h0v.2h0Z" fill="#272425"/><path d="M10.7,7.9h-.2V8h.1Z" fill="#fff"/><path d="M10.6,8.3h0V7.9h0v.2h.1V8h-.2Z" fill="#272425"/><path d="M10.7,8.3h0Z" fill="#fff"/><path d="M10.6,8.6h0c0,.1,0,.1,0,.1h0Z" fill="#272425"/><path d="M10.9,8.4h0Z" fill="#fff"/><path d="M10.8,8.6h0Zm.1-.4h-.1c0,.1,0,.1,0,.1h.1Z" fill="#272425"/><path d="M11,8.3h0Z" fill="#fff"/><path d="M10.9,8.6Zm.1-.3Z" fill="#272425"/><path d="M11.1,8.3Z" fill="#fff"/><path d="M11,8.6H11v.2h.1V8.3h0Z" fill="#272425"/><path d="M11.2,8.4h0Z" fill="#fff"/><path d="M11.2,8.6h-.1a.5.5,0,0,1,0,.1h.1Z" fill="#272425"/><path d="M11.2,8.3h0Z" fill="#fff"/><path d="M11.3,8.6h0Zm-.1-.3a.1.1,0,0,1,0,.1h0Z" fill="#272425"/><path d="M11.2,8.5h0Z" fill="#fff"/><path d="M11.4,8.9h-.1V8.6a.1.1,0,0,0,0-.1h.2Z" fill="#272425"/><path d="M11.1,8.6h0Z" fill="#fff"/><path d="M11.3,8.9h-.2a.5.5,0,0,1,0,.1h.2Zm0,0h0Z" fill="#272425"/><path d="M11,8.6h0Z" fill="#fff"/><path d="M11.1,8.9h.1v.2h-.1Z" fill="#272425"/><path d="M10.9,8.6h0Z" fill="#fff"/><path d="M10.9,8.9Z" fill="#272425"/><path d="M10.9,8.7h0Z" fill="#fff"/><path d="M10.7,8.9h0c0,.1,0,.1,0,.1h0Z" fill="#272425"/><path d="M10.6,8.6h.1v.2h-.1V8.6h0Z" fill="#fff"/><path d="M10.6,8.9h0V8.7h0v.2h0Zm0-.1h0V8.6h0v.2Z" fill="#272425"/><path d="M10.6,8.6h0v.2h0a.2.2,0,0,1,0-.1h.2Z" fill="#fff"/><path d="M10.5,8.9h0a.2.2,0,0,1,0-.1h.2v.2Zm.1-.4h-.1a.3.3,0,0,0,0,.1h0V8.6h0Z" fill="#272425"/><path d="M11.4,8.9h0Z" fill="#fff"/><path d="M11.7,9.2h0s0,0,0,0h-.2V8.9h.3Z" fill="#272425"/><path d="M11.3,8.8h0Z" fill="#fff"/><path d="M11.4,9.2h0ZM11.2,9h.1s0,0,0,.1h-.1Z" fill="#272425"/><path d="M11,9h.2a.5.5,0,0,1,0,.1H11Z" fill="#fff"/><path d="M11.1,9.2h.1a1.1,1.1,0,0,0,0-.1h0a.8.8,0,0,1,0,.1h-.1Z" fill="#272425"/><path d="M10.9,8.9H11V9h-.1Z" fill="#fff"/><path d="M10.9,9.2H11v.2Zm0-.4h0V9h0Z" fill="#272425"/><path d="M10.7,8.9h0Z" fill="#fff"/><path d="M10.8,9.2h0Zm.1-.4h0Z" fill="#272425"/><path d="M10.6,8.9h0Z" fill="#fff"/><path d="M10.6,9.2h0Z" fill="#272425"/><path d="M11.3,9.1h0Z" fill="#fff"/><path d="M11.7,9.2h0Z" fill="#272425"/><path d="M10.9,9.2h0Z" fill="#fff"/><path d="M11.1,9.2h0Z" fill="#272425"/><path d="M10.5,9.2h-.1V8.9h.2v.2Z" fill="#fff"/><path d="M10.5,9.2h-.1V8.9h0a.5.5,0,0,0,0,.1v.2h.1V8.9h0v.2Z" fill="#272425"/></g></g></svg>