<svg xmlns="http://www.w3.org/2000/svg" xmlns:xlink="http://www.w3.org/1999/xlink" viewBox="0 0 33.6 19.6"><defs><clipPath id="a"><rect width="33.6" height="19.58" fill="none"/></clipPath></defs><title>SVK</title><g clip-path=""><rect width="33.6" height="19.58" fill="#fff"/><rect y="6.5" width="33.6" height="13.05" fill="#2534a4"/><rect y="13.1" width="33.6" height="6.53" fill="#bc0030"/><g clip-path=""><path d="M5.1,4.6c-.4,0-.3.5-.3.8A14.9,14.9,0,0,0,5,11a6.3,6.3,0,0,0,2.8,3.5l1,.5,1-.5A6.3,6.3,0,0,0,12.6,11a15.2,15.2,0,0,0,.2-5.7c0-.3,0-.7-.4-.7Z" fill="#fff"/><path d="M8.8,4.9v9.8c-4.5-2.2-4-5.8-3.7-9.8Zm0,0v9.8c4.5-2.2,4-5.8,3.7-9.8Z" fill="#bc0030"/><path d="M9.3,7.6l1.4.2a1.8,1.8,0,0,1,0-1.2l-1.4.2H8.3L6.9,6.6a1.8,1.8,0,0,1,0,1.2l1.4-.2Z" fill="#fff"/><path d="M9.7,9.4l1.4.2a1.8,1.8,0,0,1,0-1.2l-1.4.2H7.9L6.4,8.4a1.8,1.8,0,0,1,0,1.2l1.4-.2Z" fill="#fff"/><path d="M8.2,5.3a7,7,0,0,1,.2,1.4v6.1h.8V6.7a7.1,7.1,0,0,1,.2-1.4,1.8,1.8,0,0,1-1.2,0" fill="#fff"/><path d="M6.9,11.3a1,1,0,0,0-1,1H6l.7.8h.3a1,1,0,1,0,0-1.9" fill="#2534a4"/><path d="M8.8,10.7A1.2,1.2,0,1,0,10,11.9a1.2,1.2,0,0,0-1.2-1.2" fill="#2534a4"/><path d="M10.7,11.3a1,1,0,1,0,0,1.9H11l.7-.8h0a1,1,0,0,0-1-1" fill="#2534a4"/><path d="M6.1,12.6a7.2,7.2,0,0,0,2.7,2.1,7.1,7.1,0,0,0,2.7-2.1Z" fill="#2534a4"/></g></g></svg>