<svg xmlns="http://www.w3.org/2000/svg" xmlns:xlink="http://www.w3.org/1999/xlink" viewBox="0 0 33.6 19.6"><defs><clipPath id="a" transform="translate(-564.8 -447.7)"><rect x="564.8" y="447.7" width="33.6" height="19.58" fill="none"/></clipPath></defs><title>TJK</title><g clip-path=""><rect y="14" width="33.6" height="5.59" fill="#58b44d"/><rect y="5.6" width="33.6" height="8.4" fill="#fff"/><rect width="33.6" height="5.59" fill="#ea0042"/><g clip-path=""><path d="M581.5,459.4a1.4,1.4,0,0,0,1.3.2,1,1,0,0,0,1.3.2,1.7,1.7,0,0,1-1.3-.7,1,1,0,0,1-1.1-.2v-1.5l.8-.8c0-.2-.6-.7-1.1-.7a1.2,1.2,0,0,0-1,.7l.8.8v1.5a.9.9,0,0,1-1,.2,2.1,2.1,0,0,1-1.3.7,1,1,0,0,0,1.3-.2,1.1,1.1,0,0,0,1.2-.2Zm0-2.3a1,1,0,0,0-.6-.5.7.7,0,0,1,1.2,0,1,1,0,0,0-.6.5" transform="translate(-564.8 -447.7)" fill="#cfb428"/><path d="M581.5,460.3a1.7,1.7,0,0,0-1.4.5l-.3-.2c.2-.3.5-.3.5-.6a.5.5,0,0,0,0-.4.8.8,0,0,0,.7.3c.3,0,.5-.4.5-.4m0,0s.2.4.5.4a.9.9,0,0,0,.8-.3s-.2.2-.1.4.3.3.5.6l-.2.2a1.9,1.9,0,0,0-1.5-.5" transform="translate(-564.8 -447.7)" fill="#cfb428"/><polygon points="20.4 10 20.5 10.4 20.9 10.4 20.6 10.7 20.7 11.1 20.4 10.9 20 11.1 20.1 10.7 19.8 10.4 20.2 10.4 20.4 10" fill="#cfb428"/><polygon points="19.9 8.2 20 8.7 20.5 8.7 20.1 8.9 20.2 9.4 19.9 9.1 19.5 9.4 19.6 8.9 19.3 8.7 19.7 8.7 19.9 8.2" fill="#cfb428"/><polygon points="18.6 6.9 18.7 7.4 19.2 7.4 18.8 7.6 18.9 8.1 18.6 7.8 18.2 8.1 18.3 7.6 18 7.4 18.4 7.4 18.6 6.9" fill="#cfb428"/><polygon points="16.8 6.4 16.9 6.9 17.4 6.9 17 7.1 17.1 7.6 16.8 7.3 16.4 7.6 16.6 7.1 16.2 6.9 16.6 6.9 16.8 6.4" fill="#cfb428"/><polygon points="15 6.9 15.1 7.4 15.6 7.4 15.2 7.6 15.4 8.1 15 7.8 14.6 8.1 14.8 7.6 14.4 7.4 14.9 7.4 15 6.9" fill="#cfb428"/><polygon points="13.7 8.2 13.8 8.7 14.3 8.7 13.9 8.9 14.1 9.4 13.7 9.1 13.3 9.4 13.5 8.9 13.1 8.7 13.5 8.7 13.7 8.2" fill="#cfb428"/><polygon points="13.2 10 13.4 10.4 13.8 10.4 13.4 10.7 13.6 11.1 13.2 10.9 12.8 11.1 13 10.7 12.6 10.4 13.1 10.4 13.2 10" fill="#cfb428"/></g></g></svg>