<?xml version="1.0" encoding="utf-8"?>
<!-- Generator: Adobe Illustrator 23.0.1, SVG Export Plug-In . SVG Version: 6.00 Build 0)  -->
<svg version="1.1" id="Layer_1" xmlns="http://www.w3.org/2000/svg" xmlns:xlink="http://www.w3.org/1999/xlink" x="0px" y="0px"
	 viewBox="0 0 33.6 19.6" enable-background="new 0 0 33.6 19.6" xml:space="preserve">
<g id="Sidebar_1_">
	<polygon display="none" fill="#F5A2C6" stroke="#002D62" stroke-width="0.25" points="23.6,9.1 23.6,7.5 20.3,9.1 	"/>
</g>
<g>
	<path fill="#1EB53A" d="M-0.2-0.2h40v20h-40V-0.2z"/>
	<path fill="#0099B5" d="M-0.2-0.2h40v10h-40V-0.2z"/>
	<path fill="#CE1126" d="M-0.2,6.2h40v7.2h-40V6.2z"/>
	<path fill="#FFFFFF" d="M-0.2,6.6h40V13h-40V6.6z"/>
	<circle fill="#FFFFFF" cx="5.4" cy="3" r="2.4"/>
	<circle fill="#0099B5" cx="6.2" cy="3" r="2.4"/>
	<g transform="matrix(2 0 0 2 272 128)">
		<g id="e_1_">
			<g id="d_1_">
				<g id="c_1_">
					<g id="b_1_">
						<path id="a_1_" fill="#FFFFFF" d="M-130.6-61.8l-0.1,0.2l0.1,0"/>
						<g transform="scale(-1 1)">
							<path fill="#FFFFFF" d="M-130.6-61.8l0.1,0.2l-0.1,0"/>
						</g>
					</g>
					<g transform="rotate(72)">
						<g>
							<path fill="#FFFFFF" d="M-130.4-61.6h-0.2v0.1"/>
							<g transform="scale(-1 1)">
								<path fill="#FFFFFF" d="M-130.4-61.6l-0.2,0.1l-0.1-0.1"/>
							</g>
						</g>
					</g>
				</g>
				<g transform="rotate(-72)">
					<g>
						<path fill="#FFFFFF" d="M-130.9-61.6l0.2,0.1l0.1-0.1"/>
						<g transform="scale(-1 1)">
							<path fill="#FFFFFF" d="M-130.9-61.6h0.2v0.1"/>
						</g>
					</g>
				</g>
				<g transform="rotate(144)">
					<g>
						<g>
							<path fill="#FFFFFF" d="M-130.5-61.3l-0.1-0.2l-0.1,0"/>
							<g transform="scale(-1 1)">
								<path fill="#FFFFFF" d="M-130.5-61.3l-0.2-0.1l0.1-0.1"/>
							</g>
						</g>
						<g transform="rotate(72)">
							<g>
								<path fill="#FFFFFF" d="M-130.8-61.3l0.2-0.1l-0.1-0.1"/>
								<g transform="scale(-1 1)">
									<path fill="#FFFFFF" d="M-130.8-61.3l0.1-0.2l0.1,0"/>
								</g>
							</g>
						</g>
					</g>
				</g>
			</g>
			<g>
				<g>
					<g>
						<g>
							<path fill="#FFFFFF" d="M-130.6-62.7l-0.1,0.2l0.1,0"/>
							<g transform="scale(-1 1)">
								<path fill="#FFFFFF" d="M-130.6-62.7l0.1,0.2l-0.1,0"/>
							</g>
						</g>
						<g transform="rotate(72)">
							<g>
								<path fill="#FFFFFF" d="M-130.4-62.6h-0.2v0.1"/>
								<g transform="scale(-1 1)">
									<path fill="#FFFFFF" d="M-130.4-62.6l-0.2,0.1l-0.1-0.1"/>
								</g>
							</g>
						</g>
					</g>
					<g transform="rotate(-72)">
						<g>
							<path fill="#FFFFFF" d="M-130.9-62.6l0.2,0.1l0.1-0.1"/>
							<g transform="scale(-1 1)">
								<path fill="#FFFFFF" d="M-130.9-62.6h0.2v0.1"/>
							</g>
						</g>
					</g>
					<g transform="rotate(144)">
						<g>
							<g>
								<path fill="#FFFFFF" d="M-130.5-62.3l-0.1-0.2l-0.1,0"/>
								<g transform="scale(-1 1)">
									<path fill="#FFFFFF" d="M-130.5-62.3l-0.2-0.1l0.1-0.1"/>
								</g>
							</g>
							<g transform="rotate(72)">
								<g>
									<path fill="#FFFFFF" d="M-130.8-62.3l0.2-0.1l-0.1-0.1"/>
									<g transform="scale(-1 1)">
										<path fill="#FFFFFF" d="M-130.8-62.3l0.1-0.2l0.1,0"/>
									</g>
								</g>
							</g>
						</g>
					</g>
				</g>
			</g>
			<g>
				<g>
					<g>
						<g>
							<path fill="#FFFFFF" d="M-130.6-63.7l-0.1,0.2l0.1,0"/>
							<g transform="scale(-1 1)">
								<path fill="#FFFFFF" d="M-130.6-63.7l0.1,0.2l-0.1,0"/>
							</g>
						</g>
						<g transform="rotate(72)">
							<g>
								<path fill="#FFFFFF" d="M-130.4-63.5h-0.2v0.1"/>
								<g transform="scale(-1 1)">
									<path fill="#FFFFFF" d="M-130.4-63.5l-0.2,0.1l-0.1-0.1"/>
								</g>
							</g>
						</g>
					</g>
					<g transform="rotate(-72)">
						<g>
							<path fill="#FFFFFF" d="M-130.9-63.5l0.2,0.1l0.1-0.1"/>
							<g transform="scale(-1 1)">
								<path fill="#FFFFFF" d="M-130.9-63.5h0.2v0.1"/>
							</g>
						</g>
					</g>
					<g transform="rotate(144)">
						<g>
							<g>
								<path fill="#FFFFFF" d="M-130.5-63.3l-0.1-0.2l-0.1,0"/>
								<g transform="scale(-1 1)">
									<path fill="#FFFFFF" d="M-130.5-63.3l-0.2-0.1l0.1-0.1"/>
								</g>
							</g>
							<g transform="rotate(72)">
								<g>
									<path fill="#FFFFFF" d="M-130.8-63.3l0.2-0.1l-0.1-0.1"/>
									<g transform="scale(-1 1)">
										<path fill="#FFFFFF" d="M-130.8-63.3l0.1-0.2l0.1,0"/>
									</g>
								</g>
							</g>
						</g>
					</g>
				</g>
			</g>
		</g>
		<g>
			<g>
				<g>
					<g>
						<g>
							<path fill="#FFFFFF" d="M-129.7-61.8l-0.1,0.2l0.1,0"/>
							<g transform="scale(-1 1)">
								<path fill="#FFFFFF" d="M-129.7-61.8l0.1,0.2l-0.1,0"/>
							</g>
						</g>
						<g transform="rotate(72)">
							<g>
								<path fill="#FFFFFF" d="M-129.5-61.6h-0.2v0.1"/>
								<g transform="scale(-1 1)">
									<path fill="#FFFFFF" d="M-129.5-61.6l-0.2,0.1l-0.1-0.1"/>
								</g>
							</g>
						</g>
					</g>
					<g transform="rotate(-72)">
						<g>
							<path fill="#FFFFFF" d="M-129.9-61.6l0.2,0.1l0.1-0.1"/>
							<g transform="scale(-1 1)">
								<path fill="#FFFFFF" d="M-129.9-61.6h0.2v0.1"/>
							</g>
						</g>
					</g>
					<g transform="rotate(144)">
						<g>
							<g>
								<path fill="#FFFFFF" d="M-129.5-61.3l-0.1-0.2l-0.1,0"/>
								<g transform="scale(-1 1)">
									<path fill="#FFFFFF" d="M-129.5-61.3l-0.2-0.1l0.1-0.1"/>
								</g>
							</g>
							<g transform="rotate(72)">
								<g>
									<path fill="#FFFFFF" d="M-129.8-61.3l0.2-0.1l-0.1-0.1"/>
									<g transform="scale(-1 1)">
										<path fill="#FFFFFF" d="M-129.8-61.3l0.1-0.2l0.1,0"/>
									</g>
								</g>
							</g>
						</g>
					</g>
				</g>
				<g>
					<g>
						<g>
							<g>
								<path fill="#FFFFFF" d="M-129.7-62.7l-0.1,0.2l0.1,0"/>
								<g transform="scale(-1 1)">
									<path fill="#FFFFFF" d="M-129.7-62.7l0.1,0.2l-0.1,0"/>
								</g>
							</g>
							<g transform="rotate(72)">
								<g>
									<path fill="#FFFFFF" d="M-129.5-62.6h-0.2v0.1"/>
									<g transform="scale(-1 1)">
										<path fill="#FFFFFF" d="M-129.5-62.6l-0.2,0.1l-0.1-0.1"/>
									</g>
								</g>
							</g>
						</g>
						<g transform="rotate(-72)">
							<g>
								<path fill="#FFFFFF" d="M-129.9-62.6l0.2,0.1l0.1-0.1"/>
								<g transform="scale(-1 1)">
									<path fill="#FFFFFF" d="M-129.9-62.6h0.2v0.1"/>
								</g>
							</g>
						</g>
						<g transform="rotate(144)">
							<g>
								<g>
									<path fill="#FFFFFF" d="M-129.5-62.3l-0.1-0.2l-0.1,0"/>
									<g transform="scale(-1 1)">
										<path fill="#FFFFFF" d="M-129.5-62.3l-0.2-0.1l0.1-0.1"/>
									</g>
								</g>
								<g transform="rotate(72)">
									<g>
										<path fill="#FFFFFF" d="M-129.8-62.3l0.2-0.1l-0.1-0.1"/>
										<g transform="scale(-1 1)">
											<path fill="#FFFFFF" d="M-129.8-62.3l0.1-0.2l0.1,0"/>
										</g>
									</g>
								</g>
							</g>
						</g>
					</g>
				</g>
				<g>
					<g>
						<g>
							<g>
								<path fill="#FFFFFF" d="M-129.7-63.7l-0.1,0.2l0.1,0"/>
								<g transform="scale(-1 1)">
									<path fill="#FFFFFF" d="M-129.7-63.7l0.1,0.2l-0.1,0"/>
								</g>
							</g>
							<g transform="rotate(72)">
								<g>
									<path fill="#FFFFFF" d="M-129.5-63.5h-0.2v0.1"/>
									<g transform="scale(-1 1)">
										<path fill="#FFFFFF" d="M-129.5-63.5l-0.2,0.1l-0.1-0.1"/>
									</g>
								</g>
							</g>
						</g>
						<g transform="rotate(-72)">
							<g>
								<path fill="#FFFFFF" d="M-129.9-63.5l0.2,0.1l0.1-0.1"/>
								<g transform="scale(-1 1)">
									<path fill="#FFFFFF" d="M-129.9-63.5h0.2v0.1"/>
								</g>
							</g>
						</g>
						<g transform="rotate(144)">
							<g>
								<g>
									<path fill="#FFFFFF" d="M-129.5-63.3l-0.1-0.2l-0.1,0"/>
									<g transform="scale(-1 1)">
										<path fill="#FFFFFF" d="M-129.5-63.3l-0.2-0.1l0.1-0.1"/>
									</g>
								</g>
								<g transform="rotate(72)">
									<g>
										<path fill="#FFFFFF" d="M-129.8-63.3l0.2-0.1l-0.1-0.1"/>
										<g transform="scale(-1 1)">
											<path fill="#FFFFFF" d="M-129.8-63.3l0.1-0.2l0.1,0"/>
										</g>
									</g>
								</g>
							</g>
						</g>
					</g>
				</g>
			</g>
		</g>
		<g>
			<g>
				<g>
					<g>
						<g>
							<path fill="#FFFFFF" d="M-128.7-61.8l-0.1,0.2l0.1,0"/>
							<g transform="scale(-1 1)">
								<path fill="#FFFFFF" d="M-128.7-61.8l0.1,0.2l-0.1,0"/>
							</g>
						</g>
						<g transform="rotate(72)">
							<g>
								<path fill="#FFFFFF" d="M-128.5-61.6h-0.2v0.1"/>
								<g transform="scale(-1 1)">
									<path fill="#FFFFFF" d="M-128.5-61.6l-0.2,0.1l-0.1-0.1"/>
								</g>
							</g>
						</g>
					</g>
					<g transform="rotate(-72)">
						<g>
							<path fill="#FFFFFF" d="M-129-61.6l0.2,0.1l0.1-0.1"/>
							<g transform="scale(-1 1)">
								<path fill="#FFFFFF" d="M-129-61.6h0.2v0.1"/>
							</g>
						</g>
					</g>
					<g transform="rotate(144)">
						<g>
							<g>
								<path fill="#FFFFFF" d="M-128.6-61.3l-0.1-0.2l-0.1,0"/>
								<g transform="scale(-1 1)">
									<path fill="#FFFFFF" d="M-128.6-61.3l-0.2-0.1l0.1-0.1"/>
								</g>
							</g>
							<g transform="rotate(72)">
								<g>
									<path fill="#FFFFFF" d="M-128.9-61.3l0.2-0.1l-0.1-0.1"/>
									<g transform="scale(-1 1)">
										<path fill="#FFFFFF" d="M-128.9-61.3l0.1-0.2l0.1,0"/>
									</g>
								</g>
							</g>
						</g>
					</g>
				</g>
				<g>
					<g>
						<g>
							<g>
								<path fill="#FFFFFF" d="M-128.7-62.7l-0.1,0.2l0.1,0"/>
								<g transform="scale(-1 1)">
									<path fill="#FFFFFF" d="M-128.7-62.7l0.1,0.2l-0.1,0"/>
								</g>
							</g>
							<g transform="rotate(72)">
								<g>
									<path fill="#FFFFFF" d="M-128.5-62.6h-0.2v0.1"/>
									<g transform="scale(-1 1)">
										<path fill="#FFFFFF" d="M-128.5-62.6l-0.2,0.1l-0.1-0.1"/>
									</g>
								</g>
							</g>
						</g>
						<g transform="rotate(-72)">
							<g>
								<path fill="#FFFFFF" d="M-129-62.6l0.2,0.1l0.1-0.1"/>
								<g transform="scale(-1 1)">
									<path fill="#FFFFFF" d="M-129-62.6h0.2v0.1"/>
								</g>
							</g>
						</g>
						<g transform="rotate(144)">
							<g>
								<g>
									<path fill="#FFFFFF" d="M-128.6-62.3l-0.1-0.2l-0.1,0"/>
									<g transform="scale(-1 1)">
										<path fill="#FFFFFF" d="M-128.6-62.3l-0.2-0.1l0.1-0.1"/>
									</g>
								</g>
								<g transform="rotate(72)">
									<g>
										<path fill="#FFFFFF" d="M-128.9-62.3l0.2-0.1l-0.1-0.1"/>
										<g transform="scale(-1 1)">
											<path fill="#FFFFFF" d="M-128.9-62.3l0.1-0.2l0.1,0"/>
										</g>
									</g>
								</g>
							</g>
						</g>
					</g>
				</g>
				<g>
					<g>
						<g>
							<g>
								<path fill="#FFFFFF" d="M-128.7-63.7l-0.1,0.2l0.1,0"/>
								<g transform="scale(-1 1)">
									<path fill="#FFFFFF" d="M-128.7-63.7l0.1,0.2l-0.1,0"/>
								</g>
							</g>
							<g transform="rotate(72)">
								<g>
									<path fill="#FFFFFF" d="M-128.5-63.5h-0.2v0.1"/>
									<g transform="scale(-1 1)">
										<path fill="#FFFFFF" d="M-128.5-63.5l-0.2,0.1l-0.1-0.1"/>
									</g>
								</g>
							</g>
						</g>
						<g transform="rotate(-72)">
							<g>
								<path fill="#FFFFFF" d="M-129-63.5l0.2,0.1l0.1-0.1"/>
								<g transform="scale(-1 1)">
									<path fill="#FFFFFF" d="M-129-63.5h0.2v0.1"/>
								</g>
							</g>
						</g>
						<g transform="rotate(144)">
							<g>
								<g>
									<path fill="#FFFFFF" d="M-128.6-63.3l-0.1-0.2l-0.1,0"/>
									<g transform="scale(-1 1)">
										<path fill="#FFFFFF" d="M-128.6-63.3l-0.2-0.1l0.1-0.1"/>
									</g>
								</g>
								<g transform="rotate(72)">
									<g>
										<path fill="#FFFFFF" d="M-128.9-63.3l0.2-0.1l-0.1-0.1"/>
										<g transform="scale(-1 1)">
											<path fill="#FFFFFF" d="M-128.9-63.3l0.1-0.2l0.1,0"/>
										</g>
									</g>
								</g>
							</g>
						</g>
					</g>
				</g>
			</g>
		</g>
		<g>
			<g>
				<g>
					<g>
						<path fill="#FFFFFF" d="M-132.6-61.8l-0.1,0.2l0.1,0"/>
						<g transform="scale(-1 1)">
							<path fill="#FFFFFF" d="M-132.6-61.8l0.1,0.2l-0.1,0"/>
						</g>
					</g>
					<g transform="rotate(72)">
						<g>
							<path fill="#FFFFFF" d="M-132.3-61.6h-0.2v0.1"/>
							<g transform="scale(-1 1)">
								<path fill="#FFFFFF" d="M-132.3-61.6l-0.2,0.1l-0.1-0.1"/>
							</g>
						</g>
					</g>
				</g>
				<g transform="rotate(-72)">
					<g>
						<path fill="#FFFFFF" d="M-132.8-61.6l0.2,0.1l0.1-0.1"/>
						<g transform="scale(-1 1)">
							<path fill="#FFFFFF" d="M-132.8-61.6h0.2v0.1"/>
						</g>
					</g>
				</g>
				<g transform="rotate(144)">
					<g>
						<g>
							<path fill="#FFFFFF" d="M-132.4-61.3l-0.1-0.2l-0.1,0"/>
							<g transform="scale(-1 1)">
								<path fill="#FFFFFF" d="M-132.4-61.3l-0.2-0.1l0.1-0.1"/>
							</g>
						</g>
						<g transform="rotate(72)">
							<g>
								<path fill="#FFFFFF" d="M-132.7-61.3l0.2-0.1l-0.1-0.1"/>
								<g transform="scale(-1 1)">
									<path fill="#FFFFFF" d="M-132.7-61.3l0.1-0.2l0.1,0"/>
								</g>
							</g>
						</g>
					</g>
				</g>
			</g>
		</g>
		<g>
			<g>
				<g>
					<g>
						<path fill="#FFFFFF" d="M-131.6-61.8l-0.1,0.2l0.1,0"/>
						<g transform="scale(-1 1)">
							<path fill="#FFFFFF" d="M-131.6-61.8l0.1,0.2l-0.1,0"/>
						</g>
					</g>
					<g transform="rotate(72)">
						<g>
							<path fill="#FFFFFF" d="M-131.4-61.6h-0.2v0.1"/>
							<g transform="scale(-1 1)">
								<path fill="#FFFFFF" d="M-131.4-61.6l-0.2,0.1l-0.1-0.1"/>
							</g>
						</g>
					</g>
				</g>
				<g transform="rotate(-72)">
					<g>
						<path fill="#FFFFFF" d="M-131.8-61.6l0.2,0.1l0.1-0.1"/>
						<g transform="scale(-1 1)">
							<path fill="#FFFFFF" d="M-131.8-61.6h0.2v0.1"/>
						</g>
					</g>
				</g>
				<g transform="rotate(144)">
					<g>
						<g>
							<path fill="#FFFFFF" d="M-131.5-61.3l-0.1-0.2l-0.1,0"/>
							<g transform="scale(-1 1)">
								<path fill="#FFFFFF" d="M-131.5-61.3l-0.2-0.1l0.1-0.1"/>
							</g>
						</g>
						<g transform="rotate(72)">
							<g>
								<path fill="#FFFFFF" d="M-131.7-61.3l0.2-0.1l-0.1-0.1"/>
								<g transform="scale(-1 1)">
									<path fill="#FFFFFF" d="M-131.7-61.3l0.1-0.2l0.1,0"/>
								</g>
							</g>
						</g>
					</g>
				</g>
			</g>
		</g>
		<g>
			<g>
				<g>
					<g>
						<path fill="#FFFFFF" d="M-131.6-62.7l-0.1,0.2l0.1,0"/>
						<g transform="scale(-1 1)">
							<path fill="#FFFFFF" d="M-131.6-62.7l0.1,0.2l-0.1,0"/>
						</g>
					</g>
					<g transform="rotate(72)">
						<g>
							<path fill="#FFFFFF" d="M-131.4-62.6h-0.2v0.1"/>
							<g transform="scale(-1 1)">
								<path fill="#FFFFFF" d="M-131.4-62.6l-0.2,0.1l-0.1-0.1"/>
							</g>
						</g>
					</g>
				</g>
				<g transform="rotate(-72)">
					<g>
						<path fill="#FFFFFF" d="M-131.8-62.6l0.2,0.1l0.1-0.1"/>
						<g transform="scale(-1 1)">
							<path fill="#FFFFFF" d="M-131.8-62.6h0.2v0.1"/>
						</g>
					</g>
				</g>
				<g transform="rotate(144)">
					<g>
						<g>
							<path fill="#FFFFFF" d="M-131.5-62.3l-0.1-0.2l-0.1,0"/>
							<g transform="scale(-1 1)">
								<path fill="#FFFFFF" d="M-131.5-62.3l-0.2-0.1l0.1-0.1"/>
							</g>
						</g>
						<g transform="rotate(72)">
							<g>
								<path fill="#FFFFFF" d="M-131.7-62.3l0.2-0.1l-0.1-0.1"/>
								<g transform="scale(-1 1)">
									<path fill="#FFFFFF" d="M-131.7-62.3l0.1-0.2l0.1,0"/>
								</g>
							</g>
						</g>
					</g>
				</g>
			</g>
		</g>
	</g>
</g>
</svg>
