<?xml version="1.0" encoding="utf-8"?>
<!-- Generator: Adobe Illustrator 23.0.1, SVG Export Plug-In . SVG Version: 6.00 Build 0)  -->
<svg version="1.1" id="Layer_1" xmlns="http://www.w3.org/2000/svg" xmlns:xlink="http://www.w3.org/1999/xlink" x="0px" y="0px"
	 viewBox="0 0 33.6 19.6" enable-background="new 0 0 33.6 19.6" xml:space="preserve">
<g>
	<rect x="-0.1" y="-1.32" fill="#CE2028" width="33.79" height="11.26"/>
	<rect x="-0.1" y="9.94" width="33.79" height="11.26"/>
	<path fill="#F7D419" d="M18.97,13.39l0.25-0.23l-0.34-0.4c0.24-0.25,0.45-0.51,0.64-0.8l0.52,0.17l0.38-0.86L20,11.06
		c0.14-0.33,0.24-0.67,0.31-1.02l0.54-0.02l0.07-0.94l-0.49-0.06c0.01-0.32-0.02-0.65-0.07-0.98c-0.01-0.05-0.02-0.1-0.03-0.15
		l0.47-0.21l-0.27-0.9l-0.48,0.12c-0.17-0.43-0.39-0.84-0.65-1.21l0.35-0.38l-0.59-0.73l-0.43,0.33c-0.25-0.24-0.51-0.45-0.8-0.64
		l0.19-0.5L17.3,3.34L17.03,3.8c-0.29-0.12-0.59-0.21-0.91-0.28l-0.16,0.77c1.89,0.4,3.33,1.94,3.64,3.87
		c0.27,1.68-0.37,3.35-1.64,4.4"/>
	<path fill="#F7D419" d="M16.71,13.31c-1.54,0.61-3.3,0.36-4.61-0.71l-0.48,0.61c0.21,0.17,0.42,0.32,0.65,0.45l-0.14,0.48
		l0.85,0.38l0.21-0.43c0.31,0.11,0.62,0.19,0.94,0.25l0.05,0.53l0.92,0.02l0.03-0.47c0.34-0.01,0.69-0.05,1.02-0.12l0.22,0.48
		l0.88-0.29l-0.13-0.5c0.13-0.05,0.25-0.11,0.38-0.18"/>
	<path fill="#F7D419" d="M15.49,6.49l0.41-1.25l0.4,1.25h1.3L16.56,7.3l0.43,1.3l-1.1-0.82l-1.08,0.82l0.43-1.29l-1.07-0.81h1.32
		L15.49,6.49L15.49,6.49z M13.76,8.89c-1.22,2.58,1.16,2.73,5.81,6.14l0.39-0.45l-4.61-3.58c-0.03-0.02-0.01-0.07,0.02-0.07
		c0.01,0,0.02,0,0.03,0.01L20,14.52l0.07-0.08C14.67,10.3,14.04,9.89,13.76,8.89L13.76,8.89z M20.2,14.54l-0.42,0.53l1.36,1.04
		c0.18,0.5,0.56,0.52,0.77,0.3c0.1-0.1,0.13-0.4-0.05-0.54L20.2,14.54L20.2,14.54z M20.62,15.12c0.03,0,0.06,0.03,0.06,0.06l0,0
		c0,0.03-0.03,0.06-0.06,0.06l0,0c-0.03,0-0.06-0.03-0.06-0.06l0,0C20.56,15.15,20.59,15.12,20.62,15.12L20.62,15.12z M20.95,15.37
		c0.03,0,0.06,0.03,0.06,0.06l0,0c0,0.03-0.03,0.06-0.06,0.06s-0.06-0.03-0.06-0.06C20.89,15.4,20.92,15.37,20.95,15.37L20.95,15.37
		z M21.27,15.62c0.03,0,0.06,0.03,0.06,0.06l0,0c0,0.03-0.03,0.06-0.06,0.06s-0.06-0.03-0.06-0.06S21.23,15.62,21.27,15.62
		L21.27,15.62z"/>
</g>
</svg>
