<?xml version="1.0" encoding="utf-8"?>
<!-- Generator: Adobe Illustrator 23.0.1, SVG Export Plug-In . SVG Version: 6.00 Build 0)  -->
<svg version="1.1" id="Layer_1" xmlns="http://www.w3.org/2000/svg" xmlns:xlink="http://www.w3.org/1999/xlink" x="0px" y="0px"
	 viewBox="0 0 33.6 19.6" enable-background="new 0 0 33.6 19.6" xml:space="preserve">
<g>
	<rect x="-0.29" y="-0.15" fill="#00247D" width="33.97" height="22.65"/>
	<g transform="translate(-225)">
		<path fill="#CCCC33" d="M245.69,5.66c0,5.62,0.45,7.61,1.99,9.15c1.54,1.54,2.12,1.78,2.55,2.02c0.49-0.27,1.06-0.57,2.46-1.96
			c1.38-1.38,2.04-3.37,2.04-9.3c-1,0.43-1.5,0.57-2.38,0.57c-0.65,0.06-1.65-0.35-2.25-0.62c-0.39,0.25-0.96,0.55-1.98,0.58
			C246.94,6.14,246.56,5.95,245.69,5.66L245.69,5.66z"/>
		<path fill="#FFFFFF" d="M245.96,6.02c0,1.74-0.1,4.11,0.26,5.48c0.37,1.38,0.45,1.58,0.73,2.06l6.46-0.05
			c0.4-0.69,0.42-1.12,0.72-2.22c0.29-1.1,0.37-3.55,0.38-5.38c-0.65,0.33-1.5,0.56-2.33,0.46c-0.66-0.05-1.27-0.19-1.99-0.58
			c-0.62,0.35-0.83,0.51-1.85,0.56C247.55,6.37,246.9,6.44,245.96,6.02L245.96,6.02z"/>
		<path fill="#99CCFF" d="M246.97,13.51c0.46,0.92,2.63,2.69,3.26,3.06c0.72-0.42,2.64-2.17,3.17-3.06H246.97L246.97,13.51z"/>
		<path fill="#FF9900" d="M250.35,8.59c0.2,0.46,0.86,0.96,1.04,1.21c-0.23,0.25-0.28,0.22-0.24,0.68c0.4-0.4,0.41-0.44,0.66-0.38
			c0.56,0.53,0.1,1.68-0.36,1.93c-0.46,0.27-0.38-0.01-1.08,0.32c0.32,0.26,0.69-0.04,0.99,0.04c0.16,0.19-0.08,0.52,0.05,0.84
			c0.27-0.02,0.23-0.54,0.3-0.72c0.19-0.68,1.37-1.16,1.43-1.78c0.25-0.11,0.49-0.03,0.79,0.13c-0.15-0.59-0.64-0.58-0.78-0.76
			c-0.32-0.46-0.6-0.99-1.27-1.12c-0.51-0.1-0.47,0.03-0.8-0.18C250.87,8.64,250.25,8.36,250.35,8.59L250.35,8.59z"/>
		<path fill="#FF9900" d="M248.72,10.53c0.33-0.39,0.49-1.17,0.64-1.44c0.34,0.08,0.33,0.13,0.75-0.11
			c-0.55-0.15-0.6-0.14-0.66-0.38c0.23-0.72,1.51-0.87,1.96-0.6c0.46,0.27,0.17,0.32,0.8,0.75c0.09-0.39-0.36-0.56-0.42-0.85
			c0.1-0.23,0.52-0.18,0.76-0.44c-0.15-0.21-0.61,0.05-0.81,0.09c-0.72,0.15-1.71-0.61-2.32-0.37c-0.22-0.16-0.26-0.4-0.25-0.73
			c-0.47,0.4-0.24,0.81-0.34,1.01c-0.28,0.48-0.64,0.96-0.45,1.59c0.14,0.48,0.25,0.38,0.21,0.76
			C248.52,10.07,248.55,10.73,248.72,10.53L248.72,10.53z"/>
		<path fill="#FF9900" d="M251.39,10.81c-0.52-0.07-1.31,0.21-1.63,0.23c-0.1-0.32-0.06-0.34-0.49-0.55c0.15,0.53,0.19,0.56,0,0.74
			c-0.77,0.18-1.56-0.78-1.55-1.29c0-0.52,0.2-0.31,0.26-1.05c-0.4,0.13-0.32,0.58-0.55,0.79c-0.25,0.04-0.43-0.33-0.78-0.39
			c-0.12,0.23,0.36,0.47,0.5,0.62c0.51,0.51,0.34,1.71,0.87,2.08c-0.03,0.26-0.22,0.42-0.52,0.58c0.6,0.18,0.85-0.23,1.09-0.24
			c0.58-0.02,1.19,0.02,1.66-0.46c0.36-0.37,0.22-0.4,0.58-0.56C251.08,11.2,251.65,10.84,251.39,10.81L251.39,10.81z"/>
		<ellipse fill="#FFFFFF" cx="251.72" cy="9.11" rx="0.11" ry="0.1"/>
		<ellipse fill="#FFFFFF" cx="248.56" cy="9.14" rx="0.11" ry="0.1"/>
		<ellipse fill="#FFFFFF" cx="250.22" cy="11.65" rx="0.11" ry="0.1"/>
	</g>
	<g transform="scale(1.2)">
		<path fill-rule="evenodd" clip-rule="evenodd" fill="#FFFFFF" d="M-0.24-0.13v1.13l5.38,3.58l-5.38,3.58v1.13l1.7,0l5.38-3.58
			l5.38,3.58l1.7,0l0-1.13L8.54,4.59l5.38-3.58v-1.13h-1.7L6.84,3.46L1.46-0.13L-0.24-0.13z"/>
		<path fill="#CF142B" d="M-0.24,9.31l4.72-3.15h1.06L0.61,9.31H-0.24z M-0.24-0.13l4.72,3.15H3.43l-3.66-2.44L-0.24-0.13z
			 M8.14,3.02l4.72-3.15h1.06L9.2,3.02H8.14z M13.92,9.31L9.2,6.16h1.06l3.66,2.44L13.92,9.31z"/>
		<path stroke="#FFFFFF" stroke-width="3" d="M6.84-0.13v9.44 M-0.24,4.59h14.15"/>
		<path stroke="#CF142B" stroke-width="2" d="M6.84-0.13v9.44 M-0.24,4.59h14.15"/>
	</g>
</g>
</svg>
