<svg xmlns="http://www.w3.org/2000/svg" xmlns:xlink="http://www.w3.org/1999/xlink" viewBox="0 0 33.6 19.6"><defs><clipPath id="a"><rect width="33.6" height="19.58" fill="none"/></clipPath></defs><title>ALB</title><g clip-path=""><rect width="33.6" height="19.58" fill="#bc0030"/><g clip-path=""><path d="M22.2,12.4H20.6l.2-.2h1.1a.4.4,0,0,0-.4-.3h-.2c-.1-.1-.3,0-.4.2l-.4.3h-.6l-.7-.3v-.2h-.1a2.9,2.9,0,0,1-1.1-1.1c-.1-.4,0-.4.1-.2a.7.7,0,0,0,.4.5h.3c.1,0,.1-.1,0-.2s-.4-.7-.2-.7.1,0,.3.3a2.1,2.1,0,0,0,.6,1c.2.1.4,0,.4-.1s0-.2-.1-.3a1.6,1.6,0,0,1-.6-.8c0-.2,0-.2.1-.2s.1-.1.2.2a6.6,6.6,0,0,0,1.2,1.2.8.8,0,0,0,1.1,0V11h-.9a2.2,2.2,0,0,1-1-1.1c-.2-.5-.1-.5.3-.1s1,.8,1.4.7a.5.5,0,0,0,.3-.4c0-.1,0-.2-.2-.2h-.4c-.2.1-.3,0-.4,0l-.4-.3L20,8.5c0-.2.1-.1.4.1l.8.6h.7c.2-.1.2-.2.2-.4s-.1-.3-.4-.2a1.1,1.1,0,0,1-1.2-.4c-.3-.2-.3-.4-.3-.4s.1-.1.5.1a1.3,1.3,0,0,0,.9.3H22c.2-.2.2-.4.1-.5h-.8a1.3,1.3,0,0,1-1-.3c-.1-.2-.2-.3-.1-.4h.2l.8.2a.8.8,0,0,0,.7-.2q.3-.1.3-.3h0c-.1-.2-.2-.2-.5,0s-.8.3-1.1.1l-.5-.4h0c.1-.1.1-.1.5.1h.5a.7.7,0,0,0,.6-.1.7.7,0,0,0,.5-.6c0-.1,0-.2-.1-.2s-.2,0-.3.2a1.7,1.7,0,0,1-1,.3c-.4,0-.6,0-.6-.2s.1-.2.3-.2A3.5,3.5,0,0,0,22,4.8c.2-.2.3-.3.3-.5s-.1-.3-.2-.3-.3,0-.4.2a1.9,1.9,0,0,1-.8.7l-.7.3V5h-.3l-.6.2c-.4.1-.5.2-.6.4s-.1.1-.1.4v.4h-.3a.4.4,0,0,1-.4-.4,1.3,1.3,0,0,1,.1-.6l.5-.5.7-.2.7-.3c-.3.1-.6,0-.6-.1h1c.2-.1.3-.2.2-.3s-.1,0-.2,0-.1.1-.1.2h-.4a.2.2,0,0,1-.3,0h0c0-.1.1-.1.1-.2h.4c0-.1,0-.1-.1-.1s-.1-.2-.4-.2-.3,0-.3-.1h-.2l-.7.2h-.9c0,.1.2.2.3.3h.1c0,.1-.2.2-.3.2s-.1.1,0,.2h.1l-.4.3c-.1,0-.1.1.1.1s.1.1,0,.1-.2.2-.2.1-.1.1-.1.2h-.2c-.1-.1-.1-.1,0-.1s0-.2-.1-.2-.1,0-.2-.1-.1-.1,0-.1h.1a.4.4,0,0,1-.4-.3h.1c.1-.1.1-.1,0-.2s-.3-.1-.3-.2H16c.1-.1.3-.2.3-.3h-.9l-.7-.2h-.5c-.3,0-.4,0-.4.2s-.1,0-.1.1H14l.2.2h0c-.1.1-.2.1-.4,0h-.3c0-.1-.1-.1-.1-.2s-.2-.1-.2,0,0,.2.1.3h1.1c0,.1-.3.2-.6.1l.6.3.8.2.4.5a1.4,1.4,0,0,1,.2.6.4.4,0,0,1-.4.4h-.3C15,6.3,15,6.3,15,6V5.6c-.1-.2-.2-.3-.6-.4L13.8,5h-.3c0,.1-.1.1-.1.2l-.7-.3a1.9,1.9,0,0,1-.8-.7c-.2-.2-.2-.3-.4-.2s-.2.1-.2.3.1.3.3.5a3.5,3.5,0,0,0,1.5.7c.2,0,.3.1.3.2s-.2.2-.6.2a1.5,1.5,0,0,1-1-.3l-.3-.2c-.1,0-.1.1-.1.2a.7.7,0,0,0,.5.6.6.6,0,0,0,.6.1H13c.4-.2.4-.2.5-.1h0l-.5.4a1.1,1.1,0,0,1-1.1-.1c-.3-.2-.4-.2-.5,0h0q0,.1.3.3a.8.8,0,0,0,.7.2,1.1,1.1,0,0,0,.7-.2h.3c.1.1,0,.2-.2.4a1.1,1.1,0,0,1-1,.3h-.7c-.1.1-.1.3.1.5H12a1.1,1.1,0,0,0,.8-.3c.5-.2.6-.2.6-.1l-.3.4a1.1,1.1,0,0,1-1.2.4c-.4-.1-.5,0-.5.2s.1.3.3.4h.7l.8-.6c.3-.2.4-.3.4-.1l-.7.9-.4.3c-.1,0-.2.1-.4,0h-.4c-.2,0-.3.1-.3.2l.4.4c.4.1.9-.1,1.4-.7s.5-.4.2.1a1.7,1.7,0,0,1-.9,1.1h-.9v.2a.8.8,0,0,0,1.1,0A4.4,4.4,0,0,0,13.9,10c.2-.3.3-.3.3-.2s.1,0,0,.2a1,1,0,0,1-.5.8c-.2.1-.2.2-.2.3a.4.4,0,0,0,.5.1,3.6,3.6,0,0,0,.6-1l.2-.3c.2,0,.2.4-.1.7s-.1.2,0,.2H15a.7.7,0,0,0,.4-.5c.1-.2.2-.2.1.2a2.6,2.6,0,0,1-1.2,1.1h0V12l-.7.3h-.6l-.4-.3c-.1-.2-.3-.3-.4-.2h-.2a.4.4,0,0,0-.4.3h1l.3.2H11.4l-.2.2h1.7c.1,0,0,0-.1.1h-.4l-.4.2v.2c-.1.1-.1.1,0,.4v-.2h.2c.2-.1.3-.1.3-.3l.3-.2c.4-.2.3-.2.7-.1l.3.2c0,.1.1.2.2.1h.3c0,.1,0,.1.1.1h0a.4.4,0,0,0-.1-.3c-.2-.1-.3-.2-.4-.1h-.4l.6-.2.5-.2h0l.5.2h.1l.5-1c.3-.4.4-.5.5-.4s.1.1.1.3a2.8,2.8,0,0,1-.6,1.4l-.6.3h-.4l.2.2h.9c0,.2-.2.3-.5.3s-.4.2-.3.3l.3.2.6-.3h.2c.1,0,.1.2,0,.3l-.3.3h-.2c-.3.1-.3.2-.1.3a.4.4,0,0,0,.5,0l.4-.4h.1l-.2.4a.6.6,0,0,0,.1.7q.2.3.3.3l.3-.3a.6.6,0,0,0,.1-.7l-.2-.4h.1a.8.8,0,0,0,.4.4.4.4,0,0,0,.5,0c.2-.1.1-.2-.1-.3h-.2l-.3-.3c-.1-.1-.1-.3,0-.3h.2c.2.2.3.3.5.3l.4-.2q.2-.2-.3-.3c-.3,0-.5-.1-.5-.3s-.1-.1,0-.1h.8c.1,0,.2-.2.2-.2h-.3l-.6-.3a2.8,2.8,0,0,1-.6-1.4V11c.2-.1.3,0,.6.4a9.3,9.3,0,0,0,.5,1h.1l.4-.2h.1l.5.2.5.2c.1,0,.1,0-.1.1h-.2c-.1-.1-.2,0-.4.1a.4.4,0,0,0-.1.3h.3c.2.1.3,0,.3-.1l.3-.2c.3-.1.3-.1.6.1l.4.2c0,.2.1.2.3.3h.2v.2c.1-.3.1-.3,0-.4v-.2l-.4-.2h1.1v-.2M18.6,4.2c.1,0,0-.1.1-.1h.1c.1,0,.1.1,0,.2s-.3.1-.3,0,0,0,.1-.1m-3.5.1c0,.1-.3,0-.4,0s0-.2.1-.2h.1c.1,0,0,.1.1.1s.2-.1.1.1"/></g></g></svg>