<svg xmlns="http://www.w3.org/2000/svg" xmlns:xlink="http://www.w3.org/1999/xlink" viewBox="0 0 33.6 19.6"><defs><clipPath id="a"><rect width="33.6" height="19.58" fill="none"/></clipPath></defs><title>ARG</title><g clip-path=""><rect y="6.5" width="33.6" height="6.53" fill="#fff"/><rect width="33.6" height="6.53" fill="#80a7d8"/><rect y="13.1" width="33.6" height="6.52" fill="#80a7d8"/><g clip-path=""><path d="M16.6,9.8v2.7h.1V9.8Z" fill="#f1bd51"/><path d="M16.8,12.5h0V9.8h0v2.7h.1v0Z" fill="#7a361d"/><polygon points="16.7 9.8 16.8 11.6 16.8 9.8 16.7 9.8" fill="#7a361d"/><path d="M16.5,10.6c-.2.3,0,.6-.2.9a1.1,1.1,0,0,0-.1.7c0,.1-.1.2-.1.2s.1,0,.2-.2-.1-.3.1-.6,0-.5.2-.8Z" fill="#f1bd51"/><path d="M16.2,12.4h0v-.2a.6.6,0,0,0,0-.1.9.9,0,0,1,.1-.5,1,1,0,0,0,.1-.4,1.1,1.1,0,0,1,.1-.5h0a1.1,1.1,0,0,0-.1.5,1,1,0,0,1-.1.4.9.9,0,0,0-.1.5h0v.2h0l.2-.2a.5.5,0,0,0,0-.2.8.8,0,0,1,.1-.5,1,1,0,0,0,.1-.4.8.8,0,0,1,.1-.4,1,1,0,0,0-.1.4,1,1,0,0,1-.1.4.9.9,0,0,0-.1.5.6.6,0,0,1,0,.2l-.2.2Z" fill="#7a361d"/><path d="M16.6,10.7c-.1.3,0,.6-.2.8s.1-.5.2-.8Z" fill="#7a361d"/><path d="M16.9,9.8V7.1h-.1V9.8Z" fill="#f1bd51"/><path d="M16.9,9.8V7.1h-.1v0h.1V9.8Z" fill="#7a361d"/><polygon points="16.8 9.8 16.8 8 16.7 9.8 16.8 9.8" fill="#7a361d"/><path d="M17,8.9c.2-.3,0-.6.2-.9a1.1,1.1,0,0,0,.1-.7c0-.1.1-.2.1-.2s-.1,0-.2.2.1.3-.1.6,0,.5-.2.8Z" fill="#f1bd51"/><path d="M17,8.9h0a1.2,1.2,0,0,0,.1-.5,1,1,0,0,1,.1-.4.9.9,0,0,0,.1-.5c0-.1,0-.1,0-.1V7.2h0l-.2.2a.4.4,0,0,0,0,.2.8.8,0,0,1-.1.5,1,1,0,0,0-.1.4.8.8,0,0,1-.1.4,1,1,0,0,0,.1-.4,1,1,0,0,1,.1-.4.8.8,0,0,0,.1-.5.6.6,0,0,1,0-.2l.2-.2h0a.6.6,0,0,0,0,.1.9.9,0,0,1-.1.5.9.9,0,0,0-.1.4,1.1,1.1,0,0,1-.1.5Z" fill="#7a361d"/><path d="M17,8.8c.1-.3,0-.6.2-.8s-.1.5-.2.8Z" fill="#7a361d"/><path d="M16.8,9.7h0Z" fill="#f1bd51"/><path d="M16.8,9.9h0Z" fill="#7a361d"/><polygon points="16.8 9.7 14.9 9.8 16.8 9.9 16.8 9.7" fill="#7a361d"/><path d="M15.9,9.5,15,9.4a1.2,1.2,0,0,0-.7-.1h-.2s0,.1.2.2.3-.1.6.1l.8.2Z" fill="#f1bd51"/><path d="M15.8,9.7H14.4l-.2-.2h0l.2.2h1.5Z" fill="#7a361d"/><path d="M15.8,9.6c-.3-.1-.6,0-.8-.2s.5.1.8.2Z" fill="#7a361d"/><path d="M16.8,9.9h0Z" fill="#f1bd51"/><path d="M16.8,9.9h0Z" fill="#7a361d"/><polygon points="16.8 9.9 18.6 9.8 16.8 9.7 16.8 9.9" fill="#7a361d"/><path d="M17.6,10l.9.2a1.2,1.2,0,0,0,.7.1h.2s0-.1-.2-.2-.3.1-.6-.1-.5,0-.8-.2Z" fill="#f1bd51"/><path d="M19.4,10.4h0l-.2-.2h0l.2.2h0Z" fill="#7a361d"/><path d="M17.7,10c.3.1.6,0,.8.2s-.5-.1-.8-.2Z" fill="#7a361d"/><path d="M16.7,9.7l-1.8,2s0,0,0,.1h.1l2-1.8Z" fill="#f1bd51"/><path d="M14.9,11.7a.1.1,0,0,1,0-.1l1.8-2h0l-1.8,2h0l2-1.8-1.9,1.8Z" fill="#7a361d"/><polygon points="16.7 9.7 15.5 11.1 16.8 9.8 16.7 9.7" fill="#7a361d"/><path d="M16,10.2c-.3.1-.4.4-.8.5a1.2,1.2,0,0,0-.5.4h.1c.2-.1.2-.2.5-.4s.4-.3.8-.4Z" fill="#f1bd51"/><path d="M14.6,11.3h.2a.9.9,0,0,1,.4-.3l.4-.2.4-.3h0l-.4.3-.4.2a.9.9,0,0,0-.4.3h.1l.4-.3.4-.2.4-.2-.4.2-.4.2-.4.3h-.3Z" fill="#7a361d"/><path d="M16,10.3c-.3.2-.4.4-.7.5s.4-.3.7-.4Z" fill="#7a361d"/><path d="M16.9,9.9l1.8-2s0,0,0-.1h-.1l-2,1.8Z" fill="#f1bd51"/><path d="M16.9,9.9h0l1.8-2h0l-2,1.8,2-1.8h.1s0,.1,0,.1l-1.8,2Z" fill="#7a361d"/><polygon points="16.8 9.8 18.1 8.5 16.7 9.7 16.8 9.8" fill="#7a361d"/><path d="M17.6,9.4c.3-.1.4-.4.8-.5a1.2,1.2,0,0,0,.5-.4h-.1c-.2.1-.2.2-.5.4s-.4.3-.8.4Z" fill="#f1bd51"/><path d="M17.6,9.4h0l.4-.3.4-.2.4-.3h-.1l-.4.3-.4.2-.4.2.4-.2.4-.2.4-.3h.1a.9.9,0,0,1-.4.3l-.4.2-.4.3Z" fill="#7a361d"/><path d="M17.6,9.3c.3-.2.4-.4.7-.5s-.4.3-.7.4Z" fill="#7a361d"/><path d="M16.9,9.7l-2-1.8h-.1s0,.1,0,.1l1.8,2Z" fill="#f1bd51"/><path d="M16.7,9.9l-1.8-2s0,0,0-.1h.1l2,1.8h0l-2-1.8h0l1.8,2Z" fill="#7a361d"/><polygon points="16.8 9.7 15.5 8.5 16.7 9.8 16.8 9.7" fill="#7a361d"/><path d="M16.3,9c-.1-.3-.4-.4-.5-.8a1.2,1.2,0,0,0-.4-.5c-.1-.1,0-.2-.1-.2s-.1.1,0,.3.2.2.4.5.3.4.4.8Z" fill="#f1bd51"/><path d="M16.2,9.1l-.2-.4-.2-.4a.8.8,0,0,0-.3-.4h-.1a.3.3,0,0,1,0-.3h.1v.2h.1a.9.9,0,0,1,.3.4l.2.4.3.4h0l-.3-.4-.2-.4a.9.9,0,0,0-.3-.4h-.1V7.6h0a.2.2,0,0,0,0,.3h.1a.9.9,0,0,1,.3.4l.2.4.2.4Z" fill="#7a361d"/><path d="M16.3,9c-.2-.3-.4-.4-.5-.7s.3.4.4.7Z" fill="#7a361d"/><path d="M16.7,9.9l2,1.8h.1s0-.1,0-.1l-1.8-2Z" fill="#f1bd51"/><path d="M18.7,11.7h0l-2-1.8h0l2,1.8h0l-1.8-2,1.8,1.9s0,0,0,.1Z" fill="#7a361d"/><polygon points="16.7 9.8 18.1 11.1 16.8 9.7 16.7 9.8" fill="#7a361d"/><path d="M17.2,10.6c.1.3.4.4.5.8a1.2,1.2,0,0,0,.4.5c.1.1,0,.2.1.2s.1-.1,0-.3-.2-.2-.4-.5-.3-.4-.4-.8Z" fill="#f1bd51"/><path d="M18.2,12.1h0v-.2H18a.9.9,0,0,1-.3-.4l-.2-.4-.3-.4h0l.3.4.2.4a.9.9,0,0,0,.3.4h.1V12h0a.2.2,0,0,0,0-.3h-.1a.8.8,0,0,1-.3-.4l-.2-.4-.2-.4.2.4.2.4a.8.8,0,0,0,.3.4h.1a.3.3,0,0,1,0,.3Z" fill="#7a361d"/><path d="M17.3,10.6c.2.3.4.4.5.7s-.3-.4-.4-.7Z" fill="#7a361d"/><path d="M16.7,9.7l-.9,2.5s0,0,0,.1h.1l1.1-2.4Z" fill="#f1bd51"/><path d="M15.8,12.3h0l.9-2.5h0l-.9,2.5s0,0,0,0h0l1.1-2.4-1.1,2.4Z" fill="#7a361d"/><polygon points="16.7 9.8 16.1 11.5 16.8 9.8 16.7 9.8" fill="#7a361d"/><path d="M16.2,10.5c-.3.3-.3.6-.5.8a1.2,1.2,0,0,0-.3.6l-.2.2h.3c.1-.1.1-.3.4-.5s.2-.5.5-.7Z" fill="#f1bd51"/><path d="M15.3,12h.2a.9.9,0,0,1,.3-.5l.2-.4.3-.4h0l-.3.4-.2.4a.9.9,0,0,0-.3.5h.1a.9.9,0,0,1,.3-.4l.3-.4.3-.3-.2.3-.3.4a.8.8,0,0,0-.3.4v.2Z" fill="#7a361d"/><path d="M16.2,10.6c-.2.3-.2.5-.5.7s.2-.4.5-.7Z" fill="#7a361d"/><path d="M16.9,9.8l.9-2.5s0,0,0-.1h0L16.7,9.7Z" fill="#f1bd51"/><path d="M16.9,9.8h0l.9-2.5s0,0,0,0h0L16.7,9.7l1.1-2.4h.1a.1.1,0,0,1,0,0l-.9,2.5Z" fill="#7a361d"/><polygon points="16.8 9.8 17.5 8.1 16.7 9.8 16.8 9.8" fill="#7a361d"/><path d="M17.3,9.1c.3-.3.3-.6.5-.8a1.1,1.1,0,0,0,.3-.6l.2-.2h-.3c-.1.1-.1.3-.4.5s-.2.5-.5.7Z" fill="#f1bd51"/><path d="M17.3,9.1h0l.3-.4.3-.4a.9.9,0,0,0,.3-.5H18a.8.8,0,0,1-.3.4l-.3.4-.3.3.2-.3.3-.4a.8.8,0,0,0,.3-.4V7.7h.1a.9.9,0,0,1-.3.5l-.2.4-.3.4Z" fill="#7a361d"/><path d="M17.3,9c.2-.3.2-.5.5-.7s-.2.4-.5.7Z" fill="#7a361d"/><path d="M16.8,9.7l-2.5-.9h0l2.4,1.1Z" fill="#f1bd51"/><path d="M16.7,9.9,14.3,8.8h0l2.5.9h0l-2.5-.9h0l2.4,1.1Z" fill="#7a361d"/><polygon points="16.8 9.7 15.1 9.1 16.8 9.8 16.8 9.7" fill="#7a361d"/><path d="M16.1,9.2c-.3-.3-.6-.3-.8-.5a1.2,1.2,0,0,0-.6-.3l-.2-.2s0,.1.1.3.3.1.5.4.5.2.7.5Z" fill="#f1bd51"/><path d="M15.9,9.4l-.3-.2-.4-.3-.4-.3h-.2V8.3h.3l.5.3.4.2.4.3h0L15.7,9l-.4-.2-.5-.3h-.3c0,.1,0,.2.1.2h.1l.4.3.4.3.3.3Z" fill="#7a361d"/><path d="M16,9.2c-.3-.2-.5-.2-.7-.5s.4.2.7.5Z" fill="#7a361d"/><path d="M16.7,9.9l2.5.9h0L16.8,9.7Z" fill="#f1bd51"/><path d="M19.3,10.9h0l-2.5-.9h0l2.5.9h0L16.8,9.7l2.4,1.1h0Z" fill="#7a361d"/><polygon points="16.8 9.8 18.5 10.5 16.8 9.7 16.8 9.8" fill="#7a361d"/><path d="M17.5,10.4c.3.3.6.3.8.5a1.1,1.1,0,0,0,.6.3l.2.2s0-.1-.1-.3-.3,0-.5-.4-.5-.2-.7-.5Z" fill="#f1bd51"/><path d="M19,11.3h-.3l-.5-.3-.4-.2-.4-.3h0l.4.3.4.2.5.3H19c0-.1,0-.2-.1-.2h-.2l-.4-.3-.4-.3-.3-.3.3.2.4.3.4.3h.2a.3.3,0,0,1,.1.2h0Z" fill="#7a361d"/><path d="M17.6,10.3c.3.2.5.2.7.5s-.4-.2-.7-.5Z" fill="#7a361d"/><path d="M16.7,9.7l-2.4,1.1h0l2.5-.9Z" fill="#f1bd51"/><path d="M14.3,10.9h0l2.4-1.1h0l-2.4,1.1h0l2.5-.9-2.5.9Z" fill="#7a361d"/><polygon points="16.8 9.7 15.1 10.5 16.8 9.8 16.8 9.7" fill="#7a361d"/><path d="M15.9,9.9l-.9.2a1.2,1.2,0,0,0-.6.2h0c.2,0,.2-.2.6-.1h.9Z" fill="#f1bd51"/><path d="M14.3,10.4h0Z" fill="#7a361d"/><path d="M15.8,10c-.4,0-.5.2-.8.2s.5-.1.8-.1Z" fill="#7a361d"/><path d="M16.8,9.9l2.4-1.1h0l-2.5.9Z" fill="#f1bd51"/><path d="M16.8,9.9h0l2.4-1.1h0l-2.5.9,2.5-.9h0L16.8,9.9Z" fill="#7a361d"/><polygon points="16.8 9.8 18.5 9.1 16.8 9.7 16.8 9.8" fill="#7a361d"/><path d="M17.7,9.7l.9-.2a1.2,1.2,0,0,0,.6-.2h0c-.2,0-.2.2-.6.1h-.9Z" fill="#f1bd51"/><path d="M17.7,9.7h0Z" fill="#7a361d"/><path d="M17.7,9.6c.4,0,.5-.2.8-.2s-.5.1-.8.1Z" fill="#7a361d"/><path d="M16.9,9.7,15.8,7.3h-.1s0,.1,0,.1l.9,2.5Z" fill="#f1bd51"/><path d="M16.7,9.8l-.9-2.5a.1.1,0,0,1,0,0h.1l1.1,2.4h0L15.8,7.3h0l.9,2.5Z" fill="#7a361d"/><polygon points="16.8 9.8 16.1 8.1 16.7 9.8 16.8 9.8" fill="#7a361d"/><path d="M16.7,8.9c0-.4-.2-.6-.2-.9a1.2,1.2,0,0,0-.2-.6c0-.1,0-.2,0-.2s-.1.1-.1.3.2.2.1.6.2.5.1.9Z" fill="#f1bd51"/><path d="M16.7,8.9h0a1.2,1.2,0,0,0-.1-.5,1,1,0,0,1-.1-.4.8.8,0,0,0-.1-.5h-.1a.3.3,0,0,1,0-.2h0c-.1,0-.1.1-.1.3v.2a.8.8,0,0,1,.1.5,1,1,0,0,0,.1.4.9.9,0,0,1,.1.4,1.1,1.1,0,0,0-.1-.4,1,1,0,0,1-.1-.4.8.8,0,0,0-.1-.5V7.4a.3.3,0,0,1,.1-.3h0s0,0,0,.1a.2.2,0,0,0,0,.2h.1a.9.9,0,0,1,.1.5.9.9,0,0,0,.1.4,1.2,1.2,0,0,1,.1.5Z" fill="#7a361d"/><path d="M16.6,8.8c0-.4-.2-.5-.2-.8s.1.5.1.8Z" fill="#7a361d"/><path d="M16.7,9.8l1.1,2.4h0s0-.1,0-.1l-.9-2.5Z" fill="#f1bd51"/><path d="M17.8,12.3h-.1L16.6,9.8h0l1.1,2.4h0s0,0,0,0l-.9-2.5.9,2.5s0,.1,0,.1Z" fill="#7a361d"/><polygon points="16.7 9.8 17.5 11.5 16.8 9.8 16.7 9.8" fill="#7a361d"/><path d="M16.9,10.7c0,.4.2.6.2.9a1.2,1.2,0,0,0,.2.6c0,.1,0,.2,0,.2s.1-.1.1-.3-.2-.2-.1-.6-.2-.5-.1-.9Z" fill="#f1bd51"/><path d="M17.2,12.5s0,0,0-.1a.2.2,0,0,0,0-.2h-.1a.9.9,0,0,1-.1-.5.9.9,0,0,0-.1-.4,1.2,1.2,0,0,1-.1-.5h0a1.2,1.2,0,0,0,.1.5.9.9,0,0,1,.1.4.9.9,0,0,0,.1.5h.1a.2.2,0,0,1,0,.2s0,0,0,0a.2.2,0,0,0,.1-.3V12a.9.9,0,0,1-.1-.5,1,1,0,0,0-.1-.4.9.9,0,0,1-.1-.4,1.1,1.1,0,0,0,.1.4,1,1,0,0,1,.1.4.8.8,0,0,0,.1.5v.2a.3.3,0,0,1-.1.3Z" fill="#7a361d"/><path d="M16.9,10.7c0,.4.2.5.2.8s-.1-.5-.1-.8Z" fill="#7a361d"/><path d="M16.8,8.7a1.1,1.1,0,1,1-1.1,1.1,1.1,1.1,0,0,1,1.1-1.1Z" fill="#f1bd51"/><path d="M16.8,10.9a1.1,1.1,0,1,1,1.1-1.1,1.1,1.1,0,0,1-1.1,1.1Zm0-2.2a1.1,1.1,0,1,0,1.1,1.1,1.1,1.1,0,0,0-1.1-1.1Z" fill="#7a361d"/><path d="M17.5,9.6a.4.4,0,0,0-.6-.1.3.3,0,0,0,0,.4h0a.6.6,0,0,1,0-.5.4.4,0,0,1,.6.1Z" fill="#7a361d"/><path d="M17.2,9.5h0Z" fill="#7a361d"/><path d="M17.4,9.6a.2.2,0,0,0-.4,0h0c.1-.1.3-.1.3,0h.1Z" fill="#7a361d"/><path d="M17.2,9.6h0Z" fill="#7a361d"/><path d="M17,9.7h0Z" fill="#7a361d"/><path d="M17.4,9.7h0Z" fill="#7a361d"/><path d="M17,9.9h0a.1.1,0,0,0,0-.1Z" fill="#7a361d"/><path d="M17.1,10.3h0Z" fill="#7a361d"/><path d="M17,10.3h0Z" fill="#7a361d"/><path d="M17.1,10.3h0Z" fill="#7a361d"/><path d="M16.9,10.6h0Z" fill="#7a361d"/><path d="M16.1,9.6a.4.4,0,0,1,.6-.1.4.4,0,0,1,0,.4h0a.6.6,0,0,0,0-.5.4.4,0,0,0-.6.1Z" fill="#7a361d"/><path d="M16.4,9.5h0Z" fill="#7a361d"/><path d="M16.2,9.6a.3.3,0,0,1,.4,0h0c-.1-.1-.3-.1-.3,0h-.1Z" fill="#7a361d"/><path d="M16.4,9.6h0Z" fill="#7a361d"/><path d="M16.6,9.7h0Z" fill="#7a361d"/><path d="M16.2,9.7h0Z" fill="#7a361d"/><path d="M16.6,9.9h0a.1.1,0,0,1,0-.1Z" fill="#7a361d"/><path d="M16.5,10.3h0Z" fill="#7a361d"/><path d="M16.5,10.3h0Z" fill="#7a361d"/><path d="M16.5,10.3h0Z" fill="#7a361d"/><path d="M16.6,10.6h0Z" fill="#7a361d"/></g></g></svg>