<svg xmlns="http://www.w3.org/2000/svg" xmlns:xlink="http://www.w3.org/1999/xlink" viewBox="0 0 33.6 19.6"><defs><clipPath id="a"><rect width="33.6" height="19.58" fill="none"/></clipPath></defs><title>BIH</title><g clip-path=""><rect width="33.6" height="19.58" fill="#250392"/><polygon points="7.6 0 27.2 19.6 27.2 0 7.6 0" fill="#f5cc28"/><polygon points="4.7 0 4.1 0 3.4 0 3 1.3 4.1 0.5 5.1 1.3 4.7 0" fill="#fff"/><polygon points="23.2 18.8 21.9 18.8 23 19.6 23.6 19.6 24.3 19.6 25.4 18.8 24.1 18.8 23.6 17.5 23.2 18.8" fill="#fff"/><polygon points="6.5 2.9 7.6 3.7 7.2 2.4 8.3 1.7 6.9 1.7 6.5 0.4 6.1 1.7 4.7 1.7 5.8 2.4 5.4 3.7 6.5 2.9" fill="#fff"/><polygon points="8.9 5.4 10 6.2 9.6 4.9 10.7 4.1 9.4 4.1 8.9 2.8 8.5 4.1 7.2 4.1 8.3 4.9 7.9 6.2 8.9 5.4" fill="#fff"/><polygon points="11.4 7.8 12.5 8.6 12.1 7.3 13.2 6.6 11.8 6.6 11.4 5.3 11 6.6 9.6 6.6 10.7 7.3 10.3 8.6 11.4 7.8" fill="#fff"/><polygon points="13.8 10.3 14.9 11.1 14.5 9.8 15.6 9 14.3 9 13.8 7.7 13.4 9 12.1 9 13.2 9.8 12.8 11.1 13.8 10.3" fill="#fff"/><polygon points="16.3 12.7 17.4 13.5 17 12.2 18.1 11.4 16.7 11.4 16.3 10.2 15.9 11.4 14.5 11.4 15.6 12.2 15.2 13.5 16.3 12.7" fill="#fff"/><polygon points="18.7 15.2 19.8 16 19.4 14.7 20.5 13.9 19.2 13.9 18.7 12.6 18.3 13.9 17 13.9 18.1 14.7 17.6 16 18.7 15.2" fill="#fff"/><polygon points="21.2 17.6 22.3 18.4 21.9 17.1 23 16.3 21.6 16.3 21.2 15.1 20.8 16.3 19.4 16.3 20.5 17.1 20.1 18.4 21.2 17.6" fill="#fff"/></g></svg>