<?xml version="1.0" encoding="utf-8"?>
<!-- Generator: Adobe Illustrator 23.0.1, SVG Export Plug-In . SVG Version: 6.00 Build 0)  -->
<svg version="1.1" id="Layer_1" xmlns="http://www.w3.org/2000/svg" xmlns:xlink="http://www.w3.org/1999/xlink" x="0px" y="0px"
	 viewBox="0 0 33.6 19.6" enable-background="new 0 0 33.6 19.6" xml:space="preserve">
<g>
	<rect x="-0.1" y="-0.2" fill="#CE1720" width="39.8" height="19.9"/>
	<path fill="#FFFFFF" d="M0.1-0.2h4.4v19.9H0.1V-0.2z"/>
	<path id="b_1_" fill="#CE1720" d="M2.4-0.2v0.7H2.2v-0.7H2.4z M-0.1,1h0.3V0.7h0.2V0.4h0.2V0.1h0.2v-0.3h0.6v0.3h0.2v0.3H2v0.3h0.2
		V1h0.3v0.4H2.1v0.3H2v0.3H1.7v0.3H1.5v0.3H1.4V3H1.1V2.7H0.9V2.4H0.7V2.1H0.5V1.8H0.3V1.5h-0.3 M-0.1-0.1h0.3v0.4h-0.3 M1.3,0.4
		H1.1v0.3H0.9v0.3H0.8v0.4h0.2v0.3h0.2v0.3h0.2V1.8h0.2V1.5h0.2V1.1H1.5V0.7H1.3V0.4z M1.3,1.1v0.4H1.1V1.1H1.3z M-0.1,2.1h0.3v0.4
		h-0.3 M2.4,2.1v0.6H2.2V2.1H2.4z M1.9,2.8v0.3h0.2v0.3h0.3v0.4H2.2v0.3H1.9v0.3H1.7V4.1H1.5V3.8H1.3V3.4h0.2V3.1h0.2V2.8H1.9z
		 M-0.1,3.4h0.3V3.1h0.2V2.8h0.2v0.3h0.2v0.3h0.2v0.4H0.9v0.3H0.7v0.3H0.5V4.1H0.3V3.8h-0.3 M1.9,3.4H1.7v0.4h0.2V3.4z M0.7,3.4H0.5
		v0.4h0.2V3.4z M0.8,9.8V9.6H0.6V9.3H0.4V9.1H0.3V8.8h-0.3V8.1h0.3v0.2h0.2v0.3h0.2v0.4h0.3V8.6h0.2V8.4h0.2V8.1h0.2V7.8h0.1V7.5
		h0.1V7.2h0.2V6.8H1.7V6.4H1.4V6.2H1v0.3h0.3v0.3H1.1v0.4H0.8v0.3H0.6V7.2H0.4V6.8H0.2V6.5h-0.3V5.9h0.3V5.6h0.1V5.3h0.1V5h0.2V4.7
		h0.2V4.5h0.2V4.1h0.3v0.3h0.2v0.2h0.2V5h0.2v0.3H2v0.3h0.1v0.2h0.2v1.8H2.2v0.3H2.1v0.3H1.9v0.3H1.8v0.2H1.6v0.2H1.4v0.2H1.1v0.6
		 M2.4,4.4V5H2.2V4.4H2.4z M-0.1,4.6h0.3V5h-0.3 M-0.1,7.1h0.3v0.4h-0.3V7.1z M2.4,8.2v0.4H2.2V8.2H2.4z M2.2,9.8V9.6H2V9.4H1.9V8.8
		H2V9h0.2v0.3h0.2v0.4 M1.5,9.8V9.5h0.2v0.3"/>
	<path fill="#CE1720" d="M2.2-0.2v0.7h0.2v-0.7H2.2z M4.7,1H4.4V0.7H4.2V0.4H3.9V0.1H3.7v-0.3H3.1v0.3H2.9v0.3H2.7v0.3H2.5V1H2.2
		v0.4h0.3v0.3h0.2v0.3h0.2v0.3h0.2v0.3h0.1V3h0.3V2.7h0.1V2.4h0.2V2.1h0.2V1.8h0.2V1.5h0.3 M4.7-0.1H4.4v0.4h0.3 M3.3,0.4h0.2v0.3
		h0.2v0.3h0.2v0.4H3.7v0.3H3.5v0.3H3.3V1.8H3.2V1.5H3V1.1h0.2V0.7h0.2V0.4z M3.3,1.1v0.4h0.2V1.1H3.3z M4.7,2.1H4.4v0.4h0.3
		 M2.2,2.1v0.6h0.2V2.1H2.2z M2.7,2.8v0.3H2.5v0.3H2.2v0.4h0.3v0.3h0.2v0.3h0.2V4.1h0.2V3.8h0.2V3.4H3.2V3.1H2.9V2.8H2.7z M4.7,3.4
		H4.4V3.1H4.1V2.8H3.9v0.3H3.7v0.3H3.5v0.4h0.2v0.3h0.2v0.3h0.2V4.1h0.2V3.8h0.3 M2.7,3.4h0.2v0.4H2.7V3.4z M3.9,3.4h0.2v0.4H3.9
		V3.4z M3.9,9.8V9.6H4V9.3h0.2V9.1h0.2V8.8h0.3V8.1H4.4v0.2H4.2v0.3H4v0.4H3.7V8.6H3.5V8.4H3.4V8.1H3.2V7.8H3V7.5H2.9V7.2H2.7V6.8
		h0.3V6.4h0.3V6.2h0.5v0.3H3.4v0.3h0.2v0.4h0.2v0.3h0.3V7.2h0.2V6.8h0.1V6.5h0.3V5.9H4.4V5.6H4.2V5.3H4.1V5H3.9V4.7H3.8V4.5H3.5V4.1
		H3.3v0.3H3.1v0.2H2.9V5H2.7v0.3H2.6v0.3H2.5v0.2H2.2v1.8h0.3v0.3h0.1v0.3h0.2v0.3h0.1v0.2H3v0.2h0.2v0.2h0.3v0.6 M2.2,4.4V5h0.2
		V4.4H2.2z M4.7,4.6H4.4V5h0.3 M4.7,7.1H4.4v0.4h0.3V7.1z M2.2,8.2v0.4h0.2V8.2H2.2z M2.5,9.8V9.6h0.1V9.4h0.2V8.8H2.6V9H2.4v0.3
		H2.2v0.4 M3.2,9.8V9.5H3v0.3"/>
	<path fill="#CE1720" d="M2.4,19.7v-0.7H2.2v0.7H2.4z M-0.1,18.4h0.3v0.3h0.2V19h0.2v0.3h0.2v0.3h0.6v-0.3h0.2V19H2v-0.3h0.2v-0.3
		h0.3V18H2.1v-0.3H2v-0.3H1.7V17H1.5v-0.3H1.4v-0.3H1.1v0.3H0.9V17H0.7v0.3H0.5v0.3H0.3V18h-0.3 M-0.1,19.5h0.3v-0.4h-0.3 M1.3,19
		H1.1v-0.3H0.9v-0.3H0.8V18h0.2v-0.3h0.2v-0.3h0.2v0.3h0.2V18h0.2v0.4H1.5v0.3H1.3V19z M1.3,18.4V18H1.1v0.4H1.3z M-0.1,17.3h0.3
		v-0.4h-0.3 M2.4,17.3v-0.6H2.2v0.6H2.4z M1.9,16.6v-0.3h0.2V16h0.3v-0.4H2.2v-0.3H1.9V15H1.7v0.3H1.5v0.3H1.3V16h0.2v0.3h0.2v0.3
		H1.9z M-0.1,16h0.3v0.3h0.2v0.3h0.2v-0.3h0.2V16h0.2v-0.4H0.9v-0.3H0.7V15H0.5v0.3H0.3v0.3h-0.3 M1.9,16H1.7v-0.4h0.2V16z M0.7,16
		H0.5v-0.4h0.2V16z M0.8,9.6v0.2H0.6v0.3H0.4v0.2H0.3v0.3h-0.3v0.7h0.3v-0.2h0.2v-0.3h0.2v-0.4h0.3v0.3h0.2v0.2h0.2v0.3h0.2v0.3h0.1
		v0.3h0.1v0.3h0.2v0.4H1.7V13H1.4v0.2H1v-0.3h0.3v-0.3H1.1v-0.4H0.8V12H0.6v0.3H0.4v0.4H0.2v0.3h-0.3v0.6h0.3v0.4h0.1v0.3h0.1v0.3
		h0.2v0.3h0.2V15h0.2v0.3h0.3V15h0.2v-0.2h0.2v-0.3h0.2v-0.3H2v-0.3h0.1v-0.2h0.2v-1.8H2.2v-0.3H2.1v-0.3H1.9V11H1.8v-0.2H1.6v-0.2
		H1.4v-0.2H1.1V9.6 M2.4,15v-0.6H2.2V15H2.4z M-0.1,14.9h0.3v-0.4h-0.3 M-0.1,12.3h0.3v-0.4h-0.3V12.3z M2.4,11.2v-0.4H2.2v0.4H2.4z
		 M2.2,9.6v0.2H2v0.2H1.9v0.6H2v-0.2h0.2v-0.3h0.2V9.6 M1.5,9.6v0.3h0.2V9.6"/>
	<path fill="#CE1720" d="M2.2,19.7v-0.7h0.2v0.7H2.2z M4.7,18.4H4.4v0.3H4.2V19H3.9v0.3H3.7v0.3H3.1v-0.3H2.9V19H2.7v-0.3H2.5v-0.3
		H2.2V18h0.3v-0.3h0.2v-0.3h0.2V17h0.2v-0.3h0.1v-0.3h0.3v0.3h0.1V17h0.2v0.3h0.2v0.3h0.2V18h0.3 M4.7,19.5H4.4v-0.4h0.3 M3.3,19
		h0.2v-0.3h0.2v-0.3h0.2V18H3.7v-0.3H3.5v-0.3H3.3v0.3H3.2V18H3v0.4h0.2v0.3h0.2V19z M3.3,18.4V18h0.2v0.4H3.3z M4.7,17.3H4.4v-0.4
		h0.3 M2.2,17.3v-0.6h0.2v0.6H2.2z M2.7,16.6v-0.3H2.5V16H2.2v-0.4h0.3v-0.3h0.2V15h0.2v0.3h0.2v0.3h0.2V16H3.2v0.3H2.9v0.3H2.7z
		 M4.7,16H4.4v0.3H4.1v0.3H3.9v-0.3H3.7V16H3.5v-0.4h0.2v-0.3h0.2V15h0.2v0.3h0.2v0.3h0.3 M2.7,16h0.2v-0.4H2.7V16z M3.9,16h0.2
		v-0.4H3.9V16z M3.9,9.6v0.2H4v0.3h0.2v0.2h0.2v0.3h0.3v0.7H4.4v-0.2H4.2v-0.3H4v-0.4H3.7v0.3H3.5v0.2H3.4v0.3H3.2v0.3H3v0.3H2.9
		v0.3H2.7v0.4h0.3V13h0.3v0.2h0.5v-0.3H3.4v-0.3h0.2v-0.4h0.2V12h0.3v0.3h0.2v0.4h0.1v0.3h0.3v0.6H4.4v0.4H4.2v0.3H4.1v0.3H3.9v0.3
		H3.8V15H3.5v0.3H3.3V15H3.1v-0.2H2.9v-0.3H2.7v-0.3H2.6v-0.3H2.5v-0.2H2.2v-1.8h0.3v-0.3h0.1v-0.3h0.2V11h0.1v-0.2H3v-0.2h0.2v-0.2
		h0.3V9.6 M2.2,15v-0.6h0.2V15H2.2z M4.7,14.9H4.4v-0.4h0.3 M4.7,12.3H4.4v-0.4h0.3V12.3z M2.2,11.2v-0.4h0.2v0.4H2.2z M2.5,9.6v0.2
		h0.1v0.2h0.2v0.6H2.6v-0.2H2.4v-0.3H2.2V9.6 M3.2,9.6v0.3H3V9.6"/>
	<path fill="#007C30" d="M4.5,13h35.1v6.6H4.5V13z"/>
</g>
</svg>
