<svg xmlns="http://www.w3.org/2000/svg" xmlns:xlink="http://www.w3.org/1999/xlink" viewBox="0 0 33.6 19.6"><defs><clipPath id="a" transform="translate(-199.9 -484.9)"><rect x="199.9" y="484.9" width="33.6" height="19.57" fill="none"/></clipPath><clipPath id="d" transform="translate(-199.9 -484.9)"><rect x="212.1" y="498.2" width="9.2" height="2.34" fill="none"/></clipPath><clipPath id="e" transform="translate(-199.9 -484.9)"><rect x="213.1" y="499.1" width="7" height="1.73" fill="none"/></clipPath></defs><title>BRN</title><g clip-path=""><g clip-path=""><rect width="33.6" height="19.57" fill="#f0e030"/><polygon points="0 6 33.6 14.1 33.6 9.5 0 1.4 0 6" fill="#fff"/><polygon points="0 10.1 33.6 18.2 33.6 14.1 0 6 0 10.1"/><rect x="16.6" y="8.2" width="0.4" height="0.94" fill="#bd0030"/><path d="M216.9,494.1h-.5v-1h.5v1Zm-.4-.1h.3v-.9h-.3v.9Z" transform="translate(-199.9 -484.9)"/><g clip-path=""><path d="M217.2,495.6v-1.5l.2-.3a.7.7,0,0,0-.5.4.3.3,0,1,0-.5.1c-.1-.3-.3-.5-.5-.5l.2.3v1.5Z" transform="translate(-199.9 -484.9)" fill="#bd0030"/><path d="M217.1,495.6a5.8,5.8,0,0,1,.1-1.5c0-.1,0-.1.1-.2s-.3.2-.3.4v0l-.3-.5-.2.5h-.1c0-.1-.1-.3-.2-.3h0a5.3,5.3,0,0,1,.1,1.5h-.1a4.2,4.2,0,0,0-.1-1.4c0-.2-.1-.2-.1-.3h0c.2,0,.3.1.4.3l.3-.5h.1a.8.8,0,0,1,.2.5l.5-.3h0c0,.1-.1.1-.1.3a13.8,13.8,0,0,0-.1,1.4Z" transform="translate(-199.9 -484.9)"/><path d="M217.2,497.2a5.8,5.8,0,0,1,.1-1.6c0-.3.1-.3.2-.4s-.4,0-.5.4a.9.9,0,0,0-.4-.6,1.6,1.6,0,0,0-.3.6.5.5,0,0,0-.5-.4c.1.1.2.1.2.4a5.8,5.8,0,0,1,.1,1.6Z" transform="translate(-199.9 -484.9)" fill="#bd0030"/><path d="M217.2,497.2v-1.9q-.2,0-.3.3v0a1.1,1.1,0,0,0-.3-.5c0,.1-.2.2-.2.5v0c-.1-.2-.2-.3-.4-.3l.2.2v1.7H216v-1.6l-.2-.3h0a.4.4,0,0,1,.5.2l.3-.4h.1l.3.4a.4.4,0,0,1,.5-.2h0c-.1,0-.1.1-.2.3v1.6Z" transform="translate(-199.9 -484.9)"/><path d="M217.4,497.6a.7.7,0,0,1,.1-.5.3.3,0,0,1,.1-.2.4.4,0,0,0-.6.3.9.9,0,0,0-.4-.6,1.6,1.6,0,0,0-.3.6.4.4,0,0,0-.6-.3.3.3,0,0,1,.1.2.7.7,0,0,1,.1.5Z" transform="translate(-199.9 -484.9)" fill="#bd0030"/><path d="M215.9,497.6h-.1v-.5c-.1,0-.1-.1-.1-.2h-.1c.3,0,.5,0,.7.3a1.1,1.1,0,0,1,.3-.5h.1a1.1,1.1,0,0,1,.3.5.6.6,0,0,1,.6-.3h0c0,.1,0,.2-.1.2v.5h-.1v-.5c.1-.1.1-.1.1-.2s-.3,0-.4.3v0c-.1-.3-.3-.5-.4-.5l-.3.5v0c-.2-.3-.3-.3-.6-.3l.2.2v.5Z" transform="translate(-199.9 -484.9)"/><rect x="16.6" y="6.3" width="0.3" height="0.74" fill="#bd0030"/><path d="M216.8,492.1h-.3v-.9h.3v.9Zm-.2-.1h.1v-.7h-.1v.7Z" transform="translate(-199.9 -484.9)"/><g clip-path=""><path d="M218.3,500.4c.1.1.4.1.8,0s.8-.9,2.1-.5a.7.7,0,0,0-.7-.5c0-.2.1-.4,0-.6s-.3.3-.4.4a.7.7,0,0,1-.2-.4c-.1-.5-.3-.6-.3-.5s-1.1,1.4-3,1.4a4.3,4.3,0,0,1-2.9-1.4c0-.1-.2,0-.3.5a.7.7,0,0,1-.2.4c-.1-.1-.3-.2-.4-.4s0,.4,0,.6a.7.7,0,0,0-.7.5c1.2-.4,1.3.4,2.1.5s.7.1.8,0Z" transform="translate(-199.9 -484.9)" fill="#bd0030"/><path d="M214.7,500.5h-.5c-.4-.1-.6-.2-.7-.4a1.5,1.5,0,0,0-1.4-.2H212a1.1,1.1,0,0,1,.8-.6.4.4,0,0,1,0-.5h.1q.2.3.3.3a.4.4,0,0,0,.2-.3c0-.4.2-.5.2-.6h.1c.1,0,.1,0,.2.2a3.7,3.7,0,0,0,2.7,1.2h0a3.4,3.4,0,0,0,2.7-1.2l.3-.2h.1c0,.1.2.2.2.6a.4.4,0,0,0,.2.3q.2,0,.3-.3h.1a.4.4,0,0,1,0,.5,1.1,1.1,0,0,1,.8.6h-.1a1.4,1.4,0,0,0-1.4.2c-.1.2-.3.3-.7.4a1.9,1.9,0,0,1-.8,0h.1a1.4,1.4,0,0,0,.7,0,1.5,1.5,0,0,0,.7-.3,1.1,1.1,0,0,1,1.3-.3.7.7,0,0,0-.6-.4h-.1a.9.9,0,0,0,.1-.5c-.1.2-.3.3-.4.4h0a.6.6,0,0,1-.3-.5c0-.4-.2-.5-.2-.5l-.2.2a4.3,4.3,0,0,1-2.8,1.2h0a3.9,3.9,0,0,1-2.8-1.3h-.1s-.2.1-.2.5a.4.4,0,0,1-.3.4h0a.5.5,0,0,1-.4-.3.9.9,0,0,0,.1.5h-.1a.7.7,0,0,0-.6.4,1.1,1.1,0,0,1,1.3.3,1.5,1.5,0,0,0,.7.3,1.2,1.2,0,0,0,.7,0h-.2Z" transform="translate(-199.9 -484.9)"/></g><g clip-path=""><path d="M214.4,500c-.5,0-1.3-.7-1.2-.8l.6.2a3.2,3.2,0,0,0,2.8,1.4,3.2,3.2,0,0,0,2.9-1.4l.6-.2c.1.1-.7.8-1.2.8Z" transform="translate(-199.9 -484.9)" fill="#bd0030"/><path d="M216.6,500.9a2.8,2.8,0,0,1-2.2-.8,2.1,2.1,0,0,1-1.3-.8c0-.1,0-.1.1-.1l.6.2.3.3a3,3,0,0,0,2.5,1.1h0a3,3,0,0,0,2.6-1.1l.3-.3c.3-.2.5-.3.6-.2h0c.1,0,.1,0,.1.1s-.9.8-1.3.8a2.9,2.9,0,0,1-2.3.8Zm3.5-1.7-.5.3-.4.3a.3.3,0,0,0-.1.2,2.2,2.2,0,0,0,.9-.7.1.1,0,0,0,.1-.1Zm-6.9,0a.1.1,0,0,0,.1.1,2.2,2.2,0,0,0,.9.7.3.3,0,0,0-.1-.2l-.4-.3-.5-.3Z" transform="translate(-199.9 -484.9)"/></g><path d="M213.8,493.2a3.8,3.8,0,1,0,5.7,0Zm.3.1a3,3,0,0,0,2.6,4.3,2.9,2.9,0,0,0,2.5-4.3Z" transform="translate(-199.9 -484.9)" fill="#bd0030"/><path d="M216.7,499.4h-.1a3.5,3.5,0,0,1-3.4-2.2,3.8,3.8,0,0,1,.5-4h.1a3.7,3.7,0,0,0-.5,3.9,3.5,3.5,0,0,0,3.3,2.2,3.4,3.4,0,0,0,3.4-2.1,3.8,3.8,0,0,0-.5-4h.1a3.8,3.8,0,0,1,.5,4,3.6,3.6,0,0,1-3.4,2.2Zm0-1.7a3.1,3.1,0,0,1-2.6-1.5,3.2,3.2,0,0,1,0-3h.1a3,3,0,0,0,0,2.9,2.9,2.9,0,0,0,2.5,1.4,2.7,2.7,0,0,0,2.4-1.4,3,3,0,0,0,0-2.9h.1a3.2,3.2,0,0,1,0,3,3.1,3.1,0,0,1-2.5,1.5Z" transform="translate(-199.9 -484.9)"/><path d="M217.3,499.9c.1,0,.2.2.2.3s-.2.2-.3.2h.2c.1-.1,0-.2-.1-.3s-.1-.1,0-.1Z" transform="translate(-199.9 -484.9)" fill="#f4d02e"/><path d="M217.2,500.4h.2a.1.1,0,0,1,.1-.1h0v.2c0,.2-.2.2-.3.2Zm.1-.5h0l.2.2a.1.1,0,0,0-.1.1h-.2c.1,0,.3,0,.3-.2h0c-.1-.1-.1-.2-.2-.2Z" transform="translate(-199.9 -484.9)" fill="#bd0030"/><path d="M216.9,499.9c.1-.1.1.1.1.3v.3a.5.5,0,0,0-.1-.3v-.3Z" transform="translate(-199.9 -484.9)" fill="#f4d02e"/><path d="M217,500.5h0c0-.1,0-.2-.1-.2v-.3h0a.8.8,0,0,0,.1.3v.2h0v-.3s.1.3,0,.3Z" transform="translate(-199.9 -484.9)" fill="#bd0030"/><path d="M216.8,500.1c.1.2-.1.6-.7.4h.4c.3-.1.2-.4.3-.4Z" transform="translate(-199.9 -484.9)" fill="#f4d02e"/><path d="M216.4,500.6h0c.2,0,.3-.2.4-.3v-.2h0l-.3.3h0c.2-.1.2-.2.2-.3h.1v.2a.4.4,0,0,1-.4.3Z" transform="translate(-199.9 -484.9)" fill="#bb4b4b"/><path d="M216.5,499.8c.1,0,0,.2,0,.3v.3c-.1,0,0-.2,0-.3s0-.2,0-.3Z" transform="translate(-199.9 -484.9)" fill="#f4d02e"/><path d="M216.5,500.4h0c-.1,0,0,0,0-.1v-.2c-.1-.2-.1-.2,0-.3h0c0,.1-.1.1,0,.3v.2h0v-.3h0v.3Z" transform="translate(-199.9 -484.9)" fill="#bd0030"/><path d="M216.1,499.8c.1,0,.1,0,.1.3a.3.3,0,0,1-.3.3h-.7c-.1-.1-.2.1-.4-.1s-.2-.1-.1-.2-.2,0-.3-.1h-.3c-.1-.1,0-.1.2,0a.3.3,0,0,0,.3-.3c0-.1-.1-.2,0-.2s.1.3,0,.4-.1.2,0,.2l.3-.3c.1,0-.2.2-.1.4l.3.2c.2,0,.2-.2.3-.1s-.2.1.1.2h.1c.1,0-.1.2.1.2s.1-.2.1-.2,0,.3.3.3-.1-.5,0-.5Z" transform="translate(-199.9 -484.9)" fill="#f4d02e"/><path d="M215.9,500.4h-.4c0-.1,0-.1-.1-.1h-.6s-.2-.1-.1-.2h-.1c-.1.1-.2.1-.2,0h-.1a.3.3,0,0,0,.3-.3h0c-.1,0-.1,0,0-.1h.1a.5.5,0,0,1-.1.3v0a.5.5,0,0,0,.1-.3h-.1a.3.3,0,0,1-.3.3h0c.1.1.2,0,.3,0h0a.1.1,0,0,1,.1.1c-.1.1.1.2.1.2h.6c.1,0,.1,0,.1.1h.4a.3.3,0,0,0,.3-.3h0v-.2h-.1v.5c-.2,0-.2-.1-.2-.2s0-.1-.1,0h-.3c-.1,0-.2,0-.2-.1h0a.1.1,0,0,1-.1.1c-.2,0-.4-.1-.4-.2a.4.4,0,0,1,.1-.3c0-.1.1-.1,0-.1h-.2a.3.3,0,0,1-.1.2h-.1a.2.2,0,0,0,.2-.2l.2-.2c.1.1,0,.1,0,.2a.4.4,0,0,0-.1.3l.3.2c.1,0,.2,0,.2-.1h.5a.1.1,0,0,1,.1.1c0,.1,0,.2.1.2s.1-.1.1-.2v-.3h.1v.2h0a.3.3,0,0,1-.3.3Z" transform="translate(-199.9 -484.9)" fill="#bd0030"/><path d="M214.2,499.4a.3.3,0,0,0,.1-.2h-.6l-.2-.2c-.1.1.1.3.2.3h.3c0,.1-.1.2.2.2Z" transform="translate(-199.9 -484.9)" fill="#f4d02e"/><path d="M214.1,499.4H214c0-.1-.1-.1-.2-.1h-.1c-.1,0-.2-.2-.2-.2h0c0,.1.1.3.2.3h.3c0,.1,0,.2.1.2h.1a.3.3,0,0,0,.1-.2H214c-.1.1-.2,0-.3-.1h-.1a.1.1,0,0,1,.1.1h.6a.3.3,0,0,1-.1.2Z" transform="translate(-199.9 -484.9)" fill="#bd0030"/><path d="M218,499.9c-.1,0-.1.3.1.3h.4c.1-.1.3-.3.2-.4a.3.3,0,0,1-.1.2c0,.1-.3.2-.5.2s-.1-.2-.1-.2Z" transform="translate(-199.9 -484.9)" fill="#f4d02e"/><path d="M218.1,500.2h-.2c0-.1,0-.2.1-.2h0c0,.1,0,.2.1.2s.5-.1.5-.2h0c0,.1-.3.2-.4.2s-.2-.1-.2-.2h0a.1.1,0,0,0,0,.2h.5c.2-.1.3-.2.2-.3s0,.2-.2.3Z" transform="translate(-199.9 -484.9)" fill="#bd0030"/><path d="M218.5,499.8c-.1-.1.1-.1.1-.2s-.1-.1,0-.2,0,.2.1.2,0,.1,0,.1Z" transform="translate(-199.9 -484.9)" fill="#f4d02e"/><path d="M218.5,499.8h.1a.1.1,0,0,1,.1.1h-.2Zm0-.1h.1s-.1,0,0-.1h-.1Z" transform="translate(-199.9 -484.9)" fill="#bd0030"/><path d="M218.3,499.4c0,.1.1.1.1,0Z" transform="translate(-199.9 -484.9)" fill="#f4d02e"/><path d="M218.3,499.4c0,.1.1.1.1,0Z" transform="translate(-199.9 -484.9)" fill="none"/><path d="M218.5,499.3c-.1,0-.1.1,0,.1h0c.1,0,.1-.1,0-.1Z" transform="translate(-199.9 -484.9)" fill="#f4d02e"/><path d="M218.5,499.5Zm0-.2h0Z" transform="translate(-199.9 -484.9)" fill="#bd0030"/><path d="M218.8,499.3s-.1-.2.1-.2.2.2.2.3v.3l-.2.3c-.1-.1,0-.2.1-.3s.1-.4,0-.4,0,.1-.1.2a.1.1,0,0,1-.1-.1h0c.1.1.1,0,.1-.1Z" transform="translate(-199.9 -484.9)" fill="#f4d02e"/><path d="M218.9,500h0a1,1,0,0,0,.1-.3.3.3,0,0,0,.1-.2c0-.2-.1-.4-.2-.4h-.1a.1.1,0,0,0,.1.1c0-.1,0-.1.1-.2h0c0,.1-.1.1-.1.2a.1.1,0,0,1-.1-.1h.1c.1,0,.2.2.2.3v.3l-.2.3Zm0-.1v-.2c0-.1.1-.3,0-.4s0,.3,0,.4v.2Z" transform="translate(-199.9 -484.9)" fill="#bd0030"/><path d="M219.3,498.8a.2.2,0,0,0-.2.2h0a.4.4,0,0,1,.1.3c0,.1-.1.3,0,.2v-.3c0-.1-.1-.2-.1-.3h.1v-.3h-.1c0,.1.1,0,.1.1Z" transform="translate(-199.9 -484.9)" fill="#f4d02e"/><path d="M219.2,499.6h0c0-.1,0-.2-.1-.2V499a.1.1,0,0,1,.1-.1h.1a.1.1,0,0,0-.1-.1h.1v.3h0c-.1,0-.1,0-.1.1h0c0,.1.1.1.1.2v.3Zm.1-1h-.1a.1.1,0,0,1,.1.1h-.2a.4.4,0,0,1,.1.3h0v-.3c0-.1-.1-.1-.1-.2h.1v-.3Z" transform="translate(-199.9 -484.9)" fill="#bd0030"/><path d="M219.4,498.9h0c.1,0,0-.1,0-.1Z" transform="translate(-199.9 -484.9)" fill="#f4d02e"/><path d="M219.4,498.9h0C219.5,499,219.4,498.9,219.4,498.9Z" transform="translate(-199.9 -484.9)" fill="none"/><path d="M218.5,500.2h0Z" transform="translate(-199.9 -484.9)" fill="#f4d02e"/><path d="M218.5,500.2h0Z" transform="translate(-199.9 -484.9)" fill="none"/><path d="M218.6,500.1h.1s-.1-.1-.1,0Z" transform="translate(-199.9 -484.9)" fill="#f4d02e"/><path d="M218.7,500.1h0c0-.1-.1,0-.1,0s.1-.1.1,0Z" transform="translate(-199.9 -484.9)" fill="#bd0030"/><path d="M214.1,499.2h0c0,.1.2,0,0-.1Z" transform="translate(-199.9 -484.9)" fill="#bd0030"/><path d="M214.1,499.3h0a.1.1,0,0,1,.1.1Zm0-.1h.1a.1.1,0,0,0-.1-.1Z" transform="translate(-199.9 -484.9)" fill="#bd0030"/><path d="M216.7,492.9c-.6.1-1,.4-.8.5s.6-.1.7-.3.8.5.9.4Z" transform="translate(-199.9 -484.9)" fill="#bd0030"/><path d="M217.4,493.6a1.5,1.5,0,0,1-.8-.4.9.9,0,0,1-.5.3h-.2v-.2c0-.2.4-.4.9-.5h0c-.5.1-.8.3-.8.5h.2l.5-.3h.1c.2.3.7.4.8.3a.1.1,0,0,1,.1.1h-.2Z" transform="translate(-199.9 -484.9)"/><path d="M213.7,492.7a1.9,1.9,0,0,0,.9.5,7.6,7.6,0,0,0,1.4.1l.7-.3a2.3,2.3,0,0,0,1,.4,7.8,7.8,0,0,0,1.8-.5c.1-.1-.3-.3-.5-.3Z" transform="translate(-199.9 -484.9)" fill="#bd0030"/><path d="M215.1,493.4c0,.1,0,.2.2.2a1.6,1.6,0,0,0,1-.5Z" transform="translate(-199.9 -484.9)" fill="#bd0030"/><path d="M215.3,493.6h0c-.2,0-.3-.1-.3-.2h.1c0,.1.1.1.2.1a1.4,1.4,0,0,0,1-.4h.1a1.7,1.7,0,0,1-1.1.4Z" transform="translate(-199.9 -484.9)"/><path d="M214.2,493.3h.4c.2,0,1.1,0,1.3-.3Z" transform="translate(-199.9 -484.9)" fill="#bd0030"/><path d="M214.6,493.5h-.4c0-.1,0-.1.1-.1h.3c.3,0,1.1-.1,1.3-.4h.1a2.7,2.7,0,0,1-1.4.4Z" transform="translate(-199.9 -484.9)"/><path d="M213.7,493c-.2.2.3.3.5.3a2.5,2.5,0,0,0,1.2-.2Z" transform="translate(-199.9 -484.9)" fill="#bd0030"/><path d="M214.2,493.3h-.6V493h.6c.3,0,.9,0,1.1-.2h.1a2.5,2.5,0,0,1-1.2.2Z" transform="translate(-199.9 -484.9)"/><path d="M213.2,492.8c-.1.1.3.3.8.3a3.1,3.1,0,0,0,1-.2Z" transform="translate(-199.9 -484.9)" fill="#bd0030"/><path d="M214,493.1c-.4,0-.8-.1-.8-.2s0-.1,0-.2h.1c0,.1.3.2.7.2a2.2,2.2,0,0,0,.9-.2h.1a3.1,3.1,0,0,1-1,.2Z" transform="translate(-199.9 -484.9)"/><path d="M218.2,493.4a.2.2,0,0,1-.2.2,1.4,1.4,0,0,1-1-.5Z" transform="translate(-199.9 -484.9)" fill="#bd0030"/><path d="M218,493.6a1.7,1.7,0,0,1-1.1-.4h.1a1.3,1.3,0,0,0,1,.4c.1,0,.2,0,.2-.1h.1c0,.1-.1.2-.3.2Z" transform="translate(-199.9 -484.9)"/><path d="M219,493.3c.1.1-.1.1-.3.1s-1.1,0-1.4-.3Z" transform="translate(-199.9 -484.9)" fill="#bd0030"/><path d="M218.7,493.5a2.7,2.7,0,0,1-1.4-.4h.1c.2.3,1,.4,1.3.4h.3a.1.1,0,0,1,.1.1h-.4Z" transform="translate(-199.9 -484.9)"/><path d="M219.6,493.1c.1.1-.3.2-.5.2a2.5,2.5,0,0,1-1.2-.2Z" transform="translate(-199.9 -484.9)" fill="#bd0030"/><path d="M219.1,493.3h0a2.5,2.5,0,0,1-1.2-.2h0a2.5,2.5,0,0,0,1.2.2h.5v.2Z" transform="translate(-199.9 -484.9)"/><path d="M220.1,492.8c.1.1-.3.3-.8.3a3.1,3.1,0,0,1-1-.2Z" transform="translate(-199.9 -484.9)" fill="#bd0030"/><path d="M219.3,493.1h0a3.1,3.1,0,0,1-1-.2h0a3.1,3.1,0,0,0,1,.2c.4,0,.7-.1.7-.2h.1v.2a1.3,1.3,0,0,1-.8.2Z" transform="translate(-199.9 -484.9)"/><path d="M214.2,492.8h-1c-.2,0-.5-.2-.1-.3h.7c.8,0,1.9-.7,2.3-.7s.4.2.6.2.2-.2.5-.2,1.5.7,2.3.7h.7c.4.1.1.3-.1.3h-5.9Z" transform="translate(-199.9 -484.9)" fill="#bd0030"/><path d="M219.7,492.9h-.6c-.1,0-.1,0-.1-.1h.1a2.7,2.7,0,0,0,1,0c.1-.1.2-.1.2-.2h-.8a4.7,4.7,0,0,1-1.6-.4l-.7-.2h-1.1l-.7.2a4.7,4.7,0,0,1-1.6.4H213c0,.1.1.1.2.2a2.7,2.7,0,0,0,1,0h.1a.1.1,0,0,1-.1.1h-1.1c0-.1-.3-.2-.2-.3s.1-.1.2-.1h.7a3.7,3.7,0,0,0,1.5-.4l.8-.2h1.1l.7.2a4.7,4.7,0,0,0,1.6.4h.7c.1,0,.2,0,.2.1s-.2.2-.2.3Z" transform="translate(-199.9 -484.9)"/><path d="M216.6,490.5c-.3,0-.7-.1-.8.3s-.2.8-.1.8.2-.4.3-.4.1.3.2.3.2-.4.2-.4.1.4.2.4.2-.3.3-.4.1.4.2.4.1-.4.2-.3.1.4.3.4.1-.5-.1-.8-.6-.3-.9-.3Z" transform="translate(-199.9 -484.9)" fill="#bd0030"/><path d="M215.7,491.6h0a1.4,1.4,0,0,1,0-.9.8.8,0,0,1,.8-.3h.3c.3,0,.6,0,.7.3a1,1,0,0,1,.1.9h0c-.2,0-.2-.1-.3-.3h0c-.1.1-.1.3-.2.3s-.2-.2-.2-.3h0c-.1.1-.1.3-.3.3s-.1-.2-.2-.3h0c0,.1-.1.3-.2.3s-.2-.2-.2-.3h0c-.1.2-.1.3-.3.3Zm.9-1.1h-.1c-.3,0-.6,0-.7.3a1,1,0,0,0-.1.7h0c.1,0,.1-.1.2-.2s0-.2.1-.2.1.1.1.2v.2a1,1,0,0,0,.1-.3h.2a1,1,0,0,0,.1.3c.1,0,.2-.2.2-.3h.2a1,1,0,0,0,.1.3v-.2c0-.1,0-.2.1-.2s.1.1.1.2a.2.2,0,0,0,.2.2,2.6,2.6,0,0,0-.1-.7c-.1-.3-.5-.3-.7-.3Z" transform="translate(-199.9 -484.9)"/><path d="M215.9,490.6h0Z" transform="translate(-199.9 -484.9)" fill="#bd0030"/><path d="M216.7,490.8h0c-.3,0-.7,0-.8-.2h1.5c-.1.2-.5.2-.7.2Z" transform="translate(-199.9 -484.9)"/><path d="M216.5,489.2v1.3a.1.1,0,0,0,.1.1c.2,0,.2-.1.2-.1v-1.3Z" transform="translate(-199.9 -484.9)" fill="#bd0030"/><path d="M216.6,490.6h0c-.1,0-.1,0-.1-.1v-1.3h.1v1.3h.1v-1.3h.1v1.3h-.2Z" transform="translate(-199.9 -484.9)"/><path d="M216.7,489.3c.5,0,.6.3.8.4s.2.1.4,0-.4.4-.4.4l.2.3c-.2.1-.5-.1-.6-.2h-.4Z" transform="translate(-199.9 -484.9)" fill="#bd0030"/><path d="M217.7,490.5l-.7-.3h-.4v-.8h.1a1.2,1.2,0,0,1,.7.2c0,.1,0,.1.1.1h.4c.1.1,0,.2-.3.4h0l.2.4Zm-.9-.4h.3l.5.2v-.3h.1c0-.1.1-.1.2-.2h-.5a.8.8,0,0,0-.6-.2h0v.7h.1Z" transform="translate(-199.9 -484.9)"/><path d="M216.9,488.9a.3.3,0,0,1-.3.3c-.1,0-.2-.1-.2-.3s.1-.3.2-.3a.3.3,0,0,1,.3.3Z" transform="translate(-199.9 -484.9)" fill="#bd0030"/><path d="M216.6,489.2a.3.3,0,0,1-.3-.3l.3-.3a.4.4,0,0,1,.4.3c0,.2-.2.3-.4.3Zm0-.5-.2.2c0,.2.1.3.2.3a.3.3,0,0,0,.3-.3c0-.1-.1-.2-.3-.2Z" transform="translate(-199.9 -484.9)"/><path d="M213.5,495.6s0-.1-.2,0-.1.2-.1.4a.2.2,0,0,0,.2.2c.1,0,0-.2.1-.2s.4,0,.4.1-.1.3-.2.3V496c-.1,0-.1.1-.1.2h-.4a.4.4,0,0,1-.1-.5.2.2,0,0,1,.2-.2c.1,0,.2,0,.2.1Z" transform="translate(-199.9 -484.9)" fill="#f4d02e"/><path d="M213.7,496.4h0a.1.1,0,0,0,0-.2.1.1,0,0,0-.1.1v.2h-.4c0-.1-.1-.3,0-.5s.1-.2.2-.2h.2c-.1,0-.1-.1-.2,0s-.1.2-.1.4a.2.2,0,0,0,.2.2h.1c.1-.1.4,0,.4.1v.2Zm0-.4v.2h0c.1,0,.1-.1.1-.2s-.3-.2-.4-.1h-.1a.2.2,0,0,1-.2-.2c0-.2,0-.4.1-.4s.1,0,.2,0-.1-.1-.2-.1-.1,0-.2.2a.4.4,0,0,0,.1.5h.4c0-.1,0-.2.1-.2Z" transform="translate(-199.9 -484.9)" fill="#bd0030"/><path d="M213.4,496.5c-.1-.1,0-.2-.2-.1s.1.2.2.2.1-.1,0-.1Z" transform="translate(-199.9 -484.9)" fill="#f4d02e"/><path d="M213.4,496.6h0c-.1,0-.2-.2-.2-.2h.2a.1.1,0,0,1,.1.1Zm-.1-.2h-.1s.1.2.2.2h0a.1.1,0,0,1-.1-.1Z" transform="translate(-199.9 -484.9)" fill="#bd0030"/><path d="M213.5,496.6c.1.1.1.1.1.2h-.2s0,.2.1.2.3-.1.3,0a.4.4,0,0,0,.3.2l.4-.3c.1,0,0-.1-.1,0l-.4.2V497c0-.1.1,0,.2-.1s0-.2-.1-.2-.3.1-.3,0,.1-.1,0-.2-.2,0-.2.1Z" transform="translate(-199.9 -484.9)" fill="#f4d02e"/><path d="M214,497.3c-.1,0-.2,0-.2-.2h-.3c-.1,0-.1,0-.1-.1h.1a.1.1,0,0,1,.1-.1h.1c.1,0,0,.1,0,.1h.4v.2h-.2a.3.3,0,0,0,.1.2h0l.4-.2c.1-.1.1-.1.2,0h-.2l-.3.2Zm-.3-.2h.1c.1.3.3.2.3.2l.3-.2h.1s0-.1-.1,0l-.4.2h0a.3.3,0,0,1-.1-.2h0c-.1.1-.2.1-.2,0h0a.1.1,0,0,0-.1.1h-.2a.1.1,0,0,0,.1.1h.2Z" transform="translate(-199.9 -484.9)" fill="#bd0030"/><path d="M214.4,497.2c-.1.1-.3.2-.3.3s.1.1.1.2h.3c.1-.1.1-.1.1-.2a.2.2,0,0,0-.2.2c-.1,0-.2-.1-.1-.2l.3-.3c0-.1-.1,0-.2.1Z" transform="translate(-199.9 -484.9)" fill="#f4d02e"/><path d="M214.3,497.7h-.1a.3.3,0,0,1-.1-.2.2.2,0,0,1,.2-.2.1.1,0,0,1,.1-.1h0a.1.1,0,0,0-.1.1c-.1.1-.2.1-.2.2s.1.1.1.2h.3a.1.1,0,0,0,.1-.1h-.1a.3.3,0,0,1-.1.2h-.1c0-.1-.1-.1,0-.2l.2-.2h0l-.2.2v.2h.3c0,.1,0,.2-.1.2Z" transform="translate(-199.9 -484.9)" fill="#bd0030"/><path d="M214,497.8h.2c0-.1-.1-.1-.2,0Z" transform="translate(-199.9 -484.9)" fill="#f4d02e"/><path d="M214.1,497.8h0c-.1-.1.1-.1.1,0Zm0-.1h.1c0-.1,0-.1-.1-.1Z" transform="translate(-199.9 -484.9)" fill="#bd0030"/><path d="M214.5,497.8a.4.4,0,0,0,.1.3h.5c.1-.1.1-.2,0-.2s0,.2-.1.2-.3,0-.3-.2.1-.2,0-.2Z" transform="translate(-199.9 -484.9)" fill="#f4d02e"/><path d="M214.9,498.2h-.3a.4.4,0,0,1-.1-.3h.2c0,.1-.1.1,0,.2s.2.2.3.2h0a.1.1,0,0,1,.1-.1h.1c0,.1,0,.2-.1.2Zm-.2-.5h-.2c0,.1,0,.2.1.2s.1.1.2.2h.3c0-.1.1-.1,0-.2h0a.1.1,0,0,0-.1.1h0c-.1,0-.3,0-.3-.2s0-.1,0-.2Z" transform="translate(-199.9 -484.9)" fill="#bd0030"/><path d="M214.9,497.8h.2c-.1-.1-.2,0-.2.1Z" transform="translate(-199.9 -484.9)" fill="#f4d02e"/><path d="M215,497.8h-.1a.1.1,0,0,1,.1-.1c.1,0,.1,0,0,.1Z" transform="translate(-199.9 -484.9)" fill="#bd0030"/><path d="M215.1,498.2s.1.1,0,.1h-.3s-.1.1,0,.1h.6c.2,0,.2-.1.2-.1h-.2a.3.3,0,0,1-.1-.2c-.1,0-.1-.1,0-.1h.1c.1-.1.1-.2,0-.2s-.2,0-.3.2Z" transform="translate(-199.9 -484.9)" fill="#f4d02e"/><path d="M215.4,498.5h-.1c0-.1-.1-.1-.2-.1h0q.2-.3.3-.3c.1.1.1.1.1.2h-.2a.3.3,0,0,0,.1.2h.2c0,.1-.1.1-.2.1Zm-.3-.1h.2a.1.1,0,0,0,.1.1h0c.1,0,.2,0,.2-.1h-.2l-.2-.2h.3a.1.1,0,0,0-.1-.1l-.2.2c0,.1,0,.1-.1.1h0Z" transform="translate(-199.9 -484.9)" fill="#bd0030"/><path d="M215.7,498.2c0,.1-.1.1-.1.2h.1c0,.1,0,.1.1.1h.2c.1,0,0,.2.2.2h1a.1.1,0,0,0,.1-.1h.2l.3-.2h.2c.1,0,.2-.2.2-.2s.2-.1.2-.1v-.3c-.1,0-.2-.4-.3-.4s-.1.1,0,.1.3.4.2.5H218c-.2,0-.3.3-.4.3h-.1s.1-.1-.1-.1h-.2c0,.1.1.2,0,.2s-.3.1-.4,0v-.2c-.1,0-.1.2-.2.2h-.1v-.2c-.1,0-.2.3-.2.2h-.1c-.1-.1,0-.2-.1-.3s-.1.3-.2.3a.1.1,0,0,1-.1-.1c-.1,0,0-.2,0-.2Z" transform="translate(-199.9 -484.9)" fill="#f4d02e"/><path d="M216.5,498.7h-.7c-.1,0-.1,0-.1-.1a.1.1,0,0,1-.1-.1h0a.1.1,0,0,0,.1-.1h.1v.2a.1.1,0,0,0,.1.1h.1v-.2c.1,0,.1.1,0,.2h.5c.1,0,.1,0,.1-.1h.1c0,.1,0,.1.1.1h.3c0-.1.1-.1.2-.1h.4c0-.1.1-.3.2-.3h.3a.8.8,0,0,0-.2-.4h0a.1.1,0,0,1-.1-.1h.1c.1,0,.2.4.3.4v.3s0,.1-.2.1H218c-.1,0-.1,0-.1-.1h-.1a.1.1,0,0,0-.1.1h-1.2Zm-.1-.1h1a.1.1,0,0,1,.1.1h.4c0,.1,0,.1.1.1h.2c.2,0,.2-.1.2-.1a.5.5,0,0,0-.1-.3s-.1-.4-.2-.4,0,.1,0,.1h0c.1.1.3.3.2.4H218a.2.2,0,0,0-.2.2h-.3c-.2,0-.3,0-.3.1h0a.3.3,0,0,1-.4,0h-.1c0,.1,0,.1-.1.2h0a.1.1,0,0,1-.1-.1h-.1a.3.3,0,0,1-.1.2h-.1a.1.1,0,0,1-.1-.1h-.2a.1.1,0,0,1-.1-.1c-.1,0-.1-.2-.1-.2h0c0,.1,0,.1-.1.1h.1c0,.1,0,.1.1.1h.2a.1.1,0,0,1,.1.1h.3Z" transform="translate(-199.9 -484.9)" fill="#bd0030"/><path d="M218.3,497.5c.1.2.2.5.3.5l-.2-.4Z" transform="translate(-199.9 -484.9)" fill="#f4d02e"/><path d="M218.6,498h0c-.1,0-.1-.1-.2-.3l-.2-.2h.2a2.6,2.6,0,0,0,.2.5Zm-.4-.6h.1a.3.3,0,0,0,.1.2c.1.2.1.3.2.3l-.2-.4-.2-.2Z" transform="translate(-199.9 -484.9)" fill="#bd0030"/><path d="M215.7,498h0Z" transform="translate(-199.9 -484.9)" fill="#f4d02e"/><path d="M215.7,498.1h0c0-.1.1,0,.1,0a.1.1,0,0,1-.1.1Z" transform="translate(-199.9 -484.9)" fill="#bd0030"/><path d="M218.7,497.6c0,.1,0,.2.2.2a.3.3,0,0,0,.3-.3.4.4,0,0,0-.2-.3c-.1.1,0,.2.1.2s.1.1,0,.2Z" transform="translate(-199.9 -484.9)" fill="#f4d02e"/><path d="M218.9,497.8h-.2v-.2h.3c.1-.1.2-.1.1-.2h-.2a.1.1,0,0,1,.1-.1h.2v.2a.3.3,0,0,1-.3.3Zm-.2-.2v.2h.2a.3.3,0,0,0,.3-.3c0-.1,0-.1-.1-.2h.1c0,.1-.1.1-.1.2Z" transform="translate(-199.9 -484.9)" fill="#bd0030"/><path d="M218.8,497.3c-.1,0,0,.1,0,.1s0-.2,0-.1Z" transform="translate(-199.9 -484.9)" fill="#f4d02e"/><path d="M218.8,497.3c-.1,0,0,0,0,.1h0Z" transform="translate(-199.9 -484.9)" fill="#bd0030"/><path d="M219.2,497.2h.2c0,.1-.1.2-.1.3s0,.1.1,0v-.6c0-.1.1,0,.2,0a.3.3,0,0,0,.1-.2h-.1a.3.3,0,0,1,.1-.2c0-.1-.1-.3-.2-.3h0c.1,0,.1.1.1.2s-.3.1-.3.2v.3h-.2c-.1,0-.1.1-.1.2Z" transform="translate(-199.9 -484.9)" fill="#f4d02e"/><path d="M219.3,497.8h0a.3.3,0,0,0,.1-.2h-.1a.1.1,0,0,1-.1-.1V497c0-.1.1,0,.2,0a.1.1,0,0,0,.1.1v-.2h0c0-.1.1-.1.2-.1h.1c0-.1,0-.1-.1-.2h.1a.3.3,0,0,1,.1.2h0a.1.1,0,0,0-.1.1h.1a.3.3,0,0,1-.1.2h-.1c0-.1,0-.1-.1-.1h0v.2h-.1v.3a.1.1,0,0,1-.1.1Zm0-.8h-.1v.2a.1.1,0,0,0,.1.1h.1v.2h0v-.3h0v-.2h.2a.3.3,0,0,0,.1-.2h0a.3.3,0,0,0-.1-.2h-.1c.1.1.1.1.1.2h-.3v.2h-.1a.1.1,0,0,0-.1-.1Z" transform="translate(-199.9 -484.9)" fill="#bd0030"/><path d="M219.4,496.2a1,1,0,0,0,.1.3c.1,0,0-.1,0-.2a.1.1,0,0,0,.1-.1Z" transform="translate(-199.9 -484.9)" fill="#f4d02e"/><path d="M219.5,496.5c-.1,0-.1-.2-.1-.3h.2c0,.1,0,.1-.1.1h0s.1,0,0,.1Zm-.1-.3a1,1,0,0,0,.1.3h-.1Z" transform="translate(-199.9 -484.9)" fill="#bd0030"/><path d="M219.4,496l.3.2h.3c.1-.1-.3-.2-.4-.2Z" transform="translate(-199.9 -484.9)" fill="#f4d02e"/><path d="M220,496.3a.1.1,0,0,1-.1-.1h-.2l-.4-.2h.1l.3.2h.2a.1.1,0,0,0,.1.1h0c0-.1-.2-.2-.4-.2h0s.4.1.4.2Z" transform="translate(-199.9 -484.9)" fill="#bd0030"/><path d="M220.1,496.4c.1,0,.1-.2,0-.2h0Z" transform="translate(-199.9 -484.9)" fill="#f4d02e"/><path d="M220.1,496.4h0v-.2h.1c0-.1,0-.2-.1-.2s.1.1.1.2Z" transform="translate(-199.9 -484.9)" fill="#bd0030"/><path d="M219.6,495.4c0,.1.2.1.4.1h.2c.1-.1-.2-.2-.4-.2Z" transform="translate(-199.9 -484.9)" fill="#f4d02e"/><path d="M220.2,495.6h-.5c-.1,0-.1,0-.1-.1h.2c.2,0,.4.1.4.2Zm-.5-.2h-.1a.1.1,0,0,0,.1.1h.5c0-.1-.2-.2-.4-.2h-.1Z" transform="translate(-199.9 -484.9)" fill="#bd0030"/><path d="M219.5,495.6h.3c.2,0,.3.1.3.2s-.2,0-.2.1.1,0,.1.1h.1a.3.3,0,0,1,.1-.2.7.7,0,0,0-.3-.3c-.2,0-.3-.1-.4,0Z" transform="translate(-199.9 -484.9)" fill="#f4d02e"/><path d="M220.1,496.2H220a.1.1,0,0,0,.1-.1h-.6c0-.1.1-.1.2,0h.2a.3.3,0,0,1,.3.3h-.1Zm-.5-.6h.2c.2,0,.3,0,.3.1h0a.1.1,0,0,1-.1.1h.1a.1.1,0,0,1,.1-.1h0q0-.1-.3-.3h-.3Z" transform="translate(-199.9 -484.9)" fill="#bd0030"/><path d="M213.7,496.9c-.1,0-.2.1-.1.1Z" transform="translate(-199.9 -484.9)" fill="#bd0030"/><path d="M213.6,497h0a.1.1,0,0,0,.1-.1h0a.1.1,0,0,1-.1.1Z" transform="translate(-199.9 -484.9)" fill="#bd0030"/><path d="M213.9,496.8h-.1c.2,0,.2-.1.1-.1Z" transform="translate(-199.9 -484.9)" fill="#bd0030"/><path d="M213.9,496.9Z" transform="translate(-199.9 -484.9)" fill="#bd0030"/><path d="M219.3,497.1s-.1,0,0,.1h0Z" transform="translate(-199.9 -484.9)" fill="#bd0030"/><path d="M219.4,497.2h0Zm-.1-.1Z" transform="translate(-199.9 -484.9)" fill="#bd0030"/><path d="M219.6,496.9h.1c.1,0,.1-.1,0-.1Z" transform="translate(-199.9 -484.9)" fill="#bd0030"/><path d="M219.7,496.9h0Z" transform="translate(-199.9 -484.9)" fill="#bd0030"/><path d="M217.9,498.2c0,.1,0,.2.1.2s.2-.2.1-.2Z" transform="translate(-199.9 -484.9)" fill="#bd0030"/><path d="M218,498.4h-.1v-.2h.1Zm0-.2h-.1v.2h.1Z" transform="translate(-199.9 -484.9)" fill="#bd0030"/><path d="M211,493.5c-.2,0-.6-.1-.6,0s.2,1.1.4,1.2.7.4.8.4l-.2-.8-.3-.5v-.3Z" transform="translate(-199.9 -484.9)" fill="#bd0030"/><path d="M210.7,493.5c0-.3.3,0,.3.4s0,.2.1.2Z" transform="translate(-199.9 -484.9)" fill="#bd0030"/><path d="M211,494.2c0-.1-.1-.2-.1-.4a.5.5,0,0,0-.2-.4h-.1c0-.2.1-.2.1-.2a.6.6,0,0,1,.3.6s0,.2.1.2Z" transform="translate(-199.9 -484.9)"/><path d="M210.9,493.5h0c.1-.2.3.1.3.5Z" transform="translate(-199.9 -484.9)" fill="#bd0030"/><path d="M211.1,494a1.2,1.2,0,0,0-.1-.5h0c.2,0,.2.4.2.6Z" transform="translate(-199.9 -484.9)"/><path d="M210.4,493.5c0-.2.3-.3.3.4a1.7,1.7,0,0,1,.3.6l.3.2Z" transform="translate(-199.9 -484.9)" fill="#bd0030"/><path d="M211.3,494.8a.5.5,0,0,0-.3-.3h0c0-.1-.2-.5-.3-.5h0c0-.4-.1-.5-.2-.5h-.1v-.2h.2a.9.9,0,0,1,.2.6l.3.5.3.3Z" transform="translate(-199.9 -484.9)"/><path d="M211.2,497.4v-1.8c-.1-.3-.6-.5-.8-.9a4.2,4.2,0,0,1-.2-1.4c.1-.1.3.2.3.6s.2.6.3.7.5.2.6.4-.1-.4-.2-.5-.2-.4-.1-.5l.3.2.4.4c.1.1.4.3.4.5s.1,2.3.1,2.3Z" transform="translate(-199.9 -484.9)" fill="#bd0030"/><path d="M211.2,497.4h-.1a5.1,5.1,0,0,0,0-1.8q0-.2-.3-.3l-.4-.6a4.4,4.4,0,0,1-.3-1.4h.2a.7.7,0,0,1,.2.7.9.9,0,0,1,.3.6h0l.3.2h.2c0-.1-.1-.2-.1-.3l-.2-.4c0-.1,0-.1.1-.1h.1l.3.2s.2.3.3.3h0c.2.1.5.3.5.5v2.3h-.1v-2.3c0-.2-.3-.4-.4-.5h-.1s-.3-.3-.3-.4h-.3l.2.4s.2.5.1.5h0a.1.1,0,0,1-.1-.1c0-.1-.2-.2-.3-.2l-.2-.2a.1.1,0,0,1-.1-.1,1.5,1.5,0,0,0-.3-.6h0a.6.6,0,0,0-.2-.6,5,5,0,0,0,.3,1.4.7.7,0,0,0,.4.5c.1.1.3.2.3.4a5.4,5.4,0,0,1,0,1.8Z" transform="translate(-199.9 -484.9)"/><path d="M211.1,498.1v.2c.1.2.5.2.6.2s.5,0,.6-.2v-.2Z" transform="translate(-199.9 -484.9)" fill="#bd0030"/><path d="M211.7,498.5h-.6v-.3h.1v.2h1v-.2h.1v.3Z" transform="translate(-199.9 -484.9)"/><path d="M211.1,497.8c-.1,0-.1.2,0,.3h.6c.3,0,.7-.1.7-.2s-.2-.2-.1-.2Z" transform="translate(-199.9 -484.9)" fill="#bd0030"/><path d="M211.7,498.3h0l-.7-.2v-.2h.1c0,.1.3.2.6.2s.6-.1.6-.2h0c.1,0,.1,0,.1.2s-.4.3-.7.3Z" transform="translate(-199.9 -484.9)"/><path d="M211.1,497.5c-.1,0-.1.2,0,.3l.6.2c.3,0,.7-.2.7-.3s-.1-.2-.1-.2Z" transform="translate(-199.9 -484.9)" fill="#bd0030"/><path d="M211.7,498h0l-.7-.2v-.2c0-.1,0-.1.1-.2h0c0,.1.3.2.6.2s.6-.1.6-.2h.1v.2c0,.2-.4.3-.7.3Z" transform="translate(-199.9 -484.9)"/><path d="M211.7,497.7c.4,0,.7-.2.7-.3h-.7l-.5-.2-.2.2a.9.9,0,0,0,.7.3Z" transform="translate(-199.9 -484.9)" fill="#bd0030"/><path d="M211.7,497.7c-.4,0-.7-.2-.7-.3h0a.1.1,0,0,1,.1-.1h.2l.4.2h.5a.2.2,0,0,1,.2.2c0,.1-.2.3-.6.3Zm-.5-.4h-.1a.9.9,0,0,0,.6.2h0a.9.9,0,0,0,.6-.2h-1.1Z" transform="translate(-199.9 -484.9)"/><path d="M222.3,493.5c.2,0,.6-.1.6,0a2.7,2.7,0,0,1-.3,1.2l-.8.4c-.1,0,.1-.7.2-.8a2.6,2.6,0,0,1,.2-.5v-.3Z" transform="translate(-199.9 -484.9)" fill="#bd0030"/><path d="M222.7,493.5c-.1-.3-.4,0-.3.4a.3.3,0,0,1-.1.2Z" transform="translate(-199.9 -484.9)" fill="#bd0030"/><path d="M222.3,494.2h-.1c.1,0,.1-.2.1-.2a.9.9,0,0,1,.3-.6s.1,0,.1.2h-.1a.5.5,0,0,0-.2.4c0,.2,0,.3-.1.4Z" transform="translate(-199.9 -484.9)"/><path d="M222.4,493.5h0c-.1-.2-.2.1-.3.5Z" transform="translate(-199.9 -484.9)" fill="#bd0030"/><path d="M222.2,494h-.1c0-.2.1-.6.2-.6h0a1.2,1.2,0,0,0-.1.5Z" transform="translate(-199.9 -484.9)"/><path d="M222.9,493.5c0-.2-.3-.3-.3.4a1.7,1.7,0,0,0-.3.6l-.3.2Z" transform="translate(-199.9 -484.9)" fill="#bd0030"/><path d="M222,494.8h0l.3-.3a.7.7,0,0,1,.3-.5c0-.4.1-.6.2-.6h.1a.3.3,0,0,1,.1.2h-.1c0-.1,0-.1-.1-.1h0s-.1.1-.1.5h0c-.2,0-.3.4-.3.5h-.1c-.1,0-.2.2-.3.3Z" transform="translate(-199.9 -484.9)"/><path d="M222.1,497.4a8.7,8.7,0,0,1,.1-1.8c.1-.3.6-.5.7-.9a2.6,2.6,0,0,0,.2-1.4c0-.1-.3.2-.2.6s-.3.6-.4.7-.5.2-.5.4,0-.4.1-.5.2-.4.1-.5l-.3.2s-.3.3-.3.4-.5.3-.5.5v2.3Z" transform="translate(-199.9 -484.9)" fill="#bd0030"/><path d="M222.1,497.4v-1.8l.3-.4a1.2,1.2,0,0,0,.5-.5c.1-.4.3-1.3.2-1.3s-.2.2-.2.5h0c-.2.3-.2.5-.3.6h0l-.3.2-.3.2a.1.1,0,0,1-.1.1h0s.1-.5.2-.5a.8.8,0,0,0,.1-.4H222c-.1.1-.3.4-.4.4h-.1a.9.9,0,0,0-.3.5c0,.3-.1,2.3-.1,2.3H221s.1-2,.1-2.3a.7.7,0,0,1,.4-.5h0l.4-.3a.2.2,0,0,1,.2-.2h.2c0,.1-.1.4-.2.4a.4.4,0,0,1-.1.3h.3l.2-.2h0c.1-.2.1-.4.3-.6a.8.8,0,0,1,.3-.7.1.1,0,0,1,.1.1,3.9,3.9,0,0,1-.2,1.4l-.5.6-.3.3v1.8Z" transform="translate(-199.9 -484.9)"/><path d="M222.2,498.1v.2c-.1.2-.5.2-.6.2s-.4,0-.5-.2v-.2Z" transform="translate(-199.9 -484.9)" fill="#bd0030"/><path d="M221.6,498.5H221v-.3h.1v.2h1.1v-.2h0v.2a1.1,1.1,0,0,1-.7.2Z" transform="translate(-199.9 -484.9)"/><path d="M222.2,497.8a.2.2,0,0,1,.1.3h-.6l-.8-.2a.2.2,0,0,1,.2-.2Z" transform="translate(-199.9 -484.9)" fill="#bd0030"/><path d="M221.6,498.3c-.3,0-.7-.1-.7-.3s.1-.2.2-.2H221c0,.1.3.2.7.2s.5-.1.5-.2a.1.1,0,0,0,.1-.1h.1a.3.3,0,0,1-.1.2l-.6.2Z" transform="translate(-199.9 -484.9)"/><path d="M222.2,497.5c.1,0,.1.2.1.3l-.7.2c-.3,0-.6-.2-.6-.3s.1-.2.1-.2Z" transform="translate(-199.9 -484.9)" fill="#bd0030"/><path d="M221.6,498c-.3,0-.7-.1-.7-.3s0-.2.1-.2h0c0,.1.3.2.6.2s.6-.1.6-.2h.1a.1.1,0,0,1-.1-.1h0l.2.2v.2l-.7.2Z" transform="translate(-199.9 -484.9)"/><path d="M221.6,497.7c-.4,0-.7-.2-.7-.3h.7c.3,0,.5-.2.6-.2s.1.1.1.2-.3.3-.7.3Z" transform="translate(-199.9 -484.9)" fill="#bd0030"/><path d="M221.6,497.7h-.5l-.2-.2c0-.1.1-.2.3-.2h.4a.5.5,0,0,0,.4-.2h.2a.1.1,0,0,1,.1.1c.1,0,.1.1,0,.1s-.3.3-.7.3Zm-.5-.4H221a.1.1,0,0,0,.1.1h.5a2,2,0,0,0,.7-.2h-1.2Z" transform="translate(-199.9 -484.9)"/></g></g></g></svg>