<svg xmlns="http://www.w3.org/2000/svg" xmlns:xlink="http://www.w3.org/1999/xlink" viewBox="0 0 33.6 19.6"><defs><clipPath id="a"><rect width="33.6" height="19.58" fill="none"/></clipPath></defs><title>CHL</title><g clip-path=""><rect width="33.6" height="19.58" fill="#fff"/><rect width="9.8" height="19.58" fill="#2530a9"/><rect y="9.8" width="33.6" height="9.79" fill="#c22623"/><polygon points="4.9 2.4 4.1 4.8 5.3 5.2 4.9 2.4" fill="#fff"/><polygon points="4.9 2.4 5.7 4.8 4.5 5.2 4.9 2.4" fill="#fff"/><polygon points="7.2 4.1 4.8 4.1 4.8 5.4 7.2 4.1" fill="#fff"/><polygon points="7.2 4.1 5.2 5.6 4.5 4.6 7.2 4.1" fill="#fff"/><polygon points="2.6 4.1 4.6 5.6 5.3 4.6 2.6 4.1" fill="#fff"/><polygon points="2.6 4.1 5 4.1 5 5.4 2.6 4.1" fill="#fff"/><polygon points="6.3 6.9 5.6 4.5 4.4 4.9 6.3 6.9" fill="#fff"/><polygon points="6.3 6.9 4.4 5.4 5.1 4.4 6.3 6.9" fill="#fff"/><polygon points="3.5 6.9 5.4 5.4 4.7 4.4 3.5 6.9" fill="#fff"/><polygon points="3.5 6.9 4.2 4.5 5.4 4.9 3.5 6.9" fill="#fff"/></g></svg>