<svg xmlns="http://www.w3.org/2000/svg" xmlns:xlink="http://www.w3.org/1999/xlink" viewBox="0 0 33.6 19.6"><defs><clipPath id="a" transform="translate(-43.6 -522.9)"><rect x="43.6" y="522.9" width="33.6" height="19.57" fill="none"/></clipPath></defs><title>CHN</title><g clip-path=""><rect width="33.6" height="19.57" fill="#cb1d23"/><polygon points="3.2 7.1 3.9 5.1 2.2 3.9 4.3 3.9 4.9 2 5.5 3.9 7.6 3.9 5.9 5.1 6.6 7.1 4.9 5.9 3.2 7.1" fill="#f7de29"/><polygon points="8.9 8.1 9.6 8.4 10.1 7.8 10.1 8.6 10.8 8.9 10 9.1 10 9.8 9.6 9.2 8.9 9.3 9.3 8.8 8.9 8.1" fill="#f7de29"/><polygon points="12.7 4.4 12 4.3 11.6 4.9 11.5 4.2 10.8 4 11.4 3.7 11.3 3 11.9 3.5 12.5 3.2 12.2 3.8 12.7 4.4" fill="#f7de29"/><polygon points="11.1 7.7 11.4 7 10.8 6.6 11.5 6.6 11.7 5.9 12 6.6 12.7 6.6 12.1 7 12.3 7.7 11.7 7.3 11.1 7.7" fill="#f7de29"/><polygon points="9 1.2 9.7 1.6 10.2 1 10.1 1.8 10.8 2.1 10 2.2 9.9 3 9.6 2.3 8.8 2.4 9.3 1.9 9 1.2" fill="#f7de29"/></g></svg>