<svg xmlns="http://www.w3.org/2000/svg" xmlns:xlink="http://www.w3.org/1999/xlink" viewBox="0 0 33.6 19.6"><defs><clipPath id="a"><rect width="33.6" height="19.58" fill="none"/></clipPath></defs><title>CYP</title><g clip-path=""><rect width="33.6" height="19.58" fill="#fff"/><g clip-path=""><path d="M14.4,5.9a.8.8,0,0,0,0,.3,3.4,3.4,0,0,1-.1,1.2.9.9,0,0,1-.5.4l-.7-.3h-.4l-.5.2H12l-.2.2c0,.1-.1.4-.2.4l-.5.3h-.2l-.2-.2h-.2s-.1.2-.1.3l.2.4c.1,0,.1.3,0,.4s.1.2.1.2-.1.1,0,.2v.2l.3.2a1.4,1.4,0,0,1,.1.4c0,.1.1,0,.1.3l.3.2.2.2h.5l.2.2h1.7a1,1,0,0,1,.4.5.8.8,0,0,1,0,.2H15c0-.1-.4-.3,0-.7s.3-.2.4-.3a.9.9,0,0,1,.9-.1c.5-.1.1-.1.4-.2h.7l.6-.3c.1-.1.2-.4.6-.2s.1-.3.2-.3-.1-.7.2-.8.4-.2.8-.1l.5.3h.2c.1-.1,0-.2.1-.2h1a.3.3,0,0,0-.1-.3h-.2l-.3-.3V8c-.1-.1-.4-.4-.4-.6s0-.6.2-.7,0-.2.2-.3h.6c.1-.1,0-.3.3-.5l.5-.4.6-.2.3-.4.3-.2c.1-.1.1-.2.2-.4l.4-.3h.3c.1-.1.1-.3.1-.4l-.4.2-.5.2c-.2,0-.1.1-.2.1h-.3l-.3.3h-.8l-.3.4h-.3a5.3,5.3,0,0,1-1.5.7h-.5c-.2,0-.4.4-.6.4H15l-.6-.2Z" fill="#dd7d21"/><path d="M16,15.8l.9-.3,1-.2-1,.3-1,.2Z" fill="#2c6752"/><path d="M17.5,15.2a1.1,1.1,0,0,1,.5-1.2,1.4,1.4,0,0,1-.5,1.2Z" fill="#2c6752"/><path d="M18.3,14.9c-.2-.4.2-.9.4-1.2a1.2,1.2,0,0,1-.4,1.2Z" fill="#2c6752"/><path d="M19,14.6c-.2-.3,0-.9.4-1.2a1.1,1.1,0,0,1-.4,1.2Z" fill="#2c6752"/><path d="M19.6,14.2a1,1,0,0,1,.3-1.1c.2.3,0,.9-.3,1.1Z" fill="#2c6752"/><path d="M20.2,13.8a1.2,1.2,0,0,1,.3-1.2,1.2,1.2,0,0,1-.3,1.2Z" fill="#2c6752"/><path d="M20.6,13.7c-.1-.4.7-.9,1-.9s-.4.7-1,.9Z" fill="#2c6752"/><path d="M20.2,14.2a1.5,1.5,0,0,1,1.3-.3c-.1.2-.9.7-1.3.3Z" fill="#2c6752"/><path d="M19.7,14.5c.5-.1.8-.2,1.1.1s-1,.2-1.1-.1Z" fill="#2c6752"/><path d="M19,14.8a.9.9,0,0,1,1.2.3,1.1,1.1,0,0,1-1.2-.3Z" fill="#2c6752"/><path d="M18.3,15.2a1.1,1.1,0,0,1,1.1.3.9.9,0,0,1-1.1-.3Z" fill="#2c6752"/><path d="M17.7,15.4a1.2,1.2,0,0,1,1.1.5c-.6.1-.9-.1-1.1-.5Z" fill="#2c6752"/><path d="M17.6,15.8l-.9-.3-1-.2,1,.3.9.2Z" fill="#2c6752"/><path d="M16,15.2a1.1,1.1,0,0,0-.5-1.2,1.4,1.4,0,0,0,.5,1.2Z" fill="#2c6752"/><path d="M15.3,14.9c.2-.4-.2-.9-.4-1.2a1.2,1.2,0,0,0,.4,1.2Z" fill="#2c6752"/><path d="M14.6,14.6c.3-.3,0-.9-.4-1.2a1.1,1.1,0,0,0,.4,1.2Z" fill="#2c6752"/><path d="M13.9,14.2a1,1,0,0,0-.3-1.1c-.2.3,0,.9.3,1.1Z" fill="#2c6752"/><path d="M13.4,13.8a1.2,1.2,0,0,0-.3-1.2,1.2,1.2,0,0,0,.3,1.2Z" fill="#2c6752"/><path d="M12.9,13.7c.1-.4-.7-.9-1-.9s.4.7,1,.9Z" fill="#2c6752"/><path d="M13.4,14.2a1.5,1.5,0,0,0-1.3-.3c.1.2.9.7,1.3.3Z" fill="#2c6752"/><path d="M13.9,14.5c-.5-.1-.8-.2-1.1.1s1,.2,1.1-.1Z" fill="#2c6752"/><path d="M14.6,14.8a.9.9,0,0,0-1.2.3,1.1,1.1,0,0,0,1.2-.3Z" fill="#2c6752"/><path d="M15.2,15.2a1.1,1.1,0,0,0-1.1.3.9.9,0,0,0,1.1-.3Z" fill="#2c6752"/><path d="M15.8,15.4a1.2,1.2,0,0,0-1.1.5c.6.1.9-.1,1.1-.5Z" fill="#2c6752"/></g></g></svg>