<svg xmlns="http://www.w3.org/2000/svg" xmlns:xlink="http://www.w3.org/1999/xlink" viewBox="0 0 33.7 19.7"><defs><clipPath id="a" transform="translate(-618.5 -481.1)"><rect x="618.6" y="481.2" width="33.6" height="19.57" fill="none"/></clipPath></defs><title>DZA</title><g clip-path=""><rect x="0.1" y="0.1" width="33.6" height="19.57" fill="#fff"/><path d="M652.2,500.8H618.5V481.1h33.7v19.7Zm-33.6-.1h33.5V481.2H618.6v19.5Z" transform="translate(-618.5 -481.1)"/><rect x="0.1" y="0.1" width="16.8" height="19.57" fill="#2f742e"/><g clip-path=""><path d="M639,494a3.9,3.9,0,0,1-4.9-6.1,4,4,0,0,1,5.5.6,5.8,5.8,0,0,0-1.8-1.7,4.9,4.9,0,0,0-6.7,1.7,5,5,0,0,0,1.8,6.7,4.8,4.8,0,0,0,6.7-1.8,1.7,1.7,0,0,1-.6.6Z" transform="translate(-618.5 -481.1)" fill="#c0003b"/><polygon points="18.5 10.7 19.6 12.2 19.6 10.4 21.3 9.8 19.6 9.3 19.6 7.5 18.5 8.9 16.8 8.4 17.9 9.8 16.8 11.3 18.5 10.7" fill="#c0003b"/></g></g></svg>