<svg xmlns="http://www.w3.org/2000/svg" xmlns:xlink="http://www.w3.org/1999/xlink" viewBox="0 0 33.6 19.6"><defs><clipPath id="a" transform="translate(-460.5 -484.9)"><rect x="460.5" y="485" width="33.6" height="19.58" fill="none"/></clipPath></defs><title>EGY</title><g clip-path=""><rect y="13.1" width="33.6" height="6.53"/><g clip-path=""><path d="M494.1,504.6H460.5V498h33.6v6.6Zm-33.5-.1h33.5v-6.4H460.6v6.4Z" transform="translate(-460.5 -484.9)"/></g><rect y="6.6" width="33.6" height="6.52" fill="#fff"/><g clip-path=""><path d="M494.1,498.1H460.5v-6.6h33.6v6.6Zm-33.5-.1h33.5v-6.5H460.6V498Z" transform="translate(-460.5 -484.9)" fill="#fff"/></g><rect width="33.6" height="6.53" fill="#bc0030"/><g clip-path=""><path d="M494.1,491.5H460.5v-6.6h33.6v6.6Zm-33.5,0h33.5V485H460.6v6.5Z" transform="translate(-460.5 -484.9)" fill="#bc0030"/><path d="M477.1,497.9l1.6-.2c.2,0,.2-.1.2-.2l.2-.2c-.1,0-.1-.2-.3-.2s-.2-.2-.3-.1h-2.7c-.2-.1-.4-.1-.4.1s-.1.2-.2.2,0,.1.2.2,0,.2.1.2l1.6.2Z" transform="translate(-460.5 -484.9)" fill="#fff"/><path d="M477.1,497.9h-1.6c-.2-.1-.2-.2-.2-.3a.1.1,0,0,1-.1-.1h-.1a.1.1,0,0,1,.1-.1h.2c0-.2.2-.3.4-.2h2.7c.2-.1.3,0,.4.2h.1c0,.1-.1.2-.2.3Zm-1.8-.6h.1c0,.1,0,.1.1.1l1.6.2,1.6-.2c.1,0,.1,0,.1-.1h.2c-.1,0-.1,0-.1-.1h-.1s0-.1-.2-.1h-.1l-1.4.2h-1.5a.1.1,0,0,0-.1.1h-.2Z" transform="translate(-460.5 -484.9)" fill="#f0c727"/><path d="M475.7,497.2Z" transform="translate(-460.5 -484.9)" fill="#f4d134"/><path d="M475.7,497.3a.1.1,0,0,1-.1-.1h.1Z" transform="translate(-460.5 -484.9)" fill="#f0c727"/><path d="M475.7,497.1c-.1,0-.1.1,0,.1Z" transform="translate(-460.5 -484.9)" fill="#f4d134"/><path d="M475.7,497.2h0Z" transform="translate(-460.5 -484.9)" fill="#f0c727"/><path d="M475.7,497.5c-.1,0-.1.1,0,.1Z" transform="translate(-460.5 -484.9)" fill="#f4d134"/><path d="M475.7,497.6h0Z" transform="translate(-460.5 -484.9)" fill="#f0c727"/><path d="M475.8,497.5c-.1,0-.1.1,0,.1Z" transform="translate(-460.5 -484.9)" fill="#f4d134"/><path d="M475.8,497.6h-.1c0-.1,0-.1.1-.1Z" transform="translate(-460.5 -484.9)" fill="#f0c727"/><path d="M475.9,497.6Z" transform="translate(-460.5 -484.9)" fill="#f4d134"/><path d="M475.9,497.6h0Z" transform="translate(-460.5 -484.9)" fill="#f0c727"/><path d="M477.5,497.3Z" transform="translate(-460.5 -484.9)" fill="#f4d134"/><path d="M477.5,497.4h0Z" transform="translate(-460.5 -484.9)" fill="#f0c727"/><path d="M477.5,497.4Z" transform="translate(-460.5 -484.9)" fill="#f4d134"/><path d="M477.5,497.4Z" transform="translate(-460.5 -484.9)" fill="none"/><path d="M477.6,497.7Z" transform="translate(-460.5 -484.9)" fill="#f4d134"/><path d="M477.6,497.7h0Z" transform="translate(-460.5 -484.9)" fill="#f0c727"/><path d="M477.7,497.7Z" transform="translate(-460.5 -484.9)" fill="#f4d134"/><path d="M477.7,497.7h0Z" transform="translate(-460.5 -484.9)" fill="#f0c727"/><path d="M478.7,497.4h0Z" transform="translate(-460.5 -484.9)" fill="#f4d134"/><path d="M478.7,497.5h0a.1.1,0,0,1,.1.1Z" transform="translate(-460.5 -484.9)" fill="#f0c727"/><path d="M476,497.5h-.3v-.2h.1c0,.1,0,.1-.1.2h.4a.1.1,0,0,1-.1.1Z" transform="translate(-460.5 -484.9)" fill="#f0c727"/><path d="M475.8,497.5h0Z" transform="translate(-460.5 -484.9)" fill="#f0c727"/><path d="M476.5,497.7H476c.1,0,.1,0,.1-.1h0a.1.1,0,0,1,.1.1h.1c-.1,0-.1-.1,0-.1h.2v-.2h.1v.2a.3.3,0,0,1-.1.2Z" transform="translate(-460.5 -484.9)" fill="#f0c727"/><path d="M476.6,497.6h0v-.2h.1v.2Z" transform="translate(-460.5 -484.9)" fill="#f0c727"/><path d="M476.7,497.8h.1v.2Zm.2-.2h.3c-.1.1-.2.1-.2,0h-.1Z" transform="translate(-460.5 -484.9)" fill="#f0c727"/><path d="M477.3,497.6Z" transform="translate(-460.5 -484.9)" fill="#f0c727"/><path d="M477.5,497.6h0c0-.1,0-.1.1-.1a.3.3,0,0,0-.1-.2h.1v.2h.2c0,.1,0,.1-.1.1h-.2Z" transform="translate(-460.5 -484.9)" fill="#f0c727"/><path d="M477.8,497.7h0c.1,0,.1,0,.1.1s0,.1,0,.2Z" transform="translate(-460.5 -484.9)" fill="#f0c727"/><path d="M478,497.7h.5l-.4.2Z" transform="translate(-460.5 -484.9)" fill="#f0c727"/><path d="M478.3,497.6h0a.1.1,0,0,0-.1-.1h.2a.1.1,0,0,1-.1.1Z" transform="translate(-460.5 -484.9)" fill="#f0c727"/><path d="M478.5,497.5a.1.1,0,0,1-.1-.1h.2a.1.1,0,0,1-.1.1Z" transform="translate(-460.5 -484.9)" fill="#f0c727"/><path d="M478.6,497.4h0Z" transform="translate(-460.5 -484.9)" fill="none"/><path d="M478.7,497.4h0c-.1,0-.1-.1-.1-.2h-.2c.1,0,.1-.1.2,0h.1Z" transform="translate(-460.5 -484.9)" fill="#f0c727"/><path d="M476.2,497.4h0Z" transform="translate(-460.5 -484.9)" fill="none"/><path d="M476.4,497.4Z" transform="translate(-460.5 -484.9)" fill="none"/><path d="M477.2,494.9l2.2,2.1-.2-3.7c0-.6-.5-.5-.9-.3a1,1,0,0,1-1.2.1,1.1,1.1,0,0,1-1.2-.1c-.3-.2-.8-.3-.8.3l-.2,3.7Z" transform="translate(-460.5 -484.9)" fill="#fff"/><path d="M474.9,497h0v-3.8a.4.4,0,0,1,.4-.4l.5.2a1.7,1.7,0,0,0,1.2.1,1.6,1.6,0,0,0,1.2-.1l.6-.2c.1,0,.3.1.3.4l.2,3.8h-.1l-2.1-2-2.3,2Zm.5-4.1c-.2,0-.3.1-.3.4l-.2,3.6,2.2-2h.1l2.1,2v-3.6c0-.5-.4-.5-.8-.2a1.5,1.5,0,0,1-1.3,0,1.3,1.3,0,0,1-1.2,0,.6.6,0,0,0-.5-.2Z" transform="translate(-460.5 -484.9)" fill="#f0c727"/><path d="M477.5,493.2h.3a1.6,1.6,0,0,1-.3-.9c.1-.4,0-.6-.3-.7h-.6a.2.2,0,0,0-.2.2h.1a.1.1,0,0,1,.1.1l.2.2a1,1,0,0,1-.4,1.1h.4l-.2.2a.5.5,0,0,0,.4-.2v.2c.1-.1.1-.2.2-.2s.2.2.3.2-.1-.1-.1-.2Z" transform="translate(-460.5 -484.9)" fill="#fff"/><path d="M476.6,493.4h-.2a1.4,1.4,0,0,0,.4-1.1l-.2-.2h0a.1.1,0,0,1-.1-.1h-.1c0-.2.2-.2.3-.2h.2c0-.1,0-.1.1-.1h.2c.3.1.4.3.3.7a1.6,1.6,0,0,0,.3.9h-.2c-.1,0-.2,0-.3-.2H477c-.1.2-.2.2-.3.2Zm.7-.3h.4a1.6,1.6,0,0,1-.2-.9q0-.6-.3-.6h-.6s-.1-.1-.1.1h.2v.2a1,1,0,0,1-.3,1.1h.3c0,.1,0,.1-.1.1h.4a.1.1,0,0,0,.1-.1h.1Z" transform="translate(-460.5 -484.9)" fill="#f0c727"/><path d="M477.5,493.3h0a1.1,1.1,0,0,1-.2-.6h.1a4.3,4.3,0,0,0,.1.5Z" transform="translate(-460.5 -484.9)" fill="#f0c727"/><path d="M477.3,493.2h-.1v-.5h0a.7.7,0,0,0,.1.5Z" transform="translate(-460.5 -484.9)" fill="#f0c727"/><path d="M476.8,493.3h-.1a.8.8,0,0,0,.2-.5h0a1.1,1.1,0,0,1-.1.6Z" transform="translate(-460.5 -484.9)" fill="#f0c727"/><path d="M477,493.2h0a4.3,4.3,0,0,0,.1-.5h0c0,.3,0,.4-.1.5Z" transform="translate(-460.5 -484.9)" fill="#f0c727"/><path d="M476.5,491.9h.1l.2.2h.1a.4.4,0,0,0-.4-.2Z" transform="translate(-460.5 -484.9)" fill="#f0c727"/><path d="M476.8,492.2h0l-.2-.2h0c.1,0,.2,0,.3.2h-.1Zm-.3-.3h.1l.2.2h.1a.4.4,0,0,0-.4-.2Z" transform="translate(-460.5 -484.9)" fill="#f0c727"/><polygon points="16.7 10.4 17 11.8 16.9 11.9 16.8 11.8 16.7 10.6 16.7 11.8 16.6 11.9 16.5 11.8 16.6 10.6 16.4 11.8 16.3 11.9 16.2 11.8 16.5 10.4 16.7 10.4" fill="#f0c727"/><path d="M477.1,496.9H477v0h-.3l.3-1.5h.2l.4,1.4v.2h-.2v0Zm0-1.4v1.3h.1v-1.2Zm.1-.2H477l-.2,1.3h.1l.2-1.2h.1l.2,1.3h.1l-.3-1.4Z" transform="translate(-460.5 -484.9)" fill="#f0c727"/><path d="M475.3,493.1v3.6l-.3.3.2-3.7c0-.1.2-.2.2-.2Z" transform="translate(-460.5 -484.9)" fill="#f0c727"/><path d="M475.6,493.4v3l-.3.3.2-3.5.2.2Z" transform="translate(-460.5 -484.9)" fill="#f0c727"/><path d="M475.9,493.6v2.5l-.2.2v-2.8Z" transform="translate(-460.5 -484.9)" fill="#f0c727"/><path d="M476.2,493.7v2.2l-.2.2v-2.4Z" transform="translate(-460.5 -484.9)" fill="#f0c727"/><path d="M476.5,493.7v1.8l-.2.2v-1.9s.2,0,.2-.1Z" transform="translate(-460.5 -484.9)" fill="#f0c727"/><path d="M479,493.1v3.6l.3.3-.2-3.7-.2-.2Z" transform="translate(-460.5 -484.9)" fill="#f0c727"/><path d="M478.6,493.4l.2,3,.2.2v-3.4l-.3.2Z" transform="translate(-460.5 -484.9)" fill="#f0c727"/><path d="M478.4,493.6v2.5l.2.2-.2-2.8Z" transform="translate(-460.5 -484.9)" fill="#f0c727"/><path d="M478.1,493.7v2.1l.2.2v-2.3Z" transform="translate(-460.5 -484.9)" fill="#f0c727"/><path d="M477.8,493.7v1.8l.2.2v-1.9c-.1,0-.2,0-.2-.1Z" transform="translate(-460.5 -484.9)" fill="#f0c727"/><polygon points="15.9 9.8 15.3 11.9 16.2 12.1 16.5 10.4 15.9 9.8" fill="#fff"/><path d="M476.7,497h-.9l.6-2.2h.1l.6.7-.4,1.6Zm-.8-.1h.7l.4-1.6-.5-.6-.6,2.1Z" transform="translate(-460.5 -484.9)" fill="#f0c727"/><polygon points="17.3 9.8 17.9 11.9 17.1 12.1 16.7 10.4 17.3 9.8" fill="#fff"/><path d="M477.6,497h0l-.4-1.6.6-.7h.1l.6,2.2h-.9Zm.2-2.2-.5.6.3,1.6h.8l-.6-2.1Z" transform="translate(-460.5 -484.9)" fill="#f0c727"/><path d="M476.3,495.7h0v.2l.2-.2h.1l-.3.3Z" transform="translate(-460.5 -484.9)" fill="#f0c727"/><path d="M476.6,495.8h0v-.7h0a.1.1,0,0,1,.1.1v.6l.2-.3h.1l-.3.3Z" transform="translate(-460.5 -484.9)" fill="#f0c727"/><path d="M476.9,496h0l-.2-.4h0c.1-.1.1,0,.1,0v.3Z" transform="translate(-460.5 -484.9)" fill="#f0c727"/><path d="M476.7,496.3h-.1v-.2h0v-.2l-.2.2h0l.2-.2h0v0h.1v.3l.2-.2h0l-.2.2Z" transform="translate(-460.5 -484.9)" fill="#f0c727"/><path d="M476.8,496.8c-.1,0-.1,0-.1-.1v-.3l-.2.2h-.1v-.2h-.2l-.2-.3h.1v.2h.1v0h.1v.4Z" transform="translate(-460.5 -484.9)" fill="#f0c727"/><path d="M476.5,497.1h0v0h0v-.3l-.2.2h0v-.2h.1v.1h.1v.3h0a.1.1,0,0,1-.1.1Z" transform="translate(-460.5 -484.9)" fill="#f0c727"/><path d="M478,495.7h-.1l-.2-.3h.1v0h0c.1,0,.1,0,.1.1H478Z" transform="translate(-460.5 -484.9)" fill="#f0c727"/><path d="M477.7,495.8h-.1l-.2-.3h0l.2.3v-.6c0-.1,0-.1.1-.1h0v.7Z" transform="translate(-460.5 -484.9)" fill="#f0c727"/><path d="M477.4,496h0c-.1,0-.1,0-.1-.1l.2-.3h0v.4Z" transform="translate(-460.5 -484.9)" fill="#f0c727"/><path d="M477.6,496.3h0l-.2-.2h0l.2.2v-.3h0v0h.1l.2.2h0l-.2-.2v.2h-.1v.2Z" transform="translate(-460.5 -484.9)" fill="#f0c727"/><path d="M477.5,496.8h0v-.4h0l.2.2v-.2h0l.2.2v-.4h.1l-.2.3h-.2v.2h0l-.2-.2v.3Z" transform="translate(-460.5 -484.9)" fill="#f0c727"/><path d="M477.7,497.1h0v-.3h.1v-.1h0l.2.2h-.1v.1h-.1v0h-.1Z" transform="translate(-460.5 -484.9)" fill="#f0c727"/><path d="M477.1,493.5a1.2,1.2,0,0,0,1,.2,2.2,2.2,0,0,1-1,2,2.1,2.1,0,0,1-.9-2,1,1,0,0,0,.9-.2Z" transform="translate(-460.5 -484.9)" fill="#fff"/><path d="M477.1,495.7h0a2.4,2.4,0,0,1-1-2h.2a1.1,1.1,0,0,0,.8-.3,1.7,1.7,0,0,0,1,.3,2,2,0,0,1-1,2Zm-.9-1.9a2.2,2.2,0,0,0,.9,1.9,2.1,2.1,0,0,0,1-2,.1.1,0,0,1-.1.1,1.6,1.6,0,0,1-.9-.3,1.1,1.1,0,0,1-.8.3h-.1Z" transform="translate(-460.5 -484.9)" fill="#f0c727"/><path d="M477.1,495.6a2,2,0,0,0,.9-1.8l-.9-.2-.9.2a2.6,2.6,0,0,0,.9,1.8Z" transform="translate(-460.5 -484.9)" fill="#f0c727"/><path d="M477.1,495.6h0a2.4,2.4,0,0,1-.9-1.8h0a1.2,1.2,0,0,0,.9-.3h.1c.1.2.4.3.8.3h0a2.1,2.1,0,0,1-.8,1.8Zm-.8-1.8a2.2,2.2,0,0,0,.8,1.8,2.6,2.6,0,0,0,.9-1.8,1.6,1.6,0,0,1-.9-.2,1.1,1.1,0,0,1-.8.2Z" transform="translate(-460.5 -484.9)" fill="#f0c727"/><path d="M476.3,496.9h.6c.1,0,.2.2,0,.2h-1.3c-.1-.1,0-.3.1-.2Z" transform="translate(-460.5 -484.9)" fill="#fff"/><path d="M476.7,497.2h-1.1v-.2h.2l.6.2h.6a.1.1,0,0,1,.1.1c0,.1,0,.1-.1.1Zm-1-.4h0l.5.2h.6a.1.1,0,0,0,.1-.1h0c-.2.1-.5,0-.6,0Z" transform="translate(-460.5 -484.9)" fill="#f0c727"/><path d="M478,496.9h-.6c-.1,0-.2.2,0,.2h1.2c.2-.1.1-.3,0-.2Z" transform="translate(-460.5 -484.9)" fill="#fff"/><path d="M477.6,497.2h-.2c-.1,0-.2,0-.1-.1s0-.1.1-.1h.6l.6-.2a.1.1,0,0,1,.1.1c0,.1.1.1-.1.2h-1Zm-.2-.3h.6l.6-.2H478c-.2,0-.4.1-.6,0Z" transform="translate(-460.5 -484.9)" fill="#f0c727"/><path d="M475.6,496.8a.2.2,0,0,0-.2.2c.1,0,.2,0,.2-.1Z" transform="translate(-460.5 -484.9)" fill="#fff"/><path d="M475.4,497.1h0v-.3h.2c0,.1,0,.1-.1.1h-.1Zm.2-.3h-.1a.1.1,0,0,1,.1-.1h0Z" transform="translate(-460.5 -484.9)" fill="#f0c727"/><path d="M476.2,497.3c0-.1.1-.1.1-.2v-.2a.1.1,0,0,0-.1.1c-.1.1,0,.2,0,.3Z" transform="translate(-460.5 -484.9)" fill="#fff"/><path d="M476.2,497.3h0c-.1-.1-.1-.1-.1-.2h.2a.3.3,0,0,1,.1.2h-.2Zm.1-.3h0Z" transform="translate(-460.5 -484.9)" fill="#f0c727"/><path d="M477,497c.1,0,.1.2,0,.3s-.1-.1-.1-.2a.1.1,0,0,1,.1-.1Z" transform="translate(-460.5 -484.9)" fill="#fff"/><path d="M477,497.3h0c0-.1,0-.1-.1-.1h.2v.3Zm0-.3h0c.1-.1.1-.1,0-.2Z" transform="translate(-460.5 -484.9)" fill="#f0c727"/><path d="M478.6,496.8c.2,0,.3.1.2.2a.1.1,0,0,1-.1-.1Z" transform="translate(-460.5 -484.9)" fill="#fff"/><path d="M478.8,497.1h0c0-.1,0-.1-.1-.1h-.1a.1.1,0,0,1,.2,0,.4.4,0,0,1,.1.3Zm-.1-.3h0Z" transform="translate(-460.5 -484.9)" fill="#f0c727"/><path d="M478,497.3c0-.1-.1-.1-.1-.2a.3.3,0,0,1,.1-.2.1.1,0,0,1,.1.1c0,.1-.1.2-.1.3Z" transform="translate(-460.5 -484.9)" fill="#fff"/><path d="M478,497.3h-.1c0-.1,0-.2.1-.2a.1.1,0,0,1,.1.1c.1.1,0,.1,0,.2H478Zm0-.3h0c.1,0,.1,0,.1-.1Z" transform="translate(-460.5 -484.9)" fill="#f0c727"/><path d="M477.3,497c-.2,0-.1.2-.1.3s.2-.1.2-.2-.2-.1-.1-.1Z" transform="translate(-460.5 -484.9)" fill="#fff"/><path d="M477.2,497.3h0c0-.1-.1-.2,0-.3a.1.1,0,0,1,.1-.1h0a.1.1,0,0,1,.1.1h-.2Zm.1-.3h-.1v.2h.1Z" transform="translate(-460.5 -484.9)" fill="#f0c727"/><path d="M475.7,496.8h0Z" transform="translate(-460.5 -484.9)" fill="#fff"/><path d="M475.8,496.9Z" transform="translate(-460.5 -484.9)" fill="#f0c727"/><path d="M475.9,496.9c.1,0,.2,0,.2.1Z" transform="translate(-460.5 -484.9)" fill="#fff"/><path d="M476.1,497Z" transform="translate(-460.5 -484.9)" fill="#f0c727"/><path d="M476.9,497h0Z" transform="translate(-460.5 -484.9)" fill="#fff"/><path d="M476.7,497.1h0Z" transform="translate(-460.5 -484.9)" fill="#f0c727"/><path d="M476.6,497h0Z" transform="translate(-460.5 -484.9)" fill="#fff"/><path d="M476.6,497h-.2a.1.1,0,0,1,.2,0Z" transform="translate(-460.5 -484.9)" fill="#f0c727"/><path d="M478.6,496.8h0Z" transform="translate(-460.5 -484.9)" fill="#fff"/><path d="M478.4,496.9Z" transform="translate(-460.5 -484.9)" fill="#f0c727"/><path d="M478.3,496.9a.1.1,0,0,0-.1.1Z" transform="translate(-460.5 -484.9)" fill="#fff"/><path d="M478.2,497h0Z" transform="translate(-460.5 -484.9)" fill="#f0c727"/><path d="M477.4,497h0Z" transform="translate(-460.5 -484.9)" fill="#fff"/><path d="M477.6,497.1Z" transform="translate(-460.5 -484.9)" fill="#f0c727"/><path d="M477.7,497h0Z" transform="translate(-460.5 -484.9)" fill="#fff"/><path d="M477.9,497h-.2c0-.1.1,0,.2,0Z" transform="translate(-460.5 -484.9)" fill="#f0c727"/><path d="M477.5,492c-.1-.2-.1-.3-.3-.3H477a.1.1,0,0,0-.1.1h.1c.1.1.1,0,.2,0s.2-.1.3.1Z" transform="translate(-460.5 -484.9)" fill="#f0c727"/><path d="M477,492h.2l.3.2H477Zm0-.3a.1.1,0,0,0-.1.1h.1c.1.1.1,0,.2,0h.2l-.2-.2H477Z" transform="translate(-460.5 -484.9)" fill="#f0c727"/><path d="M477,491.8h0c.1,0,.1-.1,0-.1Z" transform="translate(-460.5 -484.9)" fill="#fff"/><path d="M477,491.9h-.1c0-.1.2-.1.2,0Z" transform="translate(-460.5 -484.9)" fill="#fff"/><path d="M477.4,493.7v1.6l-.3.3-.3-.3v-1.6h.6Z" transform="translate(-460.5 -484.9)" fill="#fff"/></g></g></svg>