<svg xmlns="http://www.w3.org/2000/svg" xmlns:xlink="http://www.w3.org/1999/xlink" viewBox="0 0 33.6 19.6"><defs><clipPath id="a"><rect width="33.6" height="19.58" fill="#fff"/></clipPath><clipPath id="b"><rect width="33.6" height="19.58" fill="none"/></clipPath></defs><title>GEO</title><rect width="33.6" height="19.58" fill="#fff"/><g clip-path=""><g clip-path=""><path d="M8,4.4a10.1,10.1,0,0,1-.1,1.1v.3H9.1V5.5A9.5,9.5,0,0,1,9,4.4l1.4.2a5.7,5.7,0,0,1,0-1.3L9,3.4A9.2,9.2,0,0,1,9.1,2H7.8A11,11,0,0,1,8,3.4L6.6,3.2a5.1,5.1,0,0,1,0,.7,5,5,0,0,1,0,.7L8,4.4" fill="#d50037"/><path d="M24.6,4.4a10.1,10.1,0,0,1-.1,1.1v.3h1.3V5.5a9.1,9.1,0,0,1-.1-1.1l1.4.2a5,5,0,0,1,0-1.3l-1.4.2A11,11,0,0,1,25.8,2H24.4a10.1,10.1,0,0,1,.2,1.4l-1.4-.2a5.5,5.5,0,0,1,0,1.3l1.4-.2" fill="#d50037"/><path d="M9,15.2a9.5,9.5,0,0,1,.1-1.1v-.3H7.8v.3A10,10,0,0,1,8,15.2L6.6,15a5.2,5.2,0,0,1,0,1.3L8,16.2a11,11,0,0,1-.2,1.4H9.1A9.2,9.2,0,0,1,9,16.2l1.4.2a5.7,5.7,0,0,1,0-1.3L9,15.2" fill="#d50037"/><path d="M25.6,15.2a10,10,0,0,1,.1-1.1v-.3H24.4v.3a10,10,0,0,1,.1,1.1L23.2,15a5.4,5.4,0,0,1,0,1.3l1.4-.2a10,10,0,0,1-.2,1.4h1.3a11,11,0,0,1-.2-1.4l1.4.2A5,5,0,0,1,27,15l-1.4.2" fill="#d50037"/><rect x="14.8" width="3.9" height="19.58" fill="#d50037"/><rect y="7.8" width="33.6" height="3.95" fill="#d50037"/></g></g></svg>