<svg xmlns="http://www.w3.org/2000/svg" xmlns:xlink="http://www.w3.org/1999/xlink" viewBox="0 0 33.6 19.6"><defs><clipPath id="a"><rect width="33.6" height="19.58" fill="none"/></clipPath></defs><title>GRD</title><g clip-path=""><rect width="33.6" height="19.58" fill="#bc0030"/><rect x="3.2" y="2.7" width="27.1" height="14.1" fill="#347b5e"/><polygon points="3.2 16.8 16.8 9.8 30.4 16.8 3.2 16.8" fill="#f3d02f"/><polygon points="3.2 2.7 16.8 9.8 30.4 2.7 3.2 2.7" fill="#f3d02f"/><g clip-path=""><path d="M19.1,9.8a2.3,2.3,0,1,0-2.3,2.4,2.3,2.3,0,0,0,2.3-2.4" fill="#bc0030"/><polygon points="14.7 9.1 16.3 9.1 16.8 7.6 17.3 9.1 18.8 9.1 17.6 10 18 11.5 16.8 10.6 15.5 11.5 16 10 14.7 9.1" fill="#f3d02f"/><polygon points="9 1 10 1 10.3 0.1 10.5 1 11.5 1 10.7 1.5 11 2.4 10.3 1.9 9.5 2.4 9.8 1.5 9 1" fill="#f3d02f"/><polygon points="15.6 1 16.5 1 16.8 0.1 17.1 1 18 1 17.2 1.5 17.5 2.4 16.8 1.9 16 2.4 16.3 1.5 15.6 1" fill="#f3d02f"/><polygon points="22.1 1 23 1 23.3 0.1 23.6 1 24.5 1 23.8 1.5 24.1 2.4 23.3 1.9 22.6 2.4 22.8 1.5 22.1 1" fill="#f3d02f"/><polygon points="9 17.8 10 17.8 10.3 16.9 10.5 17.8 11.5 17.8 10.7 18.4 11 19.2 10.3 18.7 9.5 19.2 9.8 18.4 9 17.8" fill="#f3d02f"/><polygon points="15.6 17.8 16.5 17.8 16.8 16.9 17.1 17.8 18 17.8 17.2 18.4 17.5 19.2 16.8 18.7 16 19.2 16.3 18.4 15.6 17.8" fill="#f3d02f"/><polygon points="22.1 17.8 23 17.8 23.3 16.9 23.6 17.8 24.5 17.8 23.8 18.4 24.1 19.2 23.3 18.7 22.6 19.2 22.8 18.4 22.1 17.8" fill="#f3d02f"/><path d="M4.9,9.8a3.3,3.3,0,0,0,1.4,1.4,4.6,4.6,0,0,0-.5-1.8Z" fill="#bc0030"/><path d="M4.4,7.9c.4.9-1.1,3,1.4,3.5a2.6,2.6,0,0,1-.4-1.7A2.9,2.9,0,0,1,6.7,11C7.4,8.6,5,8.7,4.4,7.9" fill="#f3d02f"/></g></g></svg>