<svg xmlns="http://www.w3.org/2000/svg" xmlns:xlink="http://www.w3.org/1999/xlink" viewBox="0 0 33.6 19.6"><defs><clipPath id="a"><rect width="33.6" height="19.58" fill="none"/></clipPath></defs><title>GTM</title><g clip-path=""><rect width="11.2" height="19.58" fill="#92c5e0"/><rect x="11.2" width="11.2" height="19.58" fill="#fff"/><rect x="22.4" width="11.2" height="19.58" fill="#92c5e0"/><g clip-path=""><path d="M17.1,13.3H17l-1-.3h-.3l-.7-.2H15l-.3-.2a3.6,3.6,0,0,1-.9-1.1,3.7,3.7,0,0,1-.5-1.7,6.2,6.2,0,0,1,.1-1.2A4.5,4.5,0,0,1,14,6.7h-.1a4.5,4.5,0,0,0-.7,1.5,6.2,6.2,0,0,0-.1,1.2,3.8,3.8,0,0,0,.5,1.7,3.7,3.7,0,0,0,.9,1.1l.3.2H15l.7.2h.3l1,.3h.2Z" fill="#3e9a13"/><path d="M17.1,13.3h-.1l-1-.3H14.4a3.1,3.1,0,0,1-.8-.9v-.2a3.2,3.2,0,0,1-.4-1.5c0-.1,0-.3,0-.4a2.8,2.8,0,0,1,.1-.7,4.5,4.5,0,0,1,.7-1.5h.1a4.7,4.7,0,0,0-.6,1.6,2.9,2.9,0,0,0-.1.7c0,.1,0,.3,0,.4a3.2,3.2,0,0,0,.4,1.5v.2a3,3,0,0,0,.8,1H16l1,.3h.1ZM13.9,6.7h0a4.5,4.5,0,0,0-.7,1.5,2.8,2.8,0,0,0-.1.7c0,.1,0,.3,0,.4a3.2,3.2,0,0,0,.4,1.5v.2a3,3,0,0,0,.8.9h1.5l1,.3H17l-1-.3H14.5a3,3,0,0,1-.8-1v-.2a3.2,3.2,0,0,1-.4-1.5c0-.1,0-.3,0-.4a3,3,0,0,1,.1-.7,4.5,4.5,0,0,1,.7-1.5Z"/><path d="M17.1,13.3h-.2l-1-.3H14.4a3,3,0,0,1-.8-.9v-.2a3.3,3.3,0,0,1-.4-1.5c0-.1,0-.3,0-.4a2.8,2.8,0,0,1,.1-.7,4.4,4.4,0,0,1,.7-1.6h0a4.5,4.5,0,0,0-.7,1.5,2.9,2.9,0,0,0-.1.7c0,.1,0,.3,0,.4a3.3,3.3,0,0,0,.4,1.5v.2a3,3,0,0,0,.8.9h1.5l1,.3Z" fill="#ba0027"/><path d="M15.9,12.8a2.4,2.4,0,0,0-1.1.6c.8,0,1.2-.4,1.1-.6Z" fill="#3e9a13"/><path d="M15.5,12.7a2.5,2.5,0,0,0-1.1.6c.8,0,1.2-.4,1.1-.6Z" fill="#3e9a13"/><path d="M16,12.9a2.6,2.6,0,0,0-.6-1.1c0,.8.4,1.3.6,1.1Z" fill="#3e9a13"/><path d="M15.8,12.7a2.6,2.6,0,0,0-.7-1.1c.1.8.5,1.2.7,1.1Z" fill="#3e9a13"/><path d="M15.1,12.5a2.3,2.3,0,0,0-.3-1.1c-.1.7.1,1.2.3,1.1Z" fill="#3e9a13"/><path d="M14.9,12.4a2.4,2.4,0,0,0-1.2,0c.7.3,1.3.2,1.2,0Z" fill="#3e9a13"/><path d="M14.6,12.2a2.4,2.4,0,0,0-1.2-.3c.6.5,1.2.5,1.2.3Z" fill="#3e9a13"/><path d="M14.7,12.1a2.3,2.3,0,0,0-.1-1.1c-.2.7-.1,1.2.1,1.1Z" fill="#3e9a13"/><path d="M14.4,11.9a2.1,2.1,0,0,0-.1-1c-.2.6-.1,1.1.1,1Z" fill="#3e9a13"/><path d="M14.3,11.9a2.4,2.4,0,0,0-1-.8c.3.7.8,1,1,.8Z" fill="#3e9a13"/><path d="M14,11.5a2.1,2.1,0,0,0,.1-1c-.3.6-.2,1-.1,1Z" fill="#3e9a13"/><path d="M13.8,11.1a2.3,2.3,0,0,0,.1-1.2c-.3.6-.3,1.1-.1,1.2Z" fill="#3e9a13"/><path d="M13.7,11.2a2,2,0,0,0-1-.3c.4.5.9.5,1,.3Z" fill="#3e9a13"/><path d="M13.5,10.6a2.3,2.3,0,0,0,.2-1.1c-.4.6-.4,1.1-.2,1.1Z" fill="#3e9a13"/><path d="M13.3,9.7a2,2,0,0,0,.5-.9c-.5.4-.6.8-.5.9Z" fill="#3e9a13"/><path d="M13.2,10a2,2,0,0,0-.8-.6c.3.6.7.8.8.6Z" fill="#3e9a13"/><path d="M13.2,9.4a2.1,2.1,0,0,0-.5-.9c0,.6.4,1,.5.9Z" fill="#3e9a13"/><path d="M13.2,8.6a1.8,1.8,0,0,0,.8-.5c-.6,0-.9.4-.8.5Z" fill="#3e9a13"/><path d="M13.3,8a2.1,2.1,0,0,0-.3-1c-.1.6.1,1.1.3,1Z" fill="#3e9a13"/><path d="M13.3,8.3a2.2,2.2,0,0,0,.9-.7c-.7.1-1,.5-.9.7Z" fill="#3e9a13"/><path d="M13.4,7.9a2.2,2.2,0,0,0,.8-.8c-.6.2-.9.7-.8.8Z" fill="#3e9a13"/><path d="M13.5,7.3a2.1,2.1,0,0,0,.1-1c-.3.6-.2,1-.1,1Z" fill="#3e9a13"/><path d="M13.8,6.9a1.7,1.7,0,0,0,0-.8c-.3.4-.2.8,0,.8Z" fill="#3e9a13"/><path d="M13.8,7.2a2.2,2.2,0,0,0,.8-.8c-.7.2-1,.6-.8.8Z" fill="#3e9a13"/><path d="M13.9,6.7a1.7,1.7,0,0,0,.4-.7c-.4.3-.5.7-.4.7Z" fill="#3e9a13"/><path d="M15.2,12.6a2.4,2.4,0,0,0-1.1.6c.8,0,1.2-.4,1.1-.6Z" fill="#3e9a13"/><path d="M13.2,9.3a1.7,1.7,0,0,0,.3-.8c-.5.4-.5.8-.3.8Z" fill="#3e9a13"/><path d="M13.6,10.8a2.5,2.5,0,0,0-1-.8c.3.7.8,1,1,.8Z" fill="#3e9a13"/><path d="M13.2,8.5a1.6,1.6,0,0,0-.5-.9c.1.6.4,1,.5.9Z" fill="#3e9a13"/><path d="M15.1,12.4c-.2.1-.4-.4-.3-1.1a3.8,3.8,0,0,0,.3,1.1Z" fill="#3e9a13"/><path d="M15.1,12.5h-.1a1.4,1.4,0,0,1-.1-1,4.2,4.2,0,0,0,.3,1.1h0Zm-.3-1.1a1.4,1.4,0,0,0,.2,1h.2a3.8,3.8,0,0,1-.3-1.1Z"/><path d="M15.9,12.8c.1.2-.3.6-1.1.6l1.1-.6Z" fill="#3e9a13"/><path d="M14.8,13.4h0l1.1-.6a.2.2,0,0,1,0,.2,1.3,1.3,0,0,1-1.1.4Zm1.1-.6-1.1.6a1.3,1.3,0,0,0,1.1-.4.2.2,0,0,0,0-.2Z"/><path d="M15.5,12.7c.1.2-.3.6-1.1.6l1.1-.6Z" fill="#3e9a13"/><path d="M14.4,13.2h0l1.1-.6a.2.2,0,0,1,0,.2,1.3,1.3,0,0,1-1.1.4Zm1.1-.6-1.1.6a1.3,1.3,0,0,0,1.1-.4.2.2,0,0,0,0-.2Z"/><path d="M16,12.9c-.2.1-.6-.4-.6-1.1a4.3,4.3,0,0,0,.6,1.1Z" fill="#3e9a13"/><path d="M16,12.9h-.2a1.6,1.6,0,0,1-.3-1.1,4.5,4.5,0,0,0,.6,1.1Zm-.5-1.2a1.6,1.6,0,0,0,.3,1.1H16a4,4,0,0,1-.6-1.1Z"/><path d="M15.7,12.7c-.2.1-.6-.3-.7-1.1a4.2,4.2,0,0,0,.7,1.1Z" fill="#3e9a13"/><path d="M15.7,12.7c-.2,0-.5-.4-.6-1.1a4.4,4.4,0,0,0,.7,1.1Zm-.6-1.1c.1.8.5,1.2.7,1.1a3.9,3.9,0,0,1-.7-1.1Z"/><path d="M14.9,12.4c0,.2-.5.4-1.2,0Z" fill="#3e9a13"/><path d="M14.5,12.7l-.8-.2h.8Zm-.8-.2.8.2h-.8Z"/><path d="M14.6,12.2c0,.2-.6.2-1.2-.3l1.2.3Z" fill="#3e9a13"/><path d="M14.3,12.4a1.6,1.6,0,0,1-.9-.4l1.2.3h0l-.3.2Zm-.9-.4a1.6,1.6,0,0,0,.9.4h.2L13.4,12Z"/><path d="M14.7,12.1c-.2,0-.4-.5-.1-1.1a3.8,3.8,0,0,0,.1,1.1Z" fill="#3e9a13"/><path d="M14.6,12.1h-.1a1.3,1.3,0,0,1,0-1.1,3.9,3.9,0,0,0,.1,1.1ZM14.5,11a1.3,1.3,0,0,0,0,1.1h.1a3.5,3.5,0,0,1-.1-1.1Z"/><path d="M14.3,11.9c-.2,0-.3-.4-.1-1a3.5,3.5,0,0,0,.1,1Z" fill="#3e9a13"/><path d="M14.3,11.9h-.1a1.2,1.2,0,0,1,0-1,3.6,3.6,0,0,0,.1,1Zm-.1-1a1.2,1.2,0,0,0,0,1h.1a3.3,3.3,0,0,1-.1-1Z"/><path d="M14.3,11.9c-.1.2-.7-.1-1-.8l1,.8Z" fill="#3e9a13"/><path d="M14.1,12c-.2,0-.6-.3-.8-.9l1,.8Zm-.8-.9c.3.7.8,1,1,.8l-1-.8Z"/><path d="M14,11.5c-.2,0-.3-.5.1-1a3.6,3.6,0,0,0-.1,1Z" fill="#3e9a13"/><path d="M14,11.5h-.1a1.1,1.1,0,0,1,.2-1,3.8,3.8,0,0,0,0,1Zm0-1a1.1,1.1,0,0,0-.2,1H14a4.2,4.2,0,0,1,.1-1Z"/><path d="M13.8,11c-.2,0-.3-.5.1-1.1a3.9,3.9,0,0,0-.1,1.1Z" fill="#3e9a13"/><path d="M13.8,11.1h-.1a1.3,1.3,0,0,1,.2-1.1,4,4,0,0,0-.1,1.1Zm0-1.2a1.3,1.3,0,0,0-.2,1.1h.1a4.2,4.2,0,0,1,.1-1.1Z"/><path d="M13.7,11.2c-.1.2-.5.1-1-.3l1,.3Z" fill="#3e9a13"/><path d="M13.5,11.3a1.2,1.2,0,0,1-.8-.4l.9.3h0l-.9-.3c.4.4.8.5.9.4Z"/><path d="M13.5,10.6c-.2,0-.2-.6.2-1.1a3.9,3.9,0,0,0-.2,1.1Z" fill="#3e9a13"/><path d="M13.5,10.6h-.1a1.3,1.3,0,0,1,.3-1,4.2,4.2,0,0,0-.2,1.1Zm.2-1.1a1.3,1.3,0,0,0-.3,1h.1a4.2,4.2,0,0,1,.2-1.1Z"/><path d="M13.3,9.7c-.2-.1,0-.5.5-.9l-.5.9Z" fill="#3e9a13"/><path d="M13.3,9.7h-.1a1.1,1.1,0,0,1,.5-.8l-.5.9Zm.5-.9a1.1,1.1,0,0,0-.5.8h.1l.5-.9Z"/><path d="M13.2,10c-.1.2-.5-.1-.8-.6l.8.6Z" fill="#3e9a13"/><path d="M13.1,10c-.2,0-.5-.2-.7-.7l.8.6Zm-.7-.7c.3.5.7.8.8.6l-.8-.6Z"/><path d="M13.2,9.4c-.2.1-.5-.2-.5-.9l.5.9Z" fill="#3e9a13"/><path d="M13.1,9.5c-.2,0-.4-.3-.5-.9l.5.9Zm-.5-.9c.1.6.4,1,.5.9l-.5-.9Z"/><path d="M13.2,8.6c-.1-.1.2-.4.8-.5l-.8.5Z" fill="#3e9a13"/><path d="M13.2,8.6h0a.1.1,0,0,1,0-.1,1,1,0,0,1,.8-.4h-.1l-.6.4Zm.8-.5a1,1,0,0,0-.8.4.1.1,0,0,0,0,.1l.6-.4Z"/><path d="M13.3,8c-.2.1-.4-.4-.3-1a3.5,3.5,0,0,0,.3,1Z" fill="#3e9a13"/><path d="M13.3,8h-.1A1.2,1.2,0,0,1,13,7a3.5,3.5,0,0,0,.3,1ZM13,7a1.2,1.2,0,0,0,.1.9h.2A3,3,0,0,1,13,7Z"/><path d="M13.3,8.3c-.1-.2.2-.6.9-.7l-.9.7Z" fill="#3e9a13"/><path d="M13.3,8.3h0a.2.2,0,0,1,0-.2,1.2,1.2,0,0,1,.9-.5l-.9.7Zm.9-.7a1.2,1.2,0,0,0-.9.5.2.2,0,0,0,0,.1l.9-.7Z"/><path d="M13.4,7.9c-.1-.1.1-.6.8-.8l-.8.8Z" fill="#3e9a13"/><path d="M13.4,7.9h0a.2.2,0,0,1,0-.2,1.2,1.2,0,0,1,.8-.7l-.8.8Zm.8-.8a1.2,1.2,0,0,0-.8.7.2.2,0,0,0,0,.1l.8-.8Z"/><path d="M13.5,7.3c-.2,0-.3-.5.1-1a3.8,3.8,0,0,0-.1,1Z" fill="#3e9a13"/><path d="M13.5,7.3h-.1a1.1,1.1,0,0,1,.2-1,3.8,3.8,0,0,0-.1,1Zm0-1a1.1,1.1,0,0,0-.2,1h.1a4.1,4.1,0,0,1,.1-1Z"/><path d="M13.7,6.9c-.1,0-.2-.4,0-.8a2.9,2.9,0,0,0,0,.8Z" fill="#3e9a13"/><path d="M13.8,6.9h-.1a.9.9,0,0,1,.1-.8,3.1,3.1,0,0,0,0,.8Zm0-.8a.9.9,0,0,0-.1.8h.1a3,3,0,0,1,.1-.8Z"/><path d="M13.8,7.2c-.1-.2.2-.6.8-.8l-.8.8Z" fill="#3e9a13"/><path d="M13.8,7.2h0a.2.2,0,0,1,0-.2,1.2,1.2,0,0,1,.9-.6l-.8.8Zm.8-.8a1.2,1.2,0,0,0-.8.6.2.2,0,0,0,0,.1l.8-.7Z"/><path d="M13.9,6.7c-.1-.1,0-.4.4-.7l-.4.7Z" fill="#3e9a13"/><path d="M14,6.7h-.1a.9.9,0,0,1,.4-.6l-.4.7Zm.4-.7a.9.9,0,0,0-.4.6h0l.4-.7Z"/><path d="M15.2,12.6c.1.2-.3.6-1.1.6l1.1-.6Z" fill="#3e9a13"/><path d="M14.1,13.1h0l1.1-.6a.1.1,0,0,1,0,.2,1.3,1.3,0,0,1-1.1.4Zm1.1-.6-1.1.6a1.3,1.3,0,0,0,1.1-.4.2.2,0,0,0,0-.2Z"/><path d="M13.2,9.3c-.2-.1-.1-.4.3-.8a2.5,2.5,0,0,0-.3.8Z" fill="#3e9a13"/><path d="M13.2,9.3h-.1c0-.1.1-.4.4-.7a2.8,2.8,0,0,0-.3.8Zm.3-.8c-.3.3-.4.6-.4.7h.1a2.8,2.8,0,0,1,.3-.8Z"/><path d="M13.6,10.8c-.1.2-.7-.1-1-.8l1,.8Z" fill="#3e9a13"/><path d="M13.4,10.9c-.2,0-.6-.3-.8-.9l1,.8Zm-.8-.9c.3.7.8,1,1,.8l-1-.8Z"/><path d="M13.3,8.6c-.2.1-.5-.3-.5-.9l.5.9Z" fill="#3e9a13"/><path d="M13.2,8.6c-.2,0-.4-.4-.5-1l.6.9Zm-.5-1c.1.6.4,1.1.5.9l-.5-.9Z"/><path d="M13.2,9.3h-.1c0-.1.1-.4.4-.7a1.4,1.4,0,0,1-.3.8Zm.3-.8c-.3.3-.4.6-.4.7h.1a1.5,1.5,0,0,0,.3-.8Z"/><path d="M14.8,13.4h0a2.4,2.4,0,0,1,1.1-.6.2.2,0,0,1,0,.2,1.3,1.3,0,0,1-1.1.4Zm1.1-.6a2.6,2.6,0,0,0-1.1.6h0a1.3,1.3,0,0,0,1.1-.4.2.2,0,0,0,0-.2Z"/><path d="M14.4,13.2h0a2.4,2.4,0,0,1,1.1-.6.2.2,0,0,1,0,.2,1.3,1.3,0,0,1-1.1.4Zm1.1-.6a2.6,2.6,0,0,0-1.1.6h0a1.3,1.3,0,0,0,1.1-.4.2.2,0,0,0,0-.2Z"/><path d="M16,12.9h-.2a1.6,1.6,0,0,1-.3-1.1,2.5,2.5,0,0,1,.6,1.1Zm-.5-1.2a1.6,1.6,0,0,0,.3,1.1H16a2.7,2.7,0,0,0-.6-1.1Z"/><path d="M15.7,12.7h0c-.2,0-.5-.4-.6-1.1a2.5,2.5,0,0,1,.7,1.1Zm-.6-1.1c.1.7.4,1.1.6,1.1h.1a2.8,2.8,0,0,0-.7-1.1Z"/><path d="M15.1,12.5H15a1.4,1.4,0,0,1-.1-1,2.3,2.3,0,0,1,.3,1.1h0Zm-.3-1.1a1.4,1.4,0,0,0,.2,1h.2a2.5,2.5,0,0,0-.3-1.1Z"/><path d="M14.4,12.7h0l-.8-.2h.8Zm0-.3h-.8l.8.2h0Z"/><path d="M14.3,12.4h0a1.6,1.6,0,0,1-.9-.4h.1a2.5,2.5,0,0,1,1.2.3l-.3.2Zm-.9-.4h-.1a1.6,1.6,0,0,0,.9.4h.3a2.5,2.5,0,0,0-1.1-.3Z"/><path d="M14.7,12.1h-.1a1.3,1.3,0,0,1,0-1.1,2.3,2.3,0,0,1,.1,1.2ZM14.5,11a1.3,1.3,0,0,0,0,1.1h.1a2.5,2.5,0,0,0-.1-1.1Z"/><path d="M14.3,11.9h-.1a1.2,1.2,0,0,1,0-1,2.1,2.1,0,0,1,.1,1Zm-.1-1a1.2,1.2,0,0,0,0,1h.1a2.3,2.3,0,0,0-.1-1Z"/><path d="M14.1,12h0c-.2,0-.6-.3-.9-.9a2.4,2.4,0,0,1,1,.8Zm-.9-.9c.3.5.6.8.9.8h.1a2.7,2.7,0,0,0-1-.8Z"/><path d="M14,11.5h-.1a1.1,1.1,0,0,1,.2-1,2,2,0,0,1,0,1Zm0-1a1.1,1.1,0,0,0-.2,1H14a2.2,2.2,0,0,0,.1-1Z"/><path d="M13.8,11.1h-.1a1.3,1.3,0,0,1,.2-1.1,2.2,2.2,0,0,1,0,1.2Zm.1-1.2a1.3,1.3,0,0,0-.2,1.1h.1a2.5,2.5,0,0,0,.1-1.1Z"/><path d="M13.5,11.3h0a1.2,1.2,0,0,1-.8-.4,1.9,1.9,0,0,1,1,.3Zm-.8-.4a1.2,1.2,0,0,0,.8.4h.2a2.1,2.1,0,0,0-.9-.3Z"/><path d="M13.5,10.6h-.1a1.3,1.3,0,0,1,.3-1.1,2.3,2.3,0,0,1-.1,1.2Zm.2-1.1a1.3,1.3,0,0,0-.3,1h.1a2.5,2.5,0,0,0,.2-1.1Z"/><path d="M13.3,9.7h-.1a1.1,1.1,0,0,1,.5-.8,2,2,0,0,1-.5.9Zm.5-.9a1.1,1.1,0,0,0-.5.8h.1a2.2,2.2,0,0,0,.5-.9Z"/><path d="M13.1,10h0c-.2,0-.5-.2-.7-.7h0a1.9,1.9,0,0,1,.8.6Zm-.7-.7c.2.4.5.7.7.7h.1a2.1,2.1,0,0,0-.8-.6Z"/><path d="M13.1,9.5h0c-.2,0-.4-.3-.5-.9a2,2,0,0,1,.5.9Zm-.5-.9c.1.5.3.9.5.9h.1a2.3,2.3,0,0,0-.5-.9Z"/><path d="M13.2,8.6h0a.1.1,0,0,1,0-.1,1,1,0,0,1,.8-.4,1.7,1.7,0,0,1-.8.5Zm.8-.5a1,1,0,0,0-.8.4.1.1,0,0,0,0,.1,1.9,1.9,0,0,0,.8-.5Z"/><path d="M13.3,8h-.1A1.2,1.2,0,0,1,13,7a2,2,0,0,1,.3,1h0ZM13,7a1.3,1.3,0,0,0,.1.9h.2A2.2,2.2,0,0,0,13,7Z"/><path d="M13.3,8.3h0a.2.2,0,0,1,0-.2,1.2,1.2,0,0,1,.9-.5,2.2,2.2,0,0,1-.9.7Zm.9-.7a1.2,1.2,0,0,0-.9.5.1.1,0,0,0,0,.1,2.4,2.4,0,0,0,.9-.7Z"/><path d="M13.4,7.9h0a.2.2,0,0,1,0-.2,1.2,1.2,0,0,1,.8-.7,2.1,2.1,0,0,1-.8.8Zm.8-.8a1.2,1.2,0,0,0-.8.7.2.2,0,0,0,0,.1,2.4,2.4,0,0,0,.8-.8Z"/><path d="M13.5,7.3h-.1a1.1,1.1,0,0,1,.2-1,2,2,0,0,1,0,1Zm0-1a1.1,1.1,0,0,0-.2,1h.1a2.2,2.2,0,0,0,.1-1Z"/><path d="M13.8,6.9h-.1a.9.9,0,0,1,.1-.8,1.6,1.6,0,0,1,0,.8Zm0-.8a.9.9,0,0,0-.1.8h.1a1.9,1.9,0,0,0,0-.8Z"/><path d="M13.8,7.2h0a.2.2,0,0,1,0-.2,1.2,1.2,0,0,1,.9-.6,2.2,2.2,0,0,1-.8.8Zm.8-.8a1.2,1.2,0,0,0-.8.6.2.2,0,0,0,0,.1,2.4,2.4,0,0,0,.8-.8Z"/><path d="M14,6.8h-.1a.9.9,0,0,1,.4-.7,1.6,1.6,0,0,1-.4.8Zm.4-.8a.9.9,0,0,0-.4.6h0a1.8,1.8,0,0,0,.4-.7Z"/><path d="M14.1,13.1h0a2.4,2.4,0,0,1,1.1-.6.2.2,0,0,1,0,.2,1.3,1.3,0,0,1-1.1.4Zm1.1-.6a2.6,2.6,0,0,0-1.1.6h0a1.3,1.3,0,0,0,1.1-.4.2.2,0,0,0,0-.2Z"/><path d="M13.4,10.9h0c-.2,0-.6-.3-.9-.9a2.4,2.4,0,0,1,1,.8Zm-.8-.9c.3.5.6.8.8.8h.1a2.7,2.7,0,0,0-1-.8Z"/><path d="M13.2,8.6h0c-.2,0-.4-.3-.5-1a1.5,1.5,0,0,1,.5.9Zm-.5-1c.1.6.3,1,.5,1h.1a1.6,1.6,0,0,0-.5-.9Z"/><path d="M16.4,13.3h.1l1-.3h.3l.7-.2h.1l.3-.2a3.6,3.6,0,0,0,.9-1.1,3.8,3.8,0,0,0,.5-1.7,6.6,6.6,0,0,0-.1-1.2,4.4,4.4,0,0,0-.7-1.5h.1a4.4,4.4,0,0,1,.7,1.5,6.4,6.4,0,0,1,.1,1.2,3.8,3.8,0,0,1-.5,1.7,3.7,3.7,0,0,1-.9,1.1l-.3.2h-.1l-.7.2h-.3l-1,.3h-.2Z" fill="#3e9a13"/><path d="M16.5,13.3h.1l1-.3h1.5a3,3,0,0,0,.8-.9v-.2a3.2,3.2,0,0,0,.4-1.5c0-.1,0-.3,0-.4a2.9,2.9,0,0,0-.1-.7,4.5,4.5,0,0,0-.7-1.5h.1a4.4,4.4,0,0,1,.7,1.5,2.8,2.8,0,0,1,.1.7c0,.1,0,.3,0,.4a3.2,3.2,0,0,1-.4,1.5v.2a3.1,3.1,0,0,1-.8.9H17.7l-1,.3h-.1Zm3.1-6.6a4.3,4.3,0,0,1,.7,1.5,2.8,2.8,0,0,1,.1.7c0,.1,0,.3,0,.4a3.2,3.2,0,0,1-.4,1.5v.2a3,3,0,0,1-.8.9H17.6l-1,.3h.1l1-.3h1.5a3,3,0,0,0,.8-.9v-.2a3.3,3.3,0,0,0,.4-1.5c0-.1,0-.3,0-.4a2.8,2.8,0,0,0-.1-.7,4.4,4.4,0,0,0-.7-1.5Z"/><path d="M16.5,13.3h.1l1-.3h1.5a3,3,0,0,0,.8-.9v-.2a3.2,3.2,0,0,0,.4-1.5c0-.1,0-.3,0-.4a2.7,2.7,0,0,0-.1-.7,4.4,4.4,0,0,0-.7-1.5h0a4.4,4.4,0,0,1,.7,1.6,2.9,2.9,0,0,1,.1.7c0,.1,0,.3,0,.4a3.2,3.2,0,0,1-.4,1.5v.2a3.1,3.1,0,0,1-.8.9H17.7l-1,.3Z" fill="#ba0027"/><path d="M17.7,12.8a2.4,2.4,0,0,1,1.1.6c-.8,0-1.2-.4-1.1-.6Z" fill="#3e9a13"/><path d="M18.1,12.7a2.5,2.5,0,0,1,1.1.6c-.8,0-1.2-.4-1.1-.6Z" fill="#3e9a13"/><path d="M17.5,12.9a2.5,2.5,0,0,1,.6-1.1c0,.8-.4,1.3-.6,1.1Z" fill="#3e9a13"/><path d="M17.8,12.7a2.6,2.6,0,0,1,.7-1.1c-.1.8-.5,1.2-.7,1.1Z" fill="#3e9a13"/><path d="M18.4,12.5a2.3,2.3,0,0,1,.3-1.1c.1.7-.1,1.2-.3,1.1Z" fill="#3e9a13"/><path d="M18.6,12.4a2.4,2.4,0,0,1,1.2,0c-.7.3-1.3.2-1.2,0Z" fill="#3e9a13"/><path d="M19,12.2a2.4,2.4,0,0,1,1.2-.3c-.6.5-1.2.5-1.2.3Z" fill="#3e9a13"/><path d="M18.9,12.1A2.3,2.3,0,0,1,19,11c.2.7.1,1.2-.1,1.1Z" fill="#3e9a13"/><path d="M19.2,11.9a2.1,2.1,0,0,1,.1-1c.2.6.1,1.1-.1,1Z" fill="#3e9a13"/><path d="M19.3,11.9a2.4,2.4,0,0,1,1-.8c-.3.7-.8,1-1,.8Z" fill="#3e9a13"/><path d="M19.5,11.5a2.1,2.1,0,0,1-.1-1c.3.6.2,1,.1,1Z" fill="#3e9a13"/><path d="M19.8,11.1a2.3,2.3,0,0,1-.1-1.2c.4.6.3,1.1.1,1.2Z" fill="#3e9a13"/><path d="M19.9,11.2a2,2,0,0,1,1-.3c-.4.5-.9.5-1,.3Z" fill="#3e9a13"/><path d="M20,10.6a2.3,2.3,0,0,1-.2-1.1c.4.6.4,1.1.2,1.1Z" fill="#3e9a13"/><path d="M20.3,9.7a2.1,2.1,0,0,1-.5-.9c.5.4.6.8.5.9Z" fill="#3e9a13"/><path d="M20.3,10a2,2,0,0,1,.8-.6c-.3.6-.7.8-.8.6Z" fill="#3e9a13"/><path d="M20.4,9.4a2.1,2.1,0,0,1,.5-.9c-.1.6-.4,1-.5.9Z" fill="#3e9a13"/><path d="M20.3,8.6a1.8,1.8,0,0,1-.8-.5c.6,0,.9.4.8.5Z" fill="#3e9a13"/><path d="M20.2,8a2.1,2.1,0,0,1,.3-1c.1.6-.1,1.1-.3,1Z" fill="#3e9a13"/><path d="M20.2,8.3a2.2,2.2,0,0,1-.9-.7c.7.1,1,.5.9.7Z" fill="#3e9a13"/><path d="M20.2,7.9a2.2,2.2,0,0,1-.8-.8c.6.2.9.7.8.8Z" fill="#3e9a13"/><path d="M20.1,7.3a2.1,2.1,0,0,1-.1-1c.3.6.2,1,.1,1Z" fill="#3e9a13"/><path d="M19.8,6.9a1.7,1.7,0,0,1,0-.8c.3.4.2.8,0,.8Z" fill="#3e9a13"/><path d="M19.7,7.2a2.2,2.2,0,0,1-.8-.8c.7.2,1,.6.8.8Z" fill="#3e9a13"/><path d="M19.6,6.7a1.6,1.6,0,0,1-.4-.7c.4.3.5.7.4.7Z" fill="#3e9a13"/><path d="M18.4,12.6a2.5,2.5,0,0,1,1.1.6c-.8,0-1.2-.4-1.1-.6Z" fill="#3e9a13"/><path d="M20.4,9.3a1.7,1.7,0,0,1-.3-.8c.5.4.5.8.3.8Z" fill="#3e9a13"/><path d="M20,10.8a2.5,2.5,0,0,1,1-.8c-.3.7-.8,1-1,.8Z" fill="#3e9a13"/><path d="M20.3,8.5a1.7,1.7,0,0,1,.5-.9c0,.6-.4,1-.5.9Z" fill="#3e9a13"/><path d="M18.4,12.4c.2.1.4-.4.3-1.1a3.8,3.8,0,0,1-.3,1.1Z" fill="#3e9a13"/><path d="M18.5,12.5h0a4.1,4.1,0,0,0,.3-1.1,1.3,1.3,0,0,1-.1,1Zm.3-1.1a3.7,3.7,0,0,1-.3,1.1h.2a1.3,1.3,0,0,0,.1-1Z"/><path d="M17.7,12.8c-.1.2.3.6,1.1.6l-1.1-.6Z" fill="#3e9a13"/><path d="M18.8,13.4a1.3,1.3,0,0,1-1.1-.4.2.2,0,0,1,0-.2l1.1.6Zm-1.1-.6a.2.2,0,0,0,0,.2,1.3,1.3,0,0,0,1.1.4h0l-1.1-.6Z"/><path d="M18.1,12.7c-.1.2.3.6,1.1.6l-1.1-.6Z" fill="#3e9a13"/><path d="M19.2,13.2a1.3,1.3,0,0,1-1.1-.4.2.2,0,0,1,0-.2l1.1.6Zm-1.1-.6a.2.2,0,0,0,0,.2,1.3,1.3,0,0,0,1.1.4h0l-1.1-.6Z"/><path d="M17.5,12.9c.2.1.6-.4.6-1.1a4.4,4.4,0,0,1-.6,1.1Z" fill="#3e9a13"/><path d="M17.6,12.9h-.1a4.7,4.7,0,0,0,.6-1.1,1.5,1.5,0,0,1-.3,1.1Zm-.1,0h.2a1.6,1.6,0,0,0,.3-1.1,4,4,0,0,1-.5,1.1Z"/><path d="M17.8,12.7c.2.1.6-.3.6-1.1a4.4,4.4,0,0,1-.6,1.1Z" fill="#3e9a13"/><path d="M17.9,12.7h-.1a4.8,4.8,0,0,0,.6-1.1c0,.7-.4,1.1-.6,1.1Zm.6-1.1a4.1,4.1,0,0,1-.6,1.1h.1c.2,0,.5-.4.6-1.1Z"/><path d="M18.6,12.4c0,.2.5.4,1.2,0Z" fill="#3e9a13"/><path d="M19.1,12.7h.8l-.8.2Zm-.5-.2h.5l.8-.2Z"/><path d="M19,12.2c0,.2.6.2,1.2-.3l-1.2.3Z" fill="#3e9a13"/><path d="M19.2,12.4H19l1.2-.3a1.5,1.5,0,0,1-.9.4Zm-.3-.1h.3a1.6,1.6,0,0,0,.9-.4l-1.2.3Z"/><path d="M18.9,12.1c.2,0,.4-.5.1-1.1a4,4,0,0,1-.1,1.1Z" fill="#3e9a13"/><path d="M18.9,12.1h0A4.1,4.1,0,0,0,19,11a1.3,1.3,0,0,1,0,1.1ZM19,11a3.6,3.6,0,0,1-.1,1.1H19A1.3,1.3,0,0,0,19,11Z"/><path d="M19.2,11.9c.2,0,.3-.4.1-1a3.5,3.5,0,0,1-.1,1Z" fill="#3e9a13"/><path d="M19.2,11.9h0a3.7,3.7,0,0,0,.1-1,1.1,1.1,0,0,1,0,1Zm.1-1a3.3,3.3,0,0,1-.1,1h.1a1.2,1.2,0,0,0,0-1Z"/><path d="M19.3,11.9c.1.2.7-.1,1-.8l-1,.8Z" fill="#3e9a13"/><path d="M19.4,12h-.1l1-.8c-.2.6-.6.9-.8.9Zm.8-.9-1,.8h.1c.2,0,.6-.3.8-.8Z"/><path d="M19.5,11.5c.2,0,.3-.5-.1-1a3.7,3.7,0,0,1,.1,1Z" fill="#3e9a13"/><path d="M19.5,11.5h0a3.5,3.5,0,0,0-.1-1,1.1,1.1,0,0,1,.2,1h-.1Zm-.1-1a3.7,3.7,0,0,1,.1,1h.1a1.1,1.1,0,0,0-.2-1Z"/><path d="M19.8,11c.2,0,.3-.5-.1-1.1a3.8,3.8,0,0,1,.1,1.1Z" fill="#3e9a13"/><path d="M19.8,11.1h0a3.9,3.9,0,0,0-.1-1.1,1.2,1.2,0,0,1,.2,1.1h-.1Zm-.1-1.1a4.2,4.2,0,0,1,.1,1.1h.1a1.3,1.3,0,0,0-.2-1.1Z"/><path d="M19.9,11.2c.1.2.5.1,1-.3l-1,.3Z" fill="#3e9a13"/><path d="M20.1,11.3h-.2l1-.3a1.2,1.2,0,0,1-.8.4Zm.8-.4-.9.3c0,.1.5.2.9-.3Z"/><path d="M20,10.6c.2,0,.2-.6-.2-1.1a4.1,4.1,0,0,1,.2,1.1Z" fill="#3e9a13"/><path d="M20,10.6h0a4.1,4.1,0,0,0-.2-1.1,1.2,1.2,0,0,1,.3,1H20Zm-.2-1.1a4.3,4.3,0,0,1,.2,1.1h.1a1.2,1.2,0,0,0-.3-1Z"/><path d="M20.3,9.7c.2-.1,0-.5-.5-.9a3.4,3.4,0,0,1,.5.9Z" fill="#3e9a13"/><path d="M20.3,9.7h0a3.5,3.5,0,0,0-.5-.9,1.1,1.1,0,0,1,.6.8h-.1Zm-.5-.9.5.9h.1a1.1,1.1,0,0,0-.5-.8Z"/><path d="M20.3,10c.1.2.5-.1.8-.6l-.8.6Z" fill="#3e9a13"/><path d="M20.4,10h-.1l.8-.6c-.2.5-.5.7-.7.7Zm.7-.7-.8.6h.1c.2,0,.5-.2.7-.7Z"/><path d="M20.4,9.4c.2.1.5-.2.5-.9l-.5.9Z" fill="#3e9a13"/><path d="M20.4,9.5h-.1l.5-.9c0,.6-.3.9-.5.9Zm.5-.9-.5.9h.1c.2,0,.4-.3.5-.9Z"/><path d="M20.3,8.6c.1-.1-.2-.4-.8-.5l.8.5Z" fill="#3e9a13"/><path d="M20.3,8.6h0l-.6-.4h-.1a.9.9,0,0,1,.8.4.1.1,0,0,1,0,.1Zm-.8-.5h.1l.6.4a.1.1,0,0,0,0-.1,1,1,0,0,0-.8-.4Z"/><path d="M20.2,8c.2.1.4-.4.3-1a3.5,3.5,0,0,1-.3,1Z" fill="#3e9a13"/><path d="M20.3,8h0a3.8,3.8,0,0,0,.3-1,1.2,1.2,0,0,1-.1.9Zm.2-1a3.3,3.3,0,0,1-.3,1h.2a1.2,1.2,0,0,0,.1-.9Z"/><path d="M20.2,8.3c.1-.2-.2-.6-.9-.7l.9.7Z" fill="#3e9a13"/><path d="M20.2,8.3h0l-.9-.7a1.2,1.2,0,0,1,.9.5.2.2,0,0,1,0,.2Zm-.9-.7.9.7a.2.2,0,0,0,0-.1,1.2,1.2,0,0,0-.9-.5Z"/><path d="M20.2,7.9c.2-.1-.1-.6-.8-.8l.8.8Z" fill="#3e9a13"/><path d="M20.2,7.9h0l-.8-.8a1.2,1.2,0,0,1,.8.7.2.2,0,0,1,0,.2Zm-.8-.8.8.8a.2.2,0,0,0,0-.1,1.2,1.2,0,0,0-.8-.7Z"/><path d="M20.1,7.3c.2,0,.3-.5-.1-1a3.5,3.5,0,0,1,.1,1Z" fill="#3e9a13"/><path d="M20.1,7.3h0a3.5,3.5,0,0,0-.1-1,1.1,1.1,0,0,1,.2,1h-.1Zm-.1-1a3.8,3.8,0,0,1,.1,1h.1a1.1,1.1,0,0,0-.2-1Z"/><path d="M19.8,6.9c.1,0,.2-.4,0-.8a2.8,2.8,0,0,1,0,.8Z" fill="#3e9a13"/><path d="M19.8,6.9h0a2.7,2.7,0,0,0-.1-.8.9.9,0,0,1,.1.8h-.1Zm0-.8a2.9,2.9,0,0,1,.1.8h.1a.9.9,0,0,0-.1-.8Z"/><path d="M19.7,7.2c.1-.2-.2-.6-.8-.8l.8.8Z" fill="#3e9a13"/><path d="M19.7,7.2h0l-.8-.8a1.2,1.2,0,0,1,.9.6.2.2,0,0,1,0,.2Zm-.8-.8.8.7a.2.2,0,0,0,0-.1,1.2,1.2,0,0,0-.8-.6Z"/><path d="M19.6,6.7c.1-.1,0-.4-.4-.7l.4.7Z" fill="#3e9a13"/><path d="M19.6,6.7h0L19.2,6a.9.9,0,0,1,.4.6h-.1ZM19.2,6l.4.7h0a.9.9,0,0,0-.4-.6Z"/><path d="M18.4,12.6c-.1.2.3.6,1.1.6l-1.1-.6Z" fill="#3e9a13"/><path d="M19.5,13.1a1.3,1.3,0,0,1-1.1-.4.2.2,0,0,1,0-.2l1.1.6Zm-1.1-.6a.2.2,0,0,0,0,.2,1.3,1.3,0,0,0,1.1.4h0l-1.1-.6Z"/><path d="M20.4,9.3c.2-.1.1-.4-.3-.8a2.6,2.6,0,0,1,.3.8Z" fill="#3e9a13"/><path d="M20.3,9.3h0a2.6,2.6,0,0,0-.3-.8c.4.3.5.6.4.7h-.1ZM20,8.5a2.7,2.7,0,0,1,.4.8h.1c0-.1-.1-.4-.4-.7Z"/><path d="M20,10.8c.1.2.7-.1,1-.8l-1,.8Z" fill="#3e9a13"/><path d="M20.1,10.9H20l1-.8c-.2.6-.6.9-.8.9ZM21,10l-1,.8h.1c.2,0,.6-.3.8-.8Z"/><path d="M20.3,8.6c.2.1.5-.3.5-.9l-.5.9Z" fill="#3e9a13"/><path d="M20.4,8.6h-.1l.5-.9c0,.6-.3,1-.5,1Zm.5-1-.5.9h.1c.2,0,.4-.4.5-1Z"/><path d="M20.3,9.3h0a1.6,1.6,0,0,1-.3-.8c.4.3.5.6.4.7h-.1ZM20,8.5a1.7,1.7,0,0,0,.3.8h.1c0-.1-.1-.4-.4-.7Z"/><path d="M18.8,13.4a1.3,1.3,0,0,1-1.1-.4.2.2,0,0,1,0-.2,2.5,2.5,0,0,1,1.1.6Zm-1.1-.6a.2.2,0,0,0,0,.2,1.3,1.3,0,0,0,1.1.4h0a2.7,2.7,0,0,0-1.1-.6Z"/><path d="M19.2,13.2a1.3,1.3,0,0,1-1.1-.4.2.2,0,0,1,0-.2,2.5,2.5,0,0,1,1.1.6Zm-1.1-.6a.2.2,0,0,0,0,.2,1.3,1.3,0,0,0,1.1.4h0a2.8,2.8,0,0,0-1.1-.6Z"/><path d="M17.6,12.9h-.1a2.7,2.7,0,0,1,.6-1.2,1.5,1.5,0,0,1-.3,1.1Zm.5-1.2a2.8,2.8,0,0,0-.5,1.1h.2a1.6,1.6,0,0,0,.3-1.1Z"/><path d="M17.9,12.7h-.1a2.6,2.6,0,0,1,.7-1.1c0,.7-.4,1.1-.6,1.1Zm.6-1.1a2.9,2.9,0,0,0-.6,1.1h.1c.2,0,.5-.4.6-1.1Z"/><path d="M18.5,12.5h0a2.5,2.5,0,0,1,.3-1.1,1.3,1.3,0,0,1-.1,1Zm.3-1.1a2.7,2.7,0,0,0-.3,1.1h.2a1.3,1.3,0,0,0,.1-1Z"/><path d="M19.1,12.7h.8l-.8.2Zm0-.3h0l.8-.2Z"/><path d="M19.2,12.4H19a2.4,2.4,0,0,1,1.2-.3,1.5,1.5,0,0,1-.9.5Zm.9-.4a2.5,2.5,0,0,0-1.1.3h.3a1.6,1.6,0,0,0,.9-.4Z"/><path d="M18.9,12.1h0A2.4,2.4,0,0,1,19,11,1.3,1.3,0,0,1,19,12ZM19,11a2.6,2.6,0,0,0-.1,1.1H19A1.3,1.3,0,0,0,19,11Z"/><path d="M19.2,11.9h0a2.2,2.2,0,0,1,.1-1,1.1,1.1,0,0,1,0,1Zm.1-1a2.5,2.5,0,0,0-.1,1h.1a1.2,1.2,0,0,0,0-1Z"/><path d="M19.4,12h-.1a2.6,2.6,0,0,1,1-.8c-.2.6-.6.9-.8.9Zm.8-.9a2.9,2.9,0,0,0-1,.8h.1c.2,0,.6-.3.8-.8Z"/><path d="M19.5,11.5h0a2.2,2.2,0,0,1-.1-1,1.1,1.1,0,0,1,.2,1h-.1Zm-.1-1a2.4,2.4,0,0,0,.1,1h.1a1.1,1.1,0,0,0-.2-1Z"/><path d="M19.8,11.1h0a2.4,2.4,0,0,1-.1-1.2,1.2,1.2,0,0,1,.2,1.1h-.1Zm-.1-1.2a2.7,2.7,0,0,0,.1,1.1h.1a1.3,1.3,0,0,0-.2-1.1Z"/><path d="M20.1,11.3h-.2a2,2,0,0,1,1-.3h0a2.2,2.2,0,0,0-.9.3c0,.1.4.2.8-.2a1,1,0,0,1-.6.3Z"/><path d="M20,10.6h0a2.5,2.5,0,0,1-.2-1.2,1.2,1.2,0,0,1,.3,1.1H20Zm-.2-1.1a2.6,2.6,0,0,0,.2,1.1h.1a1.2,1.2,0,0,0-.3-1Z"/><path d="M20.3,9.7h0a2.2,2.2,0,0,1-.5-.9,1.1,1.1,0,0,1,.6.8h-.1Zm-.5-.9a2.5,2.5,0,0,0,.5.9h.1a1.1,1.1,0,0,0-.5-.8Z"/><path d="M20.4,10h-.1a2,2,0,0,1,.8-.7c-.2.5-.5.7-.7.7Zm.7-.7a2.3,2.3,0,0,0-.8.6h.1c.2,0,.5-.2.7-.7Z"/><path d="M20.4,9.5h-.1a2.1,2.1,0,0,1,.5-.9c0,.6-.3.9-.5.9Zm.5-.9a2.4,2.4,0,0,0-.5.9h.1c.2,0,.4-.3.5-.9Z"/><path d="M20.3,8.6h0a1.9,1.9,0,0,1-.8-.5,1,1,0,0,1,.8.4.1.1,0,0,1,0,.1Zm-.8-.5a2.1,2.1,0,0,0,.8.5.1.1,0,0,0,0-.1,1,1,0,0,0-.8-.4Z"/><path d="M20.3,8h0a2.1,2.1,0,0,1,.3-1,1.2,1.2,0,0,1-.1.9Zm.2-1a2.5,2.5,0,0,0-.3,1h.2a1.2,1.2,0,0,0,.1-.9Z"/><path d="M20.2,8.3h0a2.3,2.3,0,0,1-.9-.7,1.2,1.2,0,0,1,.9.5.2.2,0,0,1,0,.2Zm-.9-.7a2.6,2.6,0,0,0,.9.7.2.2,0,0,0,0-.1,1.2,1.2,0,0,0-.9-.5Z"/><path d="M20.2,7.9h0a2.4,2.4,0,0,1-.8-.8,1.2,1.2,0,0,1,.8.7.2.2,0,0,1,0,.2Zm-.8-.8a2.6,2.6,0,0,0,.8.8.2.2,0,0,0,0-.1,1.2,1.2,0,0,0-.8-.7Z"/><path d="M20.1,7.3h0a2.2,2.2,0,0,1-.1-1,1.1,1.1,0,0,1,.2,1h-.1Zm-.1-1a2.5,2.5,0,0,0,.1,1h.1a1.1,1.1,0,0,0-.2-1Z"/><path d="M19.8,6.9h0a1.8,1.8,0,0,1,0-.8.9.9,0,0,1,.1.8h-.1Zm0-.8a2,2,0,0,0,.1.8h.1a.9.9,0,0,0-.1-.8Z"/><path d="M19.7,7.2h0a2.4,2.4,0,0,1-.8-.8,1.2,1.2,0,0,1,.9.6.2.2,0,0,1,0,.2Zm-.8-.8a2.7,2.7,0,0,0,.8.7.2.2,0,0,0,0-.1,1.2,1.2,0,0,0-.8-.6Z"/><path d="M19.6,6.8h0a1.7,1.7,0,0,1-.4-.8.9.9,0,0,1,.5.6h-.1ZM19.2,6a1.9,1.9,0,0,0,.4.7h0a.9.9,0,0,0-.4-.6Z"/><path d="M19.5,13.1a1.3,1.3,0,0,1-1.1-.4.2.2,0,0,1,0-.2,2.5,2.5,0,0,1,1.1.6Zm-1.1-.6a.2.2,0,0,0,0,.2,1.3,1.3,0,0,0,1.1.4h0a2.7,2.7,0,0,0-1.1-.6Z"/><path d="M20.1,10.9H20a2.5,2.5,0,0,1,1-.8c-.2.6-.6.9-.8.9ZM21,10a2.9,2.9,0,0,0-1,.8h.1c.2,0,.6-.3.8-.8Z"/><path d="M20.4,8.6h-.1a1.5,1.5,0,0,1,.5-1c0,.7-.3,1-.5,1Zm.5-1a1.7,1.7,0,0,0-.5.9h.1c.2,0,.4-.3.5-1Z"/><path d="M18,12.3a1.6,1.6,0,0,0,1,.8c.2,0,.5-.1.1-.4s-.7-.4-.8-.6l-.2.3Z" fill="#f5cd28"/><path d="M19,13h0a1.6,1.6,0,0,1-1-.8l.2-.3c.1.2.7.7.8.6s.2.2.2.3Zm-.8-1-.2.3a1.6,1.6,0,0,0,1,.7h.3c0-.1,0-.1-.2-.3h-.1c-.2,0-.7-.5-.7-.6Z"/><path d="M18,12.3a8.8,8.8,0,0,0-3.1-3.1c1.6.5,2.1,1.3,3.3,2.8l-.2.2Z" fill="#cacaca"/><path d="M18,12.3h0l-.4-.6a7.4,7.4,0,0,0-2.7-2.5,5.7,5.7,0,0,1,3,2.4l.4.4-.3.2ZM14.9,9.2a7.3,7.3,0,0,1,2.7,2.5l.4.6.2-.2-.4-.4a5.8,5.8,0,0,0-3-2.4Z"/><path d="M18,12h0l-.2-.2a8.4,8.4,0,0,0-2.2-2.2,7.7,7.7,0,0,1,2.2,2.2l.2.2h0Z" fill="#7dcbc9"/><path d="M19,13a1.1,1.1,0,0,1,0-.5.3.3,0,0,0-.1-.3h-1c-.2,0-.1.2-.1.2a.3.3,0,0,0,.3-.1l.4-.2.4.2a1.8,1.8,0,0,1-.1.6c0,.1,0,.2,0,.2H19s0-.1,0-.1Z" fill="#f5cd28"/><path d="M19,13.1h-.1a.2.2,0,0,1,0-.2,1.9,1.9,0,0,0,.1-.6l-.4-.2-.4.2h.7a.3.3,0,0,1,.1.3,1.2,1.2,0,0,0,0,.5H19Zm-.4-1,.4.2a1.8,1.8,0,0,1-.1.6.3.3,0,0,0,0,.2H19a1.1,1.1,0,0,1,0-.5.3.3,0,0,0-.1-.3h-.7l.4-.2Z"/><path d="M18.3,12.7a.3.3,0,0,1,0-.2h0a.3.3,0,0,0,0,.2Z"/><path d="M18.5,12.8a.2.2,0,0,1,0-.2h0a.2.2,0,0,0,0,.2Z"/><path d="M18.6,12.8a.2.2,0,0,1,0-.2h0a.2.2,0,0,0,0,.2Z"/><path d="M18.7,12.9a.2.2,0,0,1,0-.2h0a.2.2,0,0,1,0,.1.2.2,0,0,0,0,.2Z"/><path d="M18,12.4h.2l.3-.2h0l-.3.2H18Z"/><path d="M18.9,12.2h0Z" fill="#f5cd28"/><path d="M18.9,12.2h0Z"/><path d="M18.8,12.2h0Z" fill="#f5cd28"/><path d="M18.8,12.2h0Z"/><path d="M18.7,12.2h0Z" fill="#f5cd28"/><path d="M18.7,12.2h0Z"/><path d="M19.1,13a.2.2,0,0,1,0-.2.1.1,0,0,0,0-.1h0a.1.1,0,0,1,0,.1.2.2,0,0,0,0,.2Z"/><path d="M15.6,7.4l3.1,3.1c0,.1-.1.1-.1.2a.9.9,0,0,1,.1.3.4.4,0,0,0,.3.2c.2,0,.2.2.2.2s0,.2.1.2l.5.6.4.4-.6.5c-.4-.5-.9-1.5-1-1.5s-.6-.8-.5-.9-.3-.4-.4-.4a.4.4,0,0,0,0-.3L16,8.3c0-.1.1-.1.1-.1l-.6-.7Z" fill="#60350e"/><path d="M19.6,13.1h0L18.9,12l-.2-.4c-.3-.3-.6-.8-.5-1a.6.6,0,0,0-.4-.4.5.5,0,0,0,0-.3L16,8.3c0-.1.1-.1.1-.1l-.6-.7h.1l3.1,3.1a.1.1,0,0,1-.1.1v.3h0l.3.2h.2a.1.1,0,0,1,0,.1h0l.2.2.4.4.4.4-.5.4h-.1Zm-1-1.5.3.4.7,1.1h.1l.5-.4-.4-.4-.4-.4-.2-.2s0-.1,0-.1H19l-.3-.2h0a.6.6,0,0,0-.1-.3h0s.1-.1,0-.1L15.6,7.4h-.1l.6.7h-.1l1.7,1.6a.4.4,0,0,1,0,.3c.1,0,.3.2.4.4s.2.6.5.9Z"/><path d="M18.8,11.6l.3-.2.9,1.1-.4.4-.9-1.3Z" fill="#1f1f1f"/><path d="M14.8,7h.3l3.6,3.6c0,.1-.1.1-.1.2L16.2,8.2,15.1,7h-.3L13.5,5.8,14.8,7Z" fill="#cacaca"/><path d="M18.6,10.7,16.2,8.2,15.1,7h-.3L13.5,5.8,14.8,7h.3l3.7,3.6a.1.1,0,0,1,0,.2h0ZM15.1,7l1.1,1.2,2.5,2.4h0a.1.1,0,0,0,0-.1L15.1,6.9h-.3L13.5,5.8l1.3,1.4h.3Z"/><path d="M18.6,11.6h-.2a.2.2,0,0,1,0-.2h0a.2.2,0,0,0,0,.2h.1Z"/><path d="M18.5,11.5a.1.1,0,0,1-.1.1Z" fill="none"/><path d="M19.8,12.2l-.8-.9a1.2,1.2,0,0,1-.5-.5h0l-.6-.5h0l.6.5h0a1.3,1.3,0,0,0,.5.5l.8.9Z"/><path d="M18.7,10.5c-.1.1-.5.2-.5.5l.4.6.6-.3H19a.3.3,0,0,1-.2-.4c0-.1,0-.1,0-.1v-.2Z" fill="#cacaca"/><path d="M18.7,11.6h-.1l-.4-.5c0-.2.3-.4.4-.5h.1v.2s0,0,0,.1a.3.3,0,0,0,.2.3h.2l-.6.3Zm.1-1.1h-.1c-.1.1-.4.2-.4.4l.4.5h.1l.5-.3H19a.3.3,0,0,1-.2-.4h0v-.2Z"/><path d="M18.6,10.8a.3.3,0,0,0,.1.4v-.4Z" fill="#cacaca"/><path d="M18.7,11.1a.3.3,0,0,1-.1-.4h0a.3.3,0,0,0,.1.4Z"/><path d="M18.7,11.4h0Zm0-.1h0Z"/><path d="M18.5,11.1h0Zm0-.1h0Z"/><path d="M18,7.4l-3.1,3.1c0,.1.1.1.1.2a.9.9,0,0,0-.1.3.4.4,0,0,1-.3.2c-.2,0-.2.2-.3.2s0,.2-.1.3l-.5.6-.3.4.6.5c.4-.5.9-1.5,1-1.5s.6-.8.5-.9.3-.4.4-.4a.4.4,0,0,1,0-.3l2.2-2.2c0-.1,0-.1-.1-.1h0Z" fill="#60350e"/><path d="M14,13h-.1l-.5-.4.3-.4.5-.6h.1l.2-.2h0l.3-.2h0a.6.6,0,0,1,.1-.3c-.1,0-.1-.1-.1-.2L18,7.4h0l-3.1,3.1a.1.1,0,0,0,.1.1h0a.5.5,0,0,0-.1.3h0l-.3.2h-.3a.2.2,0,0,1,0,.1l-.5.6-.3.4.5.4H14l.7-1.1.3-.4c.3-.3.6-.8.5-.9a.6.6,0,0,1,.4-.4.3.3,0,0,1,0-.3l2.2-2.2h0L15.9,9.9a.4.4,0,0,0,0,.3.6.6,0,0,0-.4.4c.1.1-.2.6-.5.9l-.3.4L14,13Z"/><path d="M14.8,11.6l-.3-.2-.9,1.1.4.4.9-1.3Z" fill="#1f1f1f"/><path d="M18.8,7h-.3l-3.6,3.6c0,.1.1.1.1.2l2.5-2.5L18.6,7h.3l1.2-1.4L18.8,7Z" fill="#cacaca"/><path d="M15,10.6h0a.1.1,0,0,1-.1-.2l3.6-3.6h.3l1.3-1.2L18.9,7.1h-.3L17.5,8.1,15,10.6Zm3.6-3.8-3.6,3.6a.1.1,0,0,0,0,.1h0l2.5-2.5L18.6,7h.3l1.2-1.4L18.9,7h-.3Z"/><path d="M15.1,11.6h.2a.2.2,0,0,0,0-.2h0a.2.2,0,0,1,0,.2Z"/><path d="M15.1,11.4a.1.1,0,0,0,.1.1Z" fill="none"/><path d="M13.9,12.1l.7-.9a1.3,1.3,0,0,0,.5-.5h.1l.6-.5h0l-.6.5h-.1a1.3,1.3,0,0,1-.5.5l-.7.9Z"/><path d="M14.9,10.4c.1.1.5.2.5.5l-.4.6-.6-.3h.2a.3.3,0,0,0,.2-.4c0-.1,0-.1,0-.1v-.2Z" fill="#cacaca"/><path d="M15,11.6h0l-.6-.3h.2a.3.3,0,0,0,.2-.3c0-.1,0-.1,0-.1v-.2H15c.1.1.4.2.4.5l-.4.5H15Zm-.4-.5h-.2l.5.3h.1l.4-.5c0-.2-.3-.3-.4-.4h-.1v.2h0a.3.3,0,0,1-.2.4Z"/><path d="M15,10.7a.3.3,0,0,1-.1.4v-.4Z" fill="#cacaca"/><path d="M14.9,11.1a.4.4,0,0,0,.1-.4h0a.3.3,0,0,1-.1.4Z"/><path d="M15,11.3h0Zm0-.1h0Z"/><path d="M15.2,11.1h0Zm0-.1h0Z"/><path d="M17.7,7.7h.1l.2.2h-.1l-.2-.3Z" fill="#cacaca"/><path d="M17.9,7.9h0l-.2-.2h.1l.2.3h-.1Zm-.2-.4h-.1l.3.2H18l-.2-.2Z"/><path d="M16.5,6h.1c0-.3.1-.3.1-.3s.4,0,.3.3a.3.3,0,0,0,.1.3,2.7,2.7,0,0,1,1,.8c-.6.2-1.2.2-1.5-.5a.8.8,0,0,1,.1-.5h-.2Z" fill="#c0003b"/><path d="M17.5,7.1a.9.9,0,0,1-.9-.6.8.8,0,0,1,.1-.5h-.2V5.8c0-.2.1-.3.1-.3h.3a.3.3,0,0,1,.1.2.3.3,0,0,0,.1.3,2.8,2.8,0,0,1,.9.8h-.6ZM16.7,6a.1.1,0,0,1,0,.1.8.8,0,0,0-.1.5.9.9,0,0,0,.9.6h.6a2.8,2.8,0,0,0-.9-.8.3.3,0,0,1-.1-.3.3.3,0,0,0-.1-.2h-.3c-.1,0-.1,0-.1.3h.1Z"/><path d="M15.9,12.2a1.6,1.6,0,0,1-1,.8c-.3.1-.5-.2-.1-.4s.7-.4.8-.6l.2.3Z" fill="#f5cd28"/><path d="M14.8,12.9h-.2c0-.1.1-.2.3-.3h.1c.2,0,.6-.4.7-.6l.3.3a1.6,1.6,0,0,1-1,.8Zm.1-.5c-.2.1-.3.2-.3.3s.2.2.3.1a1.6,1.6,0,0,0,1-.8l-.2-.2c-.1.2-.7.7-.8.6Z"/><path d="M15.9,12.2A8.8,8.8,0,0,1,19,9.1c-1.6.5-2.1,1.3-3.3,2.8l.3.2Z" fill="#cacaca"/><path d="M15.9,12.2h0l-.2-.2.4-.5a5.8,5.8,0,0,1,3-2.4,7.6,7.6,0,0,0-2.7,2.5l-.4.6ZM19,9.1a5.9,5.9,0,0,0-3,2.4l-.4.4.2.2.4-.6A7.5,7.5,0,0,1,19,9.1Z"/><path d="M15.9,11.9h0l.2-.2a8.3,8.3,0,0,1,2.2-2.2,9.1,9.1,0,0,0-2.2,2.2l-.2.2Z" fill="#7dcbc9"/><path d="M14.8,12.9a1.1,1.1,0,0,0,0-.5.3.3,0,0,1,.1-.3h1c.2,0,.1.2.1.2a.3.3,0,0,1-.3-.1l-.4-.2-.4.2a1.8,1.8,0,0,0,.1.6c0,.1.1.2,0,.2h-.2s0-.1,0-.1Z" fill="#f5cd28"/><path d="M14.9,13h0a.1.1,0,0,1,0-.1,1.2,1.2,0,0,0,0-.5.3.3,0,0,1,.1-.3h.7l-.4-.2-.4.2a1.7,1.7,0,0,0,.1.6.3.3,0,0,1,0,.2Zm.5-1h-.5a.3.3,0,0,0-.1.3,1.2,1.2,0,0,1,0,.5H15a.2.2,0,0,0,0-.2,1.8,1.8,0,0,1-.1-.6l.4-.2.4.2h-.3Z"/><path d="M15.5,12.6a.4.4,0,0,0,0-.2h0a.3.3,0,0,1,0,.2Z"/><path d="M15.4,12.6a.3.3,0,0,0,0-.2h0a.2.2,0,0,1,0,.2Z"/><path d="M15.3,12.7a.3.3,0,0,0,0-.2h0a.3.3,0,0,1,0,.2Z"/><path d="M15.1,12.8a.3.3,0,0,0,0-.2h0a.2.2,0,0,1,0,.2Z"/><path d="M15.8,12.3h-.2l-.3-.2h0l.3.2h.2Z"/><path d="M15,12.1h0Z" fill="#f5cd28"/><path d="M15,12.1h0Z"/><path d="M15.1,12h0Z" fill="#f5cd28"/><path d="M15.1,12.1h0Z"/><path d="M15.2,12h0Z" fill="#f5cd28"/><path d="M15.2,12h0Z"/><path d="M14.7,12.9a.2.2,0,0,0,0-.2.1.1,0,0,1,0-.1h0a.1.1,0,0,0,0,.1.2.2,0,0,1,0,.2Z"/><path d="M17.9,6.8c1,1.3,1.4,2.9-1.9,7.3,1.6-2.4,3.3-5.1,1.8-7.2Z" fill="#f8e629"/><path d="M16.1,14.1h0c1.7-2.4,3.3-5.1,1.8-7.2h.1c.9,1.2,1.5,2.7-1.9,7.3Zm1.9-7.3h-.1c1.5,2,0,4.7-1.6,7,3.2-4.4,2.6-5.9,1.7-7.1Z"/><path d="M17.9,7a2.2,2.2,0,0,1,0,3.2,2.4,2.4,0,0,0-.2-3.2Z" fill="#f8e629"/><path d="M18,10.2h0a2.4,2.4,0,0,0-.2-3.1h.1a2.2,2.2,0,0,1,0,3.2Zm0-3.2h-.1a2.4,2.4,0,0,1,.2,3.1A2.2,2.2,0,0,0,17.9,7Z"/><path d="M18,6.9c1,1.1,1.7,2.6.3,4,.8-1.3,1-2-.4-3.9Z" fill="#f8e629"/><path d="M18.3,10.9h0c.7-1.3,1-2-.4-3.9H18c.6.7,1.9,2.5.3,4Zm-.3-4h-.1c1.5,1.9,1.2,2.6.4,3.9,1.5-1.5.3-3.2-.3-3.9Z"/><path d="M18,6.7c1.2,1.2,1.9,3.3-.8,7,1-2,2.5-4.9.6-7Z" fill="#f8e629"/><path d="M17.3,13.8h0c1-2,2.5-4.9.6-6.9H18c1.6,1.7,1.4,4-.8,7Zm.8-7h-.1c1.9,2,.4,4.9-.6,6.9,2.1-3,2.3-5.3.7-7Z"/><path d="M18,6.9c.9,1.1,1.6,2.6.3,4,.8-1.3,1-2-.4-3.9Z" fill="#3e9a13"/><path d="M18.3,10.9h0a4,4,0,0,0,.6-1.4,3.8,3.8,0,0,1-.6,1.3c1.5-1.5.3-3.2-.3-3.9h-.1a6.2,6.2,0,0,1,.8,1.4A6.5,6.5,0,0,0,17.9,7H18c.6.7,1.9,2.5.3,4Z"/><path d="M18,7a2.5,2.5,0,0,1-.1,3.5c.6-1,1.1-1.9,0-3.4Z" fill="#3e9a13"/><path d="M17.9,10.5h0c.6-1,1.1-1.9,0-3.4H18a2.5,2.5,0,0,1-.1,3.5ZM18,7h-.1c1.1,1.5.6,2.4,0,3.4h0A2.5,2.5,0,0,0,18,7Z"/><path d="M18.1,6.7c1.2,1.2,1.9,3.3-.7,7,1.1-2.1,2.7-4.7.6-7Z" fill="#3e9a13"/><path d="M17.3,13.7h0l.3-.5c1-2,2.3-4.4.4-6.4h.1c1.6,1.7,1.4,4-.7,7Zm.7-7H18c1.9,2,.7,4.5-.4,6.4l-.2.5c2.1-3,2.3-5.3.7-7Z"/><path d="M18.1,6.8c1,1.3,1.5,2.9-1.9,7.3,1.6-2.3,3.4-5,1.8-7.2Z" fill="#3e9a13"/><path d="M16.2,14.1h0C17.7,12,19.7,9.1,18,6.9h.1c1,1.3,1.6,2.8-1.9,7.3Zm1.9-7.3H18c1.7,2.2-.2,5-1.7,7.1,3.4-4.4,2.8-5.9,1.8-7.2Z"/><path d="M16.6,5.8c0-.3.1-.3.1-.3s.4,0,.3.3a.3.3,0,0,0,.1.3c.8.5.8.7.9.8h-.6c.2,0-.5-.9-.8-.9V6h-.1Z" fill="#f8e629"/><path d="M18,7.2l-.5-.7h0c.5.4.5.4.5.7Z" fill="#3e9a13"/><path d="M18,7.2h0l-.5-.7h0l.4.7h0c0-.3,0-.3-.3-.6h0c.3.3.3.3.3.6h0Z"/><path d="M17.3,6.2a1.8,1.8,0,0,1,1,.7c-.8-.4-.7-.4-1-.7Z" fill="#3e9a13"/><path d="M18.3,6.9h0c-.7-.3-.7-.4-.9-.5h-.1a1.8,1.8,0,0,1,1,.7h0Zm-1-.7h.1c.1.2.2.2.9.5a1.8,1.8,0,0,0-1-.7Z"/><path d="M17.8,7.2a2.2,2.2,0,0,1-.4-.8h0c.4.4.5.6.3.8Z" fill="#3e9a13"/><path d="M17.8,7.2h0a2.1,2.1,0,0,1-.4-.8h0a1.9,1.9,0,0,0,.3.8.4.4,0,0,0,0-.4.4.4,0,0,1,0,.4Z"/><path d="M17.7,7.2a1.8,1.8,0,0,1-.2-.7h0c.2.2.3.5.2.7Z" fill="#3e9a13"/><path d="M17.7,7.2h0a1.8,1.8,0,0,1-.2-.7h0a1.4,1.4,0,0,0,.2.6.4.4,0,0,0,0-.4.4.4,0,0,1,0,.4Z"/><path d="M17.5,7.2a1.5,1.5,0,0,1-.2-.6h0c.2.3.2.5.1.6Z" fill="#3e9a13"/><path d="M17.5,7.2h0a1.5,1.5,0,0,1-.2-.6h0a1.4,1.4,0,0,0,.1.6.4.4,0,0,0,0-.3.4.4,0,0,1,0,.3Z"/><path d="M17.4,7.1a1.4,1.4,0,0,1-.1-.5h0c.1.3.2.4.1.6Z" fill="#3e9a13"/><path d="M17.4,7.1h0a1.3,1.3,0,0,1-.1-.5h0a1.3,1.3,0,0,0,.1.5.4.4,0,0,0,0-.3.4.4,0,0,1,0,.3Z"/><path d="M17.3,7.1a1.2,1.2,0,0,1,0-.5h0a.4.4,0,0,1,0,.5Z" fill="#3e9a13"/><path d="M17.3,7.1h0a1.2,1.2,0,0,1,0-.5h0a1.2,1.2,0,0,0,0,.5.4.4,0,0,0,0-.4.4.4,0,0,1,0,.4Z"/><path d="M17.8,6.7l-.4-.4h0c.3.1.4.3.4.4Z" fill="#3e9a13"/><path d="M17.8,6.7h0l-.4-.4h0l.4.4c0-.1,0-.2-.1-.2s.2.2.2.2h0Z"/><path d="M17.7,6.7a.9.9,0,0,1-.3-.4h0c.2.2.3.3.3.4Z" fill="#3e9a13"/><path d="M17.7,6.7h0a1,1,0,0,1-.3-.4h0a.8.8,0,0,0,.3.4c0-.1,0-.2-.1-.3s.1.2.1.3Z"/><path d="M17.5,6.7a.7.7,0,0,1-.2-.3h0c.2.2.2.3.2.3Z" fill="#3e9a13"/><path d="M17.5,6.7h0a.7.7,0,0,1-.2-.3h0a.6.6,0,0,0,.2.3c0-.1,0-.1-.1-.2s.1.2.1.2Z"/><path d="M17.4,6.7a.6.6,0,0,1-.1-.3h0c.1.1.2.2.1.3Z" fill="#3e9a13"/><path d="M17.4,6.7h0a.6.6,0,0,1-.1-.3h0a.5.5,0,0,0,.1.3c0-.1,0-.1,0-.2s.1.1,0,.2h0Z"/><path d="M17.3,6.7a.5.5,0,0,1-.1-.3h0c.1.1.1.2.1.3Z" fill="#3e9a13"/><path d="M17.3,6.7h0a.5.5,0,0,1-.1-.3h0a.4.4,0,0,0,.1.3s0-.1,0-.2.1.1,0,.2Z"/><path d="M17.2,6.7a.4.4,0,0,1,0-.2h0c.1.1.1.2,0,.3Z" fill="#3e9a13"/><path d="M17.2,6.7h0a.4.4,0,0,1,0-.3h0a.3.3,0,0,0,0,.2s0-.1,0-.2,0,.1,0,.2Z"/><path d="M17.6,6.6a1.2,1.2,0,0,1-.4-.4h0c.3.1.4.3.4.4Z" fill="#3e9a13"/><path d="M17.6,6.6h0a1.1,1.1,0,0,1-.4-.4h0l.4.3-.2-.2c.1.1.2.2.2.2h0Z"/><path d="M17.4,6.6a.9.9,0,0,1-.3-.4h0c.2.2.3.3.3.4Z" fill="#3e9a13"/><path d="M17.4,6.6h0a.9.9,0,0,1-.3-.4h0a.8.8,0,0,0,.3.4c0-.1,0-.2-.1-.3s.1.2.1.3Z"/><path d="M17.3,6.6a.7.7,0,0,1-.2-.3h0c.2.2.2.3.2.3Z" fill="#3e9a13"/><path d="M17.3,6.6h0a.7.7,0,0,1-.2-.3h0a.6.6,0,0,0,.2.3c0-.1,0-.1,0-.2s.1.1,0,.2Z"/><path d="M17.2,6.6a.6.6,0,0,1-.1-.3h0c.1.1.2.2.1.3Z" fill="#3e9a13"/><path d="M17.2,6.6h0a.6.6,0,0,1-.1-.3h0a.5.5,0,0,0,.1.3c0-.1,0-.1,0-.2s.1.1,0,.2Z"/><path d="M17.1,6.6a.5.5,0,0,1-.1-.3h0c.1.1.1.2.1.3Z" fill="#3e9a13"/><path d="M17.1,6.6h0a.5.5,0,0,1-.1-.3h0a.5.5,0,0,0,.1.3s0-.1,0-.2.1.1,0,.2Z"/><path d="M17,6.6a.4.4,0,0,1,0-.2h0c.1.1.1.2,0,.3Z" fill="#3e9a13"/><path d="M17,6.6h0a.4.4,0,0,1,0-.3h0a.4.4,0,0,0,0,.2s0-.1,0-.2,0,.1,0,.2Z"/><path d="M17.5,6.4a1.2,1.2,0,0,1-.4-.4h0c.3.1.4.3.4.4Z" fill="#3e9a13"/><path d="M17.5,6.4h0L17.1,6h0l.4.3V6.2c.1.1.2.2.1.2Z"/><path d="M17.4,6.4a1.1,1.1,0,0,1-.3-.4h0c.2.2.3.3.3.4Z" fill="#3e9a13"/><path d="M17.4,6.4h0a1.1,1.1,0,0,1-.3-.4h0l.3.4c0-.1,0-.2-.1-.2s.1.2.1.3Z"/><path d="M17.3,6.4a.8.8,0,0,1-.2-.3h0c.2.2.2.2.2.3Z" fill="#3e9a13"/><path d="M17.3,6.4h0a.8.8,0,0,1-.2-.3h0l.2.3h0Zm0,0c0-.1,0-.1-.1-.2s.1.1.1.2Z"/><path d="M17.1,6.4a.6.6,0,0,1-.1-.3h0c.1.1.2.2.1.3Z" fill="#3e9a13"/><path d="M17.1,6.4h0a.6.6,0,0,1-.1-.3h0a.5.5,0,0,0,.1.3c0-.1,0-.1,0-.2s.1.1,0,.2h0Z"/><path d="M17,6.4a.5.5,0,0,1-.1-.3h0c.1.1.1.2.1.3Z" fill="#3e9a13"/><path d="M17,6.4h0a.5.5,0,0,1-.1-.3h0a.4.4,0,0,0,.1.3s0-.1,0-.2a.1.1,0,0,1,0,.2Z"/><path d="M16.9,6.4a.4.4,0,0,1,0-.3h0c.1.1.1.2,0,.3Z" fill="#3e9a13"/><path d="M16.9,6.4h0a.4.4,0,0,1,0-.3h0a.4.4,0,0,0,0,.2s0-.1,0-.2a.1.1,0,0,1,0,.2Z"/><path d="M16.9,6.5a.4.4,0,0,1,0-.2h0c.1.1.1.2,0,.3Z" fill="#3e9a13"/><path d="M16.9,6.5h0a.4.4,0,0,1,0-.3h0a.4.4,0,0,0,0,.2c.1,0,.1-.1,0-.2s0,.1,0,.2Z"/><path d="M16.9,6.3a.4.4,0,0,1,0-.2h0c.1.1.1.2,0,.3Z" fill="#3e9a13"/><path d="M16.9,6.3h0a.4.4,0,0,1,0-.3h0a.4.4,0,0,0,0,.2h0Zm0,0s0-.1,0-.2,0,.1,0,.2Z"/><path d="M16.8,6.5a.4.4,0,0,1,0-.2h0c.1.1.1.2,0,.3Z" fill="#3e9a13"/><path d="M16.8,6.5h0a.4.4,0,0,1,0-.3h0a.4.4,0,0,0,0,.2.1.1,0,0,0,0-.2.1.1,0,0,1,0,.2Z"/><path d="M16.8,6.4a.4.4,0,0,1,0-.3h0c.1.1.1.2,0,.3Z" fill="#3e9a13"/><path d="M16.8,6.4h0a.4.4,0,0,1,0-.3h0a.4.4,0,0,0,0,.2.1.1,0,0,0,0-.2.1.1,0,0,1,0,.2Z"/><path d="M16.7,6.4a.4.4,0,0,1,0-.2h0c0,.1,0,.2,0,.3Z" fill="#3e9a13"/><path d="M16.7,6.4h0a.4.4,0,0,1,0-.3h0a.4.4,0,0,0,0,.2c.1,0,.1-.1.1-.2s0,.1-.1.2Z"/><path d="M16.7,6.4a.4.4,0,0,1,0-.3h0c0,.1,0,.2,0,.3Z" fill="#3e9a13"/><path d="M16.7,6.4h0a.4.4,0,0,1,0-.3h0a.3.3,0,0,0,0,.2c.1,0,.1-.1.1-.2s0,.1-.1.2Z"/><path d="M16.6,6.4a.4.4,0,0,1,0-.3h0c0,.1,0,.2,0,.3Z" fill="#3e9a13"/><path d="M16.6,6.4h0a.4.4,0,0,1,0-.3h0a.4.4,0,0,0,0,.2c.1,0,.1-.1.1-.2s0,.1-.1.2h0Z"/><path d="M16.9,6.3a.4.4,0,0,1,0-.2h0c.1.1.1.2,0,.3Z" fill="#3e9a13"/><path d="M16.9,6.3h0a.4.4,0,0,1,0-.3h0a.4.4,0,0,0,0,.2h0Zm0,0s0-.1,0-.2,0,.1,0,.2Z"/><path d="M16.8,6.3a.4.4,0,0,1,0-.2h0c.1.1.1.2,0,.3Z" fill="#3e9a13"/><path d="M16.8,6.3h0a.4.4,0,0,1,0-.3h0a.4.4,0,0,0,0,.2h0Zm0,0s0-.1,0-.2,0,.1,0,.2Z"/><path d="M16.7,6.3a.4.4,0,0,1,0-.3h0c0,.1,0,.2,0,.3Z" fill="#3e9a13"/><path d="M16.7,6.3h0a.4.4,0,0,1,0-.3h0a.4.4,0,0,0,0,.2Z"/><path d="M16.7,6.3a.4.4,0,0,1,0-.2h0c0,.1,0,.2,0,.3Z" fill="#3e9a13"/><path d="M16.7,6.3h0a.4.4,0,0,1,0-.3h0a.4.4,0,0,0,0,.2h0Z"/><path d="M17.5,6.4c.5.4.7.3.6.7h0l-.6-.7Z" fill="#3e9a13"/><path d="M18.1,7.1h0c0-.2,0-.3-.2-.4l-.4-.3h0l.4.3c.2.1.3.2.2.4Zm-.3-.3-.3-.3h0l.3.3Z"/><path d="M16.3,9.7c-.4-.2-.8-.2-.8.2s.1.6.5.5a1.6,1.6,0,0,0,.3-.7Z" fill="#f0f2be"/><path d="M15.8,10.4h0c-.2,0-.3-.2-.3-.5s.3-.5.9-.2a1.5,1.5,0,0,1-.3.7Zm0-.9c-.2,0-.3.1-.4.4s.1.5.3.5H16a1.6,1.6,0,0,0,.3-.7Z"/><path d="M15.7,10.4a11.3,11.3,0,0,0,2.4-.1,1.5,1.5,0,0,0,.1-1.4,6.4,6.4,0,0,0-.7-1.3c.1,0,.3-.4.1-.6a10.8,10.8,0,0,1-2-.1h-.3c-.2.3-.3.6,0,1.2a7.4,7.4,0,0,1,.7,1.3c.1.7-.1.7-.4.8Z" fill="#fdffcb"/><path d="M16.8,10.4h-1c.2-.1.4-.1.3-.8V9.4a6.5,6.5,0,0,0-.6-1.1c-.3-.6-.2-1,0-1.2h2.3a.5.5,0,0,1,0,.4v.2h0a6.2,6.2,0,0,1,.7,1.3,1.5,1.5,0,0,1-.1,1.4Zm-1,0h2.4a1.5,1.5,0,0,0,.1-1.4,6.5,6.5,0,0,0-.7-1.3V7.5a.5.5,0,0,0,0-.4H15.4c-.2.2-.3.5,0,1.2A6,6,0,0,1,16,9.4v.2c.1.7-.1.7-.3.8h0Z"/><path d="M15.6,7.7h.1V7.4a.4.4,0,0,0,0-.2V7.1h0v.2a.4.4,0,0,1,0,.2v.2Z"/><path d="M15.9,10.3h0A.5.5,0,0,0,16,10a.4.4,0,0,0,0-.2h0a.4.4,0,0,1,0,.2.4.4,0,0,1-.1.3h0Z"/><path d="M15.8,10.3h-.2a.3.3,0,0,1,0-.2h0a.3.3,0,0,0,0,.2h.2Z"/><path d="M15.9,10h-.2c0-.1,0-.2,0-.2h0c.1,0,.1.1,0,.2h.2Z"/><path d="M15.7,9.6h0Z" fill="none"/><path d="M15.7,9.6h0Z" fill="none"/><path d="M15.7,9.6h0Z" fill="none"/><path d="M15.8,9.7h0Z" fill="none"/><path d="M15.8,9.7h0Z" fill="none"/><path d="M15.8,9.7h0Z" fill="none"/><path d="M15.8,9.8h0Z" fill="none"/><path d="M15.6,7.7h-.2a.5.5,0,0,1,.1-.3h0a.5.5,0,0,0-.1.3h.2Z"/><path d="M15.7,7.5h-.1a.3.3,0,0,0,0-.2h0a.3.3,0,0,1,0,.2h.1Z"/><path d="M15.6,7.7h0Z"/><path d="M16.3,8.4h-.1V8.2h0v.2h.1Z" fill="#c0003b"/><path d="M16.4,8.4h-.1V8.2h0v.2h0Z" fill="#c0003b"/><path d="M16.4,8.4h0V8.2h.1Z" fill="#c0003b"/><path d="M16.5,8.1h.1V8.2h0Z" fill="#c0003b"/><path d="M17,8.3h0Z" fill="#c0003b"/><path d="M17.1,8.3h-.1V8.1h0v.2h0Z" fill="#c0003b"/><path d="M17.4,8.3h-.2V8.1h0v.2h0Z" fill="#c0003b"/><path d="M17.4,8.3h0V8.1h.2c0,.1,0,.1-.1.1h-.1Z" fill="#c0003b"/><path d="M16.7,8.8h-.1v.2h0Z" fill="#c0003b"/><path d="M16.7,8.6h0Z" fill="#c0003b"/><path d="M17,8.8h0V8.6h.2c0,.1,0,.1,0,.1H17Z" fill="#c0003b"/><path d="M17.1,8.5h.1V8.6h0Z" fill="#c0003b"/><path d="M16.3,9.1h-.1s0-.1,0-.1h.1Z" fill="#c0003b"/><path d="M16.3,9h.1V9.1h0Z" fill="#c0003b"/><path d="M16.9,9.2h-.1V9h0v.2h0Z" fill="#c0003b"/><path d="M17,9.2h-.1V9h0v.2h0Z" fill="#c0003b"/><path d="M16.9,9H17V9h0Z" fill="#c0003b"/><path d="M17.5,9.2h-.1v0h0v0h0V9h0V9h.2Z" fill="#c0003b"/><path d="M17.5,9h0v.2h.1s0,0,0,0Zm0,0h0Zm0,.1h0Z" fill="#c0003b"/><path d="M17.7,9h0Zm0,0h0Z" fill="#c0003b"/><path d="M17.8,8.9h.1V9h0Z" fill="#c0003b"/><path d="M16.8,9.7h0V9.5h.2c0,.1,0,.1-.1.1h-.1Z" fill="#c0003b"/><path d="M16.9,9.5H17V9.5h0Z" fill="#c0003b"/><path d="M17.3,9.6h-.1v.2h0Z" fill="#c0003b"/><path d="M17.4,9.5h0Z" fill="#c0003b"/><path d="M17.6,9.6h0Z" fill="#c0003b"/><path d="M17.8,9.6h-.1v.2h0Z" fill="#c0003b"/><path d="M16.9,6.2a.3.3,0,0,1,0-.2h0c.1.1.1.1,0,.2Z" fill="#3e9a13"/><path d="M16.9,6.2a.3.3,0,0,1,0-.2h0c.1.1.1.1,0,.2Z" fill="none"/><path d="M16.9,6.2a.3.3,0,0,1,0-.2h0c.1.1.1.1,0,.2Z" fill="#3e9a13"/><path d="M16.9,6.2a.3.3,0,0,1,0-.2h0c.1.1.1.1,0,.2Z" fill="none"/><path d="M16.8,6.2a.3.3,0,0,1,0-.2h0c0,.1,0,.1,0,.2Z" fill="#3e9a13"/><path d="M16.8,6.2a.3.3,0,0,1,0-.2h0c0,.1,0,.1,0,.2Z" fill="none"/><path d="M16.9,6.2a.3.3,0,0,1,0-.2h0c0,.1,0,.2,0,.2Z" fill="#3e9a13"/><path d="M16.9,6.2a.3.3,0,0,1,0-.2h0c0,.1,0,.2,0,.2Z" fill="none"/><path d="M17,6.2A.3.3,0,0,0,17,6h0c0,.1-.1.1,0,.2Z" fill="#3e9a13"/><path d="M17,6.2c-.1,0,0-.1,0-.2h0c-.1.1-.1.1,0,.2Z"/><path d="M17.1,6.2A.3.3,0,0,0,17,6h0c0,.1,0,.1,0,.2Z" fill="#3e9a13"/><path d="M17.1,6.2c-.1,0-.1-.1,0-.2h0c0,.1,0,.1,0,.2Z"/><path d="M17,6.2A.3.3,0,0,0,17,6h0c0,.1,0,.2,0,.2Z" fill="#3e9a13"/><path d="M17,6.2c-.1,0-.1-.1,0-.2h0c0,.1,0,.1,0,.2Z"/><path d="M17.1,6.1h0Z" fill="#3e9a13"/><path d="M17.1,6.1h0Z" fill="none"/><path d="M17.2,6h0Z" fill="#3e9a13"/><path d="M17.2,6h0Z"/><path d="M17.1,6.1h0Z" fill="#3e9a13"/><path d="M17.1,6.1h0Z"/><path d="M17.2,6h0Z" fill="#3e9a13"/><path d="M17.2,6h0Z" fill="none"/><path d="M17.2,6h0Z" fill="#3e9a13"/><path d="M17.2,6h0Z"/><path d="M17.2,5.9h0Z" fill="#3e9a13"/><path d="M17.2,5.9h0Z" fill="none"/><path d="M17.2,5.9h0Z" fill="#3e9a13"/><path d="M17.2,5.9h0Z" fill="none"/><path d="M17.2,5.9h0Z" fill="#3e9a13"/><path d="M17.2,5.9h0Z" fill="none"/><path d="M17.2,5.8h0Z" fill="#3e9a13"/><path d="M17.2,5.8h0Z" fill="none"/><path d="M17.2,5.8h0Z" fill="#3e9a13"/><path d="M17.2,5.8h0Z"/><path d="M17.2,5.7h0Z" fill="#3e9a13"/><path d="M17.2,5.8h0Z"/><path d="M17.2,5.7h0Z" fill="#3e9a13"/><path d="M17.1,5.7h0Z"/><path d="M17.2,5.6h0Z" fill="#3e9a13"/><path d="M17.2,5.6h0Z" fill="none"/><path d="M17.1,5.6h0Z" fill="#3e9a13"/><path d="M17.1,5.6h0Z" fill="none"/><path d="M17.1,5.6h0Z" fill="#3e9a13"/><path d="M17,5.7h0Z"/><path d="M17.1,5.5h0Z" fill="#3e9a13"/><path d="M17.1,5.5h0Z" fill="none"/><path d="M17.1,5.6h0Z" fill="#3e9a13"/><path d="M17.1,5.6h0Z" fill="none"/><path d="M17,5.5h0Z" fill="#3e9a13"/><path d="M17,5.5h0Z" fill="none"/><path d="M17,5.5h0Z" fill="#3e9a13"/><path d="M17,5.5h0Z" fill="none"/><path d="M17,5.5h-.1s.1-.1.1-.1Z" fill="#3e9a13"/><path d="M17,5.5h-.1s.1-.1.1-.1Z" fill="none"/><path d="M16.7,5.5h0Z" fill="#3e9a13"/><path d="M16.8,5.6h0Z"/><path d="M16.6,5.6h0Z" fill="#3e9a13"/><path d="M16.6,5.6h0Z" fill="none"/><path d="M16.7,5.6h0Z" fill="#3e9a13"/><path d="M16.7,5.6h0Z" fill="none"/><path d="M16.8,5.5h0Z" fill="#3e9a13"/><path d="M16.8,5.5h0Z" fill="none"/><path d="M16.8,5.5h0Z" fill="#3e9a13"/><path d="M16.8,5.5h0Z" fill="none"/><path d="M16.8,5.5a.2.2,0,0,0,0,.1h0c0-.1,0-.1,0-.1Z" fill="#3e9a13"/><path d="M16.8,5.6h0c0-.1,0-.1,0-.1a.2.2,0,0,0,0,.1.1.1,0,0,1,0-.1h0s0,.1,0,.1Z"/><path d="M16.7,5.5a.2.2,0,0,0,0,.1h0c0-.1,0-.1,0-.1Z" fill="#3e9a13"/><path d="M16.8,5.6h0c0-.1,0-.1,0-.1h0s0,0,0,.1Z"/><path d="M16.8,5.5a.2.2,0,0,1,0,.1h0c0-.1-.1-.1,0-.1Z" fill="#3e9a13"/><path d="M16.8,5.5a.2.2,0,0,1,0,.1h0c0-.1-.1-.1,0-.1Z" fill="none"/><path d="M16.9,5.5a.2.2,0,0,1,0,.1h0c0-.1,0-.1,0-.1Z" fill="#3e9a13"/><path d="M16.9,5.5a.2.2,0,0,1,0,.1h0c0-.1,0-.1,0-.1Z" fill="none"/><path d="M16.9,5.5a.2.2,0,0,1,0,.1h0c0-.1,0-.1,0-.1Z" fill="#3e9a13"/><path d="M16.9,5.5a.2.2,0,0,1,0,.1h0c0-.1,0-.1,0-.1Z" fill="none"/><path d="M16.6,5.8h0Z" fill="#3e9a13"/><path d="M16.6,5.8h0Z" fill="none"/><path d="M16.6,5.9h0Z" fill="#3e9a13"/><path d="M16.6,5.9h0Z" fill="none"/><path d="M16.6,5.8h0Z" fill="#3e9a13"/><path d="M16.6,5.8h0Z" fill="none"/><path d="M16.6,5.7h0Z" fill="#3e9a13"/><path d="M16.6,5.7h0Z" fill="none"/><path d="M16.6,5.6h0Z" fill="#3e9a13"/><path d="M16.6,5.6h0Z" fill="none"/><path d="M16.6,5.7h0Z" fill="#3e9a13"/><path d="M16.7,5.7h0Z"/><path d="M16.6,5.7h0Z" fill="#3e9a13"/><path d="M16.7,5.8h0Z"/><path d="M16.7,5.6h0Z" fill="#3e9a13"/><path d="M16.7,5.6h0Z" fill="none"/><path d="M16.7,6h0Z" fill="#3e9a13"/><path d="M16.7,6h0Z" fill="none"/><path d="M16.7,6.1h0Z" fill="#3e9a13"/><path d="M16.7,6.1h0Z"/><path d="M16.8,6.1h0Z" fill="#3e9a13"/><path d="M16.8,6.1h0Z" fill="none"/><path d="M16.7,6.1h0Z" fill="#3e9a13"/><path d="M16.7,6.1h0Z"/><path d="M16.7,6h0Z" fill="#3e9a13"/><path d="M16.7,6h0Z" fill="none"/><path d="M16.7,5.9h0Z" fill="#3e9a13"/><path d="M16.7,5.9h0Z" fill="none"/><path d="M16.7,6h0Z" fill="#3e9a13"/><path d="M16.7,6h0Z"/><path d="M16.6,5.9h0Z" fill="#3e9a13"/><path d="M16.6,5.9h0Z" fill="none"/><path d="M17.2,5.7h0Z" fill="#3e9a13"/><path d="M17.2,5.7h0Z" fill="none"/><path d="M16.6,5.9h0Z" fill="#3e9a13"/><path d="M16.7,5.9h0Z"/><path d="M17.1,6h0Z" fill="#3e9a13"/><path d="M17.1,6h0Z" fill="none"/><path d="M17,6.1h0c0,.1.1.1,0,.1Z" fill="#3e9a13"/><path d="M17,6.1h0c0,.1.1.1,0,.1Z" fill="none"/><path d="M17.1,6h0Z" fill="#3e9a13"/><path d="M17.1,6h0Z" fill="none"/><path d="M17.1,5.9h0Z" fill="#3e9a13"/><path d="M17.1,5.9h0Z" fill="none"/><path d="M17,5.6h0Z" fill="#3e9a13"/><path d="M16.9,5.7h0Z"/><path d="M17,5.6h0Z" fill="#3e9a13"/><path d="M17,5.6h0Z" fill="none"/><path d="M16.9,5.5a.2.2,0,0,1,0,.1h0c0-.1,0-.1,0-.1Z" fill="#3e9a13"/><path d="M16.9,5.5a.2.2,0,0,1,0,.1h0c0-.1,0-.1,0-.1Z" fill="none"/><path d="M16.7,5.6h0Z" fill="#3e9a13"/><path d="M16.7,5.6h0Z" fill="none"/><path d="M16.7,5.9h0Z" fill="#3e9a13"/><path d="M16.7,5.9h0Z" fill="none"/><path d="M16.8,6.1h0Z" fill="#3e9a13"/><path d="M16.8,6.1h0Z" fill="none"/><path d="M16.9,6.1A.3.3,0,0,0,17,6h0c-.1.1-.1.1,0,.2Z" fill="#3e9a13"/><path d="M16.9,6.1c-.1,0,0-.1,0-.2h0c-.1.1-.1.1,0,.2Z"/><path d="M17.2,5.8h0Z" fill="#3e9a13"/><path d="M17.2,5.8h0Z" fill="none"/><path d="M17.2,5.7h0Z" fill="#3e9a13"/><path d="M17.2,5.7h0Z" fill="none"/><path d="M16.7,5.6h0Z" fill="#3e9a13"/><path d="M16.8,5.7h0Z"/><path d="M16.8,5.6h0Z" fill="#3e9a13"/><path d="M16.9,5.7h0Z"/><path d="M16.7,5.7h0Z" fill="#3e9a13"/><path d="M16.7,5.7h0Z" fill="none"/><path d="M16.7,5.8h0Z" fill="#3e9a13"/><path d="M16.7,5.8h0Z"/><path d="M16.7,5.8h0Z" fill="#3e9a13"/><path d="M16.7,5.8h0Z"/><path d="M16.8,6h0Z" fill="#3e9a13"/><path d="M16.8,6h0s0-.1,0-.1,0,.1,0,.1Z"/><path d="M16.8,6h0Z" fill="#3e9a13"/><path d="M16.8,6h0Z" fill="none"/><path d="M16.8,6h0Z" fill="#3e9a13"/><path d="M16.8,6h0Z"/><path d="M16.9,6h0Z" fill="#3e9a13"/><path d="M16.9,6h0Z"/><path d="M16.9,6.1c.1,0,0-.1,0-.1h0c0,.1-.1.1,0,.1Z" fill="#3e9a13"/><path d="M16.9,6.1c.1,0,0-.1,0-.1h0c0,.1-.1.1,0,.1Z" fill="none"/><path d="M16.9,6s0-.1,0-.1h0c0,.1-.1.1,0,.1Z" fill="#3e9a13"/><path d="M16.9,6s0-.1,0-.1h0c0,.1-.1.1,0,.1Z" fill="none"/><path d="M17,6s0-.1,0-.1h0c0,.1,0,.1,0,.1Z" fill="#3e9a13"/><path d="M17,6s0-.1,0-.1h0c0,.1,0,.1,0,.1Z" fill="none"/><path d="M17,6s0-.1,0-.1h0c0,.1,0,.1,0,.1Z" fill="#3e9a13"/><path d="M17,6s0-.1,0-.1h0c0,.1,0,.1,0,.1Z" fill="none"/><path d="M17.1,5.9h0Z" fill="#3e9a13"/><path d="M17.1,5.9h0Z" fill="none"/><path d="M17.1,5.8h0Z" fill="#3e9a13"/><path d="M17.1,5.8h0Z" fill="none"/><path d="M17.1,5.7h0Z" fill="#3e9a13"/><path d="M17.1,5.7h0Z"/><path d="M17.1,5.7h0Z" fill="#3e9a13"/><path d="M17.1,5.7h0Z" fill="none"/><path d="M17,5.6h0Z" fill="#3e9a13"/><path d="M17,5.6h0Z" fill="none"/><path d="M16.8,5.6h0Z" fill="#3e9a13"/><path d="M16.9,5.7h0Z"/><path d="M16.7,5.7h0Z" fill="#3e9a13"/><path d="M16.8,5.7h0Z"/><path d="M16.8,5.7h0Z" fill="#3e9a13"/><path d="M16.8,5.7h0Z" fill="none"/><path d="M16.8,5.8h0Z" fill="#3e9a13"/><path d="M16.8,5.8h0Z" fill="none"/><path d="M16.8,5.9h0Z" fill="#3e9a13"/><path d="M16.8,5.9h0Z" fill="none"/><path d="M16.8,5.9h0Z" fill="#3e9a13"/><path d="M16.8,5.9h0Z" fill="none"/><path d="M16.9,5.9c.1,0,0-.1,0-.1h0Z" fill="#3e9a13"/><path d="M16.9,5.9c.1,0,0-.1,0-.1h0Z" fill="none"/><path d="M17,5.9s0-.1,0-.1h0c0,.1,0,.1,0,.1Z" fill="#3e9a13"/><path d="M17,5.9s0-.1,0-.1h0c0,.1,0,.1,0,.1Z" fill="none"/><path d="M17.1,5.9h0Z" fill="#3e9a13"/><path d="M17,5.9h0Z"/><path d="M17,5.8h0Z" fill="#3e9a13"/><path d="M17,5.8h0Z"/><path d="M17.1,5.7h0Z" fill="#3e9a13"/><path d="M17,5.8h0Z"/><path d="M16.8,5.6h0Z" fill="#3e9a13"/><path d="M16.8,5.6h0Z" fill="none"/><path d="M16.9,5.6s0,.1,0,.1h0c0-.1.1-.1,0-.1Z" fill="#3e9a13"/><path d="M16.9,5.8s0-.1,0-.1h0s0,.1,0,.1,0-.1,0-.1,0,.1,0,.1Z"/><path d="M17,5.7h0Z" fill="#3e9a13"/><path d="M16.9,5.8h0Z"/><path d="M16.9,5.9s0-.1,0-.1h0c0,.1,0,.1,0,.1Z" fill="#3e9a13"/><path d="M16.9,5.9h0c-.1,0,0,0,0-.1h0c0,.1,0,.1,0,.1s0-.1,0-.1.1.1,0,.1Z"/><path d="M16.8,5.9h0Z" fill="#3e9a13"/><path d="M16.8,5.9h0Z" fill="none"/><path d="M16.9,5.9s0-.1,0-.1h0c0,.1,0,.1,0,.1Z" fill="#3e9a13"/><path d="M16.9,5.9s0-.1,0-.1h0c0,.1,0,.1,0,.1Z" fill="none"/><path d="M16.9,5.9h0Z" fill="#f8e629"/><path d="M16.9,5.9h0Zm0-.1h0Z"/><path d="M16.9,5.8h0Z"/><path d="M16.8,9.6h0s0,0,0-.1h0Z" fill="#fdffcb"/><path d="M16.5,8.3h0Z" fill="#fdffcb"/><path d="M16.5,8.2h0Z" fill="#fdffcb"/><polygon points="17.2 8.3 17.2 8.2 17.2 8.3 17.2 8.3" fill="#fdffcb"/><path d="M16.8,8.2h0Z" fill="#fdffcb"/><path d="M17.4,9.6h0Z" fill="#fdffcb"/><path d="M17.4,9.5a.1.1,0,0,0,0,0h0Z" fill="#fdffcb"/><path d="M17.4,8.3h0s0,0,0-.1h0Z" fill="#fdffcb"/><path d="M17,8.7h0s0,0,0-.1h0Z" fill="#fdffcb"/><path d="M16.6,9.1h.1a.1.1,0,0,1,0,0h-.1Zm0-.1h0Z" fill="#c0003b"/></g></g></svg>