<svg xmlns="http://www.w3.org/2000/svg" xmlns:xlink="http://www.w3.org/1999/xlink" viewBox="0 0 33.6 19.6"><defs><clipPath id="a"><rect width="33.6" height="19.58" fill="none"/></clipPath></defs><title>HTI</title><g clip-path=""><rect width="33.6" height="19.58" fill="#1f189b"/><rect y="9.8" width="33.6" height="9.79" fill="#c0003b"/><rect x="13.6" y="7.3" width="6.4" height="5.06" fill="#fff"/><g clip-path=""><path d="M18.1,10.9H15.5l-.9.3-.4.2h-.5v.7H20v-.7h-.5l-.4-.2-.9-.4Z" fill="#2c6c1e" fill-rule="evenodd"/><path d="M20,12.3H13.6v-.7h.9l.9-.3h2.6l.9.4h1v.7Zm-1.9-1.4H15.5l-.9.3h-.9v.7H20v-.7H19l-.9-.4Z" fill="#2c6c1e"/><polygon points="16.7 8.2 16.7 8.8 16.9 8.8 16.8 8.2 17 8.1 17 7.9 16.5 7.9 16.5 8.1 16.7 8.2" fill="#2c6c1e" fill-rule="evenodd"/><path d="M16.9,8.8h-.2V8.2h-.2V7.9H17v.2h-.2v.6Zm.1-.9h-.5v.2h.2v.6h.2V8.2H17V7.9Z" fill="#2c6c1e"/><polygon points="16.2 9.8 16.1 9.5 16.1 9.4 16.4 10.1 16.2 9.8" fill="#e6b32d" fill-rule="evenodd"/><path d="M16.5,10.1l-.2-.3-.2-.4h.1l.3.6Zm-.3-.6h-.1l.2.4.2.2-.3-.6Z"/><polygon points="15.8 9 16 9.5 16.1 9.5 15.8 9" fill="#fff" fill-rule="evenodd"/><path d="M16.1,9.6H16L15.8,9l.3.5ZM15.8,9l.2.5h.1L15.8,9Z"/><polygon points="16.4 9.4 16.5 9.4 16.7 10.1 16.6 10.3 16.4 9.4" fill="#e6b32d" fill-rule="evenodd"/><path d="M16.6,10.3l-.2-1h.1l.2.7v.3Zm-.1-1h-.1l.2.9v-.2l-.2-.7Z"/><polygon points="16.5 10.1 16.2 9.3 16.3 9.3 16.6 10.3 16.5 10.1" fill="#e6b32d" fill-rule="evenodd"/><path d="M16.7,10.3l-.2-.2-.3-.8h.1l.4,1Zm-.4-1h-.1l.3.8h.1l-.3-.9Z"/><polygon points="16.1 8.9 16.2 9.4 16.3 9.4 16.1 8.9" fill="#fff" fill-rule="evenodd"/><path d="M16.3,9.4h-.1V8.9l.2.5Zm-.2-.5v.5h.1l-.2-.5Z"/><polygon points="16.3 8.9 16.4 9.4 16.4 9.4 16.3 8.9" fill="#fff" fill-rule="evenodd"/><path d="M16.4,9.4h0v0Zm-.1-.6v.5h.1V8.9Z"/><path d="M16.3,9.9,15.5,9a.6.6,0,0,0-.2.5l.9.7Z" fill="#233189" fill-rule="evenodd"/><path d="M16.2,10.3l-.9-.7a.6.6,0,0,1,.2-.5l.8.8v.4ZM15.5,9a.6.6,0,0,0-.2.5l.9.7V9.9L15.5,9Z"/><path d="M16.7,10.3l-.6-.6c-.2,0,0,.4,0,.4l.6.5Z" fill="#c00024" fill-rule="evenodd"/><path d="M16.7,10.7l-.6-.6c0-.1-.1-.2,0-.3h.1l.6.6v.4Zm-.6-.9H16c0,.1,0,.2.1.3h0l.6.5v-.3l-.6-.6Z"/><polygon points="16.7 10.2 15.5 9 15.4 9 16.7 10.4 16.7 10.2" fill="#e6b32d" fill-rule="evenodd"/><path d="M16.7,10.4h0L15.4,9h0l1.2,1.3v.2ZM15.5,9h0l1.2,1.4h0L15.5,9Z"/><polygon points="15.4 8.9 15.4 8.9 15.4 8.8 15.1 8.7 15.3 8.9 15.3 8.9 15.4 8.9 15.4 8.9" fill="#e6b32d" fill-rule="evenodd"/><polygon points="15.4 9 15.3 8.9 15.3 8.9 15.1 8.7 15.4 8.8 15.4 8.8 15.4 8.8 15.1 8.7 15.3 8.9 15.3 8.9 15.4 8.9 15.4 8.9 15.4 8.9 15.4 8.9 15.4 9 15.4 9"/><path d="M15.3,9h0Z" fill="#e6b32d" fill-rule="evenodd"/><path d="M15.4,9.1h-.1l.2-.2h-.1Zm.1-.2h0Z"/><path d="M15.9,10.1l-1-.8c-.2.2,0,.7,0,.7l.9.5Z" fill="#233189" fill-rule="evenodd"/><path d="M15.9,10.5l-1-.5s-.1-.5,0-.7l1,.8v.4ZM15,9.3c-.2.2,0,.7,0,.7l.9.5v-.4l-1-.8Z"/><path d="M16.7,10.7l-.8-.6c-.3,0-.1.4,0,.5l.8.5Z" fill="#c00024" fill-rule="evenodd"/><path d="M16.7,11l-.8-.5c0-.1-.1-.3-.1-.4h.1l.8.6V11Zm-.8-.9h-.1c-.1.1,0,.3.1.4l.8.5v-.3l-.8-.6Z"/><polygon points="16.7 10.6 15 9.3 14.9 9.3 16.7 10.8 16.7 10.6" fill="#e6b32d" fill-rule="evenodd"/><path d="M16.8,10.8h0L14.9,9.4h0l1.7,1.3v.2ZM15,9.3h0l1.8,1.4h0L15,9.3Z"/><polygon points="14.9 9.2 14.9 9.2 14.9 9.2 14.6 9 14.7 9.3 14.8 9.3 14.9 9.3 14.9 9.2" fill="#e6b32d" fill-rule="evenodd"/><polygon points="14.9 9.3 14.8 9.3 14.7 9.3 14.6 9 14.9 9.2 14.9 9.2 14.9 9.2 14.6 9.1 14.7 9.3 14.8 9.3 14.9 9.3 14.9 9.2 14.9 9.2 14.9 9.2 14.9 9.3 14.9 9.3"/><path d="M14.8,9.3V9.2h-.1Z" fill="#e6b32d" fill-rule="evenodd"/><path d="M14.9,9.4h-.1V9.2H15v.2Zm0-.2v.2h.1Z"/><path d="M15.9,10.6l-1.2-.7a.4.4,0,0,0,0,.4.6.6,0,0,0,0,.4l.2.3c.1.4.6.5.7.1Z" fill="#233189" fill-rule="evenodd"/><path d="M15.3,11.3h0a.4.4,0,0,1-.4-.4l-.2-.3a.5.5,0,0,1-.1-.3h0a.4.4,0,0,1,0-.4l1.2.7-.3.5a.4.4,0,0,1-.3.2Zm-.6-1.5a.4.4,0,0,0,0,.4.5.5,0,0,1,0,.1.5.5,0,0,0,0,.3l.2.3a.4.4,0,0,0,.4.3h0l.3-.2.3-.5h0l-1.2-.7Z"/><path d="M16.7,11l-.8-.5c-.3,0,0,.5,0,.6l.8.3Z" fill="#c00024" fill-rule="evenodd"/><path d="M16.7,11.4l-.8-.3h0c0-.1-.2-.4-.1-.5h.1l.8.5v.4Zm-.8-.9h-.1c-.1.1.1.4.1.5l.8.3V11l-.8-.5Z"/><polygon points="16.5 10.9 14.6 9.8 14.6 9.9 16.6 11 16.5 10.9" fill="#e6b32d" fill-rule="evenodd"/><path d="M16.6,11l-2-1.1h0l1.9,1V11Zm-2-1.2h0l2,1.1h-.1l-1.9-1Z"/><polygon points="14.5 9.8 14.5 9.8 14.5 9.7 14.2 9.6 14.4 9.8 14.5 9.8 14.5 9.8 14.5 9.8" fill="#e6b32d" fill-rule="evenodd"/><polygon points="14.5 9.9 14.5 9.8 14.4 9.8 14.2 9.6 14.5 9.7 14.5 9.7 14.5 9.7 14.2 9.6 14.4 9.8 14.5 9.8 14.5 9.8 14.5 9.8 14.5 9.8 14.5 9.8 14.5 9.9 14.5 9.9"/><path d="M14.4,9.9V9.7h.1v.2Z" fill="#e6b32d" fill-rule="evenodd"/><path d="M14.6,10h-.1V9.7h.1V10Zm0-.2v.2h.1V9.8Z"/><path d="M15.2,9.2h0l.3-.2h.2a.2.2,0,0,0-.3,0Z" fill="#233189" fill-rule="evenodd"/><path d="M15.2,9.3h0l.3-.2s.1-.1.3,0h-.2l-.3.2Zm.4-.4h-.1l-.3.2h0l.3-.2h.1Z" fill="#233189"/><path d="M15.3,9.3V9.1c.1,0,.2.1.3-.1h-.3l-.2.2Z" fill="#c00024" fill-rule="evenodd"/><path d="M15.3,9.3h0V9.1h.3c-.1.2-.1.2-.2.1l-.2.2Z" fill="#c00024"/><path d="M14.7,9.6h0l.2-.2h.2c-.1-.1-.2,0-.2,0Z" fill="#233189" fill-rule="evenodd"/><path d="M14.7,9.6h0l.2-.2s.2-.2.3,0h-.2l-.2.2Zm.4-.4h-.1l-.2.2h0l.2-.2h.1Z" fill="#233189"/><path d="M14.8,9.7V9.4c.1,0,.2.1.2-.1s-.2,0-.2,0h0l-.2.2Z" fill="#c00024" fill-rule="evenodd"/><path d="M14.8,9.7h0V9.4H15s.1,0,.1-.2h0c0,.2-.1.2-.2.2v.3Z" fill="#c00024"/><path d="M14.4,10.1h0l.2-.3h.2c-.1-.1-.2.1-.2.1Z" fill="#233189" fill-rule="evenodd"/><path d="M14.4,10.2h0l.2-.3s.1-.2.2-.1h-.2l-.2.3Zm.3-.5h-.1l-.2.3h0l.2-.3h.1Z" fill="#233189"/><path d="M14.6,10.2a.8.8,0,0,1,0-.3c.1,0,.2,0,.2-.2h-.3v.3Z" fill="#c00024" fill-rule="evenodd"/><path d="M14.6,10.3h0a.7.7,0,0,1,.1-.3c.1,0,.2.1.2-.2h0c0,.2-.1.2-.2.2a1.1,1.1,0,0,0,0,.3Z" fill="#c00024"/><polygon points="16.5 11.3 16 11.2 15.8 10.8 15.1 10.8 15.1 11 15.8 11.2 15.8 11.3 16.5 11.5 16.5 11.3" fill="#e6b32d" fill-rule="evenodd"/><path d="M16.5,11.5l-.7-.2h-.7v-.3h.7l.2.4h.5v.2Zm-1.4-.7V11h.7l.7.2H16l-.2-.4Z"/><polygon points="16 11.4 15.3 10.3 15.2 10.3 16 11.4 16 11.4" fill="#4d3509" fill-rule="evenodd"/><path d="M16,11.5l-.7-1.1h0l.8,1.1Zm-.7-1.1h0l.7,1.1h0l-.7-1.1Z"/><path d="M15.3,10.4h-.2a0,0,0,0,0,0,.1h.2Z" fill="#fff" fill-rule="evenodd"/><path d="M15.2,10.4h-.1a.1.1,0,0,1,0-.1h.1Zm0-.2h0a0,0,0,0,0,0,.1h.2v-.2Z"/><polygon points="16.1 10.7 14.6 10.6 14.6 10.8 16.1 11 16.1 10.7" fill="#e6b32d" fill-rule="evenodd"/><path d="M16.1,11l-1.5-.2v-.2h1.5V11Zm-1.5-.4v.2h1.5v-.2Z"/><polygon points="14.6 10.5 14.5 10.8 14.6 10.8 14.6 10.6 14.6 10.5" fill="#e6b32d" fill-rule="evenodd"/><path d="M14.6,10.8h-.1v-.3h.1v.3Zm0-.3v.3h.1v-.3Z"/><polygon points="14.8 10.6 14.8 10.9 14.8 10.9 14.9 10.6 14.8 10.6" fill="#e6b32d" fill-rule="evenodd"/><path d="M14.9,10.9h0v-.3h.1v.3Zm0-.3v.3h0v-.2Z"/><polygon points="15.8 10.7 15.8 11 15.9 10.9 15.9 10.7 15.8 10.7" fill="#e6b32d" fill-rule="evenodd"/><polygon points="15.8 11 15.8 10.7 15.9 10.7 15.9 11 15.8 11 15.8 11"/><path d="M16.1,10.7V11h.1v-.2h-.1Z" fill="#e6b32d" fill-rule="evenodd"/><path d="M16.1,11H16v-.3h.1V11Zm0-.3h-.1V11h.1v-.2h0Z"/><polygon points="15.5 10.8 15.3 11 15.3 11 15.6 10.8 15.5 10.8" fill="#e6b32d" fill-rule="evenodd"/><path d="M15.3,11h0l.2-.2h.1l-.3.2Zm.2-.3-.2.2h0l.3-.2Z"/><polygon points="15 11.3 15.3 11.1 15.2 11.1 15 11.3 15 11.3" fill="#e6b32d" fill-rule="evenodd"/><path d="M15,11.3H15l.3-.2h0l-.2.2Zm.2-.2-.3.2H15l.2-.2Z"/><polygon points="15.6 11.3 15.3 11.1 15.3 11.1 15.5 11.4 15.6 11.3" fill="#e6b32d" fill-rule="evenodd"/><path d="M15.5,11.4l-.2-.3h0l.3.2Zm-.2-.3.2.3h.1l-.3-.2Z"/><polygon points="15 10.8 15.2 11 15.3 11 15.1 10.7 15 10.8" fill="#e6b32d" fill-rule="evenodd"/><path d="M15.2,11l-.3-.2H15l.2.3Zm-.2-.3H15l.3.2h0l-.2-.2Z"/><polygon points="15.2 10.7 15.3 11 15.3 11 15.4 10.7 15.2 10.7" fill="#e6b32d" fill-rule="evenodd"/><path d="M15.3,11v-.3h.1V11Zm.1-.3h-.1V11h0v-.3Z"/><polygon points="15.3 11.4 15.3 11.1 15.3 11.1 15.2 11.4 15.3 11.4" fill="#e6b32d" fill-rule="evenodd"/><path d="M15.3,11.4h-.1v-.3h0v.3Zm0-.3v.3h.1v-.3Z"/><polygon points="15.7 11 15.3 11 15.3 11.1 15.7 11.1 15.7 11" fill="#e6b32d" fill-rule="evenodd"/><path d="M15.7,11.1h0Zm0-.1h0Z"/><polygon points="14.9 11.1 15.2 11.1 15.2 11 14.9 11 14.9 11.1" fill="#e6b32d" fill-rule="evenodd"/><polygon points="14.9 11.1 14.9 11 15.2 11 15.2 11 14.9 11 14.9 11.1 15 11.1 14.9 11.1 14.9 11.1"/><path d="M15.4,11h0Z" fill="#e6b32d" fill-rule="evenodd"/><path d="M15.3,11.1h0Zm0-.2h0Z"/><path d="M15.7,11a.5.5,0,1,1-.5-.4.4.4,0,0,1,.5.4Zm-.1,0a.4.4,0,1,1-.4-.3.4.4,0,0,1,.4.3Z" fill="#e6b32d" fill-rule="evenodd"/><path d="M15.3,11.5a.4.4,0,1,1,.5-.4.4.4,0,0,1-.5.4Zm0-.9a.4.4,0,1,0,.4.4.4.4,0,0,0-.4-.4Zm0,.8a.4.4,0,1,1,.4-.4.4.4,0,0,1-.4.4Zm0-.7a.3.3,0,1,0,.4.3.4.4,0,0,0-.4-.3Z"/><path d="M15,10.8h0Zm.5-.1h0Zm.1.5h0Zm-.6.1h0Z" fill="none"/><polygon points="16.5 10.6 16.6 11 16.5 11 16.5 10.6 16.5 10.6" fill="#e6b32d" fill-rule="evenodd"/><path d="M16.5,11v-.4h.1V11Zm0-.4h0V11h.1v-.4Z"/><path d="M16.5,10.6h-.2c-.1.1,0,.1,0,.2h.1Z" fill="#fff" fill-rule="evenodd"/><path d="M16.3,10.7h-.1s-.1-.1,0-.2h0Zm0-.2c-.1.1,0,.1,0,.1h0Z"/><path d="M16.5,10.6h0Z" fill="#fff" fill-rule="evenodd"/><path d="M16.5,10.6h0Z"/><path d="M15.7,11.6h0Z" fill="#e6b32d" fill-rule="evenodd"/><path d="M15.7,11.6h0Z" fill="none"/><path d="M15.5,11.5h0Z" fill="#e6b32d" fill-rule="evenodd"/><path d="M15.5,11.5h0Z" fill="none"/><path d="M15.4,11.6h0Z" fill="#e6b32d" fill-rule="evenodd"/><path d="M15.4,11.6h0Z" fill="none"/><path d="M15.1,11.6h0Z" fill="#e6b32d" fill-rule="evenodd"/><path d="M15.1,11.6h0Z" fill="none"/><path d="M15,11.6h0Z" fill="#e6b32d" fill-rule="evenodd"/><path d="M15,11.6h0Z" fill="none"/><path d="M14.9,11.6h0Z" fill="#e6b32d" fill-rule="evenodd"/><path d="M14.9,11.6h0Z" fill="none"/><path d="M14.8,11.6h0Z" fill="#e6b32d" fill-rule="evenodd"/><path d="M14.8,11.6h0Z" fill="none"/><path d="M14.8,11.6h0Z" fill="#e6b32d" fill-rule="evenodd"/><path d="M14.8,11.6h0Z" fill="none"/><path d="M14.9,11.6h0Z" fill="#e6b32d" fill-rule="evenodd"/><path d="M14.9,11.6h0Z" fill="none"/><path d="M15,11.5h0Z" fill="#e6b32d" fill-rule="evenodd"/><path d="M15,11.5h0Z" fill="none"/><path d="M15,11.5h0Z" fill="#e6b32d" fill-rule="evenodd"/><path d="M15,11.5h0Z" fill="none"/><path d="M14.9,11.5h0Z" fill="#e6b32d" fill-rule="evenodd"/><path d="M14.9,11.5h0Z" fill="none"/><path d="M15.7,11.3h-.1a.2.2,0,0,0,.3.1c.1-.1.1-.2-.1-.2Z" fill="#fff" fill-rule="evenodd"/><path d="M15.8,11.6h-.1s0-.1,0-.1h.2a.1.1,0,0,1,0,.1Zm-.2-.2h.2a.1.1,0,0,0,0-.1h-.3Zm-1.2-.1v-.3h0l.4.2h0l-.4-.2v.3Zm.1,0v0Zm.2-.1h0Z"/><path d="M14.1,10.9h0Z" fill="#c00024" fill-rule="evenodd"/><path d="M13.7,11h0Z" fill="#c00024"/><path d="M14.3,11l-.3-.3h0l.4.3Z" fill="#4d3509" fill-rule="evenodd"/><path d="M14.3,11l-.4-.3h0l.4.3Zm-.3-.3.3.3h0l-.3-.3Z"/><path d="M14.6,11.3l-.3-.2h0l.2.2Z" fill="#e6b32d" fill-rule="evenodd"/><path d="M14.6,11.3l-.2-.2h0l.3.2Zm-.2-.2.2.2h.1l-.3-.2h0Z"/><path d="M16.2,11h0v.3h.2v-.2h-.2Zm.1.2h0Z" fill="#e6b32d" fill-rule="evenodd"/><path d="M16.2,11.6h-.1v-.3h.2v.2h-.1Zm0-.6h-.1v.3h.2v-.2h-.1Zm0,.4Zm0-.2h0Z"/><path d="M16.8,7.9c-.5-.5-.9-.3-1-.2h.4l.3.2Z" fill="#2c6c1e" fill-rule="evenodd"/><path d="M16.5,7.9l-.3-.2h0l.3.2Zm.3,0c-.5-.5-.9-.3-1-.2h0c.1-.1.5-.3,1,.2Zm-.7-.1h0Z"/><path d="M16.6,8c-.1-.1-1-.3-1.2,0h1.2Z" fill="#2c6c1e" fill-rule="evenodd"/><path d="M15.6,8h-.2c.1-.2.4-.2.6-.2l.6.2h0L16,7.8c-.2,0-.5,0-.6.2h.2Z"/><path d="M16.6,8a.9.9,0,0,0-.6-.1c-.3.1-.4.1-.4.4h.2V8.1h.8Z" fill="#2c6c1e" fill-rule="evenodd"/><path d="M15.7,8.4h-.1c0-.2.1-.2.2-.3h.2a.9.9,0,0,1,.7.1h0a.9.9,0,0,0-.6-.1h-.2c-.1.1-.2.1-.2.3h.2V8.1h0v.2h-.1Z"/><path d="M16.5,8a1.4,1.4,0,0,0-.8.4H16V8.3h.2l.2-.2Z" fill="#2c6c1e" fill-rule="evenodd"/><path d="M15.8,8.5h-.1a1.3,1.3,0,0,1,.8-.4h0a1.4,1.4,0,0,0-.8.4h.3V8.3h.2l.2-.2-.2.2h-.2v.2h-.2Z"/><path d="M16.6,8.1a.7.7,0,0,0-.4.6c.1-.1.1-.1.1,0h.1s0-.1,0-.1-.1,0,0-.1h0s0,0,0-.1h.1Z" fill="#2c6c1e" fill-rule="evenodd"/><path d="M16.3,8.7h0Zm-.1-.1a.7.7,0,0,1,.4-.5h0a.8.8,0,0,0-.4.5Zm.3-.2s0,0,0-.1h0a.1.1,0,0,1,0-.1h-.1a.1.1,0,0,0,0,.1Z"/><path d="M16.6,8.1v.2h0a.2.2,0,0,0-.1.2h.1v.2h.1a.3.3,0,0,0-.1.2h.1a.3.3,0,0,0,.1.3.7.7,0,0,1,0-.2l.2.2V8.8h.2V8.7h.1V8.6h.1V8.5h.1a.4.4,0,0,1,0-.1h-.1Z" fill="#2c6c1e" fill-rule="evenodd"/><path d="M16.5,9a.3.3,0,0,1-.1-.3h0a.3.3,0,0,1,.1-.2h0a.5.5,0,0,0-.1.2h0a.4.4,0,0,0,.1.3.4.4,0,0,1,0-.2l.2.2V8.8h.2V8.7h.1V8.6h.1V8.5h0v.2h-.1v.2h-.1v.2h-.2V9h-.2a1.1,1.1,0,0,0,0,.2Zm0-.2a1,1,0,0,0,0-.3.8.8,0,0,1,.1-.4h0a.8.8,0,0,0-.1.4.7.7,0,0,1-.1.3Zm-.1-.2V8.5h-.1a.2.2,0,0,1,.1-.2h0s-.1.1-.1.2h.1v.2h0Zm.1-.3h.1V8.1h0v.2h-.1Z"/><path d="M15.9,11.7h0Zm.1,0h0Zm.1,0h0Zm.2,0h0Zm-.1,0h0Zm.3,0h0Zm-.1,0h0Zm.2,0h0Z" fill="#e6b32d" fill-rule="evenodd"/><path d="M16.3,11.7h0Zm-.4,0h0Zm-.1,0h0Z"/><polygon points="17.3 9.8 17.5 9.5 17.4 9.4 17.1 10.1 17.3 9.8" fill="#e6b32d" fill-rule="evenodd"/><path d="M17.1,10.1l.3-.6h.1l-.2.4-.2.3Zm.3-.6-.3.6.2-.2.2-.4Z"/><polygon points="17.7 9 17.5 9.5 17.4 9.5 17.7 9" fill="#fff" fill-rule="evenodd"/><path d="M17.5,9.6h-.1l.3-.5-.2.5Zm.2-.5-.3.5h.1l.2-.5Z"/><polygon points="17.1 9.4 17 9.4 16.9 10.1 16.9 10.3 17.1 9.4" fill="#e6b32d" fill-rule="evenodd"/><path d="M16.9,10.3v-.3l.2-.7h.1l-.2,1Zm.2-1H17l-.2.7v.2l.2-.9Z"/><polygon points="17.1 10.1 17.3 9.3 17.2 9.3 16.9 10.3 17.1 10.1" fill="#e6b32d" fill-rule="evenodd"/><path d="M16.9,10.3l.3-1h.1l-.3.8-.2.2Zm.5-1h-.1l-.3.9h.1l.3-.8Z"/><polygon points="17.5 8.9 17.4 9.4 17.3 9.4 17.5 8.9" fill="#fff" fill-rule="evenodd"/><path d="M17.4,9.4h-.1l.2-.5v.5Zm.1-.5-.2.5h.1V8.9Z"/><polygon points="17.2 8.9 17.2 9.4 17.1 9.4 17.2 8.9" fill="#fff" fill-rule="evenodd"/><path d="M17.2,9.4h-.1v0Zm.1-.6v.6h.1V8.9Z"/><path d="M17.3,9.9l.8-.8a.6.6,0,0,1,.2.5l-.9.7Z" fill="#233189" fill-rule="evenodd"/><path d="M17.4,10.3V9.9l.8-.8a.6.6,0,0,1,.2.5l-.9.7ZM18.1,9l-.8.8v.4l.9-.7h0a.6.6,0,0,0-.2-.5Z"/><path d="M16.8,10.3l.6-.6c.2,0,0,.4,0,.4l-.6.5Z" fill="#c00024" fill-rule="evenodd"/><path d="M16.8,10.7v-.4l.6-.6h.1c.1.1,0,.3-.1.3h0l-.6.5Zm.6-.9-.6.6v.3l.6-.5h0c0-.1.1-.2,0-.3Z"/><polygon points="16.9 10.2 18.1 9 18.1 9 16.9 10.4 16.9 10.2" fill="#e6b32d" fill-rule="evenodd"/><path d="M16.9,10.4v-.2L18.1,9h.1l-1.3,1.4ZM18.1,9l-1.2,1.3h0L18.1,9Z"/><polygon points="18.1 8.9 18.2 8.9 18.2 8.8 18.4 8.7 18.3 8.9 18.2 8.9 18.2 8.9 18.1 8.9" fill="#e6b32d" fill-rule="evenodd"/><path d="M18.2,9h0l.2-.2v.3Zm.2-.3-.2.2h.1V8.7Z"/><path d="M18.3,9h0Z" fill="#e6b32d" fill-rule="evenodd"/><path d="M18.2,9.1h0Zm-.1-.2h0Z"/><path d="M17.6,10.1l1-.8c.2.2,0,.7,0,.7l-.9.5Z" fill="#233189" fill-rule="evenodd"/><path d="M17.7,10.5v-.4l1-.8c.2.2,0,.7,0,.7l-1,.5Zm.9-1.2-1,.8v.4l.9-.5s.1-.5,0-.7Z"/><path d="M16.8,10.7l.8-.6c.3,0,.1.4,0,.5l-.8.5Z" fill="#c00024" fill-rule="evenodd"/><path d="M16.8,11v-.3l.8-.6h.1c.1.1,0,.3-.1.4h0c0-.1.1-.3.1-.4h-.1l-.8.6V11l.6-.3-.6.4Z"/><polygon points="16.9 10.6 18.6 9.3 18.6 9.3 16.8 10.8 16.9 10.6" fill="#e6b32d" fill-rule="evenodd"/><path d="M16.8,10.8v-.2l1.7-1.3h0l-1.8,1.4Zm1.8-1.5-1.7,1.3h0l1.8-1.4Z"/><polygon points="18.7 9.2 18.7 9.2 18.7 9.2 19 9 18.8 9.3 18.7 9.3 18.7 9.3 18.7 9.2" fill="#e6b32d" fill-rule="evenodd"/><path d="M18.7,9.3H19v.2ZM19,9h-.1V9Z"/><path d="M18.8,9.3V9.2h.1Z" fill="#e6b32d" fill-rule="evenodd"/><path d="M18.6,9.4h0l.2.2Zm0-.2h.1V9.2Z"/><path d="M17.7,10.6l1.2-.7a.4.4,0,0,1,0,.4.6.6,0,0,1,0,.4l-.2.3c-.1.4-.6.5-.7.1Z" fill="#233189" fill-rule="evenodd"/><path d="M18.3,11.3a.4.4,0,0,1-.3-.2l-.3-.5,1.2-.7a.4.4,0,0,1,0,.4h0a.5.5,0,0,1-.1.3l-.2.3a.4.4,0,0,1-.4.4Zm.6-1.5-1.2.7.3.5.3.2a.4.4,0,0,0,.4-.3l.2-.3a.5.5,0,0,0,.1-.3h0a.4.4,0,0,0,0-.4Z"/><path d="M16.9,11l.8-.5c.3,0,0,.5,0,.6l-.8.3Z" fill="#c00024" fill-rule="evenodd"/><path d="M16.9,11.4V11l.8-.5h.1c.1.1-.1.4-.1.5h0l-.8.3Zm.8-.9-.8.5v.4l.8-.3c.1-.1.2-.4.1-.5Z"/><polygon points="17 10.9 18.9 9.8 19 9.9 16.9 11 17 10.9" fill="#e6b32d" fill-rule="evenodd"/><path d="M16.9,11v-.2l1.9-1h0l-2,1.1Zm2-1.2-1.9,1H17l2-1.1Z"/><polygon points="19 9.8 19.1 9.8 19.1 9.7 19.4 9.6 19.2 9.8 19.1 9.8 19 9.8 19 9.8" fill="#e6b32d" fill-rule="evenodd"/><path d="M19,9.8h.3l-.2.2H19Zm.3-.2h-.2l.2-.2Z"/><path d="M19.1,9.9V9.7h-.1v.2Z" fill="#e6b32d" fill-rule="evenodd"/><path d="M19,10V9.8H19v.2Zm0-.2h.1V9.7Z"/><path d="M18.4,9.2h0L18.1,9h-.2a.2.2,0,0,1,.3,0Z" fill="#233189" fill-rule="evenodd"/><path d="M18.4,9.3h0L18.1,9h-.2c.1-.1.3,0,.3,0l.3.2ZM18,8.9h.1l.3.2h0L18.1,9Z" fill="#233189"/><path d="M18.3,9.3V9.1c-.1,0-.2.1-.3-.1h.3l.2.2Z" fill="#c00024" fill-rule="evenodd"/><path d="M18.2,9.3h0v0h.1L18.1,9h-.2c.1.2.2.1.2.1h0c-.1.1-.2,0-.3-.1h.3l.2.2Z" fill="#c00024"/><path d="M18.9,9.6h0l-.2-.2h-.2c.1-.1.2,0,.2,0Z" fill="#233189" fill-rule="evenodd"/><path d="M18.9,9.6h0l-.2-.3h-.2c.1-.1.3,0,.3,0l.2.2Zm-.4-.4h.1l.2.2h0l-.2-.2Z" fill="#233189"/><path d="M18.7,9.7V9.4c-.1,0-.2.1-.2-.1s.2,0,.2,0h0l.2.2Z" fill="#c00024" fill-rule="evenodd"/><path d="M18.7,9.7h0v0h.1l-.2-.2h-.3c.1.2.1.2.2.1h0c-.2.1-.2,0-.2-.1h.3l.2.2Z" fill="#c00024"/><path d="M19.2,10.1h0l-.2-.3h-.2c.1-.1.2.1.2.1Z" fill="#233189" fill-rule="evenodd"/><path d="M19.1,10.2h0l-.2-.3h-.2c.1-.1.2.1.2.1l.2.3Zm-.3-.5h.1l.2.3h0L19,9.9Z" fill="#233189"/><path d="M19,10.2a.8.8,0,0,0,0-.3c-.1,0-.2,0-.2-.2H19v.3Z" fill="#c00024" fill-rule="evenodd"/><path d="M19,10.3h0a.8.8,0,0,0,0-.3h-.1c-.1,0-.1-.1-.1-.2H19v.3Zm0-.3a.7.7,0,0,1,.1.3h.1L19,9.8h-.2c0,.3.1.2.2.2Z" fill="#c00024"/><polygon points="17 11.3 17.5 11.2 17.7 10.8 18.4 10.8 18.4 11 17.8 11.2 17.7 11.3 17 11.5 17 11.3" fill="#e6b32d" fill-rule="evenodd"/><path d="M17,11.5v-.2l.5-.2.2-.4h.7V11h-.7l-.7.2Zm1.4-.7h-.7l-.2.3H17l.7-.2h.7v-.3Z"/><polygon points="17.5 11.4 18.3 10.3 18.3 10.3 17.6 11.4 17.5 11.4" fill="#4d3509" fill-rule="evenodd"/><path d="M17.6,11.5h0l.7-1.1h0l-.7,1.1Zm.7-1.1-.7,1.1h0l.7-1.1Z"/><path d="M18.2,10.4h.2a0,0,0,0,1,0,.1h-.2Z" fill="#fff" fill-rule="evenodd"/><path d="M18.3,10.4h0Zm0-.2v.2h.1Z"/><polygon points="17.4 10.7 19 10.6 19 10.8 17.5 11 17.4 10.7" fill="#e6b32d" fill-rule="evenodd"/><path d="M17.5,11v-.2l1.5-.2v.2l-1.5.2Zm1.5-.4-1.5.2v.2l1.5-.2v-.2Z"/><polygon points="19 10.5 19 10.8 19 10.8 18.9 10.6 19 10.5" fill="#e6b32d" fill-rule="evenodd"/><polygon points="19 10.8 19 10.8 18.9 10.6 19 10.5 19 10.8 19 10.8"/><polygon points="18.7 10.6 18.7 10.9 18.7 10.9 18.7 10.6 18.7 10.6" fill="#e6b32d" fill-rule="evenodd"/><polygon points="18.7 10.9 18.7 10.6 18.7 10.6 18.8 10.9 18.7 10.9 18.7 10.9"/><polygon points="17.7 10.7 17.7 11 17.7 10.9 17.6 10.7 17.7 10.7" fill="#e6b32d" fill-rule="evenodd"/><polygon points="17.8 11 17.7 11 17.6 10.7 17.7 10.7 17.8 11 17.8 11"/><path d="M17.5,10.7V11h-.1v-.2h.1Z" fill="#e6b32d" fill-rule="evenodd"/><path d="M17.4,11v-.2h.1V11Zm0-.2V11h.1v-.3h-.1Z"/><polygon points="18 10.8 18.2 11 18.2 11 17.9 10.8 18 10.8" fill="#e6b32d" fill-rule="evenodd"/><path d="M18.2,11l-.3-.2H18l.2.2Zm-.2-.3h-.1l.3.2h0l-.2-.2Z"/><polygon points="18.5 11.3 18.3 11.1 18.3 11.1 18.6 11.3 18.5 11.3" fill="#e6b32d" fill-rule="evenodd"/><path d="M18.5,11.3l-.2-.2h0l.3.2Zm-.2-.3.2.2h.1l-.3-.2Z"/><polygon points="18 11.3 18.2 11.1 18.2 11.1 18 11.4 18 11.3" fill="#e6b32d" fill-rule="evenodd"/><path d="M18,11.4H18l.3-.2h0l-.2.3Zm.2-.3-.3.2H18l.2-.2Z"/><polygon points="18.6 10.8 18.3 11 18.3 11 18.5 10.7 18.6 10.8" fill="#e6b32d" fill-rule="evenodd"/><path d="M18.3,11h0l.2-.3h.1l-.3.2Zm.2-.3-.2.3h0l.3-.2Z"/><polygon points="18.3 10.7 18.3 11 18.3 11 18.2 10.7 18.3 10.7" fill="#e6b32d" fill-rule="evenodd"/><path d="M18.3,11h0v-.3h.1V11Zm0-.3h-.1V11h0v-.3Z"/><polygon points="18.2 11.4 18.2 11.1 18.3 11.1 18.3 11.4 18.2 11.4" fill="#e6b32d" fill-rule="evenodd"/><path d="M18.3,11.4h-.1v-.3h0v.3Zm-.1-.3v.3h.1v-.3Z"/><polygon points="17.9 11 18.2 11 18.2 11.1 17.9 11.1 17.9 11" fill="#e6b32d" fill-rule="evenodd"/><path d="M17.9,11.1h0Zm0-.1h0Z"/><polygon points="18.7 11.1 18.3 11.1 18.3 11 18.7 11 18.7 11.1" fill="#e6b32d" fill-rule="evenodd"/><polygon points="18.7 11.1 18.3 11.1 18.4 11 18.6 11.1 18.6 11 18.6 11 18.7 11 18.7 11.1 18.7 11.1"/><path d="M18.2,11h0Z" fill="#e6b32d" fill-rule="evenodd"/><path d="M18.3,11.1h0Zm0-.2h0Z"/><path d="M17.8,11a.5.5,0,1,0,.5-.4.4.4,0,0,0-.5.4Zm.1,0a.4.4,0,1,0,.4-.3.4.4,0,0,0-.4.3Z" fill="#e6b32d" fill-rule="evenodd"/><path d="M18.3,11.5a.4.4,0,1,1,.5-.4.5.5,0,0,1-.5.4Zm0-.9a.4.4,0,1,0,.4.4.4.4,0,0,0-.4-.4Zm0,.8a.4.4,0,1,1,.4-.4.4.4,0,0,1-.4.4Zm0-.7a.3.3,0,1,0,.4.3.3.3,0,0,0-.4-.3Z"/><path d="M18.6,10.8h0Zm-.5-.1h0Zm-.1.5h0Zm.6.1h0Z" fill="none"/><polygon points="17 10.6 16.9 11 17 11 17.1 10.6 17 10.6" fill="#e6b32d" fill-rule="evenodd"/><path d="M17,11h-.1v-.4h.1V11Zm.1-.4h0V11H17v-.4Z"/><path d="M17.1,10.6h.2c.1.1,0,.1,0,.2h-.1Z" fill="#fff" fill-rule="evenodd"/><path d="M17.2,10.7h0c.1.1.1.1,0,.2h-.1Zm-.3-.2h.3s0-.1,0-.1h-.3Z"/><path d="M17,10.6h0Z" fill="#fff" fill-rule="evenodd"/><path d="M17.1,10.6h0Z"/><path d="M17.9,11.6h0Z" fill="#e6b32d" fill-rule="evenodd"/><path d="M17.9,11.6h0Z" fill="none"/><path d="M18,11.5h0Z" fill="#e6b32d" fill-rule="evenodd"/><path d="M18,11.5h0Z" fill="none"/><path d="M18.2,11.6h0Z" fill="#e6b32d" fill-rule="evenodd"/><path d="M18.2,11.6h0Z" fill="none"/><path d="M18.5,11.6h0Z" fill="#e6b32d" fill-rule="evenodd"/><path d="M18.5,11.6h0Z" fill="none"/><path d="M18.6,11.6h0Z" fill="#e6b32d" fill-rule="evenodd"/><path d="M18.6,11.6h0Z" fill="none"/><path d="M18.7,11.6h0Z" fill="#e6b32d" fill-rule="evenodd"/><path d="M18.7,11.6h0Z" fill="none"/><path d="M18.8,11.6h0Z" fill="#e6b32d" fill-rule="evenodd"/><path d="M18.8,11.6h0Z" fill="none"/><path d="M18.7,11.6h0Z" fill="#e6b32d" fill-rule="evenodd"/><path d="M18.7,11.6h0Z" fill="none"/><path d="M18.6,11.6h0Z" fill="#e6b32d" fill-rule="evenodd"/><path d="M18.6,11.6h0Z" fill="none"/><path d="M18.5,11.5h0Z" fill="#e6b32d" fill-rule="evenodd"/><path d="M18.5,11.5h0Z" fill="none"/><path d="M18.6,11.5h0Z" fill="#e6b32d" fill-rule="evenodd"/><path d="M18.6,11.5h0Z" fill="none"/><path d="M18.7,11.5h0Z" fill="#e6b32d" fill-rule="evenodd"/><path d="M18.7,11.5h0Z" fill="none"/><path d="M17.8,11.3h.1a.2.2,0,0,1-.3.1c-.1-.1-.1-.2.1-.2Z" fill="#fff" fill-rule="evenodd"/><path d="M17.7,11.6h-.1a.1.1,0,0,1,0-.1h.1Zm0-.3h-.1a.1.1,0,0,0,0,.1h.1Zm1-.1h0l.4-.2-.4.2Z"/><path d="M19.4,10.9h0Z" fill="#c00024" fill-rule="evenodd"/><path d="M19.8,11h0Z" fill="#c00024"/><path d="M19.2,11l.3-.3h0s0,0,0,0l-.4.3Z" fill="#4d3509" fill-rule="evenodd"/><path d="M19.2,11h0l.3-.3h0l-.4.3Zm.4-.3-.4.3h0l.4-.3Z"/><path d="M18.9,11.3l.3-.2h0l-.2.2Z" fill="#e6b32d" fill-rule="evenodd"/><path d="M19,11.3h-.1l.3-.3h0l-.2.2Zm.2-.3h0l-.3.2H19l.2-.2h0Z"/><path d="M17.4,11h0v.3h-.2v-.2h.1Zm-.1.2h0Z" fill="#e6b32d" fill-rule="evenodd"/><path d="M17.4,11.6h-.1v-.2h.2v.3h-.1Zm0-.2h.1v-.3h-.2v.2h.1Zm0,0h0Zm0-.2h0Z"/><path d="M16.8,7.9c.5-.5.9-.3,1-.2h-.4l-.3.2Z" fill="#2c6c1e" fill-rule="evenodd"/><path d="M17.1,8l.3-.2h0l-.3.2Zm-.3,0h0c.5-.5.9-.3,1-.2h0a.8.8,0,0,0-1,.2Z"/><path d="M16.9,8c.1-.1,1-.3,1.2,0H16.9Z" fill="#2c6c1e" fill-rule="evenodd"/><path d="M17.8,8h.3c-.1-.2-.4-.2-.6-.2l-.6.2h0l.6-.2c.2,0,.5,0,.6.2h-.3Z"/><path d="M17,8a.9.9,0,0,1,.6-.1c.3.1.4.1.4.4h-.2V8.1H17Z" fill="#2c6c1e" fill-rule="evenodd"/><path d="M17.9,8.4h-.1V8.1h0v.2H18c0-.2-.1-.2-.3-.3h-.2A.9.9,0,0,0,17,8h0a.9.9,0,0,1,.7-.1h.2c.1.1.2.1.3.3h-.1Z"/><path d="M17,8a1.4,1.4,0,0,1,.8.4h-.3V8.3h-.2L17,8.1Z" fill="#2c6c1e" fill-rule="evenodd"/><path d="M17.7,8.5h-.2V8.3h-.2L17,8.1l.2.2h.2v.2h.3a1.5,1.5,0,0,0-.8-.4h0a1.4,1.4,0,0,1,.8.4h-.1Z"/><path d="M17,8.1a.8.8,0,0,1,.4.6c-.1-.1-.1-.1-.1,0h-.1s0-.1,0-.1.1,0,0-.1h0s0,0,0-.1H17Z" fill="#2c6c1e" fill-rule="evenodd"/><path d="M17.3,8.7h.1a.7.7,0,0,0-.4-.5h0a.8.8,0,0,1,.4.6h-.1Zm-.2-.2h0s0,0,0-.1h0a.1.1,0,0,1,0,.1h0Z"/><path d="M17,8.1v.2h0a.2.2,0,0,1,.1.2H17v.2h-.1a.3.3,0,0,1,.1.2h-.1A.3.3,0,0,1,17,9a.7.7,0,0,0,0-.2l-.2.2V8.8h-.1V8.7h-.1V8.6h-.1V8.5h-.1a.4.4,0,0,0,0-.1H17Z" fill="#2c6c1e" fill-rule="evenodd"/><path d="M17,9a.9.9,0,0,0,0-.2V8.8h-.1V8.7h-.1V8.6h-.1V8.5h-.1a1.3,1.3,0,0,0,0-.1h0a.3.3,0,0,1,0,.1h.1c0,.1-.1.2-.1.2h.1v.2h.1v.2H17v0S17,9,17,9a.4.4,0,0,0,0-.3h.1a.3.3,0,0,0-.1-.2h.1V8.5h.1L17,8.4h0V8.1h0v.2h0v.2H17v.2h-.1a.3.3,0,0,1,.1.2h-.1A.3.3,0,0,1,17,9Zm0-.2a.5.5,0,0,1-.1-.3.7.7,0,0,0-.1-.4h0a.8.8,0,0,1,.1.4.7.7,0,0,0,.1.3Z"/><path d="M17.7,11.7h0Zm-.1,0h0Zm-.1,0h0Zm-.2,0h0Zm.1,0h0Zm-.3,0h0Zm.1,0h0Zm-.2,0h0Z" fill="#e6b32d" fill-rule="evenodd"/><path d="M16.9,11.7h0Zm.7,0h0Zm-.4-.1h0Z"/><path d="M16.8,10.9s.1-.7.1-1-.1-.7-.1-.7h-.2s0,.5,0,.7.1,1,.1,1Z" fill="#e6b32d" fill-rule="evenodd"/><path d="M16.8,10.9h-.2s-.1-.7-.1-1,0-.7,0-.7h.2s.1.5.1.7-.1.9-.1,1Zm-.2-1.7s0,.5,0,.7.1,1,.1,1h.1c0-.1.1-.7.1-.9s-.1-.7-.1-.7Z"/><polygon points="16.6 9.3 16.9 9.3 16.9 9.1 16.7 9.1 16.6 9.3" fill="#e6b32d" fill-rule="evenodd"/><path d="M16.9,9.3h-.3V9.1h.2v.2Zm0-.2h-.2v.2h.3V9.1Z"/><polygon points="16.6 9.1 16.9 9.1 16.8 8.9 16.7 8.9 16.6 9.1" fill="#e6b32d" fill-rule="evenodd"/><path d="M16.9,9.1h-.2V8.9h.2v.2Zm-.1-.2h-.1v.2h.2V8.9Z"/><polygon points="16.7 9 16.9 9 16.8 8.8 16.7 8.8 16.7 9" fill="#e6b32d" fill-rule="evenodd"/><path d="M16.9,9h-.2V8.8h.1V9Zm0-.2h-.1V9h.2V8.8Z"/><polygon points="16.8 8.8 16.7 8.8 16.7 8.8 16.8 8.8 16.8 8.8" fill="#e6b32d" fill-rule="evenodd"/><path d="M16.9,10.5h0Zm0-.1h0Zm0-.1h0Zm0-.1h0Zm0-.1h0Zm0-.1h0Zm0-.1h0Zm0-.1h0Zm0-.1h0Z"/><path d="M16.8,10.8h0Z" fill="#233189" fill-rule="evenodd"/><path d="M16.8,11.1h-.3l.3-.2.3.2h-.3Zm0-.3h-.3c.1.1.5.1.6,0h-.3Z" fill="#233189"/><path d="M17.1,11v.5h-.6V11h.6Z" fill="#e6b32d" fill-rule="evenodd"/><path d="M16.8,11.6h-.3V11h.6v.5Zm-.3-.6v.5h.6V11h-.6Z"/><path d="M16.5,11h0v.4h0v-.2h0v0h0v0Z" fill="#c00024" fill-rule="evenodd"/><path d="M16.9,11.6v0l-.2-.5h0v.1h.1v0h0v.2h0v.1Zm-.4-.6h0v.4h0v-.2h0v0h0V11Z" fill="#c00024"/><path d="M17.1,11.4h0Z" fill="#233189" fill-rule="evenodd"/><path d="M16.8,11.6h0Zm-.3-.2h0Z" fill="#233189"/><path d="M16.9,11.5h0Z" fill="#e6b32d" fill-rule="evenodd"/><path d="M16.9,11.5h0Z" fill="none"/><path d="M16.6,11.5h0Z" fill="#e6b32d" fill-rule="evenodd"/><path d="M16.6,11.5h0Z" fill="none"/><path d="M16.5,11.4h0Z" fill="#e6b32d" fill-rule="evenodd"/><path d="M16.5,11.4h0Z" fill="none"/><path d="M17.1,11.4h0Z" fill="#e6b32d" fill-rule="evenodd"/><path d="M16.8,11.6h-.3v0h.6V11h0v.5h-.3Z"/><path d="M17,11h0Z" fill="#fff" fill-rule="evenodd"/><path d="M16.8,11h0Zm0-.1h0Z" fill="#fff"/><path d="M16.7,11h0Z" fill="#e6b32d" fill-rule="evenodd"/><path d="M16.7,11h0Z" fill="none"/><path d="M17,11h0Z" fill="#e6b32d" fill-rule="evenodd"/><path d="M17,11h0Z" fill="none"/><path d="M16.6,10.9h0Z" fill="#e6b32d" fill-rule="evenodd"/><path d="M16.6,10.9h0Z" fill="none"/><path d="M16.8,10.8h0Z" fill="#e6b32d" fill-rule="evenodd"/><path d="M16.8,10.8h0Z" fill="none"/><path d="M16.9,10.9h0Z" fill="#e6b32d" fill-rule="evenodd"/><path d="M16.9,10.9h0Z" fill="none"/><polygon points="16.5 11.1 16.5 11 16.5 10.9 16.5 11 16.5 11.1" fill="#e6b32d" fill-rule="evenodd"/><polygon points="16.5 11.1 16.5 11 16.5 10.9 16.5 11 16.5 11.1" fill="none"/><polygon points="17.1 11 17.1 10.9 17 11 17.1 11" fill="#e6b32d" fill-rule="evenodd"/><polygon points="17.1 11 17.1 10.9 17 11 17.1 11" fill="none"/><path d="M16,10.5h0Z" fill="#2c6c1e" fill-rule="evenodd"/><path d="M16,10.5h-.3c0-.1.3-.1.3,0h0Z" fill="#fff"/><path d="M16,10.6v0H16Z" fill="#2c6c1e" fill-rule="evenodd"/><path d="M15.9,10.7v-.2H16v.2Zm.1-.3h0Z" fill="#fff"/><path d="M16,10.5h0Z" fill="#fff" fill-rule="evenodd"/><polygon points="15.8 10.5 15.8 10.3 15.9 10.3 15.9 10.5 15.8 10.5" fill="#2c6c1e" fill-rule="evenodd"/><polygon points="15.9 10.5 15.8 10.5 15.8 10.3 15.9 10.3 15.9 10.5 15.9 10.5" fill="#e6b32d"/><path d="M16,10.5h0Z" fill="#2c6c1e" fill-rule="evenodd"/><path d="M15.9,10.6h0Zm0,0h0Z" fill="#fff"/><polygon points="15.8 10.9 16 11 16.1 10.7 15.8 10.7 15.8 10.9" fill="#e6b32d" fill-rule="evenodd"/><polygon points="16 11 15.8 10.9 15.8 10.9 16 10.9 16.1 10.7 15.8 10.7 16.1 10.7 16 11 16 11"/><polygon points="15.8 10.7 15.8 11 15.9 10.9 15.9 10.7 15.8 10.7" fill="#e6b32d" fill-rule="evenodd"/><polygon points="15.8 11 15.8 10.7 15.9 10.7 15.9 11 15.8 11 15.8 11"/><path d="M17.7,10.5v.2h-.2s0-.1,0-.1a.3.3,0,0,1,0-.2Z" fill="#e6b32d" fill-rule="evenodd"/><path d="M17.6,10.8h.2a.2.2,0,0,0-.1-.2h-.1a.3.3,0,0,0,0,.2h0a.3.3,0,0,1,0-.2h0Z"/><path d="M17.7,10.5s0-.1,0-.1h0Z" fill="#c00024" fill-rule="evenodd"/><path d="M17.6,10.5h0Zm.1-.1h0Z" fill="#e6b32d"/><path d="M16.8,7.7h-.1c.1-.2,0-.1,0-.1s.3,0,.3.1a.5.5,0,0,0,0,.2h-.2Z" fill="#233189" fill-rule="evenodd"/><path d="M16.9,7.7h-.2c0-.1,0-.1,0-.1H17a.5.5,0,0,0,0,.2h-.1Zm-.1-.4h0s.1,0,0,.1h.2a.4.4,0,0,1,0-.2Z" fill="#233189"/><polygon points="16.8 8.1 16.7 8.1 16.8 7.6 16.8 7.6 16.8 8.1" fill="#e6b32d" fill-rule="evenodd"/><path d="M16.8,8.1h-.1V7.6h.1v.5Zm-.1-.5v.5h.1V7.6Z"/><path d="M16.9,7.7a.1.1,0,0,0,0-.1h0Z" fill="#c00024" fill-rule="evenodd"/><path d="M16.9,7.7h0a.1.1,0,0,1,0,.1h-.1Zm-.1-.1h.1a.1.1,0,0,0,0-.1h-.1Z" fill="#c00024"/><path d="M14.4,11.5s0,.1,0,.1l-.5.2H14v-.2h-.2v.2H14s0,0,0,.1h.4s0-.1,0-.1h-.1Zm.1.1h0Z" fill="#e6b32d" fill-rule="evenodd"/><path d="M14,11.9h-.2v0h.7s0,0,0-.1H14v0h.4a.1.1,0,0,1,0-.1h.1s0,.1,0,.1H14Zm-.2-.4h0Z"/><path d="M19.7,11.7a.6.6,0,0,0,0-.1h-.1a.5.5,0,0,0-.1-.3l.3.2h-.1v.2s-.1,0-.1.1h-.1s0-.1,0-.1l-.5-.2h.1Z" fill="#e6b32d" fill-rule="evenodd"/><path d="M19.6,11.8h0s0-.1,0-.1l-.5-.2h0l.5.2s0,.1,0,.1h.1c0-.1.1-.1.1-.1h0v-.2h.1l-.3-.2a.4.4,0,0,1,.1.3h0a.4.4,0,0,1,0,.2l-.5-.2h0l.5.2h-.1a.6.6,0,0,0-.1-.3l.3.2h0s-.1,0-.1.1Z"/><path d="M19.2,11.6h0Z" fill="#e6b32d" fill-rule="evenodd"/><path d="M19.1,11.6h0a0,0,0,0,1,0,0h0Z"/><polygon points="15.5 11.8 15.5 11.7 15.4 11.7 15.4 11.8 15.5 11.8" fill="#fff" fill-rule="evenodd"/><path d="M15.4,11.9h0Zm.2-.2h0Z"/><path d="M14.4,12h-.2a2.1,2.1,0,0,0,1.2-.2c.1,0,.1.1-.1.1v.2a1.8,1.8,0,0,1-1.2.2Z" fill="#fff" fill-rule="evenodd"/><path d="M14.5,12.1h0l.7-.2h.2a1.8,1.8,0,0,1-.9.2Zm-.3-.2h.3a2,2,0,0,0,.9-.2h-.1a1.6,1.6,0,0,1-1,.2Z"/><polygon points="18 11.8 18 11.7 18.2 11.7 18.2 11.8 18 11.8" fill="#fff" fill-rule="evenodd"/><path d="M18.2,11.8h0Zm0-.1h0Z"/><path d="M19.1,12h.2c-.9,0-.7-.2-1.2-.2s-.2.1.1.1v.2h.1a1.4,1.4,0,0,0,1,.2Z" fill="#fff" fill-rule="evenodd"/><path d="M19,12.1h0l-.7-.2h-.1v-.2H19Zm-.7-.2a1.4,1.4,0,0,0,1,.2H18.2v.2Z"/><path d="M15.3,11.7v.2a4.5,4.5,0,0,0,1.4.2,4.4,4.4,0,0,0,1.4-.2v-.2a3.9,3.9,0,0,1-1.4.2,3.9,3.9,0,0,1-1.4-.2Z" fill="#fff" fill-rule="evenodd"/><path d="M16.8,12.1a4.6,4.6,0,0,1-1.4-.2v-.2a4.2,4.2,0,0,0,1.5.2,3.9,3.9,0,0,0,1.4-.2v.2a4.3,4.3,0,0,1-1.5.2Zm-1.4-.2a4.8,4.8,0,0,0,1.4.2,4.6,4.6,0,0,0,1.4-.2v-.2a3.6,3.6,0,0,1-1.4.2,4,4,0,0,1-1.4-.2v.2Z"/><path d="M15.4,11.9v-.2h0Zm.2-.1h0Zm.2,0h0Zm0,.2v-.2H16v.2h-.1Zm.2,0v-.2h0v.2ZM16,12h0Zm0,0h.1a.1.1,0,0,0,0,0h-.1Zm.2.1v-.2h.1v.2h-.1Zm.2,0v-.2h0Zm.1,0v-.2h0v.2h-.2Zm.1-.1h0Zm.1.1V12h0v.2Zm.1,0h0Zm.2,0v-.2h0Zm.1,0v-.2h0v.2h-.2Zm0-.1h0Zm.2.1v-.2h0Zm.1-.1h0Zm0,0h0Zm.2.1v-.2h0Zm0-.1h0Zm.3,0h-.1a.1.1,0,0,1,0,0H18Zm.1,0v-.2h0Z"/></g></g></svg>