<svg xmlns="http://www.w3.org/2000/svg" xmlns:xlink="http://www.w3.org/1999/xlink" viewBox="0 0 33.6 19.6"><defs><clipPath id="a" transform="translate(-721.1 -446.8)"><rect x="721.1" y="446.8" width="33.6" height="19.58" fill="none"/></clipPath></defs><title>IND</title><g clip-path=""><rect width="33.6" height="19.58" fill="#fff"/><rect width="33.6" height="6.53" fill="#f0953e"/><rect y="13.1" width="33.6" height="6.52" fill="#3b8916"/><g clip-path=""><path d="M737.9,453.7a2.9,2.9,0,1,0,2.9,2.9,2.9,2.9,0,0,0-2.9-2.9m0,.2v0c.1,0,.2,0,.2.1h.5l-.5,1.4v.9l.3-.8.3-1.5h.2c0,.1,0,.2.1.2a.1.1,0,0,0,.1-.1h.2l-.8,1.2-.3.8.5-.7.6-1.3h.2c0,.1,0,.1.1.1h.3l-1.1,1-.6.7.7-.6,1-1.1c0,.1.1.1.1.2h0a.1.1,0,0,0,.1.1h.1a.3.3,0,0,1,.1.2l-1.3.6-.7.5.8-.3,1.2-.8a.3.3,0,0,1,.1.2.1.1,0,0,0-.1.1h.2c0,.1,0,.1.1.2l-1.5.3-.8.3h.9l1.4-.5v.2h-.1a.3.3,0,0,0,.1.2h0v.2h0v.2h-.1c0,.1,0,.2.1.2v.2l-.5-.2-.9-.3h-.9l.8.3,1.5.3c-.1.1-.1.1-.1.2h-.1a.1.1,0,0,0-.1.1h.1a.3.3,0,0,1-.1.2l-1.2-.8h0l-.8-.3h0l.4.2.3.2h0l1.3.7a.3.3,0,0,1-.1.2h-.2c0,.1-.1.1-.1.2l-1-1.1-.7-.6.6.7,1.1,1h-.6l-.6-1.3-.5-.7h0l.3.8.8,1.2H739c0-.1,0-.1-.1-.1a.1.1,0,0,0-.1.1h-.2l-.3-1.5-.3-.8h0v.9l.5,1.4h-.7v0h-.7l.5-1.4v-.9l-.3.8-.3,1.5H737a.1.1,0,0,0-.2,0h-.2l.8-1.2.3-.8-.5.7-.6,1.3H736l1.1-1,.6-.7h0l-.7.6-1,1.1c0-.1-.1-.1-.1-.2h-.2a.3.3,0,0,1-.1-.2l1.3-.7.7-.4-.8.3-1.2.8a.3.3,0,0,1-.1-.2h.1a.1.1,0,0,0-.1-.1h-.1c0-.1,0-.1-.1-.2l1.5-.3.8-.3h-.9l-1.4.5v-.2a.3.3,0,0,0,.1-.2h-.1v-.2h0a.3.3,0,0,1,.1-.2h0a.3.3,0,0,0,.1-.2h-.1v-.2l1.4.5h.9l-.8-.3-1.5-.3c.1-.1.1-.1.1-.2h.2a.1.1,0,0,0-.1-.1.3.3,0,0,1,.1-.2l1.2.8.8.3-.7-.5-1.3-.6a.3.3,0,0,1,.1-.2h.1a.1.1,0,0,0,.1-.1h0c0-.1.1-.1.1-.2l1,1.1.7.6-.6-.7-1.1-1h.3c.1,0,.1,0,.1-.1h.2l.6,1.3.5.7-.3-.8-.8-1.2h.2a.1.1,0,0,0,.2,0h.2l.3,1.5.3.8v-.9l-.5-1.4h.5c0-.1.1-.1.2-.1" transform="translate(-721.1 -446.8)" fill="#16007e"/><path d="M737.9,456.2a.4.4,0,1,1-.4.4.4.4,0,0,1,.4-.4" transform="translate(-721.1 -446.8)" fill="#fff"/><path d="M737.9,456.3a.3.3,0,1,1-.3.3.3.3,0,0,1,.3-.3" transform="translate(-721.1 -446.8)" fill="#16007e"/></g></g></svg>