<svg xmlns="http://www.w3.org/2000/svg" xmlns:xlink="http://www.w3.org/1999/xlink" viewBox="0 0 33.6 19.6"><defs><clipPath id="a"><rect width="33.6" height="19.58" fill="none"/></clipPath></defs><title>JAM</title><g clip-path=""><polygon points="3.1 19.6 30.4 19.6 16.8 11.6 3.1 19.6" fill="#488a30"/><polygon points="30.4 0 3.1 0 16.8 8 30.4 0" fill="#488a30"/><polygon points="0 17.8 13.7 9.8 0 1.8 0 17.8"/><polygon points="33.6 17.8 33.6 1.8 19.9 9.8 33.6 17.8"/><polygon points="0 19.6 0 19.6 3.1 19.6 16.8 11.6 30.4 19.6 33.6 19.6 16.8 9.8 0 19.6" fill="#f1da28"/><polygon points="30.4 0 16.8 8 3.1 0 0 0 16.8 9.8 33.6 0 30.4 0" fill="#f1da28"/><polygon points="33.6 0 16.8 9.8 33.6 19.6 33.6 17.8 19.9 9.8 33.6 1.8 33.6 0" fill="#f1da28"/><polygon points="0 1.8 13.7 9.8 0 17.8 0 19.6 16.8 9.8 0 0 0 1.8" fill="#f1da28"/></g></svg>