<svg xmlns="http://www.w3.org/2000/svg" xmlns:xlink="http://www.w3.org/1999/xlink" viewBox="0 0 33.6 19.6"><defs><clipPath id="a" transform="translate(-564.8 -447.6)"><rect x="564.8" y="447.6" width="33.6" height="19.58" fill="none"/></clipPath></defs><title>KEN</title><g clip-path=""><rect width="33.6" height="19.58" fill="#fff"/><rect width="33.6" height="5.88"/><rect y="13.7" width="33.6" height="5.88" fill="#2a680b"/><g clip-path=""><path d="M577.9,463.2h.2l5.8-9.9a1.6,1.6,0,0,0,.7-.7,9.6,9.6,0,0,0,.8-2.2,5.8,5.8,0,0,0-1.5,1.8,1.7,1.7,0,0,0-.3,1Z" transform="translate(-564.8 -447.6)"/><path d="M578.2,463.3h-.3l5.7-10c-.1-.3.1-.6.3-.9a5.8,5.8,0,0,1,1.5-1.8,7.5,7.5,0,0,1-.8,2.2,1.6,1.6,0,0,1-.7.7l-5.7,9.9Zm7.2-12.8a5.8,5.8,0,0,0-1.5,1.8c-.1.3-.3.6-.2.9l-5.8,10h.2l5.7-9.9a1,1,0,0,0,.7-.8,6.9,6.9,0,0,0,.9-2.1Z" transform="translate(-564.8 -447.6)"/><path d="M577.9,463.2h.2l5.8-9.9a1.6,1.6,0,0,0,.7-.7,9.6,9.6,0,0,0,.8-2.2,5.8,5.8,0,0,0-1.5,1.8,1.7,1.7,0,0,0-.3,1Z" transform="translate(-564.8 -447.6)" fill="#fff"/><path d="M584.9,463.2h-.2l-5.7-9.9a1.6,1.6,0,0,1-.7-.7,9.6,9.6,0,0,1-.8-2.2,6.6,6.6,0,0,1,1.4,1.8,1.2,1.2,0,0,1,.3,1Z" transform="translate(-564.8 -447.6)"/><path d="M584.7,463.3h0l-5.7-9.9a1.6,1.6,0,0,1-.7-.7,7.5,7.5,0,0,1-.8-2.2,7.7,7.7,0,0,1,1.5,1.8,1.6,1.6,0,0,1,.2,1l5.7,9.8-.2.2Zm-7.2-12.8a6.2,6.2,0,0,0,.8,2.1c.2.4.4.7.7.8l5.7,9.9.2-.2-5.7-9.8a1.2,1.2,0,0,0-.3-1,5.9,5.9,0,0,0-1.4-1.8Z" transform="translate(-564.8 -447.6)"/><path d="M584.9,463.2h-.2l-5.7-9.9a1.6,1.6,0,0,1-.7-.7,9.6,9.6,0,0,1-.8-2.2,6.6,6.6,0,0,1,1.4,1.8,1.2,1.2,0,0,1,.3,1Z" transform="translate(-564.8 -447.6)" fill="#fff"/><path d="M564.8,454.4v5.9h14.3c.4,1,1.6,2.9,2.3,2.9s2-1.9,2.4-2.9h14.6v-5.9H583.8c-.4-1-1.6-2.9-2.4-2.9s-1.9,1.9-2.3,2.9Z" transform="translate(-564.8 -447.6)" fill="#aa0017"/><path d="M583.8,460.3a7.6,7.6,0,0,0,0-5.9,6.6,6.6,0,0,0,0,5.9Z" transform="translate(-564.8 -447.6)"/><path d="M579.1,460.3a8,8,0,0,1-.6-3,7.9,7.9,0,0,1,.6-2.9,7.9,7.9,0,0,1,.6,2.9,8,8,0,0,1-.6,3Z" transform="translate(-564.8 -447.6)"/><path d="M581.4,456.6c.3,0,.5.3.5.7s-.2.8-.5.8-.5-.3-.5-.8a.7.7,0,0,1,.5-.7Z" transform="translate(-564.8 -447.6)" fill="#fff"/><path d="M581.6,458.1a6.7,6.7,0,0,1,.4,2.5,7.6,7.6,0,0,1-.4,2.6Z" transform="translate(-564.8 -447.6)" fill="#fff"/><path d="M581.3,456.6a6.1,6.1,0,0,1-.5-2.5,6.3,6.3,0,0,1,.5-2.6Z" transform="translate(-564.8 -447.6)" fill="#fff"/><path d="M581.3,458.1a5.5,5.5,0,0,0-.5,2.5,6.3,6.3,0,0,0,.5,2.6Z" transform="translate(-564.8 -447.6)" fill="#fff"/><path d="M581.6,456.6a7.3,7.3,0,0,0,.4-2.5,7.6,7.6,0,0,0-.4-2.6Z" transform="translate(-564.8 -447.6)" fill="#fff"/></g></g></svg>