<svg xmlns="http://www.w3.org/2000/svg" xmlns:xlink="http://www.w3.org/1999/xlink" viewBox="0 0 33.6 19.6"><defs><clipPath id="a"><rect width="33.6" height="19.58" fill="none"/></clipPath></defs><title>KOR</title><g clip-path=""><rect width="33.6" height="19.58" fill="#fff"/><rect x="22.1" y="3.3" width="0.8" height="2.24" transform="translate(1.3 13.2) rotate(-33.6)"/><rect x="23.6" y="5.5" width="0.8" height="2.24" transform="translate(0.4 14.4) rotate(-33.7)"/><rect x="23.8" y="2.4" width="0.8" height="4.9" transform="translate(1.4 14.3) rotate(-33.7)"/><rect x="24.1" y="1.9" width="0.8" height="2.25" transform="translate(2.4 14.1) rotate(-33.6)"/><polygon points="25.7 4.1 27 5.9 26.3 6.4 25 4.5 25.7 4.1"/><rect x="9.9" y="11.6" width="0.8" height="4.89" transform="translate(-6.1 8.1) rotate(-33.7)"/><rect x="8.2" y="12.5" width="0.8" height="2.24" transform="matrix(0.83, -0.55, 0.55, 0.83, -6.14, 7.05)"/><rect x="9.6" y="14.7" width="0.8" height="2.24" transform="translate(-7.1 8.2) rotate(-33.7)"/><rect x="7.9" y="13" width="0.8" height="4.89" transform="translate(-7.2 7.2) rotate(-33.7)"/><rect x="7.9" y="5.1" width="4.9" height="0.81" transform="translate(0 11) rotate(-56.3)"/><rect x="6.9" y="4.4" width="4.9" height="0.82" transform="translate(0.1 9.9) rotate(-56.3)"/><rect x="5.8" y="3.7" width="4.9" height="0.82" transform="translate(0.3 8.7) rotate(-56.3)"/><rect x="21.4" y="14.8" width="2.2" height="0.82" transform="translate(-2.6 25.5) rotate(-56.3)"/><rect x="22.8" y="12.6" width="2.2" height="0.81" transform="translate(-0.1 25.7) rotate(-56.4)"/><rect x="22.4" y="15.5" width="2.2" height="0.82" transform="translate(-2.7 26.6) rotate(-56.3)"/><polygon points="24 14.4 25.3 12.5 25.9 13 24.7 14.8 24 14.4"/><rect x="23.4" y="16.1" width="2.2" height="0.82" transform="translate(-2.9 27.7) rotate(-56.2)"/><rect x="24.9" y="13.9" width="2.2" height="0.81" transform="matrix(0.55, -0.83, 0.83, 0.55, -0.35, 28.04)"/><g clip-path=""><path d="M12.7,7.1h0" fill="#b50037"/><path d="M19.5,5.7a4.9,4.9,0,0,0-6.8,1.4,2.4,2.4,0,1,0,4.1,2.7,2.4,2.4,0,1,1,4.1,2.7,4.9,4.9,0,0,0-1.4-6.8" fill="#b50037"/><path d="M12.7,7.1a2.4,2.4,0,1,0,4.1,2.7,2.4,2.4,0,1,1,4.1,2.7,4.9,4.9,0,1,1-8.1-5.4" fill="#1e3476"/></g></g></svg>