<svg xmlns="http://www.w3.org/2000/svg" xmlns:xlink="http://www.w3.org/1999/xlink" viewBox="0 0 33.6 19.6"><defs><clipPath id="a" transform="translate(-564.6 -446.8)"><rect x="564.6" y="446.8" width="33.6" height="19.58" fill="none"/></clipPath></defs><title>LBN</title><g clip-path=""><rect width="33.6" height="19.58" fill="#fff"/><rect y="14.7" width="33.6" height="4.89" fill="#e53633"/><rect width="33.6" height="4.89" fill="#e53633"/><g clip-path=""><path d="M581.3,451.7l-.2.3-.5.5-.4.4h.3c0,.1-.3.3-.5.4a.7.7,0,0,0-.5.4h.4c0,.1,0,.2-.1.2l-.6.3c0,.2-.1.2-.3.3l-.9.6h0c0,.2.3.2.8,0l.2.2c.1.2.1.2-.1.5s-.3.3-.5.3-.3.1-.7.5l-.4.3h.3l.4-.2c.3-.2.3-.2.4-.1s.2.2.2.3-.1.2-.5.4a2.4,2.4,0,0,0-.8.6c-.4.4-.5.4-.6.4h.2a3.5,3.5,0,0,0,1.3-.5.9.9,0,0,1,.7-.1c.3.2-.2.6-1.2.8l-.6.3h0a1.6,1.6,0,0,0,1,0l.9-.4c.6-.2.6-.2.9-.1s.4.7-.2,1.4a1.3,1.3,0,0,1-.9.6c-.2.1-.5.4-.5.5h.1a.1.1,0,0,0,.1-.1.8.8,0,0,1,.7-.3,1.2,1.2,0,0,0,.9-.4.7.7,0,0,1,.7-.2c.1.1.1.1.3,0s.3,0,.3.2l.2.2.4.3a.1.1,0,0,0,.1.1h.1v-.2a.3.3,0,0,1-.1-.2h.5l.6.3.3.3h.2l-.5-.5a1.4,1.4,0,0,1-.7-1.4c0-.4,0-.5.1-.6s.3-.2.7,0,.3.2,1,.2.7-.1,1.1.1l.5.4c.2.2.5.2.5,0s-.3-.5-1.1-.9-.9-.6-.5-.7.2-.1.5,0l.6.2h.2l-.5-.4-.6-.5a1.1,1.1,0,0,0-.6-.3H584c-.1-.1.2-.2.8-.2s.9-.2.3-.4l-.7-.2h.2c.3,0,.5.1.5,0l-.4-.3-1-.7-.6-.5c-.2-.1-.3-.1-.2-.2H584l-.8-.6h0q0-.2.3,0h.3l-.5-.4a1,1,0,0,0-.8-.4h-.4a1.6,1.6,0,0,1-.7-.7Zm-1.1,1.9h.2l-.2.2h-.1v-.2h.1m1.6.1h.2c0,.1,0,.2-.2.2a.1.1,0,0,1-.1-.1h.1m-.5.1h.1c0,.1,0,.2-.2.2h-.3c-.1-.1,0-.2.2-.3h.2m1.1,0c.1,0,.2,0,.1.2h-.2c-.1,0-.1,0-.1-.2h.2m-1.8.3h0c.1,0,.1.3-.1.4h-.4a.6.6,0,0,1,.5-.5m1.4.6a.1.1,0,0,1,0,.2c0,.1,0,.2-.1.2h-.2a.3.3,0,0,1,.1-.2h.2m-.6.1h0c.2,0,.2.1.1.1h-.1m1.2.1h.2c.1.1.1.1.1.3s-.1.2-.5.1-.2-.1-.1-.2.2-.2.3-.2m-2.6.1h0c.3,0,.3,0,.2.2h-.4c0-.1-.1-.2,0-.3h.2m-.7.1c.1,0,.2,0,.3.2v.2h-.2c-.1.1-.2.1-.3-.1a.4.4,0,0,1-.1-.3h.2m4,.6c.1,0,.3.1.2.2s-.2.2-.3.1-.1-.1,0-.2a.1.1,0,0,1,.1-.1m-2.2.3h0v.2c0,.1-.1.2-.2,0s0-.2.2-.2m-.8.1h.2v.2h-.2l-.2-.2h.1m1.2.1h.1c0,.1.1.2.1.3s0,.2-.2.2-.2-.3-.1-.4h.1m.4.2c.1,0,.1.1.1.2h0c-.1,0-.1,0-.1-.2h0m-2.6.3h.4l-.2.2-.5.2c-.2,0-.2,0-.3-.2a.3.3,0,0,0-.1-.2h.7m4.1.6c.2,0,.3.1.1.3a.4.4,0,0,1-.6,0c-.1,0-.1-.1.1-.2h.4m.8.2h.1a.1.1,0,0,1,.1.1c.1.1.1.1,0,.2l-.2.2H584l-.2-.2h0c0-.1.3-.3.4-.3m-4.3.2h0c.2,0,.3.2.3.4s-.2.3-.3,0-.1-.4,0-.4m1.2.1h.4c0,.1-.1.2-.1.3h-.2v-.5h0m-.6.1h.1c.1.1.2.1.2.2v.2h-.1v-.2c-.1-.1-.1-.1-.1-.2h0" transform="translate(-564.6 -446.8)" fill="#419f43"/></g></g></svg>