<svg xmlns="http://www.w3.org/2000/svg" xmlns:xlink="http://www.w3.org/1999/xlink" viewBox="0 0 33.6 19.6"><defs><clipPath id="a" transform="translate(-565 -447.7)"><rect x="565" y="447.7" width="33.6" height="19.58" fill="none"/></clipPath></defs><title>LKA</title><g clip-path=""><rect width="33.6" height="19.58" fill="#f5cd28"/><rect x="7.1" y="2.1" width="5.7" height="15.47" fill="#ed6f22"/><rect x="1.5" y="2.1" width="5.6" height="15.48" fill="#2f742e"/><rect x="14.3" y="2.1" width="17.8" height="15.48" fill="#8e1841"/><g clip-path=""><path d="M586.1,456.9h.3a.8.8,0,0,0-.3.7c.4-.5.5-.4.5-.4a.5.5,0,0,0-.2.6,3,3,0,0,1,.5-.7,1.9,1.9,0,0,0,0,.8l.4-.7s-.1.4.1.6l.2-.5.4.6a1.5,1.5,0,0,0,.2-.6s.5.4.9.2a1,1,0,0,1-.5-.5,2.2,2.2,0,0,0,1,.2l-1-.6.7.2-.3-.2Z" transform="translate(-565 -447.7)" fill="#f5cd28"/><path d="M587,457.9a1.4,1.4,0,0,1-.2-.7l-.3.6c-.2-.4-.1-.5,0-.6h.1a2,2,0,0,0-.5.5.8.8,0,0,1,.3-.7h0a1.1,1.1,0,0,0-.3.7,1.1,1.1,0,0,1,.4-.5h.1a.4.4,0,0,0-.1.6,2.5,2.5,0,0,1,.3-.7c.1.1,0,.4.2.8s.2-.7.3-.7a1.8,1.8,0,0,0,.1.6l.2-.5c.1,0,.3.5.5.5a1.8,1.8,0,0,0,.1-.5,1.3,1.3,0,0,0,.6.2h.3a.7.7,0,0,1-.5-.4l.8.2h.2l-1-.5h.7l-.3-.2c0-.1.2.1.3.2h-.5l.8.5a1.5,1.5,0,0,1-1-.2,1.1,1.1,0,0,0,.5.4.7.7,0,0,1-.9-.1,1.8,1.8,0,0,1-.1.6c-.2-.1-.4-.5-.5-.5l-.2.4a.8.8,0,0,1-.2-.5l-.2.6Z" transform="translate(-565 -447.7)" fill="#8e1841"/><path d="M590.2,453.2a6.6,6.6,0,0,1,3,1.2c0-.2,0-.3.2-.4a.2.2,0,0,1,.3.3c-.2.6-1.2-.1-1.5-.2v.3c-.5-.1-.5-.2-.9-.6s-.1.4-.5.4.2-.3,0-.6v.5l-.4-.5v.5l-.5-.3c-.3-.1-.5.4-.5.7s.3-.4.7-.3a.4.4,0,0,0,.1.7s0-.4.1-.4a2.1,2.1,0,0,0,.7.5l.8-.2c.8-.1,2.6.1,2.2,1.3a1.3,1.3,0,0,1-.4.6c1.2.4.2,1.9,0,2.6s-.1,1.2.7,1.1-.4.4-.7.4a.4.4,0,0,0,.2.3c-.3.3.1.8-.1,1s-.8-.1-.8-.1v.3h-.7l.2-.3c-.2.2-.3.4-.6.3l.2-.3c-.3.2-.3.3-.6.3s.3-.9.8-.7.3.2.4,0,.1-.6.1-.7-.1-.7-.5-1.1-.6-.7-1-.8a3.5,3.5,0,0,0-1.4.6,8.7,8.7,0,0,1-2.5,1h0a4.4,4.4,0,0,0,1.1-2,6.7,6.7,0,0,1-1.2,2.1,2,2,0,0,1-.2.6,1.3,1.3,0,0,1,.9-.3c-.1.5-.6.4-.7.7s.3.5,0,.7h-1.3l.2-.3c-.2.1-.3.3-.7.3l.2-.3c-.2.2-.3.4-.6.3s.1-.6.4-.6.5.1.7-.1-.1-1.3-.2-1.8a3.4,3.4,0,0,0-.1-1v1.5a7.3,7.3,0,0,1-.9-.8,1.3,1.3,0,0,1,.3-2l.9-.6c0-.2.2-.4-.1-.5s-.2.3-.4.3v-.4s-.3,0-.2.6a.4.4,0,0,1-.2-.6h-.2s0,.5-.2.6a3.5,3.5,0,0,1,.1-.6s-.5.5-.7.4.2-.2.2-.5a4.3,4.3,0,0,0-.1-.5,1.3,1.3,0,0,0,1.1.1v.3a1.4,1.4,0,0,1,.9,0c-.1-.5-.4-.6-.8-1v.3a.6.6,0,0,1-.5-.5l-.3.2c-.4-.3-.7-.9-.1-.9s0,.4,0,.4l1.3-.4a.4.4,0,0,0-.4-.2c.3-.2.6-.3.8.1s.4-.2.3-.5.4.2.5.4.3-.1.3-.5.4.3.4.5a1.5,1.5,0,0,0,.8-.2c-.1.4-.1.4-.4.6a1.3,1.3,0,0,1,.2.8h-.2c0,.1.1.5.1.7h-.2l.2.7v.3a4.7,4.7,0,0,1,1.7-.3,13,13,0,0,1,2.1-.4c.5,0,.5.3,1.1.3v-.4a.8.8,0,0,0-.6-.8,2.4,2.4,0,0,0-.9.3h-1.2a2.3,2.3,0,0,1-1.3-.5c-.2,0-.3.2-.4.6a.7.7,0,0,1,0-.9c-.2-.9.5-1.3,1.3-1.5Z" transform="translate(-565 -447.7)" fill="#f5cd28"/><path d="M590.4,460.6c-.1-.2-.7-.6-.5-1s1.6-1.1,1.9-.2a5.3,5.3,0,0,1-.3,1.2.7.7,0,0,1,.7-.2c-.1.3-.6.6-.6.6a10.4,10.4,0,0,1-.3,1.2h-1.1v-.3l-.2.3h-.4l.3-.4s-.4.5-.7.4.5-.7,1-.5a1.4,1.4,0,0,0,.1-1.1Z" transform="translate(-565 -447.7)" fill="#f5cd28"/><path d="M589.3,462.3h0c.1-.7.4-.9,1.1-.6s0-.1,0-.2.2-.6,0-.8l-.2-.3c-.2-.2-.5-.5-.4-.8a1.9,1.9,0,0,1,1.3-.7.7.7,0,0,1,.7.5,4.4,4.4,0,0,1-.2,1v.2a.1.1,0,0,1,.1-.1.6.6,0,0,1,.6-.1c-.1.3-.6.6-.6.6s-.3,1.2-.3,1.2h-1.1v-.3l-.2.3h-.4l.2-.3a.8.8,0,0,1-.6.4Zm.6-.4-.2.3h.4l.2-.3v.3h1.1c-.1,0,.3-1,.3-1.2s.5-.3.6-.6h-.6a.1.1,0,0,1-.1.1v-.2c.1-.2.3-.8.2-1a.6.6,0,0,0-.6-.4,1.4,1.4,0,0,0-1.2.6.7.7,0,0,0,.4.8.3.3,0,0,0,.1.2,1.2,1.2,0,0,1,0,1h-.5c-.4,0-.5.2-.6.6s.7-.4.7-.4h-.1Z" transform="translate(-565 -447.7)" fill="#8e1841"/><path d="M586,454.4c-.1.1,0,.6.2.5s-.1-.5-.2-.5Z" transform="translate(-565 -447.7)" fill="#f5cd28"/><path d="M586.1,454.9a.3.3,0,0,1-.1-.2.2.2,0,0,1,0-.3c.1,0,.2.2.3.3a.3.3,0,0,1-.1.2Zm-.1-.4v.2a.3.3,0,0,0,.1.2h.1v-.2a.2.2,0,0,0-.2-.2Z" transform="translate(-565 -447.7)" fill="#8e1841"/><path d="M586.1,454.3c.2.1.5.5.9.5s-.2-.4-.2-.4a1.6,1.6,0,0,0,.9.3c-.2-.2-.3-.2-.3-.3h-1.3Z" transform="translate(-565 -447.7)" fill="#f5cd28"/><path d="M587,454.8a.8.8,0,0,1-.7-.4h0a1,1,0,0,0,.7.4c-.3-.2-.2-.4-.2-.4s.7.3.9.2h-.1c-.2-.1-.2-.1-.2-.2h0c0,.1.1.1.2.2h.1c-.2.2-.7,0-.9-.2s0,.2.3.4Z" transform="translate(-565 -447.7)" fill="#8e1841"/><path d="M586.5,456.8v-.3s.3.5.4.5a1.4,1.4,0,0,1,0-.7Z" transform="translate(-565 -447.7)" fill="#f5cd28"/><path d="M586.9,457c-.2,0-.4-.5-.4-.5v.3h0v-.3c.1.1.3.5.4.5a3.2,3.2,0,0,1-.1-.7c.1,0,0,.3.1.7Z" transform="translate(-565 -447.7)" fill="#8e1841"/><path d="M587,456.4s.5.8.7.7a1.1,1.1,0,0,1-.3-.7,1.5,1.5,0,0,0,.6.7,2.9,2.9,0,0,0-.2-.8s.4.7.6.7a.8.8,0,0,0,.1-.3Z" transform="translate(-565 -447.7)" fill="#f5cd28"/><path d="M587.6,457.1h0c-.2,0-.6-.7-.6-.7h.1s.3.6.5.7h.1a1.1,1.1,0,0,1-.3-.7,1.5,1.5,0,0,0,.6.7,2.9,2.9,0,0,0-.2-.8h.1c.1.2.4.6.5.6a.8.8,0,0,0,.1-.3h0a.8.8,0,0,1-.1.3c-.1,0-.4-.3-.5-.5s.1.4.1.6-.5-.5-.6-.6a1.1,1.1,0,0,0,.3.6Z" transform="translate(-565 -447.7)" fill="#8e1841"/><path d="M586.7,455.8l.3.4v-.5l.4.2v-.6l.4.7c.1,0,.1-.7.1-.7s.3.9.4.9h.1Z" transform="translate(-565 -447.7)" fill="#f5cd28"/><path d="M587,456.2l-.3-.4h0l.3.4v-.5l.4.2-.2-.6c.2.3.5.6.5.7a2.3,2.3,0,0,1,.1-.7,4.1,4.1,0,0,0,.4.9h0c-.1,0-.4-.7-.4-.9s-.1.7-.1.7l-.5-.7a2.1,2.1,0,0,1,.2.6c-.1.1-.4-.1-.4-.2v.5Z" transform="translate(-565 -447.7)" fill="#8e1841"/><path d="M586.4,455.1l.6.4c.1,0-.2-.5-.2-.5l.4.3c.1,0,0-.4,0-.4l.4.3c.1,0,.1-.3.1-.3l.2.2v-.6l.5.5Z" transform="translate(-565 -447.7)" fill="#f5cd28"/><path d="M587,455.5l-.6-.4h.1l.5.4h0l-.2-.5.4.3c.1-.1,0-.3,0-.4l.4.3c.1,0,.1-.1.1-.3l.2.2a1.8,1.8,0,0,0-.1-.6l.6.5s0,.1-.5-.5v.7l-.2-.3c0,.1,0,.3-.1.3l-.4-.3a.3.3,0,0,1,0,.4h0l-.4-.3c.2.3.3.5.2.5Z" transform="translate(-565 -447.7)" fill="#8e1841"/><path d="M584.4,455.2c0,.1.1.8,1.1.5s.1.2.1.2a1.6,1.6,0,0,1,.9.1c-.1-.3-.2-.5-.5-.6h-.2s-1.2,0-1.4-.2Z" transform="translate(-565 -447.7)" fill="#f5cd28"/><path d="M586.5,456h-.9v-.2h-.5a.7.7,0,0,1-.7-.5h0c.2.4.5.5,1.1.4h.1v.2h.8a.5.5,0,0,0-.4-.6h-1.6c.1.2.8.2,1.4.2h.3c.3.1.3.3.4.6Z" transform="translate(-565 -447.7)" fill="#8e1841"/><path d="M583.8,459.5c0,.1,0,.1-.2.3s.4.3.5.2a1,1,0,0,1,.1-.3c.1.3.4.7.7.7s.5,0,.5-.3a1.8,1.8,0,0,0-.5-.8c-.4-.5-.4-1.4-1.2-1.3a.1.1,0,0,1-.1.1q.1.3,0,.3a.2.2,0,0,1,0,.3c.1.1.2.1,0,.2a.8.8,0,0,1,.2.6Z" transform="translate(-565 -447.7)" fill="#f5cd28"/><path d="M585.1,460.5h-.2a1.5,1.5,0,0,1-.7-.7v.2H584l-.4-.2v-.2h.1a1.1,1.1,0,0,0-.3-.6h.2a.1.1,0,0,1-.1-.1h.1c0-.1-.1-.1-.1-.2h.1a.3.3,0,0,0-.1-.2c.1,0,.1,0,.1-.1h.2c.4,0,.5.3.7.7l.3.6c.2.2.6.6.6.8a.4.4,0,0,1-.4.4Zm-1-.8c.4.4.6.7.8.7a.3.3,0,0,0,.5-.3c0-.2-.4-.6-.5-.8s-.2-.4-.3-.6-.4-.8-.9-.7,0,.1-.1.2a.1.1,0,0,1,.1.1h-.1c.1.1.1.1.1.2h-.1a.1.1,0,0,1,.1.1h-.1a.8.8,0,0,1,.2.6h0l-.2.2.5.2v-.3Z" transform="translate(-565 -447.7)" fill="#8e1841"/><path d="M583.6,452.5a40.2,40.2,0,0,0-.2,5.1c-.2.2-.7.1-.8.1s.3-4.9,1-5.2Z" transform="translate(-565 -447.7)" fill="#f5cd28"/><path d="M583,457.7h-.4v-.6c.1-1.3.4-4.4,1-4.6a40.2,40.2,0,0,0-.2,5.1Zm.6-5.2c-.6.2-.8,3.4-.9,4.6a1.8,1.8,0,0,0-.1.6h.8a27.9,27.9,0,0,1,.2-5.1Z" transform="translate(-565 -447.7)" fill="#8e1841"/><path d="M582.9,460.6s-1.1.2-.6-.5.4.2.2.4.3-.1.4-.3.1-.5,0-.5-.8-.3-.6-.4.3.1.4.2.4-.3.6,0l.4-.2c.2.4-.3.5-.5.4a.3.3,0,0,1,0,.5c0,.2.1.2.3.3s1.3.2-.4.1v.2c.2,0,.3,0,.3.2h-.3a.2.2,0,0,1-.1.3.5.5,0,0,1-.1-.3.2.2,0,0,1-.3,0c.1-.2.3-.1.3-.4Z" transform="translate(-565 -447.7)" fill="#f5cd28"/><path d="M582,457.4c.1-.3.7-.2.4.1s.9.3,1.2.1.3-.3.3,0-2,.5-1.9-.2Z" transform="translate(-565 -447.7)" fill="#f5cd28"/><path d="M594.6,462.7a10.2,10.2,0,0,0,.8,1.5c.2.2.7.2.8,0l.4.4h.1c-.1-.2-.2-.2-.3-.5a.8.8,0,0,0,.1-.7c-.4-.6-1.6-.4-1.9-.6Z" transform="translate(-565 -447.7)" fill="#f5cd28"/><path d="M596.6,464.6h0l-.4-.4c-.1.2-.6.2-.8,0a8.9,8.9,0,0,1-.5-1l-.3-.5h.6c.5,0,1.1.1,1.3.5a.8.8,0,0,1-.1.7l.2.4h0Zm-.4-.5.4.4h.1c0-.1,0-.1-.1-.1a.5.5,0,0,1-.2-.4.8.8,0,0,0,.1-.7c-.3-.4-.8-.4-1.3-.5h-.6l.3.5a8.9,8.9,0,0,0,.5,1c.2.1.7.1.8-.1Z" transform="translate(-565 -447.7)" fill="#8e1841"/><path d="M581.7,452.2a10.7,10.7,0,0,0-.7-1.5c-.2-.2-.7-.2-.8,0l-.5-.4h-.1a.7.7,0,0,1,.4.5.8.8,0,0,0-.1.7c.4.6,1.6.4,1.8.6Z" transform="translate(-565 -447.7)" fill="#f5cd28"/><path d="M581.7,452.2h-.6c-.4-.1-1-.1-1.2-.5a.8.8,0,0,1,.1-.7l-.3-.4a.1.1,0,0,1-.1-.1h.1l.5.4c.1-.2.6-.2.8,0l.5.9.3.6Zm-2-1.9h.1a.5.5,0,0,1,.2.4.8.8,0,0,0-.1.7c.2.4.8.4,1.2.4h.6c-.1-.1-.1-.3-.2-.4a8.9,8.9,0,0,0-.5-1,.8.8,0,0,0-.8,0l-.5-.4Z" transform="translate(-565 -447.7)" fill="#8e1841"/><path d="M581.6,462.6l-1.5.8a.6.6,0,0,0,.1.8l-.5.4a.3.3,0,0,1,.1.2l.5-.4a.9.9,0,0,0,.7.1c.6-.4.4-1.6.6-1.9Z" transform="translate(-565 -447.7)" fill="#f5cd28"/><path d="M579.8,464.8h0a.3.3,0,0,0-.1-.2l.4-.4a1,1,0,0,1-.1-.3.7.7,0,0,1,.1-.5l1-.5.5-.3c0,.2-.1.4-.1.7s-.1,1-.5,1.2h-.7l-.3.3c-.1,0-.1,0-.1.1Zm1.8-2.2-.5.3-1,.5a.7.7,0,0,0-.1.5c0,.1.1.2.2.3l-.4.4h.1a.5.5,0,0,1,.4-.2h.7c.4-.3.4-.8.5-1.3s0-.5.1-.6Z" transform="translate(-565 -447.7)" fill="#8e1841"/><path d="M594.7,452.2a10.7,10.7,0,0,1,.7-1.5c.2-.2.7-.2.8,0l.5-.4h.1a1.1,1.1,0,0,0-.4.5.8.8,0,0,1,.1.7c-.3.6-1.5.4-1.8.6Z" transform="translate(-565 -447.7)" fill="#f5cd28"/><path d="M594.7,452.2h-.1a1.6,1.6,0,0,0,.3-.6l.5-.9a.7.7,0,0,1,.9,0c-.1,0,.2-.3.4-.4h.1a.1.1,0,0,1-.1.1l-.3.4a.8.8,0,0,1,.1.7c-.2.4-.8.4-1.2.5Zm1.1-1.6h-.4a8.9,8.9,0,0,0-.5,1c-.1.1-.1.3-.2.4h.6c.4,0,1,0,1.2-.4a.8.8,0,0,0-.1-.7l.3-.4a.1.1,0,0,1,.1-.1h-.1l-.4.4Z" transform="translate(-565 -447.7)" fill="#8e1841"/><path d="M582.3,458.1l.6.2h.6c0-.2-.3-.1-.6-.1s-.5-.1-.6,0Z" transform="translate(-565 -447.7)" fill="#f5cd28"/><path d="M582.9,458.3h-.6c0-.1.1,0,.3,0h.9c0,.1-.4.1-.6.1Zm-.5-.2h0Z" transform="translate(-565 -447.7)" fill="#f5cd28"/><path d="M582.3,458.5c0,.1.3.1.6.1h.6c-.1-.1-.4,0-.6,0s-.5-.1-.6,0Z" transform="translate(-565 -447.7)" fill="#f5cd28"/><path d="M582.9,458.6h0c-.3,0-.6,0-.6-.1a.1.1,0,0,1,.1-.1h.5Zm-.5-.2a.1.1,0,0,0-.1.1h1.1q0-.2-.3,0h-.7Z" transform="translate(-565 -447.7)" fill="#f5cd28"/><path d="M582.4,458.8h.5c.2,0,.6-.1.6-.2h-.6c-.2,0-.5-.1-.5,0Z" transform="translate(-565 -447.7)" fill="#f5cd28"/><path d="M582.9,458.9h-.5c0-.1,0-.1.1-.1h1c0,.2-.4.2-.6.2Zm-.4-.1h.4l.6-.2h-1Z" transform="translate(-565 -447.7)" fill="#f5cd28"/><path d="M582.4,459.1h.6c.2,0,.5-.1.5-.2s-.3,0-.6.1-.5-.1-.5,0Z" transform="translate(-565 -447.7)" fill="#f5cd28"/><path d="M582.8,459.2h-.4c0-.1,0-.1.2-.1h.9c0,.1-.3.2-.5.2Zm-.2-.1h.4c.2,0,.5-.1.5-.2h-.9Z" transform="translate(-565 -447.7)" fill="#f5cd28"/></g></g></svg>