<svg xmlns="http://www.w3.org/2000/svg" xmlns:xlink="http://www.w3.org/1999/xlink" viewBox="0 0 33.6 19.6"><defs><clipPath id="a" transform="translate(-564.6 -447.6)"><rect x="564.6" y="447.6" width="33.6" height="19.58" fill="none"/></clipPath></defs><title>MAR</title><g clip-path=""><rect width="33.6" height="19.58" fill="#b01f35"/><polygon points="15.4 8.2 11.1 8.2 16 12 16.8 11.4 13.8 9.1 15.2 9.1 15.4 8.2" fill="#296437"/><polygon points="18.1 8.2 16.8 3.9 14.9 10 15.6 10.5 16.8 6.9 17.2 8.2 18.1 8.2" fill="#296437"/><polygon points="18.9 10.9 22.4 8.2 16.4 8.2 16.1 9.1 19.8 9.1 18.7 10 18.9 10.9" fill="#296437"/><polygon points="16.8 12.6 20.3 15.2 18.4 9.1 17.5 9.1 18.6 12.8 17.5 12 16.8 12.6" fill="#296437"/><polygon points="14.6 10.9 13.3 15.2 18.2 11.5 17.9 10.5 14.9 12.8 15.4 11.5 14.6 10.9" fill="#296437"/></g></svg>