<svg xmlns="http://www.w3.org/2000/svg" xmlns:xlink="http://www.w3.org/1999/xlink" viewBox="0 0 33.6 19.6"><defs><clipPath id="a"><rect width="33.6" height="19.58" fill="none"/></clipPath></defs><title>MDA</title><g clip-path=""><rect width="33.6" height="19.58" fill="#efd928"/><rect width="11.2" height="19.58" fill="#1f00af"/><rect x="22.4" width="11.2" height="19.58" fill="#d00524"/><g clip-path=""><path d="M15.7,4.4h-.1v.2h-.3V5h.3v.7h-.1l.2.2.2-.2h-.1V4.9H16V4.6h-.3V4.6h-.1"/><path d="M15.7,4.4h0v.2h0v.7h.1V4.9h0V4.6h0" fill="#f9f92b"/><polygon points="15.8 7.2 15.5 7.1 15 6.8 14.6 6.8 14.6 6.2 13.9 5.6 13.2 6.3 13.1 6.6 13.2 13.3 13.6 12.7 13.7 12.8 14.2 12.3 14.5 11.3 14.7 10.9 15.2 11.5 15 11.9 15.2 11.9 15.2 12 15.3 11.9 15.4 12.1 15.8 11.8 16.3 12 15.3 13.7 15 14 15.6 14.2 16.2 13.5 16.1 14 15.9 14.4 16.7 14.9 17.5 14.4 17.1 13.5 17.3 13.5 17.8 14.2 18.4 14 17.6 13.1 17.1 12 17.6 11.8 18 12.2 18.1 11.9 18.3 12 18.2 11.8 18.4 11.9 18.2 11.5 18.8 11 19.2 12.2 19.7 12.8 19.8 12.8 20.2 13.3 20.2 6.4 19.5 5.6 18.8 6.2 18.8 6.8 18.5 6.8 18 7.1 17.7 7.2 17.6 7.2 17.4 7 17.2 6.6 17.2 6.1 17.3 5.9 17.3 5.6 17.4 5.6 17.3 5.4 17.5 5.4 17.3 5.2 17.3 5.1 16.7 4.9 16.3 4.9 16.1 4.9 16.1 5 16.2 5.4 16.1 5.5 16.2 5.8 16.2 6.3 16.1 6.8 15.9 7.2 15.8 7.2" fill="#7f6332"/><polygon points="15.1 11.9 14.6 12.6 14.4 12.6 14.1 12.7 14.1 12.9 14.1 13.1 14.4 13.3 14.6 13.2 14.7 13 14.8 12.9 15.4 12.1 15.3 11.9 15.2 12 15.2 11.8 15.1 11.9" fill="#c11b2c"/><polygon points="18 12.1 18.7 12.9 18.7 13.1 19 13.3 19.1 13.3 19.4 13 19.3 12.7 19 12.6 18.8 12.6 18.3 11.9 18.3 11.8 18.2 12 18.1 11.9 18 12.1" fill="#c11b2c"/><path d="M16.4,4.8h-.5c-.3,0-.3.3-.3.3h.2l.4.2h-.5a.6.6,0,0,1,.5.7A1.7,1.7,0,0,1,16,7l-.2.2L15.4,7a1.4,1.4,0,0,0-.7-.3V6.5c0-.1,0-.2,0-.3l-.8-.7a1.8,1.8,0,0,0-.8,1s0,5,0,6.7a.8.8,0,0,1-.1.2,1.9,1.9,0,0,0,.6-.7h0a1.3,1.3,0,0,0,.5-.6h0a5.1,5.1,0,0,0,.5-1.4v-.3a3.5,3.5,0,0,1-.4,1.2V7.7l.2.2.3-.3V7.4l-.2.2V7h.1l.3.4.2-.2v.2l.2-.2h-.2c-.1,0-.1-.2-.1-.2l-.3.2V6.9h1.6v.2a.6.6,0,0,0,.5-.3v0a.7.7,0,0,0,.5.3V7.1h1.6v.3L18.3,7s0,.2-.1.2H18l.2.2V7.1l.2.2.3-.4H19v.6l-.2-.2v.2l.3.3.2-.2v4.3a3.6,3.6,0,0,1-.4-1.2V11a5.1,5.1,0,0,0,.5,1.4h0a1.4,1.4,0,0,0,.5.6h0a1.9,1.9,0,0,0,.6.7.8.8,0,0,1-.1-.2c0-1.7,0-6.7,0-6.7a1.8,1.8,0,0,0-.8-1l-.8.7c0,.1,0,.2,0,.3v.2A1.4,1.4,0,0,0,18,7l-.4.2L17.4,7a1.5,1.5,0,0,1-.2-.8c0-.1.1-.2.1-.3a1.3,1.3,0,0,0,0-.2h.1s0-.2-.1-.3h.1l-.2-.2h0L17,4.9h-.5m0,.1h.1l.7.2h.1a1.8,1.8,0,0,1,0,.3c0,.1-.1.2-.1.3a1.4,1.4,0,0,0,.2.8v.2c-.2-.1-.4-.3-.4-.4V6.1H17v.6a.3.3,0,0,0,0,.2l.2.4-.3-.3V6.1h-.1v.8h-.1V6.1h-.1v.8l-.3.3.2-.4a.4.4,0,0,0,0-.2V6.1h-.1v.6c0,.1-.2.3-.4.4V7a1.6,1.6,0,0,0,.2-.9,1,1,0,0,0-.1-.5s0-.1.1-.1h.2s-.3-.1-.3-.2h.6l.4.2c-.1-.1-.2-.2-.4-.2h-.3m-2.5.8h0l.6.5h0v.4l-.3-.3h-.1l-.2.2-.2-.3h-.1l-.2.2V6.3l.6-.5m5.6,0,.6.5v.2l-.2-.2h-.1l-.2.3-.2-.2h-.1l-.3.3V6.3h0l.6-.5Zm-6.2.7v.5h-.2V6.4m6.8,0V7H20V6.4Zm-6.4,0,.2.3v.2l-.2.2Zm6,0v.6l-.2-.2V6.7Zm-6.1,0v.6l-.2-.2V6.7Zm6.1,0,.2.2v.2l-.2.2Zm-5.6,0,.3.3-.3.3Zm5.1,0v.6L19,6.8l.3-.3m-5.1,0v.5l-.2-.2V6.7Zm5.2,0,.2.2v.2l-.2.2Zm-5.9.6v.5h-.2V7.3Zm6.6,0h.2v.2H20Zm-6.6,0h.2v.2h-.2Zm.4,0v.5h-.2V7.3h.2Zm.1,0,.2.2v.2h-.2Zm.4,0v.5h-.2V7.3l.2-.2m4.7,0,.2.2v.2H19V7.1Zm.4,0v.5h-.2V7.3Zm.1,0h.2v.2h-.2Zm.4,0v.5h-.2V7.3h.2Zm-6.2.6.2.2.2-.2v4.6l-.4.4Zm6,0v5l-.4-.4V7.7l.2.2Zm-6.1,0v4.9a1,1,0,0,1-.4.5V7.7l.2.2Zm6.2,0,.2.2.2-.2v5.4a1,1,0,0,1-.4-.5Zm-4.6,3.8-.2.4H15l-.4.5c-.1.1-.1.1-.2.1l-.3.2v.4h0l.2.3h.2l.2-.2v-.2l.5-.7h0l.5-.5h-.1l-.3.3v-.2H15l.2-.3Zm3.1,0h-.1l.2.3H18v.2l-.3-.3h-.1l.5.5h0l.5.7v.2l.3.3h.2l.2-.3h0v-.4l-.3-.2c-.1,0-.2.1-.2-.1l-.4-.5h.1l-.2-.4m-3.1.4a.4.4,0,0,0,0,.2h.2l-.6.8V13h-.2v-.2h-.5l.3-.2h.3l.4-.7h0m3.2,0h0l.4.7H19l.3.2h-.5v.2h-.2v-.2l-.6-.8h.2a.3.3,0,0,0,0-.2m-2.1.1s-.7,1.7-1.4,2l.6.3h.2v-.2l.4-.6a1.7,1.7,0,0,1-.3.7v.2h.1a2.3,2.3,0,0,1,.8.7,2.4,2.4,0,0,1,.8-.7h.1v-.2a1.8,1.8,0,0,1-.3-.7l.4.6v.2h.2l.6-.3c-.7-.3-1.4-2-1.4-2h-.1a6.2,6.2,0,0,0,1.2,1.9l-.4.2-.6-.8a4.2,4.2,0,0,1-.3-.8,3.6,3.6,0,0,0,.4,1.8l-.7.4-.7-.4a3.5,3.5,0,0,0,.4-1.8,4,4,0,0,1-.3.8l-.6.8-.4-.2A6.2,6.2,0,0,0,16.3,12Zm-1.9.8h0a0,0,0,0,1,0,0h-.1a0,0,0,0,1,0,0h.1m4.9,0h.1a0,0,0,0,1,0,0h-.1m-4.8.1h0a0,0,0,0,1,0,.1h-.2a.1.1,0,0,1,0-.1h.2m4.7,0h.2a0,0,0,0,1,0,.1H19a0,0,0,0,1,0-.1h0m-4.6.1h0a0,0,0,0,1,0,.1h-.2a0,0,0,0,1,0-.1h.2M19,13h.2a0,0,0,0,1,0,.1h-.2a0,0,0,0,1,0-.1h0m-4.5.1h0a.1.1,0,0,1,0,.1h-.2a0,0,0,0,1,0-.1h.2m4.4,0h.2a0,0,0,0,1,0,.1h-.2a.1.1,0,0,1,0-.1h0"/><polygon points="14.7 13.1 15 13.3 14.9 13.7 14.6 13.5 14.7 13.1"/><path d="M13,9.4h-.1l1.4,3.1h.2Zm1.7,3.7h.1Z"/><polygon points="14.7 13.3 14.9 13.4 14.9 13.6 14.7 13.5 14.7 13.3" fill="#f9f92b"/><path d="M13.5,11.9l.2.3h-.2a1.1,1.1,0,0,0,.5.3h.3v-.2l-.3-.2h-.4"/><path d="M14.4,11.4l-.2.3a.6.6,0,0,0,0,.4v.3l.3-.3a.6.6,0,0,0,.1-.4h-.2a.6.6,0,0,0-.1-.4"/><path d="M13.9,11.4h-.4l-.3-.2h.2l-.2-.2h.3l.3.2Z"/><path d="M13.9,10.5s.1.2.1.3h.1a1.2,1.2,0,0,1,0,.5.5.5,0,0,1-.3.3l-.2-.4a.5.5,0,0,1,0-.3l.2-.2Z"/><path d="M12.7,9.9h.4l.2.2v.2H13l-.3-.3h.2V9.9"/><path d="M13.3,9.6a.5.5,0,0,1,.1.2h.1a1.1,1.1,0,0,1,.1.5.5.5,0,0,1-.2.3l-.2-.4a.7.7,0,0,1,0-.3V9.6"/><path d="M12.6,8.8a.7.7,0,0,0,0,.3h-.2a.7.7,0,0,0,.2.3H13a.7.7,0,0,0,.1-.4.9.9,0,0,0-.2-.4v.2Z"/><path d="M12.7,9a.6.6,0,0,0,0,.2h.2a.5.5,0,0,0,0-.2h-.2" fill="#285f37"/><path d="M12.6,9.3h.2v.2h-.2V9.3" fill="#285f37"/><path d="M13,9a.5.5,0,0,0,0,.2v.2a.7.7,0,0,0,.1-.2V9" fill="#285f37"/><path d="M12.8,10h0" fill="#285f37"/><path d="M12.8,10.2h0" fill="#285f37"/><path d="M13.3,9.7a.4.4,0,0,0,0,.2v.2a.7.7,0,0,0,0-.2V9.7" fill="#285f37"/><path d="M13.5,9.8v.2a.6.6,0,0,0,.1.3v-.2a.5.5,0,0,0-.1-.3" fill="#285f37"/><path d="M13.3,11h.5l-.2-.2h-.2" fill="#285f37"/><path d="M13.3,11.3h0" fill="#285f37"/><path d="M13.9,10.6v.3a.3.3,0,0,0,.1.2h.1a.3.3,0,0,0,0-.1h-.1" fill="#285f37"/><path d="M14.1,10.8l-.2.3a.5.5,0,0,0,0,.3v-.2a.7.7,0,0,0,0-.3" fill="#285f37"/><path d="M14.4,11.5v.2a.4.4,0,0,1,0,.1h-.1a.5.5,0,0,1-.1-.3v-.3" fill="#285f37"/><path d="M14.6,11.8l-.2.2a.3.3,0,0,0,0,.2h.2a.8.8,0,0,0,.1-.3" fill="#285f37"/><path d="M13.6,12.2h.2l-.2-.2" fill="#285f37"/><path d="M13.6,12l.2.2h.4l-.3-.2h-.3" fill="#285f37"/><path d="M14.3,12.4h.3a.1.1,0,0,0,0-.1h-.4"/><path d="M14.6,12.4h0Z" fill="#f9f92b"/><path d="M14.3,12.3h.1v.2h-.2a.1.1,0,0,1,0-.1h.2"/><path d="M14.1,12.6h.1a.1.1,0,0,0,0-.1h-.1Z" fill="#f9f92b"/><path d="M13.9,11.4h.3a.1.1,0,0,0,.1-.1h-.4"/><path d="M14.2,11.4Z" fill="#f9f92b"/><path d="M13.9,11.4h.1v.2h-.2a.1.1,0,0,1,0-.1h.2"/><path d="M13.7,11.7Z" fill="#f9f92b"/><path d="M13.4,10.5h.3a.1.1,0,0,0,.1-.1h-.4"/><path d="M13.7,10.5Z" fill="#f9f92b"/><path d="M13.5,10.5h.1v.2h-.2a.1.1,0,0,1,0-.1h.2"/><path d="M13.3,10.7Z" fill="#f9f92b"/><path d="M13,9.6h.3a.1.1,0,0,0,.1-.1H13"/><path d="M13.3,9.6h0Z" fill="#f9f92b"/><path d="M13,9.5h.1v.2h-.2a.1.1,0,0,1,0-.1H13"/><path d="M12.8,9.8h0" fill="#f9f92b"/><path d="M13.8,11.2l-.2-.3v-.1c.1.1.2.4.2.4" fill="#f9f92b"/><path d="M13.3,10.1V9.9c0,.1.1.2.1.2" fill="#f9f92b"/><path d="M14.4,12.5l-.3-.6c-.1-.3-.2-.5-.2-.5l.3.5.2.6" fill="#f9f92b"/><polygon points="14.7 9.4 14.7 11.1 14.8 11.3 15.6 11.7 16.6 12.1 16.7 12.3 17.5 11.8 18.5 11.3 18.7 11 18.7 9.4 14.7 9.4" fill="#2e59a0"/><path d="M14.6,7.4V9.4h4.1V7.4H14.6Z" fill="#c11b2c"/><polygon points="14.8 9.5 15.1 9.4 15.4 9.2 15.5 9.4 15.8 9.5 15.6 9.7 15.3 9.8 15.1 9.7 14.8 9.5" fill="#f9f92b"/><polygon points="18 9.2 17.9 9.4 17.6 9.5 17.9 9.7 18.1 9.9 18.3 9.7 18.6 9.5 18.3 9.4 18 9.2" fill="#f9f92b"/><polygon points="16.7 7.6 16.6 7.9 16.3 7.8 16.5 8.1 16.2 8.2 16.5 8.3 16.3 8.6 16.6 8.4 16.7 8.7 16.8 8.4 17.1 8.5 16.9 8.3 17.2 8.2 17 8.1 17.1 7.8 16.8 7.9 16.7 7.6" fill="#f9f92b"/><polygon points="17.4 7.6 17.5 7.9 17.7 8.3 17.7 8.7 17.5 8.9 17.2 9.1 17.1 9.1 16.9 9 16.7 9.1 16.5 9 16.3 9.1 16.2 9.1 16 9 15.8 8.8 15.7 8.4 16 7.6 15.6 7.9 15.3 8.3 15.3 8.8 15.6 9.2 15.9 9.4 16 9.4 15.9 9.8 16.2 9.9 16.3 10 16.4 10.4 16.4 11.1 16.3 11.2 16.1 11.4 16.1 11.5 16.3 11.6 16.5 11.8 16.8 11.8 17.1 11.6 17.3 11.5 17.2 11.3 17 11.1 17 10.6 17 10 17.4 9.8 17.5 9.7 17.4 9.4 17.6 9.3 18 9 18.1 8.5 18 8.2 17.8 7.9 17.4 7.6" fill="#f9f92b"/><polygon points="16.1 10 16.3 10.1 16.1 10.3 16 10.1 16.1 10" fill="#f9f92b"/><polygon points="17.3 10 17.1 10.1 17.3 10.3 17.4 10.1 17.3 10" fill="#f9f92b"/><polygon points="17.4 10.4 17.1 10.4 17.1 10.6 17.1 10.9 17.2 11.2 17.3 11.2 17.3 10.7 17.4 10.4" fill="#f9f92b"/><polygon points="16 10.4 16.1 10.8 16.1 11.2 16.2 11.1 16.3 10.9 16.3 10.6 16.3 10.4 16 10.4" fill="#f9f92b"/><polygon points="18.2 10.7 18 10.6 17.7 10.6 17.5 10.8 17.5 11.1 17.7 11.3 17.8 11.3 17.8 11 18 10.8 18.2 10.7" fill="#f9f92b"/><polygon points="15.6 10.6 15.5 10.5 15.4 10.4 15.3 10.5 15.2 10.6 15.2 10.7 15.1 10.7 15 10.8 15 10.9 15.1 11 15.2 11 15.2 11 15.2 11.2 15.2 11.3 15.3 11.3 15.5 11.3 15.5 11.2 15.7 11.3 15.8 11.2 15.9 11.1 15.8 11 15.8 10.9 15.9 10.9 15.9 10.7 15.8 10.5 15.6 10.6 15.6 10.6" fill="#f9f92b"/><path d="M16,7.5c0,.1-.7.4-.7,1a1,1,0,0,0,.7.9h0l-.2.3h.4c.2.2.2.5.2.7a.7.7,0,0,1-.1.5c-.1.1-.2.1-.2.3s.1.1.2.2.2.2.4.2.3-.1.4-.2.2-.1.2-.2-.1-.1-.2-.3a.7.7,0,0,1-.1-.5c0-.2,0-.6.2-.7h.4l-.2-.3h0a1,1,0,0,0,.7-.9c0-.6-.7-.9-.7-1s.2.6.2,1-.4.5-.4.5H16.1s-.4,0-.4-.5.3-.7.2-1m1.5,2a1.9,1.9,0,0,1,.6.4l.6-.4a1.7,1.7,0,0,1-.6-.3,1.3,1.3,0,0,1-.6.3m-1.5,0a1.3,1.3,0,0,1-.6-.3l-.6.3.6.4.6-.4m.8-2v.4l-.3-.2.2.3h0l-.2.3.3-.2v0l.3.2L17,8.3h0l.2-.3-.3.2Zm-.8.2c0,.1-.2.4-.2.8s.2.6.5.6h1.1c.3,0,.5-.2.5-.6s-.3-.7-.2-.8.5.4.5.8a.9.9,0,0,1-.7.9l.2.4h-.4c-.2.1-.2.5-.2.8s0,.4.1.5l.2.2-.2.2-.4.2-.3-.2-.2-.2.2-.2c.1-.1.1-.2.1-.5s0-.7-.2-.8h-.4l.2-.4a.9.9,0,0,1-.7-.9c0-.4.5-.8.5-.8m.8.1V8H17v.2h0v.2h-.2v0h-.2V8.3h0V7.9h.2ZM15.3,9.3l.4.2-.4.3h0l-.4-.3.4-.2m2.7,0,.4.2-.4.3h0l-.4-.3.4-.2m-1.9.7-.2.2.2.2.2-.2Zm1.1,0-.2.2.2.2.2-.2Zm-1.1.1h0Zm1.1,0h0Zm-1.3.3a2.1,2.1,0,0,1,.1,1,.4.4,0,0,0,.3-.3c0-.1,0-.5-.1-.6Zm1.5,0h-.3c-.1.1-.1.5-.1.6a.4.4,0,0,0,.3.3,2.4,2.4,0,0,1,0-.3,1.9,1.9,0,0,1,.1-.7m-2.1.1h0a.2.2,0,0,0-.1.2h-.1l-.2.2a.2.2,0,0,0,.2.2h0a.2.2,0,0,0,.1.3h.6a.2.2,0,0,0,0-.3h0a.2.2,0,0,0,.1-.3h-.3l-.2-.2m.7,0h.2c.1.1.1.2.1.4a.3.3,0,0,1-.1.3,2.7,2.7,0,0,0-.1-.7m1.2,0a2.7,2.7,0,0,0-.1.7.3.3,0,0,1-.1-.3.8.8,0,0,1,.1-.4Zm-1.9.1h-.1a.2.2,0,0,1,.1-.2h0m2.5.1a.4.4,0,0,0-.4.4.5.5,0,0,0,.4.4v-.2a.4.4,0,0,1,.4-.4h.1a.5.5,0,0,0-.4-.3m-2.2.1h.1a.2.2,0,0,1,0,.2h-.1v-.2h.1m2.2,0h.2a.5.5,0,0,0-.4.5V11a.3.3,0,0,1,.3-.3m-2.7.1h0v-.2h.2m.3,0V11l-.2-.2.2-.2m.2.2h.1a.2.2,0,0,1,0,.2h-.3l.2-.2m-.4.1h0a.2.2,0,0,1-.1-.2h.1m1.2.4h0m.5,0h0"/><path d="M14.4,7.3s.2.1.2.3v3.6l.2.2,1.2.6.6.4.6-.4,1.2-.6.2-.2V7.6c0-.1.2-.3.2-.3H14.4Zm.2.1h4.1a.3.3,0,0,0-.1.2V11c0,.1-.1.2-.5.5a7.4,7.4,0,0,0-1.5.7,7.2,7.2,0,0,0-1.5-.7c-.4-.2-.5-.4-.5-.5V7.6a.3.3,0,0,0-.1-.2" fill="#f9f92b"/><path d="M16.6,5.3h0Z"/><path d="M15.7,5.2h.4c0,.1.1.2.1.3a.5.5,0,0,0-.4-.2h-.1" fill="#c11b2c"/><path d="M16.1,5.2h0"/><path d="M16.2,5.4h0" fill="#c11b2c"/><path d="M21.1,8.9l-.2.2h0a.1.1,0,0,0,0,.1h-.3s0,.2,0,.3-.1.2-.1.2h0s0,.1,0,.1l-.3.7H20a.2.2,0,0,0,0,.1h-.1a.2.2,0,0,0,0,.1h-.1s0,.1,0,.1l-.4.8-.2.2a.2.2,0,0,0,0,.2h-.1a.1.1,0,0,0,.1.2h.2c0-.1,0-.1,0-.1h.2c.1-.1,0-.2,0-.3l.4-.8H20a.1.1,0,0,0,0-.1h.1a.1.1,0,0,0,0-.1h.1l.3-.7h.1s0-.1,0-.1h.1s0-.1.1-.2l.3-.2-.2-.2H21a.1.1,0,0,0,0-.1h.1Zm-2.3,4.3h-.1a.1.1,0,0,0,0,.1h-.1a1.8,1.8,0,0,0,0,.4l.3-.2h-.1"/><path d="M21,9h0Zm-.1.2h0m-.3.2h0s0,.1,0,.3v.2h0V9.7a2.3,2.3,0,0,0,.1-.3h0m.2,0h-.2a2.7,2.7,0,0,1-.1.3v.2h.1V9.8l.2-.3h0m0,0h0l-.2.3v.2H21V9.4m-.4.6h-.1v.7a0,0,0,0,0,0,.1h.1V10s0-.1,0-.1h0m-.5.9h0m-.1.1h0m-.1.2h0m0,.1h0l-.4.7-.2.2a.2.2,0,0,0,.1.2h.2c0-.1,0-.2,0-.3l.4-.7a0,0,0,0,0,0-.1h0m-.6,1.2h0m-.4.8h0m-.1.1v.3l.2-.2h-.2" fill="#f9f92b"/><path d="M16.5,5.3h0Z" fill="#f9f92b"/><path d="M16.5,5.3h0"/></g></g></svg>