<svg xmlns="http://www.w3.org/2000/svg" xmlns:xlink="http://www.w3.org/1999/xlink" viewBox="0 0 33.6 19.6"><defs><clipPath id="a" transform="translate(-565.1 -447.7)"><rect x="565.1" y="447.7" width="33.6" height="19.58" fill="none"/></clipPath></defs><title>MDV</title><g clip-path=""><rect width="33.6" height="19.58" fill="#c0003b"/><rect x="4.9" y="4.9" width="23.8" height="9.79" fill="#347f3d"/><g clip-path=""><path d="M583.1,454.2a3.3,3.3,0,0,1,3.3,3.3,3.2,3.2,0,0,1-3.3,3.2,3.2,3.2,0,0,1-3.2-3.2,3.2,3.2,0,0,1,3.2-3.3" transform="translate(-565.1 -447.7)" fill="#fff"/><path d="M584.4,454.2a3.2,3.2,0,0,1,3.2,3.3,3.2,3.2,0,0,1-3.2,3.2,3.2,3.2,0,0,1-3.3-3.2,3.3,3.3,0,0,1,3.3-3.3" transform="translate(-565.1 -447.7)" fill="#347f3d"/></g></g></svg>