<svg xmlns="http://www.w3.org/2000/svg" xmlns:xlink="http://www.w3.org/1999/xlink" viewBox="0 0 33.6 19.6"><defs><clipPath id="a"><rect width="33.6" height="19.58" fill="none"/></clipPath></defs><title>MNE</title><g clip-path=""><rect width="33.6" height="19.58" fill="#cbae43"/><rect x="1" y="1" width="31.6" height="17.62" fill="#b41630"/><g clip-path=""><path d="M21,9.6l.8-.4a.9.9,0,0,0,.4-.5c0-.1,0-.2,0-.1l-.4.3h-.4l.5-.3a1.2,1.2,0,0,0,.4-.7c0-.2,0-.2-.1-.1l-.4.4-.4.3c-.1.1-.2.1,0,0a1.9,1.9,0,0,0,.7-.8,1.4,1.4,0,0,0,.1-.6H22a3.7,3.7,0,0,1-.4.7l-.2.2s-.1.1,0,0l.4-.6a2.1,2.1,0,0,0,.1-.7,1.2,1.2,0,0,0-.1-.4h-.1l-.2.7-.3.5s-.1.1,0,0a3.1,3.1,0,0,0,.3-1.1,1.9,1.9,0,0,0-.1-.9V5.4a3.6,3.6,0,0,1-.1.8,2.6,2.6,0,0,1-.2.7s-.1.1,0,0a1.9,1.9,0,0,0,.1-.5,2.4,2.4,0,0,0-.1-.9,1.1,1.1,0,0,0-.3-.5,6.5,6.5,0,0,1-.2,1.5h-.1a2.5,2.5,0,0,1-.3.8l-.3.4h-.1l-.4.6c-.2.3-.4.4-.4.6a.5.5,0,0,0,.3.4c.1.1.2.1.2.3l-.3.2h-.3v.2h-.2a1.2,1.2,0,0,1,.2-.8l-.6-.7H18a.5.5,0,0,1-.1-.3H18c.1,0,0-.1,0-.1a1,1,0,0,1,0-.3h.2c.1,0,0-.1.1-.1V7.2h1.1a.4.4,0,0,0,.4-.2.4.4,0,0,0,0-.4h-.1a.3.3,0,0,1-.1.2h-.8l.3-.2h.2s.1.1.1,0a.4.4,0,0,0,0-.3h-.5a.3.3,0,0,0-.2-.2h-1s0-.1.1-.2h.3a.2.2,0,0,0,0-.1s0,0,0-.1h-.1a.1.1,0,0,0,0-.1H17V3.9h0V3.6h-.4v.2h0v.4H15.5a.1.1,0,0,0,0,.1h-.1s0,0,0,.1a.2.2,0,0,0,0,.1h.3c.1.1.1.2.1.2h-1a.3.3,0,0,0-.2.2h-.5a.4.4,0,0,0,0,.3c0,.1.1,0,.1,0h.2l.3.2h-.8a.3.3,0,0,1-.1-.2h-.1a.4.4,0,0,0,0,.4.4.4,0,0,0,.4.2h1.1v.3c0,.1,0,.1.1.1h.2a1,1,0,0,1,0,.3c0,.1-.1.1,0,.1h.1a.5.5,0,0,1-.1.3h-.1l-.6.7a1.2,1.2,0,0,1,.2.8h-.2V9.6h-.3l-.3-.2c0-.1,0-.2.2-.3a.5.5,0,0,0,.3-.4c0-.2-.1-.3-.4-.6l-.4-.6h-.1l-.3-.4a2.6,2.6,0,0,1-.3-.8h-.1A6.5,6.5,0,0,1,12.9,5a1.1,1.1,0,0,0-.3.5,2.4,2.4,0,0,0-.1.9,1.8,1.8,0,0,0,.1.5c0,.1,0,0,0,0a2.7,2.7,0,0,1-.2-.7,3.5,3.5,0,0,1-.1-.8v.2a1.8,1.8,0,0,0-.1.9,3.2,3.2,0,0,0,.3,1.1c.1.2,0,.1,0,0l-.3-.5-.2-.7h-.1a1.2,1.2,0,0,0-.1.4,2.1,2.1,0,0,0,.1.7l.4.6c.1.1,0,.1,0,0L12,7.9a3.7,3.7,0,0,1-.5-.7h-.1a1.4,1.4,0,0,0,.1.6,1.9,1.9,0,0,0,.7.8c.2.1.1.1,0,0l-.4-.3L11.5,8c-.1,0-.1-.1-.1.1a1.2,1.2,0,0,0,.4.7l.5.3h-.4l-.4-.3c-.1-.1-.1,0,0,.1a.9.9,0,0,0,.4.5l.8.4h-.2l-.7-.3c-.1-.1-.1-.1-.1,0a.8.8,0,0,0,.4.5l.7.2H11.3s0,.1,0,.1h-.1s0,0,0,.1v.2h.2v.2h-.1c-.1,0,0,.1,0,.1l.2.2a3,3,0,0,1,.2.9,1.1,1.1,0,0,0,.4.7h0a.2.2,0,0,0,0,.1v.2h0a1,1,0,0,0,0,.3.9.9,0,0,0,.2.4h0v.2a.3.3,0,0,0,0,.2v.2h0v.2h.6a.7.7,0,0,1,0,.2c0,.1,0,.1,0,.1h.4s0-.1,0-.1,0-.1,0-.2h-.1a.2.2,0,0,0,0-.1h.2v-.2h.1l.2-.2h.2a.3.3,0,0,0,0,.2l.3-.2.4-.2h.1c.1.1.1,0,.3-.3l.5-.6h0v.2l-.2.3a.6.6,0,0,0-.1.4c0,.1.1.2.1.2l-.2.2V14h-.1l-.2.2-.3.2c-.1,0,0,.1,0,.1h.4c.1,0,0,.1,0,.1a.4.4,0,0,0-.1.2c0,.1.1.1.2.1h.2v.2h.4a.8.8,0,0,0,0,.2v.2h.1v.1a.9.9,0,0,0,.3.4.9.9,0,0,0,.3-.4v-.1h.1v-.2a.8.8,0,0,0,0-.2h.4v-.2h.2c.1,0,.2,0,.2-.1a.4.4,0,0,0-.1-.2s-.1-.1,0-.1h.4s0-.1,0-.1l-.3-.2-.2-.2H18v-.3l-.2-.2s.1,0,.1-.2a.6.6,0,0,0-.1-.4l-.2-.3v-.2h.1l.6.6c.2.3.3.4.3.3h.1l.4.2.3.2h.5l.3.2h.5l.9-.3.4-.2v-.2h-.1s0,0,0-.1h0s0,0,0-.1a.6.6,0,0,0-.3-.5h.1v-.2h-.1s0,0,0-.1h-.4v.2s0,.1,0,.1h-.4l-.2.3H20a.3.3,0,0,0,0,.3l.2.3s0,.1,0,.1H20l-.3-.3c-.1-.1,0-.1,0-.1h.1c.1,0,.1-.1,0-.1h-.2s0-.1,0-.1.2-.1.1-.1h-.3s0-.1,0-.1h-.3a.8.8,0,0,1-.5-.5h0c0,.1.2.3.3.3s.2-.1.2-.1v-.2h0a.6.6,0,0,0,.5.2h.7c.1,0,.3-.1.3-.2h-.3c-.1,0-.2-.1-.1-.1h.5a.3.3,0,0,0,.3-.3h-.4a.8.8,0,0,0,.6,0c.3-.1.3-.3.3-.4h-.7l.8-.2a.6.6,0,0,0,.3-.5H21l.7-.2a.8.8,0,0,0,.4-.5c0-.1,0-.1-.1,0l-.7.3H21m-9.2.6h0M15,12.1l-.4.3h-.3c-.1,0,0,.1,0,.1H14c-.1,0,0,.1.1.1s0,.1,0,.1h-.2c-.1,0,0,0,0,.1h-1v-.5l-.2-.2h0v-.2h0v-.4l-.3-.6a1.6,1.6,0,0,1-.2-.5.7.7,0,0,1,0-.3H12l.8.2h-.7s0,.2.3.4a.8.8,0,0,0,.6,0h-.4a.3.3,0,0,0,.3.3h.2c0,.1.3.2.3.2h.7a.6.6,0,0,0,.5-.2h0V12c0,.1,0,.1.2.1s.3-.2.3-.3h0v.2m2.7-7.3h.2V5a.6.6,0,0,1,0,.2.2.2,0,0,0,0,.1h-.2s0-.1,0-.1a.2.2,0,0,0,.1-.2.7.7,0,0,0-.1-.4m-.7.4a.5.5,0,0,0,0-.3V4.5h.2a.5.5,0,0,1,.2.3v.2a.2.2,0,0,0,0,.1H17m-.7-.5h.2v.4a.5.5,0,0,0,0,.3h-.3V5a.5.5,0,0,1,.2-.3m-.5.7h-.2a.2.2,0,0,0,0-.1.6.6,0,0,1,0-.2V4.8h.2a.7.7,0,0,0-.1.4.2.2,0,0,0,.1.2h0m1.8,1.3h-.1l-.2.2h-.2s0,0,0,.1h.1l-.2.2h-.2c-.1,0,0,.1,0,.2h.1s0,0,0,.1l-.2.2h0l-.2-.2c0-.1,0-.1,0-.1h.1s0-.1,0-.2h-.2l-.2-.2h.1c0-.1,0-.1,0-.1h-.2L16,6.9h-.1l-.2-.2.2-.2h1.7l.2.2-.2.2" fill="#ac6a32"/><path d="M14.9,6.9H14l-.2-.2a.2.2,0,0,0,0,.3h1.2c.1,0,.1-.1,0-.1" fill="#b41630"/><path d="M19.8,6.6l-.2.2h-1c-.1,0,0,.1,0,.1h1.2a.2.2,0,0,0,0-.3" fill="#b41630"/><path d="M18.5,9.7a1.2,1.2,0,0,1,.2-.7l-.5-.6a1.6,1.6,0,0,1-1.4,0,1.6,1.6,0,0,1-1.4,0l-.5.6a1.2,1.2,0,0,1,.2.7,3.7,3.7,0,0,1-.1.9,1.6,1.6,0,0,0,0,.8,1.1,1.1,0,0,0,.7.7l.9.4.2.2.2-.2.9-.4a1.1,1.1,0,0,0,.7-.7,1.6,1.6,0,0,0,0-.8,3.7,3.7,0,0,1-.1-.9" fill="#cbae43"/><path d="M14.5,13h-.3l-.2.2H12.7a.2.2,0,0,0,0,.3h.2a.2.2,0,0,0,0-.2h.5c.1,0,0,0,0,0h-.2s0-.1,0-.1h.1a.2.2,0,0,1,0,.1h.3v-.2l.3-.2h.3v-.2h0" fill="#cbae43"/><path d="M14.3,13h0" fill="#cbae43"/><path d="M15,12.9h-.3v-.2h-.7c-.1,0-.1,0,0,.1h.5v.2a.8.8,0,0,0,0,.3h0l.3-.2.3-.2h0v-.2" fill="#cbae43"/><path d="M15.8,12.3h0l-.2.2h0v-.2h0l-.3-.2h-.1l-.2-.2-.2.3-.5.3s-.1,0,0,0H15s.1,0,0,0h-.4c-.1,0-.2,0-.1,0h.6a.4.4,0,0,0-.1.2,1,1,0,0,0,0,.2h.1V13h.1v.2c0,.1,0,.2,0,.1l.3-.4h.2l.2-.2h-.2" fill="#cbae43"/><path d="M11.8,10h-.4s0,0,0,.1h.1v.2h.1v-.2h.2" fill="#cbae43"/><path d="M12.7,13.9h-.1s0-.1,0-.1h-.1a.2.2,0,0,0,.1.2h.1" fill="#cbae43"/><path d="M12.8,13.9h.1s0,0,0,0h-.1" fill="#cbae43"/><path d="M12.9,14.3h0" fill="#cbae43"/><path d="M13.4,14.3s0-.1,0-.1h0" fill="#cbae43"/><path d="M13.4,14.1h.1s0-.1,0-.1h-.1s0,0,0,0" fill="#cbae43"/><path d="M13.3,13.9h0" fill="#cbae43"/><path d="M13,14h0" fill="#cbae43"/><path d="M13.1,13.7h0" fill="#cbae43"/><path d="M12.4,12.3s.1,0,0-.2a1.6,1.6,0,0,0-.3-.6l-.2-.5a1.5,1.5,0,0,1-.1-.4h0s0,0,0,0h-.2v.8a2,2,0,0,0,.2.6c0,.1.2.3.3.3" fill="#cbae43"/><path d="M12.5,12.7c-.1,0-.1.3,0,.4l.2.3h.2s0-.1,0-.2v-.3h-.2" fill="#cbae43"/><path d="M12.6,12.5h-.2c-.1.1,0,.2.1.2h.1" fill="#cbae43"/><path d="M13.7,14.6h-.4s0,.1,0,.1a.5.5,0,0,1,0,.2h.4s0,0,0,0" fill="#cbae43"/><path d="M13.5,14.8h0" fill="#cbae43"/><path d="M12.9,7.1a1.5,1.5,0,0,0,.2.5v.2h-.1L13,7.3,12.8,7h-.1a.6.6,0,0,0,0,.5l.3.4V8H13l-.2-.3-.2-.3h0s-.1.1,0,.2a.7.7,0,0,0,.2.4l.2.2h-.2l-.3-.3s-.1,0-.1.2.2.3.3.4l.2.2h-.1l-.3-.2s-.1,0,0,.2a.7.7,0,0,0,.3.4l.2.2h-.5a.3.3,0,0,0,.1.3l.3.2h-.3s0,.1.1.2h.1v.2h.2s0,.1.1.2h1s0,.1.1.1h.5a1.1,1.1,0,0,1,0-.3h-.1v-.2h-.4a.3.3,0,0,1-.1-.2h-.3v-.2h-.2V9.8h-.2a.2.2,0,0,1-.1-.2h0A.2.2,0,0,1,13,9c0-.2.1-.2.1-.2H13l-.2-.2V8.5h0a.2.2,0,0,1,0-.2h.3s0,0,0-.1a.2.2,0,0,1,0-.2h.4s0,0,0-.1l-.2-.3L13.3,7a2.5,2.5,0,0,1-.2-.5h0v.2a1,1,0,0,0-.1.4" fill="#cbae43"/><path d="M15,9.8h-.6a.3.3,0,0,1-.3-.2.3.3,0,0,1,.2-.4c.2-.1.3-.2.3-.4s-.2-.4-.4-.6l-.3-.5h-.1c0,.1,0,.2,0,.2h-.4c-.1.1,0,.2.1.3H13c0,.1.1.2.2.2H13c-.1,0-.1.1-.1.2h.2A.1.1,0,0,0,13,9l.3.2h-.1a.1.1,0,0,0,.1.2h.2c-.1,0-.1.1,0,.2h.2c0,.1,0,.2.1.2h.4s0,.1,0,.1a.2.2,0,0,0,.1.3.3.3,0,0,0,.3-.1h.1s0,0,0,.1a.1.1,0,0,0,0,.2h.2v-.3h0V9.8Z" fill="#cbae43"/><path d="M12,7.7a1.6,1.6,0,0,0,.4.5h0a.3.3,0,0,1,0-.1l-.2-.2L12,7.3l.2.4.2.2h0l-.3-.4-.2-.7c0-.1-.1-.1-.1,0a1.1,1.1,0,0,0,0,.4,2.2,2.2,0,0,0,.2.8" fill="#cbae43"/><path d="M12.2,8.5h0L12,8.1H12l.3.3h-.1l-.5-.6-.2-.4a1.3,1.3,0,0,0,.2.8,1.6,1.6,0,0,0,.5.6" fill="#cbae43"/><path d="M13.4,10.8a.1.1,0,0,0,.1-.2H12.2s-.1,0,0,.2a.8.8,0,0,0,.6.2l.5-.2" fill="#cbae43"/><path d="M12.8,10.5h.3a.2.2,0,0,1,0-.1h-.4c-.1,0-.1,0,0,0H13c.1,0,0,0,0,0H11.8v.2l.4.3h.5" fill="#cbae43"/><path d="M12.8,10H12l-.5-.2h0v.2l.5.3h.6" fill="#cbae43"/><path d="M11.9,9.3l.6.3s0-.1,0-.1h.1c.1,0,0,0,0,0h-.1c.1,0,0,0,0,0h-.3l-.4-.2h-.1l-.2-.2h0V9l.4.3" fill="#cbae43"/><path d="M11.8,8.8l.5.3h-.2l-.3-.2c-.1-.1,0,0,0,0h.2l.3.2h-.1l-.4-.3L11.5,8h0a.4.4,0,0,0,0,.2,1.1,1.1,0,0,0,.4.6" fill="#cbae43"/><path d="M12.8,6.9h.1a.1.1,0,0,0,0-.1.4.4,0,0,1,0-.1h0V6.4a2.5,2.5,0,0,1,0-.4c0-.1,0-.1,0,0a2.3,2.3,0,0,0,0,.3v.4h0V6.5h0V5a1.5,1.5,0,0,0-.2.8,2.8,2.8,0,0,0,0,.6v.4" fill="#cbae43"/><path d="M12.5,7.5c0-.1,0-.2.1-.2V6.8c0-.2-.1-.5,0-.1a1.6,1.6,0,0,0,.2.5v.2a.7.7,0,0,1,0-.2V6.9l-.2-.5a3.4,3.4,0,0,1-.1-.7V5.5s-.1.1-.2.6a2.8,2.8,0,0,0,.1,1.1l.2.4" fill="#cbae43"/><path d="M13.8,11.2h-.1c-.1,0,0-.2,0-.2h-.3s0,0,0,0h.1l.2-.2h-.2l-.3.2h-.5a.3.3,0,0,0,.2.2h.5l.5-.2" fill="#cbae43"/><path d="M14.2,11.4a.2.2,0,0,0,0-.2h-.1l-.2.2h0l.3-.2h0l-.4.2-.5.2a.6.6,0,0,0,.5.1c.4,0,.5-.2.5-.3" fill="#cbae43"/><path d="M14.8,11.3h-.3l-.2.2h0l.2-.2s0,0,0,0h-.3l-.2.2s0,.1,0,.1h.5l.2-.2a.6.6,0,0,0,.2-.4" fill="#cbae43"/><path d="M14.9,11.7h0v.1c-.1.1-.2.2-.1.2h.2v-.2h-.1" fill="#cbae43"/><path d="M20.9,8.9a.7.7,0,0,0,.3-.4c0-.2,0-.2,0-.2l-.3.2h-.1l.2-.2c.1-.1.3-.3.3-.4s0-.2-.1-.2l-.3.3h-.2l.2-.2a.7.7,0,0,0,.2-.4c0-.1,0-.2,0-.2h0l-.2.3-.2.3h-.1V7.8l.3-.4a.6.6,0,0,0,0-.5h-.1l-.2.4-.2.3h-.1V7.5a1.4,1.4,0,0,0,.2-.5,1,1,0,0,0-.1-.4V6.5h0l-.2.5-.2.4-.2.3s0,.1,0,.1h.4a.3.3,0,0,1,0,.2s0,0,0,.1h.3a.2.2,0,0,1,0,.2h0v.2l-.2.2h-.1s.1,0,.1.2a.2.2,0,0,1-.1.2h0a.2.2,0,0,1-.1.2h-.2v.2h-.2v.2h-.3a.3.3,0,0,1-.1.2H19v.2h-.1a1.1,1.1,0,0,1,0,.3h.5c.1,0,.1-.1.1-.1h1c.1-.1.1-.1.1-.2h.2V9.9h.1V9.5h-.3l.3-.2a.4.4,0,0,0,.1-.3h-.5l.2-.2" fill="#cbae43"/><path d="M20.5,8.5h-.2c.1,0,.2-.1.2-.2h-.4c.1-.1.1-.2.1-.3h-.4s0-.1,0-.2h-.1l-.3.5c-.2.2-.4.4-.4.6s.1.3.3.4.2.2.2.4a.3.3,0,0,1-.3.2h-.6v.5h0v.3h.2a.1.1,0,0,0,0-.2s0,0,0-.1H19a.3.3,0,0,0,.3.1.2.2,0,0,0,.1-.2s-.1-.1,0-.1h.4c.1-.1.1-.2.1-.2H20c.1-.1.1-.1,0-.2h.3a.1.1,0,0,0,.1-.2h-.1l.3-.2a.1.1,0,0,0-.1-.2h.2c.1-.1,0-.2-.1-.2" fill="#cbae43"/><path d="M21.2,8.1a1.6,1.6,0,0,0,.4-.5,2.2,2.2,0,0,0,.2-.8,1.1,1.1,0,0,0,0-.4c0-.1,0-.2-.1,0l-.2.7-.2.4h0l.2-.2.2-.4-.2.4-.2.2a.4.4,0,0,1,0,.1h0" fill="#cbae43"/><path d="M22,7.2l-.2.4-.5.6h-.1l.3-.3h.1l-.2.2h0a1.5,1.5,0,0,0,.5-.6,1.3,1.3,0,0,0,.2-.8" fill="#cbae43"/><path d="M20.9,5.9a1.4,1.4,0,0,0-.2-.8V6.4h0v.2h0V6c0-.1,0-.1,0,0a2.5,2.5,0,0,1,0,.4v.3h0a.5.5,0,0,1,0,.1.1.1,0,0,0,0,.1h.1a1.4,1.4,0,0,0,.1-.4,2.9,2.9,0,0,0,0-.6" fill="#cbae43"/><path d="M21.2,7.2A2.8,2.8,0,0,0,21.4,6c0-.5-.2-.6-.2-.6v.2a3.2,3.2,0,0,1-.1.7l-.2.5v.3a.8.8,0,0,1,0,.2V7.2a1.7,1.7,0,0,0,.2-.5c.1-.4,0-.2,0,.1v.5c.1,0,.1.1.1.2l.2-.4" fill="#cbae43"/><path d="M21.3,10.6H20.1a.1.1,0,0,0,.1.2l.5.2a.8.8,0,0,0,.6-.2c.1-.1.1-.2,0-.1" fill="#cbae43"/><path d="M21.7,10H20.6s-.1,0,0,0h.3c.1,0,.1,0,0,0h.3l.4-.3V10h0" fill="#cbae43"/><path d="M22,9.3l-.5.2h-.1l.5-.3V9.4h0" fill="#cbae43"/><path d="M22.1,8.7l-.2.2h-.1l-.4.2H21s-.1.1,0,0h-.1s-.1,0,0,0H21s0,.1,0,.1l.6-.3L22,9V8.7h0" fill="#cbae43"/><path d="M21.1,8.9h0l.3-.2h.2s.1,0,0,0l-.3.2h-.2l.5-.3a1.1,1.1,0,0,0,.4-.6.4.4,0,0,0,0-.2h0l-.4.4-.4.3h-.2" fill="#cbae43"/><path d="M20.1,10.8h-.2l.2.2h.1s0,0,0,0h-.3s0,.1,0,.2h-.1l.5.2h.5a.3.3,0,0,0,.2-.2h-.5l-.3-.2" fill="#cbae43"/><path d="M19.5,11.2h0l.3.2h0l-.2-.2h-.1a.3.3,0,0,0,0,.2c0,.1.2.3.5.3a.6.6,0,0,0,.5-.1l-.5-.2-.4-.2" fill="#cbae43"/><path d="M19.4,11.6h-.3s-.1,0,0,0l.2.2h-.1l-.2-.2h-.3a.6.6,0,0,0,.2.4l.2.2h.5s0,0,0-.1l-.2-.2" fill="#cbae43"/><path d="M18.7,11.4v.2h-.1V12h.2s0-.1-.1-.2v-.3" fill="#cbae43"/><path d="M18.6,6.4h0" fill="#cbae43"/><path d="M17.8,6.4h1.1s0-.1-.1-.2H17.6a.3.3,0,0,0,.1.3" fill="#cbae43"/><path d="M19.3,6.3h-.5a.2.2,0,0,1-.1.2H17.6s0,0,0,.1l-.3.2h-.1l-.3.3h-.2s-.1,0,0,.1h.4l.3-.2s0,.2,0,.4a1.4,1.4,0,0,0,0,.3h0l.2-.2V7.9H18V7.7a.8.8,0,0,1,.1-.3h.2a.6.6,0,0,1,.2-.4h.4l.2-.2h-.3c-.1,0-.2-.1-.1-.2l.2-.2.4-.2h.2s.1.1.1,0a.3.3,0,0,0-.1-.3" fill="#cbae43"/><path d="M17.9,8.3h-.1v.2h.2" fill="#cbae43"/><path d="M17.4,8v.2h-.1V8H17v.2s0,.1,0,.1h.6V8.3a1.5,1.5,0,0,1,0-.4" fill="#cbae43"/><path d="M14.9,6.4h0" fill="#cbae43"/><path d="M14.7,6.3h1a.3.3,0,0,0,.1-.3H14.8c-.1.1-.1.1-.1.2h0" fill="#cbae43"/><path d="M16.6,7.8h-.2l-.3-.3h-.1l-.3-.2H14.8a.2.2,0,0,1-.1-.2h-.5a.3.3,0,0,0-.1.3c0,.1.1.1.1,0h.2l.4.2.2.2c.1.1,0,.1-.1.2h-.3l.2.2h.4a.6.6,0,0,1,.2.4h.2a.8.8,0,0,1,.1.3v.2h.2v.3l.2.2h0a1.3,1.3,0,0,0,0-.3c0-.1,0-.4,0-.4l.3.2h.4c.1-.1,0-.1,0-.1" fill="#cbae43"/><path d="M15.7,8.2h.1V8.3h0" fill="#cbae43"/><path d="M16.5,8.1h-.4v.2h-.1V8a1.5,1.5,0,0,1,0,.4v.2h.6s0,0,0,0V8.1" fill="#cbae43"/><path d="M15.8,13.4H16v-.2h.1v.2a.6.6,0,0,0,0,.3h.4s0,.1,0,.1v.3c0,.1,0,.2.1.2s.1-.1.2-.2v-.2s0,.1,0,.1h0V14h.1a.9.9,0,0,0,.1-.3s0-.1,0-.1v.2c0,.2.1.2.2.2s.1-.1.1-.2v-.3h.4a1.8,1.8,0,0,0-.1-.4h0v.2h.2s.1-.1,0-.2-.2-.2-.3-.4l-.2-.3-.3.2-.2.3-.2-.3-.3-.2-.2.3v.4c0,.1,0,.2,0,.2" fill="#cbae43"/><path d="M15.8,14h.1a1.1,1.1,0,0,0,0,.3h.3a.8.8,0,0,0,0,.3c0,.1.1.1.1,0v-.2h.1c0,.2,0,.5.3.6s.3-.4.3-.6h.1v.2c.1.1.1.1.1,0a1,1,0,0,0,0-.3h.3a1,1,0,0,0,0-.3h.3a.5.5,0,0,0,0-.3v-.2h0s.1.1,0,0h-.3V14h0v-.2h-.1V14h0v.2h0V14H17V14h-.1v.2h0s0-.2,0-.2h-.1v-.2h-.2v.2h0V14h0v-.2h-.1V14h0v-.2h-.3c-.1,0,0,0,0,0h0v.2a.5.5,0,0,0,0,.3h.1" fill="#cbae43"/><path d="M15.6,14.6h.2l.2-.2h-.1v-.2a.3.3,0,0,0,0-.1h-.3v.2l-.3.2-.3.2c-.1,0,0,.1,0,.1h.6" fill="#cbae43"/><path d="M16.2,14.6h-.1a2.1,2.1,0,0,1,0-.2h-.7V15c0,.1,0,.1.1.1h.2l.4-.2.2-.2" fill="#cbae43"/><path d="M16.6,14.7h-.1v-.2h-.2l-.2.2-.3.2a.2.2,0,0,0,0,.2h.1l.5-.2a.7.7,0,0,0,.3-.4" fill="#cbae43"/><path d="M16.7,15.2a.9.9,0,0,0,.1-.3h-.1V15l-.3.2a.4.4,0,0,0,0,.3h.3l.3-.3" fill="#cbae43"/><path d="M18.5,14.6l-.3-.2-.3-.2V14h-.3a.3.3,0,0,0,0,.1v.2h-.1l.2.2h.8s0,0,0-.1" fill="#cbae43"/><path d="M18.1,14.8h-.7a1.7,1.7,0,0,1,0,.2h-.1l.2.2.4.2h.2c.1,0,.1,0,.1-.1v-.2" fill="#cbae43"/><path d="M17.6,14.9l-.2-.2h-.2v.2H17a.7.7,0,0,0,.3.4l.5.2h.1a.2.2,0,0,0,0-.2l-.3-.2" fill="#cbae43"/><path d="M17.2,15v-.3h-.1a.9.9,0,0,0,.1.3l.3.3h.3a.4.4,0,0,0,0-.3l-.3-.2" fill="#cbae43"/><path d="M16.8,15.3h-.1l-.2.2a.7.7,0,0,0,.1.3l.2.2.2-.2a.7.7,0,0,0,.1-.3l-.2-.2" fill="#cbae43"/><path d="M21.5,13.2h0" fill="#355d8e"/><path d="M21.6,12.7a.6.6,0,0,0-.3-.4v.3c0,.1,0,.1,0,.1h.3s.1,0,.1,0" fill="#355d8e"/><path d="M20.8,12.6h.1v-.3h-.3l-.2.2h.4" fill="#355d8e"/><path d="M20.3,13h-.1v.2h0" fill="#355d8e"/><path d="M18.3,9.9a1.2,1.2,0,0,1,.2-.7L18,8.6a1.4,1.4,0,0,1-1.2,0,1.4,1.4,0,0,1-1.2,0l-.4.5a1.2,1.2,0,0,1,.2.7,6.7,6.7,0,0,0-.2,1.3,1.2,1.2,0,0,0,.4.7l.7.4.5.3h.3l.5-.3.7-.4a1.3,1.3,0,0,0,.4-.7,6.8,6.8,0,0,0-.2-1.3" fill="#ac6a32"/><path d="M17.4,7.6h.1a0,0,0,0,0,0-.1h-.1" fill="#ac6a32"/><path d="M17.7,7.8v.3h0V7.8h-.1" fill="#ac6a32"/><path d="M18.2,7h-.2s0-.1,0-.1V6.9h0V7a1.2,1.2,0,0,0-.1.3h.4" fill="#ac6a32"/><path d="M16.2,7.6h-.1a0,0,0,0,0,0,.1h.1" fill="#ac6a32"/><path d="M15.9,8.1V7.8h-.1v.4h0" fill="#ac6a32"/><path d="M15.5,6.8h0V7c0,.1,0,.1,0,.1h.1a1.2,1.2,0,0,0-.1-.3V6.8" fill="#ac6a32"/><path d="M16.8,13.7h0v-.2h0v.2h0" fill="#ac6a32"/><path d="M17.6,13.3h0v-.2h-.1v.2" fill="#ac6a32"/><path d="M17.3,13.3v0h0" fill="#ac6a32"/><path d="M17,13.5h0" fill="#ac6a32"/><path d="M15.9,13.3v-.2H16v.2h0" fill="#ac6a32"/><path d="M16.2,13.3h0v0" fill="#ac6a32"/><path d="M16.5,13.5h0" fill="#ac6a32"/><path d="M15.7,14.3h0" fill="#ac6a32"/><path d="M16,14.6h-.3s0,0,0,0H16" fill="#ac6a32"/><path d="M16.3,14.9h0" fill="#ac6a32"/><path d="M16.4,15.2l-.2.2h.3a.1.1,0,0,0,0-.1h-.1" fill="#ac6a32"/><path d="M18.1,14.5h0" fill="#ac6a32"/><path d="M17.9,14.8h0s0,0,0,0" fill="#ac6a32"/><path d="M17.6,15h0" fill="#ac6a32"/><path d="M17.1,15.2H17a.1.1,0,0,0,0,.1h.3l-.2-.2" fill="#ac6a32"/><path d="M16.7,15.5s0,.1,0,.1,0-.1,0-.1h-.1" fill="#ac6a32"/><path d="M18.2,9.9a1.4,1.4,0,0,1,.1-.8L18,8.7a1.5,1.5,0,0,1-1.2,0,1.5,1.5,0,0,1-1.2,0l-.4.4a1.3,1.3,0,0,1,.1.8,7.2,7.2,0,0,0-.1,1.2h.8v-.2h-.1a.3.3,0,0,1,0-.1h0s-.2,0-.3-.1V9.8h-.2c0-.1-.1-.1,0-.2h.1s0,0,0-.1a.2.2,0,0,1,0-.1h.1s0-.1,0-.1h.2v.5h.2s0-.1,0-.1h-.2a.1.1,0,0,1,0-.1h1s0,0,0,0H17s.1.1,0,.1h-.1s0,0,0,0h.6c-.1,0-.3-.1-.3-.2a.2.2,0,0,1,.1-.2h.8l-.2.2h-.5a.1.1,0,0,0-.1.1h.4c.1,0,.3,0,.4.1a.2.2,0,0,1-.1.3h-.3s0,.1,0,.1h.3v.2c0,.1,0,.2,0,.2h0v.2h.4a7.6,7.6,0,0,0-.1-1.2" fill="#355d8e"/><path d="M15.2,11.4a1.1,1.1,0,0,0,.5.6l.8.4.3.2.3-.2.8-.4a1.1,1.1,0,0,0,.5-.6Z" fill="#718c42"/><path d="M15.5,9.7h.2a.9.9,0,0,0,.1.2h.2V10h-.1V9.6a.7.7,0,0,1,0-.2s0-.1,0-.1h0s0,0,0,0h-.1s0,0,0,0h-.1a.1.1,0,0,1,0,.1h-.1s0,0,0,.1" fill="#cbae43"/><path d="M15.5,9.6h0Z" fill="#cbae43"/><path d="M15.5,9.3h0" fill="#cbae43"/><path d="M15.6,9.2h0" fill="#cbae43"/><path d="M15.8,9.3h0" fill="#cbae43"/><path d="M16,10.2h.2c.1-.1.1,0,.1,0a.3.3,0,0,0,0,.2h.5s0-.1,0-.1h-.1s0-.1,0-.1h.1a.1.1,0,0,0,0-.1h-.2a0,0,0,0,0,0,0h-.1s0,0,0,0h-.3v.2h.2s0,0,0,.1h.2s0,0,0,.1h-.2s0-.1,0-.1H16" fill="#cbae43"/><path d="M16.6,9.1h0" fill="#cbae43"/><path d="M16.8,9.3h0" fill="#cbae43"/><path d="M16.8,9.3h0" fill="#cbae43"/><path d="M16.2,9.5H16a.1.1,0,0,0,0,.1h.2" fill="#cbae43"/><path d="M15.8,11.2h.2v-.4H16V11h0" fill="#cbae43"/><path d="M15.6,11.1h0" fill="#cbae43"/><path d="M15.7,11.1h0" fill="#cbae43"/><path d="M16.7,11.1h0" fill="#cbae43"/><path d="M16.8,11.1h0" fill="#cbae43"/><path d="M17.3,10.6H17v.2h.1a.1.1,0,0,1,0,.1h-.3s0,0,0,0h.1s0,0,0,.1h.4" fill="#cbae43"/><path d="M16.9,10.1h-1a.1.1,0,0,0,0,.1h.6s0,.1,0,.1h.7c.1,0,0,0,0,.1a.8.8,0,0,0,0,.1h.5V11h0a1.6,1.6,0,0,0,0-.2s0,0,0-.1h-.3v-.2H17c-.1,0,0,0,0,0" fill="#cbae43"/><path d="M17.5,11.2h0" fill="#cbae43"/><path d="M17.7,11.1h0" fill="#cbae43"/><path d="M15.2,11.2h0Z" fill="#cbae43"/><path d="M17.3,9.7h.6c.2,0,.1.1.1.2h.1a.2.2,0,0,0,0-.2h-.9c0,.1,0,.2.1.2" fill="#cbae43"/><path d="M16.5,9.2h0" fill="#ac6a32"/><path d="M17.8,9.3h0" fill="#ac6a32"/><path d="M20.3,12.9h.9V13h.3v-.2h-.4s0,0,0-.1v-.4H21v.4h-.6v.2h.1" fill="#cbae43"/><path d="M21.7,13.2h-.1v.2h-.3c-.1,0-.2,0-.1-.1l.2-.2a.1.1,0,0,0,0-.2H21v.2h-.4l-.2-.2v-.4H20a.2.2,0,0,0,.1.2v.2c0,.1.1.2,0,.2H20l-.4-.3h-.5v.2h0l.4.2.4.2h.4l.7-.2.6-.2.2-.2a.1.1,0,0,0-.1-.2" fill="#cbae43"/><path d="M21,11.9h.1c.1,0,0,.1,0,.1H21s0,.1,0,.1h.1V12h.1s0,0,0,0h.1s0,0,0,0H21" fill="#cbae43"/><path d="M18.9,12.9h.5c.1,0,0,0,0-.1h-.7v.2h-.3v.2h0l.3.2.3.2h0a.8.8,0,0,0,0-.3v-.2" fill="#cbae43"/><path d="M18.5,12.6H19c.1-.1,0,0-.1,0h-.4c-.1,0,0,0,0,0h.5c.1,0,0,0,0,0l-.5-.3-.2-.3-.2.2h-.1l-.3.2h0v.2h0l-.2-.2h-.2l.2.2H18l.3.4c.1.1,0,0,0-.1v-.2h.1v.3h.1a1.1,1.1,0,0,0,0-.2.4.4,0,0,0-.1-.2h.1" fill="#cbae43"/><path d="M19.4,12.9h0" fill="#cbae43"/><path d="M21.2,12.8h0s0,.1,0,.1h.1s0,0,0-.1h-.1Z" fill="#cbae43"/><path d="M21.6,13.1h0" fill="#cbae43"/><path d="M20.1,12.8h0c0,.1,0,.1,0,.1" fill="#cbae43"/><path d="M14.2,10.9h0" fill="#ac6a32"/><path d="M14.6,11.1h0" fill="#ac6a32"/><path d="M12.9,8.1h0" fill="#ac6a32"/><path d="M12.8,8.4h0" fill="#ac6a32"/><path d="M12.8,8.8h0" fill="#ac6a32"/><path d="M12.9,9.2h0" fill="#ac6a32"/><path d="M13,9.6h0" fill="#ac6a32"/><path d="M13.4,10h0" fill="#ac6a32"/><path d="M13.6,10.3h0" fill="#ac6a32"/><path d="M14,10.6h0" fill="#ac6a32"/><path d="M13.4,7.5h.1c.1.1,0,0,0,0V7.4h.1" fill="#ac6a32"/><path d="M13.2,7.9h0" fill="#ac6a32"/><path d="M13.4,8.7h0" fill="#ac6a32"/><path d="M13.2,8.3h0s-.1,0,0,0" fill="#ac6a32"/><path d="M13.6,8h0" fill="#ac6a32"/><path d="M13.4,9h0" fill="#ac6a32"/><path d="M13.4,9.4h0" fill="#ac6a32"/><path d="M13.9,9.7h0" fill="#ac6a32"/><path d="M14.2,10h0" fill="#ac6a32"/><path d="M14.5,10.3h0" fill="#ac6a32"/><path d="M19.5,10.9h0" fill="#ac6a32"/><path d="M19.1,11.2h0" fill="#ac6a32"/><path d="M20.6,8.1h0" fill="#ac6a32"/><path d="M20.7,8.4h0" fill="#ac6a32"/><path d="M20.9,8.7h0" fill="#ac6a32"/><path d="M20.7,9.2h0" fill="#ac6a32"/><path d="M20.6,9.6h0" fill="#ac6a32"/><path d="M20.4,10h0" fill="#ac6a32"/><path d="M20.1,10.4h0" fill="#ac6a32"/><path d="M19.7,10.7h0" fill="#ac6a32"/><path d="M20.1,7.6h.1v.2s0,.1,0,0" fill="#ac6a32"/><path d="M20.5,7.7h0" fill="#ac6a32"/><path d="M20.1,8.7h0" fill="#ac6a32"/><path d="M20.3,8.3h0s0,0,0,0" fill="#ac6a32"/><path d="M19.9,8.1h0" fill="#ac6a32"/><path d="M20.1,9.1h0" fill="#ac6a32"/><path d="M20.1,9.4h0" fill="#ac6a32"/><path d="M19.8,9.7h0" fill="#ac6a32"/><path d="M19.5,10h0" fill="#ac6a32"/><path d="M19.1,10.3h0" fill="#ac6a32"/><path d="M16.8,6.2h0" fill="#cbae43"/><path d="M17.6,6h-.1s0,0,0-.1H16.1s0,.1,0,.1h-.2s0,0,0,0h1.7s0,0,0,0" fill="#cbae43"/><polygon points="15.9 5.8 15.8 5.9 15.9 5.9 16 5.8 15.9 5.8" fill="#cbae43"/><polygon points="17.7 5.8 17.5 5.8 17.7 5.9 17.8 5.9 17.7 5.8" fill="#cbae43"/><path d="M17.3,6.1h0" fill="#cbae43"/><path d="M17,10.8h-.1v-.2h-.7V11H17a0,0,0,0,0,0-.1h0" fill="#355d8e"/><path d="M17.8,10.8h-.5v.2h.6a.2.2,0,0,0,0-.1" fill="#355d8e"/><polygon points="16.7 3.8 16.8 3.8 16.8 3.7 17 3.8 17 3.6 16.8 3.7 16.9 3.5 16.7 3.5 16.7 3.7 16.6 3.6 16.6 3.8 16.7 3.7 16.7 3.8" fill="#cbae43"/><path d="M17,4h0" fill="#cbae43"/><path d="M16.8,4.3h0" fill="#355d8e"/><path d="M16.9,3.9h0" fill="#355d8e"/><path d="M16.7,3.9h0Z" fill="#355d8e"/><path d="M16.9,5.7h0" fill="#ac6a32"/><path d="M17.2,5.7h0" fill="#ac6a32"/><path d="M16.3,5.7h0" fill="#ac6a32"/><polygon points="16.6 5.8 16.8 5.8 16.9 5.8 16.8 5.7 16.6 5.8" fill="#cbae43"/><path d="M17.2,5.7h0" fill="#cbae43"/><path d="M16.3,5.7h0" fill="#cbae43"/><path d="M16.1,5.4h.1s0-.1,0-.1h-.1" fill="#cbae43"/><path d="M16.1,5.4h0" fill="#cbae43"/><path d="M15.9,5.4h0" fill="#cbae43"/><path d="M16,5.6h.1s0-.1,0-.1H16" fill="#cbae43"/><path d="M15.7,5.5h0" fill="#cbae43"/><path d="M15.5,5.3h-.1a.2.2,0,0,0,0,.1h.1" fill="#cbae43"/><path d="M15.5,5.5h0" fill="#cbae43"/><path d="M15.6,5.2a.5.5,0,0,1,.1-.4l.3-.2h-.5V5h.2a.2.2,0,0,0,0-.2" fill="#cbae43"/><path d="M15.9,4.5a0,0,0,0,0,0-.1h-.1s0,0,0,.1h.1" fill="#cbae43"/><path d="M15.6,4.7a0,0,0,0,0,0-.1h-.1a0,0,0,0,0,0,.1h.1" fill="#cbae43"/><path d="M15.3,5h0" fill="#cbae43"/><path d="M16.5,4.3h-.3l-.3.3a.6.6,0,0,0-.1.4H16a.4.4,0,0,0,0-.1h.2V5a.6.6,0,0,1,.1-.3l.3-.2h0" fill="#cbae43"/><path d="M16.3,4.5h0" fill="#cbae43"/><path d="M16.6,5.5h.1a0,0,0,0,0,0-.1h-.1" fill="#cbae43"/><path d="M16.7,5.5h0" fill="#cbae43"/><path d="M16.2,5.5h0" fill="#cbae43"/><path d="M16.8,5.4a0,0,0,0,0,0,.1h0" fill="#cbae43"/><path d="M17.3,5.5h0" fill="#cbae43"/><path d="M17.3,5.4h0" fill="#cbae43"/><path d="M17.5,5.3h-.1s0,.1,0,.1h.1" fill="#cbae43"/><path d="M17.4,5.4h0" fill="#cbae43"/><path d="M17.5,5.5h0" fill="#cbae43"/><path d="M17.7,5.5h-.3s0,.1,0,.1h.2" fill="#cbae43"/><path d="M17.9,5.4h0" fill="#cbae43"/><path d="M18.1,5.3h.1a.2.2,0,0,0,0-.1h-.1" fill="#cbae43"/><path d="M18,5.5h0" fill="#cbae43"/><path d="M18.1,5h0V4.8h-.5l.3.2a.5.5,0,0,1,.1.4.2.2,0,0,0,0,.2h.1" fill="#cbae43"/><path d="M17.6,4.5h.1a0,0,0,0,0,0-.1h-.1a0,0,0,0,0,0,.1" fill="#cbae43"/><path d="M18,4.7h.1a0,0,0,0,0,0-.1H18a.1.1,0,0,0,0,.1" fill="#cbae43"/><path d="M18.2,5h0" fill="#cbae43"/><path d="M17,4.4H17l.3.2a.6.6,0,0,1,.1.3v.2h.2a.4.4,0,0,0,0,.1h.2a.6.6,0,0,0-.1-.4l-.3-.3H17" fill="#cbae43"/><path d="M16.8,5.2h0" fill="#cbae43"/><path d="M16.8,5.4h0" fill="#cbae43"/><path d="M16.7,5.3h.2V5.1a1,1,0,0,0,0-.4V4.3h-.3v.4a1,1,0,0,0,0,.4v.2" fill="#cbae43"/><path d="M17.2,4.4h0" fill="#cbae43"/><path d="M16,4.9h0" fill="#ac6a32"/><path d="M16.2,4.6H16a.1.1,0,0,0,0,.1h.1a.1.1,0,0,0,0-.1" fill="#ac6a32"/><path d="M16,4.9h0" fill="#cbae43"/><path d="M16.1,4.6h0c.1,0,.1-.1,0-.1" fill="#cbae43"/><path d="M16.8,4.9h0" fill="#ac6a32"/><path d="M16.8,4.6h0" fill="#ac6a32"/><path d="M16.8,4.4h0" fill="#ac6a32"/><path d="M17.6,4.9h0" fill="#ac6a32"/><path d="M17.5,4.6h-.1a.1.1,0,0,0,0,.1h.1a.1.1,0,0,0,0-.1" fill="#ac6a32"/><path d="M17.6,4.9h0" fill="#cbae43"/><path d="M17.4,4.6c-.1,0,0,.1,0,.1h0" fill="#cbae43"/><path d="M16.8,4.9h0" fill="#cbae43"/><path d="M16.8,4.6h0" fill="#cbae43"/><path d="M16.8,4.4h0" fill="#cbae43"/><path d="M20.4,12.6h0" fill="#ac6a32"/><path d="M20.7,12.7h0" fill="#ac6a32"/><path d="M21.4,12.8h0" fill="#ac6a32"/><path d="M20.9,12.7h0" fill="#ac6a32"/><path d="M21,12.5h0" fill="#ac6a32"/><path d="M21.1,12.3h0" fill="#ac6a32"/><path d="M20.4,12.6h0" fill="#cbae43"/><path d="M20.7,12.7h0" fill="#cbae43"/><path d="M21.5,12.9h0" fill="#cbae43"/><path d="M20.9,12.8h0" fill="#cbae43"/><path d="M21,12.5h0" fill="#cbae43"/><path d="M21.1,12.3h0" fill="#cbae43"/></g></g></svg>