<svg xmlns="http://www.w3.org/2000/svg" xmlns:xlink="http://www.w3.org/1999/xlink" viewBox="0 0 33.6 19.6"><defs><clipPath id="a" transform="translate(-565 -447.7)"><rect x="565" y="447.7" width="33.6" height="19.58" fill="none"/></clipPath><clipPath id="c" transform="translate(-565 -447.7)"><path d="M569.2,460a1.4,1.4,0,0,0,1.4,1.4v-2.8a1.4,1.4,0,0,0-1.4,1.4" fill="none"/></clipPath><clipPath id="d" transform="translate(-565 -447.7)"><rect x="570.6" y="449.1" width="5.6" height="16.78" fill="none"/></clipPath></defs><title>MNG</title><g clip-path=""><rect width="33.6" height="19.58" fill="#c9002a"/><rect x="11.2" width="11.2" height="19.58" fill="#63accc"/><g clip-path=""><path d="M570.6,453.3a1.5,1.5,0,0,1,1.5,1.5,1.5,1.5,0,0,1-1.5,1.5,1.5,1.5,0,0,1-1.5-1.5,1.4,1.4,0,0,1,1.5-1.5" transform="translate(-565 -447.7)" fill="#f5eb2e"/><path d="M570.6,452.4a1.7,1.7,0,1,1-1.7,1.7,1.8,1.8,0,0,1,1.7-1.7" transform="translate(-565 -447.7)" fill="#c9002a"/><path d="M570.6,453.3a1.1,1.1,0,1,1-1.1,1.1,1.1,1.1,0,0,1,1.1-1.1" transform="translate(-565 -447.7)" fill="#f5eb2e"/><path d="M570.6,450.8c-.2.1-.1.4-.1.5s-.1.2-.1.3,0,.3,0,.3v.2h.1l-.2.2c-.1,0-.1-.1-.1-.2h0c0-.1.1-.1.1-.2s-.1-.2-.1-.3a.1.1,0,0,1,0-.2l-.2.3v.2c0,.1-.2.1-.2.4a.7.7,0,0,0,1.4,0c0-.3-.2-.3-.2-.4v-.2l-.2-.3a.1.1,0,0,1,0,.2c0,.1-.1.1-.1.3s.1.1.1.2h0c0,.1,0,.2-.1.2h-.1c0-.1.1-.2.1-.3l-.2-.5-.2-.3h.1" transform="translate(-565 -447.7)" fill="#f5eb2e"/><rect x="2.5" y="9" width="1.4" height="6.71" fill="#f5eb2e"/><rect x="7.3" y="9" width="1.4" height="6.71" fill="#f5eb2e"/><polyline points="4.2 9 7 9 5.6 9.8" fill="#f5eb2e"/><rect x="4.2" y="10.1" width="2.8" height="0.56" fill="#f5eb2e"/><rect x="4.2" y="14" width="2.8" height="0.56" fill="#f5eb2e"/><polyline points="4.2 14.8 7 14.8 5.6 15.7" fill="#f5eb2e"/><path d="M570.6,458.6A1.4,1.4,0,0,1,572,460a1.4,1.4,0,1,1-2.8,0,1.4,1.4,0,0,1,1.4-1.4" transform="translate(-565 -447.7)" fill="#f5eb2e"/></g><g clip-path=""><g clip-path=""><path d="M570.6,458.4a.9.9,0,0,1,.8.8.8.8,0,1,1-1.6,0,.9.9,0,0,1,.8-.8" transform="translate(-565 -447.7)" fill="#c9002a"/><path d="M570.6,458.5a.8.8,0,0,1,.7.7.7.7,0,1,1-1.4,0,.8.8,0,0,1,.7-.7" transform="translate(-565 -447.7)" fill="#f5eb2e"/><path d="M570.6,458.9a.3.3,0,0,1,.3.3.3.3,0,0,1-.6,0,.3.3,0,0,1,.3-.3" transform="translate(-565 -447.7)" fill="#c9002a"/><path d="M570.6,459.9a.9.9,0,0,1,.8.8.8.8,0,1,1-1.6,0,.9.9,0,0,1,.8-.8" transform="translate(-565 -447.7)" fill="#c9002a"/><path d="M570.6,460a.7.7,0,1,1-.7.7.7.7,0,0,1,.7-.7" transform="translate(-565 -447.7)" fill="#f5eb2e"/><path d="M570.6,460.4a.3.3,0,0,1,.3.3.3.3,0,0,1-.6,0,.3.3,0,0,1,.3-.3" transform="translate(-565 -447.7)" fill="#c9002a"/></g></g></g></svg>