<svg xmlns="http://www.w3.org/2000/svg" xmlns:xlink="http://www.w3.org/1999/xlink" viewBox="0 0 33.6 19.6"><defs><clipPath id="a" transform="translate(-564.5 -447.6)"><rect x="564.5" y="447.6" width="33.6" height="19.58" fill="none"/></clipPath></defs><title>MOZ</title><g clip-path=""><rect width="33.6" height="19.58"/><rect width="33.6" height="6.73" fill="#fff"/><rect width="33.6" height="6.12" fill="#317267"/><rect y="12.8" width="33.6" height="6.74" fill="#fff"/><rect y="13.5" width="33.6" height="6.12" fill="#f5e129"/><polygon points="0 0 0 19.6 12.8 9.8 0 0" fill="#c0003b"/><polygon points="6.7 13.5 4.3 11.7 1.9 13.5 2.8 10.7 0.4 8.9 3.4 8.9 4.3 6.1 5.2 8.9 8.1 8.9 5.7 10.7 6.7 13.5" fill="#f5e129"/><g clip-path=""><path d="M566.7,459.1h1.7a.8.8,0,0,0,.8,0,2.8,2.8,0,0,1,1.6,0l.2-.3-.5-1.6-.2-.2a2.7,2.7,0,0,0-1.1-.2h-1l-.8.2c-.1,0-.2.2-.2.2Z" transform="translate(-564.5 -447.6)" fill="#fff"/><path d="M568.8,459.2h-2.1l.4-1.9.3-.2.8-.2h1a2.7,2.7,0,0,1,1.1.2l.2.2.5,1.6-.2.3a3.1,3.1,0,0,0-1-.2l-.6.2Zm-.4-.2.4.2h0l.4-.2h1.6l.2-.2-.5-1.6-.2-.2h0a2,2,0,0,0-1.1-.1h-1l-.8.2-.2.2-.5,1.9Z" transform="translate(-564.5 -447.6)"/><path d="M568.8,459.2h-.4l.4-.3a2.5,2.5,0,0,0-1.7-.1h0a4,4,0,0,1,1.7.2,2.6,2.6,0,0,1,1.6-.2h0a2.2,2.2,0,0,0-1.5.2l.3.2a.4.4,0,0,1-.4.2Zm0-.4-.4.3a.8.8,0,0,0,.8-.1l-.4-.2Z" transform="translate(-564.5 -447.6)"/><polygon points="4.3 11.2 4.3 9.4 4.3 9.4 4.3 11.2 4.3 11.2"/><polygon points="6.1 10.9 5.8 9.5 5.8 9.5 6.1 10.9 6.1 10.9"/><path d="M567.2,457.8h0l.2-.7h0l-.2.7Z" transform="translate(-564.5 -447.6)"/><path d="M565.6,459.2l.4.5c.1.1.1.1.1,0l.6-.7.3-.3h0l.5-.5h.1s-.1,0,0-.1h-.1l-.2.3h.1v.4h.2v-.5l.3-.3v-.2h.1s1,.6,1.3.5v-.5s-1.1-.1-1.1-.3a.2.2,0,0,1,.2-.2v-.2h0l.2.2.4-.4,2.4,2.8c.2-.1.2-.1.2-.3l-2.3-2.6v-.2c.1-.1.1-.1.1-.2l.3-.2h.1l.8-.6h.1l1.3-1.2-1.4,1h-.2s-.2-.1-.2-.2v.3l-.4.3h-.3l-.3.3v.2h.1l-.2.2h.1v-.2h0l-.3.2-.6-.8h0l-.4-.4c-.2-.1-.4-.1-.4.2h-.5l-1,1.3.5.7,1.1-1.4v-.4l.3.3h.2l.6.8h-.1c.1,0,.1,0,.1.1h0c-.1,0-.1-.1-.1-.2l-.4.3h0l-1.1.9h-.1v.2l.7-.5h.1l.5-.4h0l-.5.4h-.1l-.6.5h-.1l-.4.4h-.2Z" transform="translate(-564.5 -447.6)"/><path d="M566.1,459.8a.1.1,0,0,1-.1-.1l-.4-.4.6-.6h.3l.3-.4h.2l.6-.5h.1l.5-.5h0l-.5.5h-.1l-.7.6v-.3h.1l1.1-.9h0l.3-.3.2.2h.1a.1.1,0,0,1,.1-.1h-.3v-.2l-.6-.6h-.2l-.3-.3v.4l-1.1,1.4-.5-.7.9-1.3h.5a.3.3,0,0,1,.5-.2l.4.4v.2h0l.6.7.2-.2h.1l.4-.3h.3l.3-.4v-.2c0,.1.2.2.2.2h.2l1.4-1h0l-1.3,1.2c0,.1-.1.1-.1,0l-.8.7a.2.2,0,0,0-.2-.2l-.2.3h-.1v.2h0l2.3,2.6c0,.2,0,.2-.2.3l-2.4-2.8-.4.4-.2-.2h0l.2.2h-.2a.1.1,0,0,0-.1.1c0,.2.7.3,1.1.3s0,.5-.1.5h-.1a2.7,2.7,0,0,1-1.3-.5h0v.2l-.3.3.2.5h-.3l-.2-.4h-.1l.3-.3h0l-.4.5H567l-.8,1Zm1.5-2.1-.6.6h-.1l-.4.3h-.2l-.7.6.4.4h.1l.9-1h0l.5-.5h.2v.2h-.3l-.2.3h.1l.2.5v-.6l.3-.3v-.2h0c.1,0,.8.5,1.3.5h.1v-.5s-1-.1-1-.3h.2v-.2h0l.2.3.4-.4,2.4,2.8c.2-.1.2-.1.2-.3l-2.4-2.6.2-.3c.1,0,.1,0,.1-.1l.2-.2h.3l.7-.6h.1l1-1-1.1.8h-.1c.1,0,.1,0,0-.1h-.1s-.2-.1-.2-.2v.3l-.4.3h-.3l-.3.4h0l-.2.2c-.1,0-.1,0-.1-.1h0l.2-.2H569c-.1.2-.2.2-.2.2l-.6-.7v-.2l-.4-.4h-.2a.2.2,0,0,0-.2.2h-.5l-1,1.3.5.6,1.1-1.3v-.4l.3.2h.2l.6.7v.2h.1l-.2-.3-.3.3h0l-1.1.9h-.1v.2l.7-.5h.1l.5-.4c.1,0,.1.1,0,.1a1.4,1.4,0,0,0-.4.4h-.2Zm1.5-1.4h-.2a.1.1,0,0,1,.1.1c0-.1.1-.1.2-.2Z" transform="translate(-564.5 -447.6)"/></g></g></svg>