<svg xmlns="http://www.w3.org/2000/svg" xmlns:xlink="http://www.w3.org/1999/xlink" viewBox="0 0 33.6 19.6"><defs><clipPath id="a" transform="translate(-564.5 -446.8)"><rect x="564.5" y="446.8" width="33.6" height="19.58" fill="none"/></clipPath></defs><title>MYS</title><g clip-path=""><rect width="33.6" height="1.4" fill="#d80031"/><rect y="1.4" width="33.6" height="1.4" fill="#fff"/><rect y="2.8" width="33.6" height="1.4" fill="#d80031"/><rect y="4.2" width="33.6" height="1.4" fill="#fff"/><rect y="5.6" width="33.6" height="1.4" fill="#d80031"/><rect y="7" width="33.6" height="1.4" fill="#fff"/><rect y="8.4" width="33.6" height="1.4" fill="#d80031"/><rect y="9.8" width="33.6" height="1.4" fill="#fff"/><rect y="11.2" width="33.6" height="1.4" fill="#d80031"/><rect y="12.6" width="33.6" height="1.4" fill="#fff"/><rect y="14" width="33.6" height="1.4" fill="#d80031"/><rect y="15.4" width="33.6" height="1.4" fill="#fff"/><rect y="16.8" width="33.6" height="1.4" fill="#d80031"/><rect y="18.2" width="33.6" height="1.4" fill="#fff"/><rect width="19.6" height="11.19" fill="#2530a9"/><g clip-path=""><path d="M569.8,452.4a3.7,3.7,0,0,1,3.6-3.7,3.1,3.1,0,0,1,1.9.6,3.9,3.9,0,0,0-2.7-1.1,4.2,4.2,0,1,0,0,8.4,3.9,3.9,0,0,0,2.7-1.1,3.1,3.1,0,0,1-1.9.6,3.7,3.7,0,0,1-3.6-3.7" transform="translate(-564.5 -446.8)" fill="#f5d028"/><polygon points="13.6 5.6 15.6 4.8 13.5 5 15 3.4 13.1 4.5 13.8 2.4 12.5 4.2 12.2 2.1 12 3.6 11.9 4.1 11.9 4.2 10.7 2.4 11.4 4.5 9.5 3.4 11 5 8.8 4.8 10.8 5.6 8.8 6.4 11 6.2 9.5 7.8 11.4 6.7 10.7 8.7 11.9 7 11.9 7.1 12 7.6 12.2 9.1 12.5 7 13.8 8.7 13.1 6.7 15 7.8 13.5 6.2 15.6 6.4 13.6 5.6" fill="#f5d028"/></g></g></svg>