<svg xmlns="http://www.w3.org/2000/svg" xmlns:xlink="http://www.w3.org/1999/xlink" viewBox="0 0 33.6 19.6"><defs><clipPath id="a" transform="translate(-564.8 -447.7)"><rect x="564.8" y="447.7" width="33.6" height="19.58" fill="none"/></clipPath></defs><title>PAK</title><g clip-path=""><rect width="33.6" height="19.58" fill="#fff"/><rect x="8.4" width="25.2" height="19.58" fill="#2a680b"/><g clip-path=""><path d="M585.2,451.6a5.9,5.9,0,1,1-5.9,5.9,5.9,5.9,0,0,1,5.9-5.9" transform="translate(-564.8 -447.7)" fill="#fff"/><path d="M583.1,452.1a5.4,5.4,0,1,1-.4,7.6,5.4,5.4,0,0,1,.4-7.6" transform="translate(-564.8 -447.7)" fill="#2a680b"/><polygon points="24.8 5.9 23 6.7 23.4 7.6 24.8 5.9" fill="#fff"/><polygon points="24.8 5.9 23.8 7.6 23 7.1 24.8 5.9" fill="#fff"/><polygon points="25.1 8.2 23.8 6.7 23 7.4 25.1 8.2" fill="#fff"/><polygon points="25.1 8.2 23.1 7.8 23.4 6.8 25.1 8.2" fill="#fff"/><polygon points="22.6 5.4 22.8 7.3 23.7 7.3 22.6 5.4" fill="#fff"/><polygon points="22.6 5.4 23.9 6.9 23.1 7.5 22.6 5.4" fill="#fff"/><polygon points="22.9 9.1 23.9 7.4 23.1 6.9 22.9 9.1" fill="#fff"/><polygon points="22.9 9.1 22.8 7.2 23.7 7.1 22.9 9.1" fill="#fff"/><polygon points="21.4 7.4 23.3 7.8 23.5 6.8 21.4 7.4" fill="#fff"/><polygon points="21.4 7.4 23.2 6.6 23.6 7.5 21.4 7.4" fill="#fff"/></g></g></svg>