<svg xmlns="http://www.w3.org/2000/svg" xmlns:xlink="http://www.w3.org/1999/xlink" viewBox="0 0 33.6 19.6"><defs><clipPath id="a" transform="translate(-564.6 -447.7)"><rect x="564.6" y="447.7" width="33.6" height="19.58" fill="none"/></clipPath></defs><title>PHL</title><g clip-path=""><rect width="33.6" height="9.79" fill="#2534a4"/><rect y="9.8" width="33.6" height="9.79" fill="#bc0030"/><polygon points="0 0 0 19.6 17 9.8 0 0" fill="#fff"/><polygon points="2.3 17.7 1.5 17.3 0.9 17.8 1.1 17 0.3 16.6 1.2 16.5 1.4 15.6 1.7 16.4 2.6 16.3 1.9 16.9 2.3 17.7" fill="#f3d02f"/><path d="M569.2,455.7l-.6-1.1h-.4l.9,1.3Zm-.5.5-1.3-1v-.6h.6l1.1,1.4Zm-.2.2-1.1-.6v-.4l1.2.9Z" transform="translate(-564.6 -447.7)" fill="#f3d02f"/><path d="M570.8,455.5l.3-1.3-.2-.3-.3,1.5Zm-.7,0-.2-1.7.4-.5.4.4-.2,1.7Zm-.3,0-.3-1.2.2-.3.3,1.5Z" transform="translate(-564.6 -447.7)" fill="#f3d02f"/><path d="M572.1,456.4l1.1-.6v-.3l-1.2.8Zm-.5-.5,1.1-1.3h.6v.5l-1.4,1.1Zm-.2-.2.6-1.1h.4l-.9,1.2Z" transform="translate(-564.6 -447.7)" fill="#f3d02f"/><path d="M572.3,458l1.2.3.3-.2-1.5-.3Zm0-.7,1.7-.2.4.4-.4.4-1.7-.2Zm0-.3,1.2-.4.3.3-1.5.2Z" transform="translate(-564.6 -447.7)" fill="#f3d02f"/><path d="M571.3,459.2l.7,1.1h.4l-.9-1.3Zm.5-.5,1.4,1v.6h-.5l-1.1-1.4Zm.2-.2,1.1.6v.4l-1.3-.9Z" transform="translate(-564.6 -447.7)" fill="#f3d02f"/><path d="M569.8,459.5l-.3,1.2.2.3.2-1.5Zm.7-.1.2,1.7-.4.5-.4-.4.2-1.7Zm.3,0,.3,1.3-.2.2-.3-1.5Z" transform="translate(-564.6 -447.7)" fill="#f3d02f"/><path d="M568.5,458.5l-1.1.6v.4l1.2-.9Zm.5.5-1.1,1.3h-.5v-.6l1.4-1.1Zm.2.2-.6,1.1h-.4l.9-1.2Z" transform="translate(-564.6 -447.7)" fill="#f3d02f"/><path d="M568.3,456.9l-1.2-.3-.3.3,1.5.2Zm0,.8-1.7.2-.4-.4.3-.4,1.8.2Zm0,.3-1.2.3-.3-.2,1.5-.3Z" transform="translate(-564.6 -447.7)" fill="#f3d02f"/><g clip-path=""><path d="M570.3,455.4a2,2,0,0,1,2,2.1,2,2,0,0,1-2,2,2,2,0,0,1-2.1-2,2.1,2.1,0,0,1,2.1-2.1" transform="translate(-564.6 -447.7)" fill="#f3d02f"/><polygon points="12.8 10.5 13.3 9.8 12.8 9.1 13.6 9.4 14.1 8.6 14.1 9.5 14.9 9.8 14.1 10.1 14.1 10.9 13.6 10.2 12.8 10.5" fill="#f3d02f"/><polygon points="2.3 1.7 1.5 2.1 0.9 1.5 1.1 2.4 0.3 2.8 1.2 2.9 1.4 3.8 1.7 3 2.6 3.1 1.9 2.5 2.3 1.7" fill="#f3d02f"/></g></g></svg>