<svg xmlns="http://www.w3.org/2000/svg" xmlns:xlink="http://www.w3.org/1999/xlink" viewBox="0 0 33.6 19.6"><defs><clipPath id="a" transform="translate(-564.5 -447.7)"><rect x="564.5" y="447.7" width="33.6" height="19.58" fill="none"/></clipPath></defs><title>QAT</title><g clip-path=""><polygon points="10 0 13.6 1.1 10 2.2 13.6 3.3 10 4.4 13.6 5.4 10 6.5 13.6 7.6 10 8.7 13.6 9.8 10 10.9 13.6 12 10 13.1 13.6 14.1 10 15.2 13.6 16.3 10 17.4 13.6 18.5 10 19.6 33.6 19.6 33.6 0 10 0" fill="#681840"/><polygon points="0 0 0 19.6 10 19.6 13.6 18.5 10 17.4 13.6 16.3 10 15.2 13.6 14.1 10 13.1 13.6 12 10 10.9 13.6 9.8 10 8.7 13.6 7.6 10 6.5 13.6 5.4 10 4.4 13.6 3.3 10 2.2 13.6 1.1 10 0 0 0" fill="#fff"/></g></svg>