<svg xmlns="http://www.w3.org/2000/svg" xmlns:xlink="http://www.w3.org/1999/xlink" viewBox="0 0 33.6 19.6"><defs><clipPath id="a"><rect width="33.6" height="19.58" fill="none"/></clipPath></defs><title>SAU</title><g clip-path=""><rect width="33.6" height="19.58" fill="#3d9635"/><g clip-path=""><path d="M9.5,5.6c0,.5-.1,1.3.3,1.3s.2-.8.4-.9h.1v.7a.3.3,0,0,0,.3.3h.3V8.4s.3.1.3-.7a7.3,7.3,0,0,1,0-.9h.2c.1.1.2.2.4.1s.5-.2.5-.4a2,2,0,0,0-.1-.6V5.6h.1a.6.6,0,0,0-.2-.4c-.1-.1-.3-.1-.3.1a1,1,0,0,0,.2.7.7.7,0,0,1,.1.3h-.2l-.2-.2a.8.8,0,0,0,0-.6.7.7,0,0,0-.2-.3h-.2a1,1,0,0,0,0,.7c.1.2.1.3.1.3H11a2.5,2.5,0,0,1-.1-.7c0-.2,0-.6-.2-.6s-.2,0-.2,0a3.4,3.4,0,0,0,0,.5,5.5,5.5,0,0,1,.1.8c0,.4-.2.2-.2,0a1.8,1.8,0,0,0,0-.7h-.2c-.1,0-.3.2-.3.5v.3c0,.2-.1.3-.2,0s-.1-.8-.2-.7" fill="#fff"/><path d="M10.8,7.4,9.6,8a1.3,1.3,0,0,1,1-.8c.3,0,.2.1.3.2" fill="#fff"/><path d="M12.3,4.8h-.1a.2.2,0,0,0-.2.3l.3,2a.2.2,0,0,1-.1.2c-.2-.1-.2-.3-.5-.3a.5.5,0,0,0-.4.4,1,1,0,0,0,0,.5.4.4,0,0,0,.4.1h.3s0,.4-.5.7-.6.2-.7-.1,0-.8-.2-.7c-.6,1.7,1.5,1.9,1.8.1h.1c0,1.7-1.7,1.8-1.9,1.2a1.6,1.6,0,0,1-.1-.6V8.4c-.1,0-.2.1-.2.3a2,2,0,0,0,0,.4c.1,1.3,2.2.8,2.5-.3a3.7,3.7,0,0,0,.1-1h0c.2.2.5,0,.6,0h.1a.3.3,0,0,0,.5-.1,4.8,4.8,0,0,0,.1-.6h-.2v.2h-.1c0-.2-.3-.3-.4.1H13c0-.2-.1-.3-.3-.2l-.2-1.4h.2a2.7,2.7,0,0,0-.3-.8h-.1m-.6,2.6h.1a.1.1,0,0,1,0,.1h-.1" fill="#fff"/><path d="M13.8,4.8h-.1a.3.3,0,0,0,0,.4c.1,0,.2.1.1.2l-.9.7h.5l.7-.7h-.1a0,0,0,0,1,0-.1.2.2,0,0,0,0-.4h-.2m0,.2h.1c0,.1,0,.1,0,.1h-.1c0-.1,0-.1,0-.1h0" fill="#fff"/><path d="M9.6,8.6a1.2,1.2,0,0,0-.1,1.1h.3a.5.5,0,0,0,.2-.5H9.8c-.1.2-.1.1-.2-.1a2.7,2.7,0,0,1,0-.6c0-.2,0-.1-.1,0" fill="#fff"/><path d="M19.4,8l-.6-1.1-.9-1.4c-.2-.3.4.1-.1-.4l-.3-.3c-.1-.1-.3-.1-.3,0a.9.9,0,0,0,0,.3l.2.3a21.3,21.3,0,0,1,2.1,3.3c.1,0,.1-.6,0-.7" fill="#fff"/><path d="M18.4,9.6s.1.3.3.3a1.2,1.2,0,0,0,.9-.7,1.3,1.3,0,0,0,.2-.5,12,12,0,0,0-.2-2.8.4.4,0,0,1,0-.2h.1c.1-.1-.1-.5-.3-.7s-.1-.1-.1,0a1,1,0,0,0-.1.5c.2,1.1.2,2,.3,3.1a.4.4,0,0,1-.1.3,3,3,0,0,1-1,.8" fill="#fff"/><path d="M22.9,9.6c-.2.1-.2.3,0,.3a1.2,1.2,0,0,0,1-.5,1.6,1.6,0,0,0,.2-.6,14.3,14.3,0,0,0-.2-3,1.3,1.3,0,0,1,0-.3H24c.1-.1-.3-.5-.4-.7s-.1-.1-.1,0a.8.8,0,0,0-.1.5,28.7,28.7,0,0,1,.3,3.4V9l-.3.4-.4.2" fill="#fff"/><path d="M23.1,8.6c0-.3,0-.5,0-.7s-.1-1-.1-1.1V6.1a1.7,1.7,0,0,1,0-.4h.1a2.2,2.2,0,0,0-.3-.9h-.2c-.1.1-.1.3,0,.5A17.3,17.3,0,0,1,22.7,9c0,.1.3-.3.3-.5" fill="#fff"/><path d="M21.3,7c-.1,0-.5-.3-.6-.5a.3.3,0,0,1,0-.2h.4V6.2a.2.2,0,0,1,.3-.1.6.6,0,0,1,.1.3h-.2c0,.1,0,.3,0,.5" fill="#fff"/><path d="M18.6,8.9a12.9,12.9,0,0,0,0-1.4c0-.5-.1-1.5-.1-1.7s.1,0,.1-.2a2,2,0,0,0-.4-.8c-.1-.1-.1-.1-.2,0a1,1,0,0,0,0,.6,11.8,11.8,0,0,1,.3,1.9,16.6,16.6,0,0,1,0,2c.1,0,.3-.2.4-.5" fill="#fff"/><path d="M23.6,8.3l-.8-1.1L21.7,5.5c-.3-.3.2-.1-.1-.3l-.4-.4c-.1,0-.1-.1-.1,0a3.2,3.2,0,0,0,0,.4v.3a24.6,24.6,0,0,1,2.4,3.4c.1,0,.1-.6,0-.7" fill="#fff"/><path d="M20.4,13.5h0a.2.2,0,0,0-.1.4H11.4a1.5,1.5,0,0,0,1.3.5h7.6a.5.5,0,0,0,.1.5h1.5c.2,0,.3-.1.3-.4s0-.6-.4-.6H20.5s.1-.2,0-.3h-.1m.2.9h1.1a.1.1,0,0,1,0,.2H20.6c0-.1,0-.2,0-.2" fill="#fff"/><path d="M14.2,5.2c-.2.7.1,1.4.4,1.4s.3-.3.4-.7h.1c0,.5,0,.6.2.8a.4.4,0,0,0,.6,0l.2-.2h.2c.1.1.1.2.2.3h.5V6.3h.2s-.1.1,0,.2h.1c.2-.1.3-.4.3-.4s-.1-.1-.1-.1h-.4a4.4,4.4,0,0,1-.1-.5s-.1-.2,0-.2h.2c0-.1-.1-.3-.2-.4a.2.2,0,0,0-.3,0c-.1.1-.1.2-.1.2a.4.4,0,0,0,.1.3,1,1,0,0,1,.2.7h-.2c-.1,0-.2,0-.2-.4s0-.7-.1-.9-.1-.2-.2,0a.5.5,0,0,0-.1.5,1.4,1.4,0,0,1,.1.7v.2h-.3a.3.3,0,0,1-.2-.2,3.5,3.5,0,0,0,0-.8.1.1,0,0,0-.2-.1,1.8,1.8,0,0,0-.4.9c-.1.2-.1.2-.2.1s-.1-1-.3-.9" fill="#fff"/><path d="M15,6.6h-.1c-.1.1-.1.1-.1.3l.2.6a2,2,0,0,1,.1.8,2.1,2.1,0,0,1-.9.9H14a.2.2,0,0,1-.1-.2h0a2,2,0,0,0,.9-.9.9.9,0,0,0,0-.6V7.3h.2a.9.9,0,0,0-.2-.5h-.3c-.1.1-.1.3-.1.4s.2.2.3.4h0a.5.5,0,0,1,0,.3l-.6.6h0a.6.6,0,0,0,0-.1V8.2h0c-.2.1-.2.5-.3.6a8.2,8.2,0,0,0-1.3.9c-.2.2,1.1-.3,1.2-.4h0v.2a.7.7,0,0,0,.7.2,2.2,2.2,0,0,0,1-.8h.2a1.5,1.5,0,0,0,1.4.7c.2-.2.1-.3,0-.3l-.4-.3c0-.1,0-.2.2-.3l1.3-.2a1.1,1.1,0,0,1,.1-.4H16.7c.3,0,.9-.1,1-.7a.5.5,0,0,0-.5-.5.5.5,0,0,0-.4.6c0,.1,0,.2-.1.2s-1.1.4-1.1.6h-.1a2.8,2.8,0,0,0-.4-1.2H15m2,.5h0M15.8,8.3h.6c.2,0,.2.1.1.2s-.3.1-.3.3,0,.2,0,.2H16a.8.8,0,0,1-.4-.6V8.3" fill="#fff"/><path d="M11.3,5.2c.2.1.5,0,.5-.2h-.1s0,.1,0,.1h-.3c-.1,0-.1.1-.1.1s0,.2.1.2" fill="#fff"/><path d="M16,7.2c.2.1.5,0,.5-.2h-.2s0,.1,0,.1H16c-.1,0-.1.1-.1.1s0,.2.1.2" fill="#fff"/><path d="M18.7,6.4c.2.1.5,0,.5-.2H19s0,.1,0,.1h-.3c-.1,0-.1.1-.1.1s0,.2.1.2" fill="#fff"/><path d="M20.2,8.4a1,1,0,0,0-.1,1,.8.8,0,0,0,.3.4.2.2,0,0,0,.4,0c.2-.2.2-.6.2-.7a.1.1,0,0,1,.3-.1l.2.2a.4.4,0,0,0,.5,0l.3-.3a12.2,12.2,0,0,0,0-2l-.2-.8s0-.4,0-.5h.1s.1-.1.1-.1l-.4-.7h-.1a.3.3,0,0,0-.1.2v.5l.2.9c0,.6.1,1.2.1,1.8s-.1.6-.2.6h-.2l-.3-.4a.2.2,0,0,0-.3,0,3.8,3.8,0,0,0-.5.9c0,.1-.2.1-.3,0a1.3,1.3,0,0,1-.2-.9" fill="#fff"/><path d="M18.8,4.8a.5.5,0,0,1,.2.5c0,.2-.1.4-.2.3s0-.2,0-.3L18.6,5c0-.1.1-.2.2-.1" fill="#fff"/><path d="M20.6,8.6a4.3,4.3,0,0,0,0-.8c0-.2-.2-1.9-.3-2s.2,0,.2-.2l-.4-.7c0-.1,0-.2-.1,0a1.7,1.7,0,0,0-.1.7,16,16,0,0,1,.4,3.5c.1,0,.2-.3.3-.5" fill="#fff"/><path d="M23.1,5.3c.1.1.2.4.2.5s-.1.4-.1.4,0-.3,0-.4l-.2-.4a.1.1,0,0,1,.2-.2" fill="#fff"/><path d="M13.3,7.9c.1,0,.2.3.2.4s-.1.3-.1.3,0-.2,0-.3-.2-.2-.2-.3.1-.1.2-.1" fill="#fff"/><path d="M10,4.8c.2.1.2.3.2.4s-.1.3-.1.3,0-.2,0-.3l-.2-.3c0-.1.1-.1.1-.1" fill="#fff"/><path d="M13.6,6a.3.3,0,0,0-.1.4h.2c.1,0,.2-.3.2-.3h-.3a.4.4,0,0,1,0-.2h-.1" fill="#fff"/><path d="M14.7,4.7a.5.5,0,0,0-.2.4c0,.1,0,.1,0,.2h.3c0-.1-.1.1-.1-.1s.1-.2.1-.3,0-.1-.1-.1" fill="#fff"/><path d="M15.5,4.8a2.3,2.3,0,0,0-.1.4c0,.1.1.2.2,0a1.3,1.3,0,0,0,.1-.5c0-.2-.1-.2-.2,0" fill="#fff"/><path d="M21,7.6l.8-.5c.1,0,.1.3,0,.3l-.8.6s-.1-.2,0-.3" fill="#fff"/><path d="M21.7,7.6c.1.1.2.4.2.6s-.1.4-.2.3,0-.3,0-.3-.1-.3-.1-.4a.1.1,0,0,1,.2-.2" fill="#fff"/><path d="M17.2,9.2l.2-.2h.1c0,.1,0,.1,0,.2H18c.1,0,.1.2,0,.2l-.5.2h-.1a.1.1,0,0,1,0-.1h-.2s0-.1,0-.1" fill="#fff"/><path d="M22.4,9.4a.1.1,0,0,1,0,.1h-.1s0,.1,0,.1l.5-.2a.1.1,0,0,0,0-.1h-.1s-.1,0-.1-.1h-.2" fill="#fff"/></g></g></svg>