<svg xmlns="http://www.w3.org/2000/svg" xmlns:xlink="http://www.w3.org/1999/xlink" viewBox="0 0 33.6 19.6"><defs><clipPath id="a" transform="translate(-565.1 -447.7)"><rect x="565.1" y="447.7" width="33.6" height="19.58" fill="none"/></clipPath></defs><title>SGP</title><g clip-path=""><rect width="33.6" height="9.79" fill="#da1841"/><rect y="9.8" width="33.6" height="9.79" fill="#fff"/><g clip-path=""><path d="M575.2,452.6a3.6,3.6,0,0,1-3.7,3.6,3.7,3.7,0,1,1,0-7.3,3.6,3.6,0,0,1,3.7,3.7" transform="translate(-565.1 -447.7)" fill="#fff"/><path d="M576.4,452.6a3.5,3.5,0,1,1-3.5-3.5,3.5,3.5,0,0,1,3.5,3.5" transform="translate(-565.1 -447.7)" fill="#da1841"/><polygon points="6.8 5 6.3 4.6 5.8 5 6 4.4 5.5 4 6.2 4 6.3 3.4 6.5 4 7.2 4 6.7 4.4 6.8 5" fill="#fff"/><polygon points="10.8 5 10.3 4.6 9.8 5 10 4.4 9.5 4 10.1 4 10.3 3.4 10.5 4 11.1 4 10.6 4.4 10.8 5" fill="#fff"/><polygon points="8.8 3.5 8.3 3.1 7.8 3.5 8 2.9 7.5 2.5 8.1 2.5 8.3 1.9 8.5 2.5 9.1 2.5 8.6 2.9 8.8 3.5" fill="#fff"/><polygon points="7.6 7.3 7.1 6.9 6.6 7.3 6.8 6.7 6.3 6.3 6.9 6.3 7.1 5.7 7.3 6.3 7.9 6.3 7.4 6.7 7.6 7.3" fill="#fff"/><polygon points="10 7.3 9.5 6.9 9 7.3 9.2 6.7 8.7 6.3 9.3 6.3 9.5 5.7 9.7 6.3 10.3 6.3 9.8 6.7 10 7.3" fill="#fff"/></g></g></svg>