<svg xmlns="http://www.w3.org/2000/svg" xmlns:xlink="http://www.w3.org/1999/xlink" viewBox="0 0 33.6 19.6"><defs><clipPath id="a"><rect width="33.6" height="19.58" fill="none"/></clipPath></defs><title>SLV</title><g clip-path=""><rect width="33.6" height="19.58" fill="#fff"/><rect width="33.6" height="6.53" fill="#1f189b"/><rect y="13.1" width="33.6" height="6.53" fill="#1f189b"/><g clip-path=""><path d="M16.2,12.3h.2l.6-.2.6-.2.9-.6a2.6,2.6,0,0,0,.2-.6,3,3,0,0,0,.1-.6,2.8,2.8,0,0,0-.1-.7,3.7,3.7,0,0,0-.5-.9,5.9,5.9,0,0,1,.5.9,2.5,2.5,0,0,1,.1.7,3.9,3.9,0,0,1-.3,1c-.1.3-.3.3-.5.5l-.5.3-.6.2-.6.2-.3.2Z" fill="#326221"/><path d="M16.2,12.3h0l.3-.2.6-.2.6-.2.5-.3h.1a.9.9,0,0,0,.4-.4,3.9,3.9,0,0,0,.3-1,2.6,2.6,0,0,0-.1-.7,5.7,5.7,0,0,0-.5-.9h0a3.4,3.4,0,0,1,.5.9,2.8,2.8,0,0,1,.1.7,2.4,2.4,0,0,1-.1.6h0a2.9,2.9,0,0,1-.2.7l-.9.6-.6.2-.6.2h-.2Zm2.1-4a5,5,0,0,1,.5.8,2.6,2.6,0,0,1,.1.7,4,4,0,0,1-.3,1,.9.9,0,0,1-.4.4h-.1l-.5.3-.6.2-.6.2-.2.2h.2l.6-.2.6-.2.9-.6a2.7,2.7,0,0,0,.2-.6h0a2.4,2.4,0,0,0,.1-.6,2.7,2.7,0,0,0-.1-.7,3.7,3.7,0,0,0-.5-.9Z"/><path d="M18.5,11.1h-.1a.4.4,0,0,1,0-.1h.1a.5.5,0,0,0,0,.1.2.2,0,0,1,0,.1v.2Z" fill="#326221"/><path d="M18.5,11.1h-.1a.2.2,0,0,1,0-.1h.2a.5.5,0,0,0,0,.1.2.2,0,0,1,0,.1v.2Zm0-.6h-.1a.2.2,0,0,0,0,.1h.1v-.2a.2.2,0,0,0,0-.1.4.4,0,0,1,0-.1h0Z"/><path d="M18.5,11v-.2h0a.2.2,0,0,0,0-.2h-.1a.3.3,0,0,0,0,.1h0s0,.2,0,.3Z" fill="#326221"/><path d="M18.5,11.1h0a.6.6,0,0,0,0-.3h.1a.2.2,0,0,1,0,.2h0v.2Zm0-.7h0a.2.2,0,0,1,0,.1h0a.7.7,0,0,1,0,.2v-.2h0a.1.1,0,0,0,0-.2h-.1Z"/><path d="M17.2,11.8h.4v-.2h-.5Z" fill="#326221"/><path d="M17.2,11.8h.5v.2h-.4Zm.4-.3h0Z"/><path d="M17,11.9h.5v-.2h-.4v.3Z" fill="#326221"/><path d="M17,11.9h0v-.2h0v.2h0Z"/><path d="M16.9,11.9l.3-.2h.2v-.2h-.3v.2h-.2Z" fill="#326221"/><path d="M16.9,11.9h0l.3-.2h.2v0h-.2l-.3.2Z"/><path d="M17.2,11.9h0Z" fill="#326221"/><path d="M17.4,11.9h0Zm-.1,0h0Z"/><path d="M17.1,11.9h0Z" fill="#326221"/><path d="M17.7,12h0Zm-.3-.2h0Z"/><path d="M17,12h0Z" fill="#326221"/><path d="M17.4,12.2h0Z"/><path d="M18,11.5h0Z" fill="#326221"/><path d="M18,11.5h0Z"/><path d="M17.9,11.6h.6s0,.1,0,.1h-.6Z" fill="#326221"/><path d="M17.9,11.6h0Z"/><path d="M17.8,11.6h0Z" fill="#326221"/><path d="M18.2,11.7h0Zm-.3-.1h0Z"/><path d="M17.8,11.6s0-.2,0-.2h.1v0a.5.5,0,0,0,0,.1v.2h-.2Z" fill="#326221"/><path d="M17.8,11.6h0s0-.2,0-.2h.1v-.2h0v.2c0,.1,0,.1,0,.1v.2h-.2Zm.1-.6s0,.1,0,.2h-.1s0,.2,0,.2H18v-.2h0v-.2Z"/><path d="M17.8,11.6h.3v-.2h-.2v.3Z" fill="#326221"/><path d="M17.8,11.6H18v-.3h-.2Zm.3-.7h-.1v.3h.2Z"/><path d="M18.5,11.1h.4v-.3h-.4l-.2.2v.2Z" fill="#326221"/><path d="M18.5,11.1h.1l.2-.2h.4V11h-.4Zm.5-.5h-.3l-.2.2h.4v-.2Z"/><path d="M18.5,11.1h.2l.2-.2h.1v-.2h-.4v.2Z" fill="#326221"/><path d="M18.5,11.1h0v-.4h.2l-.2.2Zm.5-.6h-.4v.2h.1l.2-.2H19Z"/><path d="M18.7,10.4s0-.2,0-.2h-.1a.6.6,0,0,1,0-.2h.2a.2.2,0,0,1,0,.1.3.3,0,0,0,0,.1v.2Z" fill="#326221"/><path d="M18.7,10.4h-.1a.5.5,0,0,1,0-.2h.2a.2.2,0,0,1,0,.1h0v.3Zm-.1-.6a.6.6,0,0,0,0,.2h.1v-.2a.3.3,0,0,1,0-.1h-.2Z"/><path d="M18.7,10.4s0-.1,0-.1h-.1a.3.3,0,0,1,0-.2h.2a.2.2,0,0,1,0,.1Z" fill="#326221"/><path d="M18.7,10.4h-.1a.2.2,0,0,1,0-.1h.2a.2.2,0,0,1,0,.2h0Zm-.1-.4a.3.3,0,0,0,0,.1h.2a.2.2,0,0,0,0-.1h-.2Z"/><path d="M18.9,9.7s0-.1,0-.2V9.3a.2.2,0,0,1,0,.1.3.3,0,0,0,0,.1h.2Z" fill="#326221"/><path d="M18.9,9.7h-.2a.3.3,0,0,1,0-.1.3.3,0,0,0,0-.1h.1s0,.2,0,.2Zm-.2-.4h0a.2.2,0,0,0,0,.1h.2s0-.1,0-.2h-.1Z"/><path d="M18.9,9.7s0-.1,0-.1h-.2a.4.4,0,0,0,0,.2h.2Z" fill="#326221"/><path d="M18.9,9.7h-.2a.4.4,0,0,1,0-.2h.2s0,.1,0,.1Zm-.3-.4a.5.5,0,0,0,0,.2h0Z"/><path d="M18.7,10.4h.4V9.9h-.5Z" fill="#326221"/><path d="M18.7,10.4h0Zm.5-.5h0Z"/><path d="M18.7,10.4h.3c0-.1,0-.2,0-.2h-.3a.7.7,0,0,0-.1.2Z" fill="#326221"/><path d="M18.8,10.4h0a.5.5,0,0,1,0-.2h.3v.2h-.3Zm.3-.6h-.3v.2h.3Z"/><path d="M18.9,9.8s0-.1.1-.1h.3V9.3h-.3s0,.1,0,.1Z" fill="#326221"/><path d="M18.9,9.8h0s0-.1,0-.1h0Zm.3-.5h-.3a.1.1,0,0,0,0,.1h.3Z"/><path d="M18.9,9.8H19a.2.2,0,0,0,0-.1h-.2c0,.1,0,.1,0,.1h0a.6.6,0,0,0,0,.2Z" fill="#326221"/><path d="M18.9,9.8h0a.4.4,0,0,1,0-.2h.2a.2.2,0,0,1,0,.1h-.2Zm.1-.6h-.1s0,0,0,.1h0a.5.5,0,0,0,0,.2H19a.2.2,0,0,0,0-.1Z"/><path d="M18.8,9.2h0Z" fill="#326221"/><path d="M18.8,9.2h0Zm-.3-.4h0Z"/><path d="M18.8,9.1h0a.3.3,0,0,0,0-.2h-.1l.2.2Z" fill="#326221"/><path d="M18.8,9.1h0a.3.3,0,0,1,0,.2h0Zm-.2-.4h.2a.3.3,0,0,0,0-.2Z"/><path d="M18.8,9.2h.1V8.7h-.1s0,.1,0,.1,0,.1,0,.1Z" fill="#326221"/><path d="M18.8,9.2h-.1a.1.1,0,0,1,0-.1h0a.1.1,0,0,1,0-.1h.1Zm0-.5h0a.1.1,0,0,0,0,.1h0c0,.1,0,.1,0,.1h.1Z"/><path d="M18.5,8.7h0Z" fill="#326221"/><path d="M18.5,8.7Zm-.3-.2h0Z"/><path d="M18.5,8.6h-.2c0-.1,0-.2,0-.1h.2a.2.2,0,0,1,.1.2Z" fill="#326221"/><path d="M18.5,8.7h-.2a.2.2,0,0,1,0-.1h.2a.2.2,0,0,1,.1.2Zm-.2-.4a.2.2,0,0,0,0,.1h.2a.1.1,0,0,0-.1-.2h-.2Z"/><path d="M18.6,8.6h0a.3.3,0,0,1,0,.1.2.2,0,0,0,0,.1Z" fill="#326221"/><path d="M18.6,8.7h0a.2.2,0,0,1,0,.1.2.2,0,0,0,0,.1Zm-.1-.4h.1a.2.2,0,0,1,0-.1.3.3,0,0,0,0-.1h-.1Z"/><path d="M17.8,11.5h0Z" fill="#d2001d"/><circle cx="17.8" cy="11.5" fill="none"/><path d="M17.9,11.7h0Z" fill="#d2001d"/><circle cx="17.9" cy="11.7" fill="none"/><path d="M18.3,11h0Z" fill="#d2001d"/><circle cx="18.3" cy="11" fill="none"/><path d="M18.6,11.2h0Z" fill="#d2001d"/><circle cx="18.6" cy="11.1" fill="none"/><path d="M18.6,10.4h0Z" fill="#d2001d"/><circle cx="18.6" cy="10.4" fill="none"/><path d="M18.8,10.5h0Z" fill="#d2001d"/><circle cx="18.8" cy="10.4" fill="none"/><path d="M18.7,9.8h0Z" fill="#d2001d"/><circle cx="18.7" cy="9.8" fill="none"/><path d="M18.9,9.2h0Z" fill="#d2001d"/><circle cx="18.9" cy="9.2" fill="none"/><path d="M18.7,9.3h0Z" fill="#d2001d"/><circle cx="18.7" cy="9.2" fill="none"/><path d="M18.4,8.7h0Z" fill="#d2001d"/><circle cx="18.4" cy="8.7" fill="none"/><path d="M18.6,8.6h0Z" fill="#d2001d"/><circle cx="18.6" cy="8.6" fill="none"/><path d="M18.3,8.3h0Z" fill="#d2001d"/><circle cx="18.3" cy="8.2" fill="none"/><path d="M19,9.8h0Z" fill="#d2001d"/><circle cx="19" cy="9.8" fill="none"/><path d="M17.7,11.6h0Z" fill="none"/><path d="M17.8,11.7h0Z" fill="none"/><path d="M18.4,11.2h0s0-.1,0-.1h0s0,.1,0,.1Z"/><path d="M18.5,11.1h0Z" fill="none"/><path d="M18.7,10.5h0Z"/><path d="M18.9,9.9h0Z"/><path d="M18.8,9.3h0Z"/><path d="M18.4,8.7h.2c0-.1,0-.1,0-.1h0s-.1.1,0,.1h-.2Z"/><path d="M18.3,8.2h0Z" fill="none"/><path d="M17.4,11.8h0Z"/><path d="M17.8,11.9h0Z"/><path d="M17.7,12.1h0Z"/><path d="M17.4,11.8h0Z"/><path d="M17.1,11.9l.3-.3.3-.2h0l-.3.2-.3.3Z"/><path d="M17,11.9h.1v-.2h.1l.2-.2h0l-.2.2h-.1v.2Z"/><path d="M18.2,11.4l.2-.2h0l-.2.2Z"/><path d="M17.9,11.5h.3l.3-.2h0l-.3.2Z"/><path d="M18.1,11.6h0Z"/><path d="M18,11.5v-.2h.1a.5.5,0,0,0,0-.2h0a.4.4,0,0,1,0,.2h-.1v.2Z"/><path d="M17.8,11.6H18s0-.1,0-.1h0a.4.4,0,0,1,0,.1h-.2Z"/><path d="M18.8,10.8h0Z"/><path d="M18.5,11.1h0a.8.8,0,0,0,0-.2,1,1,0,0,1,0-.2h0a.8.8,0,0,0,0,.2.9.9,0,0,1,0,.2h0Z"/><path d="M18.6,10.9a.6.6,0,0,0,0-.2h0a.6.6,0,0,1,0,.2Z"/><path d="M18.5,11.1v-.2l.2-.2h0l-.2.2v.2Z"/><path d="M19,10.2h.1V10h0v.2Z"/><path d="M18.7,10.4h0Z"/><path d="M18.7,10.3a.8.8,0,0,0,0-.3h0a.8.8,0,0,1,0,.3Z"/><path d="M18.8,10.4h.1V10h0v.2Z"/><path d="M19,9.6V9.4h0v.2Z"/><path d="M18.8,9.6h0Z"/><path d="M18.9,9.7h0Z"/><path d="M18.9,9.7H19a.5.5,0,0,0,0-.1h0a.6.6,0,0,1,0,.2h-.1v.2Z"/><path d="M18.8,9.1,18.6,9h0l.2.2Z"/><path d="M18.7,9h0V8.8h0v.2Z"/><path d="M18.8,9.1h0a.3.3,0,0,0,0-.1,1.3,1.3,0,0,1,0-.2h0a1.3,1.3,0,0,0,0,.2.3.3,0,0,1,0,.1Z"/><path d="M18.4,8.6h0Z"/><polygon points="18.4 8.5 18.3 8.3 18.3 8.3 18.4 8.5 18.4 8.5"/><path d="M18.5,8.6V8.4h0v.2Z"/><path d="M15.7,11.5h0Z" fill="#d2001d"/><circle cx="15.7" cy="11.5" fill="none"/><path d="M15.6,11.7h0Z" fill="#d2001d"/><circle cx="15.6" cy="11.7" fill="none"/><path d="M15.2,11h0Z" fill="#d2001d"/><circle cx="15.2" cy="11" fill="none"/><path d="M14.9,11.2h0Z" fill="#d2001d"/><circle cx="14.9" cy="11.1" fill="none"/><path d="M14.9,10.4h0Z" fill="#d2001d"/><circle cx="14.9" cy="10.4" fill="none"/><path d="M14.7,10.5h0Z" fill="#d2001d"/><circle cx="14.7" cy="10.4" fill="none"/><path d="M14.8,9.8h0Z" fill="#d2001d"/><circle cx="14.8" cy="9.8" fill="none"/><path d="M14.6,9.2h0Z" fill="#d2001d"/><circle cx="14.6" cy="9.2" fill="none"/><path d="M14.8,9.3h0Z" fill="#d2001d"/><circle cx="14.8" cy="9.2" fill="none"/><path d="M15.1,8.7h0Z" fill="#d2001d"/><circle cx="15.1" cy="8.7" fill="none"/><path d="M14.9,8.6h0Z" fill="#d2001d"/><circle cx="14.9" cy="8.6" fill="none"/><path d="M15.2,8.3h0Z" fill="#d2001d"/><path d="M15.2,8.3h0Z"/><path d="M14.5,9.8h0Z" fill="#d2001d"/><circle cx="14.5" cy="9.8" fill="none"/><path d="M15.8,11.6h0Z" fill="none"/><path d="M15.7,11.7h0Z" fill="none"/><path d="M15.1,11.2s0-.1,0-.1h0s0,.1,0,.1Z"/><path d="M15.1,11.1h0Z" fill="none"/><path d="M14.8,10.5h0Z"/><path d="M14.6,9.9h0Z"/><path d="M14.7,9.3h0Z"/><path d="M15.1,8.7h-.2a.1.1,0,0,0,0-.1.1.1,0,0,1,0,.1h.1Z"/><path d="M15.2,8.2h0Z" fill="none"/><path d="M17.4,12.3h-.2l-.6-.2-.6-.2-.9-.6a2.7,2.7,0,0,1-.2-.6,2.8,2.8,0,0,1-.1-.6,2.6,2.6,0,0,1,.1-.7,3.5,3.5,0,0,1,.5-.9,6,6,0,0,0-.5.9,2.8,2.8,0,0,0-.1.7,3.8,3.8,0,0,0,.3,1c.1.3.3.3.5.5l.5.3.6.2.6.2.3.2Z" fill="#326221"/><path d="M17.4,12.3h-.2l-.6-.2-.6-.2-.9-.6a2.8,2.8,0,0,1-.2-.6h0a2.5,2.5,0,0,1-.1-.6,2.8,2.8,0,0,1,.1-.7,3.7,3.7,0,0,1,.5-.9,7.8,7.8,0,0,0-.5.9,2.8,2.8,0,0,0-.1.7,3.8,3.8,0,0,0,.3,1,.9.9,0,0,0,.4.4h.1l.5.3.6.2.6.2.3.2Zm-2.1-4a4.1,4.1,0,0,0-.5.9,2.9,2.9,0,0,0-.1.7,2.4,2.4,0,0,0,.1.6h0a2.8,2.8,0,0,0,.2.6l.9.6.6.2.6.2h.2l-.2-.2-.6-.2-.6-.2-.5-.3h-.1a.9.9,0,0,1-.4-.4,3.9,3.9,0,0,1-.3-1,2.7,2.7,0,0,1,.1-.7,6.1,6.1,0,0,1,.5-.9Z"/><path d="M15,11.1h.1a.2.2,0,0,0,0-.1H15a.5.5,0,0,1,0,.1.2.2,0,0,0,0,.1v.2Z" fill="#326221"/><path d="M15,11.1v-.2a.2.2,0,0,1,0-.1.3.3,0,0,0,0-.1h.2a.2.2,0,0,1,0,.1H15Zm0-.6h0a.5.5,0,0,1,0,.1h0v.2h.1a.2.2,0,0,0,0-.1H15Z"/><path d="M15,11v-.2h0a.2.2,0,0,1,0-.2H15a.3.3,0,0,1,0,.1h0a.7.7,0,0,0,0,.3Z" fill="#326221"/><path d="M15,11.1v-.2h0a.2.2,0,0,1,0-.2H15a.3.3,0,0,1,0,.1.1.1,0,0,0,0,.1h0a.6.6,0,0,0,0,.3Zm0-.7h-.1a.2.2,0,0,0,0,.2h0V11a.7.7,0,0,1,0-.2h0a.3.3,0,0,0,0-.1Z"/><path d="M16.3,11.8h-.4v-.2h.5Z" fill="#326221"/><path d="M16.3,11.8h0Z"/><path d="M16.5,11.9h-.5v-.2h.4v.3Z" fill="#326221"/><path d="M16.5,11.9h0v-.2h0v.2Z"/><path d="M16.6,11.9l-.3-.2h-.2v-.2h.3v.2h.2Z" fill="#326221"/><path d="M16.6,11.9l-.3-.2h-.2v-.2h.6Zm-.6-.6v.2h.2l.3.2H16Z"/><path d="M16.3,11.9h0Z" fill="#326221"/><path d="M16.1,11.9Zm-.1,0h0Z"/><path d="M16.4,11.9h0Z" fill="#326221"/><path d="M15.8,12h0Zm.1-.2h0Z"/><path d="M16.5,12h0Z" fill="#326221"/><path d="M16.1,12.2h0Zm-.2,0h0Z"/><path d="M15.5,11.5h0Z" fill="#326221"/><path d="M15.5,11.5h-.2l.2.2Zm-.5-.4h0Z"/><path d="M15.6,11.6H15s0,.1,0,.1h.6Z" fill="#326221"/><path d="M15.6,11.6h0Zm-.3,0h0Z"/><path d="M15.7,11.6h0Z" fill="#326221"/><path d="M15.3,11.7h0Z"/><path d="M15.7,11.6s0-.2,0-.2h-.1v0c0,.1,0,0,0,.1v.2h.2Z" fill="#326221"/><path d="M15.7,11.6h-.2v-.2a.1.1,0,0,0,0-.1.3.3,0,0,1,.1-.2v.2h.1s0,.2,0,.2Zm-.1-.6v.2c0,.1,0,.1,0,.1v.2h.2s0-.2,0-.2h-.1v-.2Z"/><path d="M15.7,11.6h-.3v-.2h.2v.3Z" fill="#326221"/><path d="M15.7,11.6h-.2v.3h.1Zm-.3-.7h.2v-.3h-.1Z"/><path d="M15,11.1h-.4v-.3h.4l.2.2v.2Z" fill="#326221"/><path d="M15,11.1h-.4v-.3h.3l.2.2H15Zm-.1,0H15l-.2-.2h.1Z"/><path d="M15,11.1h-.2l-.2-.2h-.1v-.2h.4v.2Z" fill="#326221"/><path d="M15,11.1h-.2l-.2-.2h.2v.4Zm-.2-.1H15v-.2h-.2l.2.2Z"/><path d="M14.8,10.4s0-.2,0-.2h.1a.6.6,0,0,0,0-.2h-.2a.2.2,0,0,0,0,.1.4.4,0,0,1,0,.1v.2Z" fill="#326221"/><path d="M14.8,10.4h0v-.2h0a.2.2,0,0,1,0-.1h.2a.5.5,0,0,1,0,.2h-.1Zm.1-.6h-.2v.3h.1a.5.5,0,0,0,0-.2Z"/><path d="M14.8,10.4s0-.1,0-.1h.1c0-.1,0-.1,0-.2h-.2a.2.2,0,0,0,0,.1Z" fill="#326221"/><path d="M14.8,10.4h0a.2.2,0,0,1,0-.2h.2a.2.2,0,0,1,0,.1h-.2Zm.1-.4h-.2a.2.2,0,0,0,0,.1h.2a.2.2,0,0,0,0-.1Z"/><path d="M14.6,9.7s0-.1,0-.2V9.3a.6.6,0,0,0,0,.1.2.2,0,0,1,0,.1h-.2Z" fill="#326221"/><path d="M14.6,9.7h0s0-.2,0-.2h.2a.2.2,0,0,1,0,.1h-.2Zm.2-.4h-.1s0,.2,0,.2h.2a.2.2,0,0,0,0-.1.2.2,0,0,1,0-.1Z"/><path d="M14.6,9.7s0-.1,0-.1h.2a.4.4,0,0,1,0,.2h-.2Z" fill="#326221"/><path d="M14.6,9.7h0s0-.1,0-.1h.2a.3.3,0,0,1,0,.2h-.2Zm.3-.4h0a.4.4,0,0,0,0-.2Z"/><path d="M14.8,10.4h-.4V9.9h.5Z" fill="#326221"/><path d="M14.8,10.4h0Zm-.5-.5h0Z"/><path d="M14.8,10.4h-.3c0-.1,0-.2,0-.2h.3a.7.7,0,0,1,.1.2Z" fill="#326221"/><path d="M14.8,10.4h-.3V9.8h.3a.5.5,0,0,1,0,.2Zm-.3-.6a.6.6,0,0,1,0,.1h.3v-.2h-.3Z"/><path d="M14.7,9.8s0-.1-.1-.1h-.3V9.3h.3s0,.1,0,.1Z" fill="#326221"/><path d="M14.7,9.8h-.3V9.3h.3s0,0,0,.1Zm-.3-.5h0a.3.3,0,0,0,0,.1h0Z"/><path d="M14.7,9.8h-.2a.2.2,0,0,1,0-.1h.2c0,.1,0,.1,0,.1h0a.6.6,0,0,1,0,.2Z" fill="#326221"/><path d="M14.7,9.8h-.2a.2.2,0,0,1,0-.1h.2a.1.1,0,0,1,0,.1h0a.6.6,0,0,1,0,.2Zm-.2-.6h0a.1.1,0,0,0,0,.1h.2a.5.5,0,0,0,0-.2h-.2Z"/><path d="M14.7,9.2h0Z" fill="#326221"/><path d="M14.7,9.2h0Zm.3-.4h0Z"/><path d="M14.7,9.1h0a.3.3,0,0,1,0-.2h.1l-.2.2Z" fill="#326221"/><path d="M14.7,9.1h0a.3.3,0,0,1,0-.2h0Zm.2-.4h-.2a.2.2,0,0,0,0,.2h.2Z"/><path d="M14.7,9.2h-.1V8.7h.1s0,.1,0,.1,0,.1,0,.1Z" fill="#326221"/><path d="M14.7,9.2h.1a.1.1,0,0,1,0,.1h0a.1.1,0,0,1,0,.1h-.1Zm0-.5h.1a.1.1,0,0,0,0-.1.1.1,0,0,1,0-.1.1.1,0,0,0,0-.1Z"/><path d="M15,8.7h0Z" fill="#326221"/><path d="M15,8.7h0Z"/><path d="M15,8.6h.2c0-.1,0-.2,0-.1H15a.2.2,0,0,0-.1.2Z" fill="#326221"/><path d="M15,8.7h0a.2.2,0,0,1,.1-.2h.2a.2.2,0,0,1,0,.2H15Zm.2-.4H15a.1.1,0,0,0-.1.2h.2a.2.2,0,0,0,0-.1Z"/><path d="M15,8.6h0a.2.2,0,0,0,0,.1.3.3,0,0,1,0,.1Z" fill="#326221"/><path d="M14.9,8.7h0a.1.1,0,0,0,0-.1.3.3,0,0,1,0-.1h0Zm.1-.4H15a.2.2,0,0,0,0,.1h.1Z"/><path d="M16.1,11.8h0Z"/><path d="M15.8,11.9h0Z"/><path d="M15.8,12.1h0Z"/><path d="M16.2,11.8h0Z"/><path d="M16.4,11.9l-.3-.3-.3-.2h0l.3.2.3.3Z"/><path d="M16.5,11.9h-.1v-.2h-.1l-.2-.2h0l.2.2h.1v.2Z"/><path d="M15.3,11.4l-.2-.2h0l.2.2Z"/><path d="M15.6,11.5h-.3l-.3-.2h0l.3.2Z"/><path d="M15.4,11.6h0Z"/><path d="M15.5,11.5v-.2h-.1a.6.6,0,0,1,0-.2h0a.5.5,0,0,0,0,.2h.1v.2Z"/><path d="M15.7,11.6h-.2a.3.3,0,0,1,0-.1h0s0,.1,0,.1h.2Z"/><path d="M14.7,10.8h0Z"/><path d="M15,11h0a.9.9,0,0,1,0-.2.7.7,0,0,0,0-.2h0v.2a.8.8,0,0,0,0,.2h0Z"/><path d="M14.9,10.9a.5.5,0,0,1,0-.2h0a.5.5,0,0,0,0,.2Z"/><path d="M15,11v-.2l-.2-.2h0l.2.2V11Z"/><path d="M14.5,10.2h-.1V10h0v.2Z"/><path d="M14.8,10.4h0Z"/><path d="M14.8,10.3a.6.6,0,0,1,0-.3h0a.7.7,0,0,0,0,.3Z"/><path d="M14.7,10.4h-.1V10h0v.2Z"/><path d="M14.5,9.6V9.4h0v.2Z"/><path d="M14.7,9.6h0Z"/><path d="M14.7,9.7h0Z"/><path d="M14.6,9.7h-.1a.5.5,0,0,1,0-.2h0a.5.5,0,0,0,0,.1h.1v.2Z"/><path d="M14.8,9.1l.2-.2h0l-.2.2Z"/><path d="M14.8,9h0V8.8h0v.2Z"/><path d="M14.7,9.1h0a.2.2,0,0,1,0-.1s0-.2,0-.2h0a1.3,1.3,0,0,1,0,.2.3.3,0,0,0,0,.1Z"/><path d="M15.1,8.6h0Z"/><polygon points="15.1 8.5 15.1 8.5 15.2 8.3 15.2 8.3 15.1 8.5 15.1 8.5"/><path d="M15,8.6V8.4h0v.2Z"/><path d="M16.6,8.2a1.7,1.7,0,0,1,0-.3V7.5h.1v.4s0,.1,0,.1Z" fill="#1f189b"/><path d="M16.8,7.9h.1v.2c0,.1,0,.1,0,.1Z" fill="#fff"/><path d="M16.8,7.9h0a.6.6,0,0,1,0,.2h-.1Z" fill="#1f189b"/><path d="M16.6,8.2a1.1,1.1,0,0,1,0-.3V7.5h.1v.2a.6.6,0,0,1,0,.2h0a.6.6,0,0,0,0-.2V7.5h-.1v.4a1.7,1.7,0,0,0,0,.3Z"/><path d="M16.8,7.4h0Z" fill="#f5cb27"/><path d="M16.8,7.5h0Z"/><path d="M16.8,7.4h0Z" fill="none"/><path d="M16.8,7.4h0Z" fill="none"/><path d="M16.7,7.4h0Z" fill="#f5cb27"/><path d="M16.7,7.5h0Z"/><path d="M16.7,7.4h0Z" fill="none"/><path d="M16.7,7.4h0Z" fill="none"/><path d="M16.8,7.4h0Z" fill="#f5cb27"/><path d="M16.8,7.4h0Z"/><path d="M16.7,7.4h0Z" fill="#f5cb27"/><path d="M16.7,7.4h0Z"/><path d="M16.8,7.4h0Z" fill="#f5cb27"/><ellipse cx="16.8" cy="7.4" transform="translate(5 21.4) rotate(-74)" fill="none"/><path d="M16.8,7.2h0Z" fill="#f5cb27"/><path d="M16.8,7.4h0Z"/><path d="M16.8,7.2h0Z" fill="none"/><path d="M17.7,9.4V9c0-.2,0-.3,0-.6l-.2.3a.8.8,0,0,1,0,.2v.2Z" fill="#fff"/><path d="M17.5,9.1V8.9a.8.8,0,0,0,0-.2l-.2.2Z" fill="#1f189b"/><path d="M18.1,9.3h0a3.5,3.5,0,0,0,0-.5,3.6,3.6,0,0,1,0-.5h0l-.3.3c0,.2,0,.3,0,.6v.4h.1Z" fill="#1f189b"/><polygon points="17.3 8.9 18.1 8.1 18.1 8.1 17.4 8.9 17.3 8.9" fill="#f5cb27"/><polygon points="17.4 8.9 17.3 8.9 18 8.1 17.8 8.4 17.3 8.9 17.4 8.9 17.5 8.7 17.4 8.9 17.4 8.9"/><path d="M17.8,8.8h0c.2,0,.2-.5.2-.5h0s-.1.5-.2.5Z" fill="#162b44"/><path d="M17.8,8.8h0c.1,0,.2-.1.2-.2v0c0,.1-.1.2-.2.2Z" fill="#172c48"/><path d="M17.8,8.8h0c.1,0,.2-.1.2-.2v0c0,.1-.1.2-.2.2Z" fill="#182e4d"/><path d="M17.8,8.8h0c.1,0,.2-.2.2-.2v0c0,.1-.1.2-.2.2Z" fill="#19304f"/><path d="M17.8,8.8h0c.1,0,.2-.2.2-.2v0c0,.1-.1.2-.2.2Z" fill="#1a3253"/><path d="M17.8,8.8h0c.1,0,.2-.2.2-.2v0c0,.1-.1.2-.2.2Z" fill="#1c3458"/><path d="M17.8,8.8h0c.1,0,.2-.2.2-.2v0s-.1.2-.2.2Z" fill="#1d365b"/><path d="M17.8,8.8h0l.2-.2v0s-.1.2-.2.2Z" fill="#1d385d"/><path d="M17.8,8.8h0c.1,0,.2-.2.2-.2v0s-.1.2-.2.2Z" fill="#1e3a61"/><path d="M17.8,8.8h0l.2-.2v0l-.2.2Z" fill="#203c66"/><path d="M17.8,8.8h0l.2-.2v0l-.2.3Z" fill="#213e69"/><path d="M17.8,8.8h0l.2-.2v0l-.2.2Z" fill="#22406d"/><path d="M17.8,8.8h0l.2-.3v0l-.2.3Z" fill="#234271"/><path d="M17.8,8.7l.2-.2V8.3h0v.2l-.2.3Z" fill="#1f189b"/><path d="M17.8,8.5c.1,0,.2-.4.2-.4h0s-.1.3-.2.4Z" fill="#162b44"/><path d="M17.8,8.5h0l.2-.2v0l-.2.2Z" fill="#172d4a"/><path d="M17.8,8.5h0l.2-.2v0l-.2.2Z" fill="#19304f"/><path d="M17.8,8.5h0l.2-.2v0l-.2.2Z" fill="#1a3354"/><path d="M17.8,8.5h0l.2-.2v0l-.2.2Z" fill="#1c3559"/><path d="M17.8,8.5h0l.2-.2v0l-.2.2Z" fill="#1e395f"/><path d="M17.8,8.5h0l.2-.2v0l-.2.2Z" fill="#1f3b64"/><path d="M17.8,8.5h0l.2-.2v0l-.2.2Z" fill="#213e69"/><path d="M17.8,8.5h0l.2-.2v0l-.2.2Z" fill="#234270"/><path d="M17.8,8.5l.2-.2V8.2h0v.2l-.2.2Z" fill="#1f189b"/><path d="M17.5,8.8h0Z" fill="none"/><path d="M17.5,8.9h0Z" fill="none"/><path d="M17.5,8.8h0Z" fill="none"/><path d="M17.5,8.8h0Z" fill="none"/><path d="M17.5,8.8h0Z" fill="none"/><path d="M17.5,8.8h0Z" fill="none"/><path d="M17.5,8.8h0Z" fill="none"/><path d="M17.5,8.8h0Z" fill="none"/><path d="M17.5,8.8h0Z" fill="none"/><path d="M17.5,8.8h0Z" fill="none"/><path d="M17.5,8.9h0Z" fill="none"/><path d="M17.5,8.9h0Z" fill="none"/><path d="M17.5,8.9h0Z" fill="none"/><path d="M17.5,8.9h0Z" fill="none"/><path d="M17.5,8.9h0Z" fill="none"/><path d="M17.5,8.9h0Z" fill="none"/><path d="M17.5,8.9h0Z" fill="none"/><path d="M17.5,8.9h0Z" fill="none"/><path d="M17.5,8.9h0Z" fill="none"/><path d="M17.5,8.9h0Z" fill="none"/><path d="M17.5,8.9h0Z" fill="none"/><path d="M18.1,9.3h0c0-.1,0-.1,0-.2a2.3,2.3,0,0,0,0-.3h0a2,2,0,0,1,0-.4h0l-.7.8.7-.8h0a2,2,0,0,0,0,.4h0a2,2,0,0,1,0,.3v.2Z"/><path d="M17.8,9.3l.2-.2h0V9l-.2.2Z" fill="#162b44"/><path d="M17.8,9.3h0l.2-.2h.1V9H18l-.2.2Z" fill="#172c48"/><path d="M17.8,9.3h0l.2-.2h.1V9H18l-.2.2Z" fill="#182e4d"/><path d="M17.8,9.3h0l.2-.2h.1V9H18l-.2.2Z" fill="#19304f"/><path d="M17.8,9.3h0l.2-.2h.1V9H18l-.2.2Z" fill="#1a3253"/><path d="M17.8,9.3h0l.2-.2H18V9H18l-.2.2Z" fill="#1c3458"/><path d="M17.8,9.3h0l.2-.2h.1V9H18l-.2.2Z" fill="#1d365b"/><path d="M17.8,9.3h0l.2-.2h.1V9H18l-.2.2Z" fill="#1d385d"/><path d="M17.8,9.3h0l.2-.2h.1V9H18l-.2.2Z" fill="#1e3a61"/><path d="M17.8,9.3H18V9h-.2Z" fill="#203c66"/><path d="M17.8,9.3H18V9h-.2Z" fill="#213e69"/><path d="M17.8,9.3H18V9h-.2Z" fill="#22406d"/><path d="M17.8,9.3H18V9h-.2Z" fill="#234271"/><path d="M17.8,9.3H18V8.9h0v.2h-.2Z" fill="#1f189b"/><path d="M17.8,9.5h0l.3-.2h0l-.3.2Z" fill="#112236"/><path d="M17.8,9.5h0l.3-.2h0l-.3.2Z" fill="#122337"/><path d="M17.8,9.5h0l.3-.2h0l-.3.2Z" fill="#132539"/><path d="M17.8,9.5h0l.3-.2h0l-.3.2Z" fill="#14263b"/><path d="M17.8,9.5h0l.3-.2h0l-.3.2Z" fill="#14263d"/><path d="M17.7,9.5h0l.3-.2h0l-.3.2Z" fill="#14273f"/><path d="M17.7,9.5h0l.3-.2h0l-.3.2Z" fill="#152942"/><path d="M17.7,9.5h0l.3-.2h0l-.3.2Z" fill="#152942"/><path d="M17.7,9.5h0l.3-.2h0l-.3.2Z" fill="#162b44"/><path d="M17.7,9.5h0l.3-.2h0l-.3.2Z" fill="#172c48"/><path d="M17.7,9.5h0l.3-.2h0l-.3.2Z" fill="#172d4a"/><path d="M17.7,9.5h0l.3-.2h0l-.3.2Z" fill="#182d4b"/><path d="M17.7,9.5h0l.3-.2h0l-.3.2Z" fill="#182e4d"/><path d="M17.7,9.5h0l.3-.2h0l-.3.2Z" fill="#19304f"/><path d="M17.7,9.5h0l.3-.2h0l-.3.2Z" fill="#1a3150"/><path d="M17.7,9.5h0l.3-.2h0l-.3.2Z" fill="#1a3253"/><path d="M17.7,9.5h.3l-.3.2Z" fill="#1b3356"/><path d="M17.7,9.5h0l.3-.2h0l-.3.2Z" fill="#1c3458"/><path d="M17.7,9.5a.3.3,0,0,1,0-.1.7.7,0,0,1,0,.1l.3-.2h0l-.3.2Z" fill="#1c3559"/><path d="M17.7,9.5a.3.3,0,0,1,0-.1h0l.3-.2h0l-.3.2Z" fill="#1d375c"/><path d="M17.7,9.4h.3l-.3.2Z" fill="#1d385d"/><path d="M17.7,9.4h0Z" fill="#1e395f"/><path d="M17.7,9.4h0Z" fill="#1e3a61"/><path d="M17.7,9.4h0Z" fill="#1f3b64"/><path d="M17.8,9.4h0Z" fill="#203c66"/><path d="M17.8,9.4h0Z" fill="#203d67"/><path d="M17.8,9.4h0Z" fill="#213f6b"/><path d="M17.8,9.4h0Z" fill="#22406d"/><path d="M17.8,9.4h0Z" fill="#22406e"/><path d="M17.8,9.4h0Z" fill="#234270"/><path d="M17.8,9.4h0Z" fill="#244472"/><path d="M17.8,9.4h0Z" fill="#1f189b"/><path d="M18,8.1h0Z" fill="#f5cb27"/><path d="M18,8.1h0Z" fill="none"/><path d="M18.1,8.1h.1a.1.1,0,0,0,0-.1h-.1Z" fill="#f5cb27"/><path d="M18.1,8.2h0s0-.1,0-.1h0a.1.1,0,0,1,0,.1Z"/><path d="M18.1,8.1h0Z" fill="#f5cb27"/><path d="M18.1,8.1h0Z" fill="none"/><path d="M18.2,7.9h-.1a.2.2,0,0,1,0,.1h.1Z" fill="#f5cb27"/><path d="M18.1,8.1h0a.2.2,0,0,0,0-.1h0Zm.1-.1h-.1a.2.2,0,0,1,0,.1h.1Z"/><path d="M18.1,8h-.1s0,0,0,0h.1Z" fill="none"/><path d="M18.1,8.1h0s0,0,0,0a.3.3,0,0,0,0,.1h0Z" fill="#f5cb27"/><path d="M18.1,8.2h0Z"/><path d="M18.1,8.1h0Z" fill="none"/><path d="M18.1,8.1a.2.2,0,0,0,0,.1h0Z" fill="none"/><path d="M18.1,8.2h0Z" fill="none"/><path d="M16.8,11.1h-.1s0-.1,0-.2v-.2h0V11s0,.1,0,.2h-.1Z" fill="#fff"/><path d="M16.8,10.7V11s0,.1,0,.2h-.1Z" fill="#1f189b"/><path d="M16.9,11.1a.2.2,0,0,0,0-.2v-.2h0v.2c0,.1.1.1,0,.2Z" fill="#0c1a27"/><path d="M16.9,11.1a.2.2,0,0,0,0-.2v-.2h0v.2c0,.1.1.1,0,.2Z" fill="#112236"/><path d="M16.9,11.1a.2.2,0,0,0,0-.2v-.2h0v.2c0,.1.1.1,0,.2Z" fill="#162b44"/><path d="M16.9,11.1a.2.2,0,0,0,0-.2v-.2h0v.2a.2.2,0,0,1,0,.2Z" fill="#1a3354"/><path d="M16.9,11.1a.2.2,0,0,0,0-.2v-.2h0v.2c0,.1.1.1,0,.2Z" fill="#1f3b64"/><path d="M16.9,11.1a.2.2,0,0,0,0-.2v-.2h0v.2a.2.2,0,0,1,0,.2Z" fill="#1f189b"/><path d="M16.9,11.1a.2.2,0,0,0,0-.2v-.2h0v.2c0,.1.1.1,0,.2Z" fill="#112236"/><path d="M16.9,11.1a.2.2,0,0,0,0-.2v-.2h0v.2c0,.1.1.1,0,.2Z" fill="#162b44"/><path d="M16.9,11.1a.2.2,0,0,0,0-.2v-.2h0v.2c0,.1.1.1,0,.2Z" fill="#1a3354"/><path d="M16.9,11.1a.2.2,0,0,0,0-.2v-.2h0v.2c0,.1.1.1,0,.2Z" fill="#1f3b64"/><path d="M16.9,11.1a.2.2,0,0,0,0-.2v-.2h0v.2c0,.1.1.1.1.2Z" fill="#1f189b"/><path d="M16.8,10.7V11s0,.1,0,.2h-.1a.1.1,0,0,1,0,0h.2Z" fill="#1f189b"/><path d="M16.6,11.1a.1.1,0,0,1,0-.2v-.2h0v.2c0,.1-.1.1-.1.2Z" fill="#0c1a27"/><path d="M16.6,11.1a.1.1,0,0,1,0-.2v-.2h0v.2c0,.1-.1.1,0,.2Z" fill="#112236"/><path d="M16.6,11.1a.1.1,0,0,1,0-.2v-.2h0v.2c0,.1-.1.1,0,.2Z" fill="#162b44"/><path d="M16.6,11.1a.2.2,0,0,1,0-.2v-.2h0v.2c0,.1-.1.1,0,.2Z" fill="#1a3354"/><path d="M16.6,11.1a.2.2,0,0,1,0-.2v-.2h0v.2a.2.2,0,0,0,0,.2Z" fill="#1f3b64"/><path d="M16.7,11.1a.2.2,0,0,1,0-.2v-.2h0v.2a.2.2,0,0,0,0,.2Z" fill="#1f189b"/><path d="M16.6,11.1a.1.1,0,0,1,0-.2v-.2h0v.2c0,.1-.1.1,0,.2Z" fill="#112236"/><path d="M16.6,11.1a.1.1,0,0,1,0-.2v-.2h0v.2c0,.1-.1.1,0,.2Z" fill="#162b44"/><path d="M16.6,11.1a.1.1,0,0,1,0-.2v-.2h0v.2c0,.1-.1.1,0,.2Z" fill="#1a3354"/><path d="M16.6,11.1a.1.1,0,0,1,0-.2v-.2h0v.2c0,.1-.1.1,0,.2Z" fill="#1f3b64"/><path d="M16.6,11.1a.1.1,0,0,1,0-.2v-.2h0v.2c0,.1-.1.1,0,.2Z" fill="#1f189b"/><path d="M16.7,11.1h0Zm.1,0H17a.1.1,0,0,0,0,0h-.1Z"/><path d="M17.9,9.8h0a.6.6,0,0,0,0-.2h-.2Z" fill="#1f189b"/><polygon points="17.7 9.5 18.6 9 18.6 9 17.8 9.6 17.7 9.5" fill="#f5cb27"/><polygon points="17.8 9.6 17.7 9.5 18.6 9 18.2 9.2 17.7 9.5 17.8 9.6 17.8 9.6 17.9 9.5 17.8 9.6 17.8 9.6"/><path d="M18.4,10.6h.1v-.2a3.9,3.9,0,0,0,0-.4,2.7,2.7,0,0,1,0-.5s0-.1,0-.1l-.3.2c0,.2,0,.3,0,.5a1.1,1.1,0,0,1-.1.4Z" fill="#1f189b"/><path d="M18.4,10.6l-.3-.4h0l.3.4h0Z" fill="#112236"/><path d="M18.4,10.6v0h0Z" fill="#112236"/><path d="M18.4,10.6v0h0Z" fill="#122337"/><path d="M18.4,10.6l-.2-.3v-.2h.1l.2.3h0Z" fill="#122337"/><path d="M18.4,10.6v0h0Z" fill="#122438"/><path d="M18.4,10.6v0h0Z" fill="#122438"/><path d="M18.4,10.5v0h0Z" fill="#132539"/><path d="M18.4,10.5v0h0Z" fill="#132539"/><path d="M18.4,10.5v0h0Z" fill="#14263b"/><path d="M18.4,10.5v0h0Z" fill="#14263b"/><path d="M18.4,10.5v0h0Z" fill="#14263b"/><path d="M18.4,10.5v0h0Z" fill="#14263d"/><path d="M18.4,10.5v0h0Z" fill="#14263d"/><path d="M18.4,10.5v0h0Z" fill="#14273f"/><path d="M18.4,10.5v0h0Z" fill="#14273f"/><path d="M18.4,10.5v0h.1v-.2h0v.2h-.1Z" fill="#152740"/><path d="M18.4,10.5v0h.1v-.2h-.2Z" fill="#152740"/><path d="M18.4,10.5v0h.1v-.2h-.2Z" fill="#152942"/><path d="M18.4,10.5v-.2h0v.2h.1v-.2h-.2Z" fill="#152942"/><path d="M18.4,10.5v-.3h.1v.2h.1v-.2h0v.2h-.1Z" fill="#152942"/><path d="M18.4,10.5v-.3h.1v.2h.1v-.2h-.2Z" fill="#152942"/><path d="M18.4,10.5v-.2h0v.2h.1v-.2h-.2Z" fill="#152942"/><path d="M18.4,10.5v-.2h0v.2h.1v-.2h-.2Z" fill="#162b44"/><path d="M18.4,10.5v-.2h0v.2h.1v-.2h-.2Z" fill="#162b44"/><path d="M18.4,10.5v-.2h0v.2h.1v-.2h-.2Z" fill="#162c46"/><path d="M18.4,10.5v-.2h0v.2h.1v-.2h-.2Z" fill="#162c46"/><path d="M18.4,10.5v-.2h0v.2h.2v.2h-.1Z" fill="#172c48"/><path d="M18.4,10.4v-.2h0v.2h.1v-.2h0v.2h-.1Z" fill="#172c48"/><path d="M18.4,10.4v-.2h0v.2h.1v-.2h0v.2h-.1Z" fill="#172c48"/><path d="M18.4,10.4v-.2h0v.2h0Z" fill="#172d4a"/><path d="M18.4,10.4v-.2h0v.2h.1v-.2h0v.2h-.1Z" fill="#172d4a"/><path d="M18.4,10.4v-.2h0v.2h.1v-.2h0v.2h-.1Z" fill="#182d4b"/><path d="M18.4,10.4v-.2h0v.2h.1v-.2h-.2Z" fill="#182d4b"/><path d="M18.4,10.4h.1v-.2h-.2Z" fill="#182e4d"/><path d="M18.4,10.4v-.2h.3v-.2h-.2Z" fill="#182e4d"/><path d="M18.4,10.4h.1v-.2h-.2Z" fill="#192f4e"/><path d="M18.4,10.4h.1v-.2h-.2Z" fill="#192f4e"/><path d="M18.4,10.4h.1v-.2h-.2Z" fill="#192f4e"/><path d="M18.4,10.4h.1v-.2h-.2Z" fill="#19304f"/><path d="M18.4,10.4h.1v-.2h-.2Z" fill="#19304f"/><path d="M18.4,10.4h.1v-.2h-.2Z" fill="#1a3150"/><path d="M18.4,10.4h.1v-.2h-.2Z" fill="#1a3150"/><path d="M18.4,10.4h.1v-.2h-.2Z" fill="#1a3253"/><path d="M18.4,10.4h.1v-.2h-.2Z" fill="#1a3253"/><path d="M18.4,10.4h.1v-.2h-.2Z" fill="#1a3354"/><path d="M18.4,10.4h0Z" fill="#1a3354"/><path d="M18.4,10.4h0Z" fill="#1a3354"/><path d="M18.4,10.4h0Z" fill="#1b3356"/><path d="M18.4,10.3h0Z" fill="#1b3356"/><path d="M18.4,10.3h0Z" fill="#1c3458"/><path d="M18.4,10.3h0Z" fill="#1c3458"/><path d="M18.4,10.3h0Z" fill="#1c3559"/><path d="M18.4,10.3h0Z" fill="#1c3559"/><path d="M18.4,10.3h0Z" fill="#1d365b"/><path d="M18.4,10.3h0Z" fill="#1d365b"/><path d="M18.4,10.3h0Z" fill="#1d365b"/><path d="M18.4,10.3h0Z" fill="#1d375c"/><path d="M18.4,10.3h0Z" fill="#1d375c"/><path d="M18.4,10.3h0Z" fill="#1d385d"/><path d="M18.4,10.3h0Z" fill="#1d385d"/><path d="M18.4,10.3h0Z" fill="#1e395f"/><path d="M18.4,10.3h0Z" fill="#1e395f"/><path d="M18.4,10.3h0Z" fill="#1e3a61"/><path d="M18.4,10.3h0Z" fill="#1e3a61"/><path d="M18.3,10.3h0Z" fill="#1e3a61"/><path d="M18.3,10.3h0Z" fill="#1f3b62"/><path d="M18.3,10.3h0Z" fill="#1f3b62"/><path d="M18.3,10.3h0Z" fill="#1f3b64"/><path d="M18.3,10.3h0Z" fill="#1f3b64"/><path d="M18.3,10.3h0Z" fill="#203c66"/><path d="M18.3,10.2h0Z" fill="#203c66"/><path d="M18.3,10.2h0Z" fill="#203d67"/><path d="M18.3,10.2h0Z" fill="#203d67"/><path d="M18.3,10.2h0Z" fill="#203d67"/><path d="M18.3,10.2h0Z" fill="#213e69"/><path d="M18.3,10.2h0Z" fill="#213e69"/><path d="M18.3,10.2h0Z" fill="#213f6b"/><path d="M18.3,10.2h0Z" fill="#213f6b"/><path d="M18.3,10.2h0Z" fill="#22406d"/><path d="M18.3,10.2h0Z" fill="#22406d"/><path d="M18.3,10.2h0Z" fill="#22406e"/><path d="M18.3,10.2h0Z" fill="#22406e"/><path d="M18.3,10.2h0Z" fill="#22406e"/><path d="M18.3,10.2h0Z" fill="#234270"/><path d="M18.3,10.2h0Z" fill="#234270"/><path d="M18.3,10.2h0Z" fill="#234271"/><path d="M18.3,10.2h0Z" fill="#234271"/><path d="M18.3,10.2h0Z" fill="#244472"/><path d="M18.3,10.2h0Z" fill="#244472"/><path d="M18.2,10.2h0Z" fill="#1f189b"/><path d="M18.2,10.2h-.1a.5.5,0,0,0,.4-.1h-.3Z" fill="#1f189b"/><path d="M18.3,9.9l.2-.2V9.4h0v.3l-.2.2Z" fill="#162b44"/><path d="M18.3,9.9l.2-.2V9.4h0v.3a.5.5,0,0,1-.2.2Z" fill="#172d4a"/><path d="M18.3,9.9l.2-.2V9.4h0v.3l-.2.2Z" fill="#182e4d"/><path d="M18.3,9.9l.2-.2V9.4h0v.3l-.2.2Z" fill="#1a3150"/><path d="M18.3,9.9l.2-.2V9.4h0v.3l-.2.2Z" fill="#1a3354"/><path d="M18.3,9.9l.2-.2V9.4h0v.3l-.2.2Z" fill="#1c3559"/><path d="M18.3,9.9l.2-.2V9.4h0v.3l-.2.2Z" fill="#1d375c"/><path d="M18.3,9.9l.2-.2V9.4h0v.3l-.2.2Z" fill="#1e395f"/><path d="M18.3,9.9l.2-.2V9.4h0v.3l-.2.2Z" fill="#1f3b64"/><path d="M18.3,9.9l.2-.2V9.4h0v.3l-.2.2Z" fill="#203d67"/><path d="M18.3,9.9l.2-.2V9.4h0v.3l-.2.2Z" fill="#22406d"/><path d="M18.3,9.9l.2-.2V9.4h0v.3l-.2.2Z" fill="#234271"/><path d="M18.3,9.9l.2-.2V9.4h0v.3l-.2.2Z" fill="#1f189b"/><path d="M18.2,9.7c.3-.1.3-.5.3-.5h0s0,.4-.3.5Z" fill="#162b44"/><path d="M18.2,9.7l.2-.3V9.2h0v.2l-.2.3Z" fill="#172d4a"/><path d="M18.2,9.7l.2-.3V9.2h0v.2l-.2.3Z" fill="#182e4d"/><path d="M18.2,9.7l.2-.3V9.2h0v.2l-.2.3Z" fill="#1a3150"/><path d="M18.2,9.7l.2-.3V9.2h0v.2l-.2.2Z" fill="#1a3354"/><path d="M18.2,9.7l.2-.3V9.2h0v.2l-.2.3Z" fill="#1c3559"/><path d="M18.2,9.7l.2-.3V9.2h0v.2l-.2.3Z" fill="#1d375c"/><path d="M18.2,9.7l.2-.3V9.2h0v.2l-.2.3Z" fill="#1e395f"/><path d="M18.2,9.7l.2-.3V9.2h0v.2l-.2.3Z" fill="#1f3b64"/><path d="M18.2,9.7l.2-.3V9.2h0v.2l-.2.3Z" fill="#203d67"/><path d="M18.2,9.7l.2-.2V9.2h0v.2l-.2.3Z" fill="#22406d"/><path d="M18.2,9.7l.2-.2V9.2h0v.2l-.2.3Z" fill="#234271"/><path d="M18.2,9.7l.2-.2V9.2h0v.2l-.2.3Z" fill="#1f189b"/><path d="M18.2,9.5c.2-.1.3-.4.3-.4h0s-.1.3-.3.4Z" fill="#162b44"/><path d="M18.2,9.5l.2-.2V9.1h0v.2l-.2.2Z" fill="#172c48"/><path d="M18.2,9.5l.2-.2V9.1h0v.2l-.2.2Z" fill="#182d4b"/><path d="M18.2,9.5l.2-.2V9.1h0v.2l-.2.2Z" fill="#192f4e"/><path d="M18.2,9.5l.2-.2V9.1h0v.2l-.2.2Z" fill="#1a3253"/><path d="M18.2,9.5l.2-.2V9.1h0v.2l-.2.2Z" fill="#1b3356"/><path d="M18.2,9.5l.2-.2V9.1h0v.2l-.2.2Z" fill="#1c3559"/><path d="M18.2,9.5l.2-.2V9.1h0v.2l-.2.2Z" fill="#1d375c"/><path d="M18.2,9.5l.2-.2V9.1h0v.2l-.2.2Z" fill="#1e395f"/><path d="M18.2,9.5l.2-.2V9.1h0v.2l-.2.2Z" fill="#1f3b62"/><path d="M18.2,9.5l.2-.2V9.1h0v.2l-.2.2Z" fill="#203c66"/><path d="M18.2,9.5l.2-.2V9.1h0v.2l-.2.2Z" fill="#213f6b"/><path d="M18.2,9.5l.2-.2V9.1h0v.2l-.2.2Z" fill="#22406e"/><path d="M18.2,9.5l.2-.2V9.1h0v.2l-.2.2Z" fill="#234271"/><path d="M18.2,9.5l.2-.2V9.1h0v.2l-.2.2Z" fill="#1f189b"/><path d="M17.9,9.5h0Z" fill="none"/><path d="M17.9,9.6h0Z" fill="none"/><path d="M17.9,9.5h0Z" fill="none"/><path d="M17.9,9.5h0Z" fill="none"/><path d="M17.9,9.5h0Z" fill="none"/><path d="M17.9,9.5h0Z" fill="none"/><path d="M17.9,9.6h0Z" fill="none"/><path d="M17.9,9.6h0Z" fill="none"/><path d="M17.9,9.6h0Z" fill="none"/><path d="M17.9,9.6h0Z" fill="none"/><path d="M17.9,9.6h0Z" fill="none"/><path d="M17.9,9.6h0Z" fill="none"/><path d="M17.9,9.6h0Z" fill="none"/><path d="M17.9,9.6h0Z" fill="none"/><path d="M17.9,9.6h0Z" fill="none"/><path d="M17.9,9.6h0Z" fill="none"/><path d="M17.9,9.6h0Z" fill="none"/><path d="M17.9,9.6h0Z" fill="none"/><path d="M17.9,9.6h0Z" fill="none"/><path d="M17.9,9.6h0Z" fill="none"/><path d="M17.9,9.6h0Z" fill="none"/><path d="M18.4,10.6h.2V9.9a1,1,0,0,0,0-.3h0a2.1,2.1,0,0,1,0-.3.6.6,0,0,0,0-.1l-.8.5.8-.5h0a1.9,1.9,0,0,0,0,.3h0a1,1,0,0,1,0,.3v.2h-.2Z"/><path d="M18.6,9h-.1a0,0,0,0,1,0-.1h.1Z" fill="#f5cb27"/><path d="M18.6,9h0Z"/><path d="M18.6,9h.1a.1.1,0,0,1,0,0h-.1Z" fill="#f5cb27"/><path d="M18.6,9.1h0a.1.1,0,0,1,0,.1Z"/><path d="M18.6,9h0Z" fill="#f5cb27"/><path d="M18.6,9h0Z" fill="none"/><path d="M18.8,8.9h0Z" fill="#f5cb27"/><path d="M18.7,9h0Zm0,0h0Z"/><path d="M18.7,8.9h0Z" fill="none"/><path d="M18.6,9.1h0s0,0,0,0Z" fill="#f5cb27"/><path d="M18.6,9.2h0s0,0,0,0h0s0,0,0,.1Z"/><path d="M18.6,9h0Z" fill="none"/><path d="M18.6,9.1h0Z" fill="none"/><path d="M18.6,9.1h0Z" fill="none"/><path d="M17.8,10.7h0Z" fill="#1f189b"/><path d="M17.3,10.7h0Z" fill="#fff"/><path d="M17.3,10.7h0Z" fill="#1f189b"/><path d="M17.9,10.7h0Z" fill="#172d4a"/><path d="M17.9,10.7h0Z" fill="#182e4d"/><path d="M17.9,10.7h0Z" fill="#1a3150"/><path d="M17.9,10.7h0Z" fill="#1a3354"/><path d="M17.9,10.7h0Z" fill="#1c3559"/><path d="M17.9,10.7h0Z" fill="#1d375c"/><path d="M17.9,10.7h0Z" fill="#1e395f"/><path d="M17.9,10.7h0Z" fill="#1f3b64"/><path d="M17.9,10.7h0Z" fill="#203d67"/><path d="M17.9,10.8h0Z" fill="#22406d"/><path d="M17.9,10.8h0Z" fill="#234271"/><polygon points="18.2 10.7 17.8 10.7 18.2 10.7 18.2 10.7 18.2 10.7" fill="#162b44"/><path d="M17.9,10.8h0Z" fill="#1f189b"/><path d="M17.6,10.9Z" fill="#172d4a"/><path d="M17.6,10.9h0Z" fill="#19304f"/><path d="M17.6,10.9h0Z" fill="#1a3354"/><path d="M17.6,10.9h0Z" fill="#1c3559"/><path d="M17.6,10.9h0Z" fill="#1e395f"/><path d="M17.6,10.9h0Z" fill="#1f3b64"/><path d="M17.6,10.9h0Z" fill="#213e69"/><path d="M17.6,10.9h0Z" fill="#234270"/><polygon points="17.6 10.9 17.4 10.9 17.6 10.9 17.7 10.9 17.7 10.9 17.6 10.9 17.6 10.9" fill="#162b44"/><path d="M17.6,10.9h0Z" fill="#1f189b"/><path d="M17.1,10.9h0Z" fill="#1f189b"/><path d="M17.1,10.9h0Z" fill="#1f189b"/><path d="M17.1,10.9h0Z" fill="#213f6b"/><path d="M17.1,10.9h0Z" fill="#1e3a61"/><path d="M17.1,10.9h0Z" fill="#1c3458"/><path d="M17.1,10.9h0Z" fill="#192f4e"/><path d="M17.1,10.9h0Z" fill="#213f6b"/><path d="M17.1,10.9h0Z" fill="#1e3a61"/><path d="M17.1,10.9h0Z" fill="#1c3458"/><path d="M17.1,10.9h0Z" fill="#192f4e"/><polygon points="17.1 10.9 16.9 10.8 16.9 10.8 16.8 10.7 16.9 10.8 16.9 10.8 17.1 10.9 17.1 10.9 17.1 10.9" fill="#162b44"/><path d="M17,10.7h0Z" fill="#172d4a"/><path d="M17,10.7h0Z" fill="#182e4d"/><path d="M17,10.7h0Z" fill="#1a3150"/><path d="M17,10.7h0Z" fill="#1a3354"/><path d="M17,10.7h0Z" fill="#1c3559"/><path d="M17,10.7h0Z" fill="#1d375c"/><path d="M17,10.7h0Z" fill="#1e395f"/><path d="M17,10.7h0Z" fill="#1f3b64"/><path d="M17,10.7h0Z" fill="#203d67"/><path d="M17,10.8h0Z" fill="#22406d"/><path d="M17,10.8h0Z" fill="#234271"/><polygon points="17.3 10.7 16.9 10.7 17.3 10.7 17.3 10.7 17.3 10.7" fill="#162b44"/><path d="M17,10.8h0Z" fill="#1f189b"/><path d="M17.5,11h0Z"/><path d="M15.4,12.1h.1v.2h.1l-.2.3h-.1c-.1,0-.1-.1-.1-.2h.1Z" fill="#f5cb27"/><polygon points="15.1 12.3 15.2 12.2 15.1 12.1 15.1 12.1 15.2 12.2 15.3 12.1 15.2 12 15.2 12 15.4 12.1 15.2 12.4 15 12.3 15 12.2 15.1 12.3" fill="#f5cb27"/><path d="M15.1,11.8h.1l-.2.3h-.1c-.1-.1-.1-.1,0-.2h.3Z" fill="#f5cb27"/><path d="M14.6,11.9h.1s.1-.1,0-.1h0a.1.1,0,0,1,0,.2Z" fill="#f5cb27"/><path d="M14.3,11.6h-.1c0-.1,0-.1,0-.1h.3Z" fill="#f5cb27"/><polygon points="14.4 11.1 14.3 11 14.4 11 14.5 11.1 14.1 11.3 14.1 11.2 14.4 11.1" fill="#f5cb27"/><polygon points="14.3 10.8 14.3 10.9 14 11 14 11 14.3 10.8" fill="#f5cb27"/><path d="M13.9,10.6a.1.1,0,0,0,0,.1h.2a.1.1,0,0,0,.1-.1h.1a.2.2,0,0,1-.1.2h-.2Z" fill="#f5cb27"/><polygon points="14.1 10.3 14.2 10.4 14.2 10.4 13.8 10.4 13.8 10.3 14.1 10.1 14.1 10.2 14 10.2 14.1 10.3" fill="#f5cb27"/><path d="M13.7,9.7h0a.2.2,0,0,1,.2-.2.2.2,0,0,1,.2.2h-.4Z" fill="#f5cb27"/><polygon points="13.8 9.2 13.9 9.2 14 9.1 14 9.1 14 9.2 14.1 9.3 14.1 9.1 14.2 9.1 14.1 9.3 13.8 9.3 13.8 9.1 13.9 9.1 13.8 9.2" fill="#f5cb27"/><polygon points="14 8.7 14.1 8.7 14.1 8.6 14.2 8.7 14.1 8.8 14.2 8.8 14.3 8.7 14.3 8.7 14.2 8.9 13.9 8.8 14 8.6 14 8.6 14 8.7" fill="#f5cb27"/><polygon points="14.3 8.5 14.4 8.4 14.4 8.5 14.4 8.6 14 8.5 14.1 8.4 14.3 8.5" fill="#f5cb27"/><path d="M14.4,8h-.1a0,0,0,0,0,0,.1h.2a.1.1,0,0,1,0,.2h0a.1.1,0,0,0,0-.1h-.2a.1.1,0,0,1,0-.2h.1Z" fill="#f5cb27"/><polygon points="14.7 7.9 14.8 8 14.7 8 14.6 7.7 14.6 7.6 15 7.8 14.9 7.8 14.8 7.8 14.7 7.9" fill="#f5cb27"/><polygon points="15 7.7 15.1 7.6 15.2 7.6 15 7.7 14.8 7.5 14.9 7.4 15 7.7" fill="#f5cb27"/><polygon points="15.3 7.4 15.3 7.4 15.2 7.2 15.3 7.1 15.4 7.5 15.3 7.5 15 7.3 15.1 7.3 15.3 7.4" fill="#f5cb27"/><polygon points="15.6 7.3 15.6 7.4 15.5 7.4 15.5 7 15.5 7 15.8 7.3 15.8 7.3 15.7 7.2 15.6 7.3" fill="#f5cb27"/><path d="M15.8,6.9h.3a.2.2,0,0,1-.1.2h-.1Z" fill="#f5cb27"/><path d="M16.2,7a.2.2,0,0,1,.2-.2.2.2,0,0,1,.1.4.2.2,0,0,1-.2-.2Z" fill="#f5cb27"/><path d="M17,7.1h-.3V6.7h.1Z" fill="#f5cb27"/><polygon points="17.5 6.9 17.5 7 17.6 7 17.6 7 17.4 7 17.4 7.1 17.5 7.1 17.5 7.2 17.3 7.2 17.4 6.8 17.6 6.9 17.6 6.9 17.5 6.9" fill="#f5cb27"/><polygon points="17.8 6.9 17.8 6.9 17.9 7.2 17.9 7.2 18 7 18.1 7 17.9 7.4 17.9 7.3 17.8 7 17.8 7 17.7 7.3 17.6 7.2 17.8 6.9" fill="#f5cb27"/><polygon points="18.2 7.5 18.3 7.5 18.3 7.6 18.1 7.5 18.3 7.2 18.4 7.2 18.2 7.5" fill="#f5cb27"/><polygon points="18.5 7.6 18.4 7.6 18.3 7.6 18.7 7.4 18.7 7.4 18.6 7.8 18.5 7.8 18.6 7.7 18.5 7.6" fill="#f5cb27"/><polygon points="19 8.1 18.9 8.1 18.8 8.1 19.2 8 19.3 8 19.1 8.4 19 8.3 19.1 8.2 19 8.1" fill="#f5cb27"/><polygon points="19.4 8.6 19.4 8.6 19.2 8.6 19.2 8.6 19.3 8.4 19.3 8.4 19.1 8.5 19.1 8.4 19.4 8.3 19.5 8.3 19.3 8.5 19.6 8.5 19.6 8.5 19.3 8.8 19.2 8.7 19.4 8.6" fill="#f5cb27"/><polygon points="19.6 8.8 19.5 8.8 19.6 8.9 19.5 9 19.5 8.9 19.4 8.9 19.4 9 19.3 9 19.3 8.8 19.6 8.7 19.7 8.9 19.6 8.9 19.6 8.8" fill="#f5cb27"/><path d="M19.4,9.4h.3c0,.1,0,.1-.1.1h-.2Z" fill="#f5cb27"/><polygon points="19.4 9.5 19.4 9.4 19.8 9.4 19.8 9.5 19.4 9.5" fill="#f5cb27"/><path d="M19.7,9.9h-.3a.2.2,0,0,1,.2-.2.2.2,0,0,1,.2.2h-.1Z" fill="#f5cb27"/><polygon points="19.5 10.1 19.5 10 19.5 9.9 19.8 10.1 19.8 10.2 19.4 10.3 19.4 10.2 19.5 10.2 19.5 10.1" fill="#f5cb27"/><path d="M19.5,11h.1a.1.1,0,0,0-.1-.2h-.2a.1.1,0,0,0,0,.1h.2a.2.2,0,0,1,.1.2h-.1Z" fill="#f5cb27"/><polygon points="19.4 11.2 19.3 11.2 19.3 11.3 19.2 11.2 19.3 11.1 19.2 11.1 19.1 11.2 19.1 11.2 19.2 11 19.5 11.2 19.4 11.3 19.4 11.3 19.4 11.2" fill="#f5cb27"/><polygon points="19.3 11.5 19.3 11.5 19 11.5 19 11.5 19.2 11.7 19.1 11.7 18.8 11.5 18.9 11.5 19.2 11.4 19.2 11.4 19 11.3 19 11.2 19.3 11.5" fill="#f5cb27"/><polygon points="18.7 11.7 18.7 11.6 19 11.8 19 11.8 19.1 11.8 18.9 12 18.9 11.9 18.9 11.9 18.7 11.7" fill="#f5cb27"/><path d="M18.4,11.9h.2l.2.3h-.2a.1.1,0,0,1,0-.1Z" fill="#f5cb27"/><polygon points="18.3 12.1 18.3 12 18.4 12 18.4 12.4 18.4 12.4 18.1 12.2 18.1 12.1 18.2 12.2 18.3 12.1" fill="#f5cb27"/><polygon points="18 12.3 17.9 12.3 17.8 12.3 18 12.2 18.1 12.5 18.1 12.5 18 12.3" fill="#f5cb27"/><path d="M15.8,9.4V9c0-.2,0-.3,0-.6l.2.3a1.4,1.4,0,0,0,0,.2v.2Z" fill="#fff"/><path d="M16,9.1V8.9a1.4,1.4,0,0,1,0-.2l.2.2Z" fill="#1f189b"/><path d="M15.4,9.3h0a3.1,3.1,0,0,1,0-.5,3.9,3.9,0,0,0,0-.5h0l.3.3c0,.2,0,.3,0,.6v.4h-.1Z" fill="#1f189b"/><polygon points="16.2 8.9 15.5 8.1 15.4 8.1 16.1 8.9 16.2 8.9" fill="#f5cb27"/><polygon points="16.1 8.9 15.4 8.1 15.8 8.4 16.1 8.9 16.2 8.9 16.1 8.8 16.2 8.9 16.1 8.9 16.1 8.9"/><path d="M15.7,8.8c-.2,0-.2-.5-.2-.5h0s.1.5.3.5Z" fill="#162b44"/><path d="M15.7,8.8c-.1,0-.2-.1-.2-.2v0c0,.1.1.2.2.2h0Z" fill="#172c48"/><path d="M15.7,8.8c-.1,0-.2-.2-.2-.2v0c0,.1.1.2.2.2Z" fill="#182e4d"/><path d="M15.7,8.8c-.1,0-.2-.2-.2-.2v0c0,.1.1.2.2.2Z" fill="#19304f"/><path d="M15.7,8.8c-.1,0-.2-.2-.2-.2v0c0,.1.1.2.2.2Z" fill="#1a3253"/><path d="M15.7,8.8l-.2-.2v0l.2.2Z" fill="#1c3458"/><path d="M15.7,8.8l-.2-.2v0l.2.2Z" fill="#1d365b"/><path d="M15.7,8.8c-.1,0-.2-.2-.2-.2v0s.1.2.2.2Z" fill="#1d385d"/><path d="M15.7,8.8l-.2-.2v0l.2.2Z" fill="#1e3a61"/><path d="M15.7,8.8l-.2-.2v0l.2.2Z" fill="#203c66"/><path d="M15.7,8.8l-.2-.2v0l.2.2Z" fill="#213e69"/><path d="M15.7,8.8l-.2-.2v0l.2.2Z" fill="#22406d"/><path d="M15.7,8.8l-.2-.3v0l.2.3Z" fill="#234271"/><path d="M15.7,8.7l-.2-.2V8.3h0v.2l.2.3Z" fill="#1f189b"/><path d="M15.7,8.5c-.1,0-.2-.3-.2-.3h0s.1.3.2.4Z" fill="#162b44"/><path d="M15.7,8.5l-.2-.2V8.2h0v.2l.2.2h0Z" fill="#172d4a"/><path d="M15.7,8.5l-.2-.2v0l.2.2h0Z" fill="#19304f"/><path d="M15.7,8.5l-.2-.2v0l.2.2h0Z" fill="#1a3354"/><path d="M15.7,8.5l-.2-.2V8.2h0v.2l.2.2h0Z" fill="#1c3559"/><path d="M15.7,8.5l-.2-.2V8.2h0v.2l.2.2h0Z" fill="#1e395f"/><path d="M15.7,8.5l-.2-.2v0l.2.2h0Z" fill="#1f3b64"/><path d="M15.7,8.5l-.2-.2v0l.2.2h0Z" fill="#213e69"/><path d="M15.7,8.5l-.2-.2v0l.2.2h0Z" fill="#234270"/><path d="M15.7,8.5l-.2-.2V8.2h0v.2l.2.2Z" fill="#1f189b"/><path d="M16,8.8h0Z" fill="none"/><path d="M16,8.9h0Z" fill="none"/><path d="M16,8.8h0Z" fill="none"/><path d="M16,8.8h0Z" fill="none"/><path d="M16,8.8h0Z" fill="none"/><path d="M16,8.8h0Z" fill="none"/><path d="M16,8.8h0Z" fill="none"/><path d="M16,8.8h0Z" fill="none"/><path d="M16,8.8h0Z" fill="none"/><path d="M16,8.8h0Z" fill="none"/><path d="M16,8.9h0Z" fill="none"/><path d="M16,8.9h0Z" fill="none"/><path d="M16,8.9h0Z" fill="none"/><path d="M16,8.9h0Z" fill="none"/><path d="M16,8.9h0Z" fill="none"/><path d="M16,8.9h0Z" fill="none"/><path d="M16,8.9h0Z" fill="none"/><path d="M16,8.9h0Z" fill="none"/><path d="M16,8.9h0Z" fill="none"/><path d="M16,8.9h0Z" fill="none"/><path d="M16,8.9h0Z" fill="none"/><path d="M15.4,9.3h0V9a1.8,1.8,0,0,1,0-.3h0a2.9,2.9,0,0,0,0-.4.4.4,0,0,1,0-.1h0l.7.8-.7-.8h0a2.1,2.1,0,0,1,0,.4h0a1.8,1.8,0,0,0,0,.3c0,.1,0,.1,0,.2h0Z"/><path d="M15.7,9.3,15.4,9V8.9h0l.2.2Z" fill="#162b44"/><path d="M15.7,9.3l-.2-.2h-.1V9h.1l.2.2Z" fill="#172c48"/><path d="M15.7,9.3l-.2-.2h-.1V8.9h.1l.2.2Z" fill="#182e4d"/><path d="M15.7,9.3l-.2-.2h-.1V8.9h.1l.2.2Z" fill="#19304f"/><path d="M15.7,9.3l-.2-.2h-.1V8.9h.1l.2.2Z" fill="#1a3253"/><path d="M15.7,9.3l-.2-.2h0l.2.2Z" fill="#1c3458"/><path d="M15.7,9.3h-.2V8.9h.1l.2.2Z" fill="#1d365b"/><path d="M15.7,9.3h-.2V8.9h.1l.2.2Z" fill="#1d385d"/><path d="M15.7,9.3l-.2-.2h0l.2.2Z" fill="#1e3a61"/><path d="M15.7,9.3h-.2V8.9h.1l.2.2Z" fill="#203c66"/><path d="M15.7,9.3h-.2V8.9h.3Z" fill="#213e69"/><path d="M15.7,9.3h-.2V8.9h.3Z" fill="#22406d"/><path d="M15.7,9.3h-.2V8.9h.3Z" fill="#234271"/><path d="M15.7,9.3h-.2V8.9h0v.2h.2Z" fill="#1f189b"/><path d="M15.8,9.5l-.3-.2h0l.3.2h0Z" fill="#112236"/><path d="M15.7,9.5l-.3-.2h0l.3.2Z" fill="#122337"/><path d="M15.7,9.5l-.3-.2h0l.3.2Z" fill="#132539"/><path d="M15.7,9.5l-.3-.2h0l.3.2Z" fill="#14263b"/><path d="M15.7,9.5l-.3-.2h0l.3.2Z" fill="#14263d"/><path d="M15.7,9.5l-.3-.2h0l.3.2Z" fill="#14273f"/><path d="M15.7,9.5l-.3-.2h0l.3.2Z" fill="#152942"/><path d="M15.7,9.5l-.3-.2h0l.3.2Z" fill="#152942"/><path d="M15.7,9.4h-.3l.3.2Z" fill="#162b44"/><path d="M15.7,9.4h0Z" fill="#172c48"/><path d="M15.7,9.4h0Z" fill="#172d4a"/><path d="M15.7,9.4h0Z" fill="#182d4b"/><path d="M15.7,9.4h0Z" fill="#182e4d"/><path d="M15.7,9.4h0Z" fill="#19304f"/><path d="M15.7,9.4h0Z" fill="#1a3150"/><path d="M15.7,9.4h0Z" fill="#1a3253"/><path d="M15.7,9.4h0Z" fill="#1b3356"/><path d="M15.7,9.4h0Z" fill="#1c3458"/><path d="M15.7,9.4h0Z" fill="#1c3559"/><path d="M15.7,9.4h0Z" fill="#1d375c"/><path d="M15.7,9.4h0Z" fill="#1d385d"/><path d="M15.7,9.4h0Z" fill="#1e395f"/><path d="M15.7,9.4h0Z" fill="#1e3a61"/><path d="M15.7,9.4h0Z" fill="#1f3b64"/><path d="M15.7,9.4h0Z" fill="#203c66"/><path d="M15.7,9.4h0Z" fill="#203d67"/><path d="M15.7,9.4h0Z" fill="#213f6b"/><path d="M15.7,9.4h0Z" fill="#22406d"/><path d="M15.7,9.4h0Z" fill="#22406e"/><path d="M15.7,9.4h0Z" fill="#234270"/><path d="M15.7,9.4h0Z" fill="#244472"/><path d="M15.6,9.4h0Z" fill="#1f189b"/><path d="M15.5,8.1h0Z" fill="#f5cb27"/><path d="M15.5,8.1h0Z"/><path d="M15.4,8.1h0Z" fill="#f5cb27"/><path d="M15.4,8.2h0a.1.1,0,0,1,0-.1h0Z"/><path d="M15.4,8.1h0Z" fill="#f5cb27"/><path d="M15.4,8.1h0Z" fill="none"/><path d="M15.3,7.9h.1a.2.2,0,0,0,0,.1h-.1Z" fill="#f5cb27"/><path d="M15.4,8.1h0a.3.3,0,0,1,0-.1h0s0,.1,0,.1Z"/><path d="M15.4,8h.1a.1.1,0,0,0,0,0h-.1Z" fill="none"/><path d="M15.4,8.1h0s0,0,0,0a.2.2,0,0,1,0,.1h0Z" fill="#f5cb27"/><path d="M15.4,8.1h0s0,0,0,0a.2.2,0,0,1,0,.1h0Z" fill="none"/><path d="M15.5,8.1h0a.5.5,0,0,1,0,.1Z" fill="none"/><path d="M15.4,8.1a.2.2,0,0,1,0,.1h0Z" fill="none"/><path d="M15.4,8.2h0Z" fill="none"/><path d="M16.8,11.1h.1s0-.1,0-.2v-.2h0V11s0,.1,0,.2h.1Z" fill="#fff"/><path d="M16.8,10.7V11s0,.1,0,.2h-.1a.1.1,0,0,1,0,0h.2Z" fill="#1f189b"/><path d="M16.6,11.1a.1.1,0,0,1,0-.2v-.2h0v.2c0,.1-.1.1-.1.2Z" fill="#0c1a27"/><path d="M16.6,11.1a.1.1,0,0,1,0-.2v-.2h0v.2c0,.1-.1.1,0,.2Z" fill="#112236"/><path d="M16.6,11.1a.1.1,0,0,1,0-.2v-.2h0v.2c0,.1-.1.1,0,.2Z" fill="#162b44"/><path d="M16.6,11.1a.2.2,0,0,1,0-.2v-.2h0v.2c0,.1-.1.1,0,.2Z" fill="#1a3354"/><path d="M16.6,11.1a.2.2,0,0,1,0-.2v-.2h0v.2a.2.2,0,0,0,0,.2Z" fill="#1f3b64"/><path d="M16.7,11.1a.2.2,0,0,1,0-.2v-.2h0v.2a.2.2,0,0,0,0,.2Z" fill="#1f189b"/><path d="M16.6,11.1a.1.1,0,0,1,0-.2v-.2h0v.2c0,.1-.1.1,0,.2Z" fill="#112236"/><path d="M16.6,11.1a.1.1,0,0,1,0-.2v-.2h0v.2c0,.1-.1.1,0,.2Z" fill="#162b44"/><path d="M16.6,11.1a.1.1,0,0,1,0-.2v-.2h0v.2c0,.1-.1.1,0,.2Z" fill="#1a3354"/><path d="M16.6,11.1a.1.1,0,0,1,0-.2v-.2h0v.2c0,.1-.1.1,0,.2Z" fill="#1f3b64"/><path d="M16.6,11.1a.1.1,0,0,1,0-.2v-.2h0v.2c0,.1-.1.1,0,.2Z" fill="#1f189b"/><path d="M16.8,10.7V11s0,.1,0,.2h-.1Z" fill="#1f189b"/><path d="M16.9,11.1a.2.2,0,0,0,0-.2v-.2h0v.2c0,.1.1.1,0,.2Z" fill="#0c1a27"/><path d="M16.9,11.1a.2.2,0,0,0,0-.2v-.2h0v.2c0,.1.1.1,0,.2Z" fill="#112236"/><path d="M16.9,11.1a.2.2,0,0,0,0-.2v-.2h0v.2c0,.1.1.1,0,.2Z" fill="#162b44"/><path d="M16.9,11.1a.2.2,0,0,0,0-.2v-.2h0v.2a.2.2,0,0,1,0,.2Z" fill="#1a3354"/><path d="M16.9,11.1a.2.2,0,0,0,0-.2v-.2h0v.2c0,.1.1.1,0,.2Z" fill="#1f3b64"/><path d="M16.9,11.1a.2.2,0,0,0,0-.2v-.2h0v.2a.2.2,0,0,1,0,.2Z" fill="#1f189b"/><path d="M16.9,11.1a.2.2,0,0,0,0-.2v-.2h0v.2c0,.1.1.1,0,.2Z" fill="#112236"/><path d="M16.9,11.1a.2.2,0,0,0,0-.2v-.2h0v.2c0,.1.1.1,0,.2Z" fill="#162b44"/><path d="M16.9,11.1a.2.2,0,0,0,0-.2v-.2h0v.2c0,.1.1.1,0,.2Z" fill="#1a3354"/><path d="M16.9,11.1a.2.2,0,0,0,0-.2v-.2h0v.2c0,.1.1.1,0,.2Z" fill="#1f3b64"/><path d="M16.9,11.1a.2.2,0,0,0,0-.2v-.2h0v.2c0,.1.1.1.1.2Z" fill="#1f189b"/><path d="M16.7,11.1h0Zm.1,0H17a.1.1,0,0,0,0,0h-.1Z"/><path d="M15.6,9.8h0a.5.5,0,0,1,0-.2h.2Z" fill="#1f189b"/><polygon points="15.8 9.5 15 9 14.9 9 15.7 9.6 15.8 9.5" fill="#f5cb27"/><polygon points="15.7 9.6 14.9 9 15.3 9.3 15.7 9.6 15.8 9.5 15.7 9.5 15.8 9.5 15.7 9.6 15.7 9.6"/><path d="M15.1,10.6H15v-.2a3.5,3.5,0,0,1,0-.4,2.5,2.5,0,0,0,0-.5h0l.3.2c0,.2,0,.3,0,.5a1.1,1.1,0,0,0,.1.4Z" fill="#1f189b"/><path d="M15.1,10.6h0l.2-.4h0l-.3.4Z" fill="#112236"/><path d="M15.1,10.6h0v0Z" fill="#112236"/><path d="M15.1,10.6h0v0Z" fill="#122337"/><path d="M15.1,10.6h0v-.2l-.2.2Z" fill="#122337"/><path d="M15.1,10.6h0v0Z" fill="#122438"/><path d="M15.1,10.6h0v0Z" fill="#122438"/><path d="M15.1,10.5h0v0Z" fill="#132539"/><path d="M15.1,10.5h0v0Z" fill="#132539"/><path d="M15.1,10.5h0v0Z" fill="#14263b"/><path d="M15.1,10.5h0v0Z" fill="#14263b"/><path d="M15.1,10.5h0v0Z" fill="#14263b"/><path d="M15.1,10.5h0v0Z" fill="#14263d"/><path d="M15.1,10.5h0v0Z" fill="#14263d"/><path d="M15.1,10.5h0v0Z" fill="#14273f"/><path d="M15.1,10.5H15v-.2h.2v0Z" fill="#14273f"/><path d="M15.1,10.5H15v-.2h.2v0Z" fill="#152740"/><path d="M15.1,10.5h0v0Z" fill="#152740"/><path d="M15.1,10.5h0v0Z" fill="#152942"/><path d="M15.1,10.5H15v-.2h.2v0Z" fill="#152942"/><path d="M15.1,10.5H15v-.2h.2v-.2h.1v.3Z" fill="#152942"/><path d="M15.1,10.5H15v-.2h.2v0Z" fill="#152942"/><path d="M15.1,10.5h0v0Z" fill="#152942"/><path d="M15.1,10.5H15v-.2h0v.2h.1v-.2h0v.2Z" fill="#162b44"/><path d="M15.1,10.5H15v-.2h.2v-.2h.1v.3Z" fill="#162b44"/><path d="M15.1,10.5H15v-.2h0v.2h.1v-.2h0v.2Z" fill="#162c46"/><path d="M15.1,10.5h0v-.2h0v.2Z" fill="#162c46"/><path d="M15.1,10.5H15v-.2h0v.2h.1v-.2h0v.2Z" fill="#172c48"/><path d="M15.1,10.4H15v-.2h0v.2h.1v-.2h0v.2Z" fill="#172c48"/><path d="M15.1,10.4H15v-.2h0v.2h.1v-.2h0v.2Z" fill="#172c48"/><path d="M15.1,10.4H15v-.2h0v.2h.1v-.2h0v.2Z" fill="#172d4a"/><path d="M15.1,10.4H15v-.2h.2v-.2h0v.2Z" fill="#172d4a"/><path d="M15.1,10.4H15v-.2h.2v-.2h0v.2Z" fill="#182d4b"/><path d="M15.1,10.4Z" fill="#182d4b"/><path d="M15.1,10.4h0Z" fill="#182e4d"/><path d="M15.1,10.4Z" fill="#182e4d"/><path d="M15.1,10.4h0Z" fill="#192f4e"/><path d="M15.1,10.4H15v-.2h.2Z" fill="#192f4e"/><path d="M15.1,10.4H15v-.2h.2Z" fill="#192f4e"/><path d="M15.1,10.4H15v-.2h.2Z" fill="#19304f"/><path d="M15.1,10.4H15v-.2h.2Z" fill="#19304f"/><path d="M15.1,10.4H15v-.2h.2Z" fill="#1a3150"/><path d="M15.1,10.4H15v-.2h.2Z" fill="#1a3150"/><path d="M15.1,10.4H15v-.2h.2Z" fill="#1a3253"/><path d="M15.1,10.4H15v-.2h.2Z" fill="#1a3253"/><path d="M15.1,10.4H15v-.2h.2Z" fill="#1a3354"/><path d="M15.1,10.4h0Z" fill="#1a3354"/><path d="M15.1,10.4h0Z" fill="#1a3354"/><path d="M15.1,10.4h0Z" fill="#1b3356"/><path d="M15.1,10.3h0Z" fill="#1b3356"/><path d="M15.1,10.3h0Z" fill="#1c3458"/><path d="M15.1,10.3h0Z" fill="#1c3458"/><path d="M15.1,10.3h0Z" fill="#1c3559"/><path d="M15.1,10.3h0Z" fill="#1c3559"/><path d="M15.1,10.3h0Z" fill="#1d365b"/><path d="M15.1,10.3h0Z" fill="#1d365b"/><path d="M15.1,10.3h0Z" fill="#1d365b"/><path d="M15.2,10.3h0Z" fill="#1d375c"/><path d="M15.2,10.3h0Z" fill="#1d375c"/><path d="M15.2,10.3h0Z" fill="#1d385d"/><path d="M15.2,10.3h0Z" fill="#1d385d"/><path d="M15.2,10.3h0Z" fill="#1e395f"/><path d="M15.2,10.3h0Z" fill="#1e395f"/><path d="M15.2,10.3h0Z" fill="#1e3a61"/><path d="M15.2,10.3h0Z" fill="#1e3a61"/><path d="M15.2,10.3h0Z" fill="#1e3a61"/><path d="M15.2,10.3h0Z" fill="#1f3b62"/><path d="M15.2,10.3h0Z" fill="#1f3b62"/><path d="M15.2,10.3h0Z" fill="#1f3b64"/><path d="M15.2,10.3h0Z" fill="#1f3b64"/><path d="M15.2,10.3h0Z" fill="#203c66"/><path d="M15.2,10.2h0Z" fill="#203c66"/><path d="M15.2,10.2h0Z" fill="#203d67"/><path d="M15.2,10.2h0Z" fill="#203d67"/><path d="M15.2,10.2h0Z" fill="#203d67"/><path d="M15.2,10.2h0Z" fill="#213e69"/><path d="M15.2,10.2h0Z" fill="#213e69"/><path d="M15.2,10.2h0Z" fill="#213f6b"/><path d="M15.2,10.2h0Z" fill="#213f6b"/><path d="M15.2,10.2h0Z" fill="#22406d"/><path d="M15.2,10.2h0Z" fill="#22406d"/><path d="M15.2,10.2h0Z" fill="#22406e"/><path d="M15.2,10.2h0Z" fill="#22406e"/><path d="M15.2,10.2h0Z" fill="#22406e"/><path d="M15.2,10.2h0Z" fill="#234270"/><path d="M15.2,10.2h0Z" fill="#234270"/><path d="M15.2,10.2h0Z" fill="#234271"/><path d="M15.2,10.2h0Z" fill="#234271"/><path d="M15.2,10.2h0Z" fill="#244472"/><path d="M15.2,10.2h0Z" fill="#244472"/><path d="M15.3,10.2h0Z" fill="#1f189b"/><path d="M15.3,10.2H15a.5.5,0,0,0,.4.1Z" fill="#1f189b"/><path d="M15.2,9.9,15,9.7V9.4h0v.3l.2.2Z" fill="#162b44"/><path d="M15.2,9.9a.4.4,0,0,1-.2-.2V9.4h0v.3l.2.2Z" fill="#172d4a"/><path d="M15.2,9.9,15,9.7V9.4h0v.3l.2.2Z" fill="#182e4d"/><path d="M15.2,9.9,15,9.7V9.4h0v.3l.2.2Z" fill="#1a3150"/><path d="M15.2,9.9,15,9.7V9.4h0v.3l.2.2Z" fill="#1a3354"/><path d="M15.2,9.9,15,9.7V9.4h0v.3l.2.2Z" fill="#1c3559"/><path d="M15.2,9.9,15,9.7V9.4h0v.3l.2.2Z" fill="#1d375c"/><path d="M15.2,9.9,15,9.7V9.4h0v.3l.2.2Z" fill="#1e395f"/><path d="M15.3,9.9,15,9.7V9.4h0v.3l.2.2Z" fill="#1f3b64"/><path d="M15.3,9.9,15,9.7V9.4h0v.3l.2.2Z" fill="#203d67"/><path d="M15.3,9.9,15,9.7V9.4h0v.3l.2.2Z" fill="#22406d"/><path d="M15.3,9.9l-.2-.2V9.4h0v.3l.2.2Z" fill="#234271"/><path d="M15.3,9.9l-.2-.2V9.4h0v.3l.2.2Z" fill="#1f189b"/><path d="M15.3,9.7c-.3-.1-.3-.5-.3-.5h0s0,.4.3.5Z" fill="#162b44"/><path d="M15.3,9.7,15,9.5V9.2h0v.2l.2.2Z" fill="#172d4a"/><path d="M15.3,9.7,15,9.5V9.2h0v.2l.2.2Z" fill="#182e4d"/><path d="M15.3,9.7,15,9.5V9.2h0v.2l.2.2Z" fill="#1a3150"/><path d="M15.3,9.7l-.2-.2V9.2h0v.2l.2.2Z" fill="#1a3354"/><path d="M15.3,9.7l-.2-.2V9.2h0v.2l.2.3Z" fill="#1c3559"/><path d="M15.3,9.7l-.2-.2V9.2h0v.2l.2.3Z" fill="#1d375c"/><path d="M15.3,9.7l-.2-.2V9.2h0v.2l.2.3Z" fill="#1e395f"/><path d="M15.3,9.7l-.2-.2V9.2h0v.2l.2.3Z" fill="#1f3b64"/><path d="M15.3,9.7l-.2-.2V9.2h0v.2l.2.3Z" fill="#203d67"/><path d="M15.3,9.7l-.2-.2V9.2h0v.2l.2.3Z" fill="#22406d"/><path d="M15.3,9.7l-.2-.2V9.2h0v.2l.2.3Z" fill="#234271"/><path d="M15.3,9.7l-.2-.2V9.2h0v.2l.2.3Z" fill="#1f189b"/><path d="M15.3,9.5c-.2-.1-.3-.4-.3-.4h0s.1.3.3.4Z" fill="#162b44"/><path d="M15.3,9.5l-.2-.2V9.1h0v.2l.2.2Z" fill="#172c48"/><path d="M15.3,9.5l-.2-.2V9.1h0v.2l.2.2Z" fill="#182d4b"/><path d="M15.3,9.5l-.2-.2V9.1h0v.2l.2.2Z" fill="#192f4e"/><path d="M15.3,9.5l-.2-.2V9.1h0v.2l.2.2Z" fill="#1a3253"/><path d="M15.3,9.5l-.2-.2V9.1h0v.2l.2.2Z" fill="#1b3356"/><path d="M15.3,9.5l-.2-.2V9.1h0v.2l.2.2Z" fill="#1c3559"/><path d="M15.3,9.5l-.2-.2V9.1h0v.2l.2.2Z" fill="#1d375c"/><path d="M15.3,9.5l-.2-.2V9.1h0v.2l.2.2Z" fill="#1e395f"/><path d="M15.3,9.5l-.2-.2V9.1h0v.2l.2.2Z" fill="#1f3b62"/><path d="M15.3,9.5l-.2-.2V9.1h0v.2l.2.2Z" fill="#203c66"/><path d="M15.3,9.5l-.2-.2V9.1h0v.2l.2.2Z" fill="#213f6b"/><path d="M15.3,9.5l-.2-.2V9.1h0v.2l.2.2Z" fill="#22406e"/><path d="M15.3,9.5l-.2-.2V9.1h0v.2l.2.2Z" fill="#234271"/><path d="M15.3,9.5l-.2-.2V9.1h0v.2l.2.2Z" fill="#1f189b"/><path d="M15.6,9.5h0Z" fill="none"/><path d="M15.6,9.6h0Z" fill="none"/><path d="M15.6,9.5h0Z" fill="none"/><path d="M15.6,9.5h0Z" fill="none"/><path d="M15.6,9.5h0Z" fill="none"/><path d="M15.6,9.5h0Z" fill="none"/><path d="M15.6,9.6h0Z" fill="none"/><path d="M15.6,9.6h0Z" fill="none"/><path d="M15.6,9.6h0Z" fill="none"/><path d="M15.6,9.6h0Z" fill="none"/><path d="M15.6,9.6h0Z" fill="none"/><path d="M15.6,9.6h0Z" fill="none"/><path d="M15.6,9.6h0Z" fill="none"/><path d="M15.6,9.6h0Z" fill="none"/><path d="M15.6,9.6h0Z" fill="none"/><path d="M15.6,9.6h0Z" fill="none"/><path d="M15.6,9.6h0Z" fill="none"/><path d="M15.6,9.6h0Z" fill="none"/><path d="M15.6,9.6h0Z" fill="none"/><path d="M15.6,9.6h0Z" fill="none"/><path d="M15.6,9.6h0Z" fill="none"/><path d="M15.1,10.6H15V9.9a1.1,1.1,0,0,1,0-.3h0a1.6,1.6,0,0,0,0-.3.6.6,0,0,1,0-.1h0a1.8,1.8,0,0,1,0,.3h0a1,1,0,0,0,0,.3v.2h.2Z"/><path d="M14.9,9H15s0,0,0-.1h-.1Z" fill="#f5cb27"/><path d="M14.9,9h0Z"/><path d="M14.9,9h-.1a.1.1,0,0,0,0,0h.1Z" fill="#f5cb27"/><path d="M14.9,9.1h0Z"/><path d="M14.9,9h0Z" fill="#f5cb27"/><path d="M14.9,9h0Z" fill="none"/><path d="M14.8,8.9h0Z" fill="#f5cb27"/><path d="M14.8,9h0Zm-.1-.1h0Z"/><path d="M14.8,8.9h0Z" fill="none"/><path d="M14.9,9.1h0s0,0,0,0Z" fill="#f5cb27"/><path d="M14.9,9.1h0s0,0,0,0Z" fill="none"/><path d="M14.9,9h0Z" fill="none"/><path d="M15,9.1h0Z" fill="none"/><path d="M14.9,9.1h0Z" fill="none"/><path d="M15.7,10.7h0Z" fill="#1f189b"/><path d="M16.2,10.7h0Z" fill="#fff"/><path d="M16.2,10.7h0Z" fill="#1f189b"/><path d="M15.6,10.7h0Z" fill="#172d4a"/><path d="M15.6,10.7h0Z" fill="#182e4d"/><path d="M15.6,10.7h0Z" fill="#1a3150"/><path d="M15.6,10.7h0Z" fill="#1a3354"/><path d="M15.6,10.7h0Z" fill="#1c3559"/><path d="M15.6,10.7h0Z" fill="#1d375c"/><path d="M15.6,10.7h0Z" fill="#1e395f"/><path d="M15.6,10.7h0Z" fill="#1f3b64"/><path d="M15.6,10.7h0Z" fill="#203d67"/><path d="M15.6,10.8h0Z" fill="#22406d"/><path d="M15.6,10.8h0Z" fill="#234271"/><polygon points="15.3 10.7 15.3 10.7 15.7 10.7 15.3 10.7 15.3 10.7" fill="#162b44"/><path d="M15.6,10.8h0Z" fill="#1f189b"/><path d="M15.9,10.9h0Z" fill="#172d4a"/><path d="M15.9,10.9h0Z" fill="#19304f"/><path d="M15.9,10.9h0Z" fill="#1a3354"/><path d="M15.9,10.9h0Z" fill="#1c3559"/><path d="M15.9,10.9h0Z" fill="#1e395f"/><path d="M15.9,10.9h0Z" fill="#1f3b64"/><path d="M15.9,10.9h0Z" fill="#213e69"/><path d="M15.9,10.9h0Z" fill="#234270"/><polygon points="15.9 10.9 15.8 10.9 15.8 10.9 15.9 10.9 16.1 10.9 16 10.9 15.9 10.9 15.9 10.9" fill="#162b44"/><path d="M15.9,10.9h0Z" fill="#1f189b"/><path d="M16.4,10.9h0Z" fill="#1f189b"/><path d="M16.4,10.9h0Z" fill="#1f189b"/><path d="M16.4,10.9h.2s0,0,0,0h-.2Z" fill="#213f6b"/><path d="M16.4,10.9h0Z" fill="#1e3a61"/><path d="M16.4,10.9h0Z" fill="#1c3458"/><path d="M16.4,10.9h0Z" fill="#192f4e"/><path d="M16.4,10.9h0Z" fill="#213f6b"/><path d="M16.4,10.9h0Z" fill="#1e3a61"/><path d="M16.4,10.9h0Z" fill="#1c3458"/><path d="M16.4,10.9h0Z" fill="#192f4e"/><polygon points="16.4 10.9 16.4 10.9 16.6 10.8 16.6 10.8 16.7 10.7 16.6 10.8 16.6 10.8 16.4 10.9 16.4 10.9" fill="#162b44"/><path d="M16.5,10.7h0Z" fill="#172d4a"/><path d="M16.5,10.7h0Z" fill="#182e4d"/><path d="M16.5,10.7h0Z" fill="#1a3150"/><path d="M16.5,10.7h0Z" fill="#1a3354"/><path d="M16.5,10.7h0Z" fill="#1c3559"/><path d="M16.5,10.7h0Z" fill="#1d375c"/><path d="M16.5,10.7h0Z" fill="#1e395f"/><path d="M16.5,10.7h0Z" fill="#1f3b64"/><path d="M16.5,10.7h0Z" fill="#203d67"/><path d="M16.5,10.8h0Z" fill="#22406d"/><path d="M16.5,10.8h0Z" fill="#234271"/><polygon points="16.2 10.7 16.2 10.7 16.6 10.7 16.2 10.7 16.2 10.7" fill="#162b44"/><path d="M16.5,10.8h0Z" fill="#1f189b"/><path d="M16,11h0Z"/><polygon points="18.4 10.7 16.8 7.9 15.1 10.7 18.4 10.7" fill="#f5cb27"/><path d="M18.5,10.7H15.1l1.7-2.8,1.7,2.8ZM16.7,7.9l-1.7,2.8h3.4L16.7,7.9Z"/><polygon points="18.3 10.6 16.8 8.1 15.2 10.6 18.3 10.6" fill="#fff"/><path d="M18.3,10.6H15.2l1.5-2.6,1.5,2.6ZM16.8,8.1l-1.5,2.6h3L16.8,8.1Z" fill="#fff"/><path d="M16.5,8.5h0Z" fill="#3568a9"/><path d="M16.5,8.5h0Z" fill="#3261a6"/><path d="M16.5,8.5h0Z" fill="#315da4"/><path d="M17,8.5h0Z" fill="#2f56a1"/><path d="M17,8.5h0Z" fill="#2d509e"/><path d="M17,8.5h0Z" fill="#2c4b9b"/><path d="M17,8.5h0Z" fill="#2a4599"/><path d="M17.1,8.6h0Z" fill="#2d007d"/><path d="M17.1,8.6h0Z" fill="#2b0080"/><path d="M17.1,8.6h0Z" fill="#2b0f83"/><path d="M17.1,8.6h0Z" fill="#2a1b87"/><path d="M17.1,8.6h-.6a.4.4,0,0,1,.6,0Z" fill="#282289"/><path d="M17.1,8.5h0Z" fill="#282a8d"/><path d="M17,8.5h0Z" fill="#28318f"/><path d="M17,8.5h0Z" fill="#293993"/><path d="M16.6,8.3h0Z" fill="#ea0020"/><path d="M16.6,8.3h0Z" fill="#ea0020"/><path d="M16.6,8.3h0Z" fill="#ea0020"/><path d="M16.6,8.3h0Z" fill="#ea0020"/><path d="M16.6,8.4h0Z" fill="#ea0020"/><path d="M16.6,8.4h0Z" fill="#eb0c20"/><path d="M16.6,8.4h0Z" fill="#eb1f20"/><path d="M16.6,8.4h0Z" fill="#eb2620"/><path d="M16.6,8.4h0Z" fill="#eb3221"/><path d="M16.6,8.4h0a.3.3,0,0,1,.4,0Z" fill="#eb3821"/><path d="M16.6,8.4h0Z" fill="#eb3e21"/><path d="M16.5,8.4h0Z" fill="#faf72b"/><path d="M16.5,8.4h0a.4.4,0,0,1,.4,0,.4.4,0,0,0-.4,0Z" fill="#f9ec2a"/><path d="M16.5,8.4h0Z" fill="#f7e029"/><path d="M16.5,8.4h0Z" fill="#f6d628"/><path d="M16.5,8.4h0Z" fill="#f5ce28"/><path d="M16.5,8.4h0Z" fill="#f4c327"/><path d="M16.5,8.4h0Z" fill="#f3b826"/><path d="M16.5,8.4h0Z" fill="#f2ae26"/><path d="M16.6,8.4h0Z" fill="#f1a325"/><path d="M16.6,8.4h0Z" fill="#f09924"/><path d="M16.6,8.4h0Z" fill="#ef8d24"/><path d="M16.6,8.4h0a.3.3,0,0,1,.4,0Z" fill="#ef8323"/><path d="M16.6,8.4h0Z" fill="#ee7923"/><path d="M16.6,8.4h0Z" fill="#ed7122"/><path d="M16.6,8.4h0Z" fill="#ed6622"/><path d="M16.6,8.4h0Z" fill="#ec5c22"/><path d="M16.6,8.4h0Z" fill="#ec5121"/><path d="M16.5,8.4h0a.4.4,0,0,1,.5,0,.4.4,0,0,0-.5,0Z" fill="#e9f82b"/><path d="M16.5,8.4h0Z" fill="#d5ee29"/><path d="M16.5,8.5h0a.4.4,0,0,1,.5,0,.4.4,0,0,0-.5,0Z" fill="#c3e529"/><path d="M16.5,8.5h0Z" fill="#b0da28"/><path d="M16.5,8.5h0a.4.4,0,0,1,.5,0Z" fill="#9ed029"/><path d="M16.5,8.5H17a.4.4,0,0,0-.5,0Z" fill="#8dc729"/><path d="M16.5,8.5h0Z" fill="#7dbd2b"/><path d="M16.5,8.5h0Z" fill="#6db42d"/><path d="M16.5,8.5h0Z" fill="#5daa30"/><path d="M16.5,8.5h0Z" fill="#3873a0"/><path d="M16.5,8.5h0Z" fill="#3a7994"/><path d="M16.5,8.5h0Z" fill="#3d8088"/><path d="M16.5,8.5h0Z" fill="#3f837c"/><path d="M16.5,8.5h0Z" fill="#418a6c"/><path d="M16.5,8.5h0a.4.4,0,0,1,.5,0,.4.4,0,0,0-.5,0Z" fill="#448f5e"/><path d="M16.5,8.5h0Z" fill="#499450"/><path d="M16.5,8.5h0Z" fill="#4d9b42"/><path d="M16.6,8.3h0Z" fill="#ea0020"/><path d="M17.1,8.6h0Z" fill="#2e007a"/><path d="M16.5,8.5h0Z" fill="#376fac"/><path d="M17,8.5h0Z" fill="#283f96"/><path d="M17,8.4h0Z" fill="#fcff2c"/><path d="M16.6,8.4h0Z" fill="#ec4621"/><path d="M16.5,8.5h0Z" fill="#50a133"/><polygon points="15.7 9.8 15.2 10.6 18.3 10.6 17.8 9.8 15.7 9.8" fill="#387e90"/><path d="M18.3,10.6H15.2l.4-.8h2.2l.5.8Zm-.5-.8H15.7l-.4.8h3l-.4-.8Z" fill="#387e90"/><path d="M17.9,10.3h0Z"/><path d="M17.1,10.4h0Z" fill="#fff"/><path d="M15.9,10.3h0Z" fill="#fff"/><path d="M15.8,10.6h0Z" fill="#fff"/><path d="M15.8,10.4h0Z" fill="#fff"/><path d="M16.1,10.3h0Z"/><path d="M17.8,10.6h0Z"/><path d="M17.5,10.3h0Z" fill="#fff"/><path d="M15.8,10.6h0Z"/><path d="M16.4,10.5h0Z"/><path d="M16.8,9.8a.6.6,0,0,1-.6-.6l.3-.6h.6l.3.5a.6.6,0,0,1-.6.7Zm0-1.3h-.3l-.3.6a.6.6,0,1,0,1.3,0l-.3-.5Z" fill="#fbf0eb"/><path d="M16.8,9.8a.6.6,0,0,1-.6-.6l.3-.6h.6l.3.5a.6.6,0,0,1-.6.6Zm0-1.3h-.3l-.3.5a.6.6,0,1,0,1.3,0l-.3-.5Z" fill="#fbf1e9"/><path d="M16.8,9.8a.6.6,0,0,1-.6-.6l.3-.5h.6l.3.5a.6.6,0,0,1-.6.6Zm0-1.2h-.3l-.3.5a.6.6,0,1,0,1.2,0l-.3-.5Z" fill="#fbeee8"/><path d="M16.8,9.8a.6.6,0,0,1-.6-.6l.3-.5h.6l.3.5a.6.6,0,0,1-.6.6Zm0-1.2h-.3l-.3.5a.6.6,0,1,0,1.2,0l-.3-.5Z" fill="#faefe5"/><path d="M16.8,9.7a.6.6,0,0,1-.6-.6l.3-.5a.6.6,0,0,1,.6,0l.3.5a.6.6,0,0,1-.6.6Zm0-1.2h-.3l-.3.5a.6.6,0,1,0,1.2,0L17,8.6Z" fill="#faebe2"/><path d="M16.8,9.7a.6.6,0,0,1-.6-.6l.3-.5a.6.6,0,0,1,.6,0l.3.5a.6.6,0,0,1-.6.6Zm0-1.2h-.3l-.3.5a.6.6,0,1,0,1.2,0L17,8.6Z" fill="#faebe2"/><path d="M16.8,9.7a.6.6,0,0,1-.6-.6l.3-.5a.6.6,0,0,1,.6,0l.3.5a.6.6,0,0,1-.6.6Zm0-1.2h-.3l-.3.5a.6.6,0,1,0,1.2,0L17,8.6Z" fill="#fae9de"/><path d="M16.8,9.7a.6.6,0,0,1-.6-.6l.3-.5H17l.3.5a.6.6,0,0,1-.6.6Zm0-1.2h-.3l-.3.5a.6.6,0,1,0,1.2,0L17,8.6Z" fill="#fae9dc"/><path d="M16.8,9.7a.6.6,0,0,1-.6-.6l.3-.5a.6.6,0,0,1,.6,0l.3.5a.6.6,0,0,1-.6.6Zm0-1.1h-.3l-.3.5a.6.6,0,1,0,1.1,0L17,8.6Z" fill="#f9e6db"/><path d="M16.8,9.7a.6.6,0,0,1-.6-.6l.3-.5a.6.6,0,0,1,.6,0l.3.5a.6.6,0,0,1-.6.6Zm0-1.1h-.3l-.3.5a.6.6,0,1,0,1.1,0L17,8.7Z" fill="#f9e6d8"/><path d="M16.8,9.7a.6.6,0,0,1-.6-.6l.3-.5H17l.3.5a.6.6,0,0,1-.6.6Zm0-1.1h-.3l-.3.5a.6.6,0,1,0,1.1,0L17,8.7Z" fill="#f9e4d4"/><path d="M16.8,9.7a.6.6,0,0,1-.6-.6l.3-.5H17l.3.5a.6.6,0,0,1-.6.6Zm0-1.1h-.3l-.3.5a.5.5,0,1,0,1.1,0L17,8.7Z" fill="#f9e4d2"/><path d="M16.8,9.7a.5.5,0,0,1-.5-.5l.3-.5H17l.3.5a.5.5,0,0,1-.5.5Zm0-1.1h-.3l-.3.5a.5.5,0,1,0,1.1,0L17,8.7Z" fill="#f8e1d1"/><path d="M16.8,9.7a.5.5,0,0,1-.5-.5l.3-.5H17l.3.5a.5.5,0,0,1-.5.5Zm0-1.1h-.3l-.3.5a.5.5,0,1,0,1.1,0L17,8.7Z" fill="#f8e1ce"/><path d="M16.8,9.7a.5.5,0,0,1-.5-.5l.3-.5H17l.3.4a.5.5,0,0,1-.5.5Zm0-1h-.2l-.3.5a.5.5,0,1,0,1,0L17,8.7Z" fill="#f8decb"/><path d="M16.8,9.6a.5.5,0,0,1-.5-.5l.3-.4H17l.3.4a.5.5,0,0,1-.5.5Zm0-1h-.2l-.3.4a.5.5,0,1,0,1,0L17,8.7Z" fill="#f8decb"/><path d="M16.8,9.6a.5.5,0,0,1-.5-.5l.3-.4H17l.3.4a.5.5,0,0,1-.5.5Zm0-1h-.2l-.3.4a.5.5,0,1,0,1,0L17,8.7Z" fill="#f8dcc7"/><path d="M16.8,9.6a.5.5,0,0,1-.5-.5l.3-.4H17l.3.4a.5.5,0,0,1-.5.5Zm0-1h-.2l-.3.4a.5.5,0,1,0,1,0L17,8.7Z" fill="#f8dcc5"/><path d="M16.8,9.6a.5.5,0,0,1-.5-.5l.3-.4H17l.2.4a.5.5,0,0,1-.5.5Zm0-1h-.2l-.3.4a.5.5,0,1,0,1,0L17,8.7Z" fill="#f6d9c4"/><path d="M16.8,9.6a.5.5,0,0,1-.5-.5l.2-.4H17l.2.4a.5.5,0,0,1-.5.5Zm0-1h-.2l-.2.4a.5.5,0,1,0,1,0L17,8.7Z" fill="#f6d9c1"/><path d="M16.8,9.6a.5.5,0,0,1-.5-.5l.2-.4H17l.2.4a.5.5,0,0,1-.5.5Zm0-.9h-.2l-.2.4a.5.5,0,1,0,.9,0L17,8.7Z" fill="#f6d7be"/><path d="M16.8,9.6a.5.5,0,0,1-.5-.5l.2-.4H17l.2.4a.5.5,0,0,1-.5.5Zm0-.9h-.2l-.2.4a.5.5,0,1,0,.9,0L17,8.7Z" fill="#f6d7be"/><path d="M16.8,9.6a.5.5,0,0,1-.5-.5l.2-.4H17l.2.4a.5.5,0,0,1-.5.5Zm0-.9h-.2l-.2.4a.5.5,0,1,0,.9,0L17,8.7Z" fill="#f6d4bb"/><path d="M16.8,9.6a.4.4,0,0,1-.4-.4l.2-.4H17l.2.4a.4.4,0,0,1-.4.5Zm0-.9h-.2l-.2.4a.4.4,0,1,0,.9,0L17,8.8Z" fill="#f5d4b8"/><path d="M16.8,9.6a.4.4,0,0,1-.4-.4l.2-.4H17l.2.4a.4.4,0,0,1-.4.4Zm0-.9h-.2l-.2.4a.4.4,0,1,0,.9,0L17,8.8Z" fill="#f5d2b7"/><path d="M16.8,9.6a.4.4,0,0,1-.4-.4l.2-.4H17l.2.4a.4.4,0,0,1-.4.4Zm0-.9h-.2l-.2.4a.4.4,0,1,0,.8,0L17,8.8Z" fill="#f5d2b5"/><path d="M16.8,9.6a.4.4,0,0,1-.4-.4l.2-.4H17l.2.4a.4.4,0,0,1-.4.4Zm0-.8h-.2l-.2.4a.4.4,0,1,0,.8,0L17,8.8Z" fill="#f5d0b1"/><path d="M16.8,9.5a.4.4,0,0,1-.4-.4l.2-.4H17l.2.3a.4.4,0,0,1-.4.4Zm0-.8h-.2l-.2.4a.4.4,0,1,0,.8,0L17,8.8Z" fill="#f5cfaf"/><path d="M16.8,9.5a.4.4,0,0,1-.4-.4l.2-.3H17l.2.3a.4.4,0,0,1-.4.4Zm0-.8h-.2l-.2.3a.4.4,0,1,0,.8,0L17,8.8Z" fill="#f5ceaf"/><path d="M16.8,9.5a.4.4,0,0,1-.4-.4l.2-.3h.4l.2.3a.4.4,0,0,1-.4.4Zm0-.8h-.2l-.2.3a.4.4,0,1,0,.8,0l-.2-.3Z" fill="#f5ceac"/><path d="M16.8,9.5a.4.4,0,0,1-.4-.4l.2-.3h.4l.2.3a.4.4,0,0,1-.4.4Zm0-.8h-.2l-.2.3a.4.4,0,1,0,.8,0l-.2-.3Z" fill="#f4cba9"/><path d="M16.8,9.5a.4.4,0,0,1-.4-.4l.2-.3h.4l.2.3a.4.4,0,0,1-.4.4Zm0-.8h-.2l-.2.3a.4.4,0,0,0,.8,0l-.2-.3Z" fill="#f4cba9"/><path d="M16.8,9.5a.4.4,0,0,1-.4-.4l.2-.3h.4l.2.3a.4.4,0,0,1-.4.4Zm0-.7h-.2l-.2.3a.4.4,0,1,0,.7,0l-.2-.3Z" fill="#f4c7a5"/><path d="M16.8,9.5a.4.4,0,0,1-.4-.4l.2-.3h.4l.2.3a.4.4,0,0,1-.4.4Zm0-.7h-.2l-.2.3a.4.4,0,1,0,.7,0l-.2-.3Z" fill="#f4c7a3"/><path d="M16.8,9.5a.4.4,0,0,1-.4-.4l.2-.3h.4l.2.3a.4.4,0,0,1-.4.4Zm0-.7h-.2l-.2.3a.3.3,0,1,0,.7,0l-.2-.3Z" fill="#f4c5a3"/><path d="M16.8,9.5a.3.3,0,0,1-.3-.3l.2-.3h.3l.2.3a.3.3,0,0,1-.3.3Zm0-.7h-.2l-.2.3a.3.3,0,1,0,.7,0l-.2-.3Z" fill="#f3c5a0"/><path d="M16.8,9.5a.3.3,0,0,1-.3-.3l.2-.3h.3l.2.3a.3.3,0,0,1-.3.3Zm0-.7h-.2l-.2.3a.3.3,0,1,0,.7,0l-.2-.3Z" fill="#f3c29d"/><path d="M16.8,9.5a.3.3,0,0,1-.3-.3l.2-.3h.3l.2.3a.3.3,0,0,1-.3.3Zm0-.6h-.2l-.2.3a.3.3,0,1,0,.6,0l-.2-.3Z" fill="#f3c29d"/><path d="M16.8,9.5a.3.3,0,0,1-.3-.3l.2-.3h.3l.2.3a.3.3,0,0,1-.3.3Zm0-.6h-.2l-.2.3a.3.3,0,1,0,.6,0l-.2-.3Z" fill="#f3c09a"/><path d="M16.8,9.4a.3.3,0,0,1-.3-.3l.2-.3h.3l.2.3a.3.3,0,0,1-.3.3Zm0-.6h-.1l-.2.3a.3.3,0,1,0,.6,0V8.9Z" fill="#f3c098"/><path d="M16.8,9.4a.3.3,0,0,1-.3-.3l.2-.3h.3v.3a.3.3,0,0,1-.3.3Zm0-.6h-.1l-.2.3a.3.3,0,1,0,.6,0V8.9Z" fill="#f2bd97"/><path d="M16.8,9.4a.3.3,0,0,1-.3-.3l.2-.3h.3v.3a.3.3,0,0,1-.3.3Zm0-.6h-.1v.2a.3.3,0,1,0,.6,0V8.9Z" fill="#f2bd95"/><path d="M16.8,9.4a.3.3,0,0,1-.3-.3V8.9h.3v.2a.3.3,0,0,1-.3.3Zm0-.6h-.1v.2a.3.3,0,1,0,.6,0V8.9Z" fill="#f2bb92"/><path d="M16.8,9.4a.3.3,0,0,1-.3-.3V8.9h.3v.2a.3.3,0,0,1-.3.3Zm0-.5h-.1v.2a.3.3,0,1,0,.5,0V8.9Z" fill="#f2bb90"/><path d="M16.8,9.4a.3.3,0,0,1-.3-.3V8.9h.3v.2a.3.3,0,0,1-.3.3Zm0-.5h-.1v.2a.3.3,0,1,0,.5,0V8.9Z" fill="#f2b88f"/><path d="M16.8,9.4a.3.3,0,0,1-.3-.3V8.9h.3v.2a.3.3,0,0,1-.3.3Zm0-.5h-.1v.2a.3.3,0,1,0,.5,0V8.9Z" fill="#f2b88d"/><path d="M16.8,9.4a.3.3,0,0,1-.2-.3V8.9h.3v.2a.3.3,0,0,1-.3.3Zm0-.5h-.1v.2a.2.2,0,1,0,.5,0V8.9Z" fill="#f2b68a"/><path d="M16.8,9.4a.2.2,0,0,1-.2-.2V8.9h.2v.2a.2.2,0,0,1-.2.2Zm0-.5h-.1v.2a.2.2,0,1,0,.5,0V8.9Z" fill="#f2b68a"/><path d="M16.8,9.4a.2.2,0,0,1-.2-.2V8.9h.2v.2a.2.2,0,0,1-.2.2Zm0-.5h-.1v.2a.2.2,0,1,0,.5,0V8.9Z" fill="#f0b387"/><path d="M16.8,9.4a.2.2,0,0,1-.2-.2V8.9h.2v.2a.2.2,0,0,1-.2.2Zm0-.4h-.1v.2a.2.2,0,1,0,.4,0V8.9Z" fill="#f0b385"/><path d="M16.8,9.3a.2.2,0,0,1-.2-.2V8.9h.2v.2a.2.2,0,0,1-.2.2Zm0-.4h-.1v.2a.2.2,0,1,0,.4,0V9Z" fill="#f0b185"/><path d="M16.8,9.3a.2.2,0,1,1,.2-.2.2.2,0,0,1-.2.2Zm0-.4a.2.2,0,1,0,.2.2.2.2,0,0,0-.2-.2Z" fill="#f0b183"/><path d="M16.8,9.3a.2.2,0,0,0,0-.4.2.2,0,1,0,0,.4Z" fill="#fff"/><path d="M16.8,9.3a.2.2,0,0,1-.2-.2.2.2,0,1,1,.2.2Zm0-.4a.2.2,0,1,0,0,.4.2.2,0,0,0,0-.4Z" fill="#fff"/><path d="M16.4,9.3h0Z" fill="#d2001d"/><path d="M16.4,9.2h0Z" fill="#d2001d"/><path d="M16.4,9.1h0Z" fill="#d2001d"/><polygon points="16.4 9 16.4 9.1 16.3 9 16.4 9 16.4 9 16.3 9 16.4 9 16.4 9 16.4 9 16.4 9 16.4 9 16.4 9 16.4 9" fill="#d2001d"/><path d="M16.5,9h0Z" fill="#d2001d"/><polygon points="16.4 8.9 16.5 8.8 16.5 8.8 16.5 8.8 16.5 8.9 16.5 8.9 16.4 8.8 16.4 8.9 16.4 8.9" fill="#d2001d"/><polygon points="16.6 8.9 16.5 8.9 16.5 8.8 16.5 8.8 16.6 8.9" fill="#d2001d"/><polygon points="16.6 8.8 16.6 8.8 16.5 8.8 16.6 8.7 16.6 8.7 16.5 8.8 16.6 8.8 16.6 8.8 16.6 8.8 16.6 8.8 16.6 8.8 16.6 8.8 16.6 8.8" fill="#d2001d"/><path d="M16.7,8.8h0Z" fill="#d2001d"/><path d="M16.7,8.7h0Z" fill="#d2001d"/><path d="M16.8,8.8h.1s0,0,0,0h-.1Z" fill="#d2001d"/><polygon points="17 8.9 16.9 8.8 16.9 8.7 17 8.8 17 8.8 17 8.8 16.9 8.8 17 8.8 17 8.8 16.9 8.8 16.9 8.8 17 8.8 17 8.9" fill="#d2001d"/><path d="M17.1,8.8h0a0,0,0,0,1,0,.1h0Z" fill="#d2001d"/><polygon points="17.1 9 17 9 17.1 8.9 17.2 9 17.1 9 17.1 8.9 17.1 8.9 17.1 9 17.1 9 17.1 8.9 17.1 9 17.1 9 17.1 9" fill="#d2001d"/><path d="M17.1,9.1h0Z" fill="#d2001d"/><path d="M17.1,9.2h0Z" fill="#d2001d"/><path d="M17.1,9.2h0Z" fill="#d2001d"/><path d="M17.1,9.3h0Z" fill="#d2001d"/><path d="M16.8,8.9h0Z" fill="none"/><path d="M16.8,8.9h0Z" fill="none"/><path d="M16.8,8.9h0Z" fill="none"/><path d="M16.7,8.9h0Z" fill="none"/><path d="M16.7,8.9h0Z" fill="none"/><path d="M16.7,8.9h0Z" fill="none"/><path d="M16.7,8.9h0Z" fill="none"/><path d="M16.6,9h0Z" fill="none"/><path d="M16.6,9h0Z" fill="none"/><path d="M16.6,9h0Z" fill="none"/><path d="M16.6,9h0Z" fill="none"/><path d="M16.6,9h0Z" fill="none"/><path d="M16.6,9h0Z" fill="none"/><path d="M16.6,9h0Z" fill="none"/><path d="M16.6,9.1h0Z" fill="none"/><path d="M16.6,9.1h0Z" fill="none"/><path d="M16.5,9.1h0Z" fill="none"/><path d="M16.5,9.1h0Z" fill="none"/><path d="M16.5,9.2h0Z" fill="none"/><path d="M16.6,9.2h0Z" fill="none"/><path d="M16.6,9.2h0Z" fill="none"/><path d="M16.6,9.2h0Z" fill="none"/><path d="M16.6,9.2h0Z" fill="none"/><path d="M16.6,9.3l-.2.2Z" fill="none"/><path d="M16.6,9.3l-.3.2Z" fill="none"/><path d="M16.6,9.3l-.2.2Z" fill="none"/><path d="M16.6,9.3l-.2.2Z" fill="none"/><path d="M16.6,9.3l-.2.3Z" fill="none"/><path d="M16.7,9.3v0Z" fill="none"/><path d="M16.7,9.3v0Z" fill="none"/><path d="M16.7,9.3v0Z" fill="none"/><path d="M16.7,9.3v0Z" fill="none"/><path d="M16.8,9.3h0Z" fill="none"/><path d="M16.8,9.3v0Z" fill="none"/><path d="M16.8,9.3v0Z" fill="none"/><path d="M16.8,9.3v0Z" fill="none"/><path d="M16.9,9.3v0Z" fill="none"/><path d="M16.9,9.3l.2.3Z" fill="none"/><path d="M16.9,9.3l.2.2Z" fill="none"/><path d="M16.9,9.3l.3.2Z" fill="none"/><path d="M16.9,9.3h0Z" fill="none"/><path d="M16.9,9.2h0Z" fill="none"/><path d="M16.9,9.2h0Z" fill="none"/><path d="M16.9,9.2h0Z" fill="none"/><path d="M17,9.2h0Z" fill="none"/><path d="M17,9.2h0Z" fill="none"/><path d="M17,9.1h0Z" fill="none"/><path d="M17,9.1h0Z" fill="none"/><path d="M17,9.1h0Z" fill="none"/><path d="M16.9,9.1h0Z" fill="none"/><path d="M16.9,9.1h0Z" fill="none"/><path d="M16.9,9h0Z" fill="none"/><path d="M16.9,9h0Z" fill="none"/><path d="M16.9,9h0Z" fill="none"/><path d="M16.9,9h0Z" fill="none"/><path d="M16.9,9h0Z" fill="none"/><path d="M16.9,9h0Z" fill="none"/><path d="M16.8,8.9h0Z" fill="none"/><path d="M16.8,8.9h0Z" fill="none"/><path d="M16.8,8.7h0Z" fill="none"/><path d="M16.7,8.7h0Z" fill="none"/><path d="M16.6,8.7h0Z" fill="none"/><path d="M16.5,8.8h0Z" fill="none"/><path d="M16.4,8.8h0Z" fill="none"/><path d="M16.4,8.9h0Z" fill="none"/><path d="M16.3,9h0Z" fill="none"/><path d="M16.3,9.1h0Z" fill="none"/><path d="M16.3,9.2h0Z" fill="none"/><path d="M16.3,9.3h0Z" fill="none"/><path d="M17.2,9.4h0Z" fill="none"/><path d="M17.2,9.3h0Z" fill="none"/><path d="M17.2,9.2h0Z" fill="none"/><path d="M17.2,9.1h0Z" fill="none"/><path d="M17.2,9h0Z" fill="none"/><path d="M17.2,8.9h0Z" fill="none"/><path d="M17.1,8.8h0Z" fill="none"/><path d="M17,8.8h0Z" fill="none"/><path d="M16.9,8.7h0Z" fill="none"/><path d="M16.9,8.7h0Z" fill="none"/><path d="M16.9,9.2h0Z" fill="#d2001d"/><path d="M16.8,9.3h0Z"/><path d="M16.7,9.2h0s0,0,0,0h0s0,0,0,0Z" fill="#d2001d"/><path d="M16.7,9.2h0Zm.2,0h0Z"/><path d="M16.7,9.2h0Z" fill="none"/><path d="M16.7,9.5V9.2h0v.3s0,.2,0,.2,0-.1,0-.2Z" fill="#f5cb27"/><path d="M16.8,9.7h0s0,0,0-.1v0a.3.3,0,0,0,0,.1h0a.8.8,0,0,0,0-.2h0a.8.8,0,0,1,0,.2Z"/><path d="M18.3,10.6H15.2l1.5-2.6,1.5,2.6ZM16.7,8.1l-1.5,2.6h3L16.7,8.1Z"/><path d="M16.1,9.6h0Z" fill="none"/><path d="M15.6,10h.3l.2-.2h-.7Z" fill="#f5cb27"/><path d="M16.8,10.2H15.5V10h.3l.2-.2h.7Zm-.7-.7h0l-.2.2h-.3v.2h.7Z"/><path d="M16.1,9.6h0Z" fill="none"/><path d="M16,9.6h0Z" fill="none"/><path d="M16,9.6h0Z" fill="none"/><path d="M16,9.7h0Z" fill="none"/><path d="M16,9.7h0Z" fill="none"/><path d="M15.9,9.7h0Z" fill="none"/><path d="M15.9,9.7h0Z" fill="none"/><path d="M15.9,9.7h0Z" fill="none"/><path d="M15.9,9.8h0Z" fill="none"/><path d="M15.5,10.2h0Z" fill="#2a653e"/><path d="M15.9,9.8h0Z" fill="none"/><path d="M15.8,9.8h0Z" fill="none"/><path d="M15.9,9.8h0Z" fill="none"/><path d="M15.9,9.9h0Z" fill="none"/><path d="M15.8,9.9h0Z" fill="none"/><path d="M15.8,9.9h0Z" fill="none"/><path d="M15.7,9.9h0Z" fill="none"/><path d="M15.8,9.9h0Z" fill="none"/><path d="M15.8,10h0Z" fill="none"/><path d="M15.6,10h0Z" fill="none"/><path d="M15.6,10h0Z" fill="none"/><path d="M15.6,10h0Z" fill="none"/><path d="M15.6,10h0Z" fill="none"/><path d="M15.6,10.1h0Z" fill="none"/><path d="M15.7,10.1h0Z" fill="#2a653e"/><path d="M15.5,10.1h0Z" fill="none"/><path d="M15.5,10.1h0Z" fill="#2a653e"/><path d="M15.6,10.2h0Z" fill="#2a653e"/><path d="M15.6,10.2h0Z" fill="#2a653e"/><path d="M16,9.9h0Z" fill="none"/><path d="M16,9.9h0Z" fill="none"/><path d="M16,9.9h0Z" fill="none"/><path d="M16,9.9h0Z" fill="none"/><path d="M16,9.9h0Z" fill="none"/><path d="M16,9.9h0Z" fill="none"/><polygon points="16 10 16 10 16 10 16 10" fill="none"/><path d="M16,10h0Z" fill="none"/><path d="M15.9,10h0Z" fill="none"/><path d="M15.9,10h0Z" fill="none"/><path d="M15.9,10h0Z" fill="none"/><path d="M15.9,10h0Z" fill="none"/><path d="M15.9,10.1h0Z" fill="none"/><path d="M15.9,10.1h0Z" fill="none"/><path d="M15.9,10.1h0Z" fill="none"/><path d="M15.9,10.1h0Z" fill="none"/><path d="M15.8,10.1h0Z" fill="none"/><path d="M15.8,10.2h0Z" fill="none"/><path d="M15.8,10.2h0Z" fill="none"/><path d="M15.8,10.2h0Z" fill="none"/><path d="M16.1,9.9h0Z" fill="none"/><path d="M16.1,9.9h0Z" fill="none"/><path d="M16.1,9.9h0Z" fill="none"/><path d="M16.1,10h0Z" fill="none"/><path d="M16.1,10h0Z" fill="none"/><path d="M16.1,10h0Z" fill="none"/><path d="M16.1,10h0Z" fill="none"/><path d="M16.1,10h0Z" fill="none"/><path d="M16.1,10.1h0Z" fill="none"/><path d="M16,10.1h0Z" fill="none"/><path d="M16,10.1h0Z" fill="none"/><path d="M16,10.1h0Z" fill="none"/><path d="M16,10.1h0Z" fill="none"/><path d="M16,10.2h0Z" fill="none"/><path d="M16,10.2h0Z" fill="none"/><path d="M16,10.2h0Z" fill="none"/><path d="M16,10.2h0Z" fill="#2a653e"/><path d="M15.7,10.2h0Z" fill="none"/><path d="M16,10.2h0Z" fill="none"/><path d="M16.2,10.2h0Z" fill="none"/><path d="M16.2,10.2h0Z" fill="none"/><path d="M16,10.2h0Z" fill="none"/><path d="M15.8,10.2h0Z" fill="none"/><path d="M16.2,9.7h0Z" fill="none"/><path d="M16.2,9.7h0Z" fill="none"/><polygon points="16.3 9.7 16.3 9.7 16.3 9.7 16.3 9.7" fill="none"/><path d="M16.3,9.7h0Z" fill="none"/><path d="M16.3,9.8h0Z" fill="none"/><path d="M16.3,9.8h0Z" fill="none"/><path d="M16.3,9.8h0Z" fill="none"/><path d="M16.3,9.8h0Z" fill="none"/><path d="M16.3,9.8h0Z" fill="none"/><path d="M16.3,9.9h0Z" fill="none"/><path d="M16.3,9.9h0Z" fill="none"/><path d="M16.3,9.9h0Z" fill="none"/><path d="M16.4,9.9h0Z" fill="none"/><path d="M16.3,10h0Z" fill="none"/><path d="M16.4,10h0Z" fill="none"/><path d="M16.3,10h0Z" fill="none"/><path d="M16.3,10h0Z" fill="none"/><path d="M16.4,10h0Z" fill="none"/><path d="M16.3,10.1h0Z" fill="none"/><path d="M16.4,10.1h0Z" fill="none"/><path d="M16.4,10.1h0Z" fill="none"/><path d="M16.5,10.1h0Z" fill="none"/><path d="M16.4,10.1h0Z" fill="none"/><path d="M16.5,10.1h0Z" fill="none"/><path d="M16.4,10.2h0Z" fill="none"/><path d="M16.5,10.2h0Z" fill="none"/><path d="M16.4,10.2h0Z" fill="none"/><path d="M16.4,10.2h0Z" fill="none"/><path d="M16.6,10.2h0Z" fill="none"/><path d="M16.6,10.2h0Z" fill="none"/><path d="M16.7,10.1h0Z" fill="none"/><path d="M16.7,10.1h0Z" fill="none"/><path d="M16.7,10.1h0Z" fill="none"/><path d="M16.7,10.2h0Z" fill="none"/><path d="M16.7,10.2h0Z" fill="none"/><path d="M16.7,10.2h0Z" fill="none"/><path d="M16.7,10.2h0Z" fill="none"/><path d="M16.7,10.2h0Z" fill="none"/><path d="M16.9,10.2h0Z" fill="#2a653e"/><path d="M17,10.2h0Z" fill="#2a653e"/><path d="M17.1,10.2h0Z" fill="#f5cb27"/><path d="M17.1,10.2h0Z"/><path d="M16.5,9.8h0Z" fill="none"/><path d="M16.5,9.8h0Z" fill="none"/><path d="M16.6,9.8h0Z" fill="none"/><path d="M16.6,9.8h0Z" fill="none"/><path d="M16.7,9.8h0Z" fill="none"/><path d="M16.6,9.8h0Z" fill="none"/><path d="M16.7,9.8h0Z" fill="none"/><path d="M16.7,9.9h0Z" fill="none"/><path d="M16.7,9.9h0Z" fill="none"/><path d="M16.7,9.9h0Z" fill="none"/><path d="M16.8,9.9h0Z" fill="none"/><path d="M16.8,9.9h0Z" fill="none"/><path d="M16.8,9.9h0Z" fill="none"/><path d="M16.9,10h0Z" fill="none"/><path d="M16.8,10h0Z" fill="none"/><path d="M16.9,10.1h0Z" fill="none"/><path d="M17,10.1h0Z" fill="none"/><path d="M16.9,10.1h0Z" fill="none"/><path d="M17.1,10.1h0Z" fill="none"/><path d="M17,10.1h0Z" fill="none"/><path d="M17.1,10.1h0Z" fill="none"/><path d="M17,10.2h0Z" fill="none"/><path d="M17.2,10.2h0Z" fill="none"/><path d="M17.1,10.2h0Z" fill="none"/><path d="M17.1,10.2h0Z" fill="none"/><path d="M16.5,9.7h0Z" fill="none"/><path d="M16.5,9.7h0Z" fill="none"/><path d="M16.8,10h0Z" fill="none"/><path d="M16.9,10h0Z" fill="none"/><path d="M17,10h0Z" fill="none"/><path d="M16.5,9.7h0Z" fill="none"/><path d="M16.7,9.7h0Z" fill="#f5cb27"/><path d="M17.3,10.2h0Zm.2,0h0Z"/><path d="M16.8,9.8h0Z" fill="none"/><path d="M16.8,9.8h0Z" fill="none"/><path d="M16.9,9.8h0Z" fill="none"/><path d="M16.9,9.8h0Z" fill="none"/><path d="M16.9,9.8h0Z" fill="none"/><path d="M16.9,9.9h0Z" fill="none"/><path d="M17,9.9h0Z" fill="none"/><path d="M16.9,9.9h0Z" fill="none"/><path d="M17,9.9h0Z" fill="none"/><path d="M17,9.9h0Z" fill="none"/><path d="M17.1,9.9h0Z" fill="none"/><path d="M17,9.9h0Z" fill="none"/><path d="M17.1,9.9h0Z" fill="none"/><path d="M17.1,10h0Z" fill="none"/><path d="M17.1,10h0Z" fill="none"/><path d="M17.2,10.1h0Z" fill="none"/><path d="M17.3,10.1h0Z" fill="none"/><path d="M17.2,10.1h0Z" fill="none"/><path d="M17.3,10.1h0Z" fill="none"/><path d="M17.2,10.1h0Z" fill="none"/><path d="M17.4,10.1h0Z" fill="none"/><path d="M17.3,10.2h0Z" fill="none"/><path d="M17.4,10.2h0Z" fill="none"/><path d="M17.3,10.2h0Z" fill="none"/><path d="M17.3,10.2h0Z" fill="none"/><path d="M16.8,9.8h0Z" fill="none"/><path d="M16.8,9.8h0Z" fill="none"/><path d="M17.1,10h0Z" fill="none"/><path d="M17.1,10h0Z" fill="none"/><path d="M17.2,10h0Z" fill="none"/><path d="M16.8,9.7h0Z" fill="none"/><path d="M17.1,9.8h0Z" fill="#f5cb27"/><path d="M17.5,10.2Zm0,0h0Z"/><path d="M17.1,9.9h0Z" fill="none"/><path d="M17.1,9.9h0Z" fill="none"/><path d="M17.2,9.9h0Z" fill="none"/><path d="M17.2,9.9h0Z" fill="none"/><path d="M17.2,9.9h0Z" fill="none"/><path d="M17.2,9.9h0Z" fill="none"/><path d="M17.3,9.9h0Z" fill="none"/><path d="M17.2,9.9h0Z" fill="none"/><path d="M17.3,9.9h0Z" fill="none"/><path d="M17.3,10h0Z" fill="none"/><path d="M17.3,10h0Z" fill="none"/><path d="M17.3,10h0Z" fill="none"/><path d="M17.3,10h0Z" fill="none"/><path d="M17.4,10h0Z" fill="none"/><path d="M17.3,10h0Z" fill="none"/><path d="M17.4,10.1h0Z" fill="none"/><path d="M17.5,10.1h0Z" fill="none"/><path d="M17.4,10.1h0Z" fill="none"/><path d="M17.5,10.1h0Z" fill="none"/><path d="M17.4,10.1h0Z" fill="none"/><path d="M17.6,10.1h0Z" fill="none"/><path d="M17.5,10.2h0Z" fill="none"/><path d="M17.6,10.2h0Z" fill="none"/><path d="M17.5,10.2h0Z" fill="none"/><path d="M17.5,10.2h0Z" fill="none"/><path d="M17.1,9.8h0Z" fill="none"/><path d="M17.1,9.8h0Z" fill="none"/><path d="M17.3,10h0Z" fill="none"/><path d="M17.4,10h0Z" fill="none"/><path d="M17.4,10.1h0Z" fill="none"/><path d="M17.1,9.8h0Z" fill="none"/><path d="M17.8,10.2h0Z" fill="#f5cb27"/><path d="M17.8,10.2h0Zm.2,0h0Z"/><path d="M17.4,9.9h0Z" fill="none"/><path d="M17.4,9.9h0Z" fill="none"/><polygon points="17.4 9.9 17.5 9.9 17.5 9.9 17.4 9.9" fill="none"/><path d="M17.4,9.9h0Z" fill="none"/><path d="M17.5,9.9h0Z" fill="none"/><path d="M17.5,9.9h0Z" fill="none"/><path d="M17.5,9.9h0Z" fill="none"/><path d="M17.5,9.9h0Z" fill="none"/><path d="M17.5,9.9h0Z" fill="none"/><path d="M17.5,10h0Z" fill="none"/><path d="M17.6,10h0Z" fill="none"/><path d="M17.6,10h0Z" fill="none"/><path d="M17.6,10h0Z" fill="none"/><path d="M17.6,10h0Z" fill="none"/><path d="M17.6,10h0Z" fill="none"/><path d="M17.6,10.1h0Z" fill="none"/><path d="M17.7,10.1h0Z" fill="none"/><path d="M17.7,10.1h0Z" fill="none"/><path d="M17.8,10.1h0Z" fill="none"/><path d="M17.7,10.1h0Z" fill="none"/><path d="M17.8,10.1h0Z" fill="none"/><path d="M17.7,10.1h0Z" fill="none"/><path d="M17.8,10.1h0Z" fill="none"/><path d="M17.8,10.2h0Z" fill="none"/><path d="M17.8,10.2h0Z" fill="none"/><path d="M17.4,9.9h0Z" fill="none"/><path d="M17.4,9.9h0Z" fill="none"/><path d="M17.6,10h0Z" fill="none"/><path d="M17.6,10h0Z" fill="none"/><path d="M17.7,10.1h0Z" fill="none"/><path d="M17.4,9.8h0Z" fill="none"/><path d="M16.8,11.4h.3l.5-.2H15.9l.5.2Z" fill="#fff"/><path d="M16.8,11.4h-.3l-.4-.2h0l.4.2h.7l.4-.2h0l-.4.2Z"/><path d="M15.9,11.2s0-.1,0-.1h0Z" fill="#fff"/><path d="M15.8,11.2h0a.1.1,0,0,0,0,.1h0Z"/><path d="M15.9,11.2h-.1s0,0,0,.1h.1Z" fill="#fff"/><path d="M15.9,11.2h-.1s0,0,0,.1h.1Z" fill="none"/><path d="M17.7,11.2s0-.1,0-.1h0Z" fill="#fff"/><path d="M17.7,11.2h0a.1.1,0,0,1,0-.1h0Z"/><path d="M17.6,11.2h.1s0,0,0,.1h-.1Z" fill="#fff"/><path d="M17.6,11.2h0Z"/><path d="M16.1,11.1h0Z"/><polygon points="16.2 11.2 16.2 11.2 16.2 11.1 16.2 11.1 16.2 11.2"/><path d="M16.3,11.2h0Z"/><path d="M16.4,11.2h0Z"/><path d="M16.5,11.2h0Z"/><polygon points="16.5 11.3 16.6 11.4 16.6 11.3 16.6 11.3 16.6 11.4 16.5 11.3 16.5 11.4 16.5 11.4 16.5 11.3"/><polygon points="16.6 11.4 16.6 11.4 16.6 11.3 16.7 11.3 16.6 11.4"/><path d="M16.8,11.3h0Z"/><polygon points="16.8 11.3 16.9 11.4 16.9 11.3 16.9 11.3 16.9 11.4 16.8 11.3 16.8 11.4 16.8 11.4 16.8 11.3"/><polygon points="17 11.4 17 11.4 17 11.4 17 11.4 16.9 11.3 17 11.3 17 11.4"/><polygon points="17 11.4 17 11.4 17 11.3 17 11.3 17 11.4"/><path d="M17,11.3h0Z"/><polygon points="17.1 11.2 17.2 11.2 17.2 11.2 17.1 11.2 17.1 11.3 17.2 11.3 17.2 11.3 17.1 11.3 17.1 11.3 17.2 11.3 17.2 11.3 17.1 11.3 17.1 11.2"/><path d="M17.3,11.3h0Z"/><polygon points="17.3 11.3 17.3 11.3 17.3 11.2 17.2 11.2 17.2 11.2 17.3 11.2 17.3 11.2 17.3 11.2 17.3 11.3"/><polygon points="17.4 11.2 17.4 11.2 17.3 11.3 17.3 11.1 17.4 11.2 17.4 11.2 17.4 11.2 17.4 11.2"/><path d="M17.4,11.1h.1a.1.1,0,0,1,0,.1h-.1Z"/><path d="M16.7,11.9h.1s.1.1,0,.1h-.1a.8.8,0,0,1,0-.1Z" fill="#1f189b"/><path d="M16.8,11.8s0-.2,0-.2H17c.1,0,0,.3,0,.3h0s0-.1,0-.2h-.1v.2Z" fill="#1f189b"/><path d="M16.7,12s-.2.1-.1.3h-.1s0,.1,0,.1a.2.2,0,0,1,0-.3h.2Z" fill="#1f189b"/><path d="M16.6,12.4a.2.2,0,0,1,0-.3h.2v.2a.2.2,0,0,0,0,.1h-.1s0,.1,0,.1Zm.2-.4h-.2a.2.2,0,0,0,0,.3.1.1,0,0,1,0-.1h.1a.2.2,0,0,1,0-.1V12Z"/><path d="M16.7,11.9h-.2a.7.7,0,0,1,0-.2h0s-.1,0,0,.1V12h.2Z" fill="#1f189b"/><path d="M16.6,12h-.1v-.2a.2.2,0,0,1,0-.1h0a.2.2,0,0,0,0,.1V12h0a.7.7,0,0,1,0-.2v.2h.1Z"/><path d="M16.7,11.9l-.2-.3h.2v.2Z" fill="#1f189b"/><path d="M16.7,11.9l-.2-.3h0l.2.3h0Z"/><path d="M16.7,11.9h-.1s0-.2,0-.2h-.1v.2Z" fill="#0c1a27"/><path d="M16.7,11.9h-.2v-.2c0-.1,0-.1,0-.1h0v.2h.1v-.2h0v.2h.1Z"/><path d="M16.8,12h.1c0,.1,0,.2.1.2h.1v-.2h-.2Z" fill="#1f189b"/><path d="M17.1,12.4H17c-.1,0-.1-.2-.1-.2h0c0,.1,0,.2.1.2h.1v-.2h0v.2h0Z"/><path d="M16.9,11.6v.2h0v-.2Z" fill="#0c1a27"/><path d="M16.8,11.9h0v-.2h0Zm0-.3v.2h.1Z"/><path d="M16.7,12h0Z" fill="#112236"/><path d="M16.8,12h0Z" fill="#112236"/><path d="M16.7,11.9h0Z" fill="#112236"/><path d="M17,11.8h0v-.2H17Z" fill="#112236"/><path d="M16.8,11.9s.1.1,0,.1,0,0,0-.1h0Z" fill="#112236"/><path d="M16.8,12h0a.9.9,0,0,1,0-.1h.1s0,.1,0,.1Zm0-.2h0a1.1,1.1,0,0,0,0,.1h.1s0-.1,0-.1Z"/><path d="M16.9,12H17c0-.1,0-.1,0-.2h-.1v.2h0v-.2H17a.5.5,0,0,0,0-.2h-.2v.2c0-.1,0-.2,0-.2h.2a.5.5,0,0,1,0,.2Z"/><path d="M14.4,11.5h-.1s0,0,0,.1h.1Z" fill="#fff"/><path d="M15.5,12.4h0Z" fill="#fff"/><path d="M14.9,12h-.1s0,.1,0,.1h.1Z" fill="#fff"/><path d="M14.5,11.4h-.1s0,.1,0,.1h.1Z" fill="#fff"/><path d="M14,9.6h0Z" fill="#fff"/><polygon points="14.7 7.7 14.7 7.7 14.7 7.9 14.8 7.8 14.7 7.7" fill="#fff"/><polygon points="15.6 7.1 15.6 7.1 15.6 7.2 15.7 7.2 15.6 7.1" fill="#fff"/><path d="M16,7.2h0A.1.1,0,0,0,16,7h-.2Z" fill="#fff"/><path d="M16.3,7h0Z" fill="#fff"/><path d="M16.8,6.9h0Z" fill="#fff"/><polygon points="18.6 7.5 18.6 7.5 18.5 7.6 18.6 7.6 18.6 7.5" fill="#fff"/><polygon points="19.2 8.1 19.2 8.1 19 8.1 19.1 8.2 19.2 8.1" fill="#fff"/><path d="M19.6,9.2h0Z" fill="#fff"/><polygon points="19.7 10.1 19.7 10.1 19.6 10.1 19.6 10.2 19.7 10.1" fill="#fff"/><path d="M18.7,12h0s0,0,0,.1h0Z" fill="#fff"/><polygon points="18.3 12.3 18.3 12.3 18.3 12.2 18.2 12.2 18.3 12.3" fill="#fff"/><polygon points="13.9 10.3 13.9 10.3 14 10.3 14 10.2 13.9 10.3" fill="#fff"/><path d="M16.1,11.2h0Z" fill="#fff"/><path d="M16.3,11.2h0Z" fill="#fff"/><path d="M16.8,11.3h0Z" fill="#fff"/><path d="M17.1,11.3h0Z" fill="#fff"/><path d="M17.1,11.3h0Z" fill="#fff"/><path d="M17.2,11.2h0Z" fill="#fff"/><polygon points="17.3 11.2 17.4 11.2 17.4 11.2 17.3 11.2" fill="#fff"/><path d="M17.4,11.2h0Z" fill="#fff"/><path d="M16.4,8.9h0Z" fill="#f5d0b1"/><path d="M16.8,8.7h0Z" fill="#f5d0b1"/><path d="M16.8,8.8h0Z" fill="#f9e4cd"/><path d="M16.8,8.8h0Z" fill="#f5d0b1"/><path d="M17,8.9h0Z" fill="#f5d0b1"/><path d="M17.1,9.1h0Z" fill="#f5d0b1"/><path d="M17.2,9.2h0Z" fill="#f5d0b1"/></g></g></svg>