<svg xmlns="http://www.w3.org/2000/svg" xmlns:xlink="http://www.w3.org/1999/xlink" viewBox="0 0 33.6 19.6"><defs><clipPath id="a"><rect width="33.6" height="19.58" fill="none"/></clipPath></defs><title>SVN</title><g clip-path=""><rect width="33.6" height="19.58" fill="#fff"/><rect y="13.1" width="33.6" height="6.53" fill="#ea0020"/><rect y="6.5" width="33.6" height="6.53" fill="#3555e2"/><g clip-path=""><path d="M7.4,3.8H7.2l.2,3a3.3,3.3,0,0,0,2.4,3h0a3.3,3.3,0,0,0,2.4-3l.2-3h-.2l-.2,3A3.2,3.2,0,0,1,9.8,9.6h0a3.2,3.2,0,0,1-1.3-.8,3.2,3.2,0,0,1-.9-2l-.2-3h0" fill="#ea0020"/><path d="M12.2,3.8a5.9,5.9,0,0,0-4.8,0l.2,3a3.2,3.2,0,0,0,.9,2,3.2,3.2,0,0,0,1.3.8h0A3.2,3.2,0,0,0,12,6.8" fill="#3555e2"/><polyline points="9.9 4.7 10 4.5 9.9 4.6 9.8 4.4 9.7 4.6 9.5 4.5 9.7 4.7 9.5 4.8 9.7 4.8 9.8 5 9.9 4.8 10 4.8" fill="#f8e72a"/><polyline points="9.3 3.8 9.4 3.6 9.2 3.7 9.1 3.5 9.1 3.7 8.9 3.6 9 3.8 8.9 3.9 9.1 3.9 9.1 4.1 9.2 3.9 9.4 3.9" fill="#f8e72a"/><polyline points="10.6 3.8 10.7 3.6 10.5 3.7 10.5 3.5 10.4 3.7 10.2 3.6 10.3 3.8 10.2 3.9 10.4 3.9 10.5 4.1 10.5 3.9 10.7 3.9" fill="#f8e72a"/><path d="M11.7,7.2,10.8,6l-.4.5L9.8,5.3,9.2,6.5,8.8,6l-1,1.3a.6.6,0,0,0,.2.5l.4.2h2.6l.5-.2a.6.6,0,0,0,.2-.5" fill="#fff"/><path d="M8.1,7.9v.3h3.1V7.9H8.1" fill="#fff"/><path d="M11.2,8.4l-.2.3a3,3,0,0,1-1.1.7h0a3,3,0,0,1-1.1-.7l-.2-.3h2.8" fill="#fff"/></g></g></svg>