<?xml version="1.0" encoding="utf-8"?>
<!-- Generator: Adobe Illustrator 23.0.1, SVG Export Plug-In . SVG Version: 6.00 Build 0)  -->
<svg version="1.1" id="Layer_1" xmlns="http://www.w3.org/2000/svg" xmlns:xlink="http://www.w3.org/1999/xlink" x="0px" y="0px"
	 viewBox="0 0 33.6 19.6" enable-background="new 0 0 33.6 19.6" xml:space="preserve">
<g id="Sidebar_1_">
	<polygon display="none" fill="#F5A2C6" stroke="#002D62" stroke-width="0.25" points="23.6,9.1 23.6,7.5 20.3,9.1 	"/>
</g>
<g>
	<path fill="#CE2028" d="M-3.2,0h39.9v20H-3.2V0z"/>
	<path fill="#F9D616" d="M19.2,11.4L-3.2,0h6L19.2,11.4z M14.4,8.6L30.8,20h6L14.4,8.6z M14.4,11.4L30.8,0h6L14.4,11.4z M19.2,8.6
		L-3.2,20h6L19.2,8.6z M16.8,10l-20-2v4L16.8,10z M16.8,10l20-2v4L16.8,10z M16.8,10l-2-10h4L16.8,10z M16.8,10l-2,10h4L16.8,10z"/>
	<circle fill="#F9D616" stroke="#CE2028" stroke-width="2.5" cx="16.8" cy="10" r="3.2"/>
</g>
</svg>
