<svg xmlns="http://www.w3.org/2000/svg" xmlns:xlink="http://www.w3.org/1999/xlink" viewBox="0 0 33.6 19.6"><defs><clipPath id="a" transform="translate(-565.1 -447.1)"><rect x="565.1" y="447.1" width="33.6" height="19.58" fill="none"/></clipPath></defs><title>TUN</title><g clip-path=""><rect width="33.6" height="19.58" fill="#d30025"/><g clip-path=""><path d="M581.9,452a4.9,4.9,0,1,1-4.9,4.9,4.9,4.9,0,0,1,4.9-4.9" transform="translate(-565.1 -447.1)" fill="#fff"/><path d="M581.9,453.3a3.7,3.7,0,1,1-3.7,3.6,3.7,3.7,0,0,1,3.7-3.6" transform="translate(-565.1 -447.1)" fill="#d30025"/><path d="M582.9,454a3,3,0,0,1,0,5.9,3,3,0,1,1,0-5.9" transform="translate(-565.1 -447.1)" fill="#fff"/><polyline points="15.6 9.8 17.7 10.5 18 9.4" fill="#d30025"/><polyline points="15.6 9.8 17.7 9.1 18 10.2" fill="#d30025"/><polyline points="17.1 7.7 17.1 9.9 18.2 9.9" fill="#d30025"/><polyline points="17.1 7.7 18.4 9.5 17.5 10.1" fill="#d30025"/><polyline points="17.1 11.9 18.4 10.1 17.5 9.5" fill="#d30025"/><polyline points="17.1 11.9 17.1 9.7 18.2 9.7" fill="#d30025"/><polyline points="19.5 8.5 17.4 9.2 17.8 10.2" fill="#d30025"/><polyline points="19.5 8.5 18.2 10.3 17.4 9.6" fill="#d30025"/><polyline points="19.5 11.1 18.2 9.3 17.4 9.9" fill="#d30025"/><polyline points="19.5 11.1 17.4 10.4 17.8 9.4" fill="#d30025"/></g></g></svg>