<svg xmlns="http://www.w3.org/2000/svg" xmlns:xlink="http://www.w3.org/1999/xlink" viewBox="0 0 33.6 19.6"><defs><clipPath id="a" transform="translate(-564.5 -447.7)"><rect x="564.5" y="447.7" width="33.6" height="19.58" fill="none"/></clipPath></defs><title>TUR</title><g clip-path=""><rect width="33.6" height="19.58" fill="#d00027"/><g clip-path=""><path d="M574.3,452.6a4.9,4.9,0,0,1,4.9,4.9,4.9,4.9,0,0,1-9.8,0,4.9,4.9,0,0,1,4.9-4.9" transform="translate(-564.5 -447.7)" fill="#fff"/><path d="M575.5,453.5a4,4,0,0,1,0,7.9,4,4,0,0,1,0-7.9" transform="translate(-564.5 -447.7)" fill="#d00027"/><polygon points="13.9 9.8 16.3 10.5 16.6 9.4 13.9 9.8" fill="#fff"/><polygon points="13.9 9.8 16.3 9 16.6 10.2 13.9 9.8" fill="#fff"/><polygon points="15.6 7.5 15.6 9.9 16.8 9.9 15.6 7.5" fill="#fff"/><polygon points="15.6 7.5 17.1 9.4 16.1 10.2 15.6 7.5" fill="#fff"/><polygon points="15.6 12.1 17.1 10.1 16.1 9.4 15.6 12.1" fill="#fff"/><polygon points="15.6 12.1 15.6 9.7 16.8 9.7 15.6 12.1" fill="#fff"/><polygon points="18.4 8.4 16 9.1 16.4 10.3 18.4 8.4" fill="#fff"/><polygon points="18.4 8.4 16.9 10.3 15.9 9.6 18.4 8.4" fill="#fff"/><polygon points="18.4 11.2 16.9 9.3 15.9 10 18.4 11.2" fill="#fff"/><polygon points="18.4 11.2 16 10.5 16.4 9.3 18.4 11.2" fill="#fff"/></g></g></svg>