<svg xmlns="http://www.w3.org/2000/svg" xmlns:xlink="http://www.w3.org/1999/xlink" viewBox="0 0 33.6 19.6"><defs><clipPath id="a" transform="translate(-565 -447.7)"><rect x="565" y="447.7" width="33.6" height="19.58" fill="none"/></clipPath></defs><title>TUV</title><g clip-path=""><rect width="33.6" height="19.58" fill="#80a7d8"/><polygon points="32.2 4.8 31.3 4.2 30.3 4.8 30.7 3.8 29.7 3.1 30.9 3.1 31.3 2 31.6 3.1 32.8 3.1 31.9 3.8 32.2 4.8" fill="#f3d02f" fill-rule="evenodd"/><polygon points="29.2 13.4 28.3 12.7 27.3 13.4 27.7 12.3 26.7 11.6 27.9 11.6 28.3 10.6 28.6 11.6 29.8 11.6 28.9 12.3 29.2 13.4" fill="#f3d02f" fill-rule="evenodd"/><polygon points="32.2 11.4 31.3 10.8 30.3 11.4 30.7 10.4 29.7 9.7 30.9 9.7 31.3 8.6 31.6 9.7 32.8 9.7 31.9 10.4 32.2 11.4" fill="#f3d02f" fill-rule="evenodd"/><polygon points="19.3 17.6 18.4 17 17.4 17.6 17.8 16.6 16.8 15.9 18 15.9 18.4 14.8 18.7 15.9 19.9 15.9 19 16.6 19.3 17.6" fill="#f3d02f" fill-rule="evenodd"/><polygon points="20.8 10.8 21.8 11.5 22.8 10.8 22.4 11.9 23.4 12.6 22.2 12.6 21.8 13.6 21.4 12.6 20.2 12.6 21.2 11.9 20.8 10.8" fill="#f3d02f" fill-rule="evenodd"/><polygon points="24.4 6 25.3 6.6 26.3 6 25.9 7 26.9 7.7 25.7 7.7 25.3 8.8 25 7.7 23.8 7.7 24.7 7 24.4 6" fill="#f3d02f" fill-rule="evenodd"/><polygon points="27.3 5 28.3 5.6 29.3 5 28.9 6 29.9 6.7 28.7 6.7 28.3 7.8 27.9 6.7 26.7 6.7 27.7 6 27.3 5" fill="#f3d02f" fill-rule="evenodd"/><polygon points="24.4 13.4 25.3 14.1 26.3 13.4 25.9 14.5 26.9 15.1 25.7 15.1 25.3 16.2 25 15.1 23.8 15.1 24.7 14.5 24.4 13.4" fill="#f3d02f" fill-rule="evenodd"/><polygon points="20.8 14.3 21.8 14.9 22.8 14.3 22.4 15.3 23.4 16 22.2 16 21.8 17.1 21.4 16 20.2 16 21.2 15.3 20.8 14.3" fill="#f3d02f" fill-rule="evenodd"/><rect width="16.8" height="8.39" fill="#1b257d"/><polygon points="14.9 0 0 7.5 0 8.4 1.9 8.4 16.8 0.9 16.8 0 14.9 0" fill="#fff"/><polygon points="0 0 0 0.9 14.9 8.4 16.8 8.4 16.8 7.5 1.9 0 0 0" fill="#fff"/><polygon points="7 0 7 2.8 0 2.8 0 5.6 7 5.6 7 8.4 9.8 8.4 9.8 5.6 16.8 5.6 16.8 2.8 9.8 2.8 9.8 0 7 0" fill="#fff"/><polygon points="7.6 0 7.6 3.4 0 3.4 0 5 7.6 5 7.6 8.4 9.2 8.4 9.2 5 16.8 5 16.8 3.4 9.2 3.4 9.2 0 7.6 0" fill="#c0003b"/><polygon points="9.9 2.8 11.2 2.8 16.8 0 15.5 0 9.9 2.8" fill="#c0003b" fill-rule="evenodd"/><polygon points="0 0.6 4.3 2.8 5.6 2.8 0 0 0 0.6" fill="#c0003b"/><polygon points="16.8 8.4 16.8 7.8 12.4 5.6 11.2 5.6 16.8 8.4" fill="#c0003b" fill-rule="evenodd"/><polygon points="5.6 5.6 0 8.4 1.3 8.4 6.8 5.6 5.6 5.6" fill="#c0003b"/></g></svg>