<?xml version="1.0" encoding="utf-8"?>
<!-- Generator: Adobe Illustrator 23.0.1, SVG Export Plug-In . SVG Version: 6.00 Build 0)  -->
<svg version="1.1" id="Layer_1" xmlns="http://www.w3.org/2000/svg" xmlns:xlink="http://www.w3.org/1999/xlink" x="0px" y="0px"
	 viewBox="0 0 33.6 19.6" enable-background="new 0 0 33.6 19.6" xml:space="preserve">
<g id="Sidebar_1_">
	<polygon display="none" fill="#F5A2C6" stroke="#002D62" stroke-width="0.25" points="23.6,9.1 23.6,7.5 20.3,9.1 	"/>
</g>
<g>
	<rect id="_x31_5" x="-0.1" y="-0.2" fill="#EC1E24" width="33.9" height="22.6"/>
	<rect id="_x31_4" x="-0.1" y="-0.2" fill="#2B2F83" width="16.9" height="11.3"/>
	<path id="_x31_3" fill="#FFFFFF" d="M8.4,7.6c1.2,0,2.1-0.9,2.1-2.1c0-1.2-0.9-2.1-2.1-2.1c-1.2,0-2.1,0.9-2.1,2.1
		C6.2,6.6,7.2,7.6,8.4,7.6z"/>
	<path id="_x31_2" fill="#FFFFFF" d="M8.8,3.1L8.4,1.2L7.9,3.1C8.1,3,8.5,3,8.8,3.1z"/>
	<path id="_x31_1" fill="#FFFFFF" d="M7.6,3.2L6.2,1.8l0.5,1.9C6.9,3.5,7.3,3.3,7.6,3.2z"/>
	<path id="_x31_0" fill="#FFFFFF" d="M6.5,3.9L4.7,3.4l1.4,1.4C6.1,4.5,6.3,4.1,6.5,3.9z"/>
	<path id="_x39_" fill="#FFFFFF" d="M6,5L4.1,5.5L6,6C5.9,5.7,5.9,5.3,6,5z"/>
	<path id="_x38_" fill="#FFFFFF" d="M6,6.2L4.7,7.6l1.9-0.5C6.4,6.9,6.2,6.6,6,6.2z"/>
	<path id="_x37_" fill="#FFFFFF" d="M6.7,7.3L6.2,9.1l1.4-1.4C7.3,7.7,7,7.5,6.7,7.3z"/>
	<path id="_x36_" fill="#FFFFFF" d="M7.9,7.8l0.5,1.8l0.5-1.9C8.6,7.9,8.2,7.9,7.9,7.8z"/>
	<path id="_x35_" fill="#FFFFFF" d="M9.1,7.8l1.4,1.4L10,7.3C9.8,7.5,9.4,7.7,9.1,7.8z"/>
	<path id="_x34_" fill="#FFFFFF" d="M10.2,7.1L12,7.6l-1.4-1.4C10.6,6.5,10.4,6.8,10.2,7.1z"/>
	<path id="_x33_" fill="#FFFFFF" d="M10.7,6l1.8-0.5L10.7,5C10.8,5.2,10.8,5.6,10.7,6z"/>
	<path id="_x32_" fill="#FFFFFF" d="M10.7,4.7L12,3.4l-1.9,0.5C10.3,4,10.6,4.4,10.7,4.7z"/>
	<path id="_x31_" fill="#FFFFFF" d="M10,3.7l0.5-1.8L9.1,3.2C9.4,3.2,9.7,3.4,10,3.7z"/>
</g>
</svg>
