<svg xmlns="http://www.w3.org/2000/svg" xmlns:xlink="http://www.w3.org/1999/xlink" viewBox="0 0 33.6 19.6"><defs><clipPath id="a" transform="translate(-546.8 -447.7)"><rect x="546.8" y="447.7" width="33.6" height="19.58" fill="none"/></clipPath></defs><title>URY</title><g clip-path=""><rect width="33.6" height="19.58" fill="#fff"/><path d="M546.8,465.1h33.5v-2.2H546.8Zm0-4.4h33.5v-2.1H546.8Zm10.8-4.3h22.7v-2.2H557.6Zm0-4.4h22.7v-2.1H557.6Z" transform="translate(-546.8 -447.7)" fill="#3e73b7"/><g clip-path=""><path d="M552.2,453.1v1.6c-1.5,1.1-.6,1.8-1.6,2.1.7-.7-.2-.7.6-2.4" transform="translate(-546.8 -447.7)" fill="#eac126" fill-rule="evenodd"/><path d="M552.3,453.1v1.6h0v-1.6Zm0,1.6Zm0,.1a2.1,2.1,0,0,0-.9,1.3h-.1a2.4,2.4,0,0,1,1-1.4Zm-.9,1.3c-.1.4-.2.6-.7.7h0a1,1,0,0,0,.6-.7Zm-.7.7h0Zm-.1,0c.4-.3.4-.5.3-.8h.1c0,.3.1.5-.3.8Zm.3-.8a2.9,2.9,0,0,1,.3-1.6h.1c-.4.8-.4,1.2-.3,1.5Z" transform="translate(-546.8 -447.7)" fill="#292c2f"/><path d="M551.7,454.4a2.6,2.6,0,0,0-.5,1.5h-.1a5.4,5.4,0,0,1,.6-1.6Zm-.5,1.5c-.1.5-.1.8-.5.9h0a1,1,0,0,0,.4-.9Z" transform="translate(-546.8 -447.7)" fill="#292c2f"/><path d="M552.2,453.1v-1.6c1.5-1.1.6-1.7,1.6-2-.7.7.3.7-.6,2.3" transform="translate(-546.8 -447.7)" fill="#eac126" fill-rule="evenodd"/><path d="M552.2,453.1v-1.6h0l.2,1.6Zm-.1-1.6Zm0,0c.7-.6.9-1,.9-1.4h.1a2,2,0,0,1-1,1.3Zm.9-1.4a1,1,0,0,1,.7-.7h0c-.4.1-.5.4-.6.7Zm.7-.7h0Zm.1.1c-.4.3-.4.5-.3.7h-.1a1.2,1.2,0,0,1,.3-.9Zm-.3.7a2.7,2.7,0,0,1-.3,1.6h-.1c.4-.8.4-1.2.3-1.5Z" transform="translate(-546.8 -447.7)" fill="#292c2f"/><path d="M552.7,451.9a3.2,3.2,0,0,0,.5-1.6h.1a9,9,0,0,1-.5,1.6Zm.5-1.6c.1-.4.1-.7.5-.9h0c-.3.1-.3.4-.4.8Z" transform="translate(-546.8 -447.7)" fill="#292c2f"/><path d="M552.2,453.1h-1.6c-1.1-1.4-1.7-.5-2.1-1.6.8.7.8-.2,2.4.6" transform="translate(-546.8 -447.7)" fill="#eac126" fill-rule="evenodd"/><path d="M552.2,453.2h0Zm-1.6.1Zm-.1,0a1.8,1.8,0,0,0-1.3-1h0a2.1,2.1,0,0,1,1.4,1Zm-1.3-1a1,1,0,0,1-.7-.7h.1c.1.5.3.5.6.6Zm-.7-.7h0Zm.1,0c.3.3.5.3.7.2h0a.8.8,0,0,1-.8-.3Zm.7.2a2.5,2.5,0,0,1,1.6.4h0a2.9,2.9,0,0,0-1.6-.3Z" transform="translate(-546.8 -447.7)" fill="#292c2f"/><path d="M551,452.7a5.4,5.4,0,0,0-1.6-.6h0a5.4,5.4,0,0,1,1.6.6Zm-1.6-.6a.9.9,0,0,1-.9-.5h.1c.1.3.4.4.8.4Z" transform="translate(-546.8 -447.7)" fill="#292c2f"/><path d="M552.2,453.1h1.6c1.1,1.5,1.7.6,2.1,1.7-.8-.7-.7.2-2.4-.6" transform="translate(-546.8 -447.7)" fill="#eac126" fill-rule="evenodd"/><path d="M552.2,453.1h1.6l-1.6.2Zm1.6-.1Zm.1,0a1.8,1.8,0,0,0,1.3,1h0a2.4,2.4,0,0,1-1.4-1.1Zm1.3,1c.3.1.6.1.7.7h-.1c-.1-.5-.3-.6-.6-.6Zm.7.7h0Zm-.1,0a.8.8,0,0,0-.7-.3h0c.2-.1.4-.1.8.2Zm-.7-.3c-.3.1-.7.1-1.6-.3h0a2.5,2.5,0,0,0,1.6.4Z" transform="translate(-546.8 -447.7)" fill="#292c2f"/><path d="M553.4,453.6a3.2,3.2,0,0,0,1.6.5h0a4.7,4.7,0,0,1-1.6-.5Zm1.6.5c.4.1.7.1.9.6h-.1c-.1-.4-.4-.4-.8-.5Z" transform="translate(-546.8 -447.7)" fill="#292c2f"/><path d="M552.2,453.1l-1.1,1.3c-1.8-.3-1.6.8-2.6.3,1.1-.1.4-.7,2.1-1.3" transform="translate(-546.8 -447.7)" fill="#eac126" fill-rule="evenodd"/><path d="M552.2,453.1l-1,1.3h-.1l1.1-1.2Zm-1,1.3h0Zm-.1,0a1.8,1.8,0,0,0-1.6.3h-.1a2.1,2.1,0,0,1,1.7-.3Zm-1.6.3a1.1,1.1,0,0,1-1,0h0a.9.9,0,0,0,.9,0Zm-1,0h0Zm0-.1c.5,0,.6-.1.8-.4h0a.8.8,0,0,1-.8.4Zm.8-.4c.1-.2.4-.5,1.3-.8h0a2.5,2.5,0,0,0-1.3.9Z" transform="translate(-546.8 -447.7)" fill="#292c2f"/><path d="M551,453.7a4.2,4.2,0,0,0-1.5.7h0a4.2,4.2,0,0,1,1.5-.7Zm-1.5.7a1,1,0,0,1-1,.3h0c.4.1.6,0,1-.3Z" transform="translate(-546.8 -447.7)" fill="#292c2f"/><path d="M552.2,453.1l1.1-1.2c1.8.3,1.6-.8,2.6-.3-1.1,0-.4.7-2.1,1.3" transform="translate(-546.8 -447.7)" fill="#eac126" fill-rule="evenodd"/><path d="M552.2,453.1l1-1.2h.1l-1.1,1.2Zm1-1.2h0Zm.1,0a2.1,2.1,0,0,0,1.6-.3h.1a2.2,2.2,0,0,1-1.7.2Zm1.6-.3a.7.7,0,0,1,1,0h0c-.5-.2-.7-.1-.9.1Zm1,0h0Zm0,.1c-.5,0-.6.1-.7.3h-.1a.9.9,0,0,1,.8-.4Zm-.7.3a2.3,2.3,0,0,1-1.4.9h0a2.5,2.5,0,0,0,1.3-.8Z" transform="translate(-546.8 -447.7)" fill="#292c2f"/><path d="M553.4,452.6a3,3,0,0,0,1.5-.8h0a3,3,0,0,1-1.5.8Zm1.5-.8c.3-.2.6-.4,1-.2h0c-.4-.1-.6.1-1,.3Z" transform="translate(-546.8 -447.7)" fill="#292c2f"/><path d="M552.2,453.1l-1.2-1c.3-1.9-.8-1.7-.3-2.6,0,1,.7.3,1.2,2" transform="translate(-546.8 -447.7)" fill="#eac126" fill-rule="evenodd"/><path d="M552.2,453.2l-1.2-1.1h0l1.2,1.1Zm-1.2-1.1Zm0,0a2.3,2.3,0,0,0-.3-1.7h.1a2.4,2.4,0,0,1,.2,1.7Zm-.3-1.7a.7.7,0,0,1-.1-.9h.1a.7.7,0,0,0,.1.9Zm-.1-.9v0h-.1Zm.1,0c0,.4.2.5.4.7h0c-.3-.1-.4-.2-.5-.7Zm.4.7a2.5,2.5,0,0,1,.9,1.3h-.1a2.5,2.5,0,0,0-.8-1.4Z" transform="translate(-546.8 -447.7)" fill="#292c2f"/><path d="M551.7,451.9a3.5,3.5,0,0,0-.8-1.5h.1a3,3,0,0,1,.7,1.5Zm-.8-1.5c-.2-.3-.4-.5-.3-.9h.1a.9.9,0,0,0,.3.9Z" transform="translate(-546.8 -447.7)" fill="#292c2f"/><path d="M552.2,453.1l1.2,1.1c-.3,1.8.8,1.6.3,2.6,0-1-.7-.3-1.2-2.1" transform="translate(-546.8 -447.7)" fill="#eac126" fill-rule="evenodd"/><path d="M552.2,453.1l1.2,1h0l-1.2-1Zm1.2,1h0Zm0,.1a2.4,2.4,0,0,0,.3,1.7h-.1a2.4,2.4,0,0,1-.2-1.7Zm.3,1.7a.7.7,0,0,1,.1.9h-.1a.7.7,0,0,0-.1-.9Zm.1.9v0h.1Zm-.1,0a.7.7,0,0,0-.4-.7h.1a1.2,1.2,0,0,1,.4.8Zm-.4-.7a3.1,3.1,0,0,1-.9-1.4h.1c.3.9.6,1.2.9,1.3Z" transform="translate(-546.8 -447.7)" fill="#292c2f"/><path d="M552.8,454.3a2.3,2.3,0,0,0,.7,1.5h-.1a4.2,4.2,0,0,1-.7-1.5Zm.7,1.5c.2.4.4.6.3,1h-.1a.8.8,0,0,0-.3-.9Z" transform="translate(-546.8 -447.7)" fill="#292c2f"/><polyline points="5.5 5.5 6.1 5.5 5.5 9.4 4.7 5.5 5.5 5.5 5.5 9.4" fill="#eac126" fill-rule="evenodd"/><path d="M552.2,453.1h0Zm.7,0h0Zm.1,0-.7,4h-.1l.7-4Zm-.7,4v0h.1Zm-.1,0-.8-4h.1l.8,4Zm-.8-4h0Zm.1,0h0Zm.7,0h0Zm.1,4h-.1v-4h.1Z" transform="translate(-546.8 -447.7)" fill="#292c2f"/><polyline points="5.5 5.5 4.7 5.5 5.5 1.4 6.1 5.5 5.5 5.5 5.5 1.4" fill="#eac126" fill-rule="evenodd"/><path d="M552.2,453.2h0Zm-.7,0h0Zm-.1-.1.8-4h.1l-.8,3.9Zm.8-4v0Zm.1,0,.7,4h-.1l-.7-3.9Zm.7,4.1h0Zm-.1,0h0Zm-.7,0Zm0-4.1h.1v4h-.1Z" transform="translate(-546.8 -447.7)" fill="#292c2f"/><polyline points="5.5 5.5 5.5 6.2 1.5 5.5 5.5 4.7 5.5 5.5 1.5 5.5" fill="#eac126" fill-rule="evenodd"/><path d="M552.3,453.9h-.1v-.8h.1Zm0,0Zm-.1,0-4-.7h0l4,.7Zm-4-.7h0Zm0-.1,4-.7h0l-4,.8Zm4-.7h0Zm.1.7h-.1v-.7h.1Zm0,.1h0Zm-.1,0h0Z" transform="translate(-546.8 -447.7)" fill="#292c2f"/><polyline points="5.5 5.5 5.5 4.7 9.4 5.5 5.5 6.2 5.5 5.5 9.4 5.5" fill="#eac126" fill-rule="evenodd"/><path d="M552.2,452.4h.1v.7h-.1Zm0,0Zm0,0,4,.7h0l-4-.8Zm4,.7h0Zm0,.1-4,.7h0l4-.7Zm-4,.7Zm0-.8h.1v.8h-.1Zm0,0Zm0,0h0Z" transform="translate(-546.8 -447.7)" fill="#292c2f"/><polyline points="5.5 5.5 6 6 2.6 8.3 4.9 4.9 5.5 5.5 2.6 8.3" fill="#eac126" fill-rule="evenodd"/><path d="M552.2,453.1l.6.5h-.1l-.5-.5Zm.6.5Zm-.1.1-3.3,2.3h0l3.3-2.3Zm-3.3,2.3h-.1v-.2h.1Zm-.1-.1,2.4-3.3h0l-2.3,3.4Zm2.4-3.3Zm0,0,.5.5h0l-.5-.6Zm.5.5h0Zm0,.1-2.8,2.8h0l2.8-2.8Z" transform="translate(-546.8 -447.7)" fill="#292c2f"/><polyline points="5.5 5.5 4.9 4.9 8.3 2.6 6 6 5.5 5.5 8.3 2.6" fill="#eac126" fill-rule="evenodd"/><path d="M552.2,453.2l-.5-.6h0l.5.5Zm-.5-.6Zm0,0,3.3-2.3h0l-3.3,2.3Zm3.3-2.3h0Zm.1,0-2.3,3.4h-.1l2.3-3.3Zm-2.3,3.4h0Zm-.1,0-.5-.5h0l.6.5Zm-.5-.5h0Zm0-.1,2.8-2.8h.1l-2.9,2.9Z" transform="translate(-546.8 -447.7)" fill="#292c2f"/><polyline points="5.5 5.5 4.9 6 2.6 2.6 6 4.9 5.5 5.5 2.6 2.6" fill="#eac126" fill-rule="evenodd"/><path d="M552.2,453.2l-.5.5h0l.5-.5Zm-.5.5Zm0,0-2.4-3.4h.1l2.3,3.3Zm-2.4-3.4h0Zm.1,0,3.3,2.3h0l-3.3-2.3Zm3.3,2.3h0Zm.1,0-.6.6h0l.5-.5Zm-.6.6Zm0,0-2.8-2.9h0l2.8,2.8Z" transform="translate(-546.8 -447.7)" fill="#292c2f"/><polyline points="5.5 5.5 6 4.9 8.3 8.3 4.9 6 5.5 5.5 8.3 8.3" fill="#eac126" fill-rule="evenodd"/><path d="M552.2,453.1l.5-.5h.1l-.6.6Zm.5-.5Zm.1,0,2.3,3.3H555l-2.3-3.4Zm2.3,3.3v.2h-.1Zm-.1.1-3.3-2.3h0l3.3,2.3Zm-3.3-2.3h0Zm0-.1.5-.5h0l-.5.5Zm.5-.5Zm0,0,2.9,2.8H555l-2.8-2.8Z" transform="translate(-546.8 -447.7)" fill="#292c2f"/><path d="M553.5,453.1a1.3,1.3,0,1,0-2.6,0,1.3,1.3,0,1,0,2.6,0" transform="translate(-546.8 -447.7)" fill="#eac126" fill-rule="evenodd"/><path d="M553.5,453.1a1.1,1.1,0,0,0-.4-.9h.1a1.5,1.5,0,0,1,.4.9Zm-.4-.9a1.3,1.3,0,0,0-.9-.4h0a1.3,1.3,0,0,1,1,.4Zm-.9-.4a1.3,1.3,0,0,0-.9.4h-.1a1.3,1.3,0,0,1,1-.4Zm-.9.4a1.5,1.5,0,0,0-.4.9h-.1a1.5,1.5,0,0,1,.4-.9Zm-.4.9a1.8,1.8,0,0,0,.4,1h-.1a1.8,1.8,0,0,1-.4-1Zm.4,1a1.2,1.2,0,0,0,.9.3h0a1.8,1.8,0,0,1-1-.4Zm.9.3a1.2,1.2,0,0,0,.9-.3h.1a1.8,1.8,0,0,1-1,.4Zm.9-.3a1.3,1.3,0,0,0,.4-1h.1a1.8,1.8,0,0,1-.4,1Z" transform="translate(-546.8 -447.7)" fill="#292c2f"/><path d="M553.2,452.6c-.1.1-.2-.1-.4-.1s-.4.2-.5.2l.4-.3.5.2" transform="translate(-546.8 -447.7)" fill="#292c2f" fill-rule="evenodd"/><path d="M552.8,452.7c.1.1,0,.3,0,.3s-.3-.2-.2-.3" transform="translate(-546.8 -447.7)" fill="#292c2f" fill-rule="evenodd"/><path d="M552.4,452.8c0-.1.2-.2.4-.2l.3.2h-.7" transform="translate(-546.8 -447.7)" fill="#292c2f" fill-rule="evenodd"/><path d="M552.5,452.9h.5c.1,0-.1.2-.2.2h-.3" transform="translate(-546.8 -447.7)" fill="#292c2f" fill-rule="evenodd"/><path d="M552.9,452.9c.1,0,0-.2,0-.2s.1.2,0,.2" transform="translate(-546.8 -447.7)" fill="#292c2f" fill-rule="evenodd"/><path d="M552.2,453.6h.2c.1,0,.3.2.4.1s-.1,0-.6,0h0" transform="translate(-546.8 -447.7)" fill="#292c2f" fill-rule="evenodd"/><path d="M552.9,453.8v-.2c.1.1.1.1.1.2" transform="translate(-546.8 -447.7)" fill="#292c2f" fill-rule="evenodd"/><path d="M552.2,453.9a.7.7,0,0,0,.6-.2h-.6" transform="translate(-546.8 -447.7)" fill="#292c2f" fill-rule="evenodd"/><path d="M552.2,453.5h.5a.1.1,0,0,0-.1-.1c-.1,0-.1-.2-.2-.2h-.2" transform="translate(-546.8 -447.7)" fill="#292c2f" fill-rule="evenodd"/><path d="M551.2,452.6c.1.1.2-.1.5-.1s.3.2.4.2l-.4-.3-.5.2" transform="translate(-546.8 -447.7)" fill="#292c2f" fill-rule="evenodd"/><path d="M551.6,452.7a.2.2,0,0,0,.1.3s.2-.2.1-.3" transform="translate(-546.8 -447.7)" fill="#292c2f" fill-rule="evenodd"/><path d="M552,452.8c0-.1-.2-.2-.3-.2s-.3.2-.4.2h.7" transform="translate(-546.8 -447.7)" fill="#292c2f" fill-rule="evenodd"/><path d="M551.9,452.9h-.5c-.1,0,.1.2.3.2h.2" transform="translate(-546.8 -447.7)" fill="#292c2f" fill-rule="evenodd"/><path d="M551.5,452.9c-.1,0,0-.2,0-.2s-.1.2,0,.2" transform="translate(-546.8 -447.7)" fill="#292c2f" fill-rule="evenodd"/><path d="M552.2,453.6H552c-.1,0-.3.2-.4.1s.1,0,.6,0h.1" transform="translate(-546.8 -447.7)" fill="#292c2f" fill-rule="evenodd"/><path d="M551.5,453.8l.2-.2c-.1.1-.2.1-.2.2" transform="translate(-546.8 -447.7)" fill="#292c2f" fill-rule="evenodd"/><path d="M552.2,453.9c-.3,0-.2,0-.6-.2h.7" transform="translate(-546.8 -447.7)" fill="#292c2f" fill-rule="evenodd"/><path d="M552.2,453.5h-.5a.1.1,0,0,1,.1-.1c.1,0,.1-.2.2-.2h.2" transform="translate(-546.8 -447.7)" fill="#292c2f" fill-rule="evenodd"/><path d="M552.2,454.1h0" transform="translate(-546.8 -447.7)" fill="#292c2f" fill-rule="evenodd"/></g></g></svg>