<svg xmlns="http://www.w3.org/2000/svg" xmlns:xlink="http://www.w3.org/1999/xlink" viewBox="0 0 33.6 19.6"><defs><clipPath id="a" transform="translate(-565.1 -447.1)"><rect x="565.1" y="447.1" width="33.6" height="19.58" fill="none"/></clipPath><clipPath id="d" transform="translate(-565.1 -447.1)"><rect x="587.3" y="455.3" width="0.1" height="0.39" fill="none"/></clipPath><clipPath id="e" transform="translate(-565.1 -447.1)"><rect x="591.7" y="455.5" width="0.5" height="0.48" fill="none"/></clipPath><clipPath id="f" transform="translate(-565.1 -447.1)"><path d="M591.8,455.5c-.1,0-.1,0-.1.1l.3.4c.1,0,.1-.1.1-.2s-.1-.2-.3-.3Z" fill="none"/></clipPath><linearGradient id="g" x1="-621.06" y1="428.55" x2="-621.03" y2="428.55" gradientTransform="matrix(-0.01, -19.17, -19.17, 0.01, 8799.68, -11451.88)" gradientUnits="userSpaceOnUse"><stop offset="0"/><stop offset="1"/></linearGradient><clipPath id="h" transform="translate(-565.1 -447.1)"><rect x="593.2" y="455.3" width="0.1" height="0.39" fill="none"/></clipPath><clipPath id="i" transform="translate(-565.1 -447.1)"><path d="M591.5,451.7h0" fill="none"/></clipPath><radialGradient id="j" cx="-411.91" cy="655.59" r="0.03" gradientTransform="translate(889.5 -1390.3) scale(2.1 2.13)" gradientUnits="userSpaceOnUse"><stop offset="0" stop-color="#fff"/><stop offset="1" stop-color="#c7c7c7"/></radialGradient><clipPath id="l" transform="translate(-565.1 -447.1)"><path d="M590.7,451.5h0c.1,0,.1,0,.1-.1a.1.1,0,0,0-.1-.1h0" fill="none"/></clipPath><radialGradient id="m" cx="-422.19" cy="632.16" r="0.03" gradientTransform="translate(1021.7 -1510) scale(2.36 2.4)" xlink:href="#j"/><clipPath id="o" transform="translate(-565.1 -447.1)"><path d="M589.8,451.5c0,.1,0,.1.1.1h-.1" fill="none"/></clipPath><radialGradient id="p" cx="-411.28" cy="632.05" r="0.03" gradientTransform="translate(995.3 -1510.2) scale(2.36 2.4)" xlink:href="#j"/><clipPath id="r" transform="translate(-565.1 -447.1)"><path d="M589,451.7h0" fill="none"/></clipPath><radialGradient id="s" cx="-380.95" cy="650.94" r="0.03" gradientTransform="translate(839.5 -1410.5) scale(2.14 2.17)" xlink:href="#j"/><clipPath id="u" transform="translate(-565.1 -447.1)"><path d="M590.6,454.5h.1c-.1,0-.1,0-.1.1" fill="none"/></clipPath><radialGradient id="v" cx="-397.68" cy="619.23" r="0.03" gradientTransform="translate(849.7 -1295.6) scale(2.07 2.1)" xlink:href="#j"/><clipPath id="x" transform="translate(-565.1 -447.1)"><path d="M589.9,454.5h.1c0-.1,0-.1-.1-.1h0" fill="none"/></clipPath><radialGradient id="y" cx="-386.89" cy="619.07" r="0.03" gradientTransform="translate(826.8 -1295.7) scale(2.07 2.1)" xlink:href="#j"/><clipPath id="aa" transform="translate(-565.1 -447.1)"><path d="M591.6,453.2h0a.1.1,0,0,0,.1-.1h-.1" fill="none"/></clipPath><radialGradient id="ab" cx="-421.59" cy="624.57" r="0.03" gradientTransform="translate(954.3 -1389.6) scale(2.2 2.23)" xlink:href="#j"/><clipPath id="ad" transform="translate(-565.1 -447.1)"><path d="M590.7,453c0,.1,0,.1.1.1h-.1" fill="none"/></clipPath><radialGradient id="ae" cx="-430.75" cy="605.05" r="0.03" gradientTransform="translate(1093 -1516.5) scale(2.48 2.52)" xlink:href="#j"/><clipPath id="ag" transform="translate(-565.1 -447.1)"><path d="M589.8,453h0c.1,0,.1,0,.1-.1h-.1" fill="none"/></clipPath><radialGradient id="ah" cx="-419.8" cy="604.94" r="0.03" gradientTransform="translate(1065.1 -1516.4) scale(2.48 2.52)" xlink:href="#j"/><clipPath id="aj" transform="translate(-565.1 -447.1)"><path d="M588.9,453.2a.1.1,0,0,0,.1.1h-.1" fill="none"/></clipPath><radialGradient id="ak" cx="-390.74" cy="620.81" r="0.03" gradientTransform="translate(902.7 -1411.7) scale(2.25 2.28)" xlink:href="#j"/><clipPath id="am" transform="translate(-565.1 -447.1)"><path d="M589.1,454.6h0" fill="none"/></clipPath><radialGradient id="an" cx="-354.18" cy="636.17" r="0.03" gradientTransform="translate(690.5 -1208.1) scale(1.88 1.91)" xlink:href="#j"/><clipPath id="ap" transform="translate(-565.1 -447.1)"><path d="M591.4,454.6h0" fill="none"/></clipPath><radialGradient id="aq" cx="-384.31" cy="640.61" r="0.03" gradientTransform="translate(733.6 -1189.8) scale(1.84 1.87)" xlink:href="#j"/></defs><title>VAT</title><g clip-path=""><g clip-path=""><rect width="33.6" height="19.58" fill="#fff"/><rect width="16.8" height="19.58" fill="#f7e029"/><g clip-path=""><path d="M591.6,455.2c0,.1-.6.2-1.3.2s-1.3-.1-1.3-.2h0c0-.1.6-.2,1.3-.2s1.3.1,1.3.2Z" transform="translate(-565.1 -447.1)" fill="#b6003c"/><path d="M590.3,455.4c-.7,0-1.3-.1-1.3-.2h0a2.7,2.7,0,0,0,1.3.2c.7,0,1.3-.1,1.3-.2s-.6-.2-1.3-.2h0c.7,0,1.3.1,1.3.2s-.6.2-1.3.2Z" transform="translate(-565.1 -447.1)"/><path d="M590.2,455.1l-.5-.5c-.3,1.1-1.1,1.9-1.5,1.6l.5.5c.4.3,1.2-.5,1.5-1.6Z" transform="translate(-565.1 -447.1)" fill="#fff"/><path d="M588.9,456.8h-.2l-.5-.5h.2c.4,0,1-.7,1.3-1.6l.5.5c-.3,1-.9,1.7-1.3,1.7Zm-.7-.6.5.5h.2c.4,0,1-.7,1.3-1.6l-.5-.5c-.3,1.1-1.1,1.9-1.5,1.6Z" transform="translate(-565.1 -447.1)"/><path d="M590.1,455c-.3,1.1-1.1,1.9-1.4,1.6h0c.4.3,1.2-.5,1.5-1.6Z" transform="translate(-565.1 -447.1)" fill="#f3bb27"/><path d="M588.9,456.8h-.1c.4,0,1.1-.7,1.3-1.7h.1c-.3,1-.9,1.7-1.3,1.7Zm-.2-.2h.2c.4,0,1-.7,1.3-1.6h-.1c-.3,1.2-1.1,1.9-1.4,1.6Z" transform="translate(-565.1 -447.1)"/><path d="M589.7,454.6c-.3,1.1-1.1,1.9-1.5,1.6h.1c.3.3,1.1-.5,1.4-1.6Z" transform="translate(-565.1 -447.1)" fill="#f3bb27"/><path d="M588.5,456.3h0c-.1,0-.2,0-.2-.1h.1c.4,0,1-.7,1.3-1.6h0c-.2,1-.9,1.7-1.2,1.7Zm-.3-.1h.1c0,.1.1.1.2.1s1-.7,1.2-1.7h0c-.3,1.1-1.1,1.9-1.5,1.6Z" transform="translate(-565.1 -447.1)"/><path d="M589.8,455.2l-.2.2h-.1c0,.1-.1.1-.1.2h.2l-.3.3h.2l.2-.4h.1a.3.3,0,0,0,.1-.2h-.1c0-.1.1-.2.1-.3Z" transform="translate(-565.1 -447.1)" fill="#f3bb27"/><path d="M589.5,456h-.2l.2-.3h-.1c0-.1.1-.1.1-.2h.2v-.2h0v.2h-.2v.2h.2l-.3.3h.2c.1-.1.1-.3.2-.4h.1a.3.3,0,0,0,.1-.2h-.1v-.3h0v.3h-.1l-.2.4Z" transform="translate(-565.1 -447.1)"/><path d="M590.4,455.1l.5-.5c.3,1.1,1.1,1.9,1.5,1.6l-.5.5c-.4.3-1.2-.5-1.5-1.6Z" transform="translate(-565.1 -447.1)" fill="#fff"/><path d="M591.7,456.8c-.4,0-1-.7-1.3-1.7l.5-.5c.3.9.9,1.6,1.3,1.6h.2l-.5.5Zm-.8-2.2-.5.5c.3.9.9,1.6,1.3,1.6h.2l.5-.5h-.2c-.4,0-1-.6-1.3-1.6Z" transform="translate(-565.1 -447.1)"/><path d="M590.9,454.6c.3,1.1,1.1,1.9,1.5,1.6h-.1c-.4.3-1.1-.5-1.4-1.6Z" transform="translate(-565.1 -447.1)" fill="#f3bb27"/><path d="M592.1,456.3c-.3,0-1-.7-1.2-1.7h0c.3.9.9,1.6,1.3,1.6h.1c0,.1-.1.1-.2.1Zm-1.2-1.7h0c.2,1,.9,1.7,1.2,1.7s.2,0,.2-.1h.1c-.4.3-1.2-.5-1.5-1.6Z" transform="translate(-565.1 -447.1)"/><path d="M590.4,463.2a.2.2,0,0,0-.2.2,1.6,1.6,0,0,0,0,.7h.5v-.7c-.1-.2-.2-.2-.3-.2Z" transform="translate(-565.1 -447.1)" fill="#aa001e"/><path d="M590.4,464.2h-.2a1.6,1.6,0,0,1,0-.7s.1-.2.2-.2a.4.4,0,0,1,.3.2,1.6,1.6,0,0,1,0,.7Zm-.2-.1h.5v-.7h-.5a1.6,1.6,0,0,0,0,.7Z" transform="translate(-565.1 -447.1)"/><polygon points="25.3 17 25.3 17 25.3 16.5 25.3 17 25.3 17 25.3 17"/><path d="M590.4,464.1h0v0Z" transform="translate(-565.1 -447.1)"/><path d="M590.3,464.1h0v0Z" transform="translate(-565.1 -447.1)"/><path d="M590.3,464.1h0v-.2c-.1-.1-.1-.2,0-.4s0,.3,0,.4v.2Z" transform="translate(-565.1 -447.1)"/><path d="M590.2,464.1h0v0Z" transform="translate(-565.1 -447.1)"/><path d="M590.5,464.1h0v0Z" transform="translate(-565.1 -447.1)"/><path d="M590.5,464.1h0v-.2c0-.1.1-.2,0-.3a.4.4,0,0,1,.1.3.3.3,0,0,0-.1.2Z" transform="translate(-565.1 -447.1)"/><path d="M590.6,464.1h0v0Z" transform="translate(-565.1 -447.1)"/><path d="M590.6,464.1h0v-.2a.3.3,0,0,0,0-.4.6.6,0,0,1,.1.4c-.1,0-.1.1-.1.2Z" transform="translate(-565.1 -447.1)"/><path d="M590.7,463.2a.3.3,0,0,1-.3.3c-.1,0-.2-.1-.2-.3a.2.2,0,0,1,.2-.2c.2,0,.3.1.3.2Z" transform="translate(-565.1 -447.1)" fill="#aa001e"/><path d="M590.4,463.5c-.1,0-.2-.1-.2-.3a.2.2,0,0,1,.2-.2c.2,0,.3.1.3.2a.3.3,0,0,1-.3.3Zm0-.5a.2.2,0,0,0-.2.2c0,.2.1.3.2.3a.3.3,0,0,0,.3-.3c0-.1-.1-.2-.3-.2Z" transform="translate(-565.1 -447.1)"/><path d="M590.3,457.8v5.3h.3v-5.5Z" transform="translate(-565.1 -447.1)" fill="#aa001e"/><path d="M590.4,463.2h-.1v-5.3l.3-.2v5.5h-.2Zm.2-5.6-.3.2v5.3h.3v-5.5Z" transform="translate(-565.1 -447.1)"/><path d="M590.3,463.4c-.1,0-.3,0-.3.2a1.1,1.1,0,0,0,0,.6h.5a1.1,1.1,0,0,0,0-.6.2.2,0,0,0-.2-.2Z" transform="translate(-565.1 -447.1)" fill="#aa001e"/><path d="M590.3,464.3H590a1.1,1.1,0,0,1,0-.6c0-.1.1-.2.3-.2a.2.2,0,0,1,.2.2,1.1,1.1,0,0,1,0,.6Zm-.3-.1h.5a1.1,1.1,0,0,0,0-.6.2.2,0,0,0-.2-.2c-.2,0-.3.1-.3.2v.6Z" transform="translate(-565.1 -447.1)"/><path d="M590.3,464.3h0v0Z" transform="translate(-565.1 -447.1)"/><path d="M590.2,464.3h0v0Z" transform="translate(-565.1 -447.1)"/><path d="M590.2,464.3a.1.1,0,0,1-.1-.1h0v-.4a.8.8,0,0,0,.1.4h0Z" transform="translate(-565.1 -447.1)"/><path d="M590.1,464.2h0v0Z" transform="translate(-565.1 -447.1)"/><path d="M590.1,464.2H590v0Z" transform="translate(-565.1 -447.1)"/><path d="M590.3,464.3h0v0Z" transform="translate(-565.1 -447.1)"/><path d="M590.4,464.3h0v0h0Z" transform="translate(-565.1 -447.1)"/><path d="M590.4,464.2h0v-.5c.1.1,0,.2,0,.3v.2Z" transform="translate(-565.1 -447.1)"/><path d="M590.5,464.2h0v0Z" transform="translate(-565.1 -447.1)"/><path d="M590.5,463.4a.2.2,0,0,1-.2.2c-.2,0-.3-.1-.3-.2a.3.3,0,0,1,.3-.3c.1,0,.2.1.2.3Z" transform="translate(-565.1 -447.1)" fill="#aa001e"/><path d="M590.3,463.6c-.2,0-.3-.1-.3-.2a.3.3,0,0,1,.3-.3c.1,0,.2.1.2.3a.2.2,0,0,1-.2.2Zm0-.5a.3.3,0,0,0-.3.3c0,.1.1.2.3.2a.2.2,0,0,0,.2-.2c0-.2-.1-.3-.2-.3Z" transform="translate(-565.1 -447.1)"/><path d="M590.1,457.7v5.5c0,.1,0,.1.1.1h.1c.1,0,.1,0,.1-.1v-5.7Z" transform="translate(-565.1 -447.1)" fill="#aa001e"/><path d="M590.3,463.4h-.1c-.1,0-.1,0-.1-.1v-5.5l.3-.2v5.7c0,.1,0,.1-.1.1Zm.1-5.9-.3.2v5.5a.1.1,0,0,0,.1.1h.1c.1,0,.1,0,.1-.1v-5.7Z" transform="translate(-565.1 -447.1)"/><path d="M590.4,457.6a8.2,8.2,0,0,0,.6,2.6,2.2,2.2,0,0,0,.7.9.5.5,0,0,0,.6.1h.4s-.1.2,0,.3h-.3a1,1,0,0,1-.9-.2,2.6,2.6,0,0,1-.7-1,6.3,6.3,0,0,1-.6-2.7Z" transform="translate(-565.1 -447.1)" fill="#aa001e"/><path d="M592.1,461.5a.7.7,0,0,1-.6-.2,2,2,0,0,1-.7-1,6.3,6.3,0,0,1-.6-2.7h.2a7.6,7.6,0,0,0,.6,2.6,2.2,2.2,0,0,0,.7.9.5.5,0,0,0,.4.2h.6s-.1.2,0,.3h-.6Zm-1.7-3.9h-.2a6.3,6.3,0,0,0,.6,2.7,2,2,0,0,0,.7,1,1,1,0,0,0,.9.2h.2v-.3h-.6l-.5-.2a3.5,3.5,0,0,1-.6-.9,7.6,7.6,0,0,1-.6-2.6Z" transform="translate(-565.1 -447.1)"/><path d="M590.2,457.6a6.2,6.2,0,0,1-.6,2.6,3.5,3.5,0,0,1-.6.9.6.6,0,0,1-.7.1h-.4s.2.2.1.3h.2a1.2,1.2,0,0,0,1-.2,2.4,2.4,0,0,0,.6-1,6.4,6.4,0,0,0,.7-2.7Z" transform="translate(-565.1 -447.1)" fill="#aa001e"/><path d="M588.5,461.5h0l.7-.2a2.9,2.9,0,0,0,.6-1,6.4,6.4,0,0,0,.7-2.7h-.3a5.8,5.8,0,0,1-.6,2.6,3.5,3.5,0,0,1-.6.9.6.6,0,0,1-.7.1h-.4c.1,0,.1.1.1.2a.3.3,0,0,0-.1-.2h.4a.6.6,0,0,0,.7-.1,3.5,3.5,0,0,0,.6-.9,5.8,5.8,0,0,0,.6-2.6h.3a8.2,8.2,0,0,1-.6,2.7l-.7,1a.8.8,0,0,1-.7.2Z" transform="translate(-565.1 -447.1)"/><path d="M585.7,452.9a.2.2,0,0,0,.4,0c0-.2-.1-.3-.2-.3s-.2.1-.2.3Z" transform="translate(-565.1 -447.1)" fill="#f3bb27"/><path d="M585.9,453.1a.2.2,0,0,1-.2-.2c0-.2.1-.3.2-.3a.3.3,0,0,1,.3.3c0,.1-.2.2-.3.2Zm0-.5c-.1,0-.2.1-.2.3a.2.2,0,0,0,.4,0c0-.2-.1-.3-.2-.3Z" transform="translate(-565.1 -447.1)"/><path d="M586.1,452.9l.2.2v.2l-.3-.3s.1-.2.2-.1Z" transform="translate(-565.1 -447.1)" fill="#bebebe"/><path d="M586.2,453.3l-.3-.2h.2l.2.2v.2Zm-.2-.4h-.1l.3.3v-.2l-.2-.2Z" transform="translate(-565.1 -447.1)"/><path d="M586.4,453l.3.3,2.1,2.2-.3.3-2.2-2.2-.2-.2c0-.2.2-.3.3-.4Zm2.6,2.6,1.4,1.5-.3.3-1.5-1.5.4-.3Z" transform="translate(-565.1 -447.1)" fill="#bebebe"/><path d="M590.1,457.4l-1.5-1.4a.8.8,0,0,1,.4-.4l1.4,1.5-.3.3Zm-1.1-1.8-.4.3,1.5,1.5.3-.3-1.4-1.5Zm-.5.2h0l-2.4-2.4c0-.2.2-.3.3-.4l.3.3,2.1,2.2-.3.3Zm-2.1-2.7a.3.3,0,0,0-.3.3l.2.2,2.2,2.2.3-.3-2.4-2.4Z" transform="translate(-565.1 -447.1)"/><path d="M586.7,453.3l.2.2.7.9a5.7,5.7,0,0,1,.9.8l.2.2-1.1-.8.8,1.1-.2-.2-.7-.9a4.4,4.4,0,0,1-.8-.7l-.4-.3,1.2.8-.8-1.1Z" transform="translate(-565.1 -447.1)" fill="#f3bb27"/><path d="M588.4,455.7l-.2-.2c-.2-.2-.7-.9-.8-.9a4.5,4.5,0,0,1-.7-.7l-.4-.3,1.2.8a5.2,5.2,0,0,1-.8-1.1h0l.2.2.7.9a5.7,5.7,0,0,1,.9.8l.3.2h0l-1.2-.8.8,1.1Zm-2-2.1.3.3a2.5,2.5,0,0,0,.8.7l.7.9h.1l-.7-1h0l1.1.8-.2-.2-.9-.8-.7-.9-.2-.2a6.3,6.3,0,0,0,.8,1.1h0l-1.1-.8Z" transform="translate(-565.1 -447.1)"/><polygon points="21.9 8.8 21.9 8.8 21.9 8.6 21.8 8.7 21.9 8.8" fill="#bdbdbd"/><polygon points="21.9 8.8 21.8 8.7 21.9 8.6 21.9 8.8 21.9 8.8 21.9 8.8"/><path d="M593,458.7a1.7,1.7,0,0,1,1.7,1.7,1.6,1.6,0,0,1-1.7,1.7,1.7,1.7,0,0,1-1.7-1.7,1.8,1.8,0,0,1,1.7-1.7Zm.2.5h-.3c0-.1,0-.1-.1-.1h0a1.3,1.3,0,0,0-1,1h.2v.2a.1.1,0,0,1-.1.1.1.1,0,0,0-.1.1h0a1.3,1.3,0,0,0,1,1h.1a.1.1,0,0,1,.1-.1c.1,0,.2,0,.2.1h.1a1.3,1.3,0,0,0,1-1h-.1c-.1,0-.1,0-.1-.1v-.2h.2a1.3,1.3,0,0,0-1-1Z" transform="translate(-565.1 -447.1)" fill="#bdbdbd"/><path d="M593,462.1a1.7,1.7,0,0,1-1.7-1.7,1.8,1.8,0,0,1,1.7-1.7,1.8,1.8,0,0,1,1.8,1.7,1.7,1.7,0,0,1-1.8,1.7Zm0-3.4a1.8,1.8,0,0,0-1.7,1.7,1.7,1.7,0,0,0,1.7,1.7,1.6,1.6,0,0,0,1.7-1.7,1.7,1.7,0,0,0-1.7-1.7Zm-.2,3a1.3,1.3,0,0,1-1-1c0-.1,0-.2.1-.2a.1.1,0,0,0,.1-.1v-.2h-.2a1.3,1.3,0,0,1,1-1c.1,0,.1,0,.1.1h.2a.1.1,0,0,1,.1-.1,1.3,1.3,0,0,1,1.1,1h0a1.3,1.3,0,0,0-1-1c-.1,0-.1,0-.1.1h-.3c0-.1,0-.1-.1-.1a1.3,1.3,0,0,0-1,1h.2v.2a.3.3,0,0,1-.1.2h-.1a1.3,1.3,0,0,0,1,1.1h.1a.1.1,0,0,1,.1-.1c.1,0,.2,0,.2.1h0a1.3,1.3,0,0,0,1.1-1h-.1c-.1,0-.1-.1-.1-.2v-.2h0v.2c0,.1,0,.1.1.1h.1a1.3,1.3,0,0,1-1,1.1h-.2c0-.1-.2-.1-.2,0Z" transform="translate(-565.1 -447.1)"/><path d="M594.3,458.8c0,.2.1.3.2.3s.2-.1.2-.3a.2.2,0,0,0-.4,0Z" transform="translate(-565.1 -447.1)" fill="#c52135"/><path d="M594.5,459.1c-.1,0-.2-.1-.2-.3a.2.2,0,0,1,.2-.2c.1,0,.3.1.3.2a.3.3,0,0,1-.3.3Zm0-.5a.2.2,0,0,0-.2.2c0,.2.1.3.2.3s.2-.1.2-.3a.2.2,0,0,0-.2-.2Z" transform="translate(-565.1 -447.1)"/><path d="M589.8,456.3l-.4.5c-.1,0-.2,0-.2-.1a.6.6,0,0,1,.2-.4h.4Z" transform="translate(-565.1 -447.1)" fill="#bdbdbd"/><path d="M589.4,456.8h-.2a1,1,0,0,1,.1-.4h.5l-.4.5Zm.3-.6a.9.9,0,0,0-.5.5h.2l.4-.5Z" transform="translate(-565.1 -447.1)"/><path d="M589.8,456.3l.3.5-.3.4-.4-.4c-.1,0,0-.1.1-.3l.3-.2Z" transform="translate(-565.1 -447.1)" fill="#bdbdbd"/><path d="M589.8,457.2l-.5-.4.2-.3.3-.2.4.5-.4.4Zm0-.8h-.3a.5.5,0,0,0-.1.3l.4.3.3-.3-.3-.4Z" transform="translate(-565.1 -447.1)"/><path d="M590.1,456.9l-.6-.4c.1.3.3.4.4.6Z" transform="translate(-565.1 -447.1)" fill="#bdbdbd"/><path d="M589.9,457.1h0c-.1-.2-.3-.3-.4-.6l.6.4-.2.2Zm-.4-.6.4.6.2-.2-.6-.4Z" transform="translate(-565.1 -447.1)"/><path d="M589.8,457.2h.1a.3.3,0,0,1-.1-.2h-.4Z" transform="translate(-565.1 -447.1)" fill="#bdbdbd"/><path d="M589.8,457.2l-.5-.4a.5.5,0,0,1,.5.1v.2Zm-.3-.4h-.1l.4.3h.1l-.2-.2Z" transform="translate(-565.1 -447.1)"/><path d="M590.1,456.8h-.2a1.3,1.3,0,0,1-.1-.5Z" transform="translate(-565.1 -447.1)" fill="#bdbdbd"/><path d="M590.1,456.9h-.2a.5.5,0,0,1-.1-.5l.4.5Zm-.3-.5a.5.5,0,0,0,.1.3l.2.2h0l-.3-.4Z" transform="translate(-565.1 -447.1)"/><path d="M590.1,456.8c.6.6,1.2.9,1.6,1.3s.1.6,0,.7a.4.4,0,0,1-.6,0,15.3,15.3,0,0,0-1.3-1.6.4.4,0,0,1,.3-.4Z" transform="translate(-565.1 -447.1)" fill="#bdbdbd"/><path d="M591.4,458.9h-.3l-.5-.7-.8-.9a.4.4,0,0,1,.3-.4l1,.8c.2.2.5.3.6.5s.2.2.2.4-.1.2-.2.3Zm-1.3-2.1a.4.4,0,0,0-.3.4l.8.9.5.7h.6c.1-.1.2-.2.2-.3a.8.8,0,0,0-.2-.4l-.6-.5-1-.8Z" transform="translate(-565.1 -447.1)"/><polygon points="27 11.4 26.8 11.2 26.2 11.8 26.3 12.1 27 11.4" fill="#bdbdbd"/><path d="M591.5,459.2l-.2-.2.6-.7.2.2-.6.7Zm.4-.9-.6.7.2.2.6-.7-.2-.2Z" transform="translate(-565.1 -447.1)"/><polygon points="27.2 11.6 27 11.4 26.3 12 26.5 12.3 27.2 11.6" fill="#f3bb27"/><path d="M591.6,459.4l-.2-.2.7-.7.2.2-.7.7Zm.5-.9-.7.7.2.2.7-.7-.2-.2Z" transform="translate(-565.1 -447.1)"/><path d="M594,458.8l.3.2.2.3h.1l-.2-.2-.3-.3Z" transform="translate(-565.1 -447.1)" fill="#f3bb27"/><path d="M594.5,459.3h0l-.2-.3-.3-.2h.1l.3.3.2.2Zm-.4-.6H594l.3.2.2.3h.1c-.1-.1-.2-.1-.2-.2l-.3-.3Z" transform="translate(-565.1 -447.1)"/><polygon points="21.4 6.5 21.2 6.8 21.4 7 21.3 7.2 21 6.9 20.5 7.4 20.8 7.7 20.6 7.8 20.4 7.5 20.1 7.8 20.9 8.6 21.4 8 21.2 7.8 21 7.9 20.9 7.8 21.4 7.3 21.5 7.4 21.4 7.5 21.7 7.8 21.9 7.5 21.8 7.4 21.9 7.3 22.4 7.8 22.3 7.9 22.2 7.8 21.9 8 22.2 8.3 22.3 8.2 22.4 8.3 21.9 8.8 21.8 8.7 21.9 8.6 21.7 8.3 21.2 8.8 21.9 9.6 22.2 9.3 21.9 9.1 22.1 8.9 22.3 9.2 22.8 8.7 22.6 8.4 22.7 8.3 23 8.6 23.2 8.3 21.4 6.5" fill="#bdbdbd"/><path d="M587.1,456.7l-.8-.8.5-.5.3.3h0l.5-.5h-.3l-.2-.2.2-.3h.3l-.5-.5h0l-.3.3-.2-.3h0l-.6.5h.3l.3.2-.6.6-.7-.8.2-.3.3.3h.1l-.3-.3.6-.5.2.3.2-.2-.3-.2.3-.3,1.8,1.8-.3.3-.3-.3h-.1l.3.3-.5.5-.3-.3v.2l.2.2-.2.3Zm-.3-1.3-.5.5.8.8.2-.3-.2-.2V456l.3.3.5-.5-.3-.3h.1l.3.3.3-.3-1.8-1.8-.3.3.3.2-.2.2-.2-.3-.5.5.2.3h-.1l-.3-.3-.2.3.7.8.6-.6-.3-.2H586l.6-.5h0l.2.3.3-.3h0l.5.5h-.3l-.2.3.2.2h.3l-.5.5h0l-.3-.3Z" transform="translate(-565.1 -447.1)"/><polygon points="22.2 9.3 22.2 9.6 21.5 10.2 21.5 9.7 21.7 9.6 21.9 9.6 22.2 9.3" fill="#bdbdbd"/><path d="M586.7,457.3v-.5h.4l.2-.3v.3l-.6.6Zm.6-.9-.2.3h-.4v.5l.6-.6v-.3Z" transform="translate(-565.1 -447.1)"/><polygon points="22.8 8.7 22.3 9.2 22.3 9.4 22.8 8.9 22.8 8.7" fill="#bdbdbd"/><path d="M587.5,456.6h-.1v-.3l.5-.5v.2l-.5.6Zm.5-.8-.5.5v.2l.5-.5v-.2Z" transform="translate(-565.1 -447.1)"/><polygon points="22.3 9.4 22.1 9.2 22.1 8.9 22.3 9.2 22.3 9.4" fill="#bdbdbd"/><path d="M587.5,456.6l-.3-.3V456l.3.3v.3Zm-.3-.6v.3l.2.2v-.2l-.2-.3Z" transform="translate(-565.1 -447.1)"/><polygon points="23 8.8 22.7 8.6 22.7 8.3 23 8.6 23 8.8" fill="#bdbdbd"/><path d="M588.1,455.9l-.3-.2v-.3l.3.3v.2Zm-.3-.5v.3l.3.2v-.2l-.3-.3Z" transform="translate(-565.1 -447.1)"/><polygon points="22.7 8.3 22.7 8.6 22.6 8.4 22.7 8.3" fill="#bdbdbd"/><polygon points="22.7 8.6 22.6 8.4 22.7 8.3 22.7 8.6 22.7 8.6 22.7 8.6"/><polygon points="22.1 8.9 22.1 9.2 21.9 9.1 22.1 8.9" fill="#bdbdbd"/><polygon points="22.1 9.2 21.9 9.1 22.1 8.9 22.1 9.2 22.1 9.2 22.1 9.2"/><polygon points="23.2 8.3 23 8.6 23 8.8 23.2 8.6 23.2 8.3" fill="#a2a2a2"/><path d="M588.1,455.9h0v-.2l.3-.3v.3l-.3.2Zm.3-.5-.3.3v.2l.3-.3v-.2Z" transform="translate(-565.1 -447.1)"/><polygon points="21.7 8 21.4 7.8 21.4 7.5 21.7 7.8 21.7 8" fill="#bdbdbd"/><path d="M586.8,455.2l-.2-.3v-.3l.3.3v.3Zm-.2-.6v.3l.2.2v-.2l-.2-.3Z" transform="translate(-565.1 -447.1)"/><polygon points="22.2 8.6 21.9 8.3 21.9 8 22.2 8.3 22.2 8.6" fill="#bdbdbd"/><path d="M587.3,455.7l-.2-.3v-.2l.2.2v.3Zm-.2-.5v.2l.2.2v-.2l-.2-.2Z" transform="translate(-565.1 -447.1)"/><polygon points="22.3 7.9 21.9 7.5 21.9 7.3 22.4 7.8 22.3 7.9" fill="#bdbdbd"/><path d="M587.5,455l-.4-.4v-.2l.5.5Zm-.4-.6v.2l.4.4h.1l-.5-.5Z" transform="translate(-565.1 -447.1)"/><polygon points="21.9 7.3 21.9 7.5 21.8 7.4 21.9 7.3" fill="#bdbdbd"/><polygon points="21.9 7.5 21.8 7.4 21.9 7.3 21.9 7.5 21.9 7.5 21.9 7.5"/><polygon points="21.7 8 21.9 7.8 21.9 7.5 21.7 7.8 21.7 8" fill="#bdbdbd"/><path d="M586.8,455.2h0v-.3l.3-.3v.3l-.3.3Zm.3-.6-.3.3v.2l.3-.2v-.3Z" transform="translate(-565.1 -447.1)"/><polygon points="21 7.9 21.4 7.5 21.4 7.3 20.9 7.8 21 7.9" fill="#bdbdbd"/><path d="M586.2,455H586l.6-.5v.2l-.4.4Zm.3-.6-.5.5h.2l.4-.4v-.2Z" transform="translate(-565.1 -447.1)"/><polygon points="21.4 8 20.9 8.6 20.6 8.6 20.5 8.7 20.5 9.2 21.4 8.3 21.4 8" fill="#bdbdbd"/><path d="M585.7,456.3h-.1v-.5h.4l.6-.6v.3l-.9.9Zm.8-1.1-.5.5h-.3v.5l.9-.9v-.2Z" transform="translate(-565.1 -447.1)"/><polygon points="21.9 9.6 21.2 8.8 20.9 8.8 21.7 9.6 21.9 9.6" fill="#bdbdbd"/><path d="M587.1,456.7h-.3l-.8-.8h.3l.8.8Zm-.8-.8H586l.8.8h.3l-.8-.8Z" transform="translate(-565.1 -447.1)"/><polygon points="21.5 9.7 20.8 8.9 20.9 8.8 21.7 9.6 21.5 9.7" fill="#bdbdbd"/><path d="M586.7,456.8l-.8-.8h.1l.8.8Zm-.7-.9h-.1l.8.8h.1l-.8-.8Z" transform="translate(-565.1 -447.1)"/><polygon points="21.5 9.7 21.5 10.2 20.8 9.4 20.8 8.9 21.5 9.7" fill="#bdbdbd"/><path d="M586.7,457.3l-.8-.7V456l.8.8v.5Zm-.8-1.3v.6l.8.7v-.5l-.8-.8Z" transform="translate(-565.1 -447.1)"/><polygon points="20.9 8.6 20.1 7.8 19.9 7.8 20.6 8.6 20.9 8.6" fill="#bdbdbd"/><path d="M586,455.7h-.2l-.8-.8h.3l.7.8Zm-.7-.8H585l.8.8h.2l-.7-.8Z" transform="translate(-565.1 -447.1)"/><rect x="585.2" y="454.8" width="0.2" height="1.09" transform="translate(-715.1 104.3) rotate(-45.3)" fill="#bdbdbd"/><path d="M585.7,455.8l-.8-.8h.1l.8.8Zm-.7-.9h-.1l.8.8h.1l-.8-.8Z" transform="translate(-565.1 -447.1)"/><polygon points="20.5 8.7 20.5 9.2 19.7 8.4 19.7 7.9 20.5 8.7" fill="#bdbdbd"/><path d="M585.6,456.3l-.7-.8V455l.8.8v.5Zm-.7-1.3v.5l.7.8v-.5l-.7-.8Z" transform="translate(-565.1 -447.1)"/><polygon points="20.6 7.8 20.5 7.7 20.5 7.4 20.8 7.7 20.6 7.8" fill="#bdbdbd"/><path d="M585.8,454.9h-.2v-.3l.3.3Zm-.2-.4v.3h.2l-.3-.3Z" transform="translate(-565.1 -447.1)"/><polygon points="21.3 7.2 21.2 7 21.2 6.8 21.4 7 21.3 7.2" fill="#bdbdbd"/><path d="M586.4,454.3v-.4l.3.2-.2.2Zm-.1-.4v.2h.3l-.3-.2Z" transform="translate(-565.1 -447.1)"/><polygon points="22.2 8.6 22.4 8.3 22.3 8.2 22.2 8.3 22.2 8.6" fill="#bdbdbd"/><path d="M587.3,455.7h0v-.3h.3l-.3.3Zm.2-.4h-.2v.2l.3-.2Z" transform="translate(-565.1 -447.1)"/><polygon points="21.4 7.5 21.5 7.4 21.4 7.3 21.4 7.5" fill="#bdbdbd"/><polygon points="21.4 7.5 21.4 7.5 21.4 7.3 21.6 7.4 21.4 7.5 21.4 7.5"/><path d="M594.4,461.2h.1v.3a.2.2,0,0,1-.2.2l-.3.3h-.1v-.3a1,1,0,0,0,.5-.4Z" transform="translate(-565.1 -447.1)" fill="#f3bb27"/><path d="M594,462h-.1v-.3a1,1,0,0,0,.5-.4h.1v.3a.2.2,0,0,1-.2.2l-.3.3Zm.4-.8a1,1,0,0,1-.5.4v.3h.1l.3-.2.2-.2v-.3Z" transform="translate(-565.1 -447.1)"/><path d="M594,461.7l.3-.2c0-.1.2-.2.2-.3Z" transform="translate(-565.1 -447.1)" fill="#f3bb27"/><path d="M594,461.7h0l.3-.2.2-.3-.2.3-.3.2Z" transform="translate(-565.1 -447.1)"/><polygon points="28.8 14.5 28.9 14.6 28.9 14.8 28.8 14.5" fill="#f3bb27"/><polygon points="28.9 14.8 28.9 14.6 28.8 14.5 28.8 14.5 28.9 14.6 28.9 14.8 28.9 14.8"/><path d="M594.2,461.8a.2.2,0,0,0,.2.2c.2,0,.3-.1.3-.2a.3.3,0,0,0-.3-.3c-.1,0-.2.1-.2.3Z" transform="translate(-565.1 -447.1)" fill="#c52135"/><path d="M594.4,462a.2.2,0,0,1-.2-.2c0-.2.1-.3.2-.3a.3.3,0,0,1,.3.3c0,.1-.1.2-.3.2Zm0-.5c-.1,0-.2.1-.2.3a.2.2,0,0,0,.2.2c.2,0,.3-.1.3-.2a.3.3,0,0,0-.3-.3Z" transform="translate(-565.1 -447.1)"/><g clip-path=""><polygon points="22.3 8.2 22.3 8.4 22.2 8.6 22.2 8.3 22.3 8.2" fill="#bdbdbd"/><path d="M587.3,455.7h0v-.3h.2v.2l-.2.2Zm.1-.4h-.1v.2h.2v-.2Z" transform="translate(-565.1 -447.1)"/></g><path d="M590.5,455c.3,1.1,1.1,1.9,1.4,1.6h0c-.4.3-1.2-.5-1.5-1.6Z" transform="translate(-565.1 -447.1)" fill="#f3bb27"/><path d="M591.7,456.8c-.4,0-1-.7-1.3-1.7h.1c.2,1,.9,1.7,1.3,1.7h-.1Zm-1.2-1.8h-.1c.3.9.9,1.6,1.3,1.6h.2c-.3.3-1.1-.4-1.4-1.6Z" transform="translate(-565.1 -447.1)"/><path d="M590.8,455.2l.2.2h.1v.2H591l.3.3h-.2l-.2-.4h-.1a.3.3,0,0,1-.1-.2h.1c0-.1-.1-.2-.1-.3Z" transform="translate(-565.1 -447.1)" fill="#f3bb27"/><path d="M591.1,456h0l-.2-.4h-.1a.3.3,0,0,1-.1-.2h.1v-.2h.2c0,.1,0,.1.1.2h.1c0,.1.1.1.1.2H591l.3.3Zm-.2-.4c.1.1.1.3.2.4h.2l-.3-.3h.2v-.2H591c-.1-.1-.1-.1-.1-.2h-.2v.2h-.1a.3.3,0,0,0,.1.2Z" transform="translate(-565.1 -447.1)"/><path d="M593,458.5a1.6,1.6,0,0,1,1.7,1.7,1.7,1.7,0,0,1-1.7,1.7,1.8,1.8,0,0,1-1.7-1.7,1.7,1.7,0,0,1,1.7-1.7Zm.2.4h0c0,.1-.1.1-.2.1a.1.1,0,0,1-.1-.1.1.1,0,0,0-.1-.1h0a1.3,1.3,0,0,0-1,1.1h0a.1.1,0,0,0,.1.1h.1a.1.1,0,0,1-.1.1h-.1a1.4,1.4,0,0,0,1,1.1h0a.1.1,0,0,0,.1-.1v-.2l.2.2h.1a1.4,1.4,0,0,0,1-1.1h-.1c-.1,0-.1,0-.1-.1h.2a1.3,1.3,0,0,0-1-1.1Z" transform="translate(-565.1 -447.1)" fill="#bdbdbd"/><path d="M593,461.9a1.8,1.8,0,0,1-1.7-1.7,1.7,1.7,0,0,1,1.7-1.7,1.7,1.7,0,0,1,1.8,1.7,1.8,1.8,0,0,1-1.8,1.7Zm0-3.4a1.7,1.7,0,0,0-1.7,1.7,1.8,1.8,0,0,0,1.7,1.7,1.7,1.7,0,0,0,1.7-1.7,1.6,1.6,0,0,0-1.7-1.7Zm-.2,3a1.4,1.4,0,0,1-1-1.1h.1a.1.1,0,0,0,.1-.1h-.1a.1.1,0,0,1-.1-.1,1.3,1.3,0,0,1,1-1.1.1.1,0,0,1,.1.1c0,.1.2.1.2,0h.1a1.3,1.3,0,0,1,1.1,1.1.1.1,0,0,1-.1.1h-.1c0,.1,0,.1.1.1h.1a1.4,1.4,0,0,1-1,1.1h-.2c0-.2-.2-.2-.2,0a.1.1,0,0,1-.1.1Zm.2-.3.2.2h0a1.2,1.2,0,0,0,1.1-1h-.1c-.1,0-.1,0-.1-.1h.2a1.3,1.3,0,0,0-1-1.1.1.1,0,0,0-.1.1c0,.1-.1.1-.2.1a.1.1,0,0,1-.1-.1.1.1,0,0,0-.1-.1,1.3,1.3,0,0,0-1,1.1.1.1,0,0,0,.1.1h.1a.1.1,0,0,1-.1.1h-.1a1.2,1.2,0,0,0,1,1h.1v-.2Z" transform="translate(-565.1 -447.1)"/><path d="M593.1,458.7a1.5,1.5,0,0,1,1.5,1.5,1.5,1.5,0,0,1-1.1,1.4,1.4,1.4,0,0,1-1.6-.4,1.5,1.5,0,0,1-.2-1.7,1.3,1.3,0,0,1,1.3-.8Zm-.3,0a1.5,1.5,0,0,0-1.2,1.3.3.3,0,0,0,.1.2.4.4,0,0,0,0,.5,1.2,1.2,0,0,0,1.2.9h.6a1.5,1.5,0,0,0,1-1.3h-.1a.4.4,0,0,0,0-.5,1.7,1.7,0,0,0-1.2-1h-.4Z" transform="translate(-565.1 -447.1)" fill="#bdbdbd"/><path d="M593,461.7a1.6,1.6,0,0,1-1.1-.5,1.5,1.5,0,0,1-.2-1.7,1.3,1.3,0,0,1,1.3-.8h.1a1.2,1.2,0,0,1,1,.4,1.6,1.6,0,0,1,.5,1.1,1.5,1.5,0,0,1-1.1,1.4Zm0-3a1.3,1.3,0,0,0-1.3.8,1.5,1.5,0,0,0,.2,1.7,1.6,1.6,0,0,0,1.6.4,1.4,1.4,0,0,0,.6-2.5,1.3,1.3,0,0,0-1-.4Zm.3,2.9h-.4a1.5,1.5,0,0,1-1.3-.9c0-.2-.1-.4.1-.5a.3.3,0,0,1-.1-.2,1.5,1.5,0,0,1,1.2-1.3h.3a.1.1,0,0,1,.1-.1,1.7,1.7,0,0,1,1.2,1,.4.4,0,0,1,0,.5h0a.1.1,0,0,0,.1.1,1.4,1.4,0,0,1-1,1.3Zm-.3-.1h0c.1.2.3.2.5.1a1.4,1.4,0,0,0,1-1.3.1.1,0,0,1-.1-.1h0a.4.4,0,0,0,0-.5,1.4,1.4,0,0,0-1.2-.9h-.4a1.5,1.5,0,0,0-1.2,1.3.3.3,0,0,0,.1.2.4.4,0,0,0,0,.5,1.3,1.3,0,0,0,1.2.9h.1Z" transform="translate(-565.1 -447.1)"/><path d="M591.6,458.6h0a.4.4,0,0,1-.3-.2l-.8-.8a2.2,2.2,0,0,1,.9.7.4.4,0,0,1,.2.3Zm-1.1-1,.8.8c.1.2.2.2.3.2a.4.4,0,0,0-.2-.3,3.1,3.1,0,0,0-.9-.7Z" transform="translate(-565.1 -447.1)"/><path d="M591.6,461.2h-.1v.3l.3.2.3.3h0v-.3l-.5-.4Z" transform="translate(-565.1 -447.1)" fill="#f3bb27"/><path d="M592.1,462h0l-.3-.3-.3-.2v-.3h.1l.5.4v.3Zm-.5-.8h-.1v.3c0,.1.1.1.2.2l.3.2h0v-.3l-.5-.4Z" transform="translate(-565.1 -447.1)"/><path d="M592.1,461.7l-.3-.2c-.1-.1-.2-.2-.2-.3Z" transform="translate(-565.1 -447.1)" fill="#f3bb27"/><path d="M592.1,461.7l-.3-.2-.3-.3.3.3.3.2Z" transform="translate(-565.1 -447.1)"/><polygon points="27 14.5 26.9 14.6 26.9 14.8 27 14.5" fill="#f3bb27"/><polygon points="26.9 14.8 26.9 14.6 27 14.5 27 14.5 26.9 14.6 26.9 14.8 26.9 14.8"/><path d="M591.4,461.8a.2.2,0,0,0,.2.2c.2,0,.3-.1.3-.2a.3.3,0,0,0-.3-.3c-.1,0-.2.1-.2.3Z" transform="translate(-565.1 -447.1)" fill="#c52135"/><path d="M591.6,462a.2.2,0,0,1-.2-.2c0-.2.1-.3.2-.3a.3.3,0,0,1,.3.3c0,.1-.1.2-.3.2Zm0-.5c-.1,0-.2.1-.2.3a.2.2,0,0,0,.2.2c.2,0,.3-.1.3-.2a.3.3,0,0,0-.3-.3Z" transform="translate(-565.1 -447.1)"/><path d="M588.8,455.5c.1,0,.2,0,.2.1l-.4.3h-.1c.1-.2.1-.3.3-.3Z" transform="translate(-565.1 -447.1)" fill="#f3bb27"/><path d="M588.6,456h0a.1.1,0,0,0-.1-.1h0a.3.3,0,0,1,.3-.3c.1,0,.2,0,.2.1l-.4.3Zm.2-.5c-.2,0-.2.1-.3.3h.1l.4-.3Z" transform="translate(-565.1 -447.1)"/><path d="M586.5,453.2c.1,0,.2,0,.2.1h0c-.2,0-.3.2-.4.3h.1c-.1,0-.2,0-.2-.1s.2-.3.3-.3Z" transform="translate(-565.1 -447.1)" fill="#f3bb27"/><path d="M586.4,453.7h-.1a.1.1,0,0,1-.1-.1q.1-.3.3-.3c.1,0,.2,0,.2.1h0c-.2,0-.3.2-.4.3Zm.1-.5c-.1.1-.2.1-.3.3a.1.1,0,0,0,.1.1h0c.1-.1.2-.3.4-.3h0c0-.1-.1-.1-.2-.1Z" transform="translate(-565.1 -447.1)"/><path d="M594.9,452.9a.2.2,0,1,1-.4,0c0-.2.1-.3.2-.3s.2.1.2.3Z" transform="translate(-565.1 -447.1)" fill="#bebebe"/><path d="M594.7,453.1a.2.2,0,0,1-.2-.2c0-.2.1-.3.2-.3s.2.1.2.3a.2.2,0,0,1-.2.2Zm0-.5c-.1,0-.2.1-.2.3a.2.2,0,1,0,.4,0c0-.2-.1-.3-.2-.3Z" transform="translate(-565.1 -447.1)"/><path d="M594.5,452.9l-.2.2v.2l.3-.2c0-.1-.1-.3-.2-.2Z" transform="translate(-565.1 -447.1)" fill="#f3bb27"/><path d="M594.4,453.3v-.2l.2-.2c.1,0,.2,0,.2.1h0l-.3.2Zm.2-.4h-.1l-.2.2v.2l.3-.2h0a.1.1,0,0,0-.1-.1Z" transform="translate(-565.1 -447.1)"/><path d="M594.2,453.1l-.2.2-2.2,2.2.3.3,2.2-2.2.2-.2-.3-.3Zm-2.5,2.5-1.5,1.5.3.3L592,456l-.3-.4Z" transform="translate(-565.1 -447.1)" fill="#f3bb27"/><path d="M590.5,457.4l-.3-.3,1.5-1.5.3.4-1.5,1.4Zm1.2-1.8-1.5,1.5.3.3L592,456l-.3-.4Zm.4.2-.3-.3,2.4-2.4.3.3-.2.2-2.2,2.2Zm2.1-2.7-.2.2-2.2,2.2.3.3,2.4-2.4-.3-.3Z" transform="translate(-565.1 -447.1)"/><path d="M594,453.3l-.3.2-.7.9-.9.8-.2.2,1.1-.8-.8,1.1.2-.2.8-.9.8-.7.3-.3-1.1.8.8-1.1Z" transform="translate(-565.1 -447.1)" fill="#bebebe"/><path d="M592.2,455.8h0l.8-1.1-1.1.8h0l.2-.2.9-.8.7-.9.2-.2h0l-.7,1.1,1.1-.8h0l-.3.4-.8.6a5.7,5.7,0,0,1-.8.9l-.2.3Zm.8-1.2a6.3,6.3,0,0,1-.7,1h.1l.8-.9a4.5,4.5,0,0,0,.7-.7l.3-.2-1,.7.7-1.1-.2.3-.7.8-.9.8-.2.2,1.1-.8Z" transform="translate(-565.1 -447.1)"/><path d="M590.8,456.4l.5.4a.1.1,0,0,0,.1-.1.5.5,0,0,0-.1-.3.6.6,0,0,0-.4-.2v.2Z" transform="translate(-565.1 -447.1)" fill="#f3bb27"/><path d="M591.3,456.9h0l-.5-.4v-.2h0a.6.6,0,0,1,.4.2.5.5,0,0,1,.1.3h-.1Zm-.4-.7v.2l.5.4h.1a.5.5,0,0,0-.1-.3.6.6,0,0,0-.4-.2Z" transform="translate(-565.1 -447.1)"/><path d="M590.8,456.4l-.3.4.3.4.5-.4s0-.1-.2-.3Z" transform="translate(-565.1 -447.1)" fill="#f3bb27"/><path d="M590.8,457.2l-.3-.4.3-.4h.3l.2.3h0l-.2-.3h-.3l-.3.4.3.4.3-.3-.3.3Z" transform="translate(-565.1 -447.1)"/><path d="M590.5,456.9l.6-.4a1.5,1.5,0,0,1-.4.6Z" transform="translate(-565.1 -447.1)" fill="#f3bb27"/><path d="M590.7,457.1l-.2-.2.6-.4a1.5,1.5,0,0,1-.4.6Zm.4-.6-.6.4.2.2a1.5,1.5,0,0,0,.4-.6Z" transform="translate(-565.1 -447.1)"/><path d="M590.8,457.2h-.1l.2-.2h.4Z" transform="translate(-565.1 -447.1)" fill="#f3bb27"/><path d="M590.8,457.2h-.1l.2-.2c.1-.2.4-.1.4-.1l-.5.4Zm.3-.4h-.2l-.2.2h.1l.5-.4Z" transform="translate(-565.1 -447.1)"/><path d="M590.5,456.8h.2a.4.4,0,0,0,.1-.4Z" transform="translate(-565.1 -447.1)" fill="#f3bb27"/><path d="M590.5,456.9h0l.3-.4a.4.4,0,0,1-.1.4Zm.3-.5-.3.4h.2a.4.4,0,0,0,.1-.4Z" transform="translate(-565.1 -447.1)"/><path d="M590.5,456.8c-.6.6-1.2.9-1.6,1.3s-.1.6,0,.7a.4.4,0,0,0,.6,0,15.3,15.3,0,0,1,1.3-1.6.4.4,0,0,0-.3-.4Z" transform="translate(-565.1 -447.1)" fill="#f3bb27"/><path d="M589.2,458.9h-.3c-.1-.1-.2-.2-.2-.3a.8.8,0,0,1,.2-.4l.6-.5,1-.8h0a.4.4,0,0,1,.3.4l-.8.9a1.8,1.8,0,0,1-.5.7Zm1.3-2-1,.7-.6.5c-.1.2-.2.3-.2.4s.1.2.2.3h.6a1.8,1.8,0,0,0,.5-.7l.8-.9a.3.3,0,0,0-.3-.3Z" transform="translate(-565.1 -447.1)"/><polygon points="23.4 11.5 23.6 11.2 24.2 11.9 24 12.1 23.4 11.5" fill="#f3bb27"/><path d="M589.1,459.2l-.6-.6.2-.3.6.7-.2.2Zm-.4-.8-.2.2.6.6.2-.2-.6-.6Z" transform="translate(-565.1 -447.1)"/><polygon points="23.2 11.6 23.4 11.4 24.1 12.1 23.9 12.3 23.2 11.6" fill="#bebebe"/><path d="M589,459.4l-.7-.7.2-.2.7.7-.2.2Zm-.5-.9-.2.2.7.7.2-.2-.7-.7Z" transform="translate(-565.1 -447.1)"/><path d="M589,458.6h0s0-.1.2-.3l.9-.7-.7.9Zm1.1-1-.9.7-.2.3h.3l.8-.9Z" transform="translate(-565.1 -447.1)"/><polygon points="28.4 8.8 28.4 8.8 28.4 8.6 28.6 8.7 28.4 8.8" fill="#f3bb27"/><path d="M593.5,455.9h0v-.2h0Zm0-.2v.2h0Z" transform="translate(-565.1 -447.1)"/><path d="M587.6,458.7a1.7,1.7,0,0,0-1.7,1.7,1.6,1.6,0,0,0,1.7,1.7,1.7,1.7,0,0,0,1.7-1.7,1.8,1.8,0,0,0-1.7-1.7Zm-.2.5a.1.1,0,0,1,.1.1h.2c0-.1,0-.1.1-.1h0a1.3,1.3,0,0,1,1,1h-.2v.2a.3.3,0,0,0,.1.2h.1a1.3,1.3,0,0,1-1,1h-.2a.1.1,0,0,0-.1.1h-.1a1.3,1.3,0,0,1-1.1-1h.1c.1,0,.1-.1.1-.2v-.2h-.2a1.3,1.3,0,0,1,1.1-1Z" transform="translate(-565.1 -447.1)" fill="#f3bb27"/><path d="M587.6,462.2a1.7,1.7,0,0,1-1.7-1.8,1.7,1.7,0,0,1,1.7-1.7,1.8,1.8,0,0,1,1.7,1.7,1.8,1.8,0,0,1-1.7,1.8Zm0-3.5a1.7,1.7,0,0,0-1.7,1.7,1.6,1.6,0,0,0,1.7,1.7,1.7,1.7,0,0,0,1.7-1.7,1.8,1.8,0,0,0-1.7-1.7Zm-.2,3a1.3,1.3,0,0,1-1.1-1h.1c.1,0,.1-.1.1-.2v-.2h-.2a1.3,1.3,0,0,1,1-1c.1,0,.2,0,.2.1h.2c0-.1,0-.1.1-.1a1.3,1.3,0,0,1,1,1h0a1.3,1.3,0,0,0-1-1c-.1,0-.1,0-.1.1h-.2a.1.1,0,0,0-.1-.1,1.3,1.3,0,0,0-1.1,1h.2v.2c0,.1,0,.2-.1.2h-.1a1.3,1.3,0,0,0,1.1,1h.1c0-.1,0-.1.1-.1a.1.1,0,0,1,.1.1h.1a1.3,1.3,0,0,0,1-1h-.1a.3.3,0,0,1-.1-.2v-.2h0v.2a.3.3,0,0,0,.1.2h.1a1.3,1.3,0,0,1-1,1h-.1c0-.1-.2-.1-.2,0Z" transform="translate(-565.1 -447.1)"/><path d="M586.3,458.8c0,.2-.1.3-.2.3s-.2-.1-.2-.3a.2.2,0,1,1,.4,0Z" transform="translate(-565.1 -447.1)" fill="#c52135"/><path d="M586.1,459.1c-.1,0-.2-.1-.2-.3a.2.2,0,0,1,.2-.2c.1,0,.3.1.3.2a.3.3,0,0,1-.3.3Zm0-.5a.2.2,0,0,0-.2.2c0,.2.1.3.2.3s.2-.1.2-.3a.2.2,0,0,0-.2-.2Z" transform="translate(-565.1 -447.1)"/><path d="M594.3,452.9c-.1,0-.1.1-.1.2h0l.3.3h.1c0-.2-.1-.3-.3-.4Z" transform="translate(-565.1 -447.1)" fill="#bebebe"/><path d="M594.5,453.4h0l-.3-.3h0c0-.1,0-.2.1-.2s.3.2.3.4h-.1Zm-.3-.3.3.3h.1c0-.2-.1-.3-.3-.4s-.1.1-.1.2Z" transform="translate(-565.1 -447.1)"/><path d="M594.1,453.2c-.1,0-.2,0-.2.1h.1c.1,0,.2.2.3.3h-.1a.2.2,0,0,0,.2-.2l-.3-.3Z" transform="translate(-565.1 -447.1)" fill="#bebebe"/><path d="M594.2,453.7h.1c-.1-.1-.2-.3-.3-.3h-.1c0-.1.1-.1.2-.1l.3.3h-.2Zm-.3-.4c.2,0,.3.2.4.3h0a.1.1,0,0,0,.1-.1l-.3-.3c-.1,0-.2,0-.2.1Z" transform="translate(-565.1 -447.1)"/><path d="M586.6,458.8l-.3.2c0,.1-.1.2-.2.3H586l.3-.3c0-.1.1-.2.2-.3Z" transform="translate(-565.1 -447.1)" fill="#bebebe"/><path d="M586.1,459.3H586l.3-.3c0-.1.1-.2.2-.3h.1l-.3.2c0,.1-.1.2-.2.3Zm.4-.6c-.1.1-.2.2-.2.3l-.3.3h.1c.1-.1.2-.2.2-.3l.3-.2Z" transform="translate(-565.1 -447.1)"/><polygon points="28.9 8.1 29.4 8.6 29.7 8.6 29.8 8.7 29.8 9.2 28.9 8.3 28.9 8.1" fill="#f3bb27"/><path d="M595,456.3l-.9-.9v-.2l.6.5h.4v.5Zm-.9-1.1v.2l.9.9v-.5h-.4l-.5-.5Z" transform="translate(-565.1 -447.1)"/><polygon points="28.8 9.7 29.6 9 29.4 8.8 28.7 9.6 28.8 9.7" fill="#f3bb27"/><path d="M593.9,456.8h-.1l.8-.8v.2l-.8.7Zm.7-.9-.8.8h.1l.8-.7v-.2Z" transform="translate(-565.1 -447.1)"/><polygon points="28.8 9.7 28.8 10.2 29.6 9.5 29.6 9 28.8 9.7" fill="#f3bb27"/><path d="M593.9,457.3h0v-.5l.8-.7v.5l-.8.7Zm.8-1.2-.8.7v.5l.8-.7v-.5Z" transform="translate(-565.1 -447.1)"/><polygon points="29.4 8.6 30.2 7.8 30.5 7.8 29.7 8.6 29.4 8.6" fill="#f3bb27"/><path d="M594.8,455.7h-.2l.7-.8h.3l-.8.8Zm.8-.8h-.3l-.7.8h.2l.8-.8Z" transform="translate(-565.1 -447.1)"/><polygon points="29.7 7.8 29.8 7.7 29.8 7.4 29.6 7.7 29.7 7.8" fill="#f3bb27"/><path d="M594.8,454.9h-.1l.3-.3v.3Zm.2-.4-.3.3h.3v-.3Z" transform="translate(-565.1 -447.1)"/><polygon points="29.1 7.2 29.2 7 29.2 6.8 28.9 7 29.1 7.2" fill="#f3bb27"/><path d="M594.2,454.3v-.2l.2-.2v.4Zm.1-.4-.2.2v-.2Z" transform="translate(-565.1 -447.1)"/><path d="M586.2,461.2h-.1v.3l.2.2.3.3h.1v-.2c-.2-.2-.4-.3-.5-.5Z" transform="translate(-565.1 -447.1)" fill="#bebebe"/><path d="M586.6,462h0l-.3-.2-.2-.3v-.3h.1c.1.2.3.3.5.5v.2Zm-.4-.8h-.1v.3l.2.2.3.3h.1v-.2c-.2-.2-.4-.3-.5-.5Z" transform="translate(-565.1 -447.1)"/><path d="M586.6,461.7a.2.2,0,0,1-.2-.2q-.1,0-.3-.3t.3.3a.2.2,0,0,0,.2.2Z" transform="translate(-565.1 -447.1)"/><polygon points="21.5 14.9 21.5 14.6 21.5 14.6 21.6 14.6 21.5 14.6 21.5 14.9 21.5 14.9"/><path d="M586.4,461.8l-.2.2c-.2,0-.3-.1-.3-.2a.3.3,0,0,1,.3-.3c.1,0,.2.1.2.3Z" transform="translate(-565.1 -447.1)" fill="#c52135"/><path d="M586.2,462c-.2,0-.3-.1-.3-.2a.3.3,0,0,1,.3-.3c.1,0,.2.1.2.3l-.2.2Zm0-.5a.3.3,0,0,0-.3.3c0,.1.1.2.3.2l.2-.2c0-.2-.1-.3-.2-.3Z" transform="translate(-565.1 -447.1)"/><path d="M587.6,458.5a1.7,1.7,0,0,0,0,3.4,1.7,1.7,0,0,0,0-3.4Zm-.2.4h.1c0,.1,0,.2.1.2a.3.3,0,0,0,.1-.2.1.1,0,0,1,.1-.1h0a1.4,1.4,0,0,1,1,1.1h0a.1.1,0,0,1-.1.1h-.1a.1.1,0,0,0,.1.1h.1a1.3,1.3,0,0,1-1,1.1h0a.1.1,0,0,1-.1-.1h-.3a1.3,1.3,0,0,1-1.1-1.1h.1c.1,0,.1,0,.1-.1h-.2a1.4,1.4,0,0,1,1.1-1.1Z" transform="translate(-565.1 -447.1)" fill="#f3bb27"/><path d="M587.6,461.9a1.7,1.7,0,0,1-1.7-1.7,1.6,1.6,0,0,1,1.7-1.7,1.7,1.7,0,0,1,1.7,1.7,1.8,1.8,0,0,1-1.7,1.7Zm0-3.4a1.7,1.7,0,0,0,0,3.4,1.7,1.7,0,0,0,0-3.4Zm-.2,3a1.3,1.3,0,0,1-1.1-1.1h.1c.1,0,.1,0,.1-.1h-.1a.1.1,0,0,1-.1-.1,1.4,1.4,0,0,1,1-1.1h.2c0,.2.2.2.2,0a.1.1,0,0,1,.1-.1,1.4,1.4,0,0,1,1,1.1c0,.1,0,.1-.1.1h-.1a.1.1,0,0,0,.1.1h.1a1.3,1.3,0,0,1-1,1.1.1.1,0,0,1-.1-.1h-.3Zm.2-.2h.1a.1.1,0,0,0,.1.1,1.3,1.3,0,0,0,1-1.1h-.1a.1.1,0,0,1-.1-.1h.1a.1.1,0,0,0,.1-.1,1.2,1.2,0,0,0-1-1c-.1-.1-.1,0-.1,0a.3.3,0,0,1-.1.2c-.1,0-.1-.1-.1-.2h-.1a1.2,1.2,0,0,0-1.1,1h.2c0,.1,0,.1-.1.1h-.1a1.3,1.3,0,0,0,1.1,1.1h.2Z" transform="translate(-565.1 -447.1)"/><path d="M587.5,458.7a1.4,1.4,0,0,0-1.4,1.5,1.3,1.3,0,0,0,1,1.4,1.4,1.4,0,0,0,1.6-.4,1.7,1.7,0,0,0,.3-1.7,1.6,1.6,0,0,0-1.4-.8Zm.3.1a1.3,1.3,0,0,1,1.2,1.3h-.1c.2.1.1.3.1.5a1.4,1.4,0,0,1-1.3.9h-.6a1.5,1.5,0,0,1-1-1.3h.1a.4.4,0,0,1,0-.5,1.4,1.4,0,0,1,1.2-.9h.4Z" transform="translate(-565.1 -447.1)" fill="#f3bb27"/><path d="M587.6,461.7h-.5a1.7,1.7,0,0,1-1.1-1.5,1.6,1.6,0,0,1,.5-1.1,1.3,1.3,0,0,1,1-.4h.1a1.6,1.6,0,0,1,1.4.8,1.7,1.7,0,0,1-.3,1.7,1.6,1.6,0,0,1-1.1.5Zm0-3h-.1a1.8,1.8,0,0,0-1,.4,1.2,1.2,0,0,0-.4,1.1,1.4,1.4,0,0,0,1,1.4,1.6,1.6,0,0,0,1.6-.4,1.4,1.4,0,0,0,.2-1.6,1.3,1.3,0,0,0-1.3-.9Zm-.3,3h-.2a1.4,1.4,0,0,1-1-1.3.1.1,0,0,0,.1-.1h0a.4.4,0,0,1,0-.5,1.4,1.4,0,0,1,1.2-.9h.4a1.5,1.5,0,0,1,1.2,1.4h-.1c.2.1.1.3.1.5a1.7,1.7,0,0,1-1.3,1h-.4Zm.1-2.9a1.4,1.4,0,0,0-1.2.9.4.4,0,0,0,0,.5h0c0,.1,0,.1-.1.1a1.7,1.7,0,0,0,1,1.3h.6a1.5,1.5,0,0,0,1.3-.9.7.7,0,0,0-.1-.5h.1a1.3,1.3,0,0,0-1.2-1.3h-.4Z" transform="translate(-565.1 -447.1)"/><path d="M589,461.2h.1v.3l-.3.2-.3.3h0v-.2l.5-.5Z" transform="translate(-565.1 -447.1)" fill="#bebebe"/><path d="M588.5,462h0v-.2l.5-.5h.1v.3l-.3.3-.3.2Zm.5-.8-.5.5v.2h0l.3-.3.3-.2v-.3Z" transform="translate(-565.1 -447.1)"/><path d="M588.5,461.7h0l.3-.2.3-.3-.3.3-.3.2Z" transform="translate(-565.1 -447.1)"/><polygon points="23.4 14.9 23.4 14.6 23.3 14.6 23.3 14.6 23.4 14.6 23.4 14.9 23.4 14.9"/><path d="M589.2,461.8a.2.2,0,0,1-.2.2c-.2,0-.3-.1-.3-.2a.3.3,0,0,1,.3-.3c.1,0,.2.1.2.3Z" transform="translate(-565.1 -447.1)" fill="#c52135"/><path d="M589,462c-.2,0-.3-.1-.3-.2a.3.3,0,0,1,.3-.3c.1,0,.2.1.2.3a.2.2,0,0,1-.2.2Zm0-.5a.3.3,0,0,0-.3.3c0,.1.1.2.3.2a.2.2,0,0,0,.2-.2c0-.2-.1-.3-.2-.3Z" transform="translate(-565.1 -447.1)"/><polygon points="28.7 8.1 28.9 7.8 28.9 7.5 28.7 7.8 28.7 8.1" fill="#f3bb27"/><path d="M593.8,455.2h0v-.3l.3-.3v.3l-.3.3Zm.2-.5-.2.2v.2l.3-.2v-.2Z" transform="translate(-565.1 -447.1)"/><polygon points="28.4 7.3 28.4 7.5 28.5 7.4 28.4 7.3" fill="#f3bb27"/><polygon points="28.4 7.6 28.4 7.5 28.4 7.3 28.5 7.4 28.4 7.6 28.4 7.6"/><polygon points="28.7 8.1 28.4 7.8 28.4 7.5 28.7 7.8 28.7 8.1" fill="#f3bb27"/><path d="M593.8,455.2l-.3-.3v-.2l.3.2v.3Zm-.3-.5v.2l.3.2v-.2l-.3-.2Z" transform="translate(-565.1 -447.1)"/><polygon points="29.3 7.9 28.9 7.5 28.9 7.3 29.4 7.8 29.3 7.9" fill="#f3bb27"/><path d="M594.4,455l-.3-.3v-.3l.6.5Zm-.3-.6v.3l.3.3h.2l-.5-.5Z" transform="translate(-565.1 -447.1)"/><polygon points="28.4 9.6 29.2 8.8 29.4 8.8 28.7 9.6 28.4 9.6" fill="#f3bb27"/><path d="M593.8,456.7h-.3l.8-.8h.3l-.8.8Zm.8-.8h-.3l-.8.8h.3l.8-.8Z" transform="translate(-565.1 -447.1)"/><polygon points="28.9 7.5 28.8 7.4 28.9 7.3 28.9 7.5" fill="#f3bb27"/><polygon points="28.9 7.6 28.8 7.4 28.9 7.3 28.9 7.5 28.9 7.6 28.9 7.6"/><polygon points="28.9 6.5 29.2 6.8 28.9 7 29.1 7.2 29.3 6.9 29.8 7.4 29.6 7.7 29.7 7.8 30 7.5 30.2 7.8 29.4 8.6 28.9 8.1 29.2 7.8 29.3 7.9 29.4 7.8 28.9 7.3 28.8 7.4 28.9 7.5 28.7 7.8 28.4 7.5 28.5 7.4 28.4 7.3 27.9 7.8 28 7.9 28.1 7.8 28.4 8.1 28.1 8.3 28 8.2 27.9 8.3 28.4 8.8 28.5 8.7 28.4 8.6 28.7 8.3 29.2 8.8 28.4 9.6 28.1 9.3 28.4 9.1 28.3 9 28 9.2 27.5 8.7 27.8 8.4 27.6 8.3 27.4 8.6 27.1 8.3 28.9 6.5" fill="#f3bb27"/><path d="M593.5,456.7l-.2-.3.2-.2h-.1l-.2.2-.6-.5.3-.3h-.1l-.3.3-.2-.3,1.8-1.8.2.3-.2.2v.2l.2-.3.6.5-.3.3h.1l.3-.2.2.2-.7.8-.5-.5.2-.3h.3l-.5-.5h-.2l.2.2-.3.2-.3-.2.2-.2h-.2l-.5.5h.3l.2.3-.2.2H593l.5.5h0l.3-.3.5.5-.8.8Zm-.1-.6h.1l-.2.2.2.3.8-.8-.5-.5-.3.3h0l-.5-.5h.3l.2-.2-.2-.3H593l.5-.5h.2l-.2.2.3.2.3-.2-.2-.2h.2l.5.5h-.3l-.2.3.5.5.7-.8-.2-.2-.3.2h-.1l.3-.3-.6-.5-.2.3v-.2l.2-.2-.2-.3-1.8,1.8.2.3.3-.3h.1l-.3.3.6.5.2-.2Z" transform="translate(-565.1 -447.1)"/><g clip-path=""><g clip-path=""><rect x="591.6" y="455.4" width="0.7" height="0.68" transform="translate(-719.6 40.3) rotate(-40)" fill=""/></g></g><rect x="594.7" y="455.3" width="1.1" height="0.18" transform="translate(-713.1 104.4) rotate(-44.8)" fill="#f3bb27"/><path d="M595,455.8h-.2l.8-.8h.1l-.7.8Zm.6-.9-.8.8h.2l.7-.8Z" transform="translate(-565.1 -447.1)"/><polygon points="29.8 8.7 29.8 9.2 30.6 8.4 30.6 7.9 29.8 8.7" fill="#f3bb27"/><path d="M595,456.3h0v-.5l.7-.8v.5l-.7.8Zm.7-1.3-.7.8v.5l.7-.8V455Z" transform="translate(-565.1 -447.1)"/><path d="M591.8,455.5c-.1,0-.1,0-.1.1l.3.4c.1,0,.1-.1.1-.2s-.1-.2-.3-.3Z" transform="translate(-565.1 -447.1)" fill="#bebebe"/><path d="M592,456h0l-.3-.4c0-.1,0-.1.1-.1s.3.1.3.3H592Zm-.2-.5c-.1,0-.1,0-.1.1l.3.4h.1c0-.2-.1-.2-.3-.3Z" transform="translate(-565.1 -447.1)"/><polygon points="28.1 9.3 28.1 9.6 28.8 10.2 28.8 9.7 28.7 9.6 28.4 9.6 28.1 9.3" fill="#f3bb27"/><path d="M593.9,457.4l-.6-.7v-.3l.2.3h.4v.6Zm-.6-1v.3l.6.6v-.5h-.4l-.2-.3Z" transform="translate(-565.1 -447.1)"/><polygon points="27.5 8.7 28 9.2 28 9.5 27.5 8.9 27.5 8.7" fill="#f3bb27"/><path d="M593.2,456.6l-.6-.5v-.3l.6.5v.3Zm-.6-.8v.3l.6.5v-.3l-.5-.5Z" transform="translate(-565.1 -447.1)"/><polygon points="28 9.5 28.3 9.2 28.3 9 28 9.2 28 9.5" fill="#f3bb27"/><path d="M593.2,456.6h0v-.3l.2-.2v.2l-.2.3Zm.2-.5-.2.2v.3l.2-.3v-.2Z" transform="translate(-565.1 -447.1)"/><polygon points="27.4 8.8 27.6 8.6 27.6 8.3 27.4 8.6 27.4 8.8" fill="#f3bb27"/><path d="M592.5,455.9h0v-.2l.3-.3v.3l-.3.2Zm.3-.5-.3.3v.2l.3-.2v-.3Z" transform="translate(-565.1 -447.1)"/><polygon points="27.6 8.3 27.6 8.6 27.8 8.4 27.6 8.3" fill="#f3bb27"/><polygon points="27.6 8.6 27.6 8.6 27.6 8.3 27.8 8.4 27.6 8.6 27.6 8.6"/><polygon points="28.3 9 28.3 9.2 28.4 9.1 28.3 9" fill="#f3bb27"/><polygon points="28.3 9.2 28.3 9.2 28.3 9 28.4 9.1 28.3 9.2 28.3 9.2"/><polygon points="27.1 8.3 27.4 8.6 27.4 8.8 27.1 8.6 27.1 8.3" fill="#cd9e21"/><path d="M592.5,455.9l-.3-.2v-.3l.3.3v.2Zm-.3-.5v.3l.2.2v-.2l-.3-.3Z" transform="translate(-565.1 -447.1)"/><polygon points="28.1 8.6 28.4 8.3 28.4 8.1 28.1 8.3 28.1 8.6" fill="#f3bb27"/><path d="M593.3,455.7h0v-.3l.2-.2v.2l-.2.3Zm.2-.5-.2.2v.3l.2-.3v-.2Z" transform="translate(-565.1 -447.1)"/><polygon points="28 7.9 28.4 7.5 28.4 7.3 27.9 7.8 28 7.9" fill="#f3bb27"/><path d="M593.2,455H593l.5-.5v.3l-.3.3Zm.3-.6-.5.5h.2l.3-.3v-.3Z" transform="translate(-565.1 -447.1)"/><polygon points="28.1 8.6 27.9 8.3 28 8.2 28.1 8.3 28.1 8.6" fill="#f3bb27"/><path d="M593.3,455.7l-.3-.3h.3v.3Zm-.1-.4H593l.3.3v-.3Z" transform="translate(-565.1 -447.1)"/><g clip-path=""><polygon points="28 8.2 28 8.4 28.1 8.6 28.1 8.3 28 8.2" fill="#f3bb27"/><path d="M593.3,455.7h-.1v-.3h.1v.3Zm-.1-.4v.1Z" transform="translate(-565.1 -447.1)"/></g><path d="M590.2,457.1h-.5c0,.1-.1.1,0,.2h1.2c.1-.1.1-.1.1-.2h-.8Z" transform="translate(-565.1 -447.1)" fill="#aa001e"/><path d="M589.8,457.4h-.2c0-.1.1-.1.1-.2H591c0,.1,0,.1-.1.2h-1.1Zm.5-.3h-.6c-.1,0-.1.1,0,.1h1.2c.1-.1.1-.1.1-.2h-.7Z" transform="translate(-565.1 -447.1)"/><path d="M590.3,456.6h-.1v1.1a.1.1,0,0,0,.1.1c.1.1.1,0,.2,0v-.7a1.3,1.3,0,0,0-.1-.6Z" transform="translate(-565.1 -447.1)" fill="#aa001e"/><path d="M590.3,458.1h0a.1.1,0,0,1-.1-.1v-1.1h.3V458Zm0-1.4h-.1a1.1,1.1,0,0,0,.1.5,3.5,3.5,0,0,1-.1.6.1.1,0,0,0,.1.1h.1a1.7,1.7,0,0,0,.1-.7,1.3,1.3,0,0,0-.1-.6Z" transform="translate(-565.1 -447.1)"/><path d="M588,461.1h-.1l-.2.3a.4.4,0,0,0,.1.3c0,.1.1.2.2.4a3.1,3.1,0,0,0,2.3,1,2.9,2.9,0,0,0,2.3-1l.3-.4c0-.1.1-.2,0-.3l-.2-.3h-.4l.3.2h.1a.3.3,0,0,1-.1.2l-.2.3a3,3,0,0,1-2.1,1,3.2,3.2,0,0,1-2.1-1l-.2-.3v-.2h0l.3-.2H588Z" transform="translate(-565.1 -447.1)" fill="#aa001e"/><path d="M590.3,463.1a3.1,3.1,0,0,1-2.3-1c-.1-.2-.2-.3-.2-.4a.4.4,0,0,1-.1-.3l.2-.3h0l-.2.3a.4.4,0,0,0,.1.3c0,.1.1.2.2.4a3.3,3.3,0,0,0,2.3,1,2.9,2.9,0,0,0,2.3-1l.3-.4c0-.1.1-.2,0-.3l-.2-.3h-.4l.3.2h.1a.3.3,0,0,1-.1.2l-.2.3a3,3,0,0,1-2.1,1,3.2,3.2,0,0,1-2.1-1l-.2-.3v-.2h0l.3-.2-.3.2h0v.2l.2.3a3.2,3.2,0,0,0,2.1,1,3,3,0,0,0,2.1-1l.2-.3a.3.3,0,0,0,.1-.2h-.1l-.3-.2h.4l.3.3c0,.1-.1.2-.1.3l-.3.4a2.9,2.9,0,0,1-2.3,1Z" transform="translate(-565.1 -447.1)"/><path d="M590.3,450.4a3.3,3.3,0,0,0-1.5,3.2c0,.6.2,1.1.2,1.5l1.3-.2,1.3.2c0-.4.2-.9.2-1.5a3.3,3.3,0,0,0-1.5-3.2Z" transform="translate(-565.1 -447.1)" fill="#fff"/><path d="M591.6,455.1h-.1l-1.2-.2-1.2.2H589c0-.2,0-.3-.1-.4s-.1-.7-.1-1.1a2,2,0,1,1,3,0c0,.4-.1.8-.1,1.1s-.1.2-.1.4Zm-1.3-4.7a3.3,3.3,0,0,0-1.5,3.2,3.6,3.6,0,0,0,.2,1.1.8.8,0,0,0,.1.4h2.5c0-.2,0-.3.1-.4s.1-.7.1-1.1a3.3,3.3,0,0,0-1.5-3.2Z" transform="translate(-565.1 -447.1)"/><polygon points="25.1 2.4 25.1 2.7 24.9 2.6 24.9 2.9 25.1 2.9 25.1 3.3 25.3 3.3 25.3 2.9 25.5 2.9 25.5 2.6 25.3 2.7 25.3 2.4 25.1 2.4" fill="#f3bb27"/><path d="M590.4,450.4h-.2V450H590v-.2h.2v-.3h.2v.3h.2v.3h-.2v.4Zm-.2-.4v.4h.2V450h.2v-.2h-.2v-.3h-.2v.3H590v.2Z" transform="translate(-565.1 -447.1)"/><path d="M588.8,452.1a3.4,3.4,0,0,1,1.5-.2,3.6,3.6,0,0,1,1.5.2v.3a3.9,3.9,0,0,0-3,0v-.3Z" transform="translate(-565.1 -447.1)" fill="#f3bb27"/><path d="M591.8,452.4h0a3.6,3.6,0,0,0-1.5-.2l-1.5.2v-.3a3.4,3.4,0,0,1,1.5-.2,3.2,3.2,0,0,1,1.5.2v.3Zm-1.5-.5a3.4,3.4,0,0,0-1.5.2v.3a3.3,3.3,0,0,1,1.5-.3l1.5.2v-.2l-1.5-.2Z" transform="translate(-565.1 -447.1)"/><polygon points="26.6 5.2 26.5 5.1 26.7 5 26.5 5.1 26.6 5.2 26.6 5.2 26.6 5.2"/><path d="M591.6,451.9v-.2h-.2c-.1,0-.1-.2-.1-.2l-.3.2h-.4c-.1,0-.2-.3-.2-.3s-.1.3-.2.3l-.3-.2s0,.2-.1.2a.4.4,0,0,1-.3-.2.5.5,0,0,1-.1.3H589l1.3-.2,1.3.2Z" transform="translate(-565.1 -447.1)" fill="#f3bb27"/><path d="M591.6,452h0a5.7,5.7,0,0,0-2.6,0h.3a.5.5,0,0,0,.1-.3l.2.2a.2.2,0,0,0,.2-.2h0l.3.2c.1,0,.2-.3.2-.3s.1.3.2.3h.4l.3-.2s0,.2.1.2h0c.2,0,.2-.1.2-.1v.2Zm-2.5-.2H589a5.7,5.7,0,0,1,2.6,0h0v-.2c0,.1,0,.1-.2.1s-.1-.2-.1-.2l-.3.2h-.4l-.2-.2s-.1.2-.2.2h0l-.3-.2s0,.2-.1.2h0a.4.4,0,0,1-.3-.2.5.5,0,0,1-.1.3Z" transform="translate(-565.1 -447.1)"/><path d="M588.6,451.7q.1.3.3.3l.2-.2h.2c.1,0,.1-.2.1-.2h.5s0,.1.2.1.2-.2.2-.2l.2.2c.2,0,.2-.1.2-.1h.5s0,.2.1.2h.2l.2.2.3-.3-.3.2-.2-.2h-.2c-.1-.1-.1-.4-.1-.4s-.2.4-.3.3-.2-.2-.2-.2a.2.2,0,0,1-.2.2c-.1,0-.2-.4-.2-.4s-.1.4-.2.4a.4.4,0,0,1-.3-.2s0,.2-.1.2-.3-.3-.3-.3,0,.4-.1.4H589s.1.2-.1.2l-.3-.2Z" transform="translate(-565.1 -447.1)" fill="#f3bb27"/><path d="M588.9,452q-.1,0-.3-.3h.3c.2-.1.1-.2.1-.2h.3c.1,0,.1-.3.1-.4h0s.2.3.3.3h0c.1,0,.1-.2.1-.2h0l.3.2c.1,0,.2-.3.2-.4s.1.4.2.4a.2.2,0,0,0,.2-.2s.1.2.2.2h0c.2,0,.3-.3.3-.3a.5.5,0,0,0,.1.3.5.5,0,0,1-.1-.3s-.1.3-.3.3a.2.2,0,0,1-.2-.2c0,.1,0,.2-.2.2h0c-.1,0-.2-.4-.2-.4s-.1.4-.2.4-.3-.1-.3-.2,0,.2-.1.2a.3.3,0,0,1-.3-.3c0,.1,0,.4-.1.4H589s.1.2-.1.2h-.3q.1.3.3.3l.2-.2h.2c.1,0,.1-.2.1-.2h.3a.1.1,0,0,0,.1-.1h.3c.1,0,.2-.2.2-.2l.2.2c.2,0,.2-.1.2-.1h.4c.1,0,.1.2.2.2h.2l.2.2.3-.3h-.3c-.1,0-.2-.2-.2-.2a.1.1,0,0,1-.1.1h.1l.2.2h.2a.1.1,0,0,1,.1-.1l-.3.3c-.1,0-.2-.2-.2-.2h-.1c-.2,0-.2-.2-.3-.2h-.4s0,.1-.2.1l-.2-.2s-.1.2-.2.2h-.3c.1,0,0,.1-.1.1h-.3s0,.2-.1.2h-.2l-.2.2Z" transform="translate(-565.1 -447.1)"/><path d="M590.3,451.9l-1.5.2h0l1.5-.2,1.5.2s.1,0,0,.1h0l-1.5-.2Z" transform="translate(-565.1 -447.1)" fill="#f3bb27"/><path d="M591.8,452.1h0a7.6,7.6,0,0,0-3,0h0l1.5-.2,1.5.2a.1.1,0,0,1,.1.1Zm-1.5-.2,1.5.2h0l-1.5-.2-1.5.2h0l1.5-.2Z" transform="translate(-565.1 -447.1)"/><polygon points="23.7 5.2 23.6 5.1 23.7 5 23.8 5.1 23.7 5.2" fill="#bc0030"/><polygon points="23.7 5.2 23.7 5.2 23.6 5.1 23.7 5 23.8 5.1 23.7 5.2 23.7 5.2 23.7 5.2"/><polygon points="26.6 5.2 26.7 5.1 26.7 5 26.6 5.1 26.6 5.2" fill="#bc0030"/><polygon points="26.6 5.2 26.6 5.2 26.6 5.1 26.7 5 26.7 5.1 26.6 5.2 26.6 5.2 26.6 5.2"/><path d="M590.6,451.3h-.1s.2-.1.2,0h-.2s.2,0,.1.1h-.1c-.1,0-.1,0-.1-.1h.2Z" transform="translate(-565.1 -447.1)" fill="#f3bb27"/><path d="M590.5,451.5h0c-.1,0-.1,0-.1-.1h.2a.1.1,0,0,1,.1.1h-.1c0,.1,0,.1-.1.1Zm0-.2h-.1c0,.1,0,.1.1.1h.1c0-.1,0-.1-.1-.1h0Z" transform="translate(-565.1 -447.1)"/><path d="M589.9,451.3h.2s-.2-.1-.2,0-.1,0,0,.1h.2s-.2,0-.2.1h.2a.1.1,0,0,0,.1-.1h-.3Z" transform="translate(-565.1 -447.1)" fill="#f3bb27"/><path d="M590.1,451.5h-.2c-.1,0-.1-.1,0-.1s.1-.1.1,0h.2c0,.1,0,.1-.1.1Zm-.1-.1h.1a.1.1,0,0,0,.1-.1H590a.1.1,0,0,0,.1.1h-.2s-.1,0,0,.1h.1Z" transform="translate(-565.1 -447.1)"/><path d="M590.3,450.9v.3h.1c.1-.1.1-.1.1-.2a.1.1,0,0,0-.1-.1v0h-.2v.2s0-.2-.1-.2v.2h.2v-.2Z" transform="translate(-565.1 -447.1)" fill="#f3bb27"/><path d="M590.2,451.2h-.1v-.2h0c.1,0,.1,0,.1.1v-.2h.2a.1.1,0,0,1,.1.1c0,.1,0,.1-.1.2h-.2Zm0-.3c-.1,0-.1.1-.1.2h.2v.2h.1c.1-.1.1-.1.1-.2a.1.1,0,0,0-.1-.1h0v.2h-.2Z" transform="translate(-565.1 -447.1)"/><path d="M590.4,451.3v.2c-.1,0-.1-.1-.1-.2a.1.1,0,1,1,.2,0Z" transform="translate(-565.1 -447.1)" fill="#bc0030"/><path d="M590.3,451.5h-.1v-.2c0-.1.1-.2.1-.1a.1.1,0,0,1,.1.1v.2Zm0-.3a.1.1,0,0,0-.1.1v.2h0v-.2a.1.1,0,0,0-.1-.1Z" transform="translate(-565.1 -447.1)"/><path d="M591.5,451.5h-.2c.1,0,.1-.1.2,0h.1c0,.1-.2,0-.2,0a.1.1,0,0,1,.1.1h0Z" transform="translate(-565.1 -447.1)" fill="#f3bb27"/><path d="M591.4,451.6h-.1a.1.1,0,0,1-.1-.1h.1c.1-.1.1-.1.2,0h-.1Zm-.1-.2h0c0,.1,0,.1.1.1h.1a.1.1,0,0,0-.1-.1h-.1Z" transform="translate(-565.1 -447.1)"/><path d="M590.8,451.3h.3v-.2H591s-.2-.1-.2,0h.2s-.2,0-.2.1h0Z" transform="translate(-565.1 -447.1)" fill="#f3bb27"/><path d="M591,451.6h-.2a.1.1,0,0,1,.1-.1h-.1c-.1-.1,0-.1,0-.2h.2Zm-.2-.3h0c0,.1.1.1.2.1h-.1a.1.1,0,0,0,.1.1Z" transform="translate(-565.1 -447.1)"/><path d="M591.3,451v.2h.2v-.2h-.1s.1-.1,0-.1,0-.1-.1-.1v.2a.1.1,0,0,0-.1-.1h0c.1.1.1,0,.1,0V451Z" transform="translate(-565.1 -447.1)" fill="#f3bb27"/><path d="M591.3,451.3h-.1s0,.1-.1,0H591a.1.1,0,0,1,.1-.1h.3v.2Zm0-.3h0c-.1.1-.1.2,0,.2s0,.1.1,0h-.1c0-.1.1-.1,0-.1h0c-.1,0-.1.1-.1.2a.1.1,0,0,0-.1-.1h.1V451Z" transform="translate(-565.1 -447.1)"/><path d="M591.3,451.4a.3.3,0,0,1-.1.2c-.1-.1-.1-.1-.1-.2v-.2c.1,0,.1.1.1.2Z" transform="translate(-565.1 -447.1)" fill="#3d8e6d"/><path d="M591.2,451.6h0c-.1-.1-.1-.1-.1-.2v-.2c.1,0,.1.1.1.2a.3.3,0,0,1-.1.2Zm0-.4v.2c0,.1,0,.1.1.1h0a.1.1,0,0,0,.1-.1c0-.1,0-.2-.1-.2Z" transform="translate(-565.1 -447.1)"/><path d="M589,451.5h.2s0-.1-.1,0H589c0,.1.2,0,.2,0s-.2,0-.1.1h.1c.1,0,.1,0,.1-.1H589Z" transform="translate(-565.1 -447.1)" fill="#f3bb27"/><path d="M589.2,451.6H589s-.1,0,0-.1h0a.1.1,0,0,0,.1-.1h.2c0,.1,0,.1-.1.1Zm0-.1c-.1,0-.1,0-.1.1h.1c.1,0,.1,0,.1-.1h0c-.1,0-.2,0-.2.1h.1Z" transform="translate(-565.1 -447.1)"/><path d="M589.7,451.3h-.2v-.2h.1a.1.1,0,0,1,.2,0h-.2s.2,0,.2.1h-.1Z" transform="translate(-565.1 -447.1)" fill="#f3bb27"/><path d="M589.6,451.6h0a.1.1,0,0,0,.1-.1h-.1a.1.1,0,0,0,.1-.1.1.1,0,0,1-.1.1Z" transform="translate(-565.1 -447.1)"/><path d="M589.3,451s.1.2,0,.2,0,.1-.1.1v-.2h.2v.2a.1.1,0,0,1,.1-.1h0c-.1.1-.1,0-.1,0a.3.3,0,0,1-.1-.2Z" transform="translate(-565.1 -447.1)" fill="#f3bb27"/><path d="M589.3,451.3h-.1v-.2s-.1-.1,0-.1h.1c-.1-.1-.1-.1-.1-.2h.3c-.1.1-.1,0-.1,0h-.1Zm-.1-.3h0c.1.1.1.1.1,0V451h0a.3.3,0,0,0,.1.2s0,.1.1,0h0a.1.1,0,0,0-.1.1h0v-.2c-.1,0-.1,0-.1.1s0,.1,0,.1h-.1Z" transform="translate(-565.1 -447.1)"/><path d="M589.3,451.4a.3.3,0,0,0,.1.2c.1-.1.1-.1.1-.2v-.2c-.1,0-.1.1-.1.2Z" transform="translate(-565.1 -447.1)" fill="#3d8e6d"/><path d="M589.4,451.6a.3.3,0,0,1-.1-.2h0c0-.1,0-.1.1-.1h0v.2c0,.1,0,.1-.1.2Zm0-.4c-.1,0-.1,0-.1.1h0a.1.1,0,0,0,.1.1h0c.1,0,.1,0,.1-.1v-.2Z" transform="translate(-565.1 -447.1)"/><path d="M591.7,451.5h.2c.1,0,.1,0,.1-.1a.1.1,0,0,1-.1-.1h-.1a.3.3,0,0,0,.1.2s-.2-.2-.2-.1a.1.1,0,0,0-.1.1h.3l-.2-.2Z" transform="translate(-565.1 -447.1)" fill="#f3bb27"/><path d="M591.8,451.8h-.2c0-.1,0-.1.1-.2h.1Zm-.1-.2h.3a.1.1,0,0,1-.1-.1h-.1c0,.1,0,.1.1.2h0a.1.1,0,0,0-.1-.1h-.1a.1.1,0,0,0-.1.1h.1Z" transform="translate(-565.1 -447.1)"/><path d="M592.3,451.3s0-.1-.1,0v.2s.1-.2,0-.2H592c0,.1.1.1.1,0a.2.2,0,0,0,.2-.2Z" transform="translate(-565.1 -447.1)" fill="#f3bb27"/><path d="M592.1,451.6c-.1,0-.1,0-.1-.1s-.1-.1,0-.1h.3a.2.2,0,0,1-.2.2Zm0-.3H592c0,.1,0,.1.1.1h0a.2.2,0,0,0,.2-.2h-.2Z" transform="translate(-565.1 -447.1)"/><path d="M592.1,451.8h-.2v-.2c.1-.1.2-.2.2-.1s0,.1,0,.2Z" transform="translate(-565.1 -447.1)" fill="#bc0030"/><path d="M592,451.9h-.1v-.2h.2c.1,0,.1.1,0,.2Zm.1-.3h0v-.2Z" transform="translate(-565.1 -447.1)"/><path d="M588.9,451.5s-.2.2-.3.1h.2a.3.3,0,0,1-.1.2s.1-.2.2-.1a.1.1,0,0,1,.1.1h-.1a.1.1,0,0,1-.1.1h-.1l.2-.2Z" transform="translate(-565.1 -447.1)" fill="#f3bb27"/><path d="M588.8,451.8h-.2a.1.1,0,0,1,.1-.1h.1a.1.1,0,0,1,.1-.1c0,.1.1.1.1.2h-.1c.1,0,0,.1-.1.1Zm0-.2h0a.1.1,0,0,0,.1-.1h-.2c.1,0,.1,0,.1-.1h0Z" transform="translate(-565.1 -447.1)"/><path d="M588.3,451.3s0-.1.1,0h.1s-.1-.1,0-.1h.1c-.1.1-.1.1-.2,0s-.1-.1-.1-.2Z" transform="translate(-565.1 -447.1)" fill="#f3bb27"/><path d="M588.5,451.6h-.1v-.2h.3a.1.1,0,0,1-.1.1Zm-.2-.3h0a.2.2,0,0,0,.2.2c0,.1,0,.1.1,0h-.3Z" transform="translate(-565.1 -447.1)"/><path d="M588.5,451.8h.1c.1-.1.1-.2,0-.2s-.1-.2-.1-.1-.1.1,0,.2Z" transform="translate(-565.1 -447.1)" fill="#bc0030"/><path d="M588.6,451.9h-.1c-.1-.1-.1-.2,0-.2h.1c.1,0,.1.1,0,.2Zm-.1-.3c-.1,0-.1.1,0,.2h.1c.1,0,.1-.1,0-.1Z" transform="translate(-565.1 -447.1)"/></g><g clip-path=""><rect x="26.4" y="4.5" width="0.1" height="0.12" fill=""/></g><g clip-path=""><path d="M591.6,451.7h0Z" transform="translate(-565.1 -447.1)"/></g><g clip-path=""><rect x="25.5" y="4.3" width="0.1" height="0.14" fill=""/></g><g clip-path=""><path d="M590.7,451.6a.1.1,0,0,1-.1-.1c0-.1.2-.1.2,0s0,.1-.1.1Zm0-.1h0c0,.1.1.1.1,0Z" transform="translate(-565.1 -447.1)"/></g><g clip-path=""><rect x="24.6" y="4.4" width="0.1" height="0.14" fill=""/></g><g clip-path=""><path d="M589.9,451.6c-.1,0-.1,0-.1-.1s.1-.1.1,0Zm0-.1h-.1c0,.1.1.1.1,0Z" transform="translate(-565.1 -447.1)"/></g><g clip-path=""><rect x="23.8" y="4.5" width="0.1" height="0.13" fill=""/></g><g clip-path=""><path d="M589,451.7h0Z" transform="translate(-565.1 -447.1)"/><path d="M590.3,452.2l-1.4.2h0l1.4-.2,1.4.2h0l-1.4-.2Z" transform="translate(-565.1 -447.1)" fill="#f3bb27"/><path d="M591.7,452.4h0l-1.4-.2-1.4.2h0a6.6,6.6,0,0,1,2.8,0h0Zm-1.4-.2,1.4.2h0a6.6,6.6,0,0,0-2.8,0h0l1.4-.2Z" transform="translate(-565.1 -447.1)"/><polygon points="25.2 5 25.3 4.9 25.2 4.9 25.1 4.9 25.2 5" fill="#bc0030"/><polygon points="25.2 5 25.2 5 25.1 4.9 25.2 4.8 25.3 4.9 25.2 5 25.2 5 25.2 5"/><path d="M589.4,452h0Z" transform="translate(-565.1 -447.1)" fill="#3d8e6d"/><path d="M589.4,452.1h0c-.1,0,0-.1,0-.1h0Zm.2-.1h0Z" transform="translate(-565.1 -447.1)"/><path d="M589.4,452.2h-.1c0-.1,0-.1.1-.1h0Zm.2-.2h-.2c-.1,0-.1,0-.1.1h.3Z" transform="translate(-565.1 -447.1)"/><path d="M591.2,452h0Z" transform="translate(-565.1 -447.1)" fill="#3d8e6d"/><path d="M591.2,452.1h-.3a.1.1,0,0,1,.1-.1h.2Zm-.2-.1h-.1a.1.1,0,0,0,.1.1h0Z" transform="translate(-565.1 -447.1)"/><path d="M591.2,452.2h0c.1,0,.1,0,.1.1h-.1Zm-.2-.2h.3a.1.1,0,0,0-.1-.1Z" transform="translate(-565.1 -447.1)"/><path d="M590.3,452.1Zm0-.2h0Z" transform="translate(-565.1 -447.1)"/><path d="M588.8,452.3h0l.2-.2h0l-.2.2Z" transform="translate(-565.1 -447.1)"/><path d="M590.7,452h0Z" transform="translate(-565.1 -447.1)" fill="none"/><path d="M590.7,452.1h0Z" transform="translate(-565.1 -447.1)" fill="none"/><path d="M589.9,452Z" transform="translate(-565.1 -447.1)" fill="none"/><path d="M589.9,452.1Z" transform="translate(-565.1 -447.1)" fill="none"/><path d="M591.4,452.1Z" transform="translate(-565.1 -447.1)" fill="none"/><path d="M591.4,452.2Z" transform="translate(-565.1 -447.1)" fill="none"/><path d="M589.2,452.1Z" transform="translate(-565.1 -447.1)" fill="none"/><path d="M589.2,452.2Z" transform="translate(-565.1 -447.1)" fill="none"/><path d="M589,454.9h2.7v.3l-1.3-.2-1.3.2v-.3Z" transform="translate(-565.1 -447.1)" fill="#f3bb27"/><path d="M591.6,455.2h0l-1.3-.2-1.3.2v-.3h2.7v.3Zm-1.3-.4H589v.3l1.3-.2,1.3.2v-.3Z" transform="translate(-565.1 -447.1)"/><path d="M591.5,454.8v-.2h-.2c-.1,0-.1-.2-.1-.2l-.3.2h-.3l-.2-.2s-.1.2-.2.2l-.2-.2s0,.2-.1.2a.2.2,0,0,1-.2-.2l-.2.3h-.2l1.1-.2,1.2.2Z" transform="translate(-565.1 -447.1)" fill="#f3bb27"/><path d="M591.5,454.9h0l-1.2-.2-1.1.2h.2c.1,0,.1-.2.1-.2s.1.2.2.2a.2.2,0,0,0,.2-.2h0l.2.2c.1,0,.2-.2.2-.2l.2.2h.3l.3-.2s0,.2.1.2h.2v.2Zm-2.3-.2h0l1.1-.2,1.2.2h0v-.2h-.2c-.1,0-.1-.2-.1-.2l-.3.2h-.3l-.2-.2s-.1.2-.2.2h0a.2.2,0,0,1-.2-.2c0,.1,0,.2-.1.2h-.1l-.2-.2c.1.1,0,.2-.1.3Z" transform="translate(-565.1 -447.1)"/><path d="M588.8,454.6c.1.2.2.3.3.2a.1.1,0,0,0,.1-.1h.2c.1,0,.1-.2.1-.2h.6c.1,0,.2-.2.2-.2l.2.2h.6s0,.2.1.2h.2a.1.1,0,0,0,.1.1c.1.1.2-.1.3-.2l-.3.2a.3.3,0,0,0-.1-.2h-.2c-.1,0-.1-.3-.1-.3s-.1.3-.3.2a.1.1,0,0,1-.1-.1h-.2c-.1,0-.2-.3-.2-.3s-.1.3-.2.3h-.2a.1.1,0,0,1-.1.1.4.4,0,0,1-.3-.2s0,.3-.1.3h-.2v.2l-.3-.2Z" transform="translate(-565.1 -447.1)" fill="#f3bb27"/><path d="M589.1,454.9q-.1,0-.3-.3h.3v-.2h.2c.1,0,.1-.2.1-.3h0l.3.2h0a.1.1,0,0,0,.1-.1h.2c.1,0,.2-.2.2-.3s.1.3.2.3h.2s0,.1.2.1h0c.1,0,.2-.2.2-.2s0,.3.1.3h.2a.3.3,0,0,1,.1.2h.3q-.1.3-.3.3a.3.3,0,0,1-.1-.2h-.2c-.1,0-.1-.2-.1-.2h-.6a.2.2,0,0,0-.4,0h-.6s0,.2-.1.2h-.2a.3.3,0,0,1-.1.2Zm-.3-.3c.1.2.2.3.3.2a.1.1,0,0,0,.1-.1h.2c.1,0,.1-.2.1-.2h.6c.1,0,.2-.2.2-.2l.2.2h.6s0,.2.1.2h.2a.1.1,0,0,0,.1.1h0l.3-.2h-.1a.1.1,0,0,0-.1.1l-.2-.2h-.2c-.1,0-.1-.3-.1-.3s-.1.2-.2.2-.2-.1-.2-.1h-.2c-.1,0-.2-.3-.2-.3s-.1.3-.2.3h-.2a.1.1,0,0,1-.1.1l-.3-.2s0,.3-.1.3h-.2s0,.2-.1.2h-.3Z" transform="translate(-565.1 -447.1)"/><path d="M590.3,454.8l-1.3.2h0l1.3-.2,1.3.2h0l-1.3-.2Z" transform="translate(-565.1 -447.1)" fill="#f3bb27"/><path d="M591.6,455h0a5.7,5.7,0,0,0-2.6,0h0l1.3-.2,1.3.2h0Zm-1.3-.2a2.5,2.5,0,0,1,1.3.2h0l-1.3-.2-1.3.2h0a2.7,2.7,0,0,1,1.3-.2Z" transform="translate(-565.1 -447.1)"/><path d="M590.6,454.3h0a.1.1,0,0,1-.1.1h.1Z" transform="translate(-565.1 -447.1)" fill="#f3bb27"/><path d="M590.5,454.5h0a.1.1,0,0,1-.1-.1h.2a.1.1,0,0,1-.1.1Zm0-.2h.1a.1.1,0,0,0,.1-.1h-.2Z" transform="translate(-565.1 -447.1)"/><path d="M590,454.3h0a.1.1,0,0,0,.2,0H590Z" transform="translate(-565.1 -447.1)" fill="#f3bb27"/><path d="M590.1,454.5a.1.1,0,0,1-.1-.1h.2a.1.1,0,0,1-.1.1Zm0-.1h0a.1.1,0,0,0,.1-.1h-.1Z" transform="translate(-565.1 -447.1)"/><path d="M590.3,453.9v.2h.1a.1.1,0,1,0,0-.2h-.1c-.1,0,0,.1,0,.1h-.1c-.1,0-.1.1-.1.2h.2v-.2Z" transform="translate(-565.1 -447.1)" fill="#f3bb27"/><path d="M590.2,454.2h-.1c0-.1,0-.2.1-.2h.2a.1.1,0,0,1,.1.1c0,.1,0,.1-.1.1h-.2Zm0-.3c-.1,0-.1.1-.1.2h.3a.1.1,0,0,0,.1-.1h-.2c-.1,0-.1,0,0,.1a.1.1,0,0,1-.1-.1Z" transform="translate(-565.1 -447.1)"/><path d="M590.4,454.3h-.2a.3.3,0,0,1,.1-.2c.1,0,.1.1.1.2Z" transform="translate(-565.1 -447.1)" fill="#bc0030"/><path d="M590.3,454.4h-.1c0-.1.1-.2.2-.1h-.1Zm0-.2a.1.1,0,0,0-.1.1h.2c0-.1,0-.1-.1-.1Z" transform="translate(-565.1 -447.1)"/><path d="M591.4,454.4h-.1a.1.1,0,0,1,.1.1h0c-.1.1-.1.1-.2,0a.1.1,0,0,1-.1-.1h.3Z" transform="translate(-565.1 -447.1)" fill="#f3bb27"/><path d="M591.3,454.6h-.1c0-.1-.1-.1-.1-.2h.2a.1.1,0,0,1,.1.1h.1a.1.1,0,0,1-.1.1h0a.1.1,0,0,1-.1.1Zm-.1-.2h0c.1.1.1.1.2,0a.1.1,0,0,1-.1-.1h.1c.1-.1.1-.1,0-.1h0a.1.1,0,0,0-.1-.1h-.1Z" transform="translate(-565.1 -447.1)"/><path d="M590.8,454.3h0a.1.1,0,0,0-.1.1h.1c0,.1,0,.1.1.1a.1.1,0,0,0,.1-.1h-.2Z" transform="translate(-565.1 -447.1)" fill="#f3bb27"/><path d="M590.9,454.5h0c-.1,0-.1,0-.1-.1h-.1a.1.1,0,0,1,.1-.1h.2a.1.1,0,0,1-.1.1Zm-.1-.3h0a.1.1,0,0,0,.1.1h0a.1.1,0,0,0,.1-.1h-.2a.1.1,0,0,1,.1.1Z" transform="translate(-565.1 -447.1)"/><path d="M591.2,454v.2h.2a.1.1,0,0,0-.1.1h0c0-.1,0-.1-.1-.1v.2a.1.1,0,0,0-.1-.1h.1V454Z" transform="translate(-565.1 -447.1)" fill="#f3bb27"/><path d="M591.2,454.2h-.1c.1,0,.1,0,.1.1h0Zm0-.2h0v.2h.2a.1.1,0,0,0-.1.1h0c-.1,0-.1.1-.1.2s0-.1-.1-.1h.1V454Z" transform="translate(-565.1 -447.1)"/><path d="M591.2,454.4h-.1c-.1,0-.1-.1-.1-.2a.1.1,0,0,1,.1-.1c.1,0,.1.1.1.2Z" transform="translate(-565.1 -447.1)" fill="#3d8e6d"/><path d="M591.1,454.5h0c-.1,0-.1-.1-.1-.2a.1.1,0,0,1,.1-.1c.1,0,.1.1.1.2Zm0-.3H591c0,.1,0,.2.1.2h0a.1.1,0,0,1,.1-.1c0-.1,0-.2-.1-.2Z" transform="translate(-565.1 -447.1)"/><path d="M589.2,454.4h.1a.1.1,0,0,0-.1.1h0c-.1,0-.1,0,0,.1h0c.1.1.1.1.2,0a.1.1,0,0,0,.1-.1h-.3Z" transform="translate(-565.1 -447.1)" fill="#f3bb27"/><path d="M589.3,454.6a.1.1,0,0,1-.1-.1h0v-.2h.1c0-.1,0-.1.1-.1h.2c0,.1-.1.1-.1.2Zm0-.2a.1.1,0,0,1-.1.1c.1.1.1.1.2,0h-.1a.1.1,0,0,0-.1.1h0c-.1,0-.1,0,0,.1Z" transform="translate(-565.1 -447.1)"/><path d="M589.8,454.3h0c0,.1,0,.1-.1.1a.1.1,0,0,1-.1-.1h.2Z" transform="translate(-565.1 -447.1)" fill="#f3bb27"/><path d="M589.7,454.5a.1.1,0,0,1-.1-.1h.2a.1.1,0,0,1,.1.1h-.1c0,.1,0,.1-.1.1Zm.1-.2h-.2a.1.1,0,0,0,.1.1h0c.1,0,.1,0,.1-.1h.1a.1.1,0,0,0-.1-.1h-.1a.1.1,0,0,1,.1-.1h0Z" transform="translate(-565.1 -447.1)"/><path d="M589.4,454v.2h-.2a.1.1,0,0,1,.1.1h0c0-.1,0-.1.1-.1v.2a.1.1,0,0,1,.1-.1h-.1V454Z" transform="translate(-565.1 -447.1)" fill="#f3bb27"/><path d="M589.4,454.2h-.1c.1,0,.1,0,.1.1h0c0-.1,0-.1.1-.1h.1c.1,0,0,.1,0,.1h-.2Zm-.1-.2h.2V454h.1v.2h.1c-.1,0-.1,0-.1.1h0v-.2c-.1,0-.1,0-.1.1h0a.1.1,0,0,0-.1-.1Z" transform="translate(-565.1 -447.1)"/><path d="M589.4,454.4h.1c.1,0,.1-.1.1-.2a.1.1,0,0,0-.1-.1c-.1,0-.1.1-.1.2Z" transform="translate(-565.1 -447.1)" fill="#3d8e6d"/><path d="M589.5,454.5h-.1c0-.1,0-.2.1-.2h0a.1.1,0,0,1,.1.1c0,.1,0,.2-.1.2Zm0-.3c-.1,0-.1.1-.1.2h.1c.1,0,.1-.1.1-.2Z" transform="translate(-565.1 -447.1)"/></g><g clip-path=""><rect x="25.5" y="7.3" width="0.1" height="0.12" fill=""/></g><g clip-path=""><path d="M590.7,454.5h-.1c0-.1.2-.1.2,0Z" transform="translate(-565.1 -447.1)"/></g><g clip-path=""><rect x="24.7" y="7.3" width="0.1" height="0.12" fill=""/></g><g clip-path=""><path d="M589.9,454.5h-.1c0-.1.2-.1.2,0Z" transform="translate(-565.1 -447.1)"/><path d="M590.3,455.1h-1.2c-.1.1-.1,0-.1,0h0l1.3-.2,1.3.2h-1.3Z" transform="translate(-565.1 -447.1)" fill="#f3bb27"/><path d="M591.6,455.3h-2.5c-.1.1-.1,0-.1,0h2.6Zm-1.3-.2h1.3l-1.3-.2-1.3.2h1.3Z" transform="translate(-565.1 -447.1)"/><polygon points="25.2 7.8 25.3 7.8 25.2 7.7 25.1 7.8 25.2 7.8" fill="#bc0030"/><polygon points="25.2 7.8 25.2 7.8 25.1 7.8 25.2 7.7 25.3 7.8 25.2 7.8 25.2 7.8 25.2 7.8"/><path d="M589.5,454.9h0Z" transform="translate(-565.1 -447.1)" fill="#3d8e6d"/><path d="M589.5,455Z" transform="translate(-565.1 -447.1)"/><path d="M589.5,455h.3c0,.1,0,.1-.1.1Zm.2-.1h0a.1.1,0,0,0,.1-.1h-.1Z" transform="translate(-565.1 -447.1)"/><path d="M591.1,454.9h0Z" transform="translate(-565.1 -447.1)" fill="#3d8e6d"/><path d="M591.1,455Z" transform="translate(-565.1 -447.1)"/><path d="M591.1,455h-.2c-.1,0-.1,0-.1-.1h.3Zm-.2-.1h-.1c0,.1,0,.1.1.1h0Z" transform="translate(-565.1 -447.1)"/><path d="M590.3,455Zm0-.2h0Z" transform="translate(-565.1 -447.1)"/><path d="M590.6,454.9Z" transform="translate(-565.1 -447.1)" fill="none"/><path d="M590.6,455h.1c0,.1,0,.1-.1.1Z" transform="translate(-565.1 -447.1)" fill="none"/><path d="M589.9,454.9Z" transform="translate(-565.1 -447.1)" fill="none"/><path d="M589.9,455h.1c0,.1,0,.1-.1.1Z" transform="translate(-565.1 -447.1)" fill="none"/><path d="M589.3,455h0Z" transform="translate(-565.1 -447.1)" fill="none"/><path d="M589.3,455.1h0Z" transform="translate(-565.1 -447.1)" fill="none"/><path d="M588.7,453.6l1.6-.2,1.6.2v.3l-1.6-.2-1.5.2v-.3Z" transform="translate(-565.1 -447.1)" fill="#f3bb27"/><path d="M591.9,453.9h0l-1.6-.2-1.5.2v-.3l1.6-.2,1.6.2v.3Zm-1.6-.5-1.6.2a.5.5,0,0,1,.1.3l1.5-.2,1.6.2v-.3l-1.6-.2Z" transform="translate(-565.1 -447.1)"/><path d="M591.7,453.4h-.3l-.2-.3-.3.2a.1.1,0,0,1-.1-.1h-.2a.4.4,0,0,1-.3-.2s-.1.2-.2.2l-.3-.2a.2.2,0,0,1-.2.2l-.2-.2s-.1.3-.2.3H589v.2h2.8Z" transform="translate(-565.1 -447.1)" fill="#f3bb27"/><path d="M591.7,453.5h0a6.2,6.2,0,0,0-2.7,0h-.1v-.2h.2l.2-.3.2.2a.2.2,0,0,0,.2-.2h0l.3.2c.1,0,.2-.2.2-.2a.4.4,0,0,0,.3.2h.2a.1.1,0,0,0,.1.1h0a.4.4,0,0,0,.3-.2s.1.2.2.2h.3Zm-2.7-.2v.2h.1a6.1,6.1,0,0,1,2.7,0h-.3l-.2-.3a.4.4,0,0,1-.3.2.1.1,0,0,1-.1-.1h-.2a.4.4,0,0,1-.3-.2s-.1.2-.2.2l-.3-.2c0,.1,0,.2-.2.2h0l-.2-.2c0,.1-.1.3-.2.3Z" transform="translate(-565.1 -447.1)"/><path d="M588.5,453.2c.1.2.2.3.4.3s.1-.2.1-.2a.2.2,0,0,0,.3.1c.1,0,.1-.2.1-.2a.4.4,0,0,0,.3.2.3.3,0,0,0,.1-.2h.3c.1,0,.2-.2.2-.2a.4.4,0,0,0,.3.2h.2a.3.3,0,0,0,.1.2.4.4,0,0,0,.3-.2s.1.2.2.2h.2l.2.2q.2,0,.3-.3l-.3.2-.2-.2h-.2c-.1,0-.2-.4-.2-.4s-.1.4-.2.4a.4.4,0,0,1-.2-.3s-.1.2-.2.2-.3-.4-.3-.4-.1.4-.2.4a.4.4,0,0,1-.3-.2s0,.3-.1.2-.4-.3-.4-.3,0,.4-.1.4-.2-.1-.2-.1,0,.2-.1.2-.2-.1-.4-.2Z" transform="translate(-565.1 -447.1)" fill="#f3bb27"/><path d="M588.8,453.5l-.3-.2h.3a.2.2,0,0,0,.2-.2h.2c.1,0,.1-.4.1-.4h0s.2.3.4.3h0c.1,0,.1-.2.1-.2h0a.4.4,0,0,0,.3.2c.1,0,.2-.4.2-.4s.1.4.2.4a.2.2,0,0,0,.2-.2c.1,0,.1.2.3.2h0c.1,0,.2-.3.2-.3a1,1,0,0,1,.1.4,1,1,0,0,0-.1-.4c0,.1-.1.4-.2.4s-.2-.2-.3-.3,0,.2-.1.2h0c-.2,0-.3-.4-.3-.4s-.1.4-.2.4-.3-.1-.3-.2,0,.3-.1.3-.4-.3-.4-.4,0,.4-.1.4H589s0,.2-.1.2h-.4l.4.2c.1,0,.1-.2.1-.2h.2a.2.2,0,0,0,.2-.2h0s.1.2.2.2.2-.2.2-.2h.3c.1,0,.2-.2.2-.2a.4.4,0,0,0,.3.2h.2a.1.1,0,0,0,.1.1h.3s.1.2.2.2h.2l.2.2h0q.2,0,.3-.3h-.3l-.2-.2h0l.2.2h.2a.1.1,0,0,1,.1-.1q-.1.3-.3.3l-.2-.2h-.2c-.1,0-.2-.2-.2-.2s-.1.2-.2.2a.2.2,0,0,1-.2-.2h-.2a.4.4,0,0,1-.3-.2s-.1.2-.2.2h-.3s0,.2-.1.2h0a.4.4,0,0,1-.3-.2s0,.2-.1.2H589c0,.1,0,.2-.1.2Z" transform="translate(-565.1 -447.1)"/><path d="M590.3,453.4l-1.5.2h-.1a.1.1,0,0,1,.1-.1l1.5-.2,1.6.2h0l-1.6-.2Z" transform="translate(-565.1 -447.1)" fill="#f3bb27"/><path d="M591.9,453.6h0l-1.6-.2-1.5.2h-.1l1.6-.2,1.6.2Zm-1.6-.2,1.6.2h0l-1.6-.2-1.5.2a.1.1,0,0,0-.1.1h.1l1.5-.2Z" transform="translate(-565.1 -447.1)"/><path d="M590.7,452.8h-.2s.2-.1.2,0,.1.1,0,.1h-.2s.2,0,.2.1h-.2a.1.1,0,0,1-.1-.1h.3Z" transform="translate(-565.1 -447.1)" fill="#f3bb27"/><path d="M590.5,453h0c-.1,0-.1,0-.1-.1h.2c.1,0,.1,0,.1.1s.1.1,0,.1h-.1a.1.1,0,0,1,.1.1h0c.1-.1,0-.1,0-.1h-.1a.1.1,0,0,1,.1-.1h-.3a.1.1,0,0,0,.1.1Z" transform="translate(-565.1 -447.1)"/><path d="M589.9,452.8h.1c-.1,0,.1.1.1.1s-.2-.1-.2,0-.1.1,0,.1h.2s-.2,0-.2.1.1.1.2,0h.1v-.2Z" transform="translate(-565.1 -447.1)" fill="#f3bb27"/><path d="M590.1,453.1h-.2a.1.1,0,0,1,.1-.1h-.1c-.1,0-.1-.1,0-.1s0-.1.1,0a.1.1,0,0,0-.1-.1h.2Zm0-.2c-.1,0-.1,0-.1.1h0a.1.1,0,0,0,.1.1h-.2s-.1,0,0,.1Z" transform="translate(-565.1 -447.1)"/><path d="M590.3,452.4v.3h.1c.1-.1.1-.1.1-.2a.1.1,0,0,0-.1-.1h0v-.2h-.2v.2a.1.1,0,0,0-.1-.1v.2h.2v-.2Z" transform="translate(-565.1 -447.1)" fill="#f3bb27"/><path d="M590.2,452.7h-.1v-.2c.1,0,.1,0,.1.1v-.2h.2v.2h0a.1.1,0,0,1,.1.1v.2h-.3Zm0-.3c-.1,0-.1.1-.1.2h.3c.1,0,.1,0,.1-.1a.1.1,0,0,0-.1-.1h-.2v.2Z" transform="translate(-565.1 -447.1)"/><path d="M590.4,452.8c0,.1,0,.2-.1.2v-.2a.1.1,0,0,1,.1-.1c.1,0,.1,0,.1.1Z" transform="translate(-565.1 -447.1)" fill="#bc0030"/><path d="M590.3,453h0c-.1,0-.1-.1-.1-.2s.1-.2.2-.1h0c0,.1,0,.2-.1.2Zm0-.3a.1.1,0,0,0-.1.1v.2h0c.1,0,.1-.1.1-.2h-.1Z" transform="translate(-565.1 -447.1)"/><path d="M591.6,453h-.2c-.1-.1,0-.1,0-.1s.1-.1.1,0h.2v.2h-.3a.1.1,0,1,1,0-.2Z" transform="translate(-565.1 -447.1)" fill="#f3bb27"/><path d="M591.5,453.2h-.1c-.1-.1-.1-.1-.1-.2a.1.1,0,0,1,.1-.1h0c0-.1.1-.1.1,0h.2v.2h-.2Zm-.1-.3a.1.1,0,1,0,0,.2h.2a.3.3,0,0,0,.1-.2h-.3Z" transform="translate(-565.1 -447.1)"/><path d="M590.9,452.8h.2c.1-.1.1-.1.1-.2H591a.1.1,0,0,0-.2,0h.2a.1.1,0,0,0,0,.2c.1,0,.1,0,.1-.1s0-.1,0-.1Z" transform="translate(-565.1 -447.1)" fill="#f3bb27"/><path d="M591,453.1h0a.1.1,0,0,1-.1-.1h-.1v-.2h.2a.1.1,0,0,1-.1-.1h.2c.1,0,.1.1,0,.1a.1.1,0,0,1-.1.1Zm-.1-.3h.1c-.1,0-.1,0-.1.1a.1.1,0,0,0,.1.1h0a.1.1,0,0,0,.1-.1h-.2Z" transform="translate(-565.1 -447.1)"/><path d="M591.3,452.5v.2a.1.1,0,0,0,.1.1v-.2h0a.1.1,0,0,0-.1.1v-.2h-.1c-.1,0-.1.2-.1.2s.1-.2,0-.2-.1.1-.1.2h.1c0,.1.1,0,.1,0v-.2Z" transform="translate(-565.1 -447.1)" fill="#f3bb27"/><path d="M591.4,452.8c-.1,0-.1,0-.1-.1h-.2c0-.1,0-.2.1-.2h.2v.2c0-.1,0-.1.1-.1h0v.2Zm-.1-.3h0v.2c0,.1.1.1.1,0h.1a.1.1,0,0,0-.1.1h0v-.2h-.1v.2h-.1c-.1,0-.1,0-.1.1h.2v-.2Z" transform="translate(-565.1 -447.1)"/><path d="M591.3,452.9c0,.1,0,.2-.1.2a.1.1,0,0,1,0-.2c0-.1,0-.2.1-.2a.1.1,0,0,1,0,.2Z" transform="translate(-565.1 -447.1)" fill="#3d8e6d"/><path d="M591.2,453.1h0a.1.1,0,0,1,0-.2c0-.1,0-.2.1-.2v.2l-.2.2Zm.1-.4c-.1,0-.1.1-.1.2s0,.1,0,.2h0c.1,0,.1-.1.1-.2a.1.1,0,0,0,0-.2Z" transform="translate(-565.1 -447.1)"/><path d="M589,453h.2c.1-.1,0-.1,0-.1s-.1-.1-.1,0h-.2a.1.1,0,0,0,.2,0h.1a.1.1,0,0,0,0-.2Z" transform="translate(-565.1 -447.1)" fill="#f3bb27"/><path d="M589.1,453.2H589a.3.3,0,0,1-.1-.2h.3c.1,0,.1.1,0,.1h.1c0,.1,0,.1-.1.1Zm0-.2h.1a.1.1,0,0,0,.1-.1h-.2Z" transform="translate(-565.1 -447.1)"/><path d="M589.7,452.8h-.2c-.1-.1-.1-.1-.1-.2h.3a.1.1,0,0,1-.1.1.1.1,0,0,1,.2,0h-.2s.2,0,.1.1a.1.1,0,0,1-.1.1c-.1,0-.1,0-.1-.1s0-.1,0-.1Z" transform="translate(-565.1 -447.1)" fill="#f3bb27"/><path d="M589.6,453.1c-.1,0-.1,0-.1-.1s-.1,0,0-.1h.2a.1.1,0,0,1-.1.1h0Zm.1-.2h-.2a.1.1,0,0,0,.1.1h0a.1.1,0,1,0,0-.2h0c-.1,0-.1,0-.1.1h.2Z" transform="translate(-565.1 -447.1)"/><path d="M589.3,452.5v.2a.1.1,0,0,1-.1.1c0-.1-.1-.1-.1-.2a.1.1,0,0,1,.1-.1h0v-.2h.1c.1,0,.1.2.1.2h0c.1,0,.1,0,.1.1h-.1c0,.1-.1,0-.1,0v-.2Z" transform="translate(-565.1 -447.1)" fill="#f3bb27"/><path d="M589.2,452.8h0v-.2a.1.1,0,0,1,.1-.1h0v-.2h.1a.1.1,0,0,1,.1.1h0c.1.1.1.1.1.2h-.1c0,.1-.1,0-.1,0h0c0,.1,0,.1-.1.1Zm0-.3a.1.1,0,0,0-.1.1h.1c0,.1.1.1.1,0v-.2h0v.2s.1.1.1,0h.1c0-.1,0-.1-.1-.1h0a.3.3,0,0,0-.1-.2h-.1v.2h0Z" transform="translate(-565.1 -447.1)"/><path d="M589.3,452.9c0,.1,0,.2.1.2a.1.1,0,0,0,0-.2c0-.1,0-.2-.1-.2a.1.1,0,0,0,0,.2Z" transform="translate(-565.1 -447.1)" fill="#3d8e6d"/><path d="M589.4,453.1c-.1,0-.1-.1-.1-.2a.1.1,0,0,1,0-.2l.2.2a.3.3,0,0,1-.1.2Zm-.1-.4a.1.1,0,0,0,0,.2c0,.1,0,.2.1.2h0a.1.1,0,0,0,0-.2c0-.1,0-.2-.1-.2Z" transform="translate(-565.1 -447.1)"/><path d="M591.8,453l.2.2h.1c0-.1-.1-.1-.1-.2h-.1v.2h-.1c-.1,0-.1,0-.1.1h.3l-.2-.2Z" transform="translate(-565.1 -447.1)" fill="#f3bb27"/><path d="M591.9,453.3h-.2a.1.1,0,0,1,.1-.1h.2c0,.1.1.1.1.2h-.2Zm-.1-.1h.3a.1.1,0,0,0-.1-.1.1.1,0,0,0-.1-.1c0,.1,0,.1.1.2h-.1a.1.1,0,1,0-.2,0h.1Z" transform="translate(-565.1 -447.1)"/><path d="M592.4,452.8s0-.1-.1,0v.2s.1-.2,0-.2h-.1a.1.1,0,0,0,0,.2h.1l.2-.3Z" transform="translate(-565.1 -447.1)" fill="#f3bb27"/><path d="M592.2,453.1h-.1c-.1-.1-.1-.1,0-.2h.3l-.2.3Zm0-.3h-.1c0,.1.1.1.1,0l.2-.2h-.2Z" transform="translate(-565.1 -447.1)"/><path d="M592.2,453.3H592v-.2h.2c.1,0,0,.1,0,.2Z" transform="translate(-565.1 -447.1)" fill="#bc0030"/><path d="M592.1,453.4H592v-.2h0v.2h.2v-.2c.1.1,0,.1,0,.2Z" transform="translate(-565.1 -447.1)"/><path d="M588.8,453l-.2.2h-.1c0-.1.1-.1.1-.2h.1v.2s.1-.2.1-.1.1,0,.1.1h-.3l.2-.2Z" transform="translate(-565.1 -447.1)" fill="#f3bb27"/><path d="M588.7,453.3h-.2c0-.1.1-.1.1-.2h.2a.1.1,0,0,1,.1.1h-.2Zm.1-.2h.1a.1.1,0,0,0-.1-.1h0a.1.1,0,0,0-.1.1h0a.1.1,0,0,0-.1.1.1.1,0,0,0-.1.1h.3Z" transform="translate(-565.1 -447.1)"/><path d="M588.2,452.8s0-.1.1,0v.2s-.1-.2,0-.2h.1a.1.1,0,0,1-.1.1c-.2-.1-.2-.2-.2-.3Z" transform="translate(-565.1 -447.1)" fill="#f3bb27"/><path d="M588.4,453.1h0l-.2-.3h0c.1-.1.1-.1.1,0h.2c.1.1.1.1,0,.2Zm-.2-.3h0a.2.2,0,0,0,.2.2c0,.1.1.1.1,0h-.3Z" transform="translate(-565.1 -447.1)"/><path d="M588.4,453.3h.2v-.2h-.2c-.1,0,0,.1,0,.2Z" transform="translate(-565.1 -447.1)" fill="#bc0030"/><path d="M588.5,453.4h-.1c-.1-.1-.1-.2,0-.2h.2v.2Zm-.1-.3v.2h.2v-.2Z" transform="translate(-565.1 -447.1)"/></g><g clip-path="url(#aa)"><rect x="26.4" y="6" width="0.1" height="0.13" fill="url(#ab)"/></g><g clip-path=""><path d="M591.6,453.3h.1a.1.1,0,0,1-.1.1Z" transform="translate(-565.1 -447.1)"/></g><g clip-path="url(#ad)"><rect x="25.6" y="5.9" width="0.1" height="0.15" fill="url(#ae)"/></g><g clip-path=""><path d="M590.8,453.1c-.1,0-.1,0-.1-.1s.1-.1.1,0Zm0-.1h-.1c0,.1.1.1.1,0Z" transform="translate(-565.1 -447.1)"/></g><g clip-path="url(#ag)"><rect x="24.6" y="5.9" width="0.1" height="0.15" fill="url(#ah)"/></g><g clip-path=""><path d="M589.8,453.1h0c0-.1.1-.1.1,0s0,.1-.1.1Zm0-.1h0c0,.1.1.1.1,0Z" transform="translate(-565.1 -447.1)"/></g><g clip-path="url(#aj)"><rect x="23.8" y="6" width="0.1" height="0.13" fill="url(#ak)"/></g><g clip-path=""><path d="M589,453.3a.1.1,0,0,1-.1-.1h.1Z" transform="translate(-565.1 -447.1)"/><path d="M590.3,453.8l-1.5.2h0a5.7,5.7,0,0,1,3,0h.1a.1.1,0,0,1-.1.1l-1.5-.2Z" transform="translate(-565.1 -447.1)" fill="#f3bb27"/><path d="M591.8,454h0l-1.5-.2-1.5.2h0a5.7,5.7,0,0,1,3,0h.1a.1.1,0,0,1-.1.1Zm-1.5-.2a3.4,3.4,0,0,1,1.5.2h0a.1.1,0,0,0,.1-.1h-.1a5.7,5.7,0,0,0-3,0h0a3.4,3.4,0,0,1,1.5-.2Z" transform="translate(-565.1 -447.1)"/><polygon points="25.2 6.5 25.3 6.5 25.2 6.4 25.1 6.4 25.2 6.5" fill="#bc0030"/><polygon points="25.2 6.5 25.2 6.5 25.1 6.5 25.2 6.4 25.3 6.4 25.2 6.5 25.2 6.5 25.2 6.5"/><path d="M589.4,453.6h0Z" transform="translate(-565.1 -447.1)" fill="#3d8e6d"/><path d="M589.4,453.7h0Zm.2-.1h0Z" transform="translate(-565.1 -447.1)"/><path d="M589.3,453.7h.3a.1.1,0,0,1,.1.1h-.4Zm.3-.2h0Z" transform="translate(-565.1 -447.1)"/><path d="M591.2,453.6h0Z" transform="translate(-565.1 -447.1)" fill="#3d8e6d"/><path d="M591.2,453.7Zm-.2-.1Z" transform="translate(-565.1 -447.1)"/><path d="M591.3,453.7h-.4a.1.1,0,0,1,.1-.1h.3Zm-.3-.2a.1.1,0,0,0-.1.1h.1Z" transform="translate(-565.1 -447.1)"/><path d="M590.3,453.7h-.2l.2-.2.2.2Zm0-.3-.2.2h.4l-.2-.2Z" transform="translate(-565.1 -447.1)"/><path d="M590.7,453.6h0Z" transform="translate(-565.1 -447.1)" fill="none"/><path d="M590.7,453.6Z" transform="translate(-565.1 -447.1)" fill="none"/><path d="M589.9,453.6h0Z" transform="translate(-565.1 -447.1)" fill="none"/><path d="M589.9,453.6h0Z" transform="translate(-565.1 -447.1)" fill="none"/><path d="M591.3,455h0s.1,0,0,.1Z" transform="translate(-565.1 -447.1)" fill="none"/><path d="M591.3,455.1h0Z" transform="translate(-565.1 -447.1)" fill="none"/><polygon points="23.9 8 23.8 8 23.9 7.9 24 7.9 23.9 8" fill="#bc0030"/><polygon points="23.9 8 23.8 8 23.9 7.9 24 7.9 23.9 8" fill="none"/><path d="M589,454.5h-.1a.1.1,0,0,1-.1-.1c0-.1,0-.1.1-.1h.1s.1-.1.1,0h-.2a.1.1,0,0,1,.1-.1Z" transform="translate(-565.1 -447.1)" fill="#f3bb27"/><path d="M589,454.7h-.1a.1.1,0,0,1-.1-.1h0c0-.1,0-.1.1-.1h.1Zm0-.2h-.1a.1.1,0,0,0-.1.1h.1a.1.1,0,0,1,.1-.1Z" transform="translate(-565.1 -447.1)"/><path d="M588.6,454.3h0c.1,0,.1.2.1.2h0c0-.1.1,0,.1,0v.2h-.1v-.2Z" transform="translate(-565.1 -447.1)" fill="#f3bb27"/><path d="M588.7,454.5h0v-.2h.1a.1.1,0,0,1,.1.1v.2Zm-.1-.3h0v.2h.1v-.2h-.1v-.2Z" transform="translate(-565.1 -447.1)"/><path d="M588.7,454.7c.1,0,.1.1.2,0h-.1a.1.1,0,0,0-.1-.1v.2Z" transform="translate(-565.1 -447.1)" fill="#bc0030"/><path d="M588.8,454.8h-.1v-.2h.2v.2Zm-.1-.3v.2h.1c0-.1,0-.1-.1-.1Z" transform="translate(-565.1 -447.1)"/></g><g clip-path="url(#am)"><rect x="24" y="7.4" width="0.1" height="0.11" fill="url(#an)"/></g><g clip-path=""><path d="M589.2,454.7h-.1c0-.1.2-.1.2,0Z" transform="translate(-565.1 -447.1)"/><polygon points="23.9 8.1 23.9 8.1 23.9 8.1 24 7.9 23.9 7.9 24.1 7.9 23.9 8.1 23.9 8.1 23.9 8.1"/><polygon points="23.6 6.7 23.6 6.6 23.6 6.6 23.7 6.6 23.6 6.7" fill="#bc0030"/><polygon points="23.6 6.7 23.6 6.7 23.6 6.7 23.6 6.6 23.7 6.6 23.6 6.7 23.6 6.7 23.6 6.7"/><polygon points="23.6 6.8 23.6 6.8 23.6 6.8 23.8 6.6 23.6 6.5 23.8 6.6 23.6 6.8 23.6 6.8 23.6 6.8"/><path d="M589.1,453.7h0Z" transform="translate(-565.1 -447.1)" fill="none"/><path d="M589.1,453.7h0Z" transform="translate(-565.1 -447.1)" fill="none"/><path d="M591.5,454.5h.2a.1.1,0,0,0,0-.2h-.1s-.1-.1-.1,0h.2c0-.1-.2-.1-.2-.1Z" transform="translate(-565.1 -447.1)" fill="#f3bb27"/><path d="M591.6,454.7h-.1s0-.1.1,0h.1c.1,0,.1,0,.1.1h0c0,.1,0,.1-.1.1h-.1Zm-.1-.1h.1a.1.1,0,0,1,.1.1.1.1,0,0,0,.1-.1h-.1c-.1,0,0,.1,0,.1h-.2Z" transform="translate(-565.1 -447.1)"/><path d="M592,454.3h0v.2h0c0-.1-.1,0-.1,0v.2h.1v-.2Z" transform="translate(-565.1 -447.1)" fill="#f3bb27"/><path d="M591.9,454.5h-.1v-.2a.1.1,0,0,1,.1-.1h.1v.2Zm0-.2h-.1v.2h.1v-.2h0v.2Z" transform="translate(-565.1 -447.1)"/><polygon points="26.7 6.8 26.5 6.6 26.8 6.5 26.5 6.6 26.7 6.8 26.7 6.8 26.7 6.8"/><polygon points="26.7 6.7 26.8 6.7 26.8 6.6 26.6 6.6 26.7 6.7" fill="#bc0030"/><polygon points="26.7 6.7 26.7 6.7 26.6 6.6 26.8 6.6 26.8 6.7 26.7 6.7 26.7 6.7 26.7 6.7"/><path d="M591.5,453.7h0Z" transform="translate(-565.1 -447.1)" fill="none"/><path d="M591.5,453.7Z" transform="translate(-565.1 -447.1)" fill="none"/><polygon points="26.5 8.1 26.3 7.9 26.5 7.8 26.3 7.9 26.5 8.1 26.5 8.1 26.5 8.1"/><polygon points="26.5 8 26.5 8 26.5 7.9 26.4 7.9 26.5 8" fill="#bc0030"/><polygon points="26.5 8 26.5 8 26.5 7.9 26.4 7.9 26.5 8" fill="none"/><path d="M591.9,454.7c-.1,0-.1.1-.2,0h.1a.1.1,0,0,1,.1-.1v.2Z" transform="translate(-565.1 -447.1)" fill="#bc0030"/><path d="M591.8,454.8h-.1v-.2h.2v.2Zm.1-.3c-.1,0-.1,0-.1.1h0a.1.1,0,0,1,.1-.1v-.2Z" transform="translate(-565.1 -447.1)"/></g><g clip-path="url(#ap)"><rect x="26.2" y="7.4" width="0.1" height="0.11" fill="url(#aq)"/></g><g clip-path=""><path d="M591.4,454.7h-.1c0-.1.2-.1.2,0Z" transform="translate(-565.1 -447.1)"/><path d="M590.3,450.3h-.2v.2h.4v-.2Z" transform="translate(-565.1 -447.1)" fill="#f3bb27"/><path d="M590.5,450.5h-.4v-.2h.4v.2Zm-.2-.2h-.2v.2h.4v-.2Z" transform="translate(-565.1 -447.1)"/><path d="M586.3,452.9c.1,0,.1.1.2.2h-.1c-.1.1-.3.2-.3.4h0c-.1,0-.1-.1-.1-.2l.3-.3Z" transform="translate(-565.1 -447.1)" fill="#f3bb27"/><path d="M586.2,453.4H586v-.2l.3-.3a.2.2,0,0,1,.2.2h-.1a.3.3,0,0,0-.3.3Zm.1-.5-.3.3v.2h.1c0-.2.2-.3.3-.4h.1c-.1-.1-.1-.2-.2-.2Z" transform="translate(-565.1 -447.1)"/><path d="M586.8,452.8h0a.1.1,0,0,1-.1.1h0v-.2Z" transform="translate(-565.1 -447.1)" fill="#f3bb27"/><path d="M586.7,453h0v-.2h0c0,.1,0,.2-.1.2Zm.1-.1h-.1a.1.1,0,0,0,.1-.1Z" transform="translate(-565.1 -447.1)"/><path d="M586.9,452.9h0l-.2.2h0a.3.3,0,0,1,.1-.2Z" transform="translate(-565.1 -447.1)" fill="#f3bb27"/><path d="M586.7,453.1h0a.3.3,0,0,1,.1-.2h.1l-.2.2Zm.2-.2c-.1.1-.2.1-.2.2h0l.2-.2Z" transform="translate(-565.1 -447.1)"/><path d="M586.9,452.9h0a.2.2,0,0,1-.2.2h0l.2-.2Z" transform="translate(-565.1 -447.1)" fill="#f3bb27"/><path d="M586.7,453.1h0l.2-.2h0a.2.2,0,0,1-.2.2Zm.2-.2-.2.2h0a.2.2,0,0,0,.2-.2Z" transform="translate(-565.1 -447.1)"/><path d="M586.9,452.9a.1.1,0,0,0,.1.1h0l-.2.2h0V453Z" transform="translate(-565.1 -447.1)" fill="#f3bb27"/><path d="M586.8,453.2h0c.1-.1.1-.1.1-.2a.3.3,0,0,1-.1.2V453h.1l-.2.2Z" transform="translate(-565.1 -447.1)"/><path d="M586.9,452.9h0v.2h-.2c.1,0,.1,0,.1-.1a.1.1,0,0,0,.1-.1Z" transform="translate(-565.1 -447.1)" fill="#f3bb27"/><path d="M586.8,453.1h0a.1.1,0,0,0,.1-.1h0v.2Zm0,0h0c.1-.1.1-.1.1-.2s0,.1-.1.1Z" transform="translate(-565.1 -447.1)"/><path d="M587,453h0l-.2.2h0c.1-.1.1-.1.1-.2Z" transform="translate(-565.1 -447.1)" fill="#f3bb27"/><path d="M586.8,453.2h0l.2-.2-.2.2a.3.3,0,0,0,.1-.2h.1a.2.2,0,0,1-.2.2Z" transform="translate(-565.1 -447.1)"/><path d="M587,453h0a.2.2,0,0,1-.2.2h0l.2-.2Z" transform="translate(-565.1 -447.1)" fill="#f3bb27"/><path d="M586.8,453.2h0a.2.2,0,0,0,.2-.2l-.2.2.2-.2h0a.2.2,0,0,1-.2.2Z" transform="translate(-565.1 -447.1)"/><path d="M587,453h0a.3.3,0,0,0-.1.2h-.1a.2.2,0,0,0,.2-.2Z" transform="translate(-565.1 -447.1)" fill="#f3bb27"/><path d="M586.8,453.3h0l.2-.2h-.1a.3.3,0,0,0,.1-.2h0c0,.2-.1.2-.1.3Z" transform="translate(-565.1 -447.1)"/><path d="M587.1,453.1h0l-.2.2h.2Z" transform="translate(-565.1 -447.1)" fill="#f3bb27"/><path d="M586.9,453.3h0l.2-.2h0l-.2.2Z" transform="translate(-565.1 -447.1)"/><path d="M587.1,453.1h0l-.2.2h0l.2-.2Z" transform="translate(-565.1 -447.1)" fill="#f3bb27"/><path d="M586.9,453.3h0l.2-.2-.2.2.2-.2h0l-.2.2Z" transform="translate(-565.1 -447.1)"/><path d="M587.1,453.1h0a.4.4,0,0,1-.1.3h-.1l.2-.2Z" transform="translate(-565.1 -447.1)" fill="#f3bb27"/><path d="M587,453.4h0v-.1a.3.3,0,0,1,.1-.2h0a.3.3,0,0,1-.1.2Z" transform="translate(-565.1 -447.1)"/><path d="M587.1,453.1h.1l-.2.2h0v-.2Z" transform="translate(-565.1 -447.1)" fill="#f3bb27"/><path d="M587,453.4h.2l-.2.2Zm.1-.2a.3.3,0,0,1-.1.2h0c.1-.1.1-.1.1-.2Z" transform="translate(-565.1 -447.1)"/><path d="M587.2,453.2h0c-.1.1-.1.2-.2.2h0c.1-.1.1-.1.1-.2Z" transform="translate(-565.1 -447.1)" fill="#f3bb27"/><path d="M587,453.4h0l.2-.2-.2.2a.3.3,0,0,0,.1-.2h.1a.2.2,0,0,1-.2.2Z" transform="translate(-565.1 -447.1)"/><path d="M587.2,453.2h0a.2.2,0,0,1-.2.2h0c.1,0,.1-.1.2-.2Z" transform="translate(-565.1 -447.1)" fill="#f3bb27"/><path d="M587,453.4h0c.1,0,.1-.1.2-.2h0a.2.2,0,0,1-.2.2Zm.2-.2c-.1.1-.1.2-.2.2h0a.2.2,0,0,0,.2-.2Z" transform="translate(-565.1 -447.1)"/><path d="M587.2,453.2h0v.2H587a.1.1,0,0,1,.1-.1.3.3,0,0,0,.1-.2Z" transform="translate(-565.1 -447.1)" fill="#f3bb27"/><path d="M587.1,453.5h0a.3.3,0,0,0,.1-.2h0c0,.2,0,.2-.1.3Zm.1-.2h-.1a.3.3,0,0,1,.1-.2Z" transform="translate(-565.1 -447.1)"/><path d="M587.3,453.3h0c-.1.1-.1.2-.2.2h0v-.2Z" transform="translate(-565.1 -447.1)" fill="#f3bb27"/><path d="M587.1,453.5h0v-.2h.1c-.1.1-.1.2-.2.2Zm.2-.2-.2.2h0c.1,0,.1-.1.2-.2Z" transform="translate(-565.1 -447.1)"/><path d="M587.3,453.3h0c0,.1-.1.2-.1.3h-.1a.2.2,0,0,0,.2-.2Z" transform="translate(-565.1 -447.1)" fill="#f3bb27"/><path d="M587.2,453.6h0c0-.1.1-.2.1-.3v0h0c0,.2-.1.2-.1.3Z" transform="translate(-565.1 -447.1)"/><path d="M587.3,453.3h-.1c0,.1,0,.1-.1.1h.2Z" transform="translate(-565.1 -447.1)" fill="#f3bb27"/><path d="M587.1,453.5h.1c0,.1,0,.1-.1.1Zm0-.1h0a.1.1,0,0,0,.1-.1h-.1Z" transform="translate(-565.1 -447.1)"/><path d="M588.2,452.9l-.6-.5a.1.1,0,0,1,.1.1c.4.8-.2,3.1.5,3.7l.5.5c-.7-.6,0-2.9-.4-3.7a.1.1,0,0,1-.1-.1Z" transform="translate(-565.1 -447.1)" fill="#fff"/><path d="M588.7,456.7h-.1l-.4-.4c-.4-.3-.4-1.2-.3-2a4.2,4.2,0,0,0-.2-1.7.1.1,0,0,0-.1-.1h0c.1,0,.1,0,.1.1l.5.4a.1.1,0,0,0,.1.1,8.1,8.1,0,0,1,.1,1.7c0,.8-.1,1.6.3,1.9h0Zm-1-4.2h0a4.2,4.2,0,0,1,.2,1.7c-.1.8-.1,1.7.3,2l.4.4c-.3-.4-.2-1.2-.2-1.9a4.2,4.2,0,0,0-.2-1.7h0l-.5-.4Z" transform="translate(-565.1 -447.1)"/><path d="M587.7,452.4h0c.4.8-.2,3.1.5,3.7s0-2.8-.4-3.6a.1.1,0,0,0-.1-.1Z" transform="translate(-565.1 -447.1)" fill="#f3bb27"/><path d="M588.2,456.2h0c-.4-.3-.4-1.2-.3-2a4.2,4.2,0,0,0-.2-1.7h0c0,.1.1.1.1.2a2.7,2.7,0,0,1,.1,1.6,3.8,3.8,0,0,0,.3,2Zm-.5-3.7h0a4.2,4.2,0,0,1,.2,1.7c-.1.8-.1,1.6.2,1.9a5,5,0,0,1-.2-1.9,3.9,3.9,0,0,0-.1-1.6Z" transform="translate(-565.1 -447.1)"/><path d="M588.1,454.1v.2H588v.3h.1c0,.2-.1.3-.1.5h.2v-.4h.1v-.3h-.1v-.3Z" transform="translate(-565.1 -447.1)" fill="#f3bb27"/><path d="M588.2,455.1H588a.4.4,0,0,1,.1-.3v-.2H588v-.3h.1v-.2h.1v.3h.1v.3h-.1v.4Zm-.2-.9v.3h.1v.2c0,.1-.1.2,0,.3h.1v-.4h.1v-.3h-.1v-.3h-.1v.2Z" transform="translate(-565.1 -447.1)"/><path d="M588.2,453c.4.7-.2,2.9.4,3.6h.1c-.6-.7-.1-2.8-.4-3.6a.1.1,0,0,1-.1-.1c-.1-.1,0,0,0,.1Zm.5,3.6Z" transform="translate(-565.1 -447.1)" fill="#f3bb27"/><path d="M588.7,456.6h-.1a3.8,3.8,0,0,1-.3-2,3.9,3.9,0,0,0-.1-1.6.1.1,0,0,0-.1-.1h.1a.1.1,0,0,0,.1.1,8.1,8.1,0,0,1,.1,1.7c0,.8-.1,1.6.3,1.9Zm-.6-3.7a.1.1,0,0,1,.1.1,2.7,2.7,0,0,1,.1,1.6,3.8,3.8,0,0,0,.3,2h0c-.3-.4-.2-1.2-.2-1.9a4.2,4.2,0,0,0-.2-1.7h-.1Z" transform="translate(-565.1 -447.1)"/><path d="M588.2,452.9l-.6-.5c-.2-.2-.6,0-.8.4l.5.5c.2-.4.6-.6.9-.4Z" transform="translate(-565.1 -447.1)" fill="#fff"/><path d="M587.3,453.4h0l-.5-.6c.2-.4.6-.6.8-.4l.6.5h-.3c-.2,0-.4.2-.6.5Zm.1-1.1a.7.7,0,0,0-.6.5l.5.5c.2-.4.6-.6.9-.4l-.6-.5Z" transform="translate(-565.1 -447.1)"/><path d="M587.9,452.8a.6.6,0,0,0-.6.5h0c.2-.4.6-.6.8-.4h-.2Z" transform="translate(-565.1 -447.1)" fill="#f3bb27"/><path d="M587.3,453.4h0a.6.6,0,0,1,.6-.5h.2c-.2-.2-.6,0-.8.4Zm.6-.6a.6.6,0,0,0-.6.5h0c.2-.4.6-.6.8-.4Z" transform="translate(-565.1 -447.1)"/><path d="M587.4,452.3a.7.7,0,0,0-.6.5h.1c.1-.4.6-.7.8-.4h-.3Z" transform="translate(-565.1 -447.1)" fill="#f3bb27"/><path d="M586.9,452.9h-.1a.7.7,0,0,1,.6-.5h.1a.6.6,0,0,0-.6.5Zm.5-.6a.7.7,0,0,0-.6.5h.1c.1-.4.5-.6.7-.5h-.2Z" transform="translate(-565.1 -447.1)"/><path d="M593.8,452.8h0a.1.1,0,0,0,.1.1h0v-.2Z" transform="translate(-565.1 -447.1)" fill="#f3bb27"/><path d="M593.9,453h0a.1.1,0,0,1-.1-.1h0v.2h0Zm-.1-.2c0,.1,0,.2.1.2h0v-.2Z" transform="translate(-565.1 -447.1)"/><path d="M593.7,452.9h0l.2.2h0a.3.3,0,0,1-.1-.2Z" transform="translate(-565.1 -447.1)" fill="#f3bb27"/><path d="M593.9,453.1h0l-.2-.2h.1c0,.1,0,.1.1.2h0c0-.1-.1-.1-.1-.2s.1.1.1.2Z" transform="translate(-565.1 -447.1)"/><path d="M593.7,452.9h0a.2.2,0,0,0,.2.2h0c-.1,0-.1-.1-.2-.2Z" transform="translate(-565.1 -447.1)" fill="#f3bb27"/><path d="M593.9,453.1h0a.2.2,0,0,1-.2-.2h0a.2.2,0,0,0,.2.2h0c-.1,0-.1-.1-.2-.2s.1.2.2.2Z" transform="translate(-565.1 -447.1)"/><path d="M593.7,452.9h-.1l.2.2h0V453Z" transform="translate(-565.1 -447.1)" fill="#f3bb27"/><path d="M593.8,453.2h0l-.2-.2h.1c0,.1.1.2.1.3h0V453c0,.1,0,.1.1.2Z" transform="translate(-565.1 -447.1)"/><path d="M593.7,452.9h0v.2h.2c-.1,0-.1,0-.1-.1a.1.1,0,0,1-.1-.1Z" transform="translate(-565.1 -447.1)" fill="#f3bb27"/><path d="M593.8,453.1h-.1v-.2h0a.1.1,0,0,0,.1.1Zm-.1-.2c0,.1,0,.1.1.2h.1c-.1,0-.1,0-.1-.1s-.1,0-.1-.1Z" transform="translate(-565.1 -447.1)"/><path d="M593.6,453h0l.2.2h0c-.1-.1-.1-.1-.1-.2Z" transform="translate(-565.1 -447.1)" fill="#f3bb27"/><path d="M593.8,453.2h0a.2.2,0,0,1-.2-.2h0l.2.2Zm0,0c-.1-.1-.1-.1-.1-.2s0,.1.1.2Z" transform="translate(-565.1 -447.1)"/><path d="M593.6,453h0a.2.2,0,0,0,.2.2h0l-.2-.2Z" transform="translate(-565.1 -447.1)" fill="#f3bb27"/><path d="M593.8,453.2h0a.2.2,0,0,1-.2-.2h0l.2.2h0l-.2-.2a.2.2,0,0,0,.2.2Z" transform="translate(-565.1 -447.1)"/><path d="M593.6,453h0a.3.3,0,0,1,.1.2h.1a.2.2,0,0,1-.2-.2Z" transform="translate(-565.1 -447.1)" fill="#f3bb27"/><path d="M593.8,453.3h-.1c0-.1-.1-.1-.1-.2h0a.2.2,0,0,0,.2.2h0a.2.2,0,0,1-.2-.2c0,.1.1.2.2.3Z" transform="translate(-565.1 -447.1)"/><path d="M593.5,453.1h0l.2.2h-.2Z" transform="translate(-565.1 -447.1)" fill="#f3bb27"/><path d="M593.7,453.3h0l-.2-.2h.2v0Z" transform="translate(-565.1 -447.1)"/><path d="M593.5,453.1h0l.2.2h0l-.2-.2Z" transform="translate(-565.1 -447.1)" fill="#f3bb27"/><path d="M593.7,453.3h0l-.2-.2h0l.2.2h0l-.2-.2.2.2Z" transform="translate(-565.1 -447.1)"/><path d="M593.5,453.1h0a.4.4,0,0,0,.1.3h.1l-.2-.2Z" transform="translate(-565.1 -447.1)" fill="#f3bb27"/><path d="M593.6,453.4h0a.3.3,0,0,1-.1-.2h0l.2.2h0l-.2-.2v.3Z" transform="translate(-565.1 -447.1)"/><path d="M593.5,453.1h-.1l.2.2h0v-.2Z" transform="translate(-565.1 -447.1)" fill="#f3bb27"/><path d="M593.6,453.4h0l-.2-.2h.1v.2Zm-.1-.2c0,.1,0,.1.1.2h0a.3.3,0,0,1-.1-.2Z" transform="translate(-565.1 -447.1)"/><path d="M593.4,453.2h0c.1.1.1.2.2.2h0c-.1-.1-.1-.1-.1-.2Z" transform="translate(-565.1 -447.1)" fill="#f3bb27"/><path d="M593.6,453.4h0a.2.2,0,0,1-.2-.2h0l.2.2h0l-.2-.2c0,.1.1.1.2.2Z" transform="translate(-565.1 -447.1)"/><path d="M593.4,453.2h0a.2.2,0,0,0,.2.2h0c-.1,0-.1-.1-.2-.2Z" transform="translate(-565.1 -447.1)" fill="#f3bb27"/><path d="M593.6,453.4h0a.2.2,0,0,1-.2-.2h0c.1.1.1.2.2.2Zm-.2-.2a.2.2,0,0,0,.2.2h0a.2.2,0,0,1-.2-.2Z" transform="translate(-565.1 -447.1)"/><path d="M593.4,453.2h0v.2h0a.3.3,0,0,1-.1-.2Z" transform="translate(-565.1 -447.1)" fill="#f3bb27"/><path d="M593.5,453.5h0v-.2h0c0,.1.1.1.1.2h0a.3.3,0,0,0-.1-.2h.1Z" transform="translate(-565.1 -447.1)"/><path d="M593.3,453.3h0c.1.1.1.2.2.2h0v-.2Z" transform="translate(-565.1 -447.1)" fill="#f3bb27"/><path d="M593.5,453.5h0c-.1,0-.1-.1-.2-.2h.1c0,.1,0,.2.1.2h0v-.2c0,.1.1.1.1.2Z" transform="translate(-565.1 -447.1)"/><path d="M593.3,453.3h0c0,.1.1.2.1.3h.1a.2.2,0,0,1-.2-.2Z" transform="translate(-565.1 -447.1)" fill="#f3bb27"/><path d="M593.4,453.6h0c0-.1-.1-.1-.1-.2h0c.1.1.1.2.2.2a.1.1,0,0,1-.1.1c0-.1-.1-.2-.1-.3s.1.2.1.3Z" transform="translate(-565.1 -447.1)"/><path d="M593.3,453.3h.1c0,.1,0,.1.1.1h-.2Z" transform="translate(-565.1 -447.1)" fill="#f3bb27"/><path d="M593.5,453.5c-.1,0-.1,0-.1-.1h0a.1.1,0,0,0,.1.1Z" transform="translate(-565.1 -447.1)"/><path d="M592.4,452.9l.6-.5a.1.1,0,0,0-.1.1c-.4.8.2,3.1-.5,3.7l-.5.5c.7-.6,0-2.9.4-3.7a.1.1,0,0,0,.1-.1Z" transform="translate(-565.1 -447.1)" fill="#fff"/><path d="M591.9,456.7h0c.4-.3.3-1.1.3-1.9a8.1,8.1,0,0,1,.1-1.7.1.1,0,0,0,.1-.1l.6-.5h0a.1.1,0,0,0-.1.1,4.2,4.2,0,0,0-.2,1.7c.1.8.1,1.7-.3,2l-.5.4h0Zm1-4.3-.5.5c0,.1,0,.1-.1.1a8.1,8.1,0,0,0-.1,1.7c0,.7.1,1.5-.2,1.9l.4-.4c.4-.3.4-1.2.3-2a4.2,4.2,0,0,1,.2-1.7Z" transform="translate(-565.1 -447.1)"/><path d="M592.5,454.1v.2h.1v.3h-.1c0,.2.1.3.1.5h-.2v-.4h-.1v-.3h.1v-.3Z" transform="translate(-565.1 -447.1)" fill="#f3bb27"/><path d="M592.4,455.1h0v-.4h-.1v-.3h.1v-.3h.1v.2h.1v.3h-.1v.2a.4.4,0,0,1,.1.3Zm0-.5v.4h.1v-.5h.1v-.3h-.1v-.2h-.1v.3h-.1v.3Z" transform="translate(-565.1 -447.1)"/><path d="M592.9,452.4h0c-.4.8.2,3.1-.5,3.7s0-2.8.4-3.6a.1.1,0,0,1,.1-.1Z" transform="translate(-565.1 -447.1)" fill="#f3bb27"/><path d="M592.4,456.2h0a3.8,3.8,0,0,0,.3-2,2.7,2.7,0,0,1,.1-1.6.1.1,0,0,1,.1-.1h-.1a3.9,3.9,0,0,0-.1,1.6,5,5,0,0,1-.2,1.9c.3-.3.3-1.1.2-1.9a4.2,4.2,0,0,1,.2-1.7h0a4.2,4.2,0,0,0-.2,1.7c.1.8.1,1.7-.3,2Z" transform="translate(-565.1 -447.1)"/><path d="M592.4,453c-.4.7.2,2.9-.4,3.6h-.1c.6-.7.1-2.8.4-3.6a.1.1,0,0,0,.1-.1c.1-.1,0,0,0,.1Zm-.5,3.6Z" transform="translate(-565.1 -447.1)" fill="#f3bb27"/><path d="M591.9,456.6h0c.4-.3.3-1.1.3-1.9a8.1,8.1,0,0,1,.1-1.7.1.1,0,0,0,.1-.1h.1a.1.1,0,0,0-.1.1,3.9,3.9,0,0,0-.1,1.6,3.8,3.8,0,0,1-.3,2h-.1Zm.5-3.7h0c0,.1,0,.1-.1.1a8.1,8.1,0,0,0-.1,1.7c0,.7.1,1.5-.2,1.9h0a3.8,3.8,0,0,0,.3-2,2.7,2.7,0,0,1,.1-1.6Z" transform="translate(-565.1 -447.1)"/><path d="M592.4,452.9l.6-.5c.2-.2.6,0,.8.4l-.5.5c-.2-.4-.6-.6-.9-.4Z" transform="translate(-565.1 -447.1)" fill="#fff"/><path d="M593.3,453.4h0c-.2-.4-.6-.6-.9-.4h.1l.5-.5c.2-.2.6,0,.8.4l-.5.6Zm-.6-.6c.2,0,.4.2.6.5l.5-.5c-.2-.4-.6-.6-.8-.4l-.5.5Z" transform="translate(-565.1 -447.1)"/><path d="M592.7,452.8a.6.6,0,0,1,.6.5h0c-.2-.4-.6-.6-.8-.4h.2Z" transform="translate(-565.1 -447.1)" fill="#f3bb27"/><path d="M593.3,453.4h0c-.2-.4-.6-.6-.8-.4h.2a.6.6,0,0,1,.6.5Zm-.6-.6c.2,0,.4.2.6.5h0a.6.6,0,0,0-.6-.5Z" transform="translate(-565.1 -447.1)"/><path d="M593.2,452.3a.7.7,0,0,1,.6.5h-.1c-.1-.4-.6-.7-.8-.4h.3Z" transform="translate(-565.1 -447.1)" fill="#f3bb27"/><path d="M593.7,452.9h0c-.1-.4-.6-.7-.8-.4h.3a.7.7,0,0,1,.6.5Zm-.6-.5a.6.6,0,0,1,.6.5h.1a.7.7,0,0,0-.6-.5h-.1Z" transform="translate(-565.1 -447.1)"/><path d="M587.7,452.5h-.3l-.4.3.2.2c0-.2.1-.3.3-.4h.2Z" transform="translate(-565.1 -447.1)" fill="#f3bb27"/><path d="M587.2,453.1l-.2-.2.4-.3h0l-.4.3.2.2c.1-.2.1-.3.3-.4h0a.1.1,0,0,0-.1-.1c0,.1-.1.2-.2.4Zm.1-.6a.1.1,0,0,1,.1-.1h0a.1.1,0,0,0-.1.1Z" transform="translate(-565.1 -447.1)"/><path d="M592.9,452.5h.3l.4.3-.2.2c0-.2-.1-.3-.3-.4h-.2Z" transform="translate(-565.1 -447.1)" fill="#f3bb27"/><path d="M593.4,453.1h0l-.3-.4h.1l.4.3-.2.2Zm-.3-.4c.2.1.2.2.3.4l.2-.2-.4-.3h-.1Z" transform="translate(-565.1 -447.1)"/></g></g></g></svg>