<svg xmlns="http://www.w3.org/2000/svg" xmlns:xlink="http://www.w3.org/1999/xlink" viewBox="0 0 33.6 19.6"><defs><clipPath id="a" transform="translate(-545.9 -447.7)"><rect x="545.9" y="447.7" width="33.6" height="19.58" fill="none"/></clipPath></defs><title>VEN</title><g clip-path=""><rect width="33.6" height="6.53" fill="#eed12f"/><rect y="6.5" width="33.6" height="6.53" fill="#242ea7"/><rect y="13.1" width="33.6" height="6.53" fill="#bd0034"/><polygon points="15.3 8.8 15.6 7 16.5 8.6 14.8 7.8 16.6 7.5 15.3 8.8" fill="#fff"/><polygon points="17.1 8.6 18 7 18.2 8.8 16.9 7.5 18.8 7.8 17.1 8.6" fill="#fff"/><polygon points="13.7 9.6 13.3 7.8 14.7 9.1 12.9 8.9 14.5 7.9 13.7 9.6" fill="#fff"/><polygon points="18.8 9.1 20.2 7.8 19.8 9.6 19.1 7.9 20.7 8.9 18.8 9.1" fill="#fff"/><polygon points="12.5 10.9 11.5 9.4 13.2 10.1 11.4 10.5 12.6 9.1 12.5 10.9" fill="#fff"/><polygon points="20.3 10.1 22.1 9.4 21.1 10.9 20.9 9.1 22.2 10.5 20.3 10.1" fill="#fff"/><polygon points="11.8 12.6 10.3 11.4 12.2 11.5 10.6 12.5 11.3 10.8 11.8 12.6" fill="#fff"/><polygon points="21.4 11.5 23.3 11.4 21.8 12.6 22.3 10.8 23 12.5 21.4 11.5" fill="#fff"/></g></svg>