<svg xmlns="http://www.w3.org/2000/svg" xmlns:xlink="http://www.w3.org/1999/xlink" viewBox="0 0 33.6 19.6"><defs><clipPath id="a" transform="translate(-564.6 -446.8)"><rect x="564.6" y="446.8" width="33.6" height="19.58" fill="none"/></clipPath></defs><title>WSM</title><g clip-path=""><rect width="33.6" height="19.58" fill="#bc0030"/><rect width="17.9" height="8.97" fill="#1c2a7d"/><polygon points="9 6.2 9.7 8.6 7.7 7.1 10.2 7.1 8.2 8.6 9 6.2" fill="#fff"/><polygon points="6.2 2.6 6.8 4.5 5.2 3.3 7.2 3.3 5.6 4.5 6.2 2.6" fill="#fff"/><polygon points="11.8 2.2 12.3 4 10.8 2.9 12.7 2.9 11.2 4 11.8 2.2" fill="#fff"/><polygon points="9 0.4 9.6 2.3 8 1.1 10 1.1 8.4 2.3 9 0.4" fill="#fff"/><polygon points="10.3 4.5 10.7 5.7 9.7 5 11 5 9.9 5.7 10.3 4.5" fill="#fff"/></g></svg>