<svg xmlns="http://www.w3.org/2000/svg" xmlns:xlink="http://www.w3.org/1999/xlink" viewBox="0 0 33.6 19.6"><defs><clipPath id="a" transform="translate(-565.1 -447.4)"><rect x="565.1" y="447.4" width="33.6" height="19.58" fill="#fff"/></clipPath></defs><title>ZAF</title><rect width="33.6" height="19.58" fill="#fff"/><g clip-path=""><polygon points="5.9 0 15.7 6.5 33.6 6.5 33.6 0 5.9 0" fill="#d03033"/><polygon points="17.6 7.8 33.6 7.8 33.6 6.5 15.7 6.5 17.6 7.8" fill="#fff"/><polygon points="15.7 13.1 33.6 13.1 33.6 11.7 17.6 11.7 15.7 13.1" fill="#fff"/><polygon points="15.7 13.1 5.9 19.6 33.6 19.6 33.6 13.1 15.7 13.1" fill="#1f189b"/><polygon points="0 6.5 3.9 6.5 0 3.9 0 6.5"/><polygon points="0 6.5 0 13.1 3.9 13.1 8.8 9.8 3.9 6.5 0 6.5"/><polygon points="0 13.1 0 15.7 3.9 13.1 0 13.1"/><polygon points="0 3.9 8.8 9.8 0 15.7 0 17.2 11.2 9.8 0 2.4 0 3.9" fill="#f2b126"/><polygon points="0 0 0 2.4 11.2 9.8 0 17.2 0 19.6 3.5 19.6 15.3 11.7 33.6 11.7 33.6 7.8 15.3 7.8 3.5 0 0 0" fill="#32784c"/></g></svg>