<svg xmlns="http://www.w3.org/2000/svg" width="53" height="53" viewBox="0 0 53 53"><defs><clipPath id="a"><path fill="none" d="M0 28.23h53v6H0z"/></clipPath><clipPath id="b"><path fill="none" d="M-1.33 27.58h54.37v7.81H-1.33z"/></clipPath><clipPath id="c"><path d="M50 28.24a3.19 3.19 0 012.16.87 3.09 3.09 0 01.84 2.12 3 3 0 01-.89 2.12 3.22 3.22 0 01-2.16.88H3.04a3.2 3.2 0 01-2.16-.88 3 3 0 010-4.24 3.21 3.21 0 012.16-.87H50z" fill="none" clip-rule="evenodd"/></clipPath><clipPath id="d"><path fill="none" d="M0 27.58h53.04v7.81H0z"/></clipPath><clipPath id="e"><path d="M50 20.14a3.24 3.24 0 002.16-.87 3.09 3.09 0 00.84-2.12 3 3 0 00-.89-2.15 3.21 3.21 0 00-2.11-.84H15.26a3.19 3.19 0 00-2.16.84 3 3 0 00-.89 2.12 3 3 0 00.89 2.12 3.26 3.26 0 002.16.87H50z" fill="none" clip-rule="evenodd"/></clipPath><clipPath id="f"><path d="M50 6a3.19 3.19 0 002.16-.87A3.07 3.07 0 0053 3a3 3 0 00-.89-2.12A3.21 3.21 0 0050 0H27.48a3.17 3.17 0 00-2.16.87 3 3 0 00-.9 2.13 3 3 0 00.9 2.12 3.19 3.19 0 002.16.88H50z" fill="none" clip-rule="evenodd"/></clipPath></defs><g clip-path="url(#a)"><g clip-path="url(#b)"><g clip-path="url(#c)"><g clip-path="url(#d)"><path d="M-6.63 21.72h66.26v19.02H-6.63z"/></g></g></g></g><g clip-path="url(#e)"><path d="M5.58 7.65h54.05v19H5.58z"/></g><g clip-path="url(#f)"><path d="M17.79-6.51h41.84V12.5H17.79z"/></g><path d="M1 41.9h2.1l3.16 8.16 3.16-8.16h2.09v10.51H9.42v-3.26c0-1 0-1.88.07-2.57l-2.21 5.68h-2L3 46.61c.06.66.08 1.49.08 2.54v3.26H1zm16.56 0h6.2v2h-4.12v2.21h3.67V48h-3.67v2.4h4.12v2h-6.2zm11.95 0h2.06l4.4 7v-7h2.1v10.51H36l-4.4-7v7h-2.09zm14.49 0h2.1v6.23c0 1.59.83 2.46 2.06 2.46s2.08-1 2.08-2.46V41.9h2.07v6.47a4.16 4.16 0 11-8.31 0z" fill="#231f20"/></svg>