<svg xmlns="http://www.w3.org/2000/svg" xmlns:xlink="http://www.w3.org/1999/xlink" width="53" height="53" viewBox="0 0 53 53">
  <defs>
    <clipPath id="a">
      <rect y="28.23" width="53" height="6" fill="none"/>
    </clipPath>
    <clipPath id="b">
      <rect x="-1.33" y="27.58" width="54.37" height="7.81" fill="none"/>
    </clipPath>
    <clipPath id="c">
      <path d="M50,28.24a3.19,3.19,0,0,1,2.16.87A3.09,3.09,0,0,1,53,31.23a3,3,0,0,1-.89,2.12,3.22,3.22,0,0,1-2.16.88h-.08c-.61,0-1.22,0-1.83,0h-45a3.2,3.2,0,0,1-2.16-.88,3,3,0,0,1,0-4.24,3.21,3.21,0,0,1,2.16-.87H50Z" fill="none" clip-rule="evenodd"/>
    </clipPath>
    <clipPath id="d">
      <rect y="27.58" width="53.04" height="7.81" fill="none"/>
    </clipPath>
    <clipPath id="e">
      <path d="M50,20.14a3.24,3.24,0,0,0,2.16-.87A3.09,3.09,0,0,0,53,17.15,3,3,0,0,0,52.11,15,3.21,3.21,0,0,0,50,14.16h-.07c-1.4,0-2.8,0-4.21,0H15.26A3.19,3.19,0,0,0,13.1,15a3,3,0,0,0-.89,2.12,3,3,0,0,0,.89,2.12,3.26,3.26,0,0,0,2.16.87h.06c1.41,0,2.81,0,4.22,0H50Z" fill="none" clip-rule="evenodd"/>
    </clipPath>
    <clipPath id="f">
      <path d="M50,6a3.19,3.19,0,0,0,2.16-.87A3.07,3.07,0,0,0,53,3,3,3,0,0,0,52.11.88,3.21,3.21,0,0,0,50,0h0C49,0,48.08,0,47.17,0H27.48a3.17,3.17,0,0,0-2.16.87A3,3,0,0,0,24.42,3a3,3,0,0,0,.9,2.12A3.19,3.19,0,0,0,27.48,6h0c.92,0,1.83,0,2.74,0H50Z" fill="none" clip-rule="evenodd"/>
    </clipPath>
  </defs>
  <title>icon-hamburger</title>
  <g>
    <g clip-path="url(#a)">
      <g style="isolation: isolate">
        <g clip-path="url(#b)">
          <g clip-path="url(#c)">
            <g clip-path="url(#d)">
              <rect x="-6.63" y="21.72" width="66.26" height="19.02"/>
            </g>
          </g>
        </g>
      </g>
    </g>
    <g clip-path="url(#e)">
      <rect x="5.58" y="7.65" width="54.05" height="19"/>
    </g>
    <g clip-path="url(#f)">
      <rect x="17.79" y="-6.51" width="41.84" height="19.01"/>
    </g>
  </g>
  <g>
    <path d="M1,41.9h2.1l3.16,8.16L9.42,41.9h2.09V52.41H9.42V49.15c0-1,0-1.88.07-2.57L7.28,52.26h-2L3,46.61c.06.66.08,1.49.08,2.54v3.26H1Z" fill="#231f20"/>
    <path d="M17.56,41.9h6.2v2H19.64v2.21h3.67V48H19.64V50.4h4.12v2h-6.2Z" fill="#231f20"/>
    <path d="M29.51,41.9h2.06l4.4,7v-7h2.1V52.41H36l-4.4-7v7H29.51Z" fill="#231f20"/>
    <path d="M44,41.9h2.1v6.23c0,1.59.83,2.46,2.06,2.46s2.08-1,2.08-2.46V41.9h2.07v6.47a4.16,4.16,0,1,1-8.31,0Z" fill="#231f20"/>
  </g>
</svg>
