<svg id="Layer_1" data-name="Layer 1" xmlns="http://www.w3.org/2000/svg" xmlns:xlink="http://www.w3.org/1999/xlink" viewBox="0 0 53 53"><defs><style>.cls-1{fill:none;}.cls-2{clip-path:url(#clip-path);}.cls-3{clip-path:url(#clip-path-2);}.cls-4{clip-path:url(#clip-path-3);}.cls-5{clip-path:url(#clip-path-4);}.cls-6{clip-path:url(#clip-path-5);}.cls-7{clip-path:url(#clip-path-6);}.cls-8{fill:#231f20;}</style><clipPath id="clip-path"><rect class="cls-1" y="28.23" width="53" height="6"/></clipPath><clipPath id="clip-path-2"><rect class="cls-1" x="-1.33" y="27.58" width="54.37" height="7.81"/></clipPath><clipPath id="clip-path-3"><path class="cls-1" d="M50,28.24a3.21,3.21,0,0,1,2.16.87A3.08,3.08,0,0,1,53,31.23a3,3,0,0,1-.89,2.12,3.22,3.22,0,0,1-2.16.88H3a3.2,3.2,0,0,1-2.16-.88,3,3,0,0,1,0-4.24A3.23,3.23,0,0,1,3,28.24Z"/></clipPath><clipPath id="clip-path-4"><rect class="cls-1" y="27.58" width="53.04" height="7.81"/></clipPath><clipPath id="clip-path-5"><path class="cls-1" d="M50,20.14a3.23,3.23,0,0,0,2.16-.87A3.08,3.08,0,0,0,53,17.15,3,3,0,0,0,52.11,15,3.19,3.19,0,0,0,50,14.16H15.26A3.2,3.2,0,0,0,13.1,15a3,3,0,0,0,0,4.24,3.23,3.23,0,0,0,2.16.87H50Z"/></clipPath><clipPath id="clip-path-6"><path class="cls-1" d="M50,6a3.21,3.21,0,0,0,2.16-.87A3.08,3.08,0,0,0,53,3,3,3,0,0,0,52.11.88,3.19,3.19,0,0,0,50,0H27.48a3.21,3.21,0,0,0-2.16.87A3,3,0,0,0,24.42,3a3,3,0,0,0,.9,2.12A3.15,3.15,0,0,0,27.48,6H50Z"/></clipPath></defs><title>icon-hamburger</title><g class="cls-2"><g class="cls-3"><g class="cls-4"><g class="cls-5"><rect x="-6.63" y="21.72" width="66.26" height="19.02"/></g></g></g></g><g class="cls-6"><rect x="5.58" y="7.65" width="54.05" height="19"/></g><g class="cls-7"><rect x="17.79" y="-6.51" width="41.84" height="19.01"/></g><path class="cls-8" d="M1,41.9H3.1l3.16,8.16L9.42,41.9h2.09V52.41H9.42V49.15c0-1,0-1.88.07-2.57L7.28,52.26h-2L3,46.61c.06.66.08,1.49.08,2.54v3.26H1Z"/><path class="cls-8" d="M17.56,41.9h6.2v2H19.64v2.21h3.67V48H19.64v2.4h4.12v2h-6.2Z"/><path class="cls-8" d="M29.51,41.9h2.06l4.4,7v-7h2.1V52.41H36l-4.4-7v7H29.51Z"/><path class="cls-8" d="M44,41.9h2.1v6.23c0,1.59.83,2.46,2.06,2.46a2.18,2.18,0,0,0,2.08-2.46V41.9h2.07v6.47a4.16,4.16,0,1,1-8.31.41,2.81,2.81,0,0,1,0-.41Z"/></svg>