<svg xmlns="http://www.w3.org/2000/svg" xmlns:xlink="http://www.w3.org/1999/xlink" width="53" height="53" viewBox="0 0 53 53">
  <defs>
    <clipPath id="a">
      <path d="M42.34,5.42A3.76,3.76,0,0,0,43.43,3.1,2.87,2.87,0,0,0,42.64.89,2.83,2.83,0,0,0,40.44.1a3.84,3.84,0,0,0-2.33,1.09l0,.05c-1.12,1.1-2.22,2.22-3.33,3.33L27.9,11.41l-8,8L13.4,25.9l-2.74,2.74A3.81,3.81,0,0,0,9.57,31a2.74,2.74,0,0,0,3,3,3.89,3.89,0,0,0,2.33-1.09l0-.05c1.12-1.1,2.22-2.23,3.33-3.34l6.83-6.83,8-7.95L39.6,8.17Z" fill="none" clip-rule="evenodd"/>
    </clipPath>
    <clipPath id="b">
      <path d="M38.11,32.88A3.84,3.84,0,0,0,40.44,34a2.87,2.87,0,0,0,2.2-.79A2.82,2.82,0,0,0,43.43,31a3.78,3.78,0,0,0-1.09-2.33l-.05,0c-1.1-1.13-2.22-2.23-3.33-3.34l-6.83-6.83-8-7.95L17.63,3.94,14.89,1.19A3.84,3.84,0,0,0,12.56.1a2.87,2.87,0,0,0-2.2.79A2.82,2.82,0,0,0,9.57,3.1a3.73,3.73,0,0,0,1.09,2.32l.05,0C11.81,6.6,12.93,7.69,14,8.81l6.83,6.83,8,8,6.55,6.54Z" fill="none" clip-rule="evenodd"/>
    </clipPath>
  </defs>
  <title>icon-hamburger-close</title>
  <g clip-path="url(#a)">
    <rect x="-3.75" y="7.53" width="60.5" height="19" transform="translate(-4.28 23.73) rotate(-45)"/>
  </g>
  <g clip-path="url(#b)">
    <rect x="17" y="-13.22" width="19" height="60.5" transform="translate(-4.28 23.73) rotate(-45)"/>
  </g>
  <text transform="translate(0.2 52.5)" font-size="15" fill="#231f20" font-family="NeutrifStudio-Bold, Neutrif Studio" font-weight="700" letter-spacing="0.07em">C<tspan x="12.18" y="0" letter-spacing="0.05em">L</tspan><tspan x="21.04" y="0" letter-spacing="0.07em">O</tspan><tspan x="34.2" y="0" letter-spacing="0.07em">SE</tspan></text>
</svg>
