<svg id="Layer_1" data-name="Layer 1" xmlns="http://www.w3.org/2000/svg" xmlns:xlink="http://www.w3.org/1999/xlink" viewBox="0 0 53 53"><defs><style>.cls-1{fill:none;}.cls-2{clip-path:url(#clip-path);}.cls-3{clip-path:url(#clip-path-2);}.cls-4{isolation:isolate;}.cls-5{fill:#231f20;}</style><clipPath id="clip-path"><path class="cls-1" d="M42.34,5.42A3.77,3.77,0,0,0,43.43,3.1,2.86,2.86,0,0,0,42.64.89,2.82,2.82,0,0,0,40.44.1a3.82,3.82,0,0,0-2.33,1.09v.05C37,2.34,35.89,3.46,34.78,4.57L27.9,11.41l-8,8L13.4,25.9l-2.74,2.74A3.82,3.82,0,0,0,9.57,31,2.74,2.74,0,0,0,12,34a2.53,2.53,0,0,0,.55,0,3.87,3.87,0,0,0,2.33-1.09v0c1.12-1.1,2.22-2.23,3.33-3.34l6.83-6.83,8-8L39.6,8.17Z"/></clipPath><clipPath id="clip-path-2"><path class="cls-1" d="M38.11,32.88A3.83,3.83,0,0,0,40.44,34a2.89,2.89,0,0,0,2.2-.79A2.83,2.83,0,0,0,43.43,31a3.82,3.82,0,0,0-1.09-2.33h-.05c-1.1-1.13-2.22-2.23-3.33-3.34L32.13,18.5l-8-7.95-6.5-6.61L14.89,1.19A3.82,3.82,0,0,0,12.56.1a2.89,2.89,0,0,0-2.2.79A2.83,2.83,0,0,0,9.57,3.1a3.71,3.71,0,0,0,1.09,2.32h.05C11.81,6.6,12.93,7.69,14,8.81l6.83,6.83,8,8,6.55,6.54Z"/></clipPath></defs><title>icon-hamburger-close</title><g class="cls-2"><rect x="-3.75" y="7.53" width="60.5" height="19" transform="translate(-4.28 23.73) rotate(-45)"/></g><g class="cls-3"><rect x="17" y="-13.22" width="19" height="60.5" transform="translate(-4.28 23.73) rotate(-45)"/></g><g class="cls-4"><g class="cls-4"><path class="cls-5" d="M.73,47.19c0-3.28,2.19-5.57,5.27-5.57a4.77,4.77,0,0,1,4.79,3.29l-2.12.78A2.53,2.53,0,0,0,6,43.75C4.23,43.75,3,45.2,3,47.17s1.19,3.4,3,3.4a2.65,2.65,0,0,0,2.67-1.92l2.12.77A4.73,4.73,0,0,1,6,52.72C2.87,52.72.73,50.43.73,47.19Z"/></g><g class="cls-4"><path class="cls-5" d="M20.15,50.47v2H13.49V41.9H15.6v8.57Z"/></g><g class="cls-4"><path class="cls-5" d="M21.76,47.16a5.37,5.37,0,0,1,5.51-5.56,5.57,5.57,0,0,1,0,11.14A5.37,5.37,0,0,1,21.76,47.16Zm8.69,0a3.19,3.19,0,1,0-3.18,3.41A3.19,3.19,0,0,0,30.45,47.17Z"/></g><g class="cls-4"><path class="cls-5" d="M40.58,44.94a1.59,1.59,0,0,0-1.77-1.32c-1,0-1.52.44-1.52,1.09s.63,1.06,1.43,1.24l1.45.36a3.1,3.1,0,0,1,2.71,3.09c0,1.94-1.57,3.28-3.93,3.28s-4-1.38-4.13-3.18l2.09-.3c0,.84.77,1.46,2,1.46,1.08,0,1.68-.49,1.68-1.17s-.47-1-1.15-1.15L38,48c-2.24-.54-3-1.71-3-3.12,0-1.94,1.44-3.25,3.81-3.25,2.13,0,3.54,1.13,3.83,2.8Z"/><path class="cls-5" d="M45.53,41.9h6.26v2H47.63v2.24h3.7V48h-3.7v2.43h4.16v2H45.53Z"/></g></g></svg>